<svg width="24" height="658" viewBox="0 0 24 658" fill="none" xmlns="http://www.w3.org/2000/svg">
<rect width="24" height="252" rx="12" fill="#0084FF" fill-opacity="0.1"/>
<path d="M23.25 12C23.25 18.2132 18.2132 23.25 12 23.25C5.7868 23.25 0.75 18.2132 0.75 12C0.75 5.7868 5.7868 0.75 12 0.75C18.2132 0.75 23.25 5.7868 23.25 12Z" fill="#F5F5F5" stroke="#2A2A2A" stroke-width="1.5" stroke-linecap="round" stroke-linejoin="round"/>
<path d="M23.25 126C23.25 132.213 18.2132 137.25 12 137.25C5.7868 137.25 0.75 132.213 0.75 126C0.75 119.787 5.7868 114.75 12 114.75C18.2132 114.75 23.25 119.787 23.25 126Z" fill="#F5F5F5" stroke="#2A2A2A" stroke-width="1.5" stroke-linecap="round" stroke-linejoin="round"/>
<path d="M23.25 240C23.25 246.213 18.2132 251.25 12 251.25C5.7868 251.25 0.75 246.213 0.75 240C0.75 233.787 5.7868 228.75 12 228.75C18.2132 228.75 23.25 233.787 23.25 240Z" fill="#F5F5F5" stroke="#2A2A2A" stroke-width="1.5" stroke-linecap="round" stroke-linejoin="round"/>
<path d="M23.25 646C23.25 652.213 18.2132 657.25 12 657.25C5.7868 657.25 0.75 652.213 0.75 646C0.75 639.787 5.7868 634.75 12 634.75C18.2132 634.75 23.25 639.787 23.25 646Z" stroke="#2A2A2A" stroke-width="1.5" stroke-linecap="round" stroke-linejoin="round"/>
<path d="M23.25 532C23.25 538.213 18.2132 543.25 12 543.25C5.7868 543.25 0.75 538.213 0.75 532C0.75 525.787 5.7868 520.75 12 520.75C18.2132 520.75 23.25 525.787 23.25 532Z" stroke="#2A2A2A" stroke-width="1.5" stroke-linecap="round" stroke-linejoin="round"/>
</svg>
