<svg width="24" height="27" viewBox="0 0 24 27" fill="none" xmlns="http://www.w3.org/2000/svg">
<g style="mix-blend-mode:multiply">
<path fill-rule="evenodd" clip-rule="evenodd" d="M12 24C18.6274 24 24 18.6274 24 12C24 5.37258 18.6274 0 12 0C5.37258 0 0 5.37258 0 12C0 18.6274 5.37258 24 12 24Z" fill="#87E3D6"/>
</g>
<path d="M23.25 15C23.25 21.2132 18.2132 26.25 12 26.25C5.7868 26.25 0.75 21.2132 0.75 15C0.75 8.7868 5.7868 3.75 12 3.75C18.2132 3.75 23.25 8.7868 23.25 15Z" stroke="#2A2A2A" stroke-width="1.5" stroke-linecap="round" stroke-linejoin="round"/>
<path d="M6.26358 13.9999C5.56861 13.9999 5 14.5685 5 15.2635C5 15.9584 5.56861 16.527 6.26358 16.527C6.95855 16.527 7.52716 15.9584 7.52716 15.2635C7.52716 14.5685 6.95855 13.9999 6.26358 13.9999Z" fill="#231F20"/>
<path d="M12 13.9999C11.305 13.9999 10.7364 14.5685 10.7364 15.2635C10.7364 15.9584 11.305 16.527 12 16.527C12.695 16.527 13.2636 15.9584 13.2636 15.2635C13.2636 14.5685 12.695 13.9999 12 13.9999Z" fill="#231F20"/>
<path d="M17.7364 13.9999C17.0414 13.9999 16.4728 14.5685 16.4728 15.2635C16.4728 15.9584 17.0414 16.527 17.7364 16.527C18.4314 16.527 19 15.9584 19 15.2635C19 14.5685 18.4314 13.9999 17.7364 13.9999Z" fill="#231F20"/>
</svg>
