<svg width="119" height="108" viewBox="0 0 119 108" fill="none" xmlns="http://www.w3.org/2000/svg">
<path fill-rule="evenodd" clip-rule="evenodd" d="M62.1911 28.7795C63.7512 28.7795 65.0159 27.5148 65.0159 25.9547C65.0159 24.3946 63.7512 23.1299 62.1911 23.1299C60.631 23.1299 59.3663 24.3946 59.3663 25.9547C59.3663 27.5148 60.631 28.7795 62.1911 28.7795Z" stroke="#2E2E2E" stroke-width="3" stroke-linecap="round" stroke-linejoin="round"/>
<path fill-rule="evenodd" clip-rule="evenodd" d="M10.8248 54.9094C12.3849 54.9094 13.6496 53.6447 13.6496 52.0846C13.6496 50.5245 12.3849 49.2598 10.8248 49.2598C9.26471 49.2598 8 50.5245 8 52.0846C8 53.6447 9.26471 54.9094 10.8248 54.9094Z" stroke="#2E2E2E" stroke-width="3" stroke-linecap="round" stroke-linejoin="round"/>
<path fill-rule="evenodd" clip-rule="evenodd" d="M91.8248 32.9099C93.3849 32.9099 94.6496 31.6452 94.6496 30.0851C94.6496 28.525 93.3849 27.2603 91.8248 27.2603C90.2647 27.2603 89 28.525 89 30.0851C89 31.6452 90.2647 32.9099 91.8248 32.9099Z" stroke="#2E2E2E" stroke-width="3" stroke-linecap="round" stroke-linejoin="round"/>
<path fill-rule="evenodd" clip-rule="evenodd" d="M96.8248 64.9099C98.3849 64.9099 99.6496 63.6452 99.6496 62.0851C99.6496 60.525 98.3849 59.2603 96.8248 59.2603C95.2647 59.2603 94 60.525 94 62.0851C94 63.6452 95.2647 64.9099 96.8248 64.9099Z" stroke="#2E2E2E" stroke-width="3" stroke-linecap="round" stroke-linejoin="round"/>
<path fill-rule="evenodd" clip-rule="evenodd" d="M26.8248 105.909C28.3849 105.909 29.6496 104.645 29.6496 103.085C29.6496 101.524 28.3849 100.26 26.8248 100.26C25.2647 100.26 24 101.524 24 103.085C24 104.645 25.2647 105.909 26.8248 105.909Z" stroke="#2E2E2E" stroke-width="3" stroke-linecap="round" stroke-linejoin="round"/>
<g style="mix-blend-mode:multiply">
<path fill-rule="evenodd" clip-rule="evenodd" d="M92.9547 32.9095C95.1389 32.9095 96.9095 31.1389 96.9095 28.9547C96.9095 26.7706 95.1389 25 92.9547 25C90.7706 25 89 26.7706 89 28.9547C89 31.1389 90.7706 32.9095 92.9547 32.9095Z" fill="#87E3D6"/>
</g>
<g style="mix-blend-mode:multiply">
<path fill-rule="evenodd" clip-rule="evenodd" d="M97.9547 64.9095C100.139 64.9095 101.909 63.1389 101.909 60.9547C101.909 58.7706 100.139 57 97.9547 57C95.7706 57 94 58.7706 94 60.9547C94 63.1389 95.7706 64.9095 97.9547 64.9095Z" fill="#87E3D6"/>
</g>
<g style="mix-blend-mode:multiply">
<path fill-rule="evenodd" clip-rule="evenodd" d="M27.9547 105.909C30.1389 105.909 31.9095 104.139 31.9095 101.955C31.9095 99.7706 30.1389 98 27.9547 98C25.7706 98 24 99.7706 24 101.955C24 104.139 25.7706 105.909 27.9547 105.909Z" fill="#87E3D6"/>
</g>
<g style="mix-blend-mode:multiply">
<path fill-rule="evenodd" clip-rule="evenodd" d="M13.083 54.9095C15.2672 54.9095 17.0378 53.1389 17.0378 50.9547C17.0378 48.7706 15.2672 47 13.083 47C10.8989 47 9.1283 48.7706 9.1283 50.9547C9.1283 53.1389 10.8989 54.9095 13.083 54.9095Z" fill="#87E3D6"/>
</g>
<g style="mix-blend-mode:multiply">
<path fill-rule="evenodd" clip-rule="evenodd" d="M64.4493 29.9095C66.6334 29.9095 68.404 28.1389 68.404 25.9547C68.404 23.7706 66.6334 22 64.4493 22C62.2651 22 60.4945 23.7706 60.4945 25.9547C60.4945 28.1389 62.2651 29.9095 64.4493 29.9095Z" fill="#87E3D6"/>
</g>
<path d="M85.1394 4.00586L80.3743 6.75698" stroke="#2E2E2E" stroke-width="3" stroke-linecap="round" stroke-linejoin="round"/>
<path d="M7.13937 79.0059L2.3743 81.757" stroke="#2E2E2E" stroke-width="3" stroke-linecap="round" stroke-linejoin="round"/>
<path d="M116.139 39.0059L111.374 41.757" stroke="#2E2E2E" stroke-width="3" stroke-linecap="round" stroke-linejoin="round"/>
<path d="M81.3825 3L84.1337 7.76508" stroke="#2E2E2E" stroke-width="3" stroke-linecap="round" stroke-linejoin="round"/>
<path d="M3.38254 78L6.13366 82.7651" stroke="#2E2E2E" stroke-width="3" stroke-linecap="round" stroke-linejoin="round"/>
<path d="M112.383 38L115.134 42.7651" stroke="#2E2E2E" stroke-width="3" stroke-linecap="round" stroke-linejoin="round"/>
<path fill-rule="evenodd" clip-rule="evenodd" d="M55.4117 93.1854C69.4526 93.1854 80.8349 81.8031 80.8349 67.7622C80.8349 53.7213 69.4526 42.3389 55.4117 42.3389C41.3708 42.3389 29.9884 53.7213 29.9884 67.7622C29.9884 81.8031 41.3708 93.1854 55.4117 93.1854Z" fill="#87E3D6"/>
<path fill-rule="evenodd" clip-rule="evenodd" d="M47.3356 64.1742C46.8611 63.7689 46.1479 63.8249 45.7425 64.2994L42.0221 68.6545C41.6168 69.129 41.6728 69.8423 42.1473 70.2476L54.4975 80.7978C54.4977 80.798 54.4979 80.798 54.4981 80.7978C54.4983 80.7976 54.4986 80.7976 54.4988 80.7977L54.4988 80.7978C54.499 80.798 54.4994 80.798 54.4996 80.7977L68.2924 64.6518C68.6978 64.1773 68.6417 63.4641 68.1672 63.0588L63.8121 59.3383C63.3376 58.933 62.6244 58.9891 62.2191 59.4635L54.3474 68.6781C53.9421 69.1526 53.2289 69.2086 52.7544 68.8033L47.3356 64.1742Z" fill="white"/>
<path fill-rule="evenodd" clip-rule="evenodd" d="M49.7621 94.3153C63.803 94.3153 75.1854 82.9329 75.1854 68.892C75.1854 54.8511 63.803 43.4688 49.7621 43.4688C35.7212 43.4688 24.3388 54.8511 24.3388 68.892C24.3388 82.9329 35.7212 94.3153 49.7621 94.3153Z" stroke="black" stroke-width="3" stroke-linecap="round" stroke-linejoin="round"/>
<path d="M35.6357 71.7173L34.4951 70.743C33.9571 71.3729 34.0315 72.3197 34.6614 72.8578L35.6357 71.7173ZM40.8239 65.6439L41.7982 64.5034C41.1683 63.9653 40.2215 64.0397 39.6834 64.6696L40.8239 65.6439ZM48.8453 83.0017L47.871 84.1423C48.1734 84.4007 48.5662 84.5283 48.9628 84.4971C49.3594 84.466 49.7274 84.2785 49.9858 83.976L48.8453 83.0017ZM48.8453 83.0017L49.8196 81.8612C49.5171 81.6028 49.1244 81.4751 48.7278 81.5063C48.3312 81.5374 47.9632 81.7249 47.7048 82.0274L48.8453 83.0017ZM48.8456 83.0019L47.8713 84.1424C48.1738 84.4008 48.5665 84.5285 48.9631 84.4973C49.3597 84.4661 49.7277 84.2787 49.9861 83.9762L48.8456 83.0019ZM63.3727 65.9964L64.5132 66.9707C65.0513 66.3408 64.9769 65.394 64.347 64.8559L63.3727 65.9964ZM57.2993 60.8082L58.2736 59.6677C57.6438 59.1296 56.6969 59.204 56.1588 59.8339L57.2993 60.8082ZM47.9604 71.7403L46.9861 72.8809C47.616 73.4189 48.5628 73.3445 49.1009 72.7146L47.9604 71.7403ZM36.7762 72.6916L41.9644 66.6182L39.6834 64.6696L34.4951 70.743L36.7762 72.6916ZM49.8195 81.8612L36.6099 70.5768L34.6614 72.8578L47.871 84.1423L49.8195 81.8612ZM47.7048 82.0274L47.7047 82.0275L49.9858 83.976L49.9858 83.976L47.7048 82.0274ZM49.8199 81.8614L49.8196 81.8612L47.871 84.1422L47.8713 84.1424L49.8199 81.8614ZM62.2322 65.0221L47.7051 82.0276L49.9861 83.9762L64.5132 66.9707L62.2322 65.0221ZM56.3251 61.9487L62.3984 67.1369L64.347 64.8559L58.2736 59.6677L56.3251 61.9487ZM49.1009 72.7146L58.4399 61.7825L56.1588 59.8339L46.8199 70.7661L49.1009 72.7146ZM39.8496 66.7844L46.9861 72.8809L48.9347 70.5998L41.7982 64.5034L39.8496 66.7844Z" fill="black"/>
</svg>
