<svg width="24" height="27" viewBox="0 0 24 27" fill="none" xmlns="http://www.w3.org/2000/svg">
<g style="mix-blend-mode:multiply">
<path fill-rule="evenodd" clip-rule="evenodd" d="M12 24C18.6274 24 24 18.6274 24 12C24 5.37258 18.6274 0 12 0C5.37258 0 0 5.37258 0 12C0 18.6274 5.37258 24 12 24Z" fill="#87E3D6"/>
</g>
<path d="M23.25 15C23.25 21.2132 18.2132 26.25 12 26.25C5.7868 26.25 0.75 21.2132 0.75 15C0.75 8.7868 5.7868 3.75 12 3.75C18.2132 3.75 23.25 8.7868 23.25 15Z" stroke="#2A2A2A" stroke-width="1.5" stroke-linecap="round" stroke-linejoin="round"/>
<path d="M17.6 11.5337L11.7229 18.9572C11.4592 19.2912 11.0553 19.5002 10.6162 19.53C10.1771 19.5598 9.74595 19.4074 9.43471 19.1125L6.40002 16.2374" stroke="#2A2A2A" stroke-width="1.5" stroke-linecap="round" stroke-linejoin="round"/>
</svg>
