<svg width="91" height="94" viewBox="0 0 91 94" fill="none" xmlns="http://www.w3.org/2000/svg">
<path d="M35.978 7.16428L42.3189 18.147L44.917 16.647L38.5761 5.66428L35.978 7.16428ZM42.4176 25.9752L36.0767 14.9924L33.4786 16.4924L39.8195 27.4752L42.4176 25.9752ZM42.3189 18.147C43.7904 20.6957 42.9172 23.9547 40.3685 25.4261L41.8685 28.0242C45.8521 25.7243 47.2169 20.6306 44.917 16.647L42.3189 18.147ZM36.5271 5.11525C32.5435 7.41514 31.1787 12.5089 33.4786 16.4924L36.0767 14.9924C34.6052 12.4437 35.4784 9.18479 38.0271 7.71332L36.5271 5.11525Z" fill="#2E2E2E"/>
<path d="M37.2773 6.41406L40.2342 4.7069C41.8673 3.76406 43.9555 4.32358 44.8983 5.95663V5.95663C45.8411 7.58968 45.2816 9.67785 43.6486 10.6207L40.6917 12.3279L37.2773 6.41406Z" stroke="#2E2E2E" stroke-width="3" stroke-linecap="round" stroke-linejoin="round"/>
<path d="M37.7041 20.8115L34.7472 22.5187C33.1142 23.4615 32.5546 25.5497 33.4975 27.1827V27.1827C34.4403 28.8158 36.5285 29.3753 38.1615 28.4325L41.1184 26.7253L37.7041 20.8115Z" stroke="#2E2E2E" stroke-width="3" stroke-linecap="round" stroke-linejoin="round"/>
<path d="M64.5933 56.6553L72.8638 66.2692L70.5895 68.2256L62.319 58.6118L64.5933 56.6553ZM80.2196 68.949L71.9491 59.3351L74.2233 57.3786L82.4938 66.9925L80.2196 68.949ZM72.8638 66.2692C74.783 68.5002 78.1475 68.7529 80.3785 66.8336L82.3349 69.1079C78.8479 72.1077 73.5893 71.7127 70.5895 68.2256L72.8638 66.2692ZM62.4779 56.4964C65.9649 53.4966 71.2235 53.8916 74.2233 57.3786L71.9491 59.3351C70.0298 57.1041 66.6654 56.8514 64.4344 58.7707L62.4779 56.4964Z" fill="#2E2E2E"/>
<path d="M63.4551 57.6338L60.8668 59.8605C59.4373 61.0902 59.2753 63.246 60.5051 64.6755V64.6755C61.7348 66.105 63.8906 66.2669 65.3201 65.0372L67.9085 62.8105L63.4551 57.6338Z" stroke="#2E2E2E" stroke-width="3" stroke-linecap="round" stroke-linejoin="round"/>
<path d="M76.9024 62.7939L79.4907 60.5673C80.9202 59.3375 83.076 59.4994 84.3057 60.9289V60.9289C85.5355 62.3584 85.3736 64.5142 83.9441 65.744L81.3557 67.9706L76.9024 62.7939Z" stroke="#2E2E2E" stroke-width="3" stroke-linecap="round" stroke-linejoin="round"/>
<path d="M30.1393 73.9341C27.7936 72.1756 29.5887 74.557 24.2761 69.2444C18.9635 63.9318 20.1725 65.1407 19.5862 63.382" stroke="#2E2E2E" stroke-width="3" stroke-linecap="round" stroke-linejoin="round" stroke-dasharray="1.17 5.86"/>
<path fill-rule="evenodd" clip-rule="evenodd" d="M58.8648 13.5518C60.4836 13.5518 61.796 12.2395 61.796 10.6206C61.796 9.00179 60.4836 7.68945 58.8648 7.68945C57.2459 7.68945 55.9336 9.00179 55.9336 10.6206C55.9336 12.2395 57.2459 13.5518 58.8648 13.5518Z" stroke="#2E2E2E" stroke-width="3" stroke-linecap="round" stroke-linejoin="round"/>
<path fill-rule="evenodd" clip-rule="evenodd" d="M9.62064 33.4844C11.2395 33.4844 12.5518 32.1721 12.5518 30.5533C12.5518 28.9344 11.2395 27.6221 9.62064 27.6221C8.00179 27.6221 6.68945 28.9344 6.68945 30.5533C6.68945 32.1721 8.00179 33.4844 9.62064 33.4844Z" stroke="#2E2E2E" stroke-width="3" stroke-linecap="round" stroke-linejoin="round"/>
<path fill-rule="evenodd" clip-rule="evenodd" d="M79.9693 41.6915C81.5881 41.6915 82.9005 40.3791 82.9005 38.7603C82.9005 37.1414 81.5881 35.8291 79.9693 35.8291C78.3504 35.8291 77.0381 37.1414 77.0381 38.7603C77.0381 40.3791 78.3504 41.6915 79.9693 41.6915Z" stroke="#2E2E2E" stroke-width="3" stroke-linecap="round" stroke-linejoin="round"/>
<g style="mix-blend-mode:multiply">
<path fill-rule="evenodd" clip-rule="evenodd" d="M81.1417 41.6917C83.4081 41.6917 85.2454 39.8544 85.2454 37.588C85.2454 35.3216 83.4081 33.4844 81.1417 33.4844C78.8754 33.4844 77.0381 35.3216 77.0381 37.588C77.0381 39.8544 78.8754 41.6917 81.1417 41.6917Z" fill="#87E3D6"/>
</g>
<g style="mix-blend-mode:multiply">
<path fill-rule="evenodd" clip-rule="evenodd" d="M11.9669 33.4847C14.2333 33.4847 16.0706 31.6474 16.0706 29.381C16.0706 27.1146 14.2333 25.2773 11.9669 25.2773C9.70055 25.2773 7.86328 27.1146 7.86328 29.381C7.86328 31.6474 9.70055 33.4847 11.9669 33.4847Z" fill="#87E3D6"/>
</g>
<g style="mix-blend-mode:multiply">
<path fill-rule="evenodd" clip-rule="evenodd" d="M61.2101 14.7249C63.4765 14.7249 65.3138 12.8876 65.3138 10.6212C65.3138 8.35485 63.4765 6.51758 61.2101 6.51758C58.9437 6.51758 57.1064 8.35485 57.1064 10.6212C57.1064 12.8876 58.9437 14.7249 61.2101 14.7249Z" fill="#87E3D6"/>
</g>
<path d="M88.0996 11.0791L83.1551 13.9338" stroke="#2E2E2E" stroke-width="3" stroke-linecap="round" stroke-linejoin="round"/>
<path d="M54.0977 34.5283L49.1531 37.383" stroke="#2E2E2E" stroke-width="3" stroke-linecap="round" stroke-linejoin="round"/>
<path d="M84.2012 10.0352L87.0559 14.9797" stroke="#2E2E2E" stroke-width="3" stroke-linecap="round" stroke-linejoin="round"/>
<path d="M50.1992 33.4844L53.0539 38.4289" stroke="#2E2E2E" stroke-width="3" stroke-linecap="round" stroke-linejoin="round"/>
<path fill-rule="evenodd" clip-rule="evenodd" d="M49.1609 69.5835C52.2533 66.4911 49.2451 58.469 42.4418 51.6658C35.6385 44.8625 27.6165 41.8542 24.5241 44.9466C21.4317 48.039 24.4399 56.061 31.2432 62.8643C38.0465 69.6676 46.0685 72.6758 49.1609 69.5835Z" stroke="#2E2E2E" stroke-width="3" stroke-linecap="round" stroke-linejoin="round"/>
<path d="M48.3859 70.1772L8.28305 91.608C6.62397 92.4951 4.57979 92.1917 3.24985 90.8611C1.91991 89.5304 1.61766 87.486 2.50565 85.8275L23.9333 45.7246" stroke="#2E2E2E" stroke-width="3" stroke-linecap="round" stroke-linejoin="round"/>
<g style="mix-blend-mode:multiply">
<path fill-rule="evenodd" clip-rule="evenodd" d="M52.1678 68.4101C55.2601 65.3177 52.2519 57.2957 45.4486 50.4924C38.6453 43.6891 30.6233 40.6809 27.5309 43.7733C24.4385 46.8657 27.4468 54.8877 34.2501 61.691C41.0533 68.4942 49.0754 71.5025 52.1678 68.4101Z" fill="#87E3D6"/>
</g>
</svg>
