<svg width="24" height="27" viewBox="0 0 24 27" fill="none" xmlns="http://www.w3.org/2000/svg">
<path d="M23.25 15C23.25 21.2132 18.2132 26.25 12 26.25C5.7868 26.25 0.75 21.2132 0.75 15C0.75 8.7868 5.7868 3.75 12 3.75C18.2132 3.75 23.25 8.7868 23.25 15Z" stroke="#2A2A2A" stroke-width="1.5" stroke-linecap="round" stroke-linejoin="round"/>
<path fill-rule="evenodd" clip-rule="evenodd" d="M13.0261 12.5205C12.9223 12.4295 12.7644 12.4399 12.6734 12.5437L8.28023 17.5564C8.28022 17.5564 8.28022 17.5564 8.28023 17.5564V17.5564C8.28023 17.5564 8.28023 17.5564 8.28023 17.5564L8.11662 18.7923C8.11662 18.7923 8.11663 18.7923 8.11664 18.7923V18.7923C8.11666 18.7923 8.11667 18.7924 8.11666 18.7924L8.00224 19.6567L8.00224 19.6567C7.97884 19.8336 8.14287 19.9773 8.31511 19.9309L9.90949 19.5013L9.9097 19.5013L9.92051 19.4981L10.3605 19.3796C10.3605 19.3796 10.3605 19.3796 10.3605 19.3796L10.3605 19.3796C10.3605 19.3796 10.3605 19.3796 10.3605 19.3796V19.3796C10.3605 19.3796 10.3605 19.3796 10.3605 19.3796L14.7536 14.3669C14.8446 14.2631 14.8342 14.1051 14.7304 14.0141L13.0261 12.5205Z" fill="#2A2A2A"/>
<path d="M13.3031 12.2049C13.1993 12.1139 13.1889 11.9559 13.2799 11.8521L13.8619 11.188C13.9529 11.0841 14.1109 11.0737 14.2147 11.1647L15.919 12.6584C16.0228 12.7494 16.0332 12.9073 15.9422 13.0111L15.3602 13.6753C15.2692 13.7791 15.1112 13.7895 15.0074 13.6985L13.3031 12.2049Z" fill="#2A2A2A"/>
<g style="mix-blend-mode:multiply">
<path fill-rule="evenodd" clip-rule="evenodd" d="M12 24C18.6274 24 24 18.6274 24 12C24 5.37258 18.6274 0 12 0C5.37258 0 0 5.37258 0 12C0 18.6274 5.37258 24 12 24Z" fill="#87E3D6"/>
</g>
</svg>
