<svg width="41" height="52" viewBox="0 0 41 52" fill="none" xmlns="http://www.w3.org/2000/svg">
<path fill-rule="evenodd" clip-rule="evenodd" d="M24.2905 5.79235C24.2905 3.42175 22.477 1.5 20.24 1.5C18.003 1.5 16.1895 3.42175 16.1895 5.79235H3.02526C1.90674 5.79235 1 6.75323 1 7.93853V48.7159C1 49.9012 1.90674 50.862 3.02526 50.862H37.4547C38.5733 50.862 39.48 49.9012 39.48 48.7159V7.93853C39.48 6.75323 38.5733 5.79235 37.4547 5.79235H24.2905Z" stroke="#2A2A2A" stroke-width="1.3" stroke-linecap="round" stroke-linejoin="round"/>
<path fill-rule="evenodd" clip-rule="evenodd" d="M4.99023 10.4233C4.99023 10.1472 5.21409 9.92334 5.49023 9.92334H34.8692C35.1453 9.92334 35.3692 10.1472 35.3692 10.4233V45.9083C35.3692 46.1845 35.1453 46.4083 34.8692 46.4083H5.49023C5.21409 46.4083 4.99023 46.1845 4.99023 45.9083V10.4233Z" stroke="#2A2A2A" stroke-width="1.3" stroke-linecap="round" stroke-linejoin="round"/>
<path d="M16.9619 16.6025H31.2138" stroke="#2A2A2A" stroke-width="1.3" stroke-linecap="round" stroke-linejoin="round"/>
<path d="M16.9619 20.8313H31.2138" stroke="#2A2A2A" stroke-width="1.3" stroke-linecap="round" stroke-linejoin="round"/>
<path d="M13.8262 18.415V20.8314H9.26562V15.9985H11.5459" stroke="#2A2A2A" stroke-width="1.3" stroke-linecap="round" stroke-linejoin="round"/>
<path d="M14.3969 15.6965L11.9405 18.6001C11.8773 18.675 11.7915 18.7171 11.702 18.7171C11.6125 18.7171 11.5267 18.675 11.4635 18.6001L10.6914 17.6875" stroke="#2A2A2A" stroke-width="1.3" stroke-linecap="round" stroke-linejoin="round"/>
<path d="M16.9619 26.2686H31.2138" stroke="#2A2A2A" stroke-width="1.3" stroke-linecap="round" stroke-linejoin="round"/>
<path d="M16.9619 30.4973H31.2138" stroke="#2A2A2A" stroke-width="1.3" stroke-linecap="round" stroke-linejoin="round"/>
<path d="M13.8262 28.081V30.4974H9.26562V25.6646H11.5459" stroke="#2A2A2A" stroke-width="1.3" stroke-linecap="round" stroke-linejoin="round"/>
<path d="M14.3969 25.3623L11.9405 28.2659C11.8773 28.3408 11.7915 28.3828 11.702 28.3828C11.6125 28.3828 11.5267 28.3408 11.4635 28.2659L10.6914 27.3532" stroke="#2A2A2A" stroke-width="1.3" stroke-linecap="round" stroke-linejoin="round"/>
<path d="M16.9619 35.9341H31.2138" stroke="#2A2A2A" stroke-width="1.3" stroke-linecap="round" stroke-linejoin="round"/>
<path d="M16.9619 40.1631H31.2138" stroke="#2A2A2A" stroke-width="1.3" stroke-linecap="round" stroke-linejoin="round"/>
<path d="M9.26562 40.1632H13.8262V35.3303H9.26562V40.1632Z" stroke="#2A2A2A" stroke-width="1.3" stroke-linecap="round" stroke-linejoin="round"/>
<path d="M20.3821 3.91626C19.4376 3.91626 18.6719 4.72767 18.6719 5.72859H22.0923C22.0923 4.72767 21.3266 3.91626 20.3821 3.91626Z" stroke="#2A2A2A" stroke-width="1.3" stroke-linecap="round" stroke-linejoin="round"/>
</svg>
