<svg width="79" height="64" viewBox="0 0 79 64" fill="none" xmlns="http://www.w3.org/2000/svg">
<path d="M18 12V4C18 2.89543 18.8954 2 20 2H74.9375C76.0421 2 76.9375 2.89543 76.9375 4V41C76.9375 42.1046 76.0421 43 74.9375 43H47.4688" stroke="black" stroke-width="3" stroke-linecap="round" stroke-linejoin="round"/>
<path d="M75.4286 3.49121L47.4692 26.3436L19.5098 3.49121" stroke="black" stroke-width="3" stroke-linecap="round" stroke-linejoin="round"/>
<path fill-rule="evenodd" clip-rule="evenodd" d="M18.7193 28.2362C20.5865 26.3684 20.5865 23.3407 18.7193 21.4729L13.642 16.4004C11.7742 14.5332 8.74653 14.5332 6.87873 16.4004L4.09736 19.1842C1.68833 21.5932 1.31025 25.366 3.19336 28.2051C11.3828 40.5355 21.953 51.1057 34.2835 59.2952C37.1256 61.1746 40.8975 60.7958 43.3091 58.3888L46.0929 55.6098C47.9601 53.742 47.9601 50.7143 46.0929 48.8465L41.0204 43.7693C40.1234 42.8718 38.9065 42.3677 37.6376 42.3677C36.3687 42.3677 35.1518 42.8718 34.2548 43.7693L32.5639 45.4601C26.8916 40.7935 21.6855 35.5874 17.0189 29.915L18.7193 28.2362Z" stroke="black" stroke-width="3" stroke-linecap="round" stroke-linejoin="round"/>
<g style="mix-blend-mode:multiply">
<path fill-rule="evenodd" clip-rule="evenodd" d="M20.7193 31.2362C22.5865 29.3684 22.5865 26.3407 20.7193 24.4729L15.642 19.4004C13.7742 17.5332 10.7465 17.5332 8.87873 19.4004L6.09736 22.1842C3.68833 24.5932 3.31025 28.366 5.19336 31.2051C13.3828 43.5355 23.953 54.1057 36.2835 62.2952C39.1256 64.1746 42.8975 63.7958 45.3091 61.3888L48.0929 58.6098C49.9601 56.742 49.9601 53.7143 48.0929 51.8465L43.0204 46.7693C42.1234 45.8718 40.9065 45.3677 39.6376 45.3677C38.3687 45.3677 37.1518 45.8718 36.2548 46.7693L34.5639 48.4601C28.8916 43.7935 23.6855 38.5874 19.0189 32.915L20.7193 31.2362Z" fill="#FFDC5D"/>
</g>
</svg>
