<svg width="41" height="52" viewBox="0 0 41 52" fill="none" xmlns="http://www.w3.org/2000/svg">
<rect x="7.64453" y="33.8262" width="5.8927" height="5.8927" fill="#3CDDD3"/>
<rect x="7.64453" y="23.9102" width="5.8927" height="5.8927" fill="#3CDDD3"/>
<rect x="7.64453" y="13.9941" width="5.8927" height="5.8927" fill="#3CDDD3"/>
<path fill-rule="evenodd" clip-rule="evenodd" d="M24.2905 5.29235C24.2905 2.92175 22.477 1 20.24 1C18.003 1 16.1895 2.92175 16.1895 5.29235H3.02526C1.90674 5.29235 1 6.25323 1 7.43853V48.2159C1 49.4012 1.90674 50.362 3.02526 50.362H37.4547C38.5733 50.362 39.48 49.4012 39.48 48.2159V7.43853C39.48 6.25323 38.5733 5.29235 37.4547 5.29235H24.2905Z" stroke="#2A2A2A" stroke-width="1.3" stroke-linecap="round" stroke-linejoin="round"/>
<path fill-rule="evenodd" clip-rule="evenodd" d="M4.99023 9.92383C4.99023 9.64768 5.21409 9.42383 5.49023 9.42383H34.8692C35.1453 9.42383 35.3692 9.64769 35.3692 9.92383V45.4088C35.3692 45.6849 35.1453 45.9088 34.8692 45.9088H5.49023C5.21409 45.9088 4.99023 45.6849 4.99023 45.4088V9.92383Z" stroke="#2A2A2A" stroke-width="1.3" stroke-linecap="round" stroke-linejoin="round"/>
<path d="M16.9629 16.1025H31.2147" stroke="#2A2A2A" stroke-width="1.3" stroke-linecap="round" stroke-linejoin="round"/>
<path d="M16.9629 20.3311H31.2147" stroke="#2A2A2A" stroke-width="1.3" stroke-linecap="round" stroke-linejoin="round"/>
<path d="M13.8262 17.9145V20.3309H9.26562V15.498H11.5459" stroke="#2A2A2A" stroke-width="1.3" stroke-linecap="round" stroke-linejoin="round"/>
<path d="M14.3969 15.1963L11.9405 18.0999C11.8773 18.1747 11.7915 18.2168 11.702 18.2168C11.6125 18.2168 11.5267 18.1747 11.4635 18.0999L10.6914 17.1872" stroke="#2A2A2A" stroke-width="1.3" stroke-linecap="round" stroke-linejoin="round"/>
<path d="M16.9629 25.7695H31.2147" stroke="#2A2A2A" stroke-width="1.3" stroke-linecap="round" stroke-linejoin="round"/>
<path d="M16.9629 29.998H31.2147" stroke="#2A2A2A" stroke-width="1.3" stroke-linecap="round" stroke-linejoin="round"/>
<path d="M13.8262 27.5815V29.9979H9.26562V25.165H11.5459" stroke="#2A2A2A" stroke-width="1.3" stroke-linecap="round" stroke-linejoin="round"/>
<path d="M14.3969 24.8623L11.9405 27.7659C11.8773 27.8408 11.7915 27.8828 11.702 27.8828C11.6125 27.8828 11.5267 27.8408 11.4635 27.7659L10.6914 26.8532" stroke="#2A2A2A" stroke-width="1.3" stroke-linecap="round" stroke-linejoin="round"/>
<path d="M16.9609 35.4336H31.2128" stroke="#2A2A2A" stroke-width="1.3" stroke-linecap="round" stroke-linejoin="round"/>
<path d="M16.9609 39.6631H31.2128" stroke="#2A2A2A" stroke-width="1.3" stroke-linecap="round" stroke-linejoin="round"/>
<path d="M9.26562 39.6629H13.8262V34.8301H9.26562V39.6629Z" stroke="#2A2A2A" stroke-width="1.3" stroke-linecap="round" stroke-linejoin="round"/>
<path d="M20.3821 3.41602C19.4376 3.41602 18.6719 4.22742 18.6719 5.22834H22.0923C22.0923 4.22742 21.3266 3.41602 20.3821 3.41602Z" stroke="#2A2A2A" stroke-width="1.3" stroke-linecap="round" stroke-linejoin="round"/>
</svg>
