<svg width="41" height="53" viewBox="0 0 41 53" fill="none" xmlns="http://www.w3.org/2000/svg">
<path d="M32.749 38.3182V27.4743C32.749 27.043 32.3793 26.6733 31.9481 26.6733H28.6826C28.2513 26.6733 27.8816 27.043 27.8816 27.4743V38.3182" fill="#79CCC0"/>
<path d="M24.3086 38.3181V22.4219C24.3086 21.9906 23.9389 21.621 23.5076 21.621H20.2421C19.8108 21.621 19.4412 21.9906 19.4412 22.4219V38.3181" fill="#79CCC0"/>
<path d="M15.8672 38.3181V17.801C15.8672 17.3697 15.4975 17 15.0662 17H11.8007C11.3694 17 10.9998 17.3697 10.9998 17.801V38.3181" fill="#79CCC0"/>
<path d="M30.6797 36.4373V25.5935C30.6797 25.1622 30.31 24.7925 29.8787 24.7925H26.6132C26.1819 24.7925 25.8123 25.1622 25.8123 25.5935V36.4373" stroke="#2E2E2E" stroke-width="1.3" stroke-miterlimit="10" stroke-linecap="round" stroke-linejoin="round"/>
<path d="M22.2393 36.4372V20.5411C22.2393 20.1098 21.8696 19.7401 21.4383 19.7401H18.1728C17.7415 19.7401 17.3718 20.1098 17.3718 20.5411V36.4372" stroke="#2E2E2E" stroke-width="1.3" stroke-miterlimit="10" stroke-linecap="round" stroke-linejoin="round"/>
<path d="M13.7979 36.4372V15.9201C13.7979 15.4888 13.4282 15.1191 12.9969 15.1191H9.73139C9.3001 15.1191 8.93043 15.4888 8.93043 15.9201V36.4372" stroke="#2E2E2E" stroke-width="1.3" stroke-miterlimit="10" stroke-linecap="round" stroke-linejoin="round"/>
<path d="M5.91192 37.0533H34.2539" stroke="#2E2E2E" stroke-width="1.3" stroke-miterlimit="10" stroke-linecap="round" stroke-linejoin="round"/>
<path d="M39.559 13.6612V51.8749H2.15102C1.57551 51.8749 1 51.4145 1 50.7239V2.15102C1 1.57551 1.46041 1 2.15102 1H26.8979L39.559 13.6612Z" stroke="#2E2E2E" stroke-width="1.3" stroke-miterlimit="10" stroke-linecap="round" stroke-linejoin="round"/>
<path d="M28.1647 13.6612H39.6748L27.0137 1V12.5102C27.0137 13.2008 27.4741 13.6612 28.1647 13.6612Z" stroke="#2E2E2E" stroke-width="1.3" stroke-miterlimit="10" stroke-linecap="round" stroke-linejoin="round"/>
</svg>
