<svg width="35" height="48" viewBox="0 0 35 48" fill="none" xmlns="http://www.w3.org/2000/svg">
<rect x="16.0762" y="1" width="17.886" height="45.9571" rx="4" fill="white" stroke="#2A2A2A" stroke-width="1.5" stroke-linecap="round" stroke-linejoin="round"/>
<path d="M20.1002 6.73527C19.9509 6.73527 19.8354 6.79095 19.7535 6.90231C19.6716 7.01283 19.6307 7.16722 19.6307 7.36547C19.6307 7.77802 19.7872 7.98429 20.1002 7.98429C20.2315 7.98429 20.3905 7.95181 20.5773 7.88685V8.21587C20.4238 8.27914 20.2524 8.31078 20.0631 8.31078C19.791 8.31078 19.5829 8.22937 19.4388 8.06654C19.2947 7.90288 19.2227 7.66834 19.2227 7.36294C19.2227 7.17059 19.258 7.00228 19.3288 6.85802C19.3996 6.71291 19.5011 6.60198 19.6333 6.5252C19.7663 6.44759 19.9219 6.40878 20.1002 6.40878C20.2818 6.40878 20.4643 6.45223 20.6476 6.53912L20.5197 6.85802C20.4498 6.82512 20.3794 6.79644 20.3087 6.77197C20.2379 6.7475 20.1684 6.73527 20.1002 6.73527Z" fill="#2A2A2A"/>
<path d="M22.6476 7.35788C22.6476 7.66412 22.5708 7.8995 22.4173 8.06401C22.2639 8.22852 22.0438 8.31078 21.7573 8.31078C21.4708 8.31078 21.2508 8.22852 21.0973 8.06401C20.9438 7.8995 20.867 7.66328 20.867 7.35535C20.867 7.04742 20.9438 6.81246 21.0973 6.65049C21.2516 6.48766 21.4725 6.40625 21.7599 6.40625C22.0472 6.40625 22.2668 6.48808 22.4186 6.65175C22.5713 6.81542 22.6476 7.05079 22.6476 7.35788ZM21.2827 7.35788C21.2827 7.56457 21.3224 7.72023 21.4017 7.82484C21.481 7.92945 21.5995 7.98176 21.7573 7.98176C22.0737 7.98176 22.2319 7.7738 22.2319 7.35788C22.2319 6.94112 22.0745 6.73274 21.7599 6.73274C21.6021 6.73274 21.4831 6.78547 21.403 6.89092C21.3228 6.99554 21.2827 7.15119 21.2827 7.35788Z" fill="#2A2A2A"/>
<path d="M24.0758 6.43536H24.4762L23.8404 8.28547H23.4081L22.7736 6.43536H23.174L23.5258 7.53631C23.5454 7.60127 23.5654 7.6772 23.5859 7.7641C23.6072 7.85015 23.6204 7.91005 23.6255 7.94379C23.6349 7.86618 23.6669 7.73035 23.7215 7.53631L24.0758 6.43536Z" fill="#2A2A2A"/>
<path d="M24.6866 8.28547V6.43536H25.0831V8.28547H24.6866Z" fill="#2A2A2A"/>
<path d="M27.0793 7.3427C27.0793 7.64725 26.9914 7.88052 26.8158 8.0425C26.641 8.20448 26.3881 8.28547 26.0572 8.28547L25.5277 8.28547V6.43536H26.1148C26.4201 6.43536 26.6572 6.51508 26.826 6.67453C26.9948 6.83398 27.0793 7.0567 27.0793 7.3427ZM26.6674 7.35282C26.6674 6.95546 26.49 6.75678 26.1353 6.75678H25.9242V7.96151H26.0943C26.4764 7.96151 26.6674 7.75861 26.6674 7.35282Z" fill="#2A2A2A"/>
<path d="M27.2833 7.74891V7.43254H27.9702V7.74891H27.2833Z" fill="#2A2A2A"/>
<path d="M29.1055 8.28547H28.7102V7.21488L28.7141 7.03898L28.7205 6.84663C28.6548 6.91159 28.6092 6.9542 28.5836 6.97444L28.3687 7.14528L28.1781 6.90991L28.7806 6.43536H29.1055V8.28547Z" fill="#2A2A2A"/>
<path d="M30.8982 7.22501C30.8982 7.58946 30.8206 7.86154 30.6654 8.04123C30.5102 8.22093 30.2753 8.31078 29.9606 8.31078C29.8498 8.31078 29.7658 8.30487 29.7086 8.29306V7.97923C29.7803 7.99694 29.8553 8.0058 29.9338 8.0058C30.0659 8.0058 30.1747 7.98682 30.2599 7.94885C30.3452 7.91005 30.4105 7.84973 30.4557 7.76789C30.5008 7.68522 30.5269 7.57175 30.5337 7.42748H30.5183C30.4689 7.50678 30.4117 7.56247 30.3469 7.59452C30.2821 7.62658 30.2011 7.64261 30.1039 7.64261C29.941 7.64261 29.8127 7.59115 29.7189 7.48822C29.6251 7.38446 29.5782 7.24061 29.5782 7.0567C29.5782 6.85844 29.6349 6.70195 29.7483 6.58721C29.8626 6.47163 30.0178 6.41384 30.2139 6.41384C30.352 6.41384 30.4727 6.4459 30.5759 6.51002C30.6799 6.57414 30.7597 6.66736 30.8151 6.78969C30.8705 6.91117 30.8982 7.05628 30.8982 7.22501ZM30.2216 6.72768C30.1397 6.72768 30.0757 6.75552 30.0297 6.8112C29.9836 6.86688 29.9606 6.94703 29.9606 7.05164C29.9606 7.14106 29.9815 7.21193 30.0233 7.26424C30.0651 7.31654 30.1286 7.3427 30.2139 7.3427C30.2941 7.3427 30.3627 7.31696 30.4198 7.2655C30.477 7.2132 30.5055 7.1533 30.5055 7.08581C30.5055 6.98541 30.4787 6.90063 30.425 6.83145C30.3721 6.76227 30.3043 6.72768 30.2216 6.72768Z" fill="#2A2A2A"/>
<path d="M23.0312 17H27.0059V22.548H23.0312V17Z" fill="#3CDDD3"/>
<circle cx="25.4014" cy="37.4014" r="2.40136" fill="#3CDDD3"/>
<rect x="23.0312" y="10.3574" width="3.97467" height="18.4656" stroke="#2A2A2A" stroke-width="1.5" stroke-linecap="round" stroke-linejoin="round"/>
<rect x="23.0312" y="16.8164" width="3.97467" height="5.54797" stroke="#2A2A2A" stroke-width="1.5" stroke-linecap="round" stroke-linejoin="round"/>
<circle cx="25.0183" cy="37.4343" r="5.71358" stroke="#2A2A2A" stroke-width="1.5" stroke-linecap="round" stroke-linejoin="round"/>
<circle cx="25.0181" cy="37.4342" r="2.56697" stroke="#2A2A2A" stroke-width="1.5" stroke-linecap="round" stroke-linejoin="round"/>
<path d="M5.79883 22.2V17L10.8583 19.6L5.79883 22.2Z" fill="#3CDDD3"/>
<path d="M0 22.2V17L5.05949 19.6L0 22.2Z" fill="#3CDDD3"/>
<path d="M7.52539 22.2V17L12.5849 19.6L7.52539 22.2Z" stroke="#2A2A2A" stroke-width="1.5" stroke-linecap="round" stroke-linejoin="round"/>
<path d="M30.314 20.776C30.246 20.776 30.19 20.752 30.146 20.704C30.106 20.656 30.086 20.59 30.086 20.506C30.086 20.286 30.126 20.1 30.206 19.948C30.286 19.796 30.402 19.63 30.554 19.45C30.674 19.306 30.762 19.186 30.818 19.09C30.874 18.994 30.902 18.886 30.902 18.766C30.902 18.634 30.852 18.53 30.752 18.454C30.656 18.374 30.524 18.334 30.356 18.334C30.212 18.334 30.074 18.366 29.942 18.43C29.81 18.49 29.656 18.578 29.48 18.694C29.38 18.75 29.298 18.778 29.234 18.778C29.166 18.778 29.106 18.748 29.054 18.688C29.006 18.624 28.982 18.55 28.982 18.466C28.982 18.35 29.03 18.256 29.126 18.184C29.294 18.04 29.492 17.928 29.72 17.848C29.948 17.764 30.178 17.722 30.41 17.722C30.654 17.722 30.87 17.764 31.058 17.848C31.25 17.932 31.398 18.048 31.502 18.196C31.61 18.344 31.664 18.514 31.664 18.706C31.664 18.914 31.614 19.096 31.514 19.252C31.414 19.404 31.268 19.576 31.076 19.768C30.912 19.936 30.788 20.078 30.704 20.194C30.624 20.306 30.574 20.434 30.554 20.578C30.542 20.642 30.514 20.692 30.47 20.728C30.43 20.76 30.378 20.776 30.314 20.776ZM30.326 22.036C30.198 22.036 30.092 21.994 30.008 21.91C29.924 21.822 29.882 21.714 29.882 21.586C29.882 21.458 29.924 21.352 30.008 21.268C30.092 21.18 30.198 21.136 30.326 21.136C30.454 21.136 30.56 21.18 30.644 21.268C30.728 21.352 30.77 21.458 30.77 21.586C30.77 21.714 30.726 21.822 30.638 21.91C30.554 21.994 30.45 22.036 30.326 22.036Z" fill="black"/>
</svg>
