<svg width="35" height="48" viewBox="0 0 35 48" fill="none" xmlns="http://www.w3.org/2000/svg">
<rect x="16.0762" y="1" width="17.886" height="45.9571" rx="4" fill="white" stroke="#2A2A2A" stroke-width="1.5" stroke-linecap="round" stroke-linejoin="round"/>
<path d="M20.1002 6.73429C19.9509 6.73429 19.8354 6.78998 19.7535 6.90134C19.6716 7.01185 19.6307 7.16624 19.6307 7.3645C19.6307 7.77704 19.7872 7.98331 20.1002 7.98331C20.2315 7.98331 20.3905 7.95083 20.5773 7.88587V8.21489C20.4238 8.27816 20.2524 8.3098 20.0631 8.3098C19.791 8.3098 19.5829 8.22839 19.4388 8.06557C19.2947 7.9019 19.2227 7.66737 19.2227 7.36197C19.2227 7.16962 19.258 7.00131 19.3288 6.85705C19.3996 6.71194 19.5011 6.601 19.6333 6.52423C19.7663 6.44661 19.9219 6.4078 20.1002 6.4078C20.2818 6.4078 20.4643 6.45125 20.6476 6.53815L20.5197 6.85705C20.4498 6.82414 20.3794 6.79546 20.3087 6.77099C20.2379 6.74653 20.1684 6.73429 20.1002 6.73429Z" fill="#2A2A2A"/>
<path d="M22.6476 7.3569C22.6476 7.66315 22.5708 7.89852 22.4173 8.06304C22.2639 8.22755 22.0438 8.3098 21.7573 8.3098C21.4708 8.3098 21.2508 8.22755 21.0973 8.06304C20.9438 7.89852 20.867 7.6623 20.867 7.35437C20.867 7.04644 20.9438 6.81149 21.0973 6.64951C21.2516 6.48669 21.4725 6.40527 21.7599 6.40527C22.0472 6.40527 22.2668 6.48711 22.4186 6.65077C22.5713 6.81444 22.6476 7.04982 22.6476 7.3569ZM21.2827 7.3569C21.2827 7.5636 21.3224 7.71925 21.4017 7.82386C21.481 7.92847 21.5995 7.98078 21.7573 7.98078C22.0737 7.98078 22.2319 7.77282 22.2319 7.3569C22.2319 6.94014 22.0745 6.73176 21.7599 6.73176C21.6021 6.73176 21.4831 6.78449 21.403 6.88995C21.3228 6.99456 21.2827 7.15021 21.2827 7.3569Z" fill="#2A2A2A"/>
<path d="M24.0758 6.43438H24.4762L23.8404 8.28449H23.4081L22.7736 6.43438H23.174L23.5258 7.53534C23.5454 7.6003 23.5654 7.67622 23.5859 7.76312C23.6072 7.84917 23.6204 7.90907 23.6255 7.94282C23.6349 7.8652 23.6669 7.72937 23.7215 7.53534L24.0758 6.43438Z" fill="#2A2A2A"/>
<path d="M24.6866 8.28449V6.43438H25.0831V8.28449H24.6866Z" fill="#2A2A2A"/>
<path d="M27.0793 7.34172C27.0793 7.64627 26.9914 7.87954 26.8158 8.04152C26.641 8.2035 26.3881 8.28449 26.0572 8.28449L25.5277 8.28449V6.43438H26.1148C26.4201 6.43438 26.6572 6.5141 26.826 6.67355C26.9948 6.833 27.0793 7.05572 27.0793 7.34172ZM26.6674 7.35184C26.6674 6.95449 26.49 6.75581 26.1353 6.75581H25.9242V7.96053H26.0943C26.4764 7.96053 26.6674 7.75764 26.6674 7.35184Z" fill="#2A2A2A"/>
<path d="M27.2833 7.74793V7.43157H27.9702V7.74793H27.2833Z" fill="#2A2A2A"/>
<path d="M29.1055 8.28449H28.7102V7.21391L28.7141 7.03801L28.7205 6.84566C28.6548 6.91062 28.6092 6.95322 28.5836 6.97347L28.3687 7.14431L28.1781 6.90893L28.7806 6.43438H29.1055V8.28449Z" fill="#2A2A2A"/>
<path d="M30.8982 7.22403C30.8982 7.58849 30.8206 7.86056 30.6654 8.04026C30.5102 8.21995 30.2753 8.3098 29.9606 8.3098C29.8498 8.3098 29.7658 8.3039 29.7086 8.29208V7.97825C29.7803 7.99597 29.8553 8.00482 29.9338 8.00482C30.0659 8.00482 30.1747 7.98584 30.2599 7.94788C30.3452 7.90907 30.4105 7.84875 30.4557 7.76692C30.5008 7.68424 30.5269 7.57077 30.5337 7.42651H30.5183C30.4689 7.50581 30.4117 7.56149 30.3469 7.59355C30.2821 7.62561 30.2011 7.64163 30.1039 7.64163C29.941 7.64163 29.8127 7.59017 29.7189 7.48725C29.6251 7.38348 29.5782 7.23964 29.5782 7.05572C29.5782 6.85747 29.6349 6.70097 29.7483 6.58624C29.8626 6.47066 30.0178 6.41287 30.2139 6.41287C30.352 6.41287 30.4727 6.44492 30.5759 6.50904C30.6799 6.57316 30.7597 6.66638 30.8151 6.78871C30.8705 6.91019 30.8982 7.0553 30.8982 7.22403ZM30.2216 6.7267C30.1397 6.7267 30.0757 6.75454 30.0297 6.81022C29.9836 6.8659 29.9606 6.94605 29.9606 7.05066C29.9606 7.14009 29.9815 7.21095 30.0233 7.26326C30.0651 7.31557 30.1286 7.34172 30.2139 7.34172C30.2941 7.34172 30.3627 7.31599 30.4198 7.26453C30.477 7.21222 30.5055 7.15232 30.5055 7.08483C30.5055 6.98444 30.4787 6.89965 30.425 6.83047C30.3721 6.76129 30.3043 6.7267 30.2216 6.7267Z" fill="#2A2A2A"/>
<rect x="23.0312" y="11.9629" width="3.97467" height="5.54797" fill="#FC9090"/>
<circle cx="25.0185" cy="38.1201" r="2.40136" fill="#FC9090"/>
<rect x="23.0312" y="10.3564" width="3.97467" height="18.4656" stroke="#2A2A2A" stroke-width="1.5" stroke-linecap="round" stroke-linejoin="round"/>
<rect x="23.0312" y="16.8154" width="3.97467" height="5.54797" stroke="#2A2A2A" stroke-width="1.5" stroke-linecap="round" stroke-linejoin="round"/>
<circle cx="25.0183" cy="37.4343" r="5.71358" stroke="#2A2A2A" stroke-width="1.5" stroke-linecap="round" stroke-linejoin="round"/>
<circle cx="25.0181" cy="37.4342" r="2.56697" stroke="#2A2A2A" stroke-width="1.5" stroke-linecap="round" stroke-linejoin="round"/>
<path d="M29.0762 24.6816H30.9807" stroke="#2A2A2A" stroke-width="1.5" stroke-linecap="round"/>
<path d="M29.0762 14.4551H30.9807" stroke="#2A2A2A" stroke-width="1.5" stroke-linecap="round"/>
<path d="M30.0293 13.5029L30.0293 15.4075" stroke="#2A2A2A" stroke-width="1.5" stroke-linecap="round"/>
<path d="M5.79883 17.1629V11.9629L10.8583 14.5629L5.79883 17.1629Z" fill="#FC9090"/>
<path d="M0 17.162V11.9619L5.05949 14.5619L0 17.162Z" fill="#FC9090"/>
<path d="M7.52539 17.162V11.9619L12.5849 14.5619L7.52539 17.162Z" stroke="#2A2A2A" stroke-width="1.5" stroke-linecap="round" stroke-linejoin="round"/>
</svg>
