<svg width="42" height="52" viewBox="0 0 42 52" fill="none" xmlns="http://www.w3.org/2000/svg">
<circle cx="26.7289" cy="8.74453" r="8.74453" fill="#3CDDD3"/>
<path d="M40.5175 47.2054L38.3715 43.0549V33.2558C38.4616 29.4401 33.9055 26.0385 29.7871 22.5254" stroke="black" stroke-width="1.5" stroke-linecap="round" stroke-linejoin="round"/>
<path d="M33.046 37.5475L27.5713 31.9527C26.907 31.2612 25.9232 30.9788 24.9933 31.2125C24.0634 31.4462 23.3301 32.1602 23.0716 33.0836C22.8132 34.0069 23.0693 34.9979 23.7427 35.6804L29.7861 41.8397V45.0588C30.1147 46.9786 30.8461 48.8071 31.9322 50.424" stroke="black" stroke-width="1.5" stroke-linecap="round" stroke-linejoin="round"/>
<path d="M13.691 20.165H6.17969" stroke="black" stroke-width="1.5" stroke-linecap="round" stroke-linejoin="round"/>
<path d="M29.7871 34.2171V21.4521" stroke="black" stroke-width="1.5" stroke-linecap="round" stroke-linejoin="round"/>
<path d="M17.9832 33.2559H6.17969" stroke="black" stroke-width="1.5" stroke-linecap="round" stroke-linejoin="round"/>
<path d="M25.4945 26.8174H6.17969" stroke="black" stroke-width="1.5" stroke-linecap="round" stroke-linejoin="round"/>
<path d="M15.8371 39.6943H6.17969" stroke="black" stroke-width="1.5" stroke-linecap="round" stroke-linejoin="round"/>
<path d="M34.0789 9.6488C34.0789 14.3898 30.2355 18.2331 25.4945 18.2331C20.7535 18.2331 16.9102 14.3898 16.9102 9.6488C16.9102 4.9078 20.7535 1.06445 25.4945 1.06445" stroke="black" stroke-width="1.5" stroke-linecap="round" stroke-linejoin="round"/>
<path d="M34.0789 3.21094L26.2542 11.0356C26.0529 11.2374 25.7796 11.3508 25.4945 11.3508C25.2095 11.3508 24.9361 11.2374 24.7348 11.0356L22.2754 8.57615" stroke="black" stroke-width="1.5" stroke-linecap="round" stroke-linejoin="round"/>
<path d="M13.6439 5.45215H3.57813C2.47356 5.45215 1.57812 6.34758 1.57812 7.45215V48.4246C1.57812 49.5292 2.47356 50.4246 3.57813 50.4246H27.0808" stroke="black" stroke-width="1.5" stroke-linecap="round" stroke-linejoin="round"/>
</svg>
