<svg width="171" height="163" viewBox="0 0 171 163" fill="none" xmlns="http://www.w3.org/2000/svg">
<rect x="135.711" y="10.9434" width="62.0148" height="159.344" rx="12" transform="rotate(55.4415 135.711 10.9434)" fill="#F5F5F5"/>
<rect x="56.6797" y="2" width="62.0148" height="159.344" rx="12" fill="white" stroke="#2A2A2A" stroke-width="3" stroke-linecap="round" stroke-linejoin="round"/>
<path d="M70.6323 16.922C70.1149 16.922 69.7143 17.1151 69.4304 17.5012C69.1466 17.8844 69.0046 18.4197 69.0046 19.1071C69.0046 20.5375 69.5472 21.2527 70.6323 21.2527C71.0877 21.2527 71.6391 21.14 72.2866 20.9148V22.0556C71.7544 22.275 71.1601 22.3847 70.5037 22.3847C69.5605 22.3847 68.8391 22.1024 68.3394 21.5379C67.8397 20.9704 67.5898 20.1572 67.5898 19.0983C67.5898 18.4314 67.7125 17.8478 67.958 17.3476C68.2034 16.8445 68.5552 16.4599 69.0135 16.1937C69.4748 15.9246 70.0144 15.79 70.6323 15.79C71.2621 15.79 71.8948 15.9407 72.5305 16.242L72.087 17.3476C71.8446 17.2336 71.6006 17.1341 71.3552 17.0493C71.1098 16.9645 70.8689 16.922 70.6323 16.922Z" fill="#2A2A2A"/>
<path d="M79.4649 19.0808C79.4649 20.1426 79.1988 20.9587 78.6666 21.5291C78.1344 22.0995 77.3715 22.3847 76.3781 22.3847C75.3846 22.3847 74.6218 22.0995 74.0896 21.5291C73.5573 20.9587 73.2912 20.1397 73.2912 19.072C73.2912 18.0043 73.5573 17.1897 74.0896 16.6281C74.6247 16.0635 75.3905 15.7812 76.3869 15.7812C77.3833 15.7812 78.1447 16.065 78.671 16.6325C79.2003 17.1999 79.4649 18.016 79.4649 19.0808ZM74.7326 19.0808C74.7326 19.7974 74.8701 20.3371 75.1451 20.6998C75.4201 21.0625 75.8311 21.2439 76.3781 21.2439C77.475 21.2439 78.0235 20.5228 78.0235 19.0808C78.0235 17.6358 77.478 16.9133 76.3869 16.9133C75.8399 16.9133 75.4275 17.0961 75.1495 17.4617C74.8716 17.8244 74.7326 18.3641 74.7326 19.0808Z" fill="#2A2A2A"/>
<path d="M84.4167 15.8822L85.8049 15.8822L83.6007 22.2969H82.1016L79.9018 15.8822H81.29L82.5097 19.6994C82.5777 19.9247 82.6471 20.1879 82.7181 20.4892C82.792 20.7876 82.8379 20.9953 82.8556 21.1123C82.8881 20.8431 82.999 20.3722 83.1882 19.6994L84.4167 15.8822Z" fill="#2A2A2A"/>
<path d="M86.5346 22.2969V15.8822H87.9095V22.2969H86.5346Z" fill="#2A2A2A"/>
<path d="M94.8305 19.0281C94.8305 20.0841 94.526 20.8929 93.9169 21.4545C93.3108 22.0161 92.4341 22.2969 91.2869 22.2969H89.4508V15.8822H91.4865C92.545 15.8822 93.3669 16.1586 93.9524 16.7114C94.5378 17.2643 94.8305 18.0365 94.8305 19.0281ZM93.4024 19.0632C93.4024 17.6855 92.7874 16.9966 91.5574 16.9966H90.8256V21.1737H91.4155C92.7401 21.1737 93.4024 20.4702 93.4024 19.0632Z" fill="#2A2A2A"/>
<path d="M95.538 20.4366V19.3396H97.9196V20.4366H95.538Z" fill="#2A2A2A"/>
<path d="M101.856 22.2969H100.485V18.585L100.499 17.9751L100.521 17.3082C100.293 17.5334 100.135 17.6811 100.046 17.7513L99.3013 18.3436L98.6404 17.5275L100.729 15.8822H101.856V22.2969Z" fill="#2A2A2A"/>
<path d="M108.072 18.6201C108.072 19.8837 107.803 20.8271 107.265 21.4501C106.726 22.0732 105.912 22.3847 104.821 22.3847C104.436 22.3847 104.145 22.3642 103.947 22.3233V21.2351C104.195 21.2965 104.456 21.3273 104.728 21.3273C105.186 21.3273 105.563 21.2614 105.859 21.1298C106.154 20.9953 106.38 20.7861 106.537 20.5024C106.694 20.2157 106.784 19.8223 106.808 19.3221H106.755C106.583 19.5971 106.385 19.7901 106.16 19.9013C105.936 20.0124 105.655 20.068 105.318 20.068C104.753 20.068 104.308 19.8896 103.983 19.5327C103.657 19.1729 103.495 18.6742 103.495 18.0365C103.495 17.3491 103.691 16.8065 104.085 16.4087C104.481 16.0079 105.019 15.8076 105.699 15.8076C106.178 15.8076 106.596 15.9187 106.954 16.141C107.315 16.3633 107.591 16.6866 107.783 17.1107C107.976 17.5319 108.072 18.035 108.072 18.6201ZM105.726 16.8957C105.442 16.8957 105.22 16.9922 105.06 17.1853C104.901 17.3784 104.821 17.6562 104.821 18.019C104.821 18.329 104.893 18.5747 105.038 18.7561C105.183 18.9374 105.403 19.0281 105.699 19.0281C105.977 19.0281 106.215 18.9389 106.413 18.7605C106.611 18.5791 106.71 18.3714 106.71 18.1374C106.71 17.7893 106.617 17.4954 106.431 17.2555C106.247 17.0156 106.012 16.8957 105.726 16.8957Z" fill="#2A2A2A"/>
<rect x="81" y="58" width="14" height="17" fill="#3CDDD3"/>
<circle cx="87.6874" cy="129.187" r="8.32606" fill="#3CDDD3"/>
<rect x="80.7969" y="34.4434" width="13.7811" height="64.0246" stroke="#2A2A2A" stroke-width="3" stroke-linecap="round" stroke-linejoin="round"/>
<rect x="80.7969" y="39.0371" width="13.7811" height="19.2361" stroke="#2A2A2A" stroke-width="3" stroke-linecap="round" stroke-linejoin="round"/>
<rect x="80.7969" y="74.6367" width="13.7811" height="19.2361" stroke="#2A2A2A" stroke-width="3" stroke-linecap="round" stroke-linejoin="round"/>
<circle cx="87.6872" cy="128.326" r="19.8103" stroke="#2A2A2A" stroke-width="3" stroke-linecap="round" stroke-linejoin="round"/>
<circle cx="87.6874" cy="128.326" r="8.90027" stroke="#2A2A2A" stroke-width="3" stroke-linecap="round" stroke-linejoin="round"/>
<circle cx="87.6927" cy="128.177" r="12.2572" stroke="#2A2A2A" stroke-width="3" stroke-linecap="round" stroke-linejoin="round"/>
<path d="M24.1113 75.0297V57L41.6537 66.0149L24.1113 75.0297Z" fill="#3CDDD3"/>
<path d="M0.943359 75.0297V57L18.4858 66.0149L0.943359 75.0297Z" fill="#3CDDD3"/>
<path d="M27.0352 75.0297V57L44.5776 66.0149L27.0352 75.0297Z" stroke="#2A2A2A" stroke-width="3" stroke-linecap="round" stroke-linejoin="round"/>
</svg>
