<svg width="171" height="163" viewBox="0 0 171 163" fill="none" xmlns="http://www.w3.org/2000/svg">
<rect x="135.711" y="10.9424" width="62.0148" height="159.344" rx="12" transform="rotate(55.4415 135.711 10.9424)" fill="#F5F5F5"/>
<rect x="56.6797" y="2" width="62.0148" height="159.344" rx="12" fill="white" stroke="#2A2A2A" stroke-width="3" stroke-linecap="round" stroke-linejoin="round"/>
<path d="M70.6323 16.923C70.1149 16.923 69.7143 17.1161 69.4304 17.5022C69.1466 17.8854 69.0046 18.4207 69.0046 19.1081C69.0046 20.5385 69.5472 21.2536 70.6323 21.2536C71.0877 21.2536 71.6391 21.141 72.2866 20.9158V22.0566C71.7544 22.276 71.1601 22.3857 70.5037 22.3857C69.5605 22.3857 68.8391 22.1034 68.3394 21.5388C67.8397 20.9714 67.5898 20.1582 67.5898 19.0993C67.5898 18.4324 67.7125 17.8488 67.958 17.3486C68.2034 16.8455 68.5552 16.4609 69.0135 16.1947C69.4748 15.9256 70.0144 15.791 70.6323 15.791C71.2621 15.791 71.8948 15.9416 72.5305 16.2429L72.087 17.3486C71.8446 17.2345 71.6006 17.1351 71.3552 17.0503C71.1098 16.9654 70.8689 16.923 70.6323 16.923Z" fill="#2A2A2A"/>
<path d="M79.4649 19.0817C79.4649 20.1436 79.1988 20.9597 78.6666 21.5301C78.1344 22.1005 77.3715 22.3857 76.3781 22.3857C75.3846 22.3857 74.6218 22.1005 74.0896 21.5301C73.5573 20.9597 73.2912 20.1406 73.2912 19.073C73.2912 18.0053 73.5573 17.1907 74.0896 16.629C74.6247 16.0645 75.3905 15.7822 76.3869 15.7822C77.3833 15.7822 78.1447 16.066 78.671 16.6334C79.2003 17.2009 79.4649 18.017 79.4649 19.0817ZM74.7326 19.0817C74.7326 19.7984 74.8701 20.3381 75.1451 20.7008C75.4201 21.0635 75.8311 21.2449 76.3781 21.2449C77.475 21.2449 78.0235 20.5238 78.0235 19.0817C78.0235 17.6367 77.478 16.9142 76.3869 16.9142C75.8399 16.9142 75.4275 17.0971 75.1495 17.4627C74.8716 17.8254 74.7326 18.3651 74.7326 19.0817Z" fill="#2A2A2A"/>
<path d="M84.4167 15.8831L85.8049 15.8831L83.6007 22.2979H82.1016L79.9018 15.8831H81.29L82.5097 19.7004C82.5777 19.9256 82.6471 20.1889 82.7181 20.4902C82.792 20.7885 82.8379 20.9962 82.8556 21.1132C82.8881 20.8441 82.999 20.3732 83.1882 19.7004L84.4167 15.8831Z" fill="#2A2A2A"/>
<path d="M86.5346 22.2979V15.8831H87.9095V22.2979H86.5346Z" fill="#2A2A2A"/>
<path d="M94.8305 19.0291C94.8305 20.0851 94.526 20.8939 93.9169 21.4555C93.3108 22.0171 92.4341 22.2979 91.2869 22.2979H89.4508V15.8831H91.4865C92.545 15.8831 93.3669 16.1596 93.9524 16.7124C94.5378 17.2653 94.8305 18.0375 94.8305 19.0291ZM93.4024 19.0642C93.4024 17.6865 92.7874 16.9976 91.5574 16.9976H90.8256V21.1747H91.4155C92.7401 21.1747 93.4024 20.4712 93.4024 19.0642Z" fill="#2A2A2A"/>
<path d="M95.538 20.4375V19.3406H97.9196V20.4375H95.538Z" fill="#2A2A2A"/>
<path d="M101.856 22.2979H100.485V18.5859L100.499 17.9761L100.521 17.3091C100.293 17.5344 100.135 17.6821 100.046 17.7523L99.3013 18.3446L98.6404 17.5285L100.729 15.8831H101.856V22.2979Z" fill="#2A2A2A"/>
<path d="M108.072 18.621C108.072 19.8847 107.803 20.828 107.265 21.4511C106.726 22.0741 105.912 22.3857 104.821 22.3857C104.436 22.3857 104.145 22.3652 103.947 22.3242V21.2361C104.195 21.2975 104.456 21.3282 104.728 21.3282C105.186 21.3282 105.563 21.2624 105.859 21.1308C106.154 20.9962 106.38 20.7871 106.537 20.5033C106.694 20.2167 106.784 19.8233 106.808 19.3231H106.755C106.583 19.598 106.385 19.7911 106.16 19.9022C105.936 20.0134 105.655 20.069 105.318 20.069C104.753 20.069 104.308 19.8905 103.983 19.5337C103.657 19.1739 103.495 18.6752 103.495 18.0375C103.495 17.3501 103.691 16.8075 104.085 16.4097C104.481 16.0089 105.019 15.8086 105.699 15.8086C106.178 15.8086 106.596 15.9197 106.954 16.142C107.315 16.3643 107.591 16.6875 107.783 17.1117C107.976 17.5329 108.072 18.036 108.072 18.621ZM105.726 16.8967C105.442 16.8967 105.22 16.9932 105.06 17.1863C104.901 17.3793 104.821 17.6572 104.821 18.0199C104.821 18.33 104.893 18.5757 105.038 18.7571C105.183 18.9384 105.403 19.0291 105.699 19.0291C105.977 19.0291 106.215 18.9399 106.413 18.7614C106.611 18.5801 106.71 18.3724 106.71 18.1384C106.71 17.7903 106.617 17.4963 106.431 17.2565C106.247 17.0166 106.012 16.8967 105.726 16.8967Z" fill="#2A2A2A"/>
<rect x="80.7969" y="74" width="13.7811" height="19.2361" fill="#00C2FF"/>
<circle cx="87.6874" cy="129.187" r="8.32606" fill="#00C2FF"/>
<rect x="80.7969" y="34.4424" width="13.7811" height="64.0246" stroke="#2A2A2A" stroke-width="3" stroke-linecap="round" stroke-linejoin="round"/>
<rect x="80.7969" y="39.0361" width="13.7811" height="19.2361" stroke="#2A2A2A" stroke-width="3" stroke-linecap="round" stroke-linejoin="round"/>
<rect x="80.7969" y="74.6377" width="13.7811" height="19.2361" stroke="#2A2A2A" stroke-width="3" stroke-linecap="round" stroke-linejoin="round"/>
<circle cx="87.6872" cy="128.326" r="19.8103" stroke="#2A2A2A" stroke-width="3" stroke-linecap="round" stroke-linejoin="round"/>
<circle cx="87.6874" cy="128.326" r="8.90027" stroke="#2A2A2A" stroke-width="3" stroke-linecap="round" stroke-linejoin="round"/>
<circle cx="87.6927" cy="128.177" r="12.2572" stroke="#2A2A2A" stroke-width="3" stroke-linecap="round" stroke-linejoin="round"/>
<path d="M101.754 84.1123H108.357" stroke="#2A2A2A" stroke-width="3" stroke-linecap="round"/>
<path d="M24.1113 93.0297V75L41.6537 84.0149L24.1113 93.0297Z" fill="#00C2FF"/>
<path d="M0.943359 93.0297V75L18.4858 84.0149L0.943359 93.0297Z" fill="#00C2FF"/>
<path d="M27.0352 93.0297V75L44.5776 84.0149L27.0352 93.0297Z" stroke="#2A2A2A" stroke-width="3" stroke-linecap="round" stroke-linejoin="round"/>
</svg>
