<svg width="47" height="42" viewBox="0 0 47 42" fill="none" xmlns="http://www.w3.org/2000/svg">
<path d="M44.5232 41.1615H21.584L33.0536 16.5838L44.5232 41.1615Z" fill="#FFDC5D"/>
<path d="M45.5423 40.0094H24.7539L35.1481 17.7362L45.5423 40.0094Z" stroke="#231F20" stroke-width="1.5" stroke-miterlimit="10" stroke-linecap="round" stroke-linejoin="round"/>
<path d="M35.1465 26.72V32.8821" stroke="#231F20" stroke-width="1.5" stroke-miterlimit="10" stroke-linecap="round" stroke-linejoin="round"/>
<path d="M35.1467 34.8124C34.7013 34.8124 34.4043 35.1093 34.4043 35.5548C34.4043 36.0003 34.7013 36.2972 35.1467 36.2972C35.5922 36.2972 35.8892 36.0003 35.8892 35.5548C35.8892 35.1093 35.5922 34.8124 35.1467 34.8124Z" fill="#231F20"/>
<path d="M19.2776 40.0091H4.42875C2.34991 40.0091 1.45898 39.1181 1.45898 37.0393V7.34165H8.8834" stroke="#231F20" stroke-width="1.5" stroke-miterlimit="10" stroke-linecap="round" stroke-linejoin="round"/>
<path d="M18.3133 37.0393H4.42969V10.3114H8.88433" stroke="#231F20" stroke-width="1.5" stroke-miterlimit="10" stroke-linecap="round" stroke-linejoin="round"/>
<path d="M31.1568 18.2557V7.34165H23.7324" stroke="#231F20" stroke-width="1.5" stroke-miterlimit="10" stroke-linecap="round" stroke-linejoin="round"/>
<path d="M20.1679 4.37196C20.1679 2.81284 19.2028 1.4022 16.4557 1.4022C13.6344 1.4022 12.7435 2.81284 12.7435 4.37196H8.88281V13.2813H23.7316V4.37196H20.1679Z" stroke="#231F20" stroke-width="1.5" stroke-miterlimit="10" stroke-linecap="round" stroke-linejoin="round"/>
<path d="M23.7324 10.3114H28.1871V18.4782" stroke="#231F20" stroke-width="1.5" stroke-miterlimit="10" stroke-linecap="round" stroke-linejoin="round"/>
<path d="M10.6738 17.7361H21.9419" stroke="#231F20" stroke-width="1.5" stroke-miterlimit="10" stroke-linecap="round" stroke-linejoin="round"/>
<path d="M10.6738 22.1902H21.9419" stroke="#231F20" stroke-width="1.5" stroke-miterlimit="10" stroke-linecap="round" stroke-linejoin="round"/>
<path d="M10.6738 26.6453H21.9419" stroke="#231F20" stroke-width="1.5" stroke-miterlimit="10" stroke-linecap="round" stroke-linejoin="round"/>
<path d="M10.6738 31.0994H17.4704" stroke="#231F20" stroke-width="1.5" stroke-miterlimit="10" stroke-linecap="round" stroke-linejoin="round"/>
</svg>
