<svg width="49" height="40" viewBox="0 0 49 40" fill="none" xmlns="http://www.w3.org/2000/svg">
<circle cx="33.5556" cy="12.2041" r="9.18845" fill="#3CDDD3"/>
<path d="M42.6119 2.01758L33.6796 12.2039L30.0605 8.58488" stroke="#231F20" stroke-width="1.5" stroke-miterlimit="10" stroke-linecap="round" stroke-linejoin="round"/>
<path d="M42.3723 7.92167C42.5319 8.55996 42.6117 9.238 42.6117 9.95609C42.6117 14.9428 38.5426 19.012 33.5559 19.012C28.5692 19.012 24.5 14.9428 24.5 9.95609C24.5 4.96938 28.5692 0.900546 33.5559 0.900546C34.992 0.900546 36.3484 1.21946 37.5851 1.85776" stroke="#231F20" stroke-width="1.5" stroke-miterlimit="10" stroke-linecap="round" stroke-linejoin="round"/>
<path d="M9.34005 21.0067H1.36133V35.3684H9.34005V21.0067Z" stroke="black" stroke-width="1.5" stroke-miterlimit="10" stroke-linejoin="round"/>
<path d="M9.33984 33.6128C30.3239 40.6341 23.6218 40.9534 47.6377 28.9853C45.4835 26.8311 43.8079 26.0337 41.6537 26.672L33.0366 29.544" stroke="black" stroke-width="1.5" stroke-miterlimit="10" stroke-linecap="round" stroke-linejoin="round"/>
<path d="M9.33984 22.6024H15.7228C20.4303 22.6024 23.4622 24.996 24.4994 25.7939C27.1324 25.7939 27.3718 25.7939 30.8824 25.7939C34.0739 25.7939 34.0739 30.5811 30.8824 30.5811H19.7122" stroke="black" stroke-width="1.5" stroke-miterlimit="10" stroke-linecap="round" stroke-linejoin="round"/>
</svg>
