<svg width="534" height="379" viewBox="0 0 534 379" fill="none" xmlns="http://www.w3.org/2000/svg">
<path opacity="0.1" d="M334.979 345.529L477.688 293.172L533.644 227.273L531.041 120.301L474.652 49.8888L387.031 0.239258L286.397 9.71781L133.277 59.8187L68.2119 137.453L89.4665 256.132L151.46 341.272L334.979 345.529Z" fill="#00C2FF"/>
<path opacity="0.5" d="M173.334 90.9917L351.539 133.152M173.334 90.9917L121.188 156.329L116.458 197.007L139.496 244.706M173.334 90.9917L291.597 53.6562L369.322 46.5928M351.539 133.152L480.55 136.063M351.539 133.152L369.322 46.5928M351.539 133.152L439.342 264.888M351.539 133.152L245.518 277.805L176.014 297.85M351.539 133.152L245.518 188.929L139.496 244.706M480.55 136.063L439.342 264.888M480.55 136.063L436.997 83.5919L369.322 46.5928M480.55 136.063L482.56 215.78L382.723 264.888L329.119 303.905M439.342 264.888L329.119 303.905M329.119 303.905L139.496 244.706M329.119 303.905L176.014 297.85M139.496 244.706L176.014 297.85" stroke="#3C92F4" stroke-width="0.75" stroke-dasharray="3 5"/>
<path d="M96.7323 375.268L95.3578 363.584H103.511L106.01 371.488C108.874 372.748 113.502 375.818 109.103 378.017C104.705 380.216 99.0232 377.101 96.7323 375.268Z" fill="#3D4A63"/>
<path d="M127.923 375.268L126.548 363.584H134.356L137.201 371.488C140.064 372.748 144.692 375.818 140.293 378.017C135.895 380.216 130.214 377.101 127.923 375.268Z" fill="#3D4A63"/>
<path d="M89.1426 351.114C87.2939 342.622 87.2169 329.086 87.4095 323.379L110.229 325.434C109.362 331.369 111.673 341.527 109.651 346.663C107.95 350.984 110.518 363.782 109.073 364.81C107.244 365.152 101.737 365.631 94.3419 364.81C86.9473 363.988 87.7946 355.337 89.1426 351.114Z" fill="url(#paint0_linear)"/>
<path d="M121.881 345.56C120.875 334.299 121.233 329.067 121.412 323.379L142.589 325.427C141.785 331.342 142.174 339.292 141.517 344.878C140.914 349.997 142.254 356.822 140.377 361.258C138.769 364.67 133.032 365.831 126.17 365.012C119.308 364.193 123.489 360.575 121.881 345.56Z" fill="url(#paint1_linear)"/>
<path d="M182.621 164.927C177.706 164.438 175.722 158.655 176.714 156.874C177.706 155.093 175.796 150.916 176.593 149.906C178.747 147.176 181.086 153.236 182.475 152.222C181.468 148.174 180.344 140.147 183.732 139.589C191.087 138.378 193.825 150.53 193.279 156.016C192.742 161.414 188.764 165.538 182.621 164.927Z" fill="#AC4B22"/>
<path d="M40.4457 239.552C40.4456 232.652 51.0046 212.955 57.3299 203.841L88.4089 173.359L111.121 170.222C116.948 170.521 131.292 176.049 137.119 179.037L137.12 179.038C141.782 181.428 154.601 188.002 161.325 189.347C160.727 184.566 169.856 165.471 173.99 156.954L193.564 162.931C188.882 180.114 181.347 213.404 172.98 218.334C167.953 221.297 155.946 221.024 148.475 218.334C151.912 226.403 148.395 242.035 147.13 246.276C144.59 254.792 147.13 269.734 148.475 276.757C149.459 281.895 152.36 293.342 155.946 303.652C157.466 308.022 163.865 320.387 163.865 327.708C109.776 324.122 81.0876 328.456 67.7892 327.708C60.9854 327.326 68.6062 290.924 70.8973 271.4C48.1858 273.193 40.4458 253.298 40.4457 239.552Z" fill="#EEEEEE"/>
<path d="M42.7173 239.552C42.7172 232.652 53.2762 212.955 59.6015 203.841L90.6805 173.36L113.392 170.222C119.219 170.521 133.564 176.049 139.391 179.037L139.391 179.038C144.054 181.429 156.873 188.003 163.597 189.347C162.999 184.566 171.117 166.337 175.251 157.82L194.825 163.797C190.143 180.98 183.619 213.404 175.251 218.334C170.224 221.297 158.218 221.024 150.747 218.334C154.183 226.403 150.667 242.035 149.402 246.276C146.862 254.792 149.402 269.734 150.747 276.757C151.731 281.895 154.632 293.342 158.218 303.652C159.738 308.022 166.137 320.387 166.137 327.709C112.047 324.123 83.3592 328.456 70.0608 327.709C63.257 327.326 71.057 288.063 73.348 268.539C50.6365 270.332 42.7174 253.298 42.7173 239.552Z" fill="white"/>
<path d="M113.84 149.073C113.482 145.726 109.246 140.158 107.602 138.763L89.2238 150.866L90.718 184.635C90.718 184.635 106.967 202.229 110.852 200.884C114.737 199.539 115.778 175.745 113.84 171.971C112.421 169.207 110.068 167.9 107.378 167.302V161.026C107.378 159.719 114.569 155.87 113.84 149.073Z" fill="#AC4B22"/>
<path d="M129.267 203.035L131.466 202.6L131.761 203.965L132.713 208.364L133.665 212.763L131.466 213.198L129.267 203.035Z" fill="#00C2FF"/>
<path d="M120.9 215.116L137.635 211.829" stroke="#0084FF" stroke-width="1.5"/>
<path d="M110.74 200.622C115.123 211.679 124.367 236.931 126.279 247.689C128.192 258.447 131.035 304.771 132.231 326.487" stroke="#0084FF" stroke-width="1.5"/>
<path d="M101.037 271.65L93.8795 227.741L128.544 222.09L135.702 265.999L101.037 271.65Z" fill="#FBD54D"/>
<path d="M108.797 247.568C107.674 242.417 112.801 239.453 114.632 237.946C116.464 236.44 120.066 234.512 121.354 234.988C124.835 236.276 117.022 241.084 118.509 242.16C122.767 237.946 131.52 234.964 132.517 236.894C133.061 237.946 131.099 238.91 131.322 239.733C131.771 240.63 133.525 239.398 134.086 240.63C134.647 241.862 134.086 242.347 134.086 243.729C134.262 245.188 136.029 244.141 135.543 246.419C134.449 251.542 125.91 254.46 121.354 255.453C115.697 256.686 110.199 254.006 108.797 247.568Z" fill="#AC4B22"/>
<path d="M115.073 256.804C110.516 259.867 90.4192 265.022 73.2361 268.608L74.2074 240.965C76.6708 242.481 111.636 237.529 114.027 239.322C116.418 241.115 116.748 255.678 115.073 256.804Z" fill="white"/>
<path d="M71.4652 269.697C88.6483 266.111 110.516 259.867 115.073 256.804C116.748 255.678 116.418 241.115 114.027 239.322C111.636 237.529 76.6708 242.481 74.2073 240.965C72.6534 240.009 72.9372 237.753 73.6842 236.184L86.2353 211.829" stroke="#0084FF" stroke-width="1.5"/>
<path d="M183.507 158.746C183.987 159.645 185.105 159.984 186.004 159.504C186.903 159.024 187.243 157.906 186.762 157.007L177.915 140.445C177.754 140.146 177.432 139.969 177.093 139.996C176.79 140.02 176.497 139.88 176.324 139.63L175.246 138.073C175.112 137.88 174.854 137.818 174.647 137.928C174.448 138.035 174.355 138.268 174.425 138.482L175.018 140.275C175.123 140.594 175.052 140.945 174.83 141.198C174.569 141.494 174.519 141.922 174.705 142.27L183.507 158.746Z" fill="#C4C4C4"/>
<path d="M183.73 155.381L175.332 139.661" stroke="#FF0000" stroke-linecap="round"/>
<path d="M106.052 151.234C106.052 146.563 110.54 143.06 111.326 142.476C113.346 143.06 116.151 144.228 116.712 149.482C117.273 154.737 110.062 158.962 110.062 158.962C110.062 158.962 106.052 155.905 106.052 151.234Z" fill="#87E3D6"/>
<path d="M108.725 155.843C99.368 159.408 90.4565 157.18 90.4565 157.18L100.259 144.704C100.259 144.704 105.606 146.041 108.725 147.377" stroke="#FFDC5D"/>
<path d="M109.619 138.165C112.906 129.424 108.49 118.407 96.9187 117.547C92.3988 117.211 86.6123 120.624 86.198 125.054C85.7124 130.246 89.5746 131.39 87.6548 135.438C84.8906 141.266 79.3178 139.269 74.7301 145.86C69.8033 152.937 71.928 159.555 67.8569 163.939C63.549 168.579 57.763 168.46 51.1216 174.025C45.5933 178.657 32.9497 198.349 52.0932 209.661C70.1729 220.345 86.6832 202.34 92.5105 186.95C96.5885 176.18 88.4015 161.474 93.6311 154.899C98.8608 148.325 105.917 148.005 109.619 138.165Z" fill="#FF0000"/>
<circle opacity="0.2" cx="479.748" cy="136.489" r="18" fill="#3CDDD3"/>
<circle cx="479.748" cy="136.489" r="15.5" fill="#FCFCFC"/>
<circle cx="177.272" cy="298.499" r="3" fill="#FFDC5D"/>
<circle cx="291.738" cy="54.4312" r="3" fill="#FFDC5D"/>
<circle cx="437.422" cy="83.7568" r="3" fill="#FC9090"/>
<circle cx="383.5" cy="264.443" r="3" fill="#0C4779"/>
<circle cx="246.33" cy="276.741" r="3" fill="#3CDDD3"/>
<path d="M482.56 140.247H477.83V132.589C477.83 132.589 478.303 130.787 480.195 130.787C482.087 130.787 482.56 132.589 482.56 132.589V140.247Z" fill="#FFDC5D"/>
<circle cx="251.06" cy="185.925" r="3" fill="#3C92F4"/>
<circle cx="513.102" cy="21.3213" r="3" fill="#3CDDD3"/>
<circle cx="65.644" cy="80.9189" r="3" fill="#3C92F4"/>
<circle cx="529.184" cy="325.933" r="3" fill="#FC9090"/>
<circle cx="3.55103" cy="234.79" r="3" fill="#FFDC5D"/>
<circle cx="399.582" cy="204.845" r="3" fill="#3CDDD3"/>
<circle opacity="0.1" cx="352.012" cy="136.463" r="42.9393" fill="#00C2FF"/>
<circle cx="352.012" cy="136.463" r="38.313" fill="#FCFCFC"/>
<rect x="349.174" y="109.029" width="20.2495" height="52.03" rx="10.1248" transform="rotate(15 349.174 109.029)" fill="white" stroke="#2A2A2A" stroke-width="1.5" stroke-linecap="round" stroke-linejoin="round"/>
<path d="M351.894 116.48C351.731 116.436 351.588 116.463 351.466 116.561C351.344 116.658 351.254 116.815 351.196 117.031C351.075 117.482 351.186 117.754 351.528 117.846C351.671 117.884 351.855 117.895 352.078 117.879L351.982 118.239C351.795 118.263 351.599 118.247 351.392 118.192C351.094 118.112 350.89 117.962 350.78 117.742C350.671 117.521 350.661 117.243 350.75 116.909C350.807 116.699 350.895 116.525 351.014 116.388C351.134 116.25 351.278 116.158 351.445 116.113C351.613 116.067 351.795 116.07 351.989 116.123C352.188 116.176 352.375 116.277 352.55 116.426L352.317 116.737C352.25 116.68 352.181 116.628 352.111 116.581C352.041 116.533 351.968 116.5 351.894 116.48Z" fill="#2A2A2A"/>
<path d="M354.497 117.907C354.407 118.242 354.254 118.477 354.038 118.612C353.822 118.747 353.558 118.772 353.244 118.688C352.931 118.604 352.714 118.45 352.595 118.225C352.475 118 352.46 117.719 352.551 117.383C352.641 117.046 352.794 116.811 353.009 116.679C353.226 116.546 353.491 116.522 353.805 116.606C354.119 116.69 354.336 116.844 354.454 117.068C354.573 117.291 354.587 117.571 354.497 117.907ZM353.005 117.507C352.944 117.733 352.942 117.915 352.998 118.053C353.054 118.19 353.168 118.282 353.341 118.328C353.687 118.421 353.921 118.24 354.043 117.785C354.165 117.329 354.054 117.055 353.71 116.963C353.537 116.917 353.391 116.94 353.273 117.032C353.155 117.123 353.065 117.281 353.005 117.507Z" fill="#2A2A2A"/>
<path d="M356.329 117.317L356.767 117.434L355.53 119.271L355.057 119.144L354.905 116.935L355.343 117.052L355.405 118.359C355.408 118.436 355.407 118.525 355.404 118.626C355.402 118.727 355.399 118.796 355.395 118.834C355.428 118.752 355.503 118.613 355.619 118.417L356.329 117.317Z" fill="#2A2A2A"/>
<path d="M356.455 119.519L356.997 117.496L357.431 117.612L356.889 119.635L356.455 119.519Z" fill="#2A2A2A"/>
<path d="M359.348 119.189C359.259 119.522 359.094 119.751 358.855 119.877C358.616 120.003 358.316 120.017 357.954 119.921L357.375 119.765L357.917 117.742L358.559 117.914C358.893 118.004 359.129 118.16 359.267 118.384C359.405 118.608 359.432 118.876 359.348 119.189ZM358.895 119.079C359.011 118.645 358.875 118.376 358.487 118.272L358.256 118.21L357.903 119.527L358.089 119.577C358.507 119.689 358.776 119.523 358.895 119.079Z" fill="#2A2A2A"/>
<path d="M359.452 119.693L359.545 119.347L360.296 119.548L360.203 119.894L359.452 119.693Z" fill="#2A2A2A"/>
<path d="M361.287 120.814L360.855 120.698L361.169 119.527L361.225 119.336L361.288 119.127C361.197 119.179 361.135 119.212 361.101 119.227L360.816 119.351L360.676 119.038L361.474 118.695L361.83 118.79L361.287 120.814Z" fill="#2A2A2A"/>
<path d="M363.559 120.179C363.452 120.578 363.287 120.853 363.065 121.004C362.843 121.155 362.559 121.184 362.215 121.092C362.094 121.059 362.004 121.028 361.945 120.999L362.037 120.656C362.11 120.696 362.189 120.728 362.275 120.751C362.42 120.789 362.544 120.8 362.649 120.784C362.753 120.766 362.842 120.72 362.916 120.643C362.989 120.566 363.051 120.45 363.101 120.294L363.084 120.289C363.007 120.362 362.928 120.406 362.848 120.422C362.767 120.438 362.674 120.432 362.568 120.403C362.39 120.356 362.264 120.262 362.192 120.122C362.12 119.981 362.111 119.81 362.164 119.608C362.223 119.392 362.33 119.237 362.488 119.145C362.647 119.052 362.834 119.034 363.048 119.092C363.199 119.132 363.322 119.203 363.416 119.303C363.511 119.404 363.571 119.529 363.595 119.679C363.62 119.828 363.608 119.995 363.559 120.179ZM362.964 119.437C362.875 119.413 362.797 119.425 362.73 119.472C362.663 119.52 362.615 119.601 362.584 119.715C362.558 119.813 362.56 119.896 362.59 119.966C362.621 120.035 362.683 120.083 362.776 120.108C362.863 120.131 362.946 120.123 363.024 120.083C363.101 120.043 363.15 119.986 363.17 119.912C363.199 119.802 363.195 119.702 363.156 119.61C363.119 119.519 363.055 119.461 362.964 119.437Z" fill="#2A2A2A"/>
<rect x="353.568" y="123.055" width="4.49989" height="6.2811" transform="rotate(15 353.568 123.055)" fill="#FC9090"/>
<circle cx="348.076" cy="152.243" r="2.71868" transform="rotate(15 348.076 152.243)" fill="#FC9090"/>
<rect x="354.038" y="121.3" width="4.49989" height="20.9057" transform="rotate(15 354.038 121.3)" stroke="#2A2A2A" stroke-width="1.5" stroke-linecap="round" stroke-linejoin="round"/>
<rect x="352.146" y="128.363" width="4.49989" height="6.2811" transform="rotate(15 352.146 128.363)" stroke="#2A2A2A" stroke-width="1.5" stroke-linecap="round" stroke-linejoin="round"/>
<circle cx="348.277" cy="151.493" r="6.46859" transform="rotate(15 348.277 151.493)" stroke="#2A2A2A" stroke-width="1.5" stroke-linecap="round" stroke-linejoin="round"/>
<circle cx="348.277" cy="151.493" r="2.90618" transform="rotate(15 348.277 151.493)" stroke="#2A2A2A" stroke-width="1.5" stroke-linecap="round" stroke-linejoin="round"/>
<path d="M356.451 138.737L358.534 139.295" stroke="#2A2A2A" stroke-width="1.5" stroke-linecap="round"/>
<path d="M359.447 127.554L361.53 128.112" stroke="#2A2A2A" stroke-width="1.5" stroke-linecap="round"/>
<path d="M360.768 126.791L360.21 128.874" stroke="#2A2A2A" stroke-width="1.5" stroke-linecap="round"/>
<path d="M477.321 134.909V133.026C477.321 132.132 477.871 131.322 478.723 130.96C479.576 130.599 480.57 130.754 481.259 131.356" stroke="black" stroke-linecap="round" stroke-linejoin="round"/>
<path d="M477.321 140.556V139.803" stroke="black" stroke-linecap="round" stroke-linejoin="round"/>
<path d="M482.027 135.285V140.556" stroke="black" stroke-linecap="round" stroke-linejoin="round"/>
<path d="M479.674 127.003V130.768" stroke="black" stroke-linecap="round" stroke-linejoin="round"/>
<path d="M483.596 140.556H475.753" stroke="black" stroke-linecap="round" stroke-linejoin="round"/>
<path d="M482.027 138.297H480.459" stroke="black" stroke-linecap="round" stroke-linejoin="round"/>
<path d="M482.027 136.038H481.243" stroke="black" stroke-linecap="round" stroke-linejoin="round"/>
<path d="M478.105 144.321V140.556" stroke="black" stroke-linecap="round" stroke-linejoin="round"/>
<path d="M481.243 140.556V144.321" stroke="black" stroke-linecap="round" stroke-linejoin="round"/>
<path d="M482.811 144.321H476.537" stroke="black" stroke-linecap="round" stroke-linejoin="round"/>
<path d="M470.262 144.321L488.302 127.003" stroke="black" stroke-linecap="round" stroke-linejoin="round"/>
<circle opacity="0.2" cx="372.929" cy="46.5928" r="18" fill="#3CDDD3"/>
<circle cx="372.929" cy="46.5928" r="15.5" fill="#FCFCFC"/>
<path fill-rule="evenodd" clip-rule="evenodd" d="M372.502 54.2483V51.686H371.22C370.041 51.686 369.085 50.7301 369.085 49.5508V46.5614H367.116C366.978 46.5613 366.85 46.4953 366.769 46.384C366.689 46.2727 366.667 46.1296 366.711 45.9995C368.248 41.3651 369.566 37.2877 375.491 37.2877C379.48 37.2725 382.728 40.4901 382.751 44.4792C382.751 46.8621 381.986 48.9683 380.188 50.2776V54.2483" fill="#FC9090"/>
<path d="M370.793 55.1026V52.5403H369.512C368.333 52.5403 367.377 51.5843 367.377 50.405V47.4157H365.407C365.27 47.4156 365.141 47.3496 365.061 47.2383C364.981 47.1269 364.959 46.9839 365.003 46.8537C366.54 42.2194 367.858 38.1419 373.783 38.1419C377.772 38.1268 381.02 41.3443 381.043 45.3334C381.043 47.7163 380.278 49.8225 378.48 51.1319V55.1026" stroke="black" stroke-linecap="round" stroke-linejoin="round"/>
<path d="M366.836 54.7437C366.876 54.7832 366.898 54.8372 366.898 54.8935C366.898 54.9499 366.876 55.0039 366.836 55.0434" stroke="black" stroke-linecap="round" stroke-linejoin="round"/>
<path d="M366.534 54.7439C366.617 54.6609 366.752 54.6609 366.835 54.7439" stroke="black" stroke-linecap="round" stroke-linejoin="round"/>
<path d="M366.534 55.0434C366.494 55.0039 366.471 54.9499 366.471 54.8935C366.471 54.8372 366.494 54.7832 366.534 54.7437" stroke="black" stroke-linecap="round" stroke-linejoin="round"/>
<path d="M366.835 55.0435C366.752 55.1265 366.617 55.1265 366.534 55.0435" stroke="black" stroke-linecap="round" stroke-linejoin="round"/>
<path d="M365.156 53.0723C365.197 53.1119 365.219 53.1661 365.219 53.2226C365.219 53.2791 365.197 53.3333 365.156 53.3729" stroke="black" stroke-linecap="round" stroke-linejoin="round"/>
<path d="M364.851 53.0724C364.935 52.9902 365.069 52.9902 365.153 53.0724" stroke="black" stroke-linecap="round" stroke-linejoin="round"/>
<path d="M364.851 53.3729C364.811 53.3333 364.789 53.2791 364.789 53.2226C364.789 53.1661 364.811 53.1119 364.851 53.0723" stroke="black" stroke-linecap="round" stroke-linejoin="round"/>
<path d="M365.156 53.3728C365.073 53.4559 364.938 53.4559 364.855 53.3728" stroke="black" stroke-linecap="round" stroke-linejoin="round"/>
<path d="M363.471 51.4016C363.511 51.4413 363.533 51.4953 363.533 51.5515C363.533 51.6077 363.511 51.6617 363.471 51.7014" stroke="black" stroke-linecap="round" stroke-linejoin="round"/>
<path d="M363.169 51.4016C363.253 51.3189 363.387 51.3189 363.471 51.4016" stroke="black" stroke-linecap="round" stroke-linejoin="round"/>
<path d="M363.169 51.7014C363.129 51.6617 363.107 51.6077 363.107 51.5515C363.107 51.4953 363.129 51.4413 363.169 51.4016" stroke="black" stroke-linecap="round" stroke-linejoin="round"/>
<path d="M363.471 51.7017C363.387 51.7844 363.253 51.7844 363.169 51.7017" stroke="black" stroke-linecap="round" stroke-linejoin="round"/>
<path d="M365.608 50.8218C365.648 50.8615 365.67 50.9154 365.67 50.9717C365.67 51.0279 365.648 51.0818 365.608 51.1216" stroke="black" stroke-linecap="round" stroke-linejoin="round"/>
<path d="M365.306 50.8218C365.39 50.7391 365.524 50.7391 365.608 50.8218" stroke="black" stroke-linecap="round" stroke-linejoin="round"/>
<path d="M365.306 51.1216C365.266 51.0818 365.244 51.0279 365.244 50.9717C365.244 50.9154 365.266 50.8615 365.306 50.8218" stroke="black" stroke-linecap="round" stroke-linejoin="round"/>
<path d="M365.608 51.1213C365.524 51.204 365.39 51.204 365.306 51.1213" stroke="black" stroke-linecap="round" stroke-linejoin="round"/>
<path d="M367.425 52.6255C367.465 52.665 367.488 52.719 367.488 52.7754C367.488 52.8318 367.465 52.8858 367.425 52.9253" stroke="black" stroke-linecap="round" stroke-linejoin="round"/>
<path d="M367.121 52.6255C367.204 52.5425 367.339 52.5425 367.422 52.6255" stroke="black" stroke-linecap="round" stroke-linejoin="round"/>
<path d="M367.121 52.9263C367.08 52.8867 367.058 52.8327 367.058 52.7764C367.058 52.72 367.08 52.666 367.121 52.6265" stroke="black" stroke-linecap="round" stroke-linejoin="round"/>
<path d="M367.425 52.9263C367.342 53.0093 367.207 53.0093 367.123 52.9263" stroke="black" stroke-linecap="round" stroke-linejoin="round"/>
<path d="M367.573 50.6697C367.613 50.7093 367.635 50.7635 367.635 50.82C367.635 50.8765 367.613 50.9307 367.573 50.9703" stroke="black" stroke-linecap="round" stroke-linejoin="round"/>
<path d="M367.27 50.6697C367.354 50.587 367.489 50.587 367.573 50.6697" stroke="black" stroke-linecap="round" stroke-linejoin="round"/>
<path d="M367.27 50.9703C367.187 50.8873 367.187 50.7527 367.27 50.6697" stroke="black" stroke-linecap="round" stroke-linejoin="round"/>
<path d="M367.573 50.9702C367.488 51.052 367.354 51.052 367.27 50.9702" stroke="black" stroke-linecap="round" stroke-linejoin="round"/>
<circle opacity="0.2" cx="172.402" cy="91.0293" r="18" fill="#3CDDD3"/>
<circle cx="172.402" cy="91.0293" r="15.5" fill="#FCFCFC"/>
<path fill-rule="evenodd" clip-rule="evenodd" d="M165.406 85.3756C162.166 87.2292 161.063 91.6231 160.9 98.2325C160.882 98.7023 161.067 99.1571 161.407 99.4815C161.747 99.8059 162.21 99.9686 162.679 99.9284L167.626 99.4221C168.071 99.37 168.475 99.1389 168.746 98.7821C169.016 98.4254 169.13 97.9738 169.06 97.5314L168.612 94.4739C168.236 91.9018 167.957 89.3181 167.775 86.723C167.749 86.1709 167.442 85.6707 166.962 85.3974C166.481 85.1242 165.894 85.1159 165.406 85.3756Z" fill="#FFDC5D"/>
<path fill-rule="evenodd" clip-rule="evenodd" d="M179.398 85.3756C182.639 87.2292 183.742 91.6231 183.904 98.2325C183.922 98.7023 183.738 99.1571 183.398 99.4815C183.057 99.8059 182.594 99.9686 182.126 99.9284L177.179 99.4221C176.734 99.37 176.33 99.1389 176.059 98.7821C175.788 98.4254 175.675 97.9738 175.744 97.5314L176.192 94.4739C176.569 91.9018 176.848 89.3181 177.029 86.723C177.056 86.1709 177.363 85.6707 177.843 85.3974C178.323 85.1242 178.91 85.1159 179.398 85.3756Z" fill="#FFDC5D"/>
<path fill-rule="evenodd" clip-rule="evenodd" d="M167.207 85.3756C163.967 87.2292 162.864 91.6231 162.701 98.2326C162.683 98.7023 162.868 99.1571 163.208 99.4815C163.548 99.8059 164.011 99.9686 164.48 99.9284L169.427 99.4221C169.872 99.37 170.276 99.1389 170.547 98.7821C170.817 98.4254 170.931 97.9738 170.861 97.5314L170.413 94.4739C170.036 91.9018 169.757 89.3181 169.576 86.723C169.55 86.1709 169.243 85.6707 168.763 85.3974C168.282 85.1242 167.695 85.1159 167.207 85.3756V85.3756Z" stroke="black" stroke-linecap="round" stroke-linejoin="round"/>
<path d="M172.404 80.1243V87.2956L165.232 92.7796" stroke="black" stroke-linecap="round" stroke-linejoin="round"/>
<path d="M167.622 90.9513L166.076 89.4048" stroke="black" stroke-linecap="round" stroke-linejoin="round"/>
<path d="M166.912 91.4946L167.763 93.6233" stroke="black" stroke-linecap="round" stroke-linejoin="round"/>
<path d="M166.92 94.8888L167.763 93.6233L168.607 94.0451" stroke="black" stroke-linecap="round" stroke-linejoin="round"/>
<path fill-rule="evenodd" clip-rule="evenodd" d="M177.343 84.9678C180.588 86.8239 181.686 91.2153 181.848 97.8248C181.866 98.2945 181.681 98.7493 181.341 99.0737C181.001 99.3981 180.538 99.5609 180.07 99.5206L175.122 99.0144C174.677 98.9622 174.273 98.7311 174.003 98.3744C173.732 98.0176 173.618 97.566 173.688 97.1237L174.136 94.0662C174.513 91.494 174.792 88.9104 174.973 86.3152C174.999 85.7629 175.306 85.2624 175.787 84.9891C176.268 84.7158 176.855 84.7078 177.343 84.9678Z" stroke="black" stroke-linecap="round" stroke-linejoin="round"/>
<path d="M172.404 87.2957L179.575 92.7796" stroke="black" stroke-linecap="round" stroke-linejoin="round"/>
<path d="M177.185 90.9513L178.731 89.4048" stroke="black" stroke-linecap="round" stroke-linejoin="round"/>
<path d="M177.895 91.4946L177.044 93.6233" stroke="black" stroke-linecap="round" stroke-linejoin="round"/>
<path d="M177.888 94.8888L177.044 93.6233L176.2 94.0451" stroke="black" stroke-linecap="round" stroke-linejoin="round"/>
<circle opacity="0.2" cx="482.027" cy="214.721" r="18" fill="#3CDDD3"/>
<circle cx="482.027" cy="214.721" r="15.5" fill="#FCFCFC"/>
<path d="M473.678 210.738C473.678 210.738 475.775 210.809 478.482 210.321C479.595 210.12 480.811 209.068 482.027 209.068C483.243 209.068 484.46 210.12 485.573 210.321C488.28 210.809 490.376 210.738 490.376 210.738V219.087C490.376 219.087 486.202 223.261 482.027 223.261C477.853 223.261 473.678 219.087 473.678 219.087V210.738Z" fill="#3CDDD3"/>
<path d="M473.678 209.851C473.678 209.851 475.775 209.922 478.482 209.433C479.595 209.233 480.811 208.181 482.027 208.181C483.243 208.181 484.46 209.233 485.573 209.433C488.28 209.922 490.376 209.851 490.376 209.851V218.2C490.376 218.2 486.202 222.374 482.027 222.374C477.853 222.374 473.678 218.2 473.678 218.2V209.851Z" stroke="black" stroke-linecap="square" stroke-linejoin="round"/>
<path d="M476.183 212.739H487.454" stroke="black" stroke-linecap="round"/>
<path d="M476.183 215.721H487.454" stroke="black" stroke-linecap="round"/>
<path d="M478.897 218.703H484.741" stroke="black" stroke-linecap="round"/>
<path d="M473.678 210.268C472.844 209.99 471.09 209.684 470.756 210.686C470.339 211.938 472.009 217.365 473.679 217.365" stroke="black"/>
<path d="M490.376 210.268C491.211 209.99 492.964 209.684 493.298 210.686C493.716 211.938 492.046 217.365 490.376 217.365" stroke="black"/>
<circle opacity="0.2" cx="440.422" cy="264.443" r="18" fill="#3CDDD3"/>
<circle cx="440.422" cy="264.443" r="15.5" fill="#FCFCFC"/>
<path fill-rule="evenodd" clip-rule="evenodd" d="M441.315 259.191L442.655 257.851L443.548 261.87C447.121 261.87 448.46 257.851 448.46 257.851C448.46 257.851 450.247 259.191 450.247 264.55C450.247 269.909 447.567 272.588 447.567 272.588C447.567 272.588 448.014 270.355 446.674 269.462C445.334 268.569 443.995 270.355 443.995 270.355C443.49 269.958 442.84 269.795 442.208 269.909C440.868 270.355 440.422 273.928 440.422 273.928C440.422 273.928 439.975 270.355 438.636 269.909C438.004 269.795 437.353 269.958 436.849 270.355C436.849 270.355 435.51 268.569 434.17 269.462C432.83 270.355 433.277 272.588 433.277 272.588C433.277 272.588 430.597 269.909 430.597 264.55C430.597 259.191 432.383 257.851 432.383 257.851C432.383 257.851 433.723 261.87 437.296 261.87L438.189 257.851L439.529 259.191H441.315Z" fill="#3C92F4"/>
<path fill-rule="evenodd" clip-rule="evenodd" d="M441.315 258.298L442.655 256.958L443.548 260.977C447.121 260.977 448.46 256.958 448.46 256.958C448.46 256.958 450.247 258.298 450.247 263.657C450.247 269.016 447.567 271.695 447.567 271.695C447.567 271.695 448.014 269.462 446.674 268.569C445.334 267.676 443.995 269.462 443.995 269.462C443.49 269.065 442.84 268.902 442.208 269.016C440.868 269.462 440.422 273.035 440.422 273.035C440.422 273.035 439.975 269.462 438.636 269.016C438.004 268.902 437.353 269.065 436.849 269.462C436.849 269.462 435.51 267.676 434.17 268.569C432.83 269.462 433.277 271.695 433.277 271.695C433.277 271.695 430.597 269.016 430.597 263.657C430.597 258.298 432.383 256.958 432.383 256.958C432.383 256.958 433.723 260.977 437.296 260.977L438.189 256.958L439.529 258.298H441.315Z" stroke="black" stroke-linecap="round" stroke-linejoin="round"/>
<path d="M439.305 260.084C439.429 260.084 439.529 260.184 439.529 260.307" stroke="black" stroke-linecap="round" stroke-linejoin="round"/>
<path d="M439.082 260.307C439.082 260.184 439.182 260.084 439.306 260.084" stroke="black" stroke-linecap="round" stroke-linejoin="round"/>
<path d="M439.306 260.531C439.182 260.531 439.082 260.431 439.082 260.307" stroke="black" stroke-linecap="round" stroke-linejoin="round"/>
<path d="M439.529 260.307C439.529 260.431 439.429 260.531 439.305 260.531" stroke="black" stroke-linecap="round" stroke-linejoin="round"/>
<path d="M441.538 260.084C441.662 260.084 441.762 260.184 441.762 260.307" stroke="black" stroke-linecap="round" stroke-linejoin="round"/>
<path d="M441.315 260.307C441.315 260.184 441.415 260.084 441.538 260.084" stroke="black" stroke-linecap="round" stroke-linejoin="round"/>
<path d="M441.538 260.531C441.415 260.531 441.315 260.431 441.315 260.307" stroke="black" stroke-linecap="round" stroke-linejoin="round"/>
<path d="M441.762 260.307C441.762 260.431 441.662 260.531 441.538 260.531" stroke="black" stroke-linecap="round" stroke-linejoin="round"/>
<path d="M439.529 262.764L440.106 262.187C440.189 262.103 440.303 262.055 440.422 262.055C440.541 262.055 440.654 262.103 440.738 262.187L441.315 262.764" stroke="black" stroke-linecap="round" stroke-linejoin="round"/>
<circle opacity="0.2" cx="330.077" cy="302.458" r="18" fill="#3CDDD3"/>
<circle cx="330.077" cy="302.458" r="15.5" fill="#FCFCFC"/>
<circle cx="326.94" cy="305.174" r="5.4024" fill="#FF9292"/>
<path fill-rule="evenodd" clip-rule="evenodd" d="M327.811 309.676C330.795 309.676 333.214 307.257 333.214 304.274C333.214 301.29 330.795 298.871 327.811 298.871C324.828 298.871 322.409 301.29 322.409 304.274C322.409 307.257 324.828 309.676 327.811 309.676Z" stroke="black" stroke-linecap="round" stroke-linejoin="round"/>
<path d="M327.811 298.871V296.199" stroke="black" stroke-linecap="round" stroke-linejoin="round"/>
<path d="M329.835 299.264L330.837 296.787" stroke="black" stroke-linecap="round" stroke-linejoin="round"/>
<path d="M332.79 302.174L335.252 301.136" stroke="black" stroke-linecap="round" stroke-linejoin="round"/>
<path d="M331.632 300.453L333.522 298.564" stroke="black" stroke-linecap="round" stroke-linejoin="round"/>
<path d="M325.787 299.264L324.786 296.787" stroke="black" stroke-linecap="round" stroke-linejoin="round"/>
<path d="M322.834 302.174L320.371 301.136" stroke="black" stroke-linecap="round" stroke-linejoin="round"/>
<path d="M329.835 309.283L330.837 311.761" stroke="black" stroke-linecap="round" stroke-linejoin="round"/>
<path d="M332.79 306.373L335.252 307.412" stroke="black" stroke-linecap="round" stroke-linejoin="round"/>
<path d="M325.787 309.283L324.786 311.761" stroke="black" stroke-linecap="round" stroke-linejoin="round"/>
<path d="M322.834 306.373L320.371 307.412" stroke="black" stroke-linecap="round" stroke-linejoin="round"/>
<path d="M323.992 300.453L322.102 298.564" stroke="black" stroke-linecap="round" stroke-linejoin="round"/>
<path d="M333.214 304.274H335.887" stroke="black" stroke-linecap="round" stroke-linejoin="round"/>
<path d="M331.632 308.095L333.522 309.984" stroke="black" stroke-linecap="round" stroke-linejoin="round"/>
<path d="M327.811 309.676V312.348" stroke="black" stroke-linecap="round" stroke-linejoin="round"/>
<path d="M323.992 308.095L322.102 309.984" stroke="black" stroke-linecap="round" stroke-linejoin="round"/>
<path d="M322.409 304.274H319.736" stroke="black" stroke-linecap="round" stroke-linejoin="round"/>
<path fill-rule="evenodd" clip-rule="evenodd" d="M326.461 306.975C327.207 306.975 327.811 306.37 327.811 305.624C327.811 304.878 327.207 304.274 326.461 304.274C325.715 304.274 325.11 304.878 325.11 305.624C325.11 306.37 325.715 306.975 326.461 306.975Z" stroke="black" stroke-linecap="round" stroke-linejoin="round"/>
<path d="M329.162 301.798C329.286 301.798 329.387 301.898 329.387 302.023" stroke="black" stroke-linecap="round" stroke-linejoin="round"/>
<path d="M328.937 302.023C328.937 301.898 329.038 301.798 329.162 301.798" stroke="black" stroke-linecap="round" stroke-linejoin="round"/>
<path d="M329.162 302.248C329.038 302.248 328.937 302.147 328.937 302.022" stroke="black" stroke-linecap="round" stroke-linejoin="round"/>
<path d="M329.387 302.022C329.387 302.147 329.286 302.248 329.162 302.248" stroke="black" stroke-linecap="round" stroke-linejoin="round"/>
<path d="M330.512 304.949C330.637 304.949 330.738 305.05 330.738 305.174" stroke="black" stroke-linecap="round" stroke-linejoin="round"/>
<path d="M330.287 305.174C330.287 305.05 330.388 304.949 330.512 304.949" stroke="black" stroke-linecap="round" stroke-linejoin="round"/>
<path d="M330.512 305.399C330.388 305.399 330.287 305.298 330.287 305.174" stroke="black" stroke-linecap="round" stroke-linejoin="round"/>
<path d="M330.738 305.174C330.738 305.298 330.637 305.399 330.512 305.399" stroke="black" stroke-linecap="round" stroke-linejoin="round"/>
<path fill-rule="evenodd" clip-rule="evenodd" d="M337.716 297.07C338.71 297.07 339.516 296.264 339.516 295.27C339.516 294.275 338.71 293.469 337.716 293.469C336.721 293.469 335.915 294.275 335.915 295.27C335.915 296.264 336.721 297.07 337.716 297.07Z" stroke="black" stroke-linecap="round" stroke-linejoin="round"/>
<path d="M337.716 293.469V292.568" stroke="black" stroke-linecap="round" stroke-linejoin="round"/>
<path d="M338.989 293.996L339.625 293.36" stroke="black" stroke-linecap="round" stroke-linejoin="round"/>
<path d="M339.516 295.27H340.417" stroke="black" stroke-linecap="round" stroke-linejoin="round"/>
<path d="M338.989 296.544L339.625 297.18" stroke="black" stroke-linecap="round" stroke-linejoin="round"/>
<path d="M337.716 297.07V297.971" stroke="black" stroke-linecap="round" stroke-linejoin="round"/>
<path d="M336.442 296.544L335.806 297.18" stroke="black" stroke-linecap="round" stroke-linejoin="round"/>
<path d="M335.915 295.27H335.014" stroke="black" stroke-linecap="round" stroke-linejoin="round"/>
<path d="M336.442 293.996L335.806 293.36" stroke="black" stroke-linecap="round" stroke-linejoin="round"/>
<defs>
<linearGradient id="paint0_linear" x1="98.9224" y1="323.379" x2="98.9224" y2="365.263" gradientUnits="userSpaceOnUse">
<stop stop-color="#2384F2"/>
<stop offset="1" stop-color="#3C92F4"/>
</linearGradient>
<linearGradient id="paint1_linear" x1="131.895" y1="323.379" x2="131.895" y2="365.263" gradientUnits="userSpaceOnUse">
<stop stop-color="#2384F2"/>
<stop offset="1" stop-color="#3C92F4"/>
</linearGradient>
</defs>
</svg>
