<svg width="75" height="76" viewBox="0 0 75 76" fill="none" xmlns="http://www.w3.org/2000/svg">
<circle opacity="0.5" cx="37.5" cy="38.489" r="37.5" fill="#F5F5F5"/>
<path d="M43.75 13.7224C41.5 23.7224 33.3599 36.3591 32.718 40.2661C31.5207 47.5531 40.3352 47.8627 44.5877 49.2458C47.3811 50.1543 46.414 53.6994 46.125 55.7224C45.6525 59.0299 47.875 60.7224 47.875 61.1628" stroke="black" stroke-width="2" stroke-linecap="round"/>
<path d="M56.8033 34.1511C58.3928 36.5664 59.9498 41.5153 56.8033 43.1515C52.7638 45.252 43.7664 40.0101 40.556 41.6999C38.7249 42.6638 39.7551 44.4949 41.3624 44.7628C42.4303 44.9408 43.2849 44.7628 43.2849 44.7628" stroke="black" stroke-width="2" stroke-linecap="round"/>
<circle cx="37.5" cy="38.489" r="26" stroke="black" stroke-width="2"/>
<rect x="33.9785" y="48.9285" width="4.0521" height="6.91711" rx="2.02605" transform="rotate(35.5529 33.9785 48.9285)" fill="#3C92F4"/>
<path d="M30.7256 56.23V56.23C31.5593 56.8258 32.7181 56.633 33.3139 55.7993L34.701 53.8585C35.2968 53.0248 35.1039 51.866 34.2702 51.2702V51.2702C33.4366 50.6744 32.2777 50.8672 31.6819 51.7009L30.2949 53.6417C29.6991 54.4754 29.8919 55.6342 30.7256 56.23V56.23ZM30.7256 56.23L26.625 61.7227" stroke="black" stroke-width="2" stroke-linecap="round"/>
</svg>
