<svg width="624" height="284" viewBox="0 0 624 284" fill="none" xmlns="http://www.w3.org/2000/svg">
<path d="M3.50012 42.4995C2.00012 0.249683 55.0001 0.439957 55.0001 0.439957H624V259.44H69C69 259.44 24.5001 262.999 24.5 232.999C24.4999 203 51.9999 197 66.5 165.5C81.0002 134 5.00012 84.7494 3.50012 42.4995Z" fill="#F8D1D1"/>
<rect x="443" y="37.0381" width="102.037" height="222.533" fill="#E5EAED"/>
<mask id="mask0" mask-type="alpha" maskUnits="userSpaceOnUse" x="443" y="37" width="103" height="223">
<rect x="443" y="37.0381" width="102.037" height="222.533" fill="#BBCDD9"/>
</mask>
<g mask="url(#mask0)">
<path d="M476.968 254.119C475.963 253.039 476.233 248.571 476.233 248.571H470.251C470.251 248.571 469.608 252.673 469.608 254.875C469.608 257.078 469.93 259.385 469.93 259.385C469.93 259.385 485.796 259.571 486.762 259.571C487.727 259.571 488.119 257.449 486.91 256.24C485.701 255.032 477.974 255.198 476.968 254.119Z" fill="black"/>
<path d="M453.696 254.119C452.691 253.039 452.961 248.571 452.961 248.571H446.979C446.979 248.571 446.336 252.673 446.336 254.875C446.336 257.078 446.657 259.385 446.657 259.385C446.657 259.385 462.524 259.571 463.489 259.571C464.455 259.571 464.846 257.449 463.637 256.24C462.429 255.032 454.701 255.198 453.696 254.119Z" fill="black"/>
<path d="M476.617 253.353C476.346 252.403 476.295 248.571 476.295 248.571H469.914C469.914 248.571 469.543 252.673 469.543 254.875C469.747 255.091 471.867 255.181 473.41 254.875C474.937 254.573 475.554 253.469 476.617 253.353Z" fill="#EEEEEE"/>
<path d="M453.345 253.353C453.074 252.403 453.023 248.571 453.023 248.571H446.642C446.642 248.571 446.271 252.673 446.271 254.875C446.475 255.091 448.595 255.181 450.137 254.875C451.665 254.573 452.282 253.469 453.345 253.353Z" fill="#EEEEEE"/>
<path d="M479.621 248.818C481.552 246.498 483.855 202.138 484.764 185.442C470.187 184.78 452.955 183.974 440.558 185.442C440.558 186.824 441.381 210.439 441.971 215.592C441.614 218.658 442.55 227.812 443.01 229.301C443.01 230.813 443.067 232.921 443.18 234.332C442.908 235.575 443.124 238.599 443.351 239.578C442.857 242.277 443.351 245.753 444.304 247.566C445.344 249.543 449.89 249.596 451.49 249.596C453.091 249.596 456.643 249.329 457.144 248.818C457.757 248.192 458.506 246.811 458.216 245.019C458.216 243.551 458.54 242.428 458.676 240.096C458.966 237.959 459 235.239 458.676 233.533C459 231.137 459.221 224.811 459.221 223.429C459.221 222.047 458.829 217.204 458.829 215.117C458.829 213.843 458.829 210.607 458.915 209.765C458.915 209.765 458.336 203.742 462.695 204.174C466.169 204.518 466.169 207.261 466.169 209.246V209.269C465.794 214.731 465.419 221.788 465.947 224.811C465.505 227.143 466.032 228.783 466.169 230.251C465.947 232.022 466.169 233.986 466.577 235.087C466.169 237.031 466.305 241.996 466.577 242.946C466.85 243.896 466.519 248.364 468.553 249.336C470.63 250.33 478.327 250.373 479.621 248.818Z" fill="#3D4A63"/>
<path d="M513.832 88.1401C513.832 93.7116 517.453 101.233 513.832 122.544" stroke="#6DB46C"/>
<path d="M509.128 85.3577C509.128 86.0557 510.825 88.934 513.586 88.934C516.346 88.934 518.391 86.8099 519.126 85.3577C519.593 84.4346 516.888 83.6411 514.127 83.6411C511.367 83.6411 509.128 84.6597 509.128 85.3577Z" fill="#FF9292"/>
<g style="mix-blend-mode:multiply">
<path d="M509.131 85.3577C509.131 86.0557 510.827 88.934 513.588 88.934C516.348 88.934 518.393 86.8099 519.128 85.3577C519.595 84.4346 517.045 86.1132 514.284 86.1132C511.523 86.1132 509.131 84.6597 509.131 85.3577Z" fill="#FC9090"/>
</g>
<ellipse rx="0.573367" ry="0.139286" transform="matrix(-1 0 0 1 514.405 85.6259)" fill="#FBD54D"/>
<ellipse rx="0.573367" ry="0.139286" transform="matrix(-1 0 0 1 513.584 85.9047)" fill="#FBD54D"/>
<path d="M518.201 93.2288C517.142 98.5189 512.952 105.108 511.659 125.896" stroke="#6DB46C"/>
<path d="M522.312 91.3045C522.179 91.9673 520.339 94.4414 518.236 94.0201C516.132 93.5988 514.978 91.2699 514.694 89.7789C514.514 88.8311 516.726 88.4905 518.829 88.9118C520.933 89.3331 522.445 90.6417 522.312 91.3045Z" fill="#EA812F"/>
<g style="mix-blend-mode:multiply">
<path d="M522.312 91.3044C522.179 91.9672 520.339 94.4412 518.236 94.0199C516.132 93.5986 514.978 91.2697 514.694 89.7787C514.514 88.8309 516.138 90.814 518.242 91.2353C520.345 91.6566 522.445 90.6416 522.312 91.3044Z" fill="#EA812F"/>
</g>
<ellipse cx="518.242" cy="90.7539" rx="0.445562" ry="0.134881" transform="rotate(11.3249 518.242 90.7539)" fill="#FBD54D"/>
<ellipse cx="518.815" cy="91.1436" rx="0.445562" ry="0.134881" transform="rotate(11.3249 518.815 91.1436)" fill="#FBD54D"/>
<path d="M510.071 90.4148C511.696 94.7791 510.795 100.638 510.906 101.418L480.542 109.636V94.8719C480.542 94.8719 486.392 94.8719 495.167 93.7577C503.942 92.6434 510.071 90.4148 510.071 90.4148Z" fill="#AC4B22"/>
<path d="M459.371 107.129L474.692 109.775H486.949C486.949 109.775 487.011 159.336 486.949 176.389C486.938 179.516 486.671 184.142 486.671 184.363C486.671 185.791 486.949 189.586 486.949 189.586C486.949 189.586 456.895 186.824 451.292 187.613C445.689 188.402 438.965 189.586 438.965 189.586C438.965 188.124 439.522 184.962 439.522 184.015C439.522 182.831 438.687 178.374 438.687 175.936C438.687 175.007 439.592 164.306 439.244 162.286C438.896 160.267 435.483 161.59 433.324 156.715C431.892 153.482 433.324 149.333 432.628 144.388C432.071 140.432 432.86 136.193 433.324 134.568C432.001 132.479 433.324 131.017 432.976 129.275C432.697 127.883 433.092 125.445 433.324 124.4C432.419 122.102 432.593 114.825 437.642 109.775C441.511 105.906 449.551 107.895 451.292 107.616C453.033 107.338 455.888 105.736 455.888 105.736L459.371 107.129Z" fill="#FBD54D"/>
<path d="M471.283 97.1701C473.352 94.2113 473.151 87.9979 472.792 85.261H455.331V106.12C455.331 108.118 458.852 111.298 463.091 111.446C467.331 111.594 467.077 109.75 466.612 108.34C466.3 107.39 466.612 105.736 466.612 105.207C466.612 103.656 466.927 101.575 467.205 101.122C467.484 100.67 468.696 100.869 471.283 97.1701Z" fill="#FC9090"/>
<path d="M464.037 92.468C464.037 92.468 456.655 89.4561 455.401 92.0343C454.148 94.6124 462.139 98.178 462.139 98.178" stroke="black"/>
<path d="M473.299 86.0968C475.388 84.7736 479.01 80.3163 475.388 76.0682C472.394 73.9093 469.282 76.838 467.123 76.838C463.501 76.838 458.417 72.3119 452.846 77.8826C446.299 84.4286 445.951 99.1237 452.846 99.1237C460.994 99.1237 456.432 89.5481 458.417 87.5629C460.367 85.6129 469.253 88.6592 473.299 86.0968Z" fill="#F38026"/>
<path d="M449.342 125.515C451.013 144.318 446.361 147.132 447.81 149.472C449.258 151.812 464.385 165.768 475.667 171.479" stroke="#0084FF"/>
<path d="M439.824 161.712C439.824 161.712 466.805 176.167 469.475 177.608C472.146 179.049 476.642 177.608 476.642 177.608" stroke="#0084FF"/>
<path d="M496.353 96.5691C506.314 96.5691 516.734 98.7592 521.903 98.7591C526.579 103.435 522.025 122.971 521.903 131.974C521.781 140.977 520.099 166.744 518.861 173.462H495.015C486.849 173.462 475.183 173.462 472.263 170.42C471.962 158.866 472.263 108.801 475.183 98.7592C478.87 98.7592 486.392 96.5691 496.353 96.5691Z" fill="#D2B695"/>
<path d="M476.404 177.7C474.754 174.401 476.728 169.82 478.119 168.317C479.51 166.814 480.799 166.552 481.413 166.778C483.572 167.997 479.682 169.819 480.89 171.026C482.098 172.234 489.014 170.71 489.805 172.768C490.794 175.34 487.75 176.11 484.198 176.911C480.94 177.646 477.203 179.296 476.404 177.7Z" fill="#FC9090"/>
<path d="M521.429 127.582C519.38 126.044 517.539 127.196 517.014 128.703C516.727 129.525 518.255 130.023 518.178 130.644C517.945 131.343 516.54 130.629 516.26 131.584C515.98 132.538 516.438 132.833 516.582 133.838C516.605 134.918 515.211 134.339 515.801 135.946C517.128 139.56 520.657 141.609 522.257 140.383C523.857 139.157 524.804 136.082 524.327 132.734C523.851 129.399 522.62 128.475 521.444 127.593L521.429 127.582Z" fill="#FC9090"/>
<path d="M472.324 97.654C473.327 95.859 473.206 93.2872 473.021 92.2256C473.021 92.2256 469.869 92.2255 468.372 92.3703C466.875 92.5152 463.828 92.2256 463.828 92.2256L461.808 98.3236C461.808 98.3236 463.173 99.1562 464.211 100.024C465.249 100.893 467.066 101.436 467.066 101.436C468.529 101.436 471.321 99.4491 472.324 97.654Z" fill="black"/>
</g>
<path opacity="0.4" d="M379.424 279.276C378.654 275.23 362.276 273.881 350.908 273.881C339.54 273.881 328.75 275.422 328.75 279.276C328.75 283.129 354.183 283.129 361.313 283.129C364.802 283.129 380.195 283.322 379.424 279.276Z" fill="#0C4779"/>
<path opacity="0.4" d="M216.857 278.924C216.059 274.733 205.482 273.536 193.709 273.536C181.935 273.536 164.375 274.933 164.375 278.924C164.375 282.915 180.938 282.715 188.321 282.715C191.935 282.715 217.655 283.115 216.857 278.924Z" fill="#0C4779"/>
<path opacity="0.4" d="M52.4818 278.924C51.6836 274.733 41.1074 273.536 29.3339 273.536C17.5605 273.536 0 274.933 0 278.924C0 282.915 16.5627 282.715 23.9461 282.715C27.5601 282.715 53.28 283.115 52.4818 278.924Z" fill="#0C4779"/>
<path d="M368.531 134.774L366.172 72.6311H417.695L420.448 134.774H368.531Z" fill="#FCFCFC"/>
<path d="M370.346 132.499L368.159 74.9065H415.909L418.461 132.499H370.346Z" fill="#0C4779"/>
<path d="M385.694 98.0753V98.772H385.55C385.037 98.772 384.573 98.8802 384.156 99.0964C383.74 99.3126 383.383 99.5889 383.087 99.9253C382.791 100.262 382.563 100.638 382.402 101.054C382.242 101.471 382.162 101.875 382.162 102.268C382.162 102.316 382.162 102.368 382.162 102.424C382.17 102.472 382.178 102.52 382.186 102.568C382.234 102.376 382.322 102.208 382.45 102.064C382.579 101.919 382.735 101.799 382.919 101.703C383.103 101.599 383.303 101.523 383.52 101.475C383.744 101.419 383.964 101.391 384.18 101.391C384.493 101.391 384.777 101.443 385.033 101.547C385.297 101.651 385.522 101.795 385.706 101.979C385.89 102.156 386.03 102.368 386.126 102.616C386.23 102.864 386.282 103.137 386.282 103.433C386.282 103.737 386.222 104.03 386.102 104.31C385.982 104.582 385.814 104.822 385.598 105.031C385.381 105.239 385.125 105.407 384.829 105.535C384.541 105.655 384.228 105.715 383.892 105.715C383.395 105.715 382.987 105.619 382.667 105.427C382.354 105.235 382.106 104.987 381.922 104.682C381.746 104.378 381.626 104.038 381.561 103.661C381.497 103.285 381.465 102.912 381.465 102.544C381.465 101.983 381.549 101.435 381.718 100.898C381.894 100.354 382.142 99.8732 382.462 99.4568C382.791 99.0323 383.187 98.692 383.652 98.4357C384.124 98.1794 384.661 98.0513 385.261 98.0513C385.333 98.0513 385.406 98.0553 385.478 98.0633C385.55 98.0633 385.622 98.0673 385.694 98.0753ZM385.478 102.832C385.365 102.6 385.189 102.432 384.949 102.328C384.709 102.216 384.449 102.16 384.168 102.16C383.952 102.16 383.736 102.192 383.52 102.256C383.311 102.32 383.123 102.416 382.955 102.544C382.787 102.664 382.647 102.812 382.534 102.988C382.43 103.157 382.378 103.349 382.378 103.565C382.378 103.717 382.406 103.873 382.462 104.034C382.518 104.186 382.603 104.326 382.715 104.454C382.835 104.582 382.983 104.686 383.159 104.766C383.343 104.846 383.564 104.886 383.82 104.886C384.028 104.886 384.236 104.854 384.445 104.79C384.653 104.726 384.841 104.63 385.009 104.502C385.177 104.366 385.313 104.202 385.418 104.01C385.522 103.817 385.574 103.589 385.574 103.325C385.574 103.125 385.542 102.96 385.478 102.832Z" fill="#FCFCFC"/>
<path d="M394.823 102.304H392.097V105.475H391.388V102.268H389.922V101.415L391.328 101.439C391.32 101.343 391.316 101.251 391.316 101.163C391.316 101.074 391.316 100.986 391.316 100.898C391.316 100.514 391.328 100.19 391.352 99.9253C391.384 99.661 391.424 99.4367 391.472 99.2526C391.52 99.0684 391.572 98.9202 391.628 98.8081C391.692 98.688 391.756 98.5878 391.82 98.5078C391.996 98.2835 392.197 98.1234 392.421 98.0273C392.645 97.9231 392.873 97.8711 393.106 97.8711C393.346 97.8711 393.582 97.9191 393.814 98.0152C394.047 98.1113 394.255 98.2475 394.439 98.4237C394.631 98.5919 394.791 98.7921 394.92 99.0243C395.048 99.2566 395.128 99.5088 395.16 99.7811L394.559 100.19C394.519 99.9493 394.447 99.7371 394.343 99.5529C394.247 99.3607 394.131 99.2005 393.995 99.0724C393.866 98.9442 393.726 98.8481 393.574 98.7841C393.422 98.712 393.27 98.6759 393.118 98.6759C392.965 98.6759 392.825 98.708 392.697 98.772C392.569 98.8361 392.461 98.9683 392.373 99.1685C392.285 99.3607 392.213 99.641 392.157 100.009C392.109 100.37 392.085 100.854 392.085 101.463L394.823 101.511V102.304Z" fill="#FCFCFC"/>
<path d="M396.745 105.427V101.787H395.52L395.592 100.91H396.914V98.4597H397.731V100.958H399.701V101.823H397.646V104.947L399.46 104.61L399.58 105.427L397.178 105.932L396.745 105.427Z" fill="#FCFCFC"/>
<path d="M401.839 104.514L401.19 105.403L400.181 104.37L400.854 103.553L401.839 104.514Z" fill="#FCFCFC"/>
<path d="M385.093 111.801L385.862 115.068L385.141 115.332L384.709 113.29C384.653 113.514 384.565 113.747 384.445 113.987C384.332 114.227 384.188 114.447 384.012 114.648C383.844 114.84 383.64 115 383.399 115.128C383.167 115.248 382.903 115.308 382.607 115.308C382.078 115.308 381.674 115.14 381.393 114.804C381.121 114.459 380.985 113.987 380.985 113.386C380.985 113.042 381.037 112.686 381.141 112.317C381.245 111.941 381.401 111.6 381.61 111.296C381.818 110.992 382.078 110.74 382.39 110.539C382.711 110.339 383.083 110.239 383.508 110.239C383.756 110.239 383.972 110.295 384.156 110.407C384.348 110.511 384.509 110.643 384.637 110.804C384.765 110.964 384.865 111.136 384.937 111.32C385.009 111.496 385.061 111.656 385.093 111.801ZM383.628 111.104C383.572 111.088 383.516 111.076 383.459 111.068C383.411 111.06 383.359 111.056 383.303 111.056C383.055 111.056 382.831 111.132 382.631 111.284C382.438 111.428 382.274 111.612 382.138 111.837C382.01 112.061 381.91 112.305 381.838 112.569C381.774 112.834 381.742 113.078 381.742 113.302C381.742 113.655 381.818 113.939 381.97 114.155C382.122 114.371 382.362 114.479 382.691 114.479C382.915 114.479 383.123 114.407 383.315 114.263C383.508 114.111 383.672 113.923 383.808 113.699C383.944 113.474 384.048 113.23 384.12 112.966C384.2 112.694 384.24 112.441 384.24 112.209C384.24 111.953 384.188 111.729 384.084 111.536C383.988 111.336 383.836 111.192 383.628 111.104Z" fill="#FCFCFC"/>
<path d="M391.027 112.497V112.75C391.027 113.206 390.959 113.587 390.823 113.891C390.687 114.195 390.515 114.439 390.307 114.624C390.106 114.8 389.882 114.924 389.634 114.996C389.386 115.068 389.149 115.104 388.925 115.104C388.669 115.104 388.429 115.072 388.204 115.008C387.988 114.944 387.824 114.868 387.712 114.78L387.808 117.471L387.063 117.543V111.008L387.135 110.455C387.728 110.319 388.241 110.251 388.673 110.251C389.418 110.251 389.986 110.439 390.379 110.816C390.779 111.184 390.995 111.745 391.027 112.497ZM387.592 111.296L387.64 113.675C387.648 113.715 387.688 113.763 387.76 113.819C387.84 113.875 387.94 113.931 388.06 113.987C388.188 114.035 388.329 114.079 388.481 114.119C388.633 114.151 388.789 114.167 388.949 114.167C389.101 114.167 389.254 114.143 389.406 114.095C389.566 114.039 389.706 113.947 389.826 113.819C389.954 113.691 390.058 113.518 390.139 113.302C390.219 113.086 390.259 112.818 390.259 112.497C390.259 112.249 390.211 112.033 390.114 111.849C390.026 111.656 389.902 111.5 389.742 111.38C389.59 111.252 389.414 111.16 389.214 111.104C389.021 111.04 388.821 111.008 388.613 111.008C388.429 111.008 388.249 111.032 388.072 111.08C387.896 111.128 387.736 111.2 387.592 111.296Z" fill="#FCFCFC"/>
<path d="M396.001 111.801L396.77 115.068L396.049 115.332L395.616 113.29C395.56 113.514 395.472 113.747 395.352 113.987C395.24 114.227 395.096 114.447 394.92 114.648C394.751 114.84 394.547 115 394.307 115.128C394.075 115.248 393.81 115.308 393.514 115.308C392.986 115.308 392.581 115.14 392.301 114.804C392.029 114.459 391.892 113.987 391.892 113.386C391.892 113.042 391.944 112.686 392.049 112.317C392.153 111.941 392.309 111.6 392.517 111.296C392.725 110.992 392.986 110.74 393.298 110.539C393.618 110.339 393.991 110.239 394.415 110.239C394.663 110.239 394.88 110.295 395.064 110.407C395.256 110.511 395.416 110.643 395.544 110.804C395.672 110.964 395.772 111.136 395.845 111.32C395.917 111.496 395.969 111.656 396.001 111.801ZM394.535 111.104C394.479 111.088 394.423 111.076 394.367 111.068C394.319 111.06 394.267 111.056 394.211 111.056C393.963 111.056 393.738 111.132 393.538 111.284C393.346 111.428 393.182 111.612 393.046 111.837C392.917 112.061 392.817 112.305 392.745 112.569C392.681 112.834 392.649 113.078 392.649 113.302C392.649 113.655 392.725 113.939 392.877 114.155C393.03 114.371 393.27 114.479 393.598 114.479C393.822 114.479 394.031 114.407 394.223 114.263C394.415 114.111 394.579 113.923 394.715 113.699C394.851 113.474 394.956 113.23 395.028 112.966C395.108 112.694 395.148 112.441 395.148 112.209C395.148 111.953 395.096 111.729 394.992 111.536C394.896 111.336 394.743 111.192 394.535 111.104Z" fill="#FCFCFC"/>
<path d="M398.259 115.621L397.851 110.335L398.595 110.239L398.764 112.569L401.334 110.84L401.671 111.512L398.884 113.53V115.549L398.259 115.621Z" fill="#FCFCFC"/>
<path d="M403.184 115.092V111.452H401.959L402.031 110.575H403.352V108.125H404.169V110.623H406.139V111.488H404.085V114.612L405.899 114.275L406.019 115.092L403.617 115.597L403.184 115.092Z" fill="#FCFCFC"/>
<path d="M410.992 102.439L413.958 106.942L411.761 110.677" stroke="#FFDC5D"/>
<path d="M375.737 110.677L372.772 106.173L374.968 102.439" stroke="#FFDC5D"/>
<path fill-rule="evenodd" clip-rule="evenodd" d="M392.649 88.546C393.857 88.546 394.836 87.5673 394.836 86.3599C394.836 85.1526 393.857 84.1738 392.649 84.1738C391.441 84.1738 390.462 85.1526 390.462 86.3599C390.462 87.5673 391.441 88.546 392.649 88.546Z" fill="#FFDC5D"/>
<path fill-rule="evenodd" clip-rule="evenodd" d="M389.047 92.9182C389.047 90.9297 390.66 89.3176 392.649 89.3176C394.638 89.3176 396.251 90.9297 396.251 92.9182H389.047Z" fill="#FFDC5D"/>
<path d="M332.916 128.5C332.715 127.032 333.603 122.779 334.072 120.835L328.996 118.95L325.88 126.238C325.779 127.645 326.659 129.681 328.669 130.585C330.68 131.49 333.168 130.334 332.916 128.5Z" fill="#D78E4A"/>
<path d="M343.521 115.887C343.823 114.856 341.586 112.821 340.782 108.423L326.458 114.53L327.866 119.782C330.982 122.571 337.289 122.822 339.274 121.842C341.26 120.862 342.139 118.651 342.466 116.766C342.901 116.699 343.269 116.749 343.521 115.887Z" fill="#DF9149"/>
<path d="M330.806 101.411C340.682 102.215 342.139 106.487 341.084 108.598C340.138 110.49 336.792 114.253 333.268 114.253C329.097 114.253 327.744 114.378 327.489 116.363C327.233 118.349 330.479 119.178 330.956 120.359C331.338 121.304 331.116 123.081 330.956 124.179C320.653 124.38 314.295 120.912 312.21 118.6C312.737 110.709 318.148 113.223 321.684 106.89C324.574 101.713 328.892 101.255 330.806 101.411Z" fill="black"/>
<path d="M362.107 156.234L359.207 162.816C358.348 164.764 359.166 167.043 361.067 168.001L361.836 168.389C363.905 169.431 366.424 168.504 367.323 166.369L370.132 159.699C370.979 157.686 370.056 155.366 368.058 154.486L367.38 154.187C365.359 153.297 362.998 154.213 362.107 156.234Z" fill="black"/>
<path d="M332.758 278.677V270.434L339.191 269.228C339.124 270.032 339.03 271.962 339.191 273.249C339.392 274.857 351.454 278.677 349.846 280.486C348.559 281.934 337.918 279.883 332.758 278.677Z" fill="#0C4779"/>
<path d="M310.484 279.001V270.476L317.969 269.228C317.9 270.06 317.803 272.056 317.969 273.387C318.177 275.05 331.743 277.775 328.989 280.872C327.659 282.369 315.821 280.248 310.484 279.001Z" fill="#0C4779"/>
<path d="M355.156 166.194C353.186 166.315 346.227 164.636 342.994 163.782V172.577C345.775 171.84 351.749 170.366 353.397 170.366C355.458 170.366 358.524 171.773 360.182 172.226C361.841 172.678 364.756 171.823 367.018 170.366C369.279 168.908 370.267 163.411 369.342 162.362C368.417 161.314 366.565 162.542 365.51 163.028C365.443 162.793 365.32 161.932 364.341 161.885C362.532 161.797 357.619 166.044 355.156 166.194Z" fill="#DF9149"/>
<path d="M340.883 222.686C340.802 217.057 339.107 202.716 338.269 196.25L326.71 208.815C326.207 214.846 324.096 228.376 323.694 240.679C323.292 252.983 328.82 262.391 330.429 271.739H340.883C341.117 257.734 340.963 228.315 340.883 222.686Z" fill="black"/>
<path d="M312.832 191.677C311.424 187.706 310.425 181.524 311.632 174.236H336.359C338.068 187.203 340.179 211.73 338.772 219.168C337.65 225.094 325.503 258.17 318.266 271.136H308.717L308.695 270.816C308.195 263.319 307.546 253.591 309.394 243.239C310.055 239.537 315.394 227.739 316.394 224.739C317.394 221.739 318.969 214.552 318.969 211.127C318.969 204.913 314.078 195.192 312.832 191.677Z" fill="#262222"/>
<path d="M334.5 114.831L343.044 113.825C343.848 114.479 344.351 115.836 343.747 117.645C343.25 119.139 341.448 121.993 338.897 121.993C337.54 121.993 335.538 121.063 334.5 120.46V114.831Z" fill="#0C4779"/>
<path d="M339.475 162.277C337.063 157.854 333.896 142.022 333.293 129.055C329.844 129.302 328.563 128.711 325.629 126.191C321.732 130.108 315.652 135.941 310.978 145.591C306.797 154.223 306.622 168.978 307.711 175.646C310.928 176.892 316.607 175.646 318.216 174.44C329.474 177.154 335.605 175.646 345.356 172.027L345.054 164.338L339.475 162.277Z" fill="#CEECF2"/>
<path d="M334.751 115.008C329.65 114.606 328.534 113.833 327.715 115.159C326.131 117.722 329.398 120.386 334.751 120.386" stroke="#F5F5F5"/>
<path d="M329.624 145.288C329.289 148.705 329.001 156.144 330.529 158.556C332.057 160.969 337.063 162.242 339.375 162.577" stroke="#0084FF"/>
<path d="M318.266 174.537C316.456 172.895 312.918 168.144 313.24 162.274" stroke="#0084FF"/>
<path d="M564.029 134.774L561.933 72.6311H607.699L610.144 134.774H564.029Z" fill="#FCFCFC"/>
<path d="M565.64 132.499L563.698 74.9062H606.112L608.379 132.499H565.64Z" fill="#F5F5F5"/>
<path d="M577.148 86.4312H580.39L580.351 87.0757H577.363V89.3218H580.488V89.9663H577.323V92.7593H576.601V86.7827L577.148 86.4312Z" fill="#3A3A3A"/>
<path d="M584.667 89.8491L585.292 92.5054L584.706 92.7202L584.355 91.0601C584.309 91.2424 584.238 91.4312 584.14 91.6265C584.049 91.8218 583.932 92.0008 583.788 92.1636C583.652 92.3198 583.486 92.45 583.29 92.5542C583.101 92.6519 582.887 92.7007 582.646 92.7007C582.216 92.7007 581.887 92.564 581.659 92.2905C581.438 92.0106 581.327 91.6265 581.327 91.1382C581.327 90.8582 581.37 90.5685 581.454 90.269C581.539 89.9631 581.666 89.6864 581.835 89.439C582.004 89.1916 582.216 88.9865 582.47 88.8237C582.73 88.661 583.033 88.5796 583.378 88.5796C583.58 88.5796 583.756 88.6252 583.906 88.7163C584.062 88.8009 584.192 88.9084 584.296 89.0386C584.4 89.1688 584.482 89.3088 584.54 89.4585C584.599 89.6017 584.641 89.7319 584.667 89.8491ZM583.476 89.2827C583.43 89.2697 583.385 89.2599 583.339 89.2534C583.3 89.2469 583.258 89.2437 583.212 89.2437C583.01 89.2437 582.828 89.3055 582.665 89.4292C582.509 89.5464 582.376 89.6961 582.265 89.8784C582.161 90.0607 582.079 90.2593 582.021 90.4741C581.969 90.689 581.943 90.8875 581.943 91.0698C581.943 91.3563 582.004 91.5874 582.128 91.7632C582.252 91.939 582.447 92.0269 582.714 92.0269C582.896 92.0269 583.066 91.9683 583.222 91.8511C583.378 91.7274 583.512 91.5744 583.622 91.3921C583.733 91.2098 583.818 91.0112 583.876 90.7964C583.941 90.575 583.974 90.37 583.974 90.1812C583.974 89.9728 583.932 89.7905 583.847 89.6343C583.769 89.4715 583.645 89.3543 583.476 89.2827Z" fill="#3A3A3A"/>
<path d="M589.335 89.1655L589.159 89.7905C588.971 89.6213 588.769 89.4976 588.554 89.4194C588.339 89.3348 588.128 89.2925 587.919 89.2925C587.743 89.2925 587.574 89.325 587.411 89.3901C587.255 89.4487 587.118 89.5399 587.001 89.6636C586.884 89.7873 586.79 89.9403 586.718 90.1226C586.653 90.3049 586.62 90.5132 586.62 90.7476C586.62 91.0275 586.656 91.2619 586.728 91.4507C586.806 91.6395 586.907 91.7925 587.031 91.9097C587.154 92.0269 587.294 92.1115 587.45 92.1636C587.613 92.2157 587.779 92.2417 587.948 92.2417C588.098 92.2352 588.245 92.2059 588.388 92.1538C588.538 92.0952 588.671 92.0171 588.788 91.9194C588.906 91.8153 589.003 91.6948 589.081 91.5581C589.159 91.4149 589.205 91.2554 589.218 91.0796L589.765 91.353C589.752 91.6134 589.69 91.8413 589.579 92.0366C589.475 92.2319 589.338 92.3947 589.169 92.5249C589.006 92.6551 588.818 92.7528 588.603 92.8179C588.388 92.883 588.167 92.9155 587.939 92.9155C587.698 92.9155 587.46 92.87 587.226 92.7788C586.991 92.6942 586.783 92.564 586.601 92.3882C586.419 92.2124 586.272 91.991 586.161 91.7241C586.051 91.4507 585.995 91.1317 585.995 90.7671C585.995 90.4611 586.041 90.1812 586.132 89.9272C586.223 89.6668 586.35 89.4455 586.513 89.2632C586.676 89.0744 586.868 88.9279 587.089 88.8237C587.317 88.7196 587.564 88.6675 587.831 88.6675C588.059 88.6675 588.297 88.7098 588.544 88.7944C588.798 88.8726 589.062 88.9963 589.335 89.1655Z" fill="#3A3A3A"/>
<path d="M590.312 90.728C590.312 90.37 590.364 90.0705 590.468 89.8296C590.572 89.5822 590.702 89.3869 590.859 89.2437C591.021 89.0939 591.2 88.9897 591.396 88.9312C591.591 88.866 591.78 88.8335 591.962 88.8335C592.223 88.8335 592.457 88.8726 592.665 88.9507C592.874 89.0223 593.049 89.146 593.193 89.3218C593.342 89.491 593.456 89.7189 593.534 90.0054C593.613 90.2918 593.652 90.6434 593.652 91.0601L590.937 91.3237C590.956 91.506 591.005 91.6623 591.083 91.7925C591.168 91.9162 591.272 92.0171 591.396 92.0952C591.519 92.1733 591.653 92.2287 591.796 92.2612C591.939 92.2938 592.086 92.3101 592.236 92.3101C592.483 92.3101 592.721 92.2743 592.948 92.2026C593.176 92.131 593.346 92.0431 593.456 91.939L593.632 92.4077C593.587 92.4728 593.518 92.5379 593.427 92.603C593.336 92.6681 593.228 92.7235 593.105 92.769C592.981 92.8211 592.841 92.8602 592.685 92.8862C592.535 92.9188 592.379 92.9351 592.216 92.9351C591.988 92.9351 591.76 92.8993 591.532 92.8276C591.305 92.756 591.1 92.6356 590.917 92.4663C590.735 92.297 590.588 92.0724 590.478 91.7925C590.367 91.506 590.312 91.1512 590.312 90.728ZM590.878 90.7476L593.027 90.5132C593.027 90.1942 592.942 89.9403 592.773 89.7515C592.603 89.5562 592.33 89.4585 591.952 89.4585C591.77 89.465 591.611 89.5041 591.474 89.5757C591.344 89.6473 591.233 89.7384 591.142 89.8491C591.051 89.9533 590.982 90.0737 590.937 90.2104C590.891 90.3472 590.868 90.4871 590.868 90.6304C590.868 90.6825 590.872 90.7215 590.878 90.7476Z" fill="#3A3A3A"/>
<path d="M573.857 95.3296L573.427 95.603C573.323 95.4533 573.167 95.3198 572.958 95.2026C572.75 95.0854 572.529 95.0269 572.294 95.0269C572.021 95.0269 571.767 95.0952 571.532 95.2319C571.305 95.3621 571.103 95.5509 570.927 95.7983C570.758 96.0457 570.624 96.342 570.527 96.687C570.429 97.0321 570.38 97.4129 570.38 97.8296C570.387 98.1942 570.452 98.5229 570.575 98.8159C570.706 99.1089 570.872 99.3595 571.073 99.5679C571.275 99.7697 571.5 99.9259 571.747 100.037C571.995 100.147 572.242 100.203 572.49 100.203C572.815 100.203 573.108 100.131 573.368 99.9878C573.629 99.8381 573.863 99.6004 574.072 99.2749L574.462 99.8413C574.169 100.193 573.853 100.45 573.515 100.613C573.176 100.776 572.818 100.857 572.441 100.857C572.096 100.857 571.76 100.779 571.435 100.623C571.109 100.466 570.82 100.248 570.566 99.9683C570.312 99.6818 570.107 99.34 569.95 98.9429C569.801 98.5392 569.726 98.0933 569.726 97.605C569.726 97.2339 569.775 96.8595 569.872 96.4819C569.97 96.1043 570.12 95.7625 570.322 95.4565C570.53 95.1506 570.794 94.9032 571.113 94.7144C571.438 94.519 571.825 94.4214 572.275 94.4214C572.613 94.4214 572.929 94.4897 573.222 94.6265C573.515 94.7632 573.726 94.9976 573.857 95.3296Z" fill="#3A3A3A"/>
<path d="M576.65 97.3022C576.292 97.3022 576.008 97.4129 575.8 97.6343C575.598 97.8556 575.497 98.2104 575.497 98.6987C575.497 98.8875 575.523 99.0763 575.575 99.2651C575.628 99.4474 575.702 99.6134 575.8 99.7632C575.898 99.9129 576.015 100.037 576.152 100.134C576.288 100.225 576.441 100.271 576.611 100.271C576.786 100.271 576.946 100.229 577.089 100.144C577.232 100.059 577.353 99.952 577.45 99.8218C577.548 99.6851 577.623 99.5353 577.675 99.3726C577.734 99.2033 577.763 99.0405 577.763 98.8843C577.763 98.3114 577.659 97.9045 577.45 97.6636C577.249 97.4227 576.982 97.3022 576.65 97.3022ZM576.591 96.6382C576.917 96.6382 577.193 96.6968 577.421 96.814C577.649 96.9312 577.835 97.0939 577.978 97.3022C578.121 97.5041 578.225 97.7417 578.29 98.0151C578.355 98.2821 578.388 98.5718 578.388 98.8843C578.375 99.2358 578.316 99.5418 578.212 99.8022C578.115 100.056 577.984 100.268 577.822 100.437C577.659 100.606 577.473 100.73 577.265 100.808C577.063 100.893 576.851 100.935 576.63 100.935C576.337 100.935 576.08 100.876 575.859 100.759C575.644 100.642 575.462 100.486 575.312 100.291C575.169 100.089 575.058 99.8608 574.98 99.6069C574.908 99.3465 574.872 99.0731 574.872 98.7866C574.872 98.4806 574.911 98.1974 574.99 97.937C575.074 97.6701 575.188 97.4422 575.331 97.2534C575.481 97.0581 575.66 96.9084 575.868 96.8042C576.083 96.6935 576.324 96.6382 576.591 96.6382Z" fill="#3A3A3A"/>
<path d="M580.009 100.818L578.837 96.7358H579.521L580.4 99.8804L581.923 96.6577L582.548 96.7944L580.693 100.818H580.009Z" fill="#3A3A3A"/>
<path d="M583.115 98.728C583.115 98.37 583.167 98.0705 583.271 97.8296C583.375 97.5822 583.505 97.3869 583.661 97.2437C583.824 97.0939 584.003 96.9897 584.198 96.9312C584.394 96.866 584.583 96.8335 584.765 96.8335C585.025 96.8335 585.26 96.8726 585.468 96.9507C585.676 97.0223 585.852 97.146 585.995 97.3218C586.145 97.491 586.259 97.7189 586.337 98.0054C586.415 98.2918 586.454 98.6434 586.454 99.0601L583.74 99.3237C583.759 99.506 583.808 99.6623 583.886 99.7925C583.971 99.9162 584.075 100.017 584.198 100.095C584.322 100.173 584.456 100.229 584.599 100.261C584.742 100.294 584.889 100.31 585.038 100.31C585.286 100.31 585.523 100.274 585.751 100.203C585.979 100.131 586.148 100.043 586.259 99.939L586.435 100.408C586.389 100.473 586.321 100.538 586.23 100.603C586.139 100.668 586.031 100.723 585.907 100.769C585.784 100.821 585.644 100.86 585.488 100.886C585.338 100.919 585.182 100.935 585.019 100.935C584.791 100.935 584.563 100.899 584.335 100.828C584.107 100.756 583.902 100.636 583.72 100.466C583.538 100.297 583.391 100.072 583.281 99.7925C583.17 99.506 583.115 99.1512 583.115 98.728ZM583.681 98.7476L585.829 98.5132C585.829 98.1942 585.745 97.9403 585.575 97.7515C585.406 97.5562 585.133 97.4585 584.755 97.4585C584.573 97.465 584.413 97.5041 584.277 97.5757C584.146 97.6473 584.036 97.7384 583.945 97.8491C583.853 97.9533 583.785 98.0737 583.74 98.2104C583.694 98.3472 583.671 98.4871 583.671 98.6304C583.671 98.6825 583.674 98.7215 583.681 98.7476Z" fill="#3A3A3A"/>
<path d="M587.548 100.955L587.216 96.6577L587.822 96.5796L587.958 98.4741L590.048 97.0679L590.322 97.6147L588.056 99.2554V100.896L587.548 100.955Z" fill="#3A3A3A"/>
<path d="M591.005 100.759V97.1851H591.689V100.798L591.005 100.759ZM591.904 96.3843L591.22 96.5796L590.595 95.0952L591.279 94.9194L591.904 96.3843Z" fill="#3A3A3A"/>
<path d="M595.204 97.5562H593.31V100.681L592.822 100.74V96.5405L593.29 96.4429V96.9312L595.556 96.7944L595.849 97.3804L596.142 100.564L595.517 100.74L595.204 97.5562Z" fill="#3A3A3A"/>
<path d="M597.206 99.2358C597.252 99.4377 597.34 99.5809 597.47 99.6655C597.6 99.7502 597.747 99.7925 597.909 99.7925C598.085 99.7925 598.271 99.7502 598.466 99.6655C598.668 99.5809 598.853 99.4702 599.023 99.3335C599.192 99.1903 599.332 99.0275 599.443 98.8452C599.56 98.6629 599.618 98.4741 599.618 98.2788C599.618 98.0444 599.544 97.8491 599.394 97.6929C599.251 97.5366 599.068 97.4585 598.847 97.4585C598.671 97.465 598.486 97.5106 598.29 97.5952C598.095 97.6733 597.913 97.7808 597.743 97.9175C597.581 98.0542 597.444 98.2137 597.333 98.396C597.223 98.5718 597.167 98.7638 597.167 98.9722C597.167 99.0698 597.18 99.1577 597.206 99.2358ZM599.531 102.576H596.523V101.814H599.179L599.589 101.462L599.55 99.7241C599.381 99.9585 599.146 100.141 598.847 100.271C598.547 100.395 598.241 100.457 597.929 100.457C597.525 100.457 597.19 100.33 596.923 100.076C596.663 99.8153 596.532 99.4377 596.532 98.9429C596.532 98.6434 596.598 98.3667 596.728 98.1128C596.865 97.8524 597.044 97.631 597.265 97.4487C597.486 97.2599 597.734 97.1134 598.007 97.0093C598.287 96.9051 598.573 96.853 598.866 96.853C599.179 96.853 599.459 96.9312 599.706 97.0874C599.96 97.2371 600.129 97.478 600.214 97.8101V101.833L599.531 102.576Z" fill="#3A3A3A"/>
<path d="M571.073 106.044V109.326H570.351V103.095L570.82 102.666C570.969 102.646 571.119 102.63 571.269 102.617C571.425 102.604 571.578 102.597 571.728 102.597C572.079 102.597 572.421 102.633 572.753 102.705C573.085 102.77 573.381 102.877 573.642 103.027C573.902 103.17 574.111 103.356 574.267 103.583C574.43 103.811 574.511 104.088 574.511 104.414C574.511 104.707 574.459 104.954 574.355 105.156C574.251 105.358 574.111 105.527 573.935 105.664C573.759 105.794 573.56 105.895 573.339 105.966C573.118 106.031 572.89 106.077 572.656 106.103L574.198 108.564L573.691 108.916L571.972 106.142C571.816 106.142 571.663 106.139 571.513 106.132C571.363 106.126 571.217 106.097 571.073 106.044ZM571.113 105.458C571.366 105.53 571.659 105.566 571.991 105.566C572.206 105.566 572.424 105.55 572.646 105.517C572.867 105.478 573.066 105.416 573.241 105.332C573.424 105.24 573.57 105.12 573.681 104.97C573.792 104.82 573.847 104.635 573.847 104.414C573.847 104.225 573.798 104.056 573.7 103.906C573.603 103.756 573.466 103.632 573.29 103.535C573.121 103.431 572.919 103.352 572.685 103.3C572.457 103.242 572.21 103.212 571.943 103.212C571.819 103.212 571.695 103.219 571.572 103.232C571.448 103.245 571.321 103.264 571.191 103.291C571.158 103.636 571.135 104 571.122 104.384C571.116 104.768 571.113 105.126 571.113 105.458Z" fill="#3A3A3A"/>
<path d="M575.195 106.728C575.195 106.37 575.247 106.07 575.351 105.83C575.455 105.582 575.585 105.387 575.741 105.244C575.904 105.094 576.083 104.99 576.279 104.931C576.474 104.866 576.663 104.833 576.845 104.833C577.105 104.833 577.34 104.873 577.548 104.951C577.756 105.022 577.932 105.146 578.075 105.322C578.225 105.491 578.339 105.719 578.417 106.005C578.495 106.292 578.534 106.643 578.534 107.06L575.82 107.324C575.839 107.506 575.888 107.662 575.966 107.792C576.051 107.916 576.155 108.017 576.279 108.095C576.402 108.173 576.536 108.229 576.679 108.261C576.822 108.294 576.969 108.31 577.118 108.31C577.366 108.31 577.603 108.274 577.831 108.203C578.059 108.131 578.228 108.043 578.339 107.939L578.515 108.408C578.469 108.473 578.401 108.538 578.31 108.603C578.219 108.668 578.111 108.723 577.988 108.769C577.864 108.821 577.724 108.86 577.568 108.886C577.418 108.919 577.262 108.935 577.099 108.935C576.871 108.935 576.643 108.899 576.415 108.828C576.187 108.756 575.982 108.636 575.8 108.466C575.618 108.297 575.471 108.072 575.361 107.792C575.25 107.506 575.195 107.151 575.195 106.728ZM575.761 106.748L577.909 106.513C577.909 106.194 577.825 105.94 577.656 105.751C577.486 105.556 577.213 105.458 576.835 105.458C576.653 105.465 576.493 105.504 576.357 105.576C576.226 105.647 576.116 105.738 576.025 105.849C575.934 105.953 575.865 106.074 575.82 106.21C575.774 106.347 575.751 106.487 575.751 106.63C575.751 106.682 575.754 106.722 575.761 106.748Z" fill="#3A3A3A"/>
<path d="M579.023 106.435C579.049 105.823 579.234 105.361 579.579 105.048C579.924 104.736 580.387 104.58 580.966 104.58C581.155 104.58 581.347 104.596 581.542 104.628C581.744 104.661 581.959 104.71 582.187 104.775L582.48 105.244V110.556L581.64 110.498L581.718 108.31C581.627 108.382 581.493 108.444 581.318 108.496C581.142 108.548 580.95 108.574 580.741 108.574C580.546 108.574 580.344 108.544 580.136 108.486C579.934 108.421 579.749 108.313 579.579 108.164C579.417 108.014 579.28 107.819 579.169 107.578C579.065 107.33 579.013 107.024 579.013 106.66C579.013 106.627 579.013 106.591 579.013 106.552C579.019 106.513 579.023 106.474 579.023 106.435ZM581.777 107.451L581.816 105.419C581.698 105.341 581.572 105.283 581.435 105.244C581.298 105.205 581.161 105.185 581.025 105.185C580.849 105.185 580.68 105.214 580.517 105.273C580.361 105.325 580.221 105.406 580.097 105.517C579.973 105.621 579.872 105.751 579.794 105.908C579.723 106.064 579.687 106.246 579.687 106.455C579.687 106.741 579.719 106.975 579.784 107.158C579.856 107.34 579.947 107.486 580.058 107.597C580.169 107.701 580.292 107.776 580.429 107.822C580.572 107.861 580.719 107.88 580.868 107.88C580.986 107.88 581.096 107.867 581.2 107.841C581.311 107.815 581.409 107.783 581.493 107.744C581.578 107.698 581.646 107.649 581.698 107.597C581.751 107.545 581.777 107.496 581.777 107.451Z" fill="#3A3A3A"/>
<path d="M583.3 104.638L583.847 104.775C583.788 105.107 583.74 105.426 583.7 105.732C583.668 106.038 583.652 106.324 583.652 106.591C583.652 106.839 583.665 107.06 583.691 107.255C583.723 107.451 583.775 107.62 583.847 107.763C583.919 107.906 584.013 108.017 584.13 108.095C584.254 108.167 584.407 108.203 584.589 108.203C584.713 108.203 584.83 108.17 584.941 108.105C585.058 108.033 585.162 107.919 585.253 107.763C585.351 107.607 585.429 107.402 585.488 107.148C585.546 106.888 585.585 106.565 585.605 106.181L585.644 104.794L586.191 104.833V108.681L585.702 108.74L585.683 107.998C585.598 108.297 585.445 108.525 585.224 108.681C585.003 108.831 584.745 108.906 584.452 108.906C584.212 108.906 584.003 108.85 583.827 108.74C583.652 108.636 583.505 108.489 583.388 108.3C583.277 108.111 583.193 107.884 583.134 107.617C583.082 107.35 583.056 107.057 583.056 106.738C583.056 106.445 583.075 106.126 583.115 105.781C583.16 105.429 583.222 105.048 583.3 104.638Z" fill="#3A3A3A"/>
<path d="M587.187 108.759V105.185H587.87V108.798L587.187 108.759ZM588.085 104.384L587.402 104.58L586.777 103.095L587.46 102.919L588.085 104.384Z" fill="#3A3A3A"/>
<path d="M589.198 108.955L588.866 104.658L589.472 104.58L589.609 106.474L591.698 105.068L591.972 105.615L589.706 107.255V108.896L589.198 108.955Z" fill="#3A3A3A"/>
<path d="M592.402 106.728C592.402 106.37 592.454 106.07 592.558 105.83C592.662 105.582 592.792 105.387 592.948 105.244C593.111 105.094 593.29 104.99 593.486 104.931C593.681 104.866 593.87 104.833 594.052 104.833C594.312 104.833 594.547 104.873 594.755 104.951C594.963 105.022 595.139 105.146 595.282 105.322C595.432 105.491 595.546 105.719 595.624 106.005C595.702 106.292 595.741 106.643 595.741 107.06L593.027 107.324C593.046 107.506 593.095 107.662 593.173 107.792C593.258 107.916 593.362 108.017 593.486 108.095C593.609 108.173 593.743 108.229 593.886 108.261C594.029 108.294 594.176 108.31 594.325 108.31C594.573 108.31 594.81 108.274 595.038 108.203C595.266 108.131 595.435 108.043 595.546 107.939L595.722 108.408C595.676 108.473 595.608 108.538 595.517 108.603C595.426 108.668 595.318 108.723 595.195 108.769C595.071 108.821 594.931 108.86 594.775 108.886C594.625 108.919 594.469 108.935 594.306 108.935C594.078 108.935 593.85 108.899 593.622 108.828C593.394 108.756 593.189 108.636 593.007 108.466C592.825 108.297 592.678 108.072 592.568 107.792C592.457 107.506 592.402 107.151 592.402 106.728ZM592.968 106.748L595.116 106.513C595.116 106.194 595.032 105.94 594.863 105.751C594.693 105.556 594.42 105.458 594.042 105.458C593.86 105.465 593.7 105.504 593.564 105.576C593.434 105.647 593.323 105.738 593.232 105.849C593.141 105.953 593.072 106.074 593.027 106.21C592.981 106.347 592.958 106.487 592.958 106.63C592.958 106.682 592.962 106.722 592.968 106.748Z" fill="#3A3A3A"/>
<path d="M599.765 102.08V108.369L599.511 108.681C599.296 108.746 599.094 108.792 598.906 108.818C598.717 108.844 598.538 108.857 598.368 108.857C597.971 108.857 597.636 108.795 597.363 108.671C597.096 108.548 596.878 108.385 596.708 108.183C596.539 107.981 596.415 107.757 596.337 107.509C596.266 107.262 596.23 107.011 596.23 106.757C596.23 106.399 596.285 106.097 596.396 105.849C596.506 105.595 596.65 105.387 596.825 105.224C597.008 105.061 597.21 104.944 597.431 104.873C597.659 104.794 597.89 104.755 598.124 104.755C598.508 104.755 598.853 104.84 599.159 105.009L599.14 102.06L599.765 102.08ZM599.12 105.869C598.971 105.732 598.808 105.631 598.632 105.566C598.456 105.494 598.277 105.458 598.095 105.458C597.939 105.458 597.786 105.488 597.636 105.546C597.493 105.598 597.366 105.68 597.255 105.791C597.144 105.895 597.053 106.028 596.982 106.191C596.917 106.347 596.884 106.533 596.884 106.748C596.884 106.995 596.926 107.207 597.011 107.382C597.096 107.558 597.206 107.701 597.343 107.812C597.486 107.923 597.649 108.007 597.831 108.066C598.02 108.118 598.215 108.144 598.417 108.144C598.678 108.144 598.912 108.095 599.12 107.998V105.869Z" fill="#3A3A3A"/>
<path d="M579.856 117.772C579.856 117.772 581.408 117.824 583.413 117.462C584.237 117.314 585.138 116.535 586.038 116.535C586.939 116.535 587.839 117.314 588.663 117.462C590.668 117.824 592.22 117.772 592.22 117.772V123.954C592.22 123.954 589.129 127.045 586.038 127.045C582.947 127.045 579.856 123.954 579.856 123.954V117.772Z" stroke="#0C4779" stroke-width="0.75" stroke-linecap="square" stroke-linejoin="round"/>
<path d="M581.711 119.91H590.057" stroke="#0C4779" stroke-width="0.75" stroke-linecap="round"/>
<path d="M581.711 122.119H590.057" stroke="#0C4779" stroke-width="0.75" stroke-linecap="round"/>
<path d="M583.72 124.327H588.048" stroke="#0C4779" stroke-width="0.75" stroke-linecap="round"/>
<path d="M579.856 118.081C579.238 117.875 577.939 117.648 577.692 118.39C577.383 119.317 578.62 123.336 579.856 123.336" stroke="#0C4779" stroke-width="0.75"/>
<path d="M592.221 118.081C592.839 117.875 594.137 117.648 594.384 118.39C594.693 119.317 593.457 123.336 592.221 123.336" stroke="#0C4779" stroke-width="0.75"/>
<path d="M594.432 128.011C596.467 128.011 598.117 126.362 598.117 124.327C598.117 122.292 596.467 120.642 594.432 120.642C592.397 120.642 590.748 122.292 590.748 124.327C590.748 126.362 592.397 128.011 594.432 128.011Z" fill="#6DB46C" stroke="#F5F5F5" stroke-width="0.5" stroke-miterlimit="10"/>
<path d="M595.919 123.386L594.039 125.267L592.945 124.174" stroke="#FCFCFC" stroke-width="0.75" stroke-miterlimit="10" stroke-linecap="round"/>
<path d="M191.052 274.093V267.351L183.567 266.104C183.636 266.935 183.733 268.932 183.567 270.262C183.359 271.926 171.715 277.425 175.452 279.218C181.25 282 191.052 276.25 191.052 274.093Z" fill="#EEEEEE"/>
<path d="M207.074 276.875L207.074 267.362L199.014 266.104C199.084 266.935 199.181 270.586 199.014 271.916C198.806 273.58 193.038 277.645 196.327 280.166C199.589 282.666 207.074 276.875 207.074 276.875Z" fill="#EEEEEE"/>
<path d="M207.074 272.312L207.074 267.362L199.014 266.104C199.084 266.935 199.014 271.916 199.014 271.916C199.014 271.916 202 272.688 204.125 272.75C206.25 272.812 207.074 272.312 207.074 272.312Z" fill="#222222"/>
<path d="M191.052 271.719L191.052 267.362L183.576 266.104C183.641 266.935 183.811 269.044 183.656 270.375C183.463 272.038 191.052 271.719 191.052 271.719Z" fill="#222222"/>
<path d="M168.696 229.768C165.796 216.635 164.779 193.72 165.196 184.781L188.696 190.044L195.696 268.615H180.696C177.904 261.138 171.596 242.901 168.696 229.768Z" fill="#005083"/>
<path d="M196.393 204.031C195.858 200.572 193.268 193.281 191.768 190.781L170.018 185.906C169.268 190.406 176.893 207.968 177.768 210.968C178.643 213.968 180.143 218.781 181.143 229.531C181.943 238.131 191.351 259.197 195.393 268.656H210.518C210.143 261.781 207.057 239.773 201.08 230.468C195.58 221.906 197.455 210.906 196.393 204.031Z" fill="#005B94"/>
<path d="M166.643 144.968L163.705 137.531C158.893 140.468 151.33 151.531 155.268 153.968C159.205 156.406 167.205 152.781 168.643 152.781C169.793 152.781 172.038 153.197 173.018 153.406C169.718 156.106 163.059 174.947 160.143 184.031C165.843 194.231 185.768 194.614 195.018 193.531C193.726 190.489 191.143 184.143 191.143 183.093C191.143 181.781 192.393 181.531 192.893 180.531C193.393 179.531 192.236 177.374 192.424 176.249C192.574 175.349 198.393 168.156 200.393 163.281C202.476 163.947 206.78 165.468 207.33 166.218C208.018 167.156 219.08 176.843 222.893 173.093C226.705 169.343 221.268 162.218 219.768 161.218C218.268 160.218 219.08 155.093 216.33 153.968C214.13 153.068 201.622 149.051 195.643 147.156C195.038 147.551 193.355 148.368 191.455 148.468C189.08 148.593 179.33 143.906 175.643 143.843C172.693 143.793 168.413 144.572 166.643 144.968Z" fill="#ECECEC"/>
<path d="M181.643 126.718C181.468 128.633 182.151 130.772 183.015 131.563L192.015 136.063C193.151 139.199 195.187 145.109 195.672 146.407C196.011 147.316 199.366 147.525 200.864 146.218C202.333 144.937 202.489 142.531 202.489 142.531C202.489 142.531 206.231 140.564 206.583 136.656C206.932 132.781 204.427 130.999 204.427 130.999C204.427 130.999 204.614 127.972 202.083 125.655C200.239 123.968 197.083 124.405 197.083 124.405C197.083 124.405 195.958 122.53 195.021 121.999C194.221 121.547 191.458 120.093 187.896 122C183.833 121.156 181.861 124.326 181.643 126.718Z" fill="black"/>
<path d="M181.145 143.093C179.083 136.218 181.828 132.468 183.078 131.156C191.172 130.14 194.515 136.473 195.328 139.578C195.453 138.411 197.094 137.531 198.39 138.484C200.589 140.099 198.156 144.297 195.703 145.718L195.328 147.468C194.453 148.114 192.728 148.331 191.328 148.531C189.578 148.781 183.208 149.968 181.145 143.093Z" fill="#B35E3A"/>
<path d="M186.684 139.313C183.534 138.513 176.888 135.031 174.341 133.328L174.247 134.141L179.153 137.016L176.778 143.953C175.841 142.86 175.028 141.719 174.247 140.438L173.966 140.844C174.809 143.422 179.044 149 183.169 150C187.577 151.069 194.778 151.042 198.153 150.938L197.997 150C196.106 150.25 194.044 150 192.466 149.688C193.044 146.469 193.919 144.297 194.997 142.438L198.997 143.563L199.247 142.938C196.247 142.016 189.834 140.113 186.684 139.313Z" fill="#0BC9D6"/>
<path d="M206.221 152.047C206.446 152.497 208.653 158.229 209.559 161.063L216.059 153.844C212.737 150.115 205.991 142.6 205.591 142.375C205.091 142.094 203.934 142.281 203.091 142.125C202.247 141.969 199.966 141.563 199.403 142.125C198.841 142.688 196.278 147.688 196.434 148.844C196.591 150 197.361 150.969 197.83 151.313C198.13 151.533 201.018 153.766 201.705 152.906C202.111 152.235 201.449 151.847 201.596 151.781C202.018 151.594 202.721 152.125 203.486 151.781C204.174 151.156 202.94 150.328 203.888 150.453C204.948 150.593 205.849 151.303 206.221 152.047Z" fill="#B25E3A"/>
<path d="M169.049 133.961C167.894 134.641 164.757 136.888 163.591 137.898L165.153 144.242C165.674 143.627 166.722 142.548 167.372 142.273C168.559 141.771 170.724 142.052 172.424 141.781C173.799 141.563 175.095 140.544 175.268 139.899C175.768 138.024 174.89 135.212 174.166 134.883C173.442 134.554 175.988 133.309 174.502 132.547C173.768 132.171 170.096 133.344 169.049 133.961Z" fill="#B25E3A"/>
<path d="M165.81 144.298C165.81 146.906 164.577 151.093 162.702 152.343" stroke="#0084FF"/>
<path d="M196.827 157.468C196.827 159.968 198.889 162.718 200.639 163.468" stroke="#0084FF"/>
<path d="M440 38.4512H454.604L449.094 56.9508C448.21 59.9175 445.482 61.9512 442.387 61.9512C437.705 61.9512 434.343 57.4424 435.68 52.9551L440 38.4512Z" fill="white"/>
<path d="M454.572 38.4512H469.176L463.666 56.9508C462.782 59.9175 460.054 61.9512 456.959 61.9512C452.277 61.9512 448.915 57.4424 450.252 52.9551L454.572 38.4512Z" fill="#FF414B"/>
<path d="M469.144 38.4512H483.748L478.238 56.9508C477.354 59.9175 474.626 61.9512 471.531 61.9512C466.849 61.9512 463.487 57.4424 464.824 52.9551L469.144 38.4512Z" fill="white"/>
<path d="M483.716 38.4512H498.32L492.81 56.9508C491.926 59.9175 489.198 61.9512 486.103 61.9512C481.421 61.9512 478.059 57.4424 479.396 52.9551L483.716 38.4512Z" fill="#FF414B"/>
<path d="M498.288 38.4512H512.892L507.382 56.9508C506.498 59.9175 503.771 61.9512 500.675 61.9512C495.993 61.9512 492.631 57.4424 493.968 52.9551L498.288 38.4512Z" fill="white"/>
<path d="M512.86 38.4512H527.465L521.954 56.9508C521.07 59.9175 518.343 61.9512 515.247 61.9512C510.565 61.9512 507.203 57.4424 508.54 52.9551L512.86 38.4512Z" fill="#FF414B"/>
<path d="M527.432 38.4512H542.037L536.526 56.9508C535.642 59.9175 532.915 61.9512 529.819 61.9512C525.137 61.9512 521.776 57.4424 523.112 52.9551L527.432 38.4512Z" fill="white"/>
<path d="M443.125 37.0381H545.037L542.037 38.4512H440.125L443.125 37.0381Z" fill="#FF414B"/>
</svg>
