<svg width="427" height="301" viewBox="0 0 427 301" fill="none" xmlns="http://www.w3.org/2000/svg">
<path opacity="0.08" d="M295.144 240.811C227.343 240.811 178.325 300.311 132.144 300.311C-15.4757 300.311 -21.8562 152.311 29.6437 102.811C74.9052 59.3068 144.94 92.7631 180.144 71.3108C216.905 48.9093 257.363 11.819 303.644 7.31113C380.644 -0.18887 426.144 47.3941 426.144 114.311C426.144 186.311 382.144 240.811 295.144 240.811Z" fill="#3C92F4"/>
<path d="M283.021 183.437L286.87 181.454" stroke="#FFDC5D" stroke-width="2" stroke-linecap="round" stroke-linejoin="round"/>
<path d="M261.613 179.698L276.451 182.982" stroke="#FFDC5D" stroke-width="2" stroke-linecap="round" stroke-linejoin="round"/>
<path d="M262.45 175.941L271.686 178.112M274.51 178.676L281.341 179.868L292.175 200.895" stroke="#FFDC5D" stroke-width="2" stroke-linecap="round" stroke-linejoin="round"/>
<path d="M296.376 161.787L290.438 175.776" stroke="#FFDC5D" stroke-width="2" stroke-linecap="round" stroke-linejoin="round"/>
<path d="M292.832 160.288L289.239 169.068M288.058 171.696L285.064 177.95L295.898 198.977" stroke="#FFDC5D" stroke-width="2" stroke-linecap="round" stroke-linejoin="round"/>
<path d="M119.587 83.1843L123.435 81.2014" stroke="#FFDC5D" stroke-width="2" stroke-linecap="round" stroke-linejoin="round"/>
<path d="M98.1788 79.4451L113.016 82.7288" stroke="#FFDC5D" stroke-width="2" stroke-linecap="round" stroke-linejoin="round"/>
<path d="M99.0154 75.6881L108.251 77.859M111.076 78.423L117.907 79.6154L128.74 100.642" stroke="#FFDC5D" stroke-width="2" stroke-linecap="round" stroke-linejoin="round"/>
<path d="M132.942 61.5345L127.003 75.5227" stroke="#FFDC5D" stroke-width="2" stroke-linecap="round" stroke-linejoin="round"/>
<path d="M129.397 60.0348L125.804 68.8153M124.624 71.4429L121.63 77.6974L132.463 98.724" stroke="#FFDC5D" stroke-width="2" stroke-linecap="round" stroke-linejoin="round"/>
<path d="M287.723 57.6567L291.715 58.4045" stroke="#FFDC5D" stroke-width="2" stroke-linecap="round" stroke-linejoin="round"/>
<path d="M274.022 42.5594L283.12 53.5357" stroke="#FFDC5D" stroke-width="2" stroke-linecap="round" stroke-linejoin="round"/>
<path d="M276.805 40.2587L282.394 47.1848M284.162 49.2291L288.534 54.0459L284.449 75.8566" stroke="#FFDC5D" stroke-width="2" stroke-linecap="round" stroke-linejoin="round"/>
<path d="M310.081 49.3135L297.628 56.2531" stroke="#FFDC5D" stroke-width="2" stroke-linecap="round" stroke-linejoin="round"/>
<path d="M308.32 46.1617L300.603 50.5954M298.215 51.8616L292.396 54.7695L288.311 76.5802" stroke="#FFDC5D" stroke-width="2" stroke-linecap="round" stroke-linejoin="round"/>
<path d="M166.343 178.117L174.13 119.071L212.417 119.794L212.416 119.795L212.414 119.796L209.152 144.536L205.891 169.277L204.07 183.092C202.696 193.509 193.138 200.842 182.72 199.468C172.301 198.095 164.969 188.535 166.343 178.117Z" fill="#FC9090"/>
<path d="M178.574 24.9193C178.026 24.8471 177.524 25.2325 177.451 25.78C177.379 26.3276 177.765 26.83 178.312 26.9022L178.574 24.9193ZM229.369 33.6348C229.916 33.707 230.419 33.3217 230.491 32.7742C230.563 32.2266 230.178 31.7242 229.63 31.652L229.369 33.6348ZM188.556 166.003L187.565 165.872C187.493 166.42 187.878 166.922 188.426 166.995L188.556 166.003ZM202.542 59.9401L202.673 58.9486C202.126 58.8764 201.623 59.2618 201.551 59.8093L202.542 59.9401ZM206.188 113.366C205.641 113.294 205.138 113.679 205.066 114.227C204.994 114.774 205.379 115.276 205.927 115.349L206.188 113.366ZM202.692 139.882C202.144 139.809 201.642 140.195 201.57 140.742C201.498 141.29 201.883 141.792 202.43 141.864L202.692 139.882ZM209.685 86.8501C209.137 86.7779 208.635 87.1632 208.563 87.7108C208.491 88.2583 208.876 88.7607 209.423 88.8329L209.685 86.8501ZM182.934 26.503L162.997 177.695L164.98 177.957L184.917 26.7645L182.934 26.503ZM224.49 30.9742L184.056 25.6423L183.795 27.6252L224.229 32.9571L224.49 30.9742ZM184.056 25.6423L178.574 24.9193L178.312 26.9022L183.795 27.6252L184.056 25.6423ZM224.229 32.9571L229.369 33.6348L229.63 31.652L224.49 30.9742L224.229 32.9571ZM205.414 183.289L207.366 168.483L205.383 168.222L203.431 183.027L205.414 183.289ZM206.505 167.361L188.687 165.012L188.426 166.995L206.244 169.344L206.505 167.361ZM189.548 166.134L203.534 60.0708L201.551 59.8093L187.565 165.872L189.548 166.134ZM221.352 62.4204L225.351 32.0964L223.368 31.8349L219.369 62.159L221.352 62.4204ZM202.412 60.9315L220.23 63.2811L220.492 61.2983L202.673 58.9486L202.412 60.9315ZM213.499 114.33L206.188 113.366L205.927 115.349L213.237 116.313L213.499 114.33ZM207.366 168.483L210.863 141.968L208.88 141.706L205.383 168.222L207.366 168.483ZM210.863 141.968L214.359 115.452L212.376 115.191L208.88 141.706L210.863 141.968ZM210.002 140.846L202.692 139.882L202.43 141.864L209.741 142.828L210.002 140.846ZM214.359 115.452L217.856 88.9362L215.873 88.6747L212.376 115.191L214.359 115.452ZM217.856 88.9362L221.352 62.4204L219.369 62.159L215.873 88.6747L217.856 88.9362ZM216.995 87.8141L209.685 86.8501L209.423 88.8329L216.734 89.7969L216.995 87.8141ZM181.409 201.7C193.122 203.245 203.869 195.002 205.414 183.289L203.431 183.027C202.031 193.645 192.288 201.118 181.67 199.718L181.409 201.7ZM162.997 177.695C161.452 189.408 169.696 200.156 181.409 201.7L181.67 199.718C171.052 198.317 163.58 188.575 164.98 177.957L162.997 177.695Z" fill="black"/>
<path d="M187.396 6.9269C187.829 3.64163 190.844 1.32958 194.129 1.7628L220.61 5.25478C223.896 5.688 226.208 8.70242 225.774 11.9877L223.274 30.9533L184.895 25.8925L187.396 6.9269Z" fill="black"/>
<path d="M80.6072 187.699L69.5217 189.983L69.7235 190.963L69.5217 189.983C67.6561 190.368 66.4553 192.192 66.8397 194.057C67.2241 195.923 69.0481 197.124 70.9137 196.739L80.4036 194.784L109.192 218.182C110.706 219.413 112.931 219.183 114.162 217.669C115.392 216.155 115.162 213.93 113.648 212.699L83.7738 188.418C83.0819 187.856 82.2392 187.598 81.4133 187.629C81.1474 187.621 80.8771 187.643 80.6072 187.699Z" fill="#3CDDD3" stroke="white" stroke-width="2" stroke-linejoin="round"/>
<path d="M61.6381 191.608L50.5525 193.892C48.6869 194.276 47.4862 196.1 47.8706 197.966C48.255 199.832 50.0789 201.032 51.9446 200.648L63.0301 198.364C64.8957 197.979 66.0965 196.155 65.7121 194.29C65.3277 192.424 63.5037 191.223 61.6381 191.608Z" fill="#3CDDD3" stroke="white" stroke-width="2"/>
<path d="M75.003 197.555L52.272 202.238C50.4064 202.623 49.2056 204.447 49.59 206.312C49.9744 208.178 51.7984 209.379 53.664 208.994L76.395 204.311C78.2606 203.926 79.4614 202.102 79.077 200.237C78.6926 198.371 76.8686 197.17 75.003 197.555Z" fill="#3CDDD3" stroke="white" stroke-width="2"/>
<path d="M84.1113 183.387L84.0814 172.069L85.0814 172.066L84.0814 172.069C84.0764 170.164 85.6165 168.616 87.5213 168.611C89.426 168.606 90.9742 170.146 90.9793 172.051L91.0048 181.74L119.793 205.138C121.307 206.369 121.537 208.594 120.307 210.108C119.076 211.622 116.851 211.852 115.337 210.621L85.4624 186.34C84.7705 185.778 84.346 185.005 84.2077 184.191C84.1452 183.932 84.112 183.663 84.1113 183.387Z" fill="#3CDDD3" stroke="white" stroke-width="2" stroke-linejoin="round"/>
<path d="M84.0607 164.02L84.0308 152.702C84.0258 150.797 85.5659 149.249 87.4706 149.244C89.3754 149.238 90.9236 150.779 90.9287 152.683L90.9585 164.002C90.9635 165.907 89.4235 167.455 87.5187 167.46C85.6139 167.465 84.0657 165.925 84.0607 164.02Z" fill="#3CDDD3" stroke="white" stroke-width="2"/>
<path d="M92.6137 175.887L92.5524 152.679C92.5474 150.774 94.0875 149.226 95.9923 149.221C97.8971 149.216 99.4453 150.756 99.4503 152.661L99.5115 175.869C99.5165 177.774 97.9765 179.322 96.0717 179.327C94.1669 179.332 92.6187 177.792 92.6137 175.887Z" fill="#3CDDD3" stroke="white" stroke-width="2"/>
<path d="M82.8524 190.339L71.7668 192.623C70.4421 192.896 69.5895 194.192 69.8624 195.516C70.1354 196.841 71.4305 197.693 72.7552 197.421L82.7096 195.369L111.866 219.067C112.952 219.949 114.547 219.784 115.429 218.699C116.311 217.614 116.147 216.018 115.061 215.136L85.1864 190.855C84.6804 190.444 84.0635 190.26 83.4598 190.291C83.2604 190.282 83.0567 190.297 82.8524 190.339Z" fill="#3CDDD3" stroke="black" stroke-width="2" stroke-linejoin="round"/>
<path d="M52.7976 196.532L63.8832 194.248C65.2079 193.975 66.503 194.828 66.776 196.152C67.0489 197.477 66.1963 198.772 64.8717 199.045L53.7861 201.329C52.4614 201.602 51.1663 200.75 50.8933 199.425C50.6204 198.1 51.473 196.805 52.7976 196.532Z" fill="#3CDDD3" stroke="black" stroke-width="2"/>
<path d="M54.5174 204.879L77.2484 200.195C78.5731 199.922 79.8682 200.775 80.1412 202.099C80.4141 203.424 79.5615 204.719 78.2368 204.992L55.5058 209.676C54.1811 209.949 52.886 209.096 52.613 207.771C52.3401 206.447 53.1927 205.152 54.5174 204.879Z" fill="#3CDDD3" stroke="black" stroke-width="2"/>
<path d="M87.1546 185.045L87.1247 173.727C87.1212 172.375 88.2147 171.275 89.5672 171.272C90.9197 171.268 92.019 172.362 92.0226 173.714L92.0494 183.878L121.206 207.575C122.291 208.457 122.456 210.053 121.574 211.138C120.692 212.224 119.097 212.388 118.011 211.506L88.1364 187.225C87.6303 186.814 87.3244 186.247 87.2314 185.65C87.1818 185.457 87.1551 185.254 87.1546 185.045Z" fill="#3CDDD3" stroke="black" stroke-width="2" stroke-linejoin="round"/>
<path d="M87.0741 154.36L87.104 165.678C87.1075 167.031 88.2068 168.124 89.5593 168.121C90.9119 168.117 92.0054 167.018 92.0018 165.665L91.972 154.347C91.9684 152.994 90.8691 151.901 89.5166 151.904C88.1641 151.908 87.0705 153.007 87.0741 154.36Z" fill="#3CDDD3" stroke="black" stroke-width="2"/>
<path d="M95.5957 154.337L95.657 177.545C95.6605 178.898 96.7598 179.991 98.1123 179.988C99.4648 179.984 100.558 178.885 100.555 177.533L100.494 154.324C100.49 152.972 99.3907 151.878 98.0382 151.882C96.6857 151.885 95.5922 152.984 95.5957 154.337Z" fill="#3CDDD3" stroke="black" stroke-width="2"/>
<path d="M359.921 108.749L353.165 99.668L352.363 100.265L353.165 99.668C352.028 98.1397 349.868 97.8225 348.339 98.9594C346.811 100.096 346.494 102.257 347.631 103.785L353.414 111.559L344.377 147.54C343.902 149.432 345.05 151.351 346.943 151.827C348.835 152.302 350.754 151.153 351.229 149.261L360.608 111.923C360.825 111.058 360.702 110.185 360.325 109.45C360.22 109.206 360.085 108.97 359.921 108.749Z" fill="#3CDDD3" stroke="white" stroke-width="2" stroke-linejoin="round"/>
<path d="M348.361 93.2099L341.605 84.1288C340.468 82.6005 338.307 82.2832 336.779 83.4202C335.251 84.5571 334.934 86.7177 336.07 88.2459L342.826 97.3271C343.963 98.8554 346.124 99.1727 347.652 98.0357C349.18 96.8988 349.497 94.7382 348.361 93.2099Z" fill="#3CDDD3" stroke="white" stroke-width="2"/>
<path d="M348.62 107.836L334.767 89.215C333.631 87.6867 331.47 87.3694 329.942 88.5063C328.413 89.6433 328.096 91.8038 329.233 93.3321L343.086 111.953C344.223 113.481 346.383 113.799 347.911 112.662C349.44 111.525 349.757 109.364 348.62 107.836Z" fill="#3CDDD3" stroke="white" stroke-width="2"/>
<path d="M365.31 110.102L375.555 105.291L375.98 106.196L375.555 105.291C377.279 104.482 379.333 105.223 380.142 106.947C380.952 108.671 380.211 110.725 378.487 111.535L369.716 115.653L360.679 151.634C360.204 153.526 358.285 154.675 356.392 154.2C354.5 153.724 353.351 151.805 353.826 149.913L363.205 112.575C363.422 111.71 363.942 110.999 364.622 110.529C364.83 110.363 365.06 110.219 365.31 110.102Z" fill="#3CDDD3" stroke="white" stroke-width="2" stroke-linejoin="round"/>
<path d="M382.84 101.87L393.085 97.0591C394.81 96.2495 396.864 96.9908 397.673 98.7149C398.483 100.439 397.742 102.493 396.017 103.303L385.772 108.114C384.048 108.924 381.994 108.182 381.185 106.458C380.375 104.734 381.116 102.68 382.84 101.87Z" fill="#3CDDD3" stroke="white" stroke-width="2"/>
<path d="M375.7 114.638L396.708 104.773C398.432 103.963 400.486 104.704 401.296 106.428C402.106 108.152 401.364 110.207 399.64 111.016L378.633 120.881C376.908 121.691 374.854 120.95 374.045 119.226C373.235 117.501 373.976 115.447 375.7 114.638Z" fill="#3CDDD3" stroke="white" stroke-width="2"/>
<path d="M358.477 111.9L351.721 102.819C350.914 101.733 349.38 101.508 348.295 102.315C347.21 103.123 346.984 104.657 347.792 105.742L353.858 113.897L344.705 150.337C344.365 151.694 345.188 153.07 346.545 153.41C347.901 153.751 349.277 152.928 349.618 151.571L358.996 114.233C359.155 113.601 359.061 112.964 358.778 112.43C358.702 112.245 358.602 112.067 358.477 111.9Z" fill="#3CDDD3" stroke="black" stroke-width="2" stroke-linejoin="round"/>
<path d="M340.161 87.2794L346.917 96.3605C347.724 97.4457 347.499 98.9798 346.414 99.7871C345.328 100.594 343.794 100.369 342.987 99.284L336.231 90.2028C335.424 89.1176 335.649 87.5835 336.734 86.7762C337.82 85.9689 339.354 86.1942 340.161 87.2794Z" fill="#3CDDD3" stroke="black" stroke-width="2"/>
<path d="M333.324 92.3659L347.176 110.987C347.984 112.072 347.758 113.606 346.673 114.413C345.588 115.221 344.054 114.995 343.246 113.91L329.394 95.2893C328.587 94.2042 328.812 92.67 329.897 91.8628C330.982 91.0555 332.516 91.2807 333.324 92.3659Z" fill="#3CDDD3" stroke="black" stroke-width="2"/>
<path d="M365.093 113.561L375.338 108.75C376.562 108.175 378.021 108.702 378.596 109.926C379.171 111.15 378.644 112.609 377.42 113.183L368.221 117.504L359.068 153.944C358.727 155.301 357.351 156.124 355.994 155.784C354.638 155.443 353.814 154.067 354.155 152.71L363.533 115.372C363.692 114.74 364.076 114.223 364.578 113.886C364.732 113.76 364.904 113.65 365.093 113.561Z" fill="#3CDDD3" stroke="black" stroke-width="2" stroke-linejoin="round"/>
<path d="M392.869 100.518L382.624 105.329C381.4 105.904 380.873 107.363 381.448 108.587C382.023 109.811 383.482 110.337 384.706 109.762L394.951 104.951C396.175 104.376 396.702 102.918 396.127 101.694C395.552 100.469 394.093 99.9431 392.869 100.518Z" fill="#3CDDD3" stroke="black" stroke-width="2"/>
<path d="M396.492 108.231L375.484 118.097C374.26 118.672 373.734 120.13 374.308 121.354C374.883 122.578 376.342 123.105 377.566 122.53L398.574 112.665C399.798 112.09 400.324 110.631 399.749 109.407C399.174 108.183 397.716 107.656 396.492 108.231Z" fill="#3CDDD3" stroke="black" stroke-width="2"/>
</svg>
