<svg width="33" height="32" viewBox="0 0 33 32" fill="none" xmlns="http://www.w3.org/2000/svg">
<circle cx="11.9745" cy="20.3688" r="8.19374" fill="#FF9292"/>
<path fill-rule="evenodd" clip-rule="evenodd" d="M13.2968 27.1969C17.822 27.1969 21.4905 23.5285 21.4905 19.0032C21.4905 14.4779 17.822 10.8094 13.2968 10.8094C8.77149 10.8094 5.10303 14.4779 5.10303 19.0032C5.10303 23.5285 8.77149 27.1969 13.2968 27.1969Z" stroke="black" stroke-linecap="round" stroke-linejoin="round"/>
<path d="M13.2969 10.8095V6.75635" stroke="black" stroke-linecap="round" stroke-linejoin="round"/>
<path d="M16.3667 11.405L17.8853 7.64819" stroke="black" stroke-linecap="round" stroke-linejoin="round"/>
<path d="M20.8472 15.8186L24.5821 14.244" stroke="black" stroke-linecap="round" stroke-linejoin="round"/>
<path d="M19.0908 13.2088L21.9573 10.3438" stroke="black" stroke-linecap="round" stroke-linejoin="round"/>
<path d="M10.2266 11.405L8.70801 7.64819" stroke="black" stroke-linecap="round" stroke-linejoin="round"/>
<path d="M5.74767 15.8186L2.0127 14.244" stroke="black" stroke-linecap="round" stroke-linejoin="round"/>
<path d="M16.3667 26.6013L17.8853 30.3595" stroke="black" stroke-linecap="round" stroke-linejoin="round"/>
<path d="M20.8472 22.1879L24.5821 23.7638" stroke="black" stroke-linecap="round" stroke-linejoin="round"/>
<path d="M10.2266 26.6013L8.70801 30.3595" stroke="black" stroke-linecap="round" stroke-linejoin="round"/>
<path d="M5.74767 22.1879L2.0127 23.7638" stroke="black" stroke-linecap="round" stroke-linejoin="round"/>
<path d="M7.50365 13.2088L4.63721 10.3438" stroke="black" stroke-linecap="round" stroke-linejoin="round"/>
<path d="M21.4902 19.0033H25.5448" stroke="black" stroke-linecap="round" stroke-linejoin="round"/>
<path d="M19.0908 24.7988L21.9573 27.6639" stroke="black" stroke-linecap="round" stroke-linejoin="round"/>
<path d="M13.2969 27.1969V31.2501" stroke="black" stroke-linecap="round" stroke-linejoin="round"/>
<path d="M7.50365 24.7988L4.63721 27.6639" stroke="black" stroke-linecap="round" stroke-linejoin="round"/>
<path d="M5.10297 19.0033H1.0498" stroke="black" stroke-linecap="round" stroke-linejoin="round"/>
<path fill-rule="evenodd" clip-rule="evenodd" d="M11.2481 23.1002C12.3795 23.1002 13.2966 22.183 13.2966 21.0517C13.2966 19.9204 12.3795 19.0033 11.2481 19.0033C10.1168 19.0033 9.19971 19.9204 9.19971 21.0517C9.19971 22.183 10.1168 23.1002 11.2481 23.1002Z" stroke="black" stroke-linecap="round" stroke-linejoin="round"/>
<path d="M15.3452 15.2477C15.5338 15.2477 15.6866 15.4005 15.6866 15.5891" stroke="black" stroke-linecap="round" stroke-linejoin="round"/>
<path d="M15.0039 15.5891C15.0039 15.4005 15.1568 15.2477 15.3453 15.2477" stroke="black" stroke-linecap="round" stroke-linejoin="round"/>
<path d="M15.3453 15.9305C15.1568 15.9305 15.0039 15.7777 15.0039 15.5891" stroke="black" stroke-linecap="round" stroke-linejoin="round"/>
<path d="M15.6866 15.5891C15.6866 15.7777 15.5338 15.9305 15.3452 15.9305" stroke="black" stroke-linecap="round" stroke-linejoin="round"/>
<path d="M17.3936 20.0275C17.5821 20.0275 17.735 20.1803 17.735 20.3689" stroke="black" stroke-linecap="round" stroke-linejoin="round"/>
<path d="M17.0522 20.3689C17.0522 20.1803 17.2051 20.0275 17.3937 20.0275" stroke="black" stroke-linecap="round" stroke-linejoin="round"/>
<path d="M17.3937 20.7101C17.2051 20.7101 17.0522 20.5572 17.0522 20.3687" stroke="black" stroke-linecap="round" stroke-linejoin="round"/>
<path d="M17.735 20.3687C17.735 20.5572 17.5821 20.7101 17.3936 20.7101" stroke="black" stroke-linecap="round" stroke-linejoin="round"/>
<path fill-rule="evenodd" clip-rule="evenodd" d="M28.3186 8.07809C29.8271 8.07809 31.0499 6.85527 31.0499 5.34685C31.0499 3.83842 29.8271 2.6156 28.3186 2.6156C26.8102 2.6156 25.5874 3.83842 25.5874 5.34685C25.5874 6.85527 26.8102 8.07809 28.3186 8.07809Z" stroke="black" stroke-linecap="round" stroke-linejoin="round"/>
<path d="M28.3188 2.61562V1.25" stroke="black" stroke-linecap="round" stroke-linejoin="round"/>
<path d="M30.2495 3.41593L31.215 2.45044" stroke="black" stroke-linecap="round" stroke-linejoin="round"/>
<path d="M31.0498 5.3468H32.4154" stroke="black" stroke-linecap="round" stroke-linejoin="round"/>
<path d="M30.2495 7.2793L31.215 8.24479" stroke="black" stroke-linecap="round" stroke-linejoin="round"/>
<path d="M28.3188 8.078V9.44363" stroke="black" stroke-linecap="round" stroke-linejoin="round"/>
<path d="M26.3874 7.2793L25.4219 8.24479" stroke="black" stroke-linecap="round" stroke-linejoin="round"/>
<path d="M25.5873 5.3468H24.2217" stroke="black" stroke-linecap="round" stroke-linejoin="round"/>
<path d="M26.3874 3.41593L25.4219 2.45044" stroke="black" stroke-linecap="round" stroke-linejoin="round"/>
</svg>
