<svg width="31" height="34" viewBox="0 0 31 34" fill="none" xmlns="http://www.w3.org/2000/svg">
<path fill-rule="evenodd" clip-rule="evenodd" d="M23.2814 13.6852C23.2814 13.3062 22.9742 12.9989 22.5952 12.9989H19.1638V9.56761C19.1638 9.1886 18.8566 8.88135 18.4776 8.88135H12.9875C12.6084 8.88135 12.3012 9.1886 12.3012 9.56761V12.9989H8.86986C8.49085 12.9989 8.18359 13.3062 8.18359 13.6852V19.1753C8.18359 19.5543 8.49085 19.8616 8.86986 19.8616H12.3012V23.2929C12.3012 23.6719 12.6084 23.9792 12.9875 23.9792H18.4776C18.8566 23.9792 19.1638 23.6719 19.1638 23.2929V19.8616H22.5952C22.9742 19.8616 23.2814 19.5543 23.2814 19.1753V13.6852Z" fill="#FFDC5D"/>
<path fill-rule="evenodd" clip-rule="evenodd" d="M23.2814 12.633C23.2814 12.2539 22.9742 11.9467 22.5952 11.9467H19.1638V8.51537C19.1638 8.13635 18.8566 7.8291 18.4776 7.8291H12.9875C12.6084 7.8291 12.3012 8.13635 12.3012 8.51537V11.9467H8.86986C8.49085 11.9467 8.18359 12.2539 8.18359 12.633V18.1231C8.18359 18.5021 8.49085 18.8094 8.86986 18.8094H12.3012V22.2407C12.3012 22.6197 12.6084 22.9269 12.9875 22.9269H18.4776C18.8566 22.9269 19.1638 22.6197 19.1638 22.2407V18.8094H22.5952C22.9742 18.8094 23.2814 18.5021 23.2814 18.1231V12.633Z" stroke="black" stroke-linecap="round" stroke-linejoin="round"/>
<path fill-rule="evenodd" clip-rule="evenodd" d="M1.3208 5.46134V15.9434C1.40341 23.0382 5.90959 29.3257 12.6016 31.6836L14.1402 32.2518C15.1681 32.6292 16.2967 32.6292 17.3245 32.2518L18.8631 31.6836C25.5552 29.3257 30.0614 23.0382 30.144 15.9434V5.46134C30.1411 4.61956 29.6369 3.86047 28.862 3.53156C24.7041 1.7969 20.2374 0.924198 15.7324 0.966297C11.2273 0.924198 6.76064 1.7969 2.60275 3.53156C1.82788 3.86047 1.32362 4.61956 1.3208 5.46134Z" stroke="black" stroke-linecap="round" stroke-linejoin="round"/>
</svg>
