<svg width="34" height="34" viewBox="0 0 34 34" fill="none" xmlns="http://www.w3.org/2000/svg">
<path d="M24.8619 33.4765C28.5184 33.4765 31.4826 30.5123 31.4826 26.8558C31.4826 23.1993 28.5184 20.2351 24.8619 20.2351C21.2054 20.2351 18.2412 23.1993 18.2412 26.8558C18.2412 30.5123 21.2054 33.4765 24.8619 33.4765Z" fill="#3C92F4"/>
<path d="M26.1119 33.4765C29.7684 33.4765 32.7326 30.5123 32.7326 26.8558C32.7326 23.1993 29.7684 20.2351 26.1119 20.2351C22.4554 20.2351 19.4912 23.1993 19.4912 26.8558C19.4912 30.5123 22.4554 33.4765 26.1119 33.4765Z" stroke="#231F20" stroke-miterlimit="10"/>
<path d="M29.422 26.8556H22.8013" stroke="#231F20" stroke-miterlimit="10" stroke-linecap="round" stroke-linejoin="round"/>
<path d="M19.491 19.2421C18.3876 18.911 17.3945 18.4696 16.1807 18.0282V14.7178C16.1807 14.7178 18.1117 13.7248 18.1117 10.4145C19.2152 10.4145 19.2152 7.54542 18.1117 7.54542C18.1117 7.21439 19.2703 5.28341 18.829 3.46272C18.1669 0.81444 10.4428 0.81444 9.78069 3.46272C6.47035 2.80065 8.40138 7.21449 8.40138 7.65587C7.29794 7.65587 7.29794 10.4145 8.40138 10.4145C8.40138 13.7248 10.6635 15.2696 10.6635 15.2696V18.0282C6.80139 19.5178 2.00138 20.511 1.44966 22.2213C0.787588 24.2075 0.732422 27.9592 0.732422 27.9592H15.0772" stroke="#231F20" stroke-miterlimit="10" stroke-linejoin="round"/>
</svg>
