<svg width="34" height="34" viewBox="0 0 34 34" fill="none" xmlns="http://www.w3.org/2000/svg">
<path d="M25.1119 32.9294C28.7684 32.9294 31.7326 29.9652 31.7326 26.3087C31.7326 22.6522 28.7684 19.688 25.1119 19.688C21.4554 19.688 18.4912 22.6522 18.4912 26.3087C18.4912 29.9652 21.4554 32.9294 25.1119 32.9294Z" fill="#FC9090"/>
<path d="M26.1119 32.9294C29.7684 32.9294 32.7326 29.9652 32.7326 26.3087C32.7326 22.6522 29.7684 19.688 26.1119 19.688C22.4554 19.688 19.4912 22.6522 19.4912 26.3087C19.4912 29.9652 22.4554 32.9294 26.1119 32.9294Z" stroke="#231F20" stroke-miterlimit="10"/>
<path d="M26.1118 22.833V29.7848" stroke="#231F20" stroke-miterlimit="10" stroke-linecap="round" stroke-linejoin="round"/>
<path d="M29.5875 26.3085H22.6357" stroke="#231F20" stroke-miterlimit="10" stroke-linecap="round" stroke-linejoin="round"/>
<path d="M19.491 18.695C18.3876 18.3639 17.3945 17.9224 16.1807 17.4811V14.1707C16.1807 14.1707 18.1117 13.1777 18.1117 9.86737C19.2152 9.86737 19.2152 6.9983 18.1117 6.9983C18.1117 6.66727 19.2703 4.73629 18.829 2.9156C18.1669 0.26732 10.4428 0.26732 9.78069 2.9156C6.47035 2.25353 8.40138 6.66737 8.40138 7.10875C7.29794 7.10875 7.29794 9.86737 8.40138 9.86737C8.40138 13.1777 10.6635 14.7224 10.6635 14.7224V17.4811C6.80139 18.9707 2.00138 19.9639 1.44966 21.6742C0.787588 23.6604 0.732422 27.4121 0.732422 27.4121H15.0772" stroke="#231F20" stroke-miterlimit="10" stroke-linejoin="round"/>
</svg>
