<svg width="37" height="36" viewBox="0 0 37 36" fill="none" xmlns="http://www.w3.org/2000/svg">
<path fill-rule="evenodd" clip-rule="evenodd" d="M12.4331 19.2669C12.4331 20.103 13.111 20.7809 13.9472 20.7809H16.9753V26.0801L22.2744 20.7809H33.6298C34.466 20.7809 35.1439 20.103 35.1439 19.2669V4.12635C35.1439 3.29017 34.466 2.6123 33.6298 2.6123H13.9472C13.111 2.6123 12.4331 3.29017 12.4331 4.12635V19.2669Z" fill="#3CDDD3"/>
<path fill-rule="evenodd" clip-rule="evenodd" d="M13.4331 17.2669C13.4331 18.103 14.111 18.7809 14.9472 18.7809H17.9753V24.0801L23.2744 18.7809H34.6298C35.466 18.7809 36.1439 18.103 36.1439 17.2669V2.12635C36.1439 1.29017 35.466 0.612305 34.6298 0.612305H14.9472C14.111 0.612305 13.4331 1.29017 13.4331 2.12635V17.2669Z" stroke="black" stroke-linecap="round" stroke-linejoin="round"/>
<path fill-rule="evenodd" clip-rule="evenodd" d="M5.86316 18.781C7.74458 18.781 9.26977 17.2558 9.26977 15.3744C9.26977 13.493 7.74458 11.9678 5.86316 11.9678C3.98174 11.9678 2.45654 13.493 2.45654 15.3744C2.45654 17.2558 3.98174 18.781 5.86316 18.781Z" stroke="black" stroke-linecap="round" stroke-linejoin="round"/>
<path fill-rule="evenodd" clip-rule="evenodd" d="M5.86295 20.2952C3.35439 20.2952 1.3208 22.3288 1.3208 24.8373V27.8654H3.59188L4.3489 35.4357H7.377L8.13403 27.8654H10.4051V24.8373C10.4051 22.3288 8.37151 20.2952 5.86295 20.2952Z" stroke="black" stroke-linecap="round" stroke-linejoin="round"/>
<path d="M25.5455 14.2386C25.7546 14.2386 25.924 14.4081 25.924 14.6172C25.924 14.8262 25.7546 14.9957 25.5455 14.9957C25.3365 14.9957 25.167 14.8262 25.167 14.6172C25.167 14.4081 25.3365 14.2386 25.5455 14.2386" stroke="black" stroke-linecap="round" stroke-linejoin="round"/>
<path d="M23.2744 7.42549C23.2744 6.17121 24.2912 5.15442 25.5455 5.15442C26.7998 5.15442 27.8166 6.17121 27.8166 7.42549C27.8166 8.67977 26.7998 9.69657 25.5455 9.69657V11.2106" stroke="black" stroke-linecap="round" stroke-linejoin="round"/>
</svg>
