<svg width="34" height="27" viewBox="0 0 34 27" fill="none" xmlns="http://www.w3.org/2000/svg">
<path fill-rule="evenodd" clip-rule="evenodd" d="M10.8831 16.1848C10.8832 17.1699 10.4657 18.1088 9.73414 18.7684C9.0026 19.4281 8.02565 19.7466 7.04587 19.645C5.22917 19.3928 3.88869 17.821 3.92656 15.9872L3.92656 8.38047C3.92656 8.19597 3.99986 8.01903 4.13032 7.88857C4.26078 7.75811 4.43772 7.68481 4.62222 7.68481H10.1874C10.5716 7.68481 10.8831 7.99627 10.8831 8.38047V16.1848Z" fill="#3CDDD3"/>
<path fill-rule="evenodd" clip-rule="evenodd" d="M20.971 16.1848C20.9711 17.1699 20.5536 18.1088 19.822 18.7684C19.0905 19.4281 18.1135 19.7466 17.1338 19.645C15.3171 19.3928 13.9766 17.821 14.0145 15.9872L14.0145 8.38047C14.0145 8.19597 14.0877 8.01903 14.2182 7.88857C14.3487 7.75811 14.5256 7.68481 14.7101 7.68481H20.2753C20.6595 7.68481 20.971 7.99627 20.971 8.38047V16.1848Z" fill="#3CDDD3"/>
<path fill-rule="evenodd" clip-rule="evenodd" d="M30.7097 16.1848C30.7099 17.1699 30.2923 18.1088 29.5608 18.7684C28.8293 19.4281 27.8523 19.7466 26.8725 19.645C25.0558 19.3928 23.7154 17.821 23.7532 15.9872L23.7532 8.38047C23.7532 8.19597 23.8265 8.01903 23.957 7.88857C24.0874 7.75811 24.2644 7.68481 24.4489 7.68481H30.0141C30.3983 7.68481 30.7097 7.99627 30.7097 8.38047V16.1848Z" fill="#3CDDD3"/>
<path d="M1.14404 6.29346V20.2065C1.14404 23.2801 3.63568 25.7717 6.70926 25.7717H27.5788C30.6524 25.7717 33.144 23.2801 33.144 20.2065V6.29346" stroke="black" stroke-linecap="round" stroke-linejoin="round"/>
<path fill-rule="evenodd" clip-rule="evenodd" d="M10.8831 16.7283C10.8832 17.7133 10.4657 18.6522 9.73414 19.3119C9.0026 19.9716 8.02565 20.2901 7.04587 20.1884C5.22917 19.9363 3.88869 18.3644 3.92656 16.5307V1.42392C3.92656 1.23943 3.99986 1.06248 4.13032 0.932023C4.26078 0.801563 4.43772 0.728271 4.62222 0.728271H10.1874C10.5716 0.728271 10.8831 1.03973 10.8831 1.42392V16.7283Z" stroke="black" stroke-linecap="round" stroke-linejoin="round"/>
<path fill-rule="evenodd" clip-rule="evenodd" d="M20.6223 16.7283C20.6225 17.7133 20.2049 18.6522 19.4734 19.3119C18.7419 19.9716 17.7649 20.2901 16.7851 20.1884C14.9684 19.9363 13.6279 18.3644 13.6658 16.5307V1.42392C13.6658 1.03973 13.9773 0.728271 14.3615 0.728271H19.9267C20.3109 0.728271 20.6223 1.03973 20.6223 1.42392V16.7283Z" stroke="black" stroke-linecap="round" stroke-linejoin="round"/>
<path fill-rule="evenodd" clip-rule="evenodd" d="M30.3616 16.7283C30.3617 17.7133 29.9442 18.6522 29.2127 19.3119C28.4811 19.9716 27.5042 20.2901 26.5244 20.1884C24.7077 19.9363 23.3672 18.3644 23.4051 16.5307V1.42392C23.4051 1.03973 23.7165 0.728271 24.1007 0.728271H29.6659C30.0501 0.728271 30.3616 1.03973 30.3616 1.42392V16.7283Z" stroke="black" stroke-linecap="round" stroke-linejoin="round"/>
<path d="M1.14404 10.4674H3.92665" stroke="black" stroke-linecap="round" stroke-linejoin="round"/>
<path d="M10.8833 10.4674H13.6659" stroke="black" stroke-linecap="round" stroke-linejoin="round"/>
<path d="M20.6221 10.4674H23.4047" stroke="black" stroke-linecap="round" stroke-linejoin="round"/>
<path d="M30.3613 10.4674H33.1439" stroke="black" stroke-linecap="round" stroke-linejoin="round"/>
<path d="M3.92676 7.68481H10.8833" stroke="black" stroke-linecap="round" stroke-linejoin="round"/>
<path d="M13.666 7.68481H20.6225" stroke="black" stroke-linecap="round" stroke-linejoin="round"/>
<path d="M23.4048 7.68481H30.3613" stroke="black" stroke-linecap="round" stroke-linejoin="round"/>
<path d="M6.70947 10.1196C6.90157 10.1196 7.0573 10.2754 7.0573 10.4675" stroke="black" stroke-linecap="round" stroke-linejoin="round"/>
<path d="M6.36133 10.4675C6.36133 10.2754 6.51706 10.1196 6.70915 10.1196" stroke="black" stroke-linecap="round" stroke-linejoin="round"/>
<path d="M6.70915 10.8152C6.51706 10.8152 6.36133 10.6595 6.36133 10.4674" stroke="black" stroke-linecap="round" stroke-linejoin="round"/>
<path d="M7.0573 10.4674C7.0573 10.6595 6.90157 10.8152 6.70947 10.8152" stroke="black" stroke-linecap="round" stroke-linejoin="round"/>
<path d="M8.10059 15.6848C8.29268 15.6848 8.44841 15.8405 8.44841 16.0326" stroke="black" stroke-linecap="round" stroke-linejoin="round"/>
<path d="M7.75293 16.0326C7.75293 15.8405 7.90866 15.6848 8.10076 15.6848" stroke="black" stroke-linecap="round" stroke-linejoin="round"/>
<path d="M8.10076 16.3804C7.90866 16.3804 7.75293 16.2247 7.75293 16.0326" stroke="black" stroke-linecap="round" stroke-linejoin="round"/>
<path d="M8.44841 16.0326C8.44841 16.2247 8.29268 16.3804 8.10059 16.3804" stroke="black" stroke-linecap="round" stroke-linejoin="round"/>
<path d="M16.4482 10.1196C16.6403 10.1196 16.7961 10.2754 16.7961 10.4675" stroke="black" stroke-linecap="round" stroke-linejoin="round"/>
<path d="M16.1006 10.4675C16.1006 10.2754 16.2563 10.1196 16.4484 10.1196" stroke="black" stroke-linecap="round" stroke-linejoin="round"/>
<path d="M16.4484 10.8152C16.2563 10.8152 16.1006 10.6595 16.1006 10.4674" stroke="black" stroke-linecap="round" stroke-linejoin="round"/>
<path d="M16.7961 10.4674C16.7961 10.6595 16.6403 10.8152 16.4482 10.8152" stroke="black" stroke-linecap="round" stroke-linejoin="round"/>
<path d="M27.5786 10.8152C27.7707 10.8152 27.9264 10.9709 27.9264 11.163" stroke="black" stroke-linecap="round" stroke-linejoin="round"/>
<path d="M27.231 11.163C27.231 10.9709 27.3867 10.8152 27.5788 10.8152" stroke="black" stroke-linecap="round" stroke-linejoin="round"/>
<path d="M27.5788 11.5109C27.3867 11.5109 27.231 11.3552 27.231 11.1631" stroke="black" stroke-linecap="round" stroke-linejoin="round"/>
<path d="M27.9264 11.1631C27.9264 11.3552 27.7707 11.5109 27.5786 11.5109" stroke="black" stroke-linecap="round" stroke-linejoin="round"/>
<path d="M26.1875 14.2935C26.3796 14.2935 26.5353 14.4492 26.5353 14.6413" stroke="black" stroke-linecap="round" stroke-linejoin="round"/>
<path d="M25.8398 14.6413C25.8398 14.4492 25.9956 14.2935 26.1877 14.2935" stroke="black" stroke-linecap="round" stroke-linejoin="round"/>
<path d="M26.1877 14.9892C25.9956 14.9892 25.8398 14.8335 25.8398 14.6414" stroke="black" stroke-linecap="round" stroke-linejoin="round"/>
<path d="M26.5353 14.6414C26.5353 14.8335 26.3796 14.9892 26.1875 14.9892" stroke="black" stroke-linecap="round" stroke-linejoin="round"/>
<path d="M17.8398 14.2935C18.0319 14.2935 18.1877 14.4492 18.1877 14.6413" stroke="black" stroke-linecap="round" stroke-linejoin="round"/>
<path d="M17.4917 14.6413C17.4917 14.4492 17.6474 14.2935 17.8395 14.2935" stroke="black" stroke-linecap="round" stroke-linejoin="round"/>
<path d="M17.8395 14.9892C17.6474 14.9892 17.4917 14.8335 17.4917 14.6414" stroke="black" stroke-linecap="round" stroke-linejoin="round"/>
<path d="M18.1877 14.6414C18.1877 14.8335 18.0319 14.9892 17.8398 14.9892" stroke="black" stroke-linecap="round" stroke-linejoin="round"/>
</svg>
