<svg width="951" height="1282" viewBox="0 0 951 1282" fill="none" xmlns="http://www.w3.org/2000/svg">
<rect x="1" y="1" width="949" height="1280" fill="#FCFCFC" stroke="#EEEEEE" stroke-width="2"/>
<path d="M718.541 1054.96H778.425" stroke="#333333" stroke-width="3" stroke-miterlimit="10" stroke-linecap="round" stroke-linejoin="round"/>
<path d="M763.971 1065.29H788.75" stroke="#333333" stroke-width="3" stroke-miterlimit="10" stroke-linecap="round" stroke-linejoin="round"/>
<path d="M761.905 1044.64H788.75" stroke="#333333" stroke-width="3" stroke-miterlimit="10" stroke-linecap="round" stroke-linejoin="round"/>
<path d="M779.664 1065.29H709.868C704.293 1065.29 699.75 1060.74 699.75 1055.17V1054.76C699.75 1049.18 704.293 1044.64 709.868 1044.64H779.664V1065.29Z" stroke="#333333" stroke-width="3" stroke-miterlimit="10" stroke-linecap="round" stroke-linejoin="round"/>
<path d="M724.736 1034.31H776.36" stroke="#333333" stroke-width="3" stroke-miterlimit="10" stroke-linecap="round" stroke-linejoin="round"/>
<path d="M761.905 1044.64H784.62" stroke="#333333" stroke-width="3" stroke-miterlimit="10" stroke-linecap="round" stroke-linejoin="round"/>
<path d="M759.84 1023.99H784.62" stroke="#333333" stroke-width="3" stroke-miterlimit="10" stroke-linecap="round" stroke-linejoin="round"/>
<path d="M777.599 1044.64H713.998C708.423 1044.64 703.88 1040.1 703.88 1034.52V1034.11C703.88 1028.53 708.423 1023.99 713.998 1023.99H777.599V1044.64Z" stroke="#333333" stroke-width="3" stroke-miterlimit="10" stroke-linecap="round" stroke-linejoin="round"/>
<path d="M740.016 981.862C742.494 983.101 745.178 983.101 747.656 981.862C749.515 980.83 752.406 980.417 756.123 981.656C767.067 984.96 768.1 998.795 759.427 1016.14C756.329 1022.13 752.406 1021.72 749.102 1019.86C745.798 1018 741.668 1018 738.364 1019.86C735.06 1021.72 731.137 1022.34 728.039 1016.14C719.366 998.795 720.192 984.96 731.343 981.656C735.267 980.417 737.951 980.83 740.016 981.862Z" stroke="#333333" stroke-width="3" stroke-miterlimit="10" stroke-linecap="round" stroke-linejoin="round"/>
<path d="M744.56 982.689C744.56 982.689 740.017 976.701 749.515 970.712" stroke="#333333" stroke-width="3" stroke-miterlimit="10" stroke-linecap="round" stroke-linejoin="round"/>
</svg>
