<svg width="281" height="42" viewBox="0 0 281 42" fill="none" xmlns="http://www.w3.org/2000/svg">
<path d="M37.5355 20.9243C36.7029 20.1775 36.046 19.2587 35.6113 18.2327C35.1765 17.2067 34.9745 16.0987 35.0195 14.9868C35.0162 13.9559 35.2251 12.9351 35.6333 11.9868C36.0414 11.0385 36.6404 10.1826 37.3935 9.4714C38.8531 8.1432 40.8012 7.3384 43.8113 7.3384C44.7976 7.33265 45.7829 7.40038 46.759 7.54101C47.5257 7.64231 48.1789 7.82241 48.7866 7.88432C49.0137 7.88432 49.0933 8.0025 49.0933 8.12069C49.0933 8.23888 49.0308 8.5259 48.991 9.24628C48.9513 9.96666 48.991 11.0191 48.9286 11.4187C48.9286 11.7226 48.8661 11.8858 48.6843 11.8858C48.5026 11.8858 48.4799 11.7226 48.4799 11.4412C48.4531 10.7493 48.1724 10.0909 47.6904 9.58958C47.0202 8.9086 45.4186 8.34581 43.5671 8.34581C41.8008 8.34581 40.6422 8.79041 39.7505 9.59521C38.2681 10.9347 37.8819 12.8482 37.8819 14.8011C37.8819 19.5904 41.5566 21.9654 44.277 21.9654C46.0888 21.9654 47.1849 21.7628 47.9971 20.8398C48.3233 20.4535 48.5581 19.9996 48.6843 19.5116C48.7468 19.1909 48.7866 19.1064 48.9513 19.1064C49.116 19.1064 49.133 19.2471 49.133 19.4103C49.0486 20.3128 48.8986 21.2081 48.6843 22.0892C48.6602 22.2234 48.5975 22.3479 48.5039 22.4477C48.4102 22.5475 48.2895 22.6185 48.1561 22.652C46.9711 22.9961 45.7385 23.1518 44.5042 23.1135C41.7213 23.1135 39.3927 22.5113 37.5355 20.9243Z" fill="#23569C"/>
<path d="M51.6888 16.4613C51.6888 13.5798 53.6142 9.85974 58.7087 9.85974C62.9399 9.85974 65.5752 12.3023 65.5752 16.1574C65.5752 20.0126 62.8547 23.0629 58.5383 23.0629C53.6653 23.0629 51.6888 19.4385 51.6888 16.4613ZM63.1955 16.7821C63.1955 13.0058 61.0032 10.6702 58.2146 10.6702C56.2608 10.6702 54.0345 11.7451 54.0345 15.9379C54.0345 19.4385 55.9939 22.2187 59.2539 22.2187C60.441 22.2187 63.1955 21.6559 63.1955 16.7877V16.7821Z" fill="#23569C"/>
<path d="M71.6636 17.9415C71.6636 20.097 71.6636 21.262 72.0214 21.5602C72.3792 21.8585 72.7484 21.9317 74.0774 21.9317C74.9747 21.9317 75.6392 21.9317 76.0652 21.4589C76.3034 21.1698 76.4567 20.8213 76.5082 20.4515C76.5082 20.2996 76.5536 20.1983 76.6899 20.1983C76.8262 20.1983 76.8262 20.2827 76.8262 20.4853C76.7869 21.1358 76.7015 21.7827 76.5707 22.4213C76.4741 22.7928 76.3889 22.8772 75.5029 22.8772C73.055 22.8772 71.9362 22.7759 70.5561 22.7759C70.1699 22.7759 69.0964 22.8265 68.4149 22.8265C68.1934 22.8265 68.0741 22.7759 68.0741 22.6577C68.0741 22.5395 68.1423 22.5226 68.3467 22.5226C68.5531 22.5227 68.7588 22.5001 68.9601 22.4551C69.3009 22.3875 69.3861 22.0161 69.4542 21.5321C69.5394 20.823 69.5394 19.4892 69.5394 17.9415V14.9587C69.5394 12.3979 69.5394 11.9252 69.5054 11.3849C69.4713 10.8446 69.335 10.5463 68.7727 10.4282C68.5861 10.3888 68.3954 10.3718 68.2048 10.3775C68.023 10.3775 67.9208 10.3437 67.9208 10.2256C67.9208 10.1074 68.04 10.0736 68.2899 10.0736C69.0908 10.0736 70.1642 10.1243 70.6185 10.1243C71.0729 10.1243 72.2713 10.0736 72.9301 10.0736C73.1686 10.0736 73.2879 10.1074 73.2879 10.2256C73.2879 10.3437 73.1857 10.3775 72.9812 10.3775C72.7606 10.3774 72.5403 10.3943 72.3224 10.4282C71.8623 10.5126 71.7544 10.794 71.692 11.3849C71.6295 11.9758 71.6579 12.3979 71.6579 14.9587V17.9415H71.6636Z" fill="#23569C"/>
<path d="M80.1032 14.9587C80.1032 12.3979 80.1032 11.9252 80.0691 11.3849C80.035 10.8446 79.8987 10.5463 79.3365 10.4282C79.1277 10.3992 78.9166 10.3897 78.706 10.4C78.5186 10.4 78.4164 10.3663 78.4164 10.2481C78.4164 10.1299 78.5356 10.0961 78.7912 10.0961C79.6886 10.0961 80.762 10.1468 81.2675 10.1468C81.6764 10.1468 82.7498 10.0961 83.3575 10.0961C83.6131 10.0961 83.7324 10.1299 83.7324 10.2481C83.7324 10.3663 83.6302 10.4 83.4598 10.4C83.2956 10.3999 83.1319 10.4169 82.9713 10.4507C82.5113 10.5351 82.4034 10.8221 82.3409 11.4074C82.2784 11.9927 82.3068 12.4205 82.3068 14.9812V17.3505C82.3068 19.7931 82.801 20.823 83.6302 21.4927C84.2293 21.9724 84.9847 22.2186 85.7543 22.1849C86.6236 22.1989 87.4645 21.8781 88.0999 21.2901C89.037 20.3615 89.0882 18.8476 89.0882 17.1142V14.9587C89.0882 12.3979 89.0882 11.9252 89.0541 11.3849C89.02 10.8446 88.8837 10.5463 88.3214 10.4282C88.1187 10.3945 87.9136 10.3776 87.7081 10.3775C87.5206 10.3775 87.4184 10.3437 87.4184 10.2256C87.4184 10.1074 87.5377 10.0736 87.7762 10.0736C88.6452 10.0736 89.7129 10.1243 89.73 10.1243C89.9344 10.1243 91.0078 10.0736 91.6667 10.0736C91.9052 10.0736 92.0245 10.1074 92.0245 10.2256C92.0245 10.3437 91.9222 10.3775 91.7178 10.3775C91.543 10.384 91.3696 10.4104 91.2009 10.4563C90.7409 10.5407 90.6046 10.8221 90.5705 11.4131C90.5364 12.004 90.5364 12.4261 90.5364 14.9868V16.7877C90.5364 18.6562 90.349 20.6429 88.9235 21.8529C87.9437 22.6906 86.6779 23.1254 85.3851 23.0685C84.4878 23.0685 82.8577 23.0179 81.6139 21.9035C80.7507 21.1325 80.1032 19.8831 80.1032 17.4406V14.9587Z" fill="#23569C"/>
<path d="M96.0797 10.1636C96.1309 9.87661 96.2274 9.72466 96.3637 9.72466C96.5 9.72466 96.6023 9.80908 96.8238 10.2481L101.464 19.7424L106.087 10.1299C106.206 9.85973 106.309 9.72466 106.462 9.72466C106.615 9.72466 106.717 9.89349 106.769 10.2481L108.313 20.6541C108.467 21.7122 108.637 22.2018 109.143 22.3425C109.483 22.4546 109.84 22.5116 110.199 22.5113C110.352 22.5113 110.472 22.5113 110.472 22.6295C110.472 22.7477 110.267 22.8153 110.029 22.8153C109.603 22.8153 107.257 22.7646 106.581 22.7139C106.189 22.6802 106.087 22.6295 106.087 22.5282C106.087 22.4269 106.155 22.3932 106.274 22.3425C106.394 22.2919 106.428 22.0892 106.36 21.6165L105.337 14.2101H105.269L101.566 21.8529C101.174 22.6464 101.089 22.7984 100.936 22.7984C100.782 22.7984 100.612 22.4607 100.368 21.9542C99.9588 21.1831 98.6128 18.5774 98.414 18.1328C98.2607 17.7782 97.2384 15.6565 96.642 14.3958H96.5739L95.6935 21.0987C95.6594 21.36 95.6423 21.6232 95.6424 21.8866C95.6424 22.2074 95.8639 22.3594 96.1536 22.4494C96.386 22.5055 96.6243 22.5339 96.8635 22.5339C96.9998 22.5339 97.1191 22.5676 97.1191 22.652C97.1191 22.7365 96.9657 22.8378 96.7102 22.8378C96.0002 22.8378 95.2335 22.7871 94.9268 22.7871C94.6201 22.7871 93.7909 22.8378 93.2229 22.8378C93.0526 22.8378 92.9163 22.804 92.9163 22.652C92.9163 22.5001 93.0185 22.5339 93.1889 22.5339C93.3608 22.5393 93.5326 22.5223 93.7 22.4832C94.1771 22.3819 94.3077 21.7234 94.3929 21.155L96.0968 10.1749L96.0797 10.1636Z" fill="#23569C"/>
<path d="M114.209 14.9586C114.209 12.3979 114.209 11.9252 114.175 11.3849C114.14 10.8446 114.004 10.5463 113.442 10.4281C113.224 10.399 113.003 10.3896 112.783 10.4C112.596 10.4 112.493 10.3662 112.493 10.2481C112.493 10.1299 112.613 10.0961 112.868 10.0961C113.766 10.0961 114.839 10.1468 115.18 10.1468C116.009 10.1468 116.674 10.0961 117.253 10.0961C120.325 10.0961 120.871 11.7282 120.871 12.623C120.871 14.0019 120.07 14.8292 119.138 15.5665C120.53 16.0392 122.228 17.2548 122.228 19.2021C122.228 21.0087 120.82 22.8772 117.684 22.8772C117.281 22.8772 115.731 22.7759 115.225 22.7759C114.833 22.7759 113.76 22.8265 113.084 22.8265C112.863 22.8265 112.743 22.7759 112.743 22.6577C112.743 22.5395 112.811 22.5226 113.016 22.5226C113.22 22.5227 113.424 22.5 113.624 22.4551C113.964 22.3875 114.05 22.0161 114.118 21.5321C114.203 20.823 114.203 19.4891 114.203 17.9415V14.9586H114.209ZM116.248 15.24C116.248 15.3751 116.299 15.4089 116.367 15.4258C116.631 15.4706 116.9 15.4876 117.168 15.4764C117.601 15.5285 118.038 15.4136 118.389 15.1556C118.635 14.9308 118.826 14.6532 118.947 14.3439C119.068 14.0347 119.116 13.7021 119.087 13.3716C119.087 12.246 118.423 10.7658 116.963 10.7658C116.773 10.7602 116.583 10.7715 116.395 10.7996C116.276 10.8334 116.242 10.9009 116.242 11.081V15.24H116.248ZM118.519 16.5907C118.103 16.3152 117.611 16.1737 117.111 16.1855H116.378C116.31 16.1855 116.276 16.2193 116.276 16.3037V20.2939C116.276 21.4195 116.327 21.6897 116.844 21.9092C117.238 22.0604 117.66 22.1293 118.082 22.1118C118.343 22.1269 118.605 22.0904 118.852 22.0043C119.098 21.9183 119.325 21.7844 119.519 21.6104C119.713 21.4365 119.871 21.2261 119.982 20.9913C120.093 20.7566 120.156 20.5023 120.166 20.2433C120.175 20.1497 120.175 20.0555 120.166 19.9619C120.192 19.3085 120.055 18.6589 119.768 18.0701C119.48 17.4814 119.052 16.9715 118.519 16.5851V16.5907Z" fill="#23569C"/>
<path d="M125.999 14.9587C125.999 12.3979 125.999 11.9252 125.965 11.3849C125.931 10.8446 125.767 10.5295 125.397 10.445C125.197 10.3946 124.991 10.3718 124.784 10.3775C124.614 10.3775 124.511 10.3437 124.511 10.2087C124.511 10.0736 124.648 10.0736 124.92 10.0736C125.568 10.0736 126.624 10.1243 127.13 10.1243C127.635 10.1243 128.555 10.0736 129.203 10.0736C129.424 10.0736 129.56 10.1074 129.56 10.2087C129.56 10.31 129.458 10.3775 129.288 10.3775C129.116 10.3776 128.945 10.3946 128.777 10.4282C128.317 10.5126 128.209 10.7996 128.146 11.3849C128.084 11.9702 128.118 12.4205 128.118 14.9587V17.9415C128.118 19.5736 128.118 20.9074 128.186 21.6278C128.237 22.0836 128.356 22.3875 128.868 22.4551C129.156 22.4943 129.446 22.5169 129.737 22.5226C129.918 22.5226 130.003 22.5733 130.003 22.6577C130.003 22.7421 129.873 22.8265 129.685 22.8265C128.549 22.8265 127.493 22.7759 127.033 22.7759C126.573 22.7759 125.573 22.8265 124.892 22.8265C124.67 22.8265 124.551 22.7759 124.551 22.6577C124.551 22.5395 124.619 22.5226 124.824 22.5226C125.03 22.5227 125.236 22.5001 125.437 22.4551C125.772 22.3875 125.874 22.1005 125.926 21.6109C126.011 20.9074 126.011 19.5736 126.011 17.9415V14.9587H125.999Z" fill="#23569C"/>
<path d="M136.342 18.4311C136.257 18.4311 136.223 18.4649 136.188 18.5662L135.274 20.9749C135.133 21.3001 135.046 21.6462 135.018 21.9992C135.018 22.3031 135.172 22.5226 135.694 22.5226H135.95C136.154 22.5226 136.206 22.5564 136.206 22.6577C136.206 22.759 136.103 22.8265 135.916 22.8265C135.348 22.8265 134.644 22.7759 134.115 22.7759C133.928 22.7759 132.98 22.8265 132.111 22.8265C131.889 22.8265 131.787 22.7927 131.787 22.6577C131.787 22.5226 131.855 22.5226 131.991 22.5226C132.168 22.5226 132.344 22.5113 132.52 22.4888C133.303 22.3875 133.621 21.8135 133.962 20.9749L138.227 10.4C138.432 9.91038 138.534 9.72466 138.704 9.72466C138.875 9.72466 138.96 9.87661 139.13 10.2875C139.539 11.2104 142.254 18.0822 143.345 20.6429C143.992 22.1568 144.481 22.3932 144.838 22.4776C145.074 22.5223 145.314 22.545 145.554 22.5451C145.69 22.5451 145.775 22.5451 145.775 22.6802C145.775 22.8153 145.622 22.849 144.992 22.849C144.361 22.849 143.14 22.849 141.777 22.8153C141.476 22.8153 141.272 22.8153 141.272 22.6802C141.272 22.5451 141.34 22.5451 141.51 22.5282C141.545 22.5163 141.577 22.4975 141.605 22.4732C141.632 22.4488 141.654 22.4193 141.67 22.3863C141.686 22.3533 141.695 22.3175 141.697 22.281C141.699 22.2445 141.693 22.208 141.681 22.1737V22.1399L140.317 18.5718C140.307 18.5357 140.285 18.5042 140.253 18.4827C140.222 18.4611 140.185 18.4509 140.147 18.4536L136.342 18.4311ZM139.806 17.5869C139.892 17.5869 139.909 17.5362 139.891 17.4856L138.341 13.3265C138.341 13.259 138.307 13.1746 138.256 13.1746C138.205 13.1746 138.171 13.259 138.154 13.3265L136.637 17.4687C136.637 17.5362 136.637 17.5869 136.705 17.5869H139.806Z" fill="#23569C"/>
<path d="M154.55 13.456C154.55 10.4 154.55 9.83721 154.511 9.18999C154.471 8.54278 154.306 8.18259 153.636 8.06441C153.373 8.02028 153.107 8.00143 152.841 8.00813C152.619 8.00813 152.5 7.9631 152.5 7.8224C152.5 7.6817 152.642 7.64231 152.943 7.64231C154.022 7.64231 155.3 7.70422 155.908 7.70422C156.396 7.70422 157.674 7.64231 158.407 7.64231C158.713 7.64231 158.855 7.6817 158.855 7.8224C158.855 7.9631 158.73 8.00813 158.532 8.00813C158.341 8.00986 158.151 8.02869 157.964 8.06441C157.396 8.16571 157.254 8.50901 157.214 9.18999C157.174 9.87098 157.169 10.4 157.169 13.456V16.2699C157.169 19.1852 157.736 20.4121 158.753 21.2225C159.469 21.7965 160.372 22.089 161.292 22.0442C162.335 22.0608 163.342 21.6707 164.098 20.958C165.233 19.8324 165.273 18.0428 165.273 15.966V13.456C165.273 10.4 165.273 9.83721 165.233 9.18999C165.194 8.54278 165.029 8.18259 164.359 8.06441C164.119 8.0231 163.875 8.00426 163.632 8.00813C163.405 8.00813 163.285 7.9631 163.285 7.8224C163.285 7.6817 163.427 7.64231 163.711 7.64231C164.745 7.64231 166.029 7.70422 166.046 7.70422C166.29 7.70422 167.568 7.64231 168.363 7.64231C168.647 7.64231 168.789 7.6817 168.789 7.8224C168.789 7.9631 168.664 8.00813 168.42 8.00813C168.229 8.00986 168.039 8.02869 167.852 8.06441C167.284 8.16571 167.142 8.50901 167.096 9.18999C167.051 9.87098 167.057 10.4 167.057 13.456V15.6115C167.057 17.8627 166.835 20.2208 165.126 21.6671C163.958 22.668 162.448 23.1876 160.906 23.1192C159.827 23.1192 157.878 23.0572 156.396 21.7291C155.357 20.8004 154.59 19.3147 154.59 16.3938V13.456H154.55Z" fill="#23569C"/>
<path d="M172.918 20.5359C172.952 21.8472 173.173 22.2862 173.514 22.4044C173.798 22.494 174.096 22.534 174.394 22.5226C174.582 22.5226 174.684 22.5564 174.684 22.6577C174.684 22.759 174.531 22.8265 174.292 22.8265C173.19 22.8265 172.509 22.7758 172.185 22.7758C172.032 22.7758 171.236 22.8265 170.35 22.8265C170.129 22.8265 169.981 22.8265 169.981 22.6577C169.981 22.4888 170.078 22.5226 170.248 22.5226C170.506 22.5282 170.764 22.4999 171.015 22.4382C171.458 22.3031 171.526 21.8135 171.543 20.3502L171.697 10.3831C171.697 10.0454 171.748 9.82032 171.912 9.82032C172.077 9.82032 172.253 10.0398 172.543 10.3437C172.747 10.5632 175.331 13.304 177.813 15.7465C178.949 16.8721 181.261 19.3147 181.55 19.5848H181.636L181.465 12.0265C181.465 10.9966 181.295 10.6814 180.897 10.5126C180.606 10.4284 180.303 10.3942 180 10.4113C179.796 10.4113 179.727 10.3606 179.727 10.2593C179.727 10.158 179.915 10.1073 180.17 10.1073C181.051 10.1073 181.874 10.158 182.226 10.158C182.414 10.158 183.056 10.1073 183.89 10.1073C184.112 10.1073 184.282 10.1073 184.282 10.2593C184.282 10.4112 184.18 10.4113 183.976 10.4113C183.804 10.4055 183.632 10.4225 183.464 10.4619C182.987 10.597 182.851 10.9459 182.834 11.8914L182.641 22.5057C182.641 22.8771 182.573 23.0291 182.419 23.0291C182.195 22.9692 181.995 22.8389 181.851 22.6577C180.784 21.6446 178.608 19.4385 176.836 17.7051C174.985 15.8872 173.099 13.7655 172.793 13.4616H172.742L172.929 20.5359H172.918Z" fill="#23569C"/>
<path d="M188.604 14.9587C188.604 12.3979 188.604 11.9252 188.57 11.3849C188.536 10.8446 188.366 10.5295 188.002 10.445C187.802 10.3946 187.596 10.3718 187.389 10.3775C187.219 10.3775 187.116 10.3437 187.116 10.2087C187.116 10.0736 187.253 10.0736 187.525 10.0736C188.167 10.0736 189.229 10.1243 189.735 10.1243C190.24 10.1243 191.16 10.0736 191.808 10.0736C192.029 10.0736 192.166 10.1074 192.166 10.2087C192.166 10.31 192.063 10.3775 191.893 10.3775C191.721 10.3776 191.55 10.3946 191.382 10.4282C190.922 10.5126 190.785 10.7996 190.751 11.3849C190.717 11.9702 190.717 12.3979 190.717 14.9587V17.9415C190.717 19.5736 190.717 20.9074 190.785 21.6278C190.837 22.0836 190.956 22.3875 191.467 22.4551C191.753 22.4946 192.041 22.5171 192.33 22.5226C192.518 22.5226 192.603 22.5733 192.603 22.6577C192.603 22.7421 192.467 22.8265 192.285 22.8265C191.149 22.8265 190.093 22.7759 189.632 22.7759C189.172 22.7759 188.167 22.8265 187.491 22.8265C187.27 22.8265 187.151 22.7759 187.151 22.6577C187.151 22.5395 187.219 22.5226 187.423 22.5226C187.63 22.5227 187.835 22.5001 188.037 22.4551C188.372 22.3875 188.474 22.1005 188.525 21.6109C188.61 20.9074 188.61 19.5736 188.61 17.9415V14.9587H188.604Z" fill="#23569C"/>
<path d="M196.067 11.7226C195.675 10.7996 195.386 10.597 194.778 10.445C194.56 10.3945 194.337 10.3718 194.113 10.3775C193.96 10.3775 193.909 10.3269 193.909 10.2256C193.909 10.1243 194.096 10.0736 194.352 10.0736C195.255 10.0736 196.22 10.1243 196.817 10.1243C197.243 10.1243 198.055 10.0736 198.907 10.0736C199.111 10.0736 199.299 10.1074 199.299 10.2256C199.299 10.3437 199.197 10.3775 199.043 10.3775C198.815 10.3542 198.585 10.3952 198.379 10.4957C198.322 10.5353 198.276 10.5887 198.247 10.6508C198.217 10.7129 198.204 10.7816 198.208 10.8503C198.282 11.2968 198.413 11.7319 198.6 12.1447L201.525 19.7874H201.588C202.32 17.9358 204.53 12.5161 204.939 11.4018C205.023 11.2051 205.075 10.996 205.092 10.7827C205.095 10.7126 205.076 10.6432 205.036 10.5853C204.996 10.5273 204.938 10.484 204.87 10.4619C204.649 10.3997 204.419 10.3713 204.189 10.3775C204.035 10.3775 203.899 10.3775 203.899 10.2424C203.899 10.1074 204.053 10.0736 204.376 10.0736C205.228 10.0736 205.938 10.1243 206.16 10.1243C206.381 10.1243 207.25 10.0736 207.756 10.0736C207.977 10.0736 208.113 10.1074 208.113 10.2256C208.113 10.3437 208.011 10.3775 207.846 10.3775C207.554 10.3622 207.264 10.4327 207.012 10.5801C206.79 10.7264 206.534 11.0135 206.074 12.094C205.416 13.6755 204.939 14.5872 204.035 16.6583C202.951 19.1177 202.15 20.9524 201.764 21.791C201.326 22.7702 201.224 23.0404 200.986 23.0404C200.747 23.0404 200.662 22.804 200.338 22.0105L196.067 11.7226Z" fill="#23569C"/>
<path d="M210.811 14.9586C210.811 12.3979 210.811 11.9252 210.777 11.3849C210.743 10.8446 210.607 10.5463 210.045 10.4281C209.825 10.3889 209.603 10.372 209.38 10.3775C209.198 10.3775 209.096 10.3437 209.096 10.2255C209.096 10.1074 209.215 10.0736 209.465 10.0736C210.368 10.0736 211.442 10.1242 211.913 10.1242H216.15C216.392 10.1017 216.637 10.068 216.883 10.0229C216.972 9.99515 217.063 9.9726 217.155 9.9554C217.24 9.9554 217.258 10.0229 217.258 10.1074C217.195 10.4675 217.15 10.8334 217.121 11.1992C217.121 11.368 217.07 12.1109 217.036 12.3248C217.038 12.3481 217.034 12.3716 217.026 12.3937C217.019 12.4158 217.006 12.4361 216.991 12.4535C216.975 12.4708 216.955 12.4848 216.934 12.4946C216.912 12.5044 216.889 12.5098 216.866 12.5105C216.746 12.5105 216.712 12.4261 216.712 12.2741C216.712 12.0673 216.678 11.8619 216.61 11.6663C216.491 11.3624 216.32 11.1598 215.474 11.0585C215.184 11.0247 213.401 10.9966 213.06 10.9966C212.975 10.9966 212.941 11.0416 212.941 11.1598V15.4201C212.941 15.5383 212.941 15.6059 213.06 15.6059C213.435 15.6059 215.389 15.6059 215.775 15.5721C216.07 15.5888 216.36 15.4988 216.593 15.3188C216.712 15.1838 216.78 15.0993 216.866 15.0993C216.951 15.0993 216.985 15.1387 216.985 15.2344C216.918 15.6427 216.873 16.0541 216.849 16.4669C216.815 16.8046 216.78 17.4743 216.78 17.5925C216.78 17.7107 216.78 17.9133 216.627 17.9133C216.609 17.9157 216.591 17.9145 216.573 17.9098C216.556 17.9051 216.54 17.897 216.525 17.886C216.511 17.875 216.499 17.8613 216.49 17.8457C216.481 17.8301 216.476 17.8129 216.474 17.7951V17.7614C216.462 17.5577 216.44 17.3548 216.406 17.1535C216.32 16.8215 216.082 16.5907 215.457 16.5007C215.133 16.4669 213.452 16.45 213.043 16.45C212.958 16.45 212.941 16.5176 212.941 16.6189V20.5584C212.975 21.7178 213.248 21.9711 214.98 21.9711C215.52 22.0053 216.062 21.9365 216.576 21.7685C217.019 21.5658 217.223 21.2057 217.343 20.5247C217.377 20.339 217.411 20.2714 217.53 20.2714C217.649 20.2714 217.666 20.4065 217.666 20.5753C217.64 21.1929 217.57 21.8079 217.456 22.4157C217.337 22.8546 217.184 22.8546 216.536 22.8546C213.969 22.8546 212.833 22.7533 211.828 22.7533C211.442 22.7533 210.368 22.804 209.687 22.804C209.471 22.804 209.352 22.7533 209.352 22.6352C209.352 22.517 209.42 22.5001 209.619 22.5001C209.825 22.5002 210.031 22.4775 210.232 22.4325C210.573 22.365 210.658 21.9936 210.726 21.5039C210.811 20.8004 210.811 19.4666 210.811 17.9189V14.9361V14.9586Z" fill="#23569C"/>
<path d="M222.483 14.9586C222.483 12.3979 222.483 11.9252 222.448 11.3849C222.414 10.8446 222.278 10.5463 221.721 10.4281C221.502 10.3889 221.28 10.3719 221.057 10.3775C220.87 10.3775 220.767 10.3437 220.767 10.2255C220.767 10.1073 220.887 10.0736 221.142 10.0736C222.045 10.0736 223.113 10.1242 223.471 10.1242C224.039 10.1242 225.339 10.0736 225.868 10.0736C226.959 9.99501 228.049 10.2483 228.991 10.7996C229.346 11.0713 229.633 11.4202 229.83 11.8193C230.027 12.2185 230.128 12.6571 230.127 13.1014C230.127 14.3508 229.599 15.4933 227.884 16.8777C229.394 18.7631 230.564 20.2545 231.57 21.3069C232.06 21.8817 232.729 22.2778 233.472 22.4325C233.63 22.4633 233.789 22.4803 233.949 22.4832C234.086 22.4832 234.154 22.5338 234.154 22.6183C234.154 22.7027 234.035 22.7871 233.83 22.7871H232.217C231.593 22.8479 230.964 22.7369 230.4 22.4663C229.667 22.078 229.02 21.2901 228.071 19.99C227.39 19.067 226.606 17.9189 226.367 17.6657C226.329 17.6238 226.281 17.5913 226.228 17.5708C226.175 17.5503 226.117 17.5423 226.061 17.5475L224.578 17.5137C224.493 17.5137 224.442 17.5475 224.442 17.6488V17.9133C224.442 19.4779 224.442 20.8117 224.527 21.5208C224.578 22.0048 224.681 22.3763 225.192 22.4438C225.468 22.483 225.747 22.5056 226.027 22.5113C226.163 22.5113 226.231 22.562 226.231 22.6464C226.231 22.7308 226.112 22.8152 225.89 22.8152C224.902 22.8152 223.618 22.7646 223.391 22.7646C223.164 22.7646 222 22.8152 221.318 22.8152C221.097 22.8152 220.977 22.7646 220.977 22.6464C220.977 22.5282 221.046 22.5113 221.25 22.5113C221.456 22.5114 221.662 22.4888 221.863 22.4438C222.199 22.3763 222.284 22.0048 222.352 21.5208C222.437 20.8117 222.437 19.4779 222.437 17.9302V14.9586H222.483ZM224.487 16.2868C224.487 16.4725 224.521 16.5401 224.641 16.5907C225.062 16.7085 225.498 16.7654 225.936 16.7596C226.359 16.8169 226.789 16.7145 227.14 16.4725C227.651 16.1011 228.145 15.3469 228.145 13.9456C228.145 11.5537 226.543 10.8671 225.544 10.8671C225.241 10.8501 224.937 10.8728 224.641 10.9346C224.521 10.9684 224.487 11.0303 224.487 11.1654V16.2868Z" fill="#23569C"/>
<path d="M235.421 22.6239C235.148 22.5057 235.097 22.4213 235.097 22.0611C235.097 21.1381 235.165 20.1251 235.182 19.8549C235.199 19.5848 235.25 19.4216 235.387 19.4216C235.523 19.4216 235.557 19.5679 235.557 19.703C235.574 19.995 235.625 20.284 235.71 20.5641C235.856 21.0796 236.177 21.5295 236.619 21.8372C237.061 22.145 237.597 22.2917 238.135 22.2525C239.669 22.2525 240.407 21.2282 240.407 20.3333C240.407 19.4385 240.157 18.7181 238.743 17.6375L237.965 17.0353C236.102 15.5833 235.46 14.3958 235.46 13.0451C235.46 11.1879 237.022 9.85972 239.385 9.85972C240.152 9.8479 240.917 9.94455 241.657 10.1467C241.81 10.1805 241.895 10.2312 241.895 10.3494C241.895 10.5688 241.827 11.0528 241.827 12.3698C241.827 12.7412 241.776 12.8763 241.64 12.8763C241.503 12.8763 241.469 12.775 241.469 12.5724C241.442 12.161 241.287 11.7681 241.026 11.4468C240.81 11.1692 240.528 10.9489 240.205 10.8056C239.882 10.6622 239.528 10.6002 239.175 10.6251C237.92 10.6251 237.153 11.3455 237.153 12.3585C237.153 13.1296 237.545 13.7205 238.953 14.7842L239.43 15.1387C241.469 16.7033 242.219 17.8289 242.219 19.4272C242.231 20.0115 242.09 20.5889 241.809 21.1028C241.528 21.6168 241.118 22.0498 240.617 22.3594C239.805 22.8442 238.868 23.0847 237.92 23.0516C237.07 23.0847 236.223 22.9349 235.438 22.6126L235.421 22.6239Z" fill="#23569C"/>
<path d="M246.995 14.9587C246.995 12.3979 246.995 11.9252 246.961 11.3849C246.927 10.8446 246.757 10.5295 246.393 10.445C246.193 10.3946 245.987 10.3718 245.78 10.3775C245.61 10.3775 245.507 10.3437 245.507 10.2087C245.507 10.0736 245.644 10.0736 245.916 10.0736C246.564 10.0736 247.62 10.1243 248.126 10.1243C248.631 10.1243 249.551 10.0736 250.199 10.0736C250.42 10.0736 250.557 10.1074 250.557 10.2087C250.557 10.31 250.454 10.3775 250.284 10.3775C250.114 10.3774 249.945 10.3943 249.778 10.4282C249.318 10.5126 249.211 10.7996 249.148 11.3849C249.086 11.9702 249.091 12.4205 249.091 14.9587V17.9415C249.091 19.5736 249.091 20.9074 249.159 21.6278C249.211 22.0836 249.33 22.3875 249.835 22.4551C250.123 22.4943 250.413 22.5169 250.704 22.5226C250.892 22.5226 250.977 22.5733 250.977 22.6577C250.977 22.7421 250.841 22.8265 250.653 22.8265C249.517 22.8265 248.461 22.7759 248.001 22.7759C247.541 22.7759 246.541 22.8265 245.86 22.8265C245.638 22.8265 245.519 22.7759 245.519 22.6577C245.519 22.5395 245.587 22.5226 245.791 22.5226C245.998 22.5227 246.204 22.5001 246.405 22.4551C246.746 22.3875 246.848 22.1005 246.899 21.6109C246.984 20.9074 246.984 19.5736 246.984 17.9415V14.9587H246.995Z" fill="#23569C"/>
<path d="M258.604 11.0191L256.071 11.0866C255.083 11.1204 254.674 11.2048 254.424 11.5762C254.294 11.7552 254.196 11.9551 254.134 12.1672C254.1 12.3022 254.049 12.3698 253.947 12.3698C253.845 12.3698 253.794 12.2853 253.794 12.0996C253.794 11.9139 254.117 10.2987 254.152 10.1636C254.203 9.94412 254.254 9.84282 254.356 9.84282C254.591 9.93325 254.835 10.0011 255.083 10.0454C255.577 10.0961 256.219 10.1298 256.787 10.1298H263.511C264.061 10.1356 264.61 10.0789 265.147 9.96101C265.261 9.96101 265.278 10.0623 265.278 10.3156C265.278 10.6701 265.232 11.8295 265.232 12.2685C265.232 12.4373 265.181 12.5386 265.079 12.5386C264.977 12.5386 264.909 12.4542 264.891 12.2009V12.0152C264.857 11.5762 264.397 11.1035 262.887 11.0697L260.728 11.0191V17.9414C260.728 19.4947 260.728 20.8229 260.808 21.5489C260.865 22.0161 260.967 22.3875 261.472 22.455C261.76 22.4943 262.051 22.5169 262.341 22.5226C262.529 22.5226 262.614 22.5732 262.614 22.6576C262.614 22.7421 262.478 22.8265 262.29 22.8265C261.154 22.8265 260.098 22.7758 259.621 22.7758C259.144 22.7758 258.178 22.8377 257.48 22.8377C257.258 22.8377 257.139 22.7871 257.139 22.6689C257.139 22.5507 257.207 22.5338 257.412 22.5338C257.618 22.5339 257.824 22.5113 258.025 22.4663C258.366 22.3988 258.468 22.0273 258.519 21.5433C258.604 20.8342 258.604 19.506 258.604 17.9527V11.0191V11.0191Z" fill="#23569C"/>
<path d="M272.695 18.4761C272.722 17.8639 272.589 17.2552 272.309 16.7089C272.19 16.4388 269.912 12.7356 269.316 11.8577C269.018 11.3615 268.62 10.9321 268.146 10.597C267.926 10.4745 267.682 10.3996 267.43 10.3775C267.294 10.3775 267.175 10.3437 267.175 10.2256C267.175 10.1074 267.294 10.0736 267.498 10.0736C267.805 10.0736 269.077 10.1243 269.64 10.1243C269.997 10.1243 270.69 10.0736 271.457 10.0736C271.627 10.0736 271.713 10.1243 271.713 10.2256C271.713 10.3269 271.593 10.3437 271.338 10.4113C271.269 10.4269 271.207 10.4656 271.164 10.521C271.12 10.5764 271.097 10.645 271.099 10.7152C271.128 10.9147 271.197 11.1062 271.304 11.278C271.542 11.7845 273.922 15.8422 274.195 16.3431C274.365 15.9379 276.506 12.2347 276.745 11.7113C276.881 11.4391 276.96 11.1424 276.978 10.839C276.983 10.7377 276.949 10.6382 276.884 10.5601C276.819 10.4819 276.727 10.4309 276.625 10.4169C276.472 10.3831 276.319 10.3494 276.319 10.2481C276.319 10.1468 276.404 10.0961 276.608 10.0961C277.176 10.0961 277.71 10.1468 278.204 10.1468C278.579 10.1468 279.698 10.0961 280.022 10.0961C280.209 10.0961 280.328 10.1299 280.328 10.2312C280.328 10.3325 280.192 10.4 280.005 10.4C279.743 10.4134 279.487 10.4825 279.255 10.6026C278.887 10.7987 278.573 11.0808 278.341 11.4243C277.153 13.1469 276.071 14.9379 275.098 16.7877C274.892 17.3259 274.804 17.9017 274.842 18.4761V19.855C274.842 20.1251 274.842 20.8342 274.893 21.5434C274.927 22.0274 275.081 22.3988 275.586 22.4663C275.868 22.5056 276.153 22.5282 276.438 22.5339C276.625 22.5339 276.711 22.5845 276.711 22.6689C276.711 22.7534 276.574 22.8378 276.353 22.8378C275.279 22.8378 274.212 22.7871 273.752 22.7871C273.292 22.7871 272.258 22.8378 271.627 22.8378C271.389 22.8378 271.253 22.804 271.253 22.6689C271.253 22.5339 271.338 22.5339 271.525 22.5339C271.726 22.534 271.926 22.5113 272.122 22.4663C272.462 22.3988 272.616 22.0274 272.65 21.5434C272.701 20.8342 272.701 20.1251 272.701 19.855V18.4761H272.695Z" fill="#23569C"/>
<path d="M37.3027 35.8608V33.5196C37.3027 33.165 37.1721 32.9568 36.9279 32.9005C36.7959 32.8686 36.6604 32.8534 36.5246 32.8555C36.411 32.8555 36.3429 32.8555 36.3429 32.7429C36.3429 32.6304 36.4338 32.6529 36.6098 32.6529C37.0358 32.6529 37.7457 32.6867 38.0638 32.6867C38.3818 32.6867 39.0009 32.6529 39.4269 32.6529C39.5688 32.6529 39.6597 32.6529 39.6597 32.7429C39.6597 32.833 39.5916 32.8555 39.4836 32.8555C39.3711 32.8553 39.2588 32.8666 39.1486 32.8893C38.8419 32.9455 38.7567 33.1313 38.734 33.5196C38.7112 33.9079 38.734 34.1837 38.734 35.8608V37.8081C38.734 38.883 38.734 39.7553 38.7794 40.2337C38.8135 40.532 38.8873 40.729 39.2224 40.7965C39.4106 40.8227 39.6003 40.8377 39.7903 40.8415C39.9096 40.8415 39.9664 40.8753 39.9664 40.926C39.9664 40.9766 39.8755 41.0385 39.7563 41.0385C39.0179 41.0385 38.3137 41.0047 38.0127 41.0047C37.7116 41.0047 37.0528 41.0385 36.6098 41.0385C36.4622 41.0385 36.3827 41.0047 36.3827 40.926C36.3827 40.8472 36.4281 40.8415 36.5644 40.8415C36.6982 40.8408 36.8315 40.8257 36.962 40.7965C37.1891 40.7515 37.2573 40.5658 37.2857 40.2337C37.3425 39.7722 37.3425 38.8999 37.3425 37.825V35.8608H37.3027Z" fill="#23569C"/>
<path d="M43.5444 39.5134C43.5444 40.3744 43.7091 40.6389 43.9306 40.7403C44.1142 40.7975 44.3061 40.8241 44.4985 40.819C44.6178 40.819 44.686 40.819 44.686 40.9035C44.686 40.9879 44.5837 41.016 44.4304 41.016C43.7034 41.016 43.2604 40.9823 43.0446 40.9823C42.9424 40.9823 42.4198 41.016 41.8405 41.016C41.6929 41.016 41.5963 41.016 41.5963 40.9035C41.5963 40.7909 41.6815 40.8472 41.7894 40.8472C41.9597 40.8511 42.1297 40.8321 42.2949 40.7909C42.5845 40.7009 42.63 40.3801 42.6413 39.4177L42.7379 32.8724C42.7379 32.6529 42.772 32.4953 42.8856 32.4953C42.9991 32.4953 43.1071 32.6416 43.2945 32.8386C43.4819 33.0356 45.129 34.7859 46.759 36.3899C47.5143 37.1384 49.0308 38.7311 49.2125 38.9112H49.2693L49.1728 33.9136C49.1728 33.2438 49.0592 33.03 48.7922 32.923C48.6075 32.8722 48.416 32.8494 48.2243 32.8555C48.088 32.8555 48.0482 32.8217 48.0482 32.7542C48.0482 32.6867 48.1675 32.6529 48.3379 32.6529C48.9058 32.6529 49.4738 32.6867 49.6839 32.6867C49.8089 32.6867 50.2519 32.6529 50.7801 32.6529C50.9277 32.6529 51.0356 32.6529 51.0356 32.7542C51.0356 32.8555 50.9675 32.8555 50.8369 32.8555C50.7241 32.8497 50.6111 32.8611 50.5018 32.8893C50.1894 32.9737 50.0985 33.2101 50.0872 33.8291L49.9679 40.8078C49.9679 41.0498 49.9225 41.1511 49.8202 41.1511C49.718 41.1511 49.5646 41.0273 49.4397 40.9035C48.7354 40.2394 47.3099 38.793 46.1513 37.6561C44.9927 36.5193 43.692 35.0785 43.4933 34.8422H43.4592L43.5841 39.4908L43.5444 39.5134Z" fill="#23569C"/>
<path d="M59.4525 33.2776L57.7941 33.317C57.1466 33.317 56.8797 33.3958 56.7093 33.6378C56.6266 33.7567 56.5633 33.8877 56.5219 34.0261C56.5234 34.0433 56.5214 34.0606 56.5158 34.077C56.5102 34.0933 56.5013 34.1083 56.4895 34.121C56.4778 34.1338 56.4635 34.1439 56.4475 34.1508C56.4316 34.1577 56.4143 34.1613 56.3969 34.1612C56.3288 34.1612 56.2947 34.1049 56.2947 33.9811C56.2947 33.8573 56.5105 32.7992 56.5332 32.7092C56.5559 32.6191 56.6014 32.5009 56.6638 32.5009C56.8197 32.5622 56.9814 32.6075 57.1466 32.636C57.4703 32.636 57.8906 32.6867 58.2825 32.6867H62.7012C62.9595 32.6866 63.2175 32.6697 63.4736 32.636C63.5727 32.6113 63.6732 32.5925 63.7746 32.5797C63.8541 32.5797 63.8655 32.6473 63.8655 32.8105C63.8655 32.9737 63.8314 33.8066 63.8314 34.0936C63.8314 34.2006 63.7973 34.2681 63.7291 34.2681C63.661 34.2681 63.6212 34.2175 63.6099 34.0486V33.9304C63.6099 33.6378 63.2861 33.3282 62.2922 33.3057H60.8837V37.8081C60.8837 38.8267 60.8837 39.6991 60.9405 40.1775C60.9746 40.487 61.0427 40.7403 61.3778 40.774C61.5661 40.8002 61.7557 40.8152 61.9458 40.819C62.0651 40.819 62.1218 40.819 62.1218 40.9035C62.1218 40.9879 62.0367 41.016 61.9117 41.016C61.1734 41.016 60.4691 40.9822 60.1567 40.9822C59.8444 40.9822 59.1969 41.016 58.7539 41.016C58.6062 41.016 58.5324 40.9823 58.5324 40.9035C58.5324 40.8247 58.5722 40.819 58.7085 40.819C58.8441 40.8183 58.9793 40.8032 59.1117 40.774C59.3332 40.729 59.4014 40.487 59.4354 40.1662C59.4922 39.6991 59.4922 38.8267 59.4922 37.8081V33.3057L59.4525 33.2776Z" fill="#23569C"/>
<path d="M72.1861 36.1703C72.2042 36.1703 72.2215 36.1632 72.2343 36.1506C72.2471 36.1379 72.2542 36.1207 72.2542 36.1028V36.1028V33.5196C72.2542 33.165 72.1463 32.9568 71.7772 32.8892C71.6325 32.8666 71.4863 32.8553 71.3398 32.8555C71.2149 32.8555 71.1524 32.8555 71.1524 32.7542C71.1524 32.6529 71.2263 32.6529 71.3853 32.6529C71.9873 32.6529 72.6916 32.6866 72.9926 32.6866C73.2936 32.6866 73.9638 32.6529 74.3954 32.6529C74.5544 32.6529 74.634 32.6529 74.634 32.7542C74.634 32.8555 74.5658 32.8555 74.4295 32.8555C74.3207 32.8556 74.2122 32.8669 74.1058 32.8892C73.8047 32.9455 73.7196 33.1312 73.6968 33.5196C73.6741 33.9079 73.6968 34.1837 73.6968 35.8608V37.8081C73.6968 38.8267 73.6968 39.6991 73.7536 40.1774C73.782 40.487 73.8502 40.7402 74.1853 40.774C74.3735 40.8002 74.5632 40.8152 74.7532 40.819C74.8782 40.819 74.935 40.8528 74.935 40.9034C74.935 40.9541 74.8441 41.016 74.7135 41.016C73.9865 41.016 73.2822 40.9822 72.9699 40.9822C72.6575 40.9822 72.01 41.016 71.5727 41.016C71.4194 41.016 71.3398 40.9822 71.3398 40.9034C71.3398 40.8246 71.3853 40.819 71.5216 40.819C71.6554 40.8182 71.7887 40.8031 71.9192 40.774C72.1463 40.729 72.1974 40.487 72.2429 40.1662C72.2997 39.6991 72.2997 38.8267 72.2997 37.8081V36.8344C72.2997 36.8165 72.2925 36.7993 72.2797 36.7867C72.2669 36.774 72.2496 36.7669 72.2315 36.7669H67.9151C67.9069 36.7661 67.8986 36.767 67.8907 36.7694C67.8828 36.7718 67.8755 36.7757 67.8692 36.781C67.8629 36.7862 67.8576 36.7926 67.8538 36.7999C67.85 36.8071 67.8477 36.815 67.8469 36.8232V37.8081C67.8469 38.8267 67.8469 39.6991 67.9037 40.1774C67.9378 40.487 68.0003 40.7402 68.3354 40.774C68.5236 40.8002 68.7133 40.8152 68.9033 40.819C69.0226 40.819 69.0794 40.8528 69.0794 40.9034C69.0794 40.9541 68.9885 41.016 68.8579 41.016C68.1309 41.016 67.4267 40.9822 67.1143 40.9822C66.8019 40.9822 66.1545 41.016 65.7115 41.016C65.5638 41.016 65.4843 40.9822 65.4843 40.9034C65.4843 40.8246 65.5297 40.819 65.666 40.819C65.7998 40.8182 65.9331 40.8031 66.0636 40.774C66.2908 40.729 66.3476 40.487 66.3873 40.1662C66.4441 39.6991 66.4441 38.8267 66.4441 37.8081V33.5196C66.4441 33.165 66.3362 32.9568 65.967 32.8892C65.8224 32.8666 65.6762 32.8553 65.5297 32.8555C65.4104 32.8555 65.3423 32.8555 65.3423 32.7542C65.3423 32.6529 65.4218 32.6529 65.5751 32.6529C66.1772 32.6529 66.8814 32.6866 67.1824 32.6866C67.4835 32.6866 68.1536 32.6529 68.591 32.6529C68.7443 32.6529 68.8238 32.6529 68.8238 32.7542C68.8238 32.8555 68.7557 32.8555 68.625 32.8555C68.5144 32.8556 68.404 32.8669 68.2956 32.8892C67.9946 32.9455 67.9094 33.1312 67.8867 33.5196C67.864 33.9079 67.8867 34.1837 67.8867 35.8608V36.0972C67.8859 36.106 67.8869 36.115 67.8897 36.1235C67.8924 36.132 67.8968 36.1398 67.9026 36.1466C67.9084 36.1534 67.9155 36.159 67.9235 36.1631C67.9315 36.1672 67.9402 36.1696 67.9492 36.1703H72.1861Z" fill="#23569C"/>
<path d="M77.8771 35.8608V33.5196C77.8771 33.165 77.7692 32.9568 77.4 32.8893C77.2554 32.8666 77.1091 32.8553 76.9627 32.8555C76.8434 32.8555 76.7753 32.8555 76.7753 32.7542C76.7753 32.6529 76.8548 32.6585 77.0195 32.6585C77.5874 32.6585 78.3144 32.6923 78.6268 32.6923H81.4154C81.5778 32.6812 81.7391 32.6586 81.8982 32.6247C81.9552 32.6038 82.0141 32.5887 82.0742 32.5797C82.131 32.5797 82.1424 32.6247 82.1424 32.681C82.0978 32.9173 82.0675 33.1559 82.0515 33.3958C82.0515 33.5083 82.0174 33.998 81.9947 34.1274C81.972 34.2568 81.9947 34.2512 81.8868 34.2512C81.7789 34.2512 81.7846 34.1949 81.7846 34.0936C81.7846 33.9576 81.7615 33.8225 81.7164 33.694C81.6426 33.4971 81.529 33.362 80.9724 33.3001C80.7793 33.3001 79.6093 33.2551 79.3878 33.2551C79.331 33.2551 79.3083 33.2888 79.3083 33.362V36.176C79.3083 36.2548 79.3083 36.2998 79.3878 36.2998H81.1712C81.3633 36.3117 81.5531 36.2536 81.7051 36.1366C81.7846 36.0465 81.83 35.9903 81.8868 35.9903C81.9436 35.9903 81.9663 35.9903 81.9663 36.0803C81.9217 36.3468 81.8914 36.6154 81.8755 36.8851C81.8755 37.1102 81.83 37.5492 81.83 37.628C81.83 37.7068 81.83 37.8362 81.7278 37.8362C81.7166 37.8378 81.7052 37.8372 81.6942 37.8343C81.6833 37.8315 81.673 37.8265 81.664 37.8197C81.655 37.8129 81.6475 37.8044 81.6419 37.7946C81.6363 37.7849 81.6326 37.7742 81.6312 37.7631V37.7631C81.6248 37.629 81.6097 37.4956 81.5858 37.3635C81.529 37.1384 81.37 36.9751 80.9611 36.9301C80.7452 36.9301 79.6434 36.8964 79.3765 36.8964C79.3197 36.8964 79.3083 36.9414 79.3083 37.0089V39.5246C79.3083 40.2844 79.5071 40.4532 80.6487 40.4532C81.0026 40.4761 81.3576 40.4302 81.6937 40.3181C81.989 40.1887 82.1197 39.9523 82.1992 39.5021C82.1992 39.3783 82.2446 39.3333 82.3241 39.3333C82.4036 39.3333 82.4093 39.4233 82.4093 39.5359C82.3932 39.9478 82.3457 40.3579 82.2673 40.7628C82.1878 41.0498 82.0856 41.0498 81.6653 41.0498C79.9615 41.0498 79.2288 40.9822 78.57 40.9822C78.3144 40.9822 77.6101 41.016 77.1671 41.016C77.0195 41.016 76.94 40.9822 76.94 40.9035C76.94 40.8247 76.9854 40.819 77.1217 40.819C77.2574 40.8183 77.3925 40.8032 77.525 40.774C77.7465 40.729 77.8033 40.487 77.843 40.1662C77.8998 39.6991 77.8998 38.8267 77.8998 37.8081V35.8608H77.8771Z" fill="#23569C"/>
<path d="M89.5822 39.9636C89.1603 39.5686 88.8212 39.0951 88.584 38.5702C88.3468 38.0453 88.2163 37.4792 88.2 36.9044C88.1836 36.3295 88.2817 35.757 88.4887 35.2197C88.6957 34.6824 89.0074 34.1907 89.4061 33.7728L89.497 33.6715C90.4705 32.8351 91.7385 32.4143 93.024 32.5009C93.5656 32.499 94.1066 32.5366 94.6426 32.6135C95.0629 32.6641 95.4207 32.7654 95.7785 32.7992C95.9035 32.7992 95.9489 32.8667 95.9489 32.9343C95.9489 33.0018 95.9148 33.1538 95.8921 33.5421C95.8694 33.9304 95.8921 34.5157 95.858 34.7352C95.824 34.9547 95.824 34.9885 95.7217 34.9885C95.6195 34.9885 95.6138 34.8984 95.6138 34.7465C95.5982 34.3655 95.4427 34.0032 95.1765 33.7278C94.531 33.2284 93.7216 32.9838 92.9047 33.0412C92.1419 32.9858 91.3881 33.2327 90.809 33.7278C90.4413 34.105 90.1593 34.5558 89.982 35.0499C89.8047 35.5439 89.7362 36.0699 89.781 36.5924C89.781 39.2263 91.8029 40.532 93.2966 40.532C94.2905 40.532 94.8925 40.4194 95.3412 39.9073C95.5178 39.6951 95.6457 39.4474 95.716 39.1813C95.7501 39.0012 95.7728 38.9618 95.8637 38.9618C95.9546 38.9618 95.9603 39.035 95.9603 39.125C95.9252 39.6193 95.853 40.1103 95.7444 40.5939C95.7342 40.67 95.7011 40.7413 95.6494 40.7985C95.5978 40.8557 95.53 40.8962 95.4548 40.9147C94.8027 41.1055 94.1238 41.191 93.4443 41.168C92.0617 41.2504 90.6976 40.8212 89.6163 39.9636H89.5822Z" fill="#23569C"/>
<path d="M98.9139 35.8608V33.5196C98.9139 33.165 98.7833 32.9568 98.5334 32.9005C98.4034 32.8686 98.2698 32.8535 98.1359 32.8555C98.0223 32.8555 97.9541 32.8555 97.9541 32.7429C97.9541 32.6304 98.045 32.6529 98.221 32.6529C98.647 32.6529 99.3569 32.6867 99.675 32.6867C99.993 32.6867 100.612 32.6529 101.038 32.6529C101.18 32.6529 101.271 32.6529 101.271 32.7429C101.271 32.833 101.203 32.8555 101.089 32.8555C100.977 32.8553 100.864 32.8666 100.754 32.8893C100.453 32.9455 100.368 33.1313 100.345 33.5196C100.322 33.9079 100.345 34.1837 100.345 35.8608V37.8081C100.345 38.883 100.345 39.7553 100.391 40.2337C100.391 40.532 100.499 40.729 100.834 40.7965C101.022 40.8227 101.212 40.8377 101.402 40.8415C101.527 40.8415 101.583 40.8753 101.583 40.926C101.583 40.9766 101.492 41.0385 101.373 41.0385C100.635 41.0385 99.9306 41.0047 99.6296 41.0047C99.3285 41.0047 98.6697 41.0385 98.221 41.0385C98.0791 41.0385 97.9995 41.0047 97.9995 40.926C97.9995 40.8472 98.045 40.8415 98.1813 40.8415C98.3151 40.8408 98.4484 40.8257 98.5789 40.7965C98.806 40.7515 98.8685 40.5658 98.9026 40.2337C98.9594 39.7722 98.9594 38.8999 98.9594 37.825V35.8608H98.9139Z" fill="#23569C"/>
<path d="M106.013 33.2776L104.349 33.317C103.702 33.317 103.435 33.3958 103.264 33.6378C103.182 33.7567 103.118 33.8877 103.077 34.0261C103.078 34.0433 103.076 34.0606 103.071 34.077C103.065 34.0933 103.056 34.1083 103.045 34.121C103.033 34.1338 103.018 34.1439 103.002 34.1508C102.987 34.1577 102.969 34.1613 102.952 34.1612C102.884 34.1612 102.855 34.1049 102.855 33.9811C102.855 33.8573 103.065 32.7992 103.088 32.7092C103.111 32.6191 103.156 32.5009 103.225 32.5009C103.378 32.5631 103.538 32.6084 103.702 32.636C104.025 32.636 104.451 32.6867 104.837 32.6867H109.256C109.513 32.6866 109.769 32.6697 110.023 32.636C110.122 32.6113 110.223 32.5925 110.324 32.5797C110.403 32.5797 110.415 32.6473 110.415 32.8105C110.415 32.9737 110.381 33.8066 110.381 34.0936C110.381 34.2006 110.347 34.2681 110.278 34.2681C110.21 34.2681 110.171 34.2175 110.159 34.0486V33.9304C110.159 33.6378 109.835 33.3282 108.842 33.3057H107.433V37.8081C107.433 38.8267 107.433 39.6991 107.49 40.1775C107.524 40.487 107.592 40.7403 107.927 40.774C108.115 40.8002 108.305 40.8152 108.495 40.819C108.62 40.819 108.677 40.819 108.677 40.9035C108.677 40.9879 108.586 41.016 108.461 41.016C107.728 41.016 107.024 40.9822 106.712 40.9822C106.399 40.9822 105.752 41.016 105.303 41.016C105.161 41.016 105.082 40.9823 105.082 40.9035C105.082 40.8247 105.127 40.819 105.258 40.819C105.393 40.8183 105.529 40.8032 105.661 40.774C105.883 40.729 105.951 40.487 105.985 40.1662C106.042 39.6991 106.042 38.8267 106.042 37.8081V33.3057L106.013 33.2776Z" fill="#23569C"/>
<path d="M114.322 38.1739C114.34 37.772 114.252 37.3724 114.067 37.0146C113.987 36.8345 112.493 34.4032 112.102 33.8291C111.904 33.5102 111.643 33.2344 111.335 33.0187C111.189 32.9416 111.028 32.8938 110.863 32.878C110.773 32.878 110.699 32.878 110.699 32.7767C110.699 32.6754 110.773 32.6754 110.909 32.6754C111.045 32.6754 111.948 32.7092 112.317 32.7092C112.55 32.7092 113.005 32.6754 113.51 32.6754C113.618 32.6754 113.675 32.7092 113.675 32.7767C113.675 32.8442 113.601 32.8555 113.431 32.9005C113.386 32.9099 113.345 32.9348 113.317 32.9709C113.289 33.0071 113.275 33.0519 113.277 33.0975C113.295 33.2306 113.339 33.3588 113.408 33.4746C113.567 33.8066 115.112 36.4686 115.305 36.7782C115.418 36.5137 116.821 34.0824 116.98 33.7391C117.071 33.5643 117.123 33.3725 117.134 33.1763C117.138 33.1094 117.117 33.0433 117.073 32.9918C117.03 32.9404 116.968 32.9076 116.901 32.9005C116.799 32.9005 116.702 32.8555 116.702 32.788C116.702 32.7204 116.759 32.6867 116.889 32.6867C117.259 32.6867 117.616 32.7204 117.94 32.7204C118.264 32.7204 118.923 32.6867 119.133 32.6867C119.258 32.6867 119.337 32.6867 119.337 32.7767C119.337 32.8668 119.246 32.8893 119.121 32.8893C118.952 32.901 118.786 32.945 118.633 33.0187C118.389 33.1544 118.182 33.3477 118.031 33.5815C117.252 34.7127 116.539 35.8871 115.895 37.099C115.759 37.4579 115.703 37.842 115.731 38.2246V39.1307C115.731 39.3051 115.731 39.7722 115.765 40.2562C115.765 40.577 115.884 40.819 116.219 40.8641C116.408 40.8884 116.597 40.9015 116.787 40.9035C116.906 40.9035 116.963 40.9372 116.963 40.9935C116.963 41.0498 116.872 41.1061 116.73 41.1061C116.026 41.1061 115.322 41.0723 115.027 41.0723C114.731 41.0723 114.044 41.1061 113.629 41.1061C113.476 41.1061 113.385 41.1061 113.385 40.9935C113.385 40.8809 113.442 40.9035 113.567 40.9035C113.697 40.9046 113.826 40.8914 113.953 40.8641C114.18 40.819 114.282 40.577 114.3 40.2562C114.334 39.7891 114.334 39.322 114.334 39.1307V38.1739H114.322Z" fill="#23569C"/>
<path d="M123.819 36.8345C123.819 34.9435 125.079 32.5009 128.43 32.5009C131.208 32.5009 132.94 34.1049 132.94 36.6375C132.961 37.2121 132.868 37.7853 132.666 38.3242C132.464 38.8632 132.156 39.3574 131.761 39.7786C131.366 40.1998 130.891 40.5398 130.364 40.7792C129.836 41.0185 129.266 41.1526 128.686 41.1736C128.567 41.1736 128.442 41.1736 128.317 41.1736C127.195 41.2383 126.092 40.8603 125.25 40.1221C124.409 39.384 123.896 38.3456 123.824 37.234C123.819 37.0821 123.813 36.9583 123.819 36.8345ZM131.378 37.0483C131.378 34.5664 129.935 33.03 128.107 33.03C126.823 33.03 125.363 33.7391 125.363 36.4912C125.363 38.793 126.647 40.6164 128.771 40.6164C129.549 40.6164 131.361 40.2394 131.361 37.0483H131.378Z" fill="#23569C"/>
<path d="M137.25 37.8081C137.25 38.8718 137.25 39.6991 137.302 40.1662C137.336 40.487 137.404 40.729 137.739 40.774C137.927 40.8002 138.117 40.8152 138.307 40.819C138.455 40.819 138.5 40.819 138.5 40.9034C138.5 40.9879 138.42 41.016 138.25 41.016C137.551 41.016 136.847 40.9822 136.546 40.9822C136.245 40.9822 135.552 41.016 135.126 41.016C134.973 41.016 134.893 41.016 134.893 40.9034C134.893 40.7909 134.939 40.819 135.064 40.819C135.198 40.8183 135.331 40.8032 135.461 40.774C135.689 40.729 135.74 40.487 135.785 40.1662C135.842 39.6991 135.842 38.8718 135.842 37.8081V33.5196C135.842 33.165 135.728 32.9568 135.365 32.8893C135.22 32.8666 135.074 32.8553 134.928 32.8555C134.814 32.8555 134.74 32.8555 134.74 32.7654C134.74 32.6754 134.825 32.6529 134.996 32.6529C135.564 32.6529 136.279 32.6866 136.603 32.6866H139.545C139.699 32.6875 139.853 32.6743 140.005 32.6472C140.073 32.6472 140.13 32.5797 140.187 32.5797C140.244 32.5797 140.261 32.6247 140.261 32.6754C140.261 32.726 140.204 32.8893 140.17 33.1763C140.17 33.2888 140.141 33.936 140.119 34.0711C140.096 34.2062 140.085 34.2287 140.005 34.2287C139.925 34.2287 139.903 34.1724 139.891 34.0486C139.896 33.9053 139.875 33.7624 139.829 33.6265C139.746 33.5123 139.634 33.4217 139.504 33.3634C139.375 33.3052 139.232 33.2814 139.091 33.2945L137.387 33.2607C137.319 33.2607 137.29 33.2945 137.29 33.4183V36.1816C137.29 36.2491 137.29 36.2829 137.364 36.2829H139.295C139.385 36.2885 139.476 36.2737 139.559 36.2395C139.643 36.2054 139.718 36.1529 139.778 36.0859C139.835 36.0184 139.857 35.9734 139.92 35.9734C139.982 35.9734 139.988 36.0071 139.988 36.0747C139.988 36.1422 139.931 36.418 139.897 36.7557C139.897 36.9808 139.852 37.4873 139.852 37.5661C139.852 37.6449 139.852 37.7743 139.744 37.7743C139.636 37.7743 139.653 37.6955 139.653 37.6224C139.647 37.5052 139.624 37.3896 139.585 37.2791C139.538 37.1661 139.459 37.0687 139.359 36.998C139.258 36.9273 139.14 36.8862 139.017 36.8795C138.738 36.8457 137.557 36.8457 137.364 36.8457C137.313 36.8457 137.29 36.8457 137.29 36.947V37.8081H137.25Z" fill="#23569C"/>
<path d="M147.894 39.5134C147.894 40.3744 148.064 40.6389 148.285 40.7402C148.469 40.7975 148.661 40.8241 148.853 40.819C148.978 40.819 149.041 40.819 149.041 40.9035C149.041 40.9879 148.944 41.016 148.785 41.016C148.064 41.016 147.615 40.9822 147.405 40.9822C147.303 40.9822 146.775 41.016 146.195 41.016C146.053 41.016 145.951 41.016 145.951 40.9035C145.951 40.7909 146.019 40.819 146.133 40.819C146.301 40.8229 146.469 40.804 146.633 40.7628C146.922 40.6727 146.968 40.3519 146.979 39.3895L147.081 32.8442C147.081 32.6247 147.081 32.4672 147.223 32.4672C147.365 32.4672 147.445 32.6135 147.638 32.8105C147.831 33.0074 149.467 34.7577 151.097 36.3617C151.858 37.1102 153.369 38.7029 153.55 38.883H153.607L153.499 33.9135C153.499 33.2438 153.386 33.03 153.119 32.923C152.934 32.8722 152.742 32.8494 152.551 32.8555C152.414 32.8555 152.369 32.8217 152.369 32.7542C152.369 32.6867 152.494 32.6529 152.659 32.6529C153.227 32.6529 153.795 32.6867 154.01 32.6867C154.13 32.6867 154.578 32.6529 155.101 32.6529C155.248 32.6529 155.362 32.6529 155.362 32.7542C155.362 32.8555 155.294 32.8555 155.158 32.8555C155.045 32.8497 154.932 32.8611 154.823 32.8893C154.51 32.9737 154.425 33.2101 154.414 33.8291L154.289 40.8078C154.289 41.0498 154.243 41.1511 154.141 41.1511C154.039 41.1511 153.885 41.0273 153.766 40.9035C153.062 40.2394 151.631 38.793 150.472 37.6561C149.313 36.5193 148.019 35.0785 147.814 34.8422H147.78L147.905 39.4908L147.894 39.5134Z" fill="#23569C"/>
<path d="M158.406 35.8608V33.5196C158.406 33.165 158.293 32.9568 157.924 32.8893C157.781 32.8668 157.637 32.8555 157.492 32.8555C157.367 32.8555 157.299 32.8555 157.299 32.7542C157.299 32.6529 157.378 32.6585 157.549 32.6585C158.117 32.6585 158.844 32.6923 159.15 32.6923H161.945C162.105 32.6808 162.265 32.6582 162.422 32.6247C162.481 32.6038 162.542 32.5887 162.604 32.5797C162.66 32.5797 162.672 32.6247 162.672 32.681C162.627 32.9173 162.597 33.1559 162.581 33.3958C162.581 33.5083 162.547 33.998 162.524 34.1274C162.501 34.2568 162.49 34.2512 162.41 34.2512C162.331 34.2512 162.314 34.1949 162.314 34.0936C162.314 33.9576 162.291 33.8225 162.246 33.694C162.166 33.4971 162.053 33.362 161.496 33.3001C161.309 33.3001 160.139 33.2551 159.912 33.2551C159.855 33.2551 159.832 33.2888 159.832 33.362V36.176C159.832 36.2548 159.832 36.2998 159.912 36.2998H161.701C161.893 36.3117 162.083 36.2536 162.234 36.1366C162.314 36.0465 162.354 35.9903 162.41 35.9903C162.467 35.9903 162.49 35.9903 162.49 36.0803C162.445 36.3468 162.415 36.6154 162.399 36.8851C162.399 37.1102 162.354 37.5492 162.354 37.628C162.354 37.7068 162.354 37.8362 162.257 37.8362C162.161 37.8362 162.155 37.7912 162.155 37.7405C162.149 37.6065 162.133 37.473 162.109 37.341C162.053 37.1158 161.899 36.9526 161.485 36.9076C161.275 36.9076 160.167 36.8738 159.9 36.8738C159.843 36.8738 159.832 36.9189 159.832 36.9864V39.5246C159.832 40.2844 160.036 40.4532 161.172 40.4532C161.528 40.4761 161.885 40.4303 162.223 40.3181C162.513 40.1887 162.649 39.9523 162.723 39.5021C162.723 39.3783 162.768 39.3333 162.848 39.3333C162.927 39.3333 162.939 39.4233 162.939 39.5359C162.921 39.9479 162.871 40.3581 162.791 40.7628C162.711 41.0498 162.615 41.0498 162.189 41.0498C160.485 41.0498 159.758 40.9822 159.099 40.9822C158.844 40.9822 158.14 41.016 157.691 41.016C157.549 41.016 157.469 40.9822 157.469 40.9035C157.469 40.8247 157.515 40.819 157.645 40.819C157.781 40.8183 157.916 40.8032 158.049 40.774C158.27 40.729 158.327 40.487 158.372 40.1662C158.429 39.6991 158.429 38.8267 158.429 37.8081V35.8608H158.406Z" fill="#23569C"/>
<path d="M165.034 33.7391C164.973 33.4432 164.83 33.1702 164.62 32.9512C164.481 32.8884 164.33 32.8557 164.177 32.8555C164.063 32.8555 163.995 32.8555 163.995 32.7542C163.995 32.6529 164.086 32.6529 164.239 32.6529C164.807 32.6529 165.438 32.6866 165.534 32.6866C165.631 32.6866 166.102 32.6529 166.772 32.6529C166.931 32.6529 167.011 32.6866 167.011 32.7542C167.011 32.8442 166.92 32.8555 166.806 32.8555C166.711 32.8471 166.616 32.8625 166.528 32.9005C166.432 32.9399 166.409 33.0187 166.409 33.1425C166.465 33.4876 166.546 33.8281 166.653 34.1612C166.841 34.8872 167.88 38.2414 168.079 38.8605H168.113L170.282 33.1087C170.402 32.7992 170.47 32.7091 170.561 32.7091C170.651 32.7091 170.737 32.878 170.884 33.2325L173.202 38.793H173.236C173.44 38.0501 174.332 35.1292 174.724 33.8404C174.788 33.6322 174.824 33.4164 174.832 33.1988C174.832 33.0187 174.729 32.8667 174.298 32.8667C174.184 32.8667 174.105 32.833 174.105 32.7654C174.105 32.6979 174.195 32.6641 174.366 32.6641C174.934 32.6641 175.422 32.6979 175.502 32.6979C175.581 32.6979 176.07 32.6641 176.428 32.6641C176.552 32.6641 176.626 32.6641 176.626 32.7542C176.626 32.8442 176.57 32.8667 176.473 32.8667C176.34 32.8656 176.208 32.8846 176.081 32.923C175.814 33.0187 175.689 33.4858 175.456 34.0936C174.945 35.4837 173.752 39.0012 173.224 40.6614C173.099 41.0498 173.048 41.1792 172.901 41.1792C172.753 41.1792 172.724 41.0498 172.554 40.6164L170.237 35.0785C170.021 35.6413 168.533 39.5809 168.062 40.5714C167.846 41.0273 167.789 41.1342 167.658 41.1342C167.528 41.1342 167.488 41.016 167.403 40.729L165.034 33.7391Z" fill="#23569C"/>
<path d="M183.879 38.1739C183.894 37.7722 183.806 37.3733 183.624 37.0145C183.544 36.8345 182.05 34.4032 181.658 33.8291C181.461 33.5086 181.198 33.2326 180.886 33.0187C180.742 32.9409 180.584 32.893 180.42 32.878C180.329 32.878 180.25 32.878 180.25 32.7767C180.25 32.6754 180.329 32.6754 180.466 32.6754C180.602 32.6754 181.505 32.7092 181.869 32.7092C182.107 32.7092 182.561 32.6754 183.067 32.6754C183.175 32.6754 183.232 32.7092 183.232 32.7767C183.232 32.8442 183.152 32.8555 182.987 32.9005C182.942 32.9097 182.901 32.9345 182.872 32.9705C182.843 33.0065 182.827 33.0514 182.828 33.0975C182.848 33.2309 182.894 33.3591 182.965 33.4746C183.118 33.8066 184.669 36.4686 184.862 36.7782C184.975 36.5137 186.378 34.0824 186.537 33.7391C186.625 33.5633 186.677 33.372 186.69 33.1763C186.694 33.1097 186.672 33.0443 186.629 32.9932C186.585 32.942 186.524 32.9089 186.458 32.9005C186.355 32.9005 186.253 32.8555 186.253 32.788C186.253 32.7204 186.31 32.6867 186.446 32.6867C186.815 32.6867 187.173 32.7204 187.497 32.7204C187.821 32.7204 188.479 32.6867 188.69 32.6867C188.809 32.6867 188.888 32.6867 188.888 32.7767C188.888 32.8668 188.803 32.8893 188.678 32.8893C188.507 32.901 188.339 32.9449 188.184 33.0187C187.942 33.1574 187.736 33.3501 187.582 33.5815C186.815 34.6962 186.113 35.8537 185.481 37.0483C185.344 37.4073 185.288 37.7913 185.316 38.1739V40.2C185.316 40.5208 185.441 40.7628 185.776 40.8078C185.964 40.8321 186.154 40.8453 186.344 40.8472C186.469 40.8472 186.526 40.8809 186.526 40.9372C186.526 40.9935 186.435 41.0498 186.287 41.0498C185.583 41.0498 184.884 41.016 184.583 41.016C184.282 41.016 183.601 41.0498 183.186 41.0498C183.033 41.0498 182.942 41.0498 182.942 40.9372C182.942 40.8247 182.999 40.8472 183.118 40.8472C183.25 40.848 183.381 40.8348 183.51 40.8078C183.737 40.7628 183.834 40.5208 183.856 40.2C183.89 39.7328 183.89 39.2657 183.89 39.0744L183.879 38.1739Z" fill="#23569C"/>
<path d="M189.235 36.8345C189.235 34.9435 190.495 32.5009 193.846 32.5009C196.624 32.5009 198.35 34.1049 198.35 36.6375C198.372 37.2114 198.28 37.784 198.079 38.3225C197.877 38.8611 197.571 39.3551 197.177 39.7763C196.783 40.1976 196.309 40.5378 195.783 40.7775C195.256 41.0173 194.687 41.1518 194.108 41.1736C193.983 41.1736 193.858 41.1736 193.733 41.1736C192.611 41.2383 191.508 40.8603 190.666 40.1221C189.825 39.384 189.312 38.3456 189.24 37.234C189.24 37.1046 189.24 36.9808 189.24 36.857L189.235 36.8345ZM196.788 37.0483C196.788 34.5664 195.351 33.03 193.523 33.03C192.239 33.03 190.774 33.7391 190.774 36.4912C190.774 38.793 192.057 40.6164 194.181 40.6164C194.965 40.6164 196.771 40.2394 196.771 37.0483H196.788Z" fill="#23569C"/>
<path d="M201.258 35.8608V33.5196C201.258 33.165 201.145 32.9568 200.776 32.8893C200.633 32.8669 200.488 32.8556 200.344 32.8555C200.219 32.8555 200.151 32.8555 200.151 32.7542C200.151 32.6529 200.23 32.6585 200.401 32.6585C200.969 32.6585 201.69 32.6923 201.928 32.6923C202.309 32.6923 203.155 32.6585 203.502 32.6585C204.218 32.6071 204.932 32.7719 205.552 33.1313C205.785 33.3124 205.972 33.5442 206.1 33.8086C206.228 34.0731 206.293 34.3632 206.29 34.6564C206.29 35.4781 205.944 36.2266 204.819 37.1327C205.808 38.3765 206.58 39.3839 207.239 40.0424C207.56 40.4234 207.999 40.6886 208.488 40.7965C208.591 40.8189 208.696 40.8302 208.801 40.8303C208.891 40.8303 208.937 40.8641 208.937 40.9147C208.937 40.9654 208.857 41.0273 208.721 41.0273H207.665C207.263 41.062 206.859 40.9901 206.495 40.819C205.871 40.3696 205.35 39.7941 204.967 39.1307C204.524 38.5228 204.007 37.7687 203.865 37.6055C203.84 37.5775 203.808 37.5557 203.772 37.5421C203.737 37.5284 203.699 37.5231 203.661 37.5267H202.689C202.638 37.5267 202.604 37.5267 202.604 37.6167V37.7687C202.604 38.7986 202.604 39.6709 202.661 40.1381C202.689 40.4589 202.758 40.7009 203.093 40.7459C203.281 40.7721 203.471 40.7871 203.661 40.7909C203.752 40.7909 203.797 40.8247 203.797 40.8753C203.797 40.926 203.717 40.9879 203.575 40.9879C202.928 40.9879 202.099 40.9541 201.934 40.9541C201.769 40.9541 201.02 40.9879 200.571 40.9879C200.429 40.9879 200.35 40.9541 200.35 40.8753C200.35 40.7965 200.395 40.7909 200.526 40.7909C200.661 40.7901 200.796 40.775 200.929 40.7459C201.15 40.7009 201.207 40.4589 201.253 40.1381C201.309 39.6709 201.309 38.7986 201.309 37.78V35.8608H201.258ZM202.576 36.7388C202.576 36.857 202.576 36.902 202.672 36.9358C202.949 37.0153 203.236 37.0532 203.524 37.0483C203.803 37.0883 204.086 37.0197 204.314 36.857C204.546 36.6546 204.727 36.4008 204.841 36.1162C204.955 35.8317 205.001 35.5243 204.973 35.2192C204.973 33.6434 203.928 33.1932 203.269 33.1932C203.069 33.183 202.868 33.1981 202.672 33.2382C202.599 33.2382 202.576 33.3057 202.576 33.3902V36.7669V36.7388Z" fill="#23569C"/>
<path d="M211.606 36.3448H211.663C212.044 35.934 213.668 34.285 213.992 33.9079C214.316 33.5308 214.56 33.272 214.56 33.0806C214.567 33.0308 214.554 32.9804 214.524 32.9396C214.495 32.8988 214.451 32.8707 214.401 32.8611C214.299 32.8611 214.259 32.8161 214.259 32.7486C214.259 32.681 214.31 32.6473 214.435 32.6473C214.668 32.6473 215.281 32.681 215.571 32.681C215.86 32.681 216.525 32.6473 216.871 32.6473C216.985 32.6473 217.064 32.6473 217.064 32.7486C217.064 32.8499 217.008 32.8499 216.894 32.8499C216.674 32.8609 216.456 32.9006 216.247 32.968C215.792 33.1615 215.382 33.4449 215.043 33.801C214.696 34.133 213.015 35.7876 212.634 36.1872C213.032 36.7106 215.224 39.0406 215.656 39.4514C216.117 39.9508 216.67 40.3578 217.286 40.6502C217.503 40.751 217.739 40.8084 217.979 40.819C218.058 40.819 218.127 40.819 218.127 40.9034C218.127 40.9879 218.07 41.016 217.854 41.016H216.883C216.625 41.016 216.37 41.016 216.116 41.016C215.571 40.9544 215.069 40.6935 214.707 40.2844C214.219 39.8566 212.021 37.3016 211.783 36.9808L211.663 36.8119H211.606V37.8081C211.606 38.8267 211.606 39.6991 211.641 40.1774C211.641 40.487 211.76 40.7402 212.044 40.774C212.232 40.8002 212.422 40.8152 212.612 40.819C212.703 40.819 212.754 40.819 212.754 40.9034C212.754 40.9879 212.669 41.016 212.544 41.016C211.919 41.016 211.215 40.9822 210.936 40.9822C210.658 40.9822 209.976 41.016 209.533 41.016C209.386 41.016 209.306 40.9822 209.306 40.9034C209.306 40.8246 209.352 40.819 209.488 40.819C209.622 40.8182 209.755 40.8032 209.886 40.774C210.113 40.729 210.164 40.487 210.209 40.1662C210.266 39.6991 210.266 38.8267 210.266 37.8081V33.5196C210.266 33.165 210.158 32.9568 209.789 32.8893C209.644 32.8666 209.498 32.8553 209.352 32.8555C209.227 32.8555 209.164 32.8555 209.164 32.7542C209.164 32.6529 209.238 32.6529 209.409 32.6529C209.976 32.6529 210.703 32.6866 210.97 32.6866C211.237 32.6866 211.942 32.6529 212.322 32.6529C212.475 32.6529 212.555 32.6529 212.555 32.7542C212.555 32.8555 212.487 32.8555 212.396 32.8555C212.291 32.8556 212.186 32.8669 212.084 32.8893C211.788 32.9455 211.697 33.1313 211.675 33.5196C211.652 33.9079 211.675 34.1837 211.675 35.8608V36.3448H211.606Z" fill="#23569C"/>
<path d="M13.5395 20.1138H3.31638C3.32231 19.1601 3.12893 18.2154 2.74843 17.3393C1.70908 14.8292 -0.437767 12.5555 0.0790674 9.59522C0.206113 8.81194 0.597885 8.09466 1.19018 7.56091C1.78248 7.02716 2.54017 6.7086 3.3391 6.65743C6.26972 6.42106 8.7971 7.97437 11.6368 8.46963C11.864 8.50902 12.1707 8.03065 12.449 7.76051C12.1497 7.53177 11.914 7.23127 11.7643 6.88733C11.6146 6.54338 11.5557 6.16732 11.5932 5.79459C11.6307 5.42186 11.7633 5.06472 11.9786 4.75684C12.194 4.44896 12.4848 4.20048 12.8239 4.03481C12.9091 3.61125 12.9091 3.17519 12.8239 2.75164C12.6989 2.65033 11.7277 2.83606 11.5914 2.71787C11.4721 2.26204 11.4721 1.7836 11.5914 1.32777C11.6766 1.22084 12.7727 1.32777 12.8352 1.26586C12.8977 1.20395 12.8068 0.140271 12.9091 0.067108C13.1256 0.0101376 13.3501 -0.010783 13.5736 0.00520078H13.3407C13.549 -0.00522943 13.7577 0.0156425 13.9598 0.067108C14.062 0.145899 13.9598 1.1927 14.0336 1.26586C14.1074 1.33902 15.1695 1.22084 15.2774 1.32777C15.3967 1.7836 15.3967 2.26204 15.2774 2.71787C15.1411 2.83606 14.1415 2.65033 14.045 2.75164C13.9597 3.17519 13.9597 3.61125 14.045 4.03481C14.3908 4.19671 14.6885 4.44436 14.9093 4.75378C15.1302 5.0632 15.2666 5.42389 15.3055 5.80092C15.3443 6.17794 15.2843 6.55852 15.1311 6.90578C14.9779 7.25304 14.7368 7.55521 14.4312 7.78302C14.7095 8.05316 14.9991 8.53154 15.2377 8.49214C18.0774 7.99688 20.6105 6.44357 23.5354 6.67994C24.3317 6.72982 25.0877 7.04494 25.6805 7.57415C26.2733 8.10336 26.6682 8.81559 26.8011 9.59522C27.3123 12.5555 25.1711 14.8292 24.1261 17.3393C23.746 18.2155 23.5527 19.1601 23.5581 20.1138H13.335H13.5395ZM19.0145 13.9738C19.0145 13.9738 20.1902 13.7993 20.2754 13.9738C20.3606 14.1482 19.8778 15.0993 19.963 15.2907C20.0482 15.482 21.5987 15.1444 21.6271 15.2907C21.6221 15.7006 21.5251 16.1044 21.3431 16.4726C20.8162 16.5785 20.279 16.6257 19.7415 16.6133C19.6044 16.7649 19.5011 16.9436 19.4384 17.1376C19.3758 17.3316 19.3552 17.5364 19.378 17.7389C19.378 18.3354 19.8437 18.6506 20.5991 18.4423C22.0019 18.054 23.7455 15.0318 24.7792 12.9438C25.5346 11.4074 25.9946 8.89172 24.0011 8.13758C22.7857 7.68172 21.5135 7.9406 20.2072 8.3233C18.7358 8.69562 17.3124 9.23378 15.9646 9.92727C15.7034 10.0905 16.277 9.96103 15.3285 12.0377C14.7912 13.3211 14.5543 14.7084 14.6356 16.0955C14.8969 17.5813 15.7318 18.5211 16.4247 18.5268C16.8473 18.5197 17.2521 18.3572 17.5606 18.0709C18.0149 17.6769 18.3898 17.0241 18.2705 16.6414C18.1683 16.512 16.9415 16.6977 16.8506 16.5739C16.8403 16.1579 16.9402 15.7465 17.1403 15.3807C17.2823 15.2626 18.3898 15.4258 18.5374 15.302C18.6851 15.1781 18.8271 14.0075 18.9748 13.9344L19.0145 13.9738ZM7.84294 13.9344C7.99629 14.0075 8.1326 15.1838 8.28594 15.302C8.43929 15.4201 9.54111 15.2626 9.6831 15.3864C9.90437 15.7689 10.0089 16.2068 9.98411 16.647C9.89892 16.7708 8.67215 16.5851 8.56992 16.7146C8.45065 17.0973 8.81982 17.7501 9.27986 18.1441C9.58833 18.4304 9.99317 18.5928 10.4158 18.5999C11.1087 18.5999 11.9435 17.6544 12.2048 16.1687C12.2847 14.7811 12.0459 13.3937 11.5062 12.1109C10.5521 10.0342 11.12 10.1411 10.8815 9.97792C9.53227 9.28771 8.10917 8.74969 6.63889 8.37395C5.3326 7.99125 4.0604 7.73237 2.84498 8.18823C0.85148 8.94238 1.30584 11.4581 2.06689 12.9945C3.10056 15.0993 4.83849 18.1047 6.247 18.4761C6.9967 18.6843 7.4681 18.3748 7.4681 17.7726C7.48863 17.569 7.46533 17.3634 7.39973 17.1694C7.33414 16.9753 7.22774 16.7973 7.08757 16.647C6.55007 16.6594 6.01286 16.6122 5.48595 16.5063C5.31692 16.1414 5.23528 15.7427 5.24741 15.3413C5.27581 15.1725 6.83199 15.482 6.91151 15.3413C6.99102 15.2006 6.51394 14.2158 6.59913 14.0244C6.68433 13.8331 7.8543 14.0244 7.8543 14.0244" fill="#23569C"/>
<path d="M13.5396 21.487H3.06091V23.2317H13.5396" fill="#23569C"/>
<path d="M13.3066 21.487H23.7853V23.2317H13.3066" fill="#23569C"/>
</svg>
