<svg width="671" height="53" viewBox="0 0 671 53" fill="none" xmlns="http://www.w3.org/2000/svg">
<path d="M486.555 19.7918C486.482 19.9506 486.368 20.0882 486.226 20.1913C486.09 20.2703 485.935 20.3093 485.777 20.3039C485.574 20.29 485.377 20.222 485.209 20.1069C484.994 19.9718 484.738 19.8255 484.443 19.6623C484.115 19.4828 483.771 19.3358 483.415 19.2233C482.551 18.9632 481.631 18.9535 480.762 19.1952C480.432 19.2963 480.125 19.4608 479.859 19.6792C479.61 19.8736 479.415 20.1272 479.291 20.4165C479.166 20.7141 479.104 21.034 479.11 21.3563C479.1 21.7519 479.23 22.1383 479.479 22.4481C479.752 22.7572 480.084 23.0097 480.456 23.191C480.902 23.4146 481.365 23.6028 481.841 23.7538C482.358 23.917 482.887 24.0859 483.426 24.2716C483.967 24.4591 484.498 24.6752 485.016 24.9188C485.523 25.1554 485.99 25.4666 486.402 25.8418C486.81 26.2188 487.142 26.6696 487.379 27.17C487.64 27.7917 487.766 28.461 487.748 29.1341C487.754 29.9387 487.606 30.737 487.311 31.4866C487.032 32.2056 486.6 32.8565 486.044 33.3945C485.462 33.9573 484.767 34.3943 484.005 34.6777C483.125 35.0035 482.19 35.1619 481.251 35.1448C480.66 35.1449 480.07 35.0884 479.49 34.9759C478.921 34.8615 478.364 34.6958 477.826 34.4807C477.306 34.2711 476.808 34.0129 476.338 33.7097C475.893 33.4221 475.479 33.0882 475.106 32.7135L476.117 31.0589C476.209 30.9363 476.325 30.833 476.457 30.755C476.594 30.6768 476.748 30.636 476.906 30.6368C477.16 30.6527 477.403 30.7428 477.605 30.8957C477.854 31.0702 478.173 31.2671 478.491 31.4585C478.873 31.6832 479.276 31.8716 479.695 32.0213C480.227 32.2079 480.789 32.2957 481.353 32.2802C482.17 32.3595 482.989 32.1437 483.659 31.6723C483.936 31.4191 484.152 31.1078 484.293 30.7613C484.433 30.4147 484.494 30.0415 484.471 29.6688C484.493 29.2404 484.363 28.818 484.102 28.4757C483.837 28.1495 483.504 27.8845 483.125 27.699C482.685 27.4665 482.223 27.2779 481.745 27.1362C481.222 26.9955 480.7 26.8323 480.166 26.6635C479.627 26.4913 479.099 26.2845 478.587 26.0444C478.076 25.809 477.608 25.4914 477.201 25.1045C476.776 24.6985 476.443 24.2073 476.224 23.6638C475.97 22.9858 475.855 22.2647 475.884 21.542C475.885 20.8631 476.024 20.1913 476.293 19.5666C476.571 18.931 476.974 18.3569 477.48 17.8783C478.037 17.36 478.691 16.9547 479.405 16.6851C480.235 16.3705 481.118 16.2176 482.006 16.2349C483.046 16.2232 484.079 16.3986 485.056 16.7527C485.93 17.0576 486.73 17.5386 487.407 18.1653L486.555 19.7918Z" fill="#3D4A63"/>
<path d="M500.76 34.959H499.323C499.075 34.971 498.828 34.9247 498.601 34.824C498.502 34.7603 498.417 34.6778 498.351 34.5812C498.285 34.4845 498.238 34.3757 498.215 34.2612L497.931 33.3269C497.615 33.6082 497.283 33.8713 496.937 34.1148C496.623 34.3339 496.288 34.5223 495.938 34.6776C495.585 34.8359 495.215 34.953 494.836 35.0266C494.409 35.1061 493.975 35.1438 493.541 35.1391C493.015 35.1435 492.492 35.0676 491.99 34.914C491.539 34.7796 491.122 34.5491 490.769 34.2387C490.421 33.9284 490.149 33.5434 489.974 33.1131C489.775 32.6175 489.679 32.0874 489.69 31.5541C489.696 31.0381 489.831 30.5317 490.082 30.0796C490.4 29.539 490.851 29.0876 491.394 28.7683C492.153 28.3185 492.979 27.9918 493.842 27.8003C495.084 27.5195 496.356 27.3891 497.63 27.412V26.6691C497.685 25.9662 497.484 25.2671 497.062 24.6993C496.854 24.4801 496.599 24.3094 496.316 24.1994C496.033 24.0895 495.73 24.043 495.426 24.0633C494.988 24.05 494.55 24.1109 494.132 24.2434C493.82 24.3477 493.52 24.4815 493.234 24.643C492.979 24.795 492.746 24.93 492.53 25.0482C492.31 25.1662 492.064 25.2281 491.814 25.2283C491.611 25.2357 491.412 25.1763 491.246 25.0595C491.092 24.9523 490.964 24.8119 490.871 24.6486L490.304 23.6356C491.806 22.2502 493.795 21.4993 495.847 21.542C496.557 21.5305 497.262 21.6607 497.92 21.9247C498.505 22.1594 499.032 22.5165 499.465 22.9715C499.899 23.4336 500.228 23.9824 500.43 24.5811C500.655 25.2427 500.767 25.9371 500.76 26.6353V34.959ZM494.552 32.9836C494.855 32.9874 495.158 32.9572 495.455 32.8936C495.726 32.8369 495.989 32.7481 496.239 32.6291C496.49 32.5097 496.728 32.3644 496.949 32.1957C497.194 32.0079 497.426 31.8029 497.641 31.5823V29.3817C496.86 29.3694 496.078 29.4278 495.307 29.5562C494.789 29.6423 494.283 29.7917 493.802 30.0008C493.479 30.1366 493.198 30.3563 492.99 30.6368C492.796 30.9472 492.717 31.3143 492.764 31.6761C492.812 32.038 492.984 32.3725 493.251 32.6234C493.635 32.8786 494.09 33.0049 494.552 32.9836Z" fill="#3D4A63"/>
<path d="M508.626 21.5758C509.166 21.57 509.706 21.6267 510.233 21.7446C510.71 21.8535 511.17 22.0238 511.602 22.2511H515.418V23.433C515.429 23.6006 515.374 23.7659 515.265 23.8945C515.119 24.0259 514.934 24.1068 514.737 24.1252L513.544 24.3447C513.725 24.8195 513.818 25.3229 513.817 25.8305C513.826 26.4254 513.697 27.0144 513.44 27.552C513.183 28.0897 512.805 28.5617 512.335 28.9315C511.846 29.3155 511.289 29.6056 510.693 29.7869C510.023 29.9898 509.326 30.0903 508.626 30.0852C508.136 30.0861 507.647 30.039 507.166 29.9445C506.752 30.1978 506.547 30.4735 506.547 30.7831C506.546 30.9025 506.581 31.0195 506.646 31.1196C506.712 31.2196 506.806 31.2984 506.916 31.3459C507.221 31.4867 507.547 31.5761 507.882 31.6104C508.336 31.6648 508.793 31.6912 509.251 31.6892C510.301 31.6771 511.35 31.7733 512.38 31.9762C512.859 32.0714 513.319 32.2424 513.743 32.4827C514.141 32.7135 514.474 33.0384 514.714 33.4282C514.976 33.9073 515.1 34.4486 515.072 34.9928C515.07 35.5821 514.922 36.1619 514.64 36.6812C514.324 37.2535 513.891 37.7538 513.368 38.1501C512.762 38.6055 512.082 38.9557 511.358 39.1856C510.477 39.4548 509.559 39.5859 508.637 39.5739C507.754 39.5886 506.872 39.4922 506.013 39.2869C505.359 39.1327 504.735 38.8722 504.167 38.5159C503.718 38.233 503.344 37.8469 503.077 37.3903C502.838 36.9958 502.713 36.5445 502.713 36.0846C502.697 35.5142 502.9 34.959 503.281 34.5313C503.718 34.077 504.26 33.7351 504.86 33.5352C504.543 33.3609 504.272 33.1139 504.071 32.8148C503.86 32.4631 503.758 32.0583 503.775 31.6498C503.775 31.443 503.81 31.2376 503.878 31.042C503.951 30.8191 504.059 30.6085 504.196 30.4173C504.35 30.2086 504.529 30.0195 504.73 29.8545C504.966 29.6629 505.223 29.4987 505.496 29.3648C504.849 29.0317 504.301 28.537 503.906 27.9297C503.395 27.0975 503.208 26.1087 503.382 25.1498C503.556 24.1908 504.077 23.3279 504.849 22.7239C505.355 22.3314 505.934 22.0408 506.553 21.8684C507.225 21.6698 507.924 21.5712 508.626 21.5758ZM512.136 35.5106C512.144 35.2751 512.06 35.0455 511.903 34.869C511.725 34.6925 511.507 34.5612 511.267 34.4863C510.963 34.3831 510.649 34.3133 510.33 34.278C509.952 34.2376 509.573 34.217 509.194 34.2161H507.956C507.539 34.2172 507.123 34.17 506.717 34.0754C506.383 34.2498 506.086 34.4868 505.843 34.7733C505.629 35.0361 505.512 35.364 505.513 35.7019C505.515 35.9291 505.575 36.1521 505.689 36.3491C505.828 36.5698 506.024 36.7489 506.257 36.8669C506.567 37.0311 506.9 37.1469 507.246 37.2102C507.737 37.2947 508.235 37.3342 508.734 37.3284C509.25 37.3342 509.766 37.289 510.273 37.1933C510.646 37.122 511.006 36.9948 511.341 36.8162C511.592 36.6846 511.806 36.4908 511.96 36.2534C512.086 36.0264 512.147 35.7695 512.136 35.5106ZM508.626 28.0592C508.979 28.066 509.33 28.0127 509.665 27.9016C509.937 27.8069 510.185 27.6552 510.392 27.457C510.588 27.2669 510.739 27.0363 510.835 26.7816C510.935 26.5015 510.985 26.2064 510.983 25.9093C511 25.6265 510.958 25.3433 510.861 25.0771C510.763 24.8109 510.611 24.5674 510.415 24.3616C509.902 23.9911 509.283 23.7914 508.649 23.7914C508.014 23.7914 507.395 23.9911 506.882 24.3616C506.686 24.5674 506.534 24.8109 506.436 25.0771C506.339 25.3433 506.297 25.6265 506.314 25.9093C506.309 26.2011 506.359 26.4912 506.462 26.7647C506.554 27.0232 506.703 27.2578 506.899 27.4513C507.109 27.6534 507.361 27.8072 507.638 27.9016C507.956 28.0072 508.29 28.0604 508.626 28.0592Z" fill="#3D4A63"/>
<path d="M523.023 21.5983C523.812 21.5923 524.595 21.7276 525.335 21.9979C526.017 22.2516 526.637 22.6468 527.152 23.1573C527.68 23.7006 528.085 24.3491 528.339 25.0595C528.641 25.8698 528.787 26.7286 528.771 27.5921C528.771 27.7802 528.76 27.9681 528.737 28.1549C528.726 28.2878 528.685 28.4166 528.618 28.5319C528.565 28.6167 528.488 28.6836 528.396 28.7233C528.28 28.7647 528.156 28.7838 528.033 28.7796H519.843C519.835 29.8696 520.227 30.9254 520.945 31.7511C521.28 32.0735 521.678 32.3243 522.114 32.488C522.551 32.6516 523.017 32.7245 523.483 32.7023C523.935 32.7103 524.385 32.6496 524.818 32.5222C525.155 32.4157 525.484 32.284 525.801 32.1282C526.085 31.9819 526.329 31.8468 526.539 31.7286C526.726 31.6166 526.94 31.5546 527.158 31.5485C527.275 31.5485 527.389 31.5754 527.493 31.6273C527.588 31.6814 527.672 31.7542 527.737 31.8412L528.669 32.9668C528.326 33.3669 527.926 33.7157 527.482 34.0023C527.048 34.2739 526.585 34.4966 526.102 34.6664C525.629 34.8353 525.14 34.9542 524.642 35.021C524.164 35.0884 523.682 35.1223 523.2 35.1223C522.319 35.1292 521.445 34.9746 520.621 34.6664C519.844 34.3855 519.139 33.9399 518.554 33.3607C517.941 32.7296 517.469 31.978 517.168 31.1546C516.816 30.178 516.645 29.1466 516.662 28.1098C516.656 27.2467 516.804 26.3893 517.1 25.5773C517.378 24.8135 517.809 24.1129 518.366 23.5174C518.928 22.9136 519.611 22.4325 520.371 22.1048C521.212 21.7606 522.114 21.5883 523.023 21.5983ZM523.092 23.8495C522.693 23.8268 522.293 23.8845 521.918 24.0189C521.542 24.1534 521.197 24.3619 520.905 24.6318C520.336 25.2458 519.981 26.0254 519.894 26.8548H525.897C525.898 26.4604 525.84 26.068 525.727 25.6898C525.618 25.3427 525.443 25.0197 525.21 24.7387C524.971 24.4582 524.67 24.2366 524.33 24.0915C523.943 23.9327 523.527 23.856 523.109 23.8664L523.092 23.8495Z" fill="#3D4A63"/>
<path d="M532.525 34.959V16.8145H537.79C538.703 16.8018 539.613 16.9058 540.499 17.1241C541.188 17.2936 541.834 17.602 542.396 18.0302C542.892 18.4119 543.283 18.9113 543.532 19.4822C543.788 20.1016 543.913 20.766 543.901 21.4351C543.901 21.9075 543.816 22.3762 543.651 22.8195C543.474 23.268 543.221 23.683 542.902 24.0464C542.57 24.445 542.175 24.7872 541.732 25.0595C541.238 25.347 540.704 25.5594 540.147 25.6898C541.373 25.8049 542.534 26.2924 543.47 27.0855C543.855 27.464 544.155 27.9189 544.351 28.4202C544.547 28.9216 544.633 29.4583 544.606 29.9952C544.617 30.7086 544.475 31.4163 544.191 32.0719C543.923 32.682 543.51 33.2188 542.987 33.6364C542.414 34.0901 541.755 34.4268 541.05 34.627C540.198 34.8628 539.316 34.9765 538.432 34.9646L532.525 34.959ZM533.843 25.3071H537.819C538.553 25.3246 539.285 25.216 539.982 24.9863C540.527 24.804 541.029 24.515 541.459 24.1365C541.838 23.809 542.136 23.4012 542.334 22.9433C542.514 22.5097 542.607 22.045 542.606 21.5758C542.642 21.0542 542.555 20.5317 542.352 20.0492C542.149 19.5668 541.835 19.1376 541.436 18.7956C540.653 18.1709 539.449 17.8613 537.819 17.8557H533.843V25.3071ZM533.843 26.2638V33.9235H538.438C540.051 33.9235 541.266 33.5802 542.084 32.8936C542.499 32.5331 542.825 32.0837 543.039 31.5796C543.252 31.0755 543.347 30.5298 543.316 29.9839C543.322 29.4504 543.209 28.9221 542.987 28.4362C542.764 27.98 542.437 27.5812 542.033 27.2712C541.579 26.9295 541.062 26.6791 540.511 26.534C539.839 26.355 539.145 26.2679 538.449 26.2751L533.843 26.2638Z" fill="#3D4A63"/>
<path d="M550.756 17.8051C550.755 17.9529 550.722 18.0987 550.66 18.2328C550.595 18.3642 550.508 18.4841 550.404 18.5874C550.301 18.6924 550.177 18.7749 550.04 18.8294C549.903 18.8904 549.754 18.9212 549.603 18.9194C549.451 18.9206 549.3 18.8899 549.16 18.8294C549.026 18.7722 548.905 18.69 548.802 18.5874C548.695 18.4879 548.61 18.3671 548.552 18.2328C548.494 18.0975 548.463 17.9522 548.462 17.8051C548.463 17.6525 548.494 17.5016 548.552 17.3605C548.611 17.2234 548.695 17.099 548.802 16.9947C548.906 16.8928 549.027 16.8108 549.16 16.7527C549.3 16.6921 549.451 16.6615 549.603 16.6626C549.754 16.6609 549.903 16.6916 550.04 16.7527C550.176 16.8092 550.3 16.8914 550.404 16.9947C550.509 17.102 550.595 17.2256 550.66 17.3605C550.722 17.5006 550.755 17.6519 550.756 17.8051ZM550.188 22.2005V34.9591H548.961V22.2005H550.188Z" fill="#3D4A63"/>
<path d="M559.798 21.9979C560.647 21.9861 561.489 22.145 562.274 22.465C562.985 22.7596 563.617 23.2144 564.12 23.7932C564.637 24.4001 565.023 25.1048 565.256 25.8643C565.532 26.7421 565.667 27.6576 565.654 28.577C565.667 29.4927 565.533 30.4046 565.256 31.2784C565.023 32.0363 564.637 32.7391 564.12 33.3439C563.616 33.9193 562.984 34.3719 562.274 34.6664C560.682 35.2818 558.914 35.2818 557.322 34.6664C556.612 34.3768 555.979 33.9302 555.47 33.3608C554.954 32.756 554.567 32.0532 554.335 31.2953C553.812 29.5277 553.812 27.6488 554.335 25.8812C554.567 25.1217 554.954 24.417 555.47 23.8101C555.977 23.2328 556.61 22.7784 557.322 22.4819C558.106 22.1553 558.948 21.9906 559.798 21.9979ZM559.798 34.1655C560.489 34.1825 561.176 34.048 561.809 33.7716C562.375 33.5216 562.869 33.1345 563.246 32.646C563.647 32.1206 563.94 31.522 564.109 30.8845C564.489 29.3654 564.489 27.7773 564.109 26.2583C563.942 25.6203 563.648 25.0215 563.246 24.4967C562.865 24.0122 562.372 23.626 561.809 23.3711C560.52 22.8476 559.076 22.8476 557.788 23.3711C557.224 23.626 556.731 24.0122 556.351 24.4967C555.947 25.0256 555.651 25.6279 555.482 26.2695C555.096 27.7879 555.096 29.3774 555.482 30.8957C555.653 31.5334 555.948 32.1318 556.351 32.6573C556.727 33.1458 557.221 33.5328 557.788 33.7828C558.421 34.0554 559.108 34.186 559.798 34.1655Z" fill="#3D4A63"/>
<path d="M569.027 34.959V22.2005H569.703C569.796 22.1926 569.889 22.2212 569.961 22.2801C570.033 22.339 570.079 22.4235 570.089 22.5157L570.208 24.4404C570.77 23.7241 571.463 23.1205 572.253 22.662C573.046 22.2118 573.946 21.9806 574.86 21.9923C575.499 21.9812 576.133 22.094 576.728 22.3243C577.246 22.5342 577.706 22.8643 578.069 23.2867C578.438 23.7317 578.71 24.2469 578.87 24.8006C579.059 25.4496 579.151 26.1229 579.142 26.7985V34.959H577.91V26.8041C577.967 25.8005 577.677 24.8076 577.086 23.9902C576.771 23.6374 576.378 23.3618 575.938 23.185C575.497 23.0083 575.021 22.9352 574.548 22.9715C573.716 22.9665 572.9 23.1906 572.191 23.6187C571.435 24.0818 570.777 24.6858 570.254 25.3972V34.9647L569.027 34.959Z" fill="#3D4A63"/>
<path d="M588.002 21.9979C588.691 21.9914 589.373 22.1176 590.013 22.3693C590.621 22.6105 591.169 22.9791 591.62 23.4499C592.092 23.955 592.453 24.5508 592.682 25.2002C592.945 25.9684 593.073 26.7754 593.063 27.5864C593.075 27.7197 593.046 27.8535 592.978 27.9691C592.946 28.0076 592.905 28.0376 592.858 28.0562C592.811 28.0749 592.761 28.0817 592.711 28.076H583.425V28.2955C583.408 29.1497 583.521 30.0016 583.76 30.8225C583.952 31.4886 584.278 32.109 584.72 32.6459C585.119 33.137 585.634 33.5235 586.219 33.7715C586.842 34.0264 587.51 34.1527 588.184 34.143C588.759 34.1553 589.333 34.0852 589.888 33.9347C590.302 33.8173 590.704 33.659 591.086 33.462C591.353 33.3199 591.609 33.16 591.853 32.9836C591.971 32.8795 592.114 32.8077 592.268 32.7754C592.319 32.7732 592.37 32.7839 592.415 32.8066C592.461 32.8292 592.5 32.863 592.529 32.9048L592.864 33.31C592.63 33.5919 592.352 33.835 592.041 34.0304C591.683 34.2569 591.302 34.4455 590.905 34.5932C590.467 34.7573 590.017 34.8853 589.559 34.9759C589.083 35.0676 588.6 35.1147 588.116 35.1166C587.291 35.1266 586.472 34.9716 585.708 34.6607C584.988 34.3748 584.343 33.9302 583.822 33.3607C583.286 32.742 582.876 32.025 582.618 31.2502C582.321 30.3147 582.177 29.3381 582.192 28.3574C582.182 27.4972 582.316 26.6413 582.59 25.8249C582.828 25.0896 583.215 24.41 583.726 23.8269C584.231 23.263 584.853 22.8137 585.549 22.51C586.321 22.1689 587.157 21.9943 588.002 21.9979ZM588.002 22.9096C587.396 22.9001 586.793 23.0032 586.225 23.2135C585.713 23.4094 585.248 23.7105 584.862 24.0971C584.475 24.5001 584.165 24.9691 583.947 25.4816C583.698 26.0582 583.539 26.6694 583.476 27.2938H591.95C591.961 26.6688 591.865 26.0465 591.666 25.4534C591.499 24.9435 591.226 24.4738 590.865 24.0746C590.518 23.7083 590.096 23.4204 589.627 23.2304C589.118 23.0175 588.572 22.9084 588.019 22.9096H588.002Z" fill="#3D4A63"/>
<path d="M600.009 35.1897C599.64 35.2082 599.27 35.1519 598.924 35.0241C598.577 34.8964 598.26 34.7 597.993 34.4468C597.728 34.1449 597.527 33.7939 597.4 33.4143C597.273 33.0346 597.224 32.6338 597.254 32.2351V23.5117H595.403C595.319 23.5113 595.237 23.4837 595.17 23.433C595.139 23.4056 595.115 23.3717 595.099 23.3336C595.083 23.2956 595.076 23.2545 595.079 23.2135V22.7407L597.277 22.5888L597.59 18.0245C597.595 17.9458 597.63 17.8718 597.686 17.8163C597.714 17.7855 597.748 17.7615 597.786 17.7459C597.825 17.7303 597.866 17.7235 597.908 17.7262H598.476V22.6H602.536V23.5117H598.487V32.1619C598.481 32.4694 598.527 32.7757 598.623 33.068C598.701 33.2992 598.829 33.5106 598.998 33.6871C599.156 33.8501 599.351 33.9735 599.566 34.0473C599.79 34.1261 600.027 34.1661 600.265 34.1654C600.54 34.1715 600.813 34.1257 601.071 34.0304C601.269 33.9478 601.459 33.848 601.639 33.7321C601.78 33.6442 601.915 33.5464 602.042 33.4394C602.107 33.3691 602.192 33.3217 602.286 33.3044C602.329 33.3092 602.37 33.3234 602.406 33.3457C602.443 33.3681 602.473 33.3982 602.497 33.4338L602.832 33.9966C602.481 34.367 602.055 34.6604 601.582 34.8577C601.087 35.0769 600.551 35.19 600.009 35.1897Z" fill="#3D4A63"/>
<path d="M604.047 22.2005H604.99C605.099 22.1946 605.206 22.2287 605.291 22.2961C605.359 22.3535 605.412 22.4271 605.444 22.51L608.693 32.5728C608.75 32.7697 608.801 32.9611 608.835 33.1356L608.937 33.6984L609.079 33.1356C609.13 32.933 609.193 32.7641 609.261 32.5728L612.714 22.4425C612.731 22.3606 612.777 22.2875 612.844 22.236C612.91 22.1845 612.993 22.158 613.078 22.1611H613.583C613.669 22.1586 613.752 22.1851 613.82 22.2363C613.889 22.2875 613.937 22.3602 613.958 22.4425L617.366 32.5728C617.49 32.9423 617.594 33.318 617.678 33.6984L617.786 33.1356C617.827 32.9442 617.882 32.7561 617.951 32.5728L621.211 22.51C621.237 22.417 621.295 22.3358 621.375 22.2796C621.454 22.2234 621.55 22.1955 621.648 22.2005H622.557L618.246 34.959H617.343C617.201 34.959 617.104 34.869 617.042 34.6889L613.503 24.356C613.464 24.2322 613.424 24.1027 613.39 23.9733C613.356 23.8438 613.322 23.72 613.299 23.5906L613.214 23.9733C613.197 24.1054 613.161 24.2344 613.106 24.356L609.534 34.717C609.523 34.7916 609.485 34.8599 609.428 34.9095C609.371 34.959 609.297 34.9866 609.221 34.9872H608.358L604.047 22.2005Z" fill="#3D4A63"/>
<path d="M629.963 21.9979C630.811 21.9861 631.654 22.145 632.439 22.465C633.149 22.7616 633.78 23.216 634.285 23.7932C634.801 24.4001 635.188 25.1048 635.421 25.8643C635.697 26.7421 635.831 27.6576 635.818 28.577C635.832 29.4927 635.697 30.4046 635.421 31.2784C635.188 32.0363 634.801 32.7391 634.285 33.3439C633.78 33.9193 633.148 34.3719 632.439 34.6664C630.846 35.2818 629.079 35.2818 627.486 34.6664C626.777 34.3768 626.143 33.9302 625.635 33.3608C625.117 32.7567 624.731 32.0537 624.499 31.2953C623.976 29.5277 623.976 27.6488 624.499 25.8812C624.732 25.1217 625.118 24.417 625.635 23.8101C626.141 23.2328 626.775 22.7784 627.486 22.4819C628.27 22.1553 629.112 21.9906 629.963 21.9979ZM629.963 34.1655C630.654 34.1825 631.34 34.048 631.973 33.7716C632.537 33.5168 633.03 33.1306 633.41 32.646C633.812 32.1216 634.104 31.5226 634.268 30.8845C634.654 29.3661 634.654 27.7766 634.268 26.2583C634.102 25.6206 633.811 25.0218 633.41 24.4967C633.028 24.0137 632.536 23.6279 631.973 23.3711C630.685 22.8476 629.24 22.8476 627.952 23.3711C627.388 23.626 626.895 24.0122 626.515 24.4967C626.111 25.0256 625.816 25.6279 625.646 26.2695C625.26 27.7879 625.26 29.3774 625.646 30.8957C625.817 31.5334 626.112 32.1318 626.515 32.6573C626.891 33.1458 627.385 33.5328 627.952 33.7828C628.586 34.0554 629.272 34.186 629.963 34.1655Z" fill="#3D4A63"/>
<path d="M639.186 34.959V22.2005H639.833C639.947 22.1929 640.059 22.2248 640.152 22.2905C640.226 22.3764 640.265 22.487 640.259 22.6001L640.367 25.2902C640.71 24.3598 641.277 23.5269 642.02 22.8646C642.731 22.2724 643.636 21.9599 644.564 21.9866C645.263 21.971 645.953 22.1338 646.569 22.4594L646.399 23.3036C646.397 23.3332 646.389 23.362 646.375 23.3885C646.362 23.415 646.343 23.4387 646.321 23.458C646.298 23.4774 646.271 23.4921 646.243 23.5013C646.215 23.5105 646.185 23.5141 646.155 23.5118C646.079 23.5063 646.004 23.4893 645.933 23.4611C645.837 23.4218 645.723 23.388 645.575 23.343C645.405 23.2915 645.23 23.2538 645.053 23.2304C644.819 23.1891 644.581 23.1702 644.343 23.1741C643.902 23.1578 643.463 23.229 643.05 23.3837C642.637 23.5383 642.26 23.7732 641.941 24.0746C641.235 24.8063 640.716 25.6937 640.424 26.6634V34.959H639.186Z" fill="#3D4A63"/>
<path d="M650.948 16.3024V27.6765H651.516C651.632 27.6769 651.747 27.6598 651.857 27.6259C651.992 27.5713 652.114 27.4888 652.215 27.3839L657.377 22.5213C657.464 22.4324 657.561 22.3548 657.667 22.2906C657.784 22.228 657.915 22.1969 658.048 22.2005H659.132L653.453 27.5471C653.368 27.6315 653.288 27.7159 653.209 27.7834C653.131 27.8551 653.045 27.9175 652.953 27.9692C653.08 28.0348 653.197 28.1182 653.3 28.2168C653.396 28.3068 653.493 28.4138 653.595 28.5207L659.564 34.9591H658.491C658.378 34.963 658.267 34.9378 658.167 34.8859C658.059 34.8307 657.963 34.7563 657.883 34.6664L652.516 28.9203C652.402 28.794 652.268 28.6875 652.118 28.6051C651.937 28.538 651.743 28.5092 651.55 28.5207H650.982V34.9591H649.75V16.3024H650.948Z" fill="#3D4A63"/>
<path d="M669.554 23.7932C669.532 23.8488 669.493 23.8961 669.442 23.9284C669.391 23.9607 669.331 23.9764 669.27 23.9733C669.134 23.9558 669.006 23.8991 668.901 23.8101C668.72 23.6783 668.53 23.558 668.333 23.4499C668.042 23.3038 667.738 23.1851 667.425 23.0953C666.998 22.9764 666.556 22.9214 666.113 22.9321C665.68 22.9269 665.25 22.9935 664.84 23.1291C664.479 23.2548 664.144 23.4456 663.852 23.6919C663.59 23.902 663.375 24.1648 663.222 24.4629C663.071 24.7495 662.993 25.0683 662.995 25.3915C662.979 25.7495 663.089 26.1017 663.307 26.3877C663.53 26.6641 663.806 26.8937 664.119 27.063C664.479 27.2661 664.86 27.4303 665.255 27.5527L666.567 27.9635C667.016 28.0986 667.453 28.2505 667.879 28.4137C668.283 28.5738 668.664 28.7837 669.015 29.0384C669.348 29.2821 669.624 29.5929 669.827 29.9502C670.042 30.3493 670.144 30.7984 670.122 31.2502C670.127 31.7832 670.023 32.3117 669.816 32.8035C669.634 33.2777 669.351 33.7076 668.987 34.0642C668.571 34.4294 668.089 34.7122 667.567 34.8971C666.952 35.1104 666.304 35.2133 665.653 35.201C664.851 35.2229 664.054 35.0772 663.313 34.7733C662.669 34.493 662.075 34.1131 661.552 33.6477L661.847 33.2087C661.882 33.148 661.931 33.096 661.989 33.0568C662.056 33.0176 662.134 32.9999 662.211 33.0061C662.368 33.0268 662.513 33.098 662.625 33.2087C662.825 33.3765 663.04 33.5253 663.267 33.6534C663.58 33.8322 663.909 33.981 664.25 34.098C664.72 34.2439 665.211 34.3123 665.704 34.3006C666.192 34.3106 666.679 34.2344 667.141 34.0754C667.523 33.9442 667.875 33.7374 668.174 33.4676C668.448 33.2139 668.663 32.9049 668.805 32.5615C668.947 32.2151 669.019 31.8439 669.015 31.4697C669.029 31.0902 668.921 30.716 668.708 30.4004C668.477 30.101 668.185 29.8535 667.851 29.6744C667.492 29.4654 667.111 29.2974 666.715 29.1735C666.289 29.0384 665.851 28.8977 665.397 28.7627C664.943 28.6276 664.505 28.4756 664.079 28.3124C663.673 28.162 663.291 27.9555 662.943 27.699C662.627 27.4518 662.364 27.1436 662.171 26.7929C661.95 26.3876 661.842 25.9309 661.859 25.4703C661.859 25.0171 661.96 24.5694 662.154 24.159C662.355 23.73 662.643 23.3468 663 23.0334C663.397 22.7032 663.851 22.4476 664.341 22.2793C664.911 22.0875 665.51 21.9924 666.113 21.9979C666.824 21.9857 667.532 22.1001 668.203 22.3356C668.834 22.5655 669.414 22.9175 669.907 23.3711L669.554 23.7932Z" fill="#3D4A63"/>
<path d="M432.31 31.0532C432.254 31.0557 432.198 31.0399 432.151 31.0082L420.98 24.3053C420.935 24.277 420.898 24.2379 420.872 24.1917C420.846 24.1455 420.832 24.0936 420.832 24.0408V11.5524C420.831 11.498 420.845 11.4443 420.872 11.3969C420.899 11.3495 420.938 11.3099 420.985 11.2822C421.034 11.2571 421.087 11.244 421.142 11.244C421.196 11.244 421.25 11.2571 421.298 11.2822L432.327 17.6925C432.374 17.7197 432.412 17.7583 432.439 17.8047C432.466 17.8511 432.48 17.9035 432.481 17.957L432.623 30.738C432.622 30.7929 432.607 30.8467 432.579 30.894C432.551 30.9414 432.512 30.9808 432.464 31.0082C432.418 31.0374 432.365 31.0531 432.31 31.0532ZM421.451 23.8663L431.992 30.1978L431.862 18.1652L421.451 12.1152V23.8663Z" fill="#679DBF"/>
<path d="M432.316 30.738C432.275 30.7352 432.235 30.7243 432.199 30.706C432.162 30.6877 432.13 30.6623 432.103 30.6314C432.077 30.6004 432.057 30.5645 432.045 30.5258C432.032 30.4871 432.028 30.4464 432.032 30.406C432.034 30.36 432.046 30.315 432.069 30.2748C432.092 30.2347 432.124 30.2005 432.163 30.1752L441.659 24.7049C441.727 24.6678 441.807 24.6574 441.883 24.6758C441.959 24.6942 442.025 24.7399 442.068 24.8041C442.112 24.8683 442.129 24.9463 442.118 25.0227C442.106 25.0991 442.066 25.1684 442.005 25.217H441.971L438.745 27.0743L432.498 30.6818C432.444 30.7175 432.381 30.7371 432.316 30.738Z" fill="#679DBF"/>
<path d="M443.414 49.6818C443.357 49.6842 443.301 49.6684 443.255 49.6367L432.322 43.1759C432.273 43.1536 432.232 43.1189 432.202 43.0753C432.172 43.0317 432.154 42.9809 432.151 42.9282L431.981 30.7606C431.98 30.7062 431.994 30.6526 432.021 30.6052C432.048 30.5577 432.087 30.5182 432.134 30.4905C432.181 30.4628 432.235 30.4481 432.29 30.4481C432.345 30.4481 432.399 30.4628 432.447 30.4905L443.51 36.6137C443.56 36.6377 443.601 36.6755 443.629 36.7225C443.658 36.7694 443.672 36.8236 443.669 36.8782L443.743 49.3441C443.743 49.3989 443.728 49.4527 443.7 49.5001C443.672 49.5475 443.632 49.5868 443.584 49.6142C443.536 49.6538 443.476 49.6774 443.414 49.6818ZM432.787 42.7369L443.101 48.8038L443.033 37.0583L432.628 31.2784L432.787 42.7369Z" fill="#679DBF"/>
<path d="M445.396 49.6255C445.344 49.6266 445.293 49.6129 445.248 49.5861C445.2 49.5598 445.16 49.5217 445.131 49.4753C445.102 49.429 445.086 49.376 445.084 49.3215L444.93 36.8782C444.931 36.8233 444.946 36.7695 444.973 36.7222C445.001 36.6748 445.041 36.6354 445.089 36.608L456.073 30.316C456.121 30.2883 456.175 30.2736 456.23 30.2736C456.285 30.2736 456.338 30.2883 456.386 30.316C456.433 30.345 456.472 30.3856 456.499 30.4339C456.526 30.4822 456.54 30.5366 456.539 30.5918L456.266 42.9732C456.264 43.0255 456.249 43.0764 456.222 43.1215C456.196 43.1667 456.158 43.2046 456.113 43.2321L445.561 49.5973C445.509 49.6206 445.452 49.6303 445.396 49.6255ZM445.555 37.0583L445.703 48.77L455.647 42.7819L455.903 31.132L445.555 37.0583Z" fill="#6DB46C"/>
<path d="M456.102 30.5974C456.046 30.5985 455.991 30.5849 455.943 30.558L446.418 25.1439C446.385 25.12 446.357 25.0897 446.336 25.0549C446.314 25.0202 446.3 24.9815 446.294 24.9413C446.287 24.901 446.289 24.8599 446.299 24.8203C446.308 24.7807 446.326 24.7434 446.35 24.7106C446.393 24.655 446.452 24.6149 446.52 24.5966C446.588 24.5783 446.66 24.5827 446.725 24.6093L449.945 26.4384L456.233 30.0121C456.304 30.0533 456.356 30.1208 456.377 30.1999C456.399 30.279 456.387 30.3633 456.346 30.4342C456.321 30.4786 456.286 30.5165 456.244 30.5449C456.201 30.5733 456.153 30.5913 456.102 30.5974Z" fill="#6DB46C"/>
<path d="M456.34 30.6874C456.288 30.6858 456.238 30.6723 456.192 30.648C456.146 30.6203 456.107 30.5817 456.079 30.5355C456.052 30.4894 456.036 30.4372 456.033 30.3835L455.874 17.8501C455.876 17.8026 455.889 17.7562 455.912 17.7143C455.934 17.6724 455.966 17.6361 456.005 17.6081L466.87 11.3104C466.917 11.2853 466.97 11.2722 467.023 11.2722C467.077 11.2722 467.129 11.2853 467.177 11.3104C467.226 11.3317 467.269 11.3651 467.302 11.4075C467.335 11.4498 467.356 11.4997 467.364 11.5524V24.0521C467.365 24.1065 467.351 24.1601 467.324 24.2076C467.297 24.255 467.258 24.2945 467.211 24.3222L456.499 30.6368C456.452 30.6679 456.397 30.6855 456.34 30.6874ZM456.499 18.0189L456.647 29.8376L466.734 23.8776V12.0589L456.499 18.0189Z" fill="#6DB46C"/>
<path d="M455.488 16.3868C455.433 16.388 455.378 16.3744 455.329 16.3474L444.402 10.1567C444.354 10.1293 444.314 10.0899 444.286 10.0426C444.258 9.99518 444.243 9.94141 444.243 9.88656C444.243 9.83103 444.259 9.77665 444.288 9.72912C444.317 9.68159 444.358 9.64266 444.408 9.61642L455.511 3.67331C455.557 3.64818 455.609 3.63501 455.662 3.63501C455.714 3.63501 455.766 3.64818 455.812 3.67331L466.512 9.40818C466.55 9.42455 466.584 9.44832 466.613 9.47806C466.641 9.5078 466.663 9.5429 466.677 9.58126C466.691 9.61963 466.698 9.66046 466.696 9.70131C466.694 9.74217 466.684 9.7822 466.666 9.81902C466.636 9.88744 466.581 9.94191 466.512 9.97098L455.642 16.3418C455.596 16.3711 455.543 16.3867 455.488 16.3868ZM445.214 9.9147L455.5 15.7227L465.723 9.68958L455.659 4.28113L445.214 9.9147Z" fill="#EA812F"/>
<path d="M444.328 21.2325C444.245 21.2325 444.166 21.1999 444.107 21.1419C444.049 21.0838 444.016 21.0051 444.016 20.923V17.2254V10.0385C444.016 9.95741 444.048 9.87952 444.105 9.82163C444.163 9.76374 444.241 9.73048 444.323 9.729C444.405 9.729 444.485 9.76162 444.543 9.81966C444.602 9.87771 444.635 9.95645 444.635 10.0385V20.923C444.635 21.0051 444.602 21.0838 444.543 21.1419C444.485 21.1999 444.405 21.2325 444.323 21.2325H444.328Z" fill="#EA812F"/>
<path d="M433.373 16.5163C433.317 16.5174 433.262 16.5038 433.213 16.4769L422.286 10.2861C422.238 10.2587 422.198 10.2194 422.17 10.172C422.143 10.1246 422.128 10.0708 422.127 10.016C422.127 9.96173 422.141 9.90843 422.17 9.86182C422.198 9.81522 422.238 9.77706 422.286 9.75147L433.378 3.56073C433.425 3.53561 433.478 3.52246 433.532 3.52246C433.585 3.52246 433.638 3.53561 433.685 3.56073L444.402 9.63891C444.44 9.65528 444.474 9.67905 444.502 9.70879C444.531 9.73853 444.553 9.77363 444.567 9.812C444.581 9.85036 444.588 9.89119 444.586 9.93204C444.584 9.9729 444.573 10.0129 444.555 10.0498C444.526 10.1182 444.471 10.1726 444.402 10.2017L433.526 16.4769C433.479 16.5036 433.426 16.5172 433.373 16.5163ZM423.064 10.0385L433.361 15.8522L443.624 9.90905L433.526 4.23609L423.064 10.0385Z" fill="#EA812F"/>
<path d="M37.5355 26.9448C36.7029 26.1981 36.046 25.2792 35.6113 24.2532C35.1765 23.2273 34.9745 22.1192 35.0195 21.0073C35.0162 19.9764 35.2251 18.9556 35.6333 18.0073C36.0414 17.059 36.6404 16.2032 37.3935 15.4919C38.8531 14.1637 40.8012 13.3589 43.8113 13.3589C44.7976 13.3532 45.7829 13.4209 46.759 13.5615C47.5257 13.6628 48.1789 13.8429 48.7866 13.9048C49.0137 13.9048 49.0933 14.023 49.0933 14.1412C49.0933 14.2594 49.0308 14.5464 48.991 15.2668C48.9513 15.9872 48.991 17.0396 48.9286 17.4392C48.9286 17.7431 48.8661 17.9063 48.6843 17.9063C48.5026 17.9063 48.4799 17.7431 48.4799 17.4617C48.4531 16.7698 48.1724 16.1114 47.6904 15.6101C47.0202 14.9291 45.4186 14.3663 43.5671 14.3663C41.8008 14.3663 40.6422 14.8109 39.7505 15.6157C38.2681 16.9552 37.8819 18.8687 37.8819 20.8216C37.8819 25.611 41.5566 27.9859 44.277 27.9859C46.0888 27.9859 47.1849 27.7833 47.9971 26.8604C48.3233 26.474 48.5581 26.0201 48.6843 25.5322C48.7468 25.2114 48.7866 25.127 48.9513 25.127C49.116 25.127 49.133 25.2677 49.133 25.4309C49.0486 26.3333 48.8986 27.2286 48.6843 28.1098C48.6602 28.244 48.5975 28.3684 48.5038 28.4682C48.4102 28.568 48.2895 28.639 48.1561 28.6726C46.9711 29.0166 45.7385 29.1723 44.5042 29.134C41.7213 29.134 39.3927 28.5319 37.5355 26.9448Z" fill="#23569C"/>
<path d="M51.6888 22.4818C51.6888 19.6003 53.6142 15.8802 58.7087 15.8802C62.9399 15.8802 65.5752 18.3228 65.5752 22.1779C65.5752 26.0331 62.8547 29.0834 58.5383 29.0834C53.6653 29.0834 51.6888 25.459 51.6888 22.4818ZM63.1955 22.8026C63.1955 19.0263 61.0032 16.6907 58.2146 16.6907C56.2608 16.6907 54.0345 17.7656 54.0345 21.9584C54.0345 25.459 55.9939 28.2392 59.2539 28.2392C60.441 28.2392 63.1955 27.6764 63.1955 22.8082V22.8026Z" fill="#23569C"/>
<path d="M71.6636 23.962C71.6636 26.1175 71.6636 27.2825 72.0214 27.5808C72.3792 27.879 72.7484 27.9522 74.0774 27.9522C74.9747 27.9522 75.6392 27.9522 76.0652 27.4795C76.3034 27.1903 76.4567 26.8418 76.5082 26.472C76.5082 26.3201 76.5536 26.2188 76.6899 26.2188C76.8262 26.2188 76.8262 26.3032 76.8262 26.5058C76.7869 27.1563 76.7015 27.8032 76.5707 28.4418C76.4741 28.8133 76.3889 28.8977 75.5029 28.8977C73.055 28.8977 71.9362 28.7964 70.5561 28.7964C70.1699 28.7964 69.0964 28.847 68.4149 28.847C68.1934 28.847 68.0741 28.7964 68.0741 28.6782C68.0741 28.56 68.1423 28.5431 68.3467 28.5431C68.5531 28.5432 68.7588 28.5206 68.9601 28.4756C69.3009 28.4081 69.3861 28.0366 69.4542 27.5526C69.5394 26.8435 69.5394 25.5097 69.5394 23.962V20.9792C69.5394 18.4185 69.5394 17.9457 69.5054 17.4054C69.4713 16.8651 69.335 16.5669 68.7727 16.4487C68.5861 16.4093 68.3954 16.3923 68.2048 16.398C68.023 16.398 67.9208 16.3643 67.9208 16.2461C67.9208 16.1279 68.04 16.0941 68.2899 16.0941C69.0908 16.0941 70.1642 16.1448 70.6185 16.1448C71.0729 16.1448 72.2713 16.0941 72.9301 16.0941C73.1686 16.0941 73.2879 16.1279 73.2879 16.2461C73.2879 16.3643 73.1857 16.398 72.9812 16.398C72.7606 16.3979 72.5403 16.4148 72.3224 16.4487C71.8623 16.5331 71.7544 16.8145 71.692 17.4054C71.6295 17.9964 71.6579 18.4185 71.6579 20.9792V23.962H71.6636Z" fill="#23569C"/>
<path d="M80.1032 20.9792C80.1032 18.4185 80.1032 17.9457 80.0691 17.4054C80.035 16.8651 79.8987 16.5669 79.3365 16.4487C79.1277 16.4197 78.9166 16.4102 78.706 16.4205C78.5186 16.4205 78.4164 16.3868 78.4164 16.2686C78.4164 16.1504 78.5356 16.1166 78.7912 16.1166C79.6886 16.1166 80.762 16.1673 81.2675 16.1673C81.6764 16.1673 82.7498 16.1166 83.3575 16.1166C83.6131 16.1166 83.7324 16.1504 83.7324 16.2686C83.7324 16.3868 83.6302 16.4205 83.4598 16.4205C83.2956 16.4204 83.1319 16.4374 82.9713 16.4712C82.5113 16.5556 82.4034 16.8426 82.3409 17.4279C82.2784 18.0132 82.3068 18.441 82.3068 21.0017V23.371C82.3068 25.8136 82.801 26.8435 83.6302 27.5132C84.2293 27.993 84.9847 28.2392 85.7543 28.2055C86.6236 28.2195 87.4645 27.8987 88.0999 27.3106C89.037 26.382 89.0882 24.8681 89.0882 23.1347V20.9792C89.0882 18.4185 89.0882 17.9457 89.0541 17.4054C89.02 16.8651 88.8837 16.5669 88.3214 16.4487C88.1187 16.4151 87.9136 16.3981 87.708 16.398C87.5206 16.398 87.4184 16.3643 87.4184 16.2461C87.4184 16.1279 87.5377 16.0941 87.7762 16.0941C88.6452 16.0941 89.7129 16.1448 89.73 16.1448C89.9344 16.1448 91.0078 16.0941 91.6667 16.0941C91.9052 16.0941 92.0245 16.1279 92.0245 16.2461C92.0245 16.3643 91.9222 16.398 91.7178 16.398C91.543 16.4045 91.3696 16.4309 91.2009 16.4768C90.7409 16.5612 90.6046 16.8426 90.5705 17.4336C90.5364 18.0245 90.5364 18.4466 90.5364 21.0073V22.8083C90.5364 24.6767 90.349 26.6634 88.9235 27.8734C87.9437 28.7111 86.6779 29.146 85.3851 29.089C84.4878 29.089 82.8577 29.0384 81.6139 27.9241C80.7507 27.153 80.1032 25.9036 80.1032 23.4611V20.9792Z" fill="#23569C"/>
<path d="M96.0797 16.1842C96.1309 15.8971 96.2274 15.7452 96.3637 15.7452C96.5 15.7452 96.6023 15.8296 96.8238 16.2686L101.464 25.7629L106.087 16.1504C106.206 15.8802 106.309 15.7452 106.462 15.7452C106.615 15.7452 106.717 15.914 106.769 16.2686L108.313 26.6746C108.467 27.7327 108.637 28.2223 109.143 28.363C109.483 28.4751 109.84 28.5321 110.199 28.5319C110.352 28.5319 110.472 28.5319 110.472 28.6501C110.472 28.7682 110.267 28.8358 110.029 28.8358C109.603 28.8358 107.257 28.7851 106.581 28.7345C106.189 28.7007 106.087 28.6501 106.087 28.5487C106.087 28.4474 106.155 28.4137 106.274 28.363C106.394 28.3124 106.428 28.1098 106.36 27.637L105.337 20.2306H105.269L101.566 27.8734C101.174 28.6669 101.089 28.8189 100.936 28.8189C100.782 28.8189 100.612 28.4812 100.368 27.9747C99.9588 27.2037 98.6128 24.5979 98.414 24.1533C98.2607 23.7988 97.2384 21.677 96.642 20.4164H96.5739L95.6935 27.1193C95.6594 27.3805 95.6423 27.6437 95.6424 27.9072C95.6424 28.228 95.8639 28.3799 96.1536 28.47C96.386 28.5261 96.6243 28.5544 96.8635 28.5544C96.9998 28.5544 97.1191 28.5881 97.1191 28.6726C97.1191 28.757 96.9657 28.8583 96.7102 28.8583C96.0002 28.8583 95.2335 28.8076 94.9268 28.8076C94.6201 28.8076 93.7909 28.8583 93.2229 28.8583C93.0526 28.8583 92.9163 28.8245 92.9163 28.6726C92.9163 28.5206 93.0185 28.5544 93.1889 28.5544C93.3608 28.5599 93.5326 28.5428 93.7 28.5037C94.1771 28.4024 94.3077 27.744 94.3929 27.1755L96.0968 16.1954L96.0797 16.1842Z" fill="#23569C"/>
<path d="M114.209 20.9792C114.209 18.4185 114.209 17.9457 114.175 17.4054C114.14 16.8652 114.004 16.5669 113.442 16.4487C113.224 16.4195 113.003 16.4101 112.783 16.4205C112.596 16.4205 112.493 16.3868 112.493 16.2686C112.493 16.1504 112.613 16.1166 112.868 16.1166C113.766 16.1166 114.839 16.1673 115.18 16.1673C116.009 16.1673 116.674 16.1166 117.253 16.1166C120.325 16.1166 120.871 17.7487 120.871 18.6436C120.871 20.0224 120.07 20.8497 119.138 21.587C120.53 22.0597 122.228 23.2754 122.228 25.2226C122.228 27.0292 120.82 28.8977 117.684 28.8977C117.281 28.8977 115.731 28.7964 115.225 28.7964C114.833 28.7964 113.76 28.847 113.084 28.847C112.863 28.847 112.743 28.7964 112.743 28.6782C112.743 28.56 112.811 28.5431 113.016 28.5431C113.22 28.5432 113.424 28.5206 113.624 28.4756C113.964 28.4081 114.05 28.0366 114.118 27.5526C114.203 26.8435 114.203 25.5097 114.203 23.962V20.9792H114.209ZM116.248 21.2606C116.248 21.3956 116.299 21.4294 116.367 21.4463C116.631 21.4911 116.9 21.5081 117.168 21.4969C117.601 21.549 118.038 21.4342 118.389 21.1762C118.635 20.9514 118.826 20.6737 118.947 20.3645C119.068 20.0552 119.116 19.7226 119.087 19.3921C119.087 18.2665 118.423 16.7864 116.963 16.7864C116.773 16.7808 116.583 16.7921 116.395 16.8201C116.276 16.8539 116.242 16.9214 116.242 17.1015V21.2606H116.248ZM118.519 22.6113C118.103 22.3357 117.611 22.1942 117.111 22.2061H116.378C116.31 22.2061 116.276 22.2398 116.276 22.3243V26.3145C116.276 27.4401 116.327 27.7102 116.844 27.9297C117.238 28.0809 117.66 28.1499 118.082 28.1323C118.343 28.1475 118.605 28.1109 118.852 28.0249C119.098 27.9388 119.325 27.8049 119.519 27.631C119.713 27.4571 119.871 27.2466 119.982 27.0119C120.093 26.7771 120.156 26.5228 120.166 26.2638C120.175 26.1702 120.175 26.076 120.166 25.9824C120.192 25.329 120.055 24.6794 119.768 24.0907C119.48 23.5019 119.052 22.992 118.519 22.6057V22.6113Z" fill="#23569C"/>
<path d="M125.999 20.9792C125.999 18.4185 125.999 17.9457 125.965 17.4054C125.931 16.8651 125.767 16.55 125.397 16.4656C125.197 16.4151 124.991 16.3924 124.784 16.398C124.614 16.398 124.511 16.3643 124.511 16.2292C124.511 16.0941 124.648 16.0941 124.92 16.0941C125.568 16.0941 126.624 16.1448 127.13 16.1448C127.635 16.1448 128.555 16.0941 129.203 16.0941C129.424 16.0941 129.56 16.1279 129.56 16.2292C129.56 16.3305 129.458 16.398 129.288 16.398C129.116 16.3982 128.945 16.4151 128.777 16.4487C128.317 16.5331 128.209 16.8201 128.146 17.4054C128.084 17.9907 128.118 18.441 128.118 20.9792V23.962C128.118 25.5941 128.118 26.9279 128.186 27.6483C128.237 28.1041 128.356 28.4081 128.868 28.4756C129.156 28.5149 129.446 28.5374 129.737 28.5431C129.918 28.5431 130.003 28.5938 130.003 28.6782C130.003 28.7626 129.873 28.847 129.685 28.847C128.549 28.847 127.493 28.7964 127.033 28.7964C126.573 28.7964 125.573 28.847 124.892 28.847C124.67 28.847 124.551 28.7964 124.551 28.6782C124.551 28.56 124.619 28.5431 124.824 28.5431C125.03 28.5432 125.236 28.5206 125.437 28.4756C125.772 28.4081 125.874 28.121 125.926 27.6314C126.011 26.9279 126.011 25.5941 126.011 23.962V20.9792H125.999Z" fill="#23569C"/>
<path d="M136.342 24.4516C136.257 24.4516 136.223 24.4854 136.188 24.5867L135.274 26.9954C135.133 27.3206 135.046 27.6667 135.018 28.0197C135.018 28.3236 135.172 28.5431 135.694 28.5431H135.95C136.154 28.5431 136.206 28.5769 136.206 28.6782C136.206 28.7795 136.103 28.847 135.916 28.847C135.348 28.847 134.644 28.7964 134.115 28.7964C133.928 28.7964 132.98 28.847 132.111 28.847C131.889 28.847 131.787 28.8133 131.787 28.6782C131.787 28.5431 131.855 28.5431 131.991 28.5431C132.168 28.5431 132.344 28.5318 132.52 28.5094C133.303 28.4081 133.621 27.834 133.962 26.9954L138.227 16.4205C138.432 15.9309 138.534 15.7452 138.704 15.7452C138.875 15.7452 138.96 15.8971 139.13 16.308C139.539 17.231 142.254 24.1027 143.345 26.6634C143.992 28.1773 144.481 28.4137 144.838 28.4981C145.074 28.5429 145.314 28.5655 145.554 28.5656C145.69 28.5656 145.775 28.5656 145.775 28.7007C145.775 28.8358 145.622 28.8695 144.992 28.8695C144.361 28.8695 143.14 28.8695 141.777 28.8358C141.476 28.8358 141.272 28.8358 141.272 28.7007C141.272 28.5656 141.34 28.5656 141.51 28.5488C141.545 28.5368 141.577 28.5181 141.605 28.4937C141.632 28.4693 141.654 28.4398 141.67 28.4068C141.686 28.3738 141.695 28.338 141.697 28.3015C141.699 28.265 141.693 28.2285 141.681 28.1942V28.1604L140.317 24.5923C140.307 24.5562 140.285 24.5247 140.253 24.5032C140.222 24.4817 140.185 24.4714 140.147 24.4741L136.342 24.4516ZM139.806 23.6074C139.892 23.6074 139.909 23.5568 139.891 23.5061L138.341 19.3471C138.341 19.2795 138.307 19.1951 138.256 19.1951C138.205 19.1951 138.171 19.2795 138.154 19.3471L136.637 23.4892C136.637 23.5568 136.637 23.6074 136.705 23.6074H139.806Z" fill="#23569C"/>
<path d="M154.55 19.4765C154.55 16.4205 154.55 15.8577 154.511 15.2105C154.471 14.5633 154.306 14.2031 153.636 14.0849C153.373 14.0408 153.107 14.022 152.841 14.0287C152.619 14.0287 152.5 13.9836 152.5 13.8429C152.5 13.7022 152.642 13.6628 152.943 13.6628C154.022 13.6628 155.3 13.7247 155.908 13.7247C156.396 13.7247 157.674 13.6628 158.407 13.6628C158.713 13.6628 158.855 13.7022 158.855 13.8429C158.855 13.9836 158.73 14.0287 158.532 14.0287C158.341 14.0304 158.151 14.0492 157.964 14.0849C157.396 14.1862 157.254 14.5295 157.214 15.2105C157.174 15.8915 157.169 16.4205 157.169 19.4765V22.2905C157.169 25.2058 157.736 26.4326 158.753 27.2431C159.469 27.817 160.372 28.1095 161.292 28.0648C162.335 28.0814 163.342 27.6913 164.098 26.9786C165.233 25.853 165.273 24.0633 165.273 21.9866V19.4765C165.273 16.4205 165.273 15.8577 165.233 15.2105C165.194 14.5633 165.029 14.2031 164.359 14.0849C164.119 14.0436 163.875 14.0248 163.632 14.0287C163.405 14.0287 163.285 13.9836 163.285 13.8429C163.285 13.7022 163.427 13.6628 163.711 13.6628C164.745 13.6628 166.029 13.7247 166.046 13.7247C166.29 13.7247 167.568 13.6628 168.363 13.6628C168.647 13.6628 168.789 13.7022 168.789 13.8429C168.789 13.9836 168.664 14.0287 168.42 14.0287C168.229 14.0304 168.039 14.0492 167.852 14.0849C167.284 14.1862 167.142 14.5295 167.096 15.2105C167.051 15.8915 167.057 16.4205 167.057 19.4765V21.632C167.057 23.8832 166.835 26.2413 165.126 27.6877C163.958 28.6885 162.448 29.2081 160.906 29.1397C159.827 29.1397 157.878 29.0778 156.396 27.7496C155.357 26.821 154.59 25.3352 154.59 22.4143V19.4765H154.55Z" fill="#23569C"/>
<path d="M172.918 26.5564C172.952 27.8677 173.173 28.3067 173.514 28.4249C173.798 28.5145 174.096 28.5545 174.394 28.5431C174.582 28.5431 174.684 28.5769 174.684 28.6782C174.684 28.7795 174.531 28.847 174.292 28.847C173.19 28.847 172.509 28.7963 172.185 28.7963C172.032 28.7963 171.236 28.847 170.35 28.847C170.129 28.847 169.981 28.847 169.981 28.6782C169.981 28.5093 170.078 28.5431 170.248 28.5431C170.506 28.5488 170.764 28.5204 171.015 28.4587C171.458 28.3236 171.526 27.834 171.543 26.3707L171.697 16.4036C171.697 16.0659 171.748 15.8408 171.912 15.8408C172.077 15.8408 172.253 16.0603 172.543 16.3642C172.747 16.5837 175.331 19.3245 177.813 21.767C178.949 22.8926 181.261 25.3352 181.55 25.6053H181.636L181.465 18.047C181.465 17.0171 181.295 16.7019 180.897 16.5331C180.606 16.4489 180.303 16.4147 180 16.4318C179.796 16.4318 179.727 16.3811 179.727 16.2798C179.727 16.1785 179.915 16.1278 180.17 16.1278C181.051 16.1278 181.874 16.1785 182.226 16.1785C182.414 16.1785 183.056 16.1278 183.89 16.1278C184.112 16.1278 184.282 16.1278 184.282 16.2798C184.282 16.4318 184.18 16.4318 183.976 16.4318C183.804 16.426 183.632 16.443 183.464 16.4824C182.987 16.6175 182.851 16.9664 182.834 17.9119L182.641 28.5262C182.641 28.8977 182.573 29.0496 182.419 29.0496C182.195 28.9897 181.995 28.8594 181.851 28.6782C180.784 27.6651 178.608 25.459 176.836 23.7256C174.985 21.9077 173.099 19.786 172.793 19.4821H172.742L172.929 26.5564H172.918Z" fill="#23569C"/>
<path d="M188.604 20.9792C188.604 18.4185 188.604 17.9457 188.57 17.4054C188.536 16.8651 188.366 16.55 188.002 16.4656C187.802 16.4151 187.596 16.3924 187.389 16.398C187.219 16.398 187.116 16.3643 187.116 16.2292C187.116 16.0941 187.253 16.0941 187.525 16.0941C188.167 16.0941 189.229 16.1448 189.735 16.1448C190.24 16.1448 191.16 16.0941 191.808 16.0941C192.029 16.0941 192.166 16.1279 192.166 16.2292C192.166 16.3305 192.063 16.398 191.893 16.398C191.721 16.3982 191.55 16.4151 191.382 16.4487C190.922 16.5331 190.785 16.8201 190.751 17.4054C190.717 17.9907 190.717 18.4185 190.717 20.9792V23.962C190.717 25.5941 190.717 26.9279 190.785 27.6483C190.837 28.1041 190.956 28.4081 191.467 28.4756C191.753 28.5151 192.041 28.5376 192.33 28.5431C192.518 28.5431 192.603 28.5938 192.603 28.6782C192.603 28.7626 192.467 28.847 192.285 28.847C191.149 28.847 190.093 28.7964 189.632 28.7964C189.172 28.7964 188.167 28.847 187.491 28.847C187.27 28.847 187.151 28.7964 187.151 28.6782C187.151 28.56 187.219 28.5431 187.423 28.5431C187.63 28.5432 187.835 28.5206 188.037 28.4756C188.372 28.4081 188.474 28.121 188.525 27.6314C188.61 26.9279 188.61 25.5941 188.61 23.962V20.9792H188.604Z" fill="#23569C"/>
<path d="M196.067 17.7431C195.675 16.8201 195.386 16.6175 194.778 16.4656C194.56 16.415 194.337 16.3923 194.113 16.398C193.96 16.398 193.909 16.3474 193.909 16.2461C193.909 16.1448 194.096 16.0941 194.352 16.0941C195.255 16.0941 196.22 16.1448 196.817 16.1448C197.243 16.1448 198.055 16.0941 198.907 16.0941C199.111 16.0941 199.299 16.1279 199.299 16.2461C199.299 16.3643 199.197 16.398 199.043 16.398C198.815 16.3748 198.585 16.4157 198.379 16.5162C198.322 16.5558 198.276 16.6092 198.247 16.6713C198.217 16.7334 198.204 16.8021 198.208 16.8708C198.282 17.3173 198.413 17.7525 198.6 18.1652L201.525 25.808H201.588C202.32 23.9564 204.53 18.5366 204.939 17.4223C205.023 17.2256 205.075 17.0165 205.092 16.8032C205.095 16.7331 205.076 16.6638 205.036 16.6058C204.996 16.5479 204.938 16.5045 204.87 16.4824C204.649 16.4202 204.419 16.3918 204.189 16.398C204.035 16.398 203.899 16.398 203.899 16.263C203.899 16.1279 204.053 16.0941 204.376 16.0941C205.228 16.0941 205.938 16.1448 206.16 16.1448C206.381 16.1448 207.25 16.0941 207.756 16.0941C207.977 16.0941 208.113 16.1279 208.113 16.2461C208.113 16.3643 208.011 16.398 207.846 16.398C207.554 16.3827 207.264 16.4532 207.012 16.6006C206.79 16.747 206.534 17.034 206.074 18.1145C205.416 19.696 204.939 20.6077 204.035 22.6788C202.951 25.1382 202.15 26.9729 201.764 27.8115C201.326 28.7908 201.224 29.0609 200.986 29.0609C200.747 29.0609 200.662 28.8245 200.338 28.031L196.067 17.7431Z" fill="#23569C"/>
<path d="M210.811 20.9791C210.811 18.4184 210.811 17.9457 210.777 17.4054C210.743 16.8651 210.607 16.5668 210.045 16.4486C209.825 16.4094 209.603 16.3924 209.38 16.398C209.198 16.398 209.096 16.3642 209.096 16.246C209.096 16.1278 209.215 16.0941 209.465 16.0941C210.368 16.0941 211.442 16.1447 211.913 16.1447H216.15C216.392 16.1222 216.637 16.0884 216.883 16.0434C216.972 16.0156 217.063 15.9931 217.155 15.9759C217.24 15.9759 217.258 16.0434 217.258 16.1278C217.195 16.488 217.15 16.8538 217.121 17.2197C217.121 17.3885 217.07 18.1314 217.036 18.3453C217.038 18.3686 217.034 18.3921 217.026 18.4142C217.019 18.4363 217.006 18.4566 216.991 18.4739C216.975 18.4913 216.955 18.5053 216.934 18.5151C216.912 18.5249 216.889 18.5303 216.866 18.531C216.746 18.531 216.712 18.4466 216.712 18.2946C216.712 18.0878 216.678 17.8824 216.61 17.6868C216.491 17.3829 216.32 17.1803 215.474 17.079C215.184 17.0452 213.401 17.0171 213.06 17.0171C212.975 17.0171 212.941 17.0621 212.941 17.1803V21.4406C212.941 21.5588 212.941 21.6263 213.06 21.6263C213.435 21.6263 215.389 21.6263 215.775 21.5926C216.07 21.6093 216.36 21.5193 216.593 21.3393C216.712 21.2042 216.78 21.1198 216.866 21.1198C216.951 21.1198 216.985 21.1592 216.985 21.2549C216.918 21.6632 216.873 22.0746 216.849 22.4874C216.815 22.8251 216.78 23.4948 216.78 23.613C216.78 23.7312 216.78 23.9338 216.627 23.9338C216.609 23.9362 216.591 23.935 216.573 23.9303C216.556 23.9256 216.54 23.9175 216.525 23.9065C216.511 23.8955 216.499 23.8818 216.49 23.8662C216.481 23.8506 216.476 23.8334 216.474 23.8156V23.7818C216.462 23.5782 216.44 23.3752 216.406 23.174C216.32 22.842 216.082 22.6112 215.457 22.5212C215.133 22.4874 213.452 22.4705 213.043 22.4705C212.958 22.4705 212.941 22.5381 212.941 22.6394V26.5789C212.975 27.7383 213.248 27.9915 214.98 27.9915C215.52 28.0258 216.062 27.957 216.576 27.7889C217.019 27.5863 217.223 27.2261 217.343 26.5452C217.377 26.3594 217.411 26.2919 217.53 26.2919C217.649 26.2919 217.666 26.427 217.666 26.5958C217.64 27.2134 217.57 27.8284 217.456 28.4362C217.337 28.8751 217.184 28.8751 216.536 28.8751C213.969 28.8751 212.833 28.7738 211.828 28.7738C211.442 28.7738 210.368 28.8245 209.687 28.8245C209.471 28.8245 209.352 28.7738 209.352 28.6556C209.352 28.5375 209.42 28.5206 209.619 28.5206C209.825 28.5207 210.031 28.498 210.232 28.453C210.573 28.3855 210.658 28.0141 210.726 27.5244C210.811 26.8209 210.811 25.4871 210.811 23.9394V20.9566V20.9791Z" fill="#23569C"/>
<path d="M222.483 20.9791C222.483 18.4184 222.483 17.9457 222.448 17.4054C222.414 16.8651 222.278 16.5668 221.721 16.4486C221.502 16.4094 221.28 16.3925 221.057 16.398C220.87 16.398 220.767 16.3642 220.767 16.246C220.767 16.1279 220.887 16.0941 221.142 16.0941C222.045 16.0941 223.113 16.1447 223.471 16.1447C224.039 16.1447 225.339 16.0941 225.868 16.0941C226.959 16.0155 228.049 16.2688 228.991 16.8201C229.346 17.0918 229.633 17.4407 229.83 17.8399C230.027 18.239 230.128 18.6776 230.127 19.1219C230.127 20.3713 229.599 21.5138 227.884 22.8983C229.394 24.7836 230.564 26.275 231.57 27.3275C232.06 27.9022 232.729 28.2984 233.472 28.453C233.63 28.4838 233.789 28.5008 233.949 28.5037C234.086 28.5037 234.154 28.5544 234.154 28.6388C234.154 28.7232 234.035 28.8076 233.83 28.8076H232.217C231.593 28.8684 230.964 28.7574 230.4 28.4868C229.667 28.0985 229.02 27.3106 228.071 26.0105C227.39 25.0875 226.606 23.9394 226.367 23.6862C226.329 23.6443 226.281 23.6119 226.228 23.5914C226.175 23.5708 226.117 23.5628 226.061 23.568L224.578 23.5342C224.493 23.5342 224.442 23.568 224.442 23.6693V23.9338C224.442 25.4984 224.442 26.8322 224.527 27.5413C224.578 28.0253 224.681 28.3968 225.192 28.4643C225.468 28.5036 225.747 28.5261 226.027 28.5318C226.163 28.5318 226.231 28.5825 226.231 28.6669C226.231 28.7513 226.112 28.8357 225.89 28.8357C224.902 28.8357 223.618 28.7851 223.391 28.7851C223.164 28.7851 222 28.8357 221.318 28.8357C221.097 28.8357 220.977 28.7851 220.977 28.6669C220.977 28.5487 221.046 28.5318 221.25 28.5318C221.456 28.5319 221.662 28.5093 221.863 28.4643C222.199 28.3968 222.284 28.0253 222.352 27.5413C222.437 26.8322 222.437 25.4984 222.437 23.9507V20.9791H222.483ZM224.487 22.3073C224.487 22.4931 224.521 22.5606 224.641 22.6112C225.062 22.729 225.498 22.7859 225.936 22.7801C226.359 22.8374 226.789 22.735 227.14 22.4931C227.651 22.1216 228.145 21.3675 228.145 19.9661C228.145 17.5742 226.543 16.8876 225.544 16.8876C225.241 16.8706 224.937 16.8933 224.641 16.9552C224.521 16.9889 224.487 17.0508 224.487 17.1859V22.3073Z" fill="#23569C"/>
<path d="M235.421 28.6444C235.148 28.5262 235.097 28.4418 235.097 28.0816C235.097 27.1586 235.165 26.1456 235.182 25.8755C235.199 25.6053 235.25 25.4421 235.387 25.4421C235.523 25.4421 235.557 25.5884 235.557 25.7235C235.574 26.0155 235.625 26.3045 235.71 26.5846C235.856 27.1002 236.177 27.55 236.619 27.8578C237.061 28.1655 237.597 28.3122 238.135 28.273C239.669 28.273 240.407 27.2487 240.407 26.3538C240.407 25.459 240.157 24.7386 238.743 23.6581L237.965 23.0559C236.102 21.6039 235.46 20.4164 235.46 19.0657C235.46 17.2084 237.022 15.8802 239.385 15.8802C240.152 15.8684 240.917 15.9651 241.657 16.1673C241.81 16.201 241.895 16.2517 241.895 16.3699C241.895 16.5894 241.827 17.0734 241.827 18.3903C241.827 18.7617 241.776 18.8968 241.64 18.8968C241.503 18.8968 241.469 18.7955 241.469 18.5929C241.442 18.1816 241.287 17.7886 241.026 17.4673C240.81 17.1897 240.528 16.9694 240.205 16.8261C239.882 16.6827 239.528 16.6207 239.175 16.6456C237.92 16.6456 237.153 17.366 237.153 18.379C237.153 19.1501 237.545 19.741 238.953 20.8047L239.43 21.1592C241.469 22.7238 242.219 23.8494 242.219 25.4477C242.231 26.032 242.09 26.6094 241.809 27.1234C241.528 27.6373 241.118 28.0703 240.617 28.3799C239.805 28.8647 238.868 29.1052 237.92 29.0721C237.07 29.1052 236.223 28.9555 235.438 28.6332L235.421 28.6444Z" fill="#23569C"/>
<path d="M246.995 20.9792C246.995 18.4185 246.995 17.9457 246.961 17.4054C246.927 16.8651 246.757 16.55 246.393 16.4656C246.193 16.4151 245.987 16.3924 245.78 16.398C245.61 16.398 245.507 16.3643 245.507 16.2292C245.507 16.0941 245.644 16.0941 245.916 16.0941C246.564 16.0941 247.62 16.1448 248.126 16.1448C248.631 16.1448 249.551 16.0941 250.199 16.0941C250.42 16.0941 250.557 16.1279 250.557 16.2292C250.557 16.3305 250.454 16.398 250.284 16.398C250.114 16.3979 249.945 16.4149 249.778 16.4487C249.318 16.5331 249.211 16.8201 249.148 17.4054C249.086 17.9907 249.091 18.441 249.091 20.9792V23.962C249.091 25.5941 249.091 26.9279 249.159 27.6483C249.211 28.1041 249.33 28.4081 249.835 28.4756C250.123 28.5149 250.413 28.5374 250.704 28.5431C250.892 28.5431 250.977 28.5938 250.977 28.6782C250.977 28.7626 250.841 28.847 250.653 28.847C249.517 28.847 248.461 28.7964 248.001 28.7964C247.541 28.7964 246.541 28.847 245.86 28.847C245.638 28.847 245.519 28.7964 245.519 28.6782C245.519 28.56 245.587 28.5431 245.791 28.5431C245.998 28.5432 246.204 28.5206 246.405 28.4756C246.746 28.4081 246.848 28.121 246.899 27.6314C246.984 26.9279 246.984 25.5941 246.984 23.962V20.9792H246.995Z" fill="#23569C"/>
<path d="M258.604 17.0396L256.071 17.1071C255.083 17.1409 254.674 17.2253 254.424 17.5967C254.294 17.7758 254.196 17.9757 254.134 18.1877C254.1 18.3228 254.049 18.3903 253.947 18.3903C253.845 18.3903 253.794 18.3059 253.794 18.1201C253.794 17.9344 254.117 16.3192 254.152 16.1841C254.203 15.9646 254.254 15.8633 254.356 15.8633C254.591 15.9538 254.835 16.0216 255.083 16.0659C255.577 16.1166 256.219 16.1504 256.787 16.1504H263.511C264.061 16.1561 264.61 16.0995 265.147 15.9815C265.261 15.9815 265.278 16.0828 265.278 16.3361C265.278 16.6906 265.232 17.85 265.232 18.289C265.232 18.4578 265.181 18.5591 265.079 18.5591C264.977 18.5591 264.909 18.4747 264.891 18.2215V18.0357C264.857 17.5967 264.397 17.124 262.887 17.0902L260.728 17.0396V23.962C260.728 25.5153 260.728 26.8435 260.808 27.5695C260.865 28.0366 260.967 28.408 261.472 28.4756C261.76 28.5148 262.051 28.5374 262.341 28.5431C262.529 28.5431 262.614 28.5937 262.614 28.6782C262.614 28.7626 262.478 28.847 262.29 28.847C261.154 28.847 260.098 28.7964 259.621 28.7964C259.144 28.7964 258.178 28.8583 257.48 28.8583C257.258 28.8583 257.139 28.8076 257.139 28.6894C257.139 28.5712 257.207 28.5544 257.412 28.5544C257.618 28.5544 257.824 28.5318 258.025 28.4868C258.366 28.4193 258.468 28.0478 258.519 27.5638C258.604 26.8547 258.604 25.5265 258.604 23.9732V17.0396Z" fill="#23569C"/>
<path d="M272.695 24.4966C272.722 23.8845 272.589 23.2757 272.309 22.7295C272.19 22.4593 269.912 18.7561 269.316 17.8782C269.018 17.382 268.62 16.9526 268.146 16.6175C267.926 16.495 267.682 16.4202 267.43 16.398C267.294 16.398 267.175 16.3643 267.175 16.2461C267.175 16.1279 267.294 16.0941 267.498 16.0941C267.805 16.0941 269.077 16.1448 269.64 16.1448C269.997 16.1448 270.69 16.0941 271.457 16.0941C271.627 16.0941 271.713 16.1448 271.713 16.2461C271.713 16.3474 271.593 16.3643 271.338 16.4318C271.269 16.4474 271.207 16.4861 271.164 16.5415C271.12 16.5969 271.097 16.6655 271.099 16.7357C271.128 16.9352 271.197 17.1267 271.304 17.2985C271.542 17.805 273.922 21.8628 274.195 22.3636C274.365 21.9584 276.506 18.2552 276.745 17.7318C276.881 17.4596 276.96 17.1629 276.978 16.8595C276.983 16.7583 276.949 16.6587 276.884 16.5806C276.819 16.5025 276.727 16.4514 276.625 16.4374C276.472 16.4037 276.319 16.3699 276.319 16.2686C276.319 16.1673 276.404 16.1166 276.608 16.1166C277.176 16.1166 277.71 16.1673 278.204 16.1673C278.579 16.1673 279.698 16.1166 280.022 16.1166C280.209 16.1166 280.328 16.1504 280.328 16.2517C280.328 16.353 280.192 16.4205 280.005 16.4205C279.743 16.4339 279.487 16.503 279.255 16.6231C278.887 16.8193 278.573 17.1013 278.341 17.4448C277.153 19.1675 276.071 20.9584 275.098 22.8083C274.892 23.3465 274.804 23.9222 274.842 24.4966V25.8755C274.842 26.1456 274.842 26.8548 274.893 27.5639C274.927 28.0479 275.081 28.4193 275.586 28.4869C275.868 28.5261 276.153 28.5487 276.438 28.5544C276.625 28.5544 276.711 28.605 276.711 28.6895C276.711 28.7739 276.574 28.8583 276.353 28.8583C275.279 28.8583 274.212 28.8076 273.752 28.8076C273.292 28.8076 272.258 28.8583 271.627 28.8583C271.389 28.8583 271.253 28.8245 271.253 28.6895C271.253 28.5544 271.338 28.5544 271.525 28.5544C271.726 28.5545 271.926 28.5318 272.122 28.4869C272.462 28.4193 272.616 28.0479 272.65 27.5639C272.701 26.8548 272.701 26.1456 272.701 25.8755V24.4966H272.695Z" fill="#23569C"/>
<path d="M37.3027 41.8813V39.5401C37.3027 39.1856 37.1721 38.9773 36.9279 38.921C36.7959 38.8891 36.6604 38.874 36.5246 38.876C36.411 38.876 36.3429 38.876 36.3429 38.7635C36.3429 38.6509 36.4338 38.6734 36.6098 38.6734C37.0358 38.6734 37.7457 38.7072 38.0638 38.7072C38.3818 38.7072 39.0009 38.6734 39.4269 38.6734C39.5688 38.6734 39.6597 38.6734 39.6597 38.7635C39.6597 38.8535 39.5916 38.876 39.4836 38.876C39.3711 38.8758 39.2588 38.8871 39.1486 38.9098C38.8419 38.9661 38.7567 39.1518 38.734 39.5401C38.7112 39.9284 38.734 40.2042 38.734 41.8813V43.8286C38.734 44.9035 38.734 45.7759 38.7794 46.2542C38.8135 46.5525 38.8873 46.7495 39.2224 46.817C39.4106 46.8432 39.6003 46.8583 39.7903 46.8621C39.9096 46.8621 39.9664 46.8958 39.9664 46.9465C39.9664 46.9971 39.8755 47.059 39.7563 47.059C39.0179 47.059 38.3137 47.0253 38.0127 47.0253C37.7116 47.0253 37.0528 47.059 36.6098 47.059C36.4622 47.059 36.3827 47.0253 36.3827 46.9465C36.3827 46.8677 36.4281 46.8621 36.5644 46.8621C36.6982 46.8613 36.8315 46.8462 36.962 46.817C37.1891 46.772 37.2573 46.5863 37.2857 46.2542C37.3425 45.7928 37.3425 44.9204 37.3425 43.8455V41.8813H37.3027Z" fill="#23569C"/>
<path d="M43.5444 45.5338C43.5444 46.3949 43.7091 46.6594 43.9306 46.7607C44.1142 46.818 44.3061 46.8446 44.4985 46.8395C44.6178 46.8395 44.686 46.8395 44.686 46.924C44.686 47.0084 44.5837 47.0365 44.4304 47.0365C43.7034 47.0365 43.2604 47.0027 43.0446 47.0027C42.9424 47.0027 42.4198 47.0365 41.8405 47.0365C41.6929 47.0365 41.5963 47.0365 41.5963 46.924C41.5963 46.8114 41.6815 46.8677 41.7894 46.8677C41.9597 46.8716 42.1297 46.8526 42.2949 46.8114C42.5845 46.7213 42.63 46.4006 42.6413 45.4382L42.7379 38.8929C42.7379 38.6734 42.772 38.5158 42.8856 38.5158C42.9991 38.5158 43.1071 38.6621 43.2945 38.8591C43.4819 39.0561 45.129 40.8064 46.759 42.4103C47.5143 43.1589 49.0308 44.7516 49.2125 44.9317H49.2693L49.1728 39.934C49.1728 39.2643 49.0592 39.0505 48.7922 38.9435C48.6075 38.8927 48.416 38.8699 48.2243 38.876C48.088 38.876 48.0482 38.8422 48.0482 38.7747C48.0482 38.7072 48.1675 38.6734 48.3379 38.6734C48.9058 38.6734 49.4738 38.7072 49.6839 38.7072C49.8089 38.7072 50.2519 38.6734 50.7801 38.6734C50.9277 38.6734 51.0356 38.6734 51.0356 38.7747C51.0356 38.876 50.9675 38.876 50.8369 38.876C50.7241 38.8702 50.6111 38.8816 50.5018 38.9098C50.1894 38.9942 50.0985 39.2306 50.0872 39.8496L49.9679 46.8283C49.9679 47.0703 49.9225 47.1716 49.8202 47.1716C49.718 47.1716 49.5647 47.0478 49.4397 46.924C48.7354 46.2599 47.3099 44.8135 46.1513 43.6766C44.9927 42.5398 43.692 41.099 43.4933 40.8627H43.4592L43.5841 45.5113L43.5444 45.5338Z" fill="#23569C"/>
<path d="M59.4525 39.2981L57.7941 39.3375C57.1466 39.3375 56.8797 39.4163 56.7093 39.6583C56.6266 39.7771 56.5633 39.9082 56.5219 40.0466C56.5234 40.0638 56.5214 40.0811 56.5158 40.0974C56.5102 40.1138 56.5013 40.1288 56.4895 40.1415C56.4778 40.1542 56.4635 40.1644 56.4475 40.1713C56.4316 40.1782 56.4143 40.1817 56.3969 40.1817C56.3288 40.1817 56.2947 40.1254 56.2947 40.0016C56.2947 39.8778 56.5105 38.8197 56.5332 38.7297C56.5559 38.6396 56.6014 38.5214 56.6638 38.5214C56.8197 38.5827 56.9814 38.628 57.1466 38.6565C57.4703 38.6565 57.8906 38.7071 58.2825 38.7071H62.7012C62.9595 38.7071 63.2175 38.6902 63.4736 38.6565C63.5727 38.6318 63.6732 38.613 63.7746 38.6002C63.8541 38.6002 63.8655 38.6678 63.8655 38.831C63.8655 38.9942 63.8314 39.8271 63.8314 40.1141C63.8314 40.2211 63.7973 40.2886 63.7291 40.2886C63.661 40.2886 63.6212 40.2379 63.6099 40.0691V39.9509C63.6099 39.6583 63.2861 39.3487 62.2922 39.3262H60.8837V43.8286C60.8837 44.8472 60.8837 45.7196 60.9405 46.1979C60.9746 46.5075 61.0427 46.7607 61.3778 46.7945C61.5661 46.8207 61.7557 46.8357 61.9458 46.8395C62.0651 46.8395 62.1218 46.8395 62.1218 46.9239C62.1218 47.0084 62.0367 47.0365 61.9117 47.0365C61.1734 47.0365 60.4691 47.0027 60.1567 47.0027C59.8444 47.0027 59.1969 47.0365 58.7539 47.0365C58.6062 47.0365 58.5324 47.0027 58.5324 46.9239C58.5324 46.8452 58.5722 46.8395 58.7085 46.8395C58.8441 46.8388 58.9793 46.8237 59.1117 46.7945C59.3332 46.7495 59.4014 46.5075 59.4354 46.1867C59.4922 45.7196 59.4922 44.8472 59.4922 43.8286V39.3262L59.4525 39.2981Z" fill="#23569C"/>
<path d="M72.1861 42.1909C72.2042 42.1909 72.2215 42.1837 72.2343 42.1711C72.2471 42.1584 72.2542 42.1412 72.2542 42.1233V39.5401C72.2542 39.1855 72.1463 38.9773 71.7772 38.9098C71.6325 38.8871 71.4863 38.8758 71.3398 38.876C71.2149 38.876 71.1524 38.876 71.1524 38.7747C71.1524 38.6734 71.2263 38.6734 71.3853 38.6734C71.9873 38.6734 72.6916 38.7072 72.9926 38.7072C73.2936 38.7072 73.9638 38.6734 74.3954 38.6734C74.5544 38.6734 74.634 38.6734 74.634 38.7747C74.634 38.876 74.5658 38.876 74.4295 38.876C74.3207 38.8761 74.2122 38.8874 74.1058 38.9098C73.8047 38.9661 73.7196 39.1518 73.6968 39.5401C73.6741 39.9284 73.6968 40.2042 73.6968 41.8813V43.8286C73.6968 44.8473 73.6968 45.7196 73.7536 46.198C73.782 46.5075 73.8502 46.7608 74.1853 46.7945C74.3735 46.8207 74.5632 46.8357 74.7532 46.8395C74.8782 46.8395 74.935 46.8733 74.935 46.924C74.935 46.9746 74.8441 47.0365 74.7135 47.0365C73.9865 47.0365 73.2822 47.0028 72.9699 47.0028C72.6575 47.0028 72.01 47.0365 71.5727 47.0365C71.4194 47.0365 71.3398 47.0028 71.3398 46.924C71.3398 46.8452 71.3853 46.8395 71.5216 46.8395C71.6554 46.8388 71.7887 46.8237 71.9192 46.7945C72.1463 46.7495 72.1974 46.5075 72.2429 46.1867C72.2997 45.7196 72.2997 44.8473 72.2997 43.8286V42.855C72.2997 42.837 72.2925 42.8199 72.2797 42.8072C72.2669 42.7945 72.2496 42.7874 72.2315 42.7874H67.9151C67.9069 42.7867 67.8986 42.7875 67.8907 42.7899C67.8828 42.7923 67.8755 42.7963 67.8692 42.8015C67.8629 42.8067 67.8576 42.8132 67.8538 42.8204C67.85 42.8276 67.8477 42.8356 67.8469 42.8437V43.8286C67.8469 44.8473 67.8469 45.7196 67.9037 46.198C67.9378 46.5075 68.0003 46.7608 68.3354 46.7945C68.5236 46.8207 68.7133 46.8357 68.9033 46.8395C69.0226 46.8395 69.0794 46.8733 69.0794 46.924C69.0794 46.9746 68.9885 47.0365 68.8579 47.0365C68.1309 47.0365 67.4267 47.0028 67.1143 47.0028C66.8019 47.0028 66.1545 47.0365 65.7115 47.0365C65.5638 47.0365 65.4843 47.0028 65.4843 46.924C65.4843 46.8452 65.5297 46.8395 65.666 46.8395C65.7998 46.8388 65.9331 46.8237 66.0636 46.7945C66.2908 46.7495 66.3476 46.5075 66.3873 46.1867C66.4441 45.7196 66.4441 44.8473 66.4441 43.8286V39.5401C66.4441 39.1855 66.3362 38.9773 65.967 38.9098C65.8224 38.8871 65.6762 38.8758 65.5297 38.876C65.4104 38.876 65.3423 38.876 65.3423 38.7747C65.3423 38.6734 65.4218 38.6734 65.5751 38.6734C66.1772 38.6734 66.8814 38.7072 67.1824 38.7072C67.4835 38.7072 68.1536 38.6734 68.591 38.6734C68.7443 38.6734 68.8238 38.6734 68.8238 38.7747C68.8238 38.876 68.7557 38.876 68.625 38.876C68.5144 38.8761 68.404 38.8874 68.2956 38.9098C67.9946 38.9661 67.9094 39.1518 67.8867 39.5401C67.864 39.9284 67.8867 40.2042 67.8867 41.8813V42.1177C67.8859 42.1266 67.8869 42.1355 67.8897 42.144C67.8924 42.1525 67.8968 42.1604 67.9026 42.1672C67.9084 42.174 67.9155 42.1796 67.9235 42.1836C67.9315 42.1877 67.9402 42.1902 67.9492 42.1909H72.1861Z" fill="#23569C"/>
<path d="M77.8771 41.8813V39.5401C77.8771 39.1855 77.7692 38.9773 77.4 38.9098C77.2554 38.8871 77.1091 38.8758 76.9627 38.876C76.8434 38.876 76.7753 38.876 76.7753 38.7747C76.7753 38.6734 76.8548 38.679 77.0195 38.679C77.5874 38.679 78.3144 38.7128 78.6268 38.7128H81.4154C81.5778 38.7017 81.7391 38.6791 81.8982 38.6452C81.9552 38.6243 82.0141 38.6092 82.0742 38.6002C82.131 38.6002 82.1424 38.6452 82.1424 38.7015C82.0978 38.9378 82.0675 39.1764 82.0515 39.4163C82.0515 39.5288 82.0174 40.0185 81.9947 40.1479C81.972 40.2773 81.9947 40.2717 81.8868 40.2717C81.7789 40.2717 81.7846 40.2154 81.7846 40.1141C81.7846 39.9781 81.7615 39.843 81.7164 39.7146C81.6426 39.5176 81.529 39.3825 80.9724 39.3206C80.7793 39.3206 79.6093 39.2756 79.3878 39.2756C79.331 39.2756 79.3083 39.3093 79.3083 39.3825V42.1965C79.3083 42.2753 79.3083 42.3203 79.3878 42.3203H81.1712C81.3633 42.3322 81.5531 42.2742 81.7051 42.1571C81.7846 42.067 81.83 42.0108 81.8868 42.0108C81.9436 42.0108 81.9663 42.0108 81.9663 42.1008C81.9217 42.3673 81.8914 42.6359 81.8755 42.9056C81.8755 43.1307 81.83 43.5697 81.83 43.6485C81.83 43.7273 81.83 43.8567 81.7278 43.8567C81.7166 43.8583 81.7052 43.8577 81.6942 43.8548C81.6833 43.852 81.673 43.847 81.664 43.8402C81.655 43.8334 81.6475 43.8249 81.6419 43.8152C81.6363 43.8054 81.6326 43.7947 81.6312 43.7836C81.6248 43.6495 81.6097 43.5161 81.5858 43.384C81.529 43.1589 81.37 42.9957 80.9611 42.9506C80.7452 42.9506 79.6434 42.9169 79.3765 42.9169C79.3197 42.9169 79.3083 42.9619 79.3083 43.0294V45.5451C79.3083 46.3049 79.5071 46.4737 80.6487 46.4737C81.0026 46.4966 81.3576 46.4507 81.6937 46.3387C81.989 46.2092 82.1197 45.9728 82.1992 45.5226C82.1992 45.3988 82.2446 45.3538 82.3241 45.3538C82.4036 45.3538 82.4093 45.4438 82.4093 45.5564C82.3932 45.9683 82.3457 46.3784 82.2673 46.7833C82.1878 47.0703 82.0856 47.0703 81.6653 47.0703C79.9615 47.0703 79.2288 47.0027 78.57 47.0027C78.3144 47.0027 77.6101 47.0365 77.1671 47.0365C77.0195 47.0365 76.94 47.0028 76.94 46.924C76.94 46.8452 76.9854 46.8395 77.1217 46.8395C77.2574 46.8388 77.3925 46.8237 77.525 46.7945C77.7465 46.7495 77.8033 46.5075 77.843 46.1867C77.8998 45.7196 77.8998 44.8472 77.8998 43.8286V41.8813H77.8771Z" fill="#23569C"/>
<path d="M89.5822 45.9841C89.1603 45.5891 88.8212 45.1157 88.584 44.5908C88.3468 44.0658 88.2163 43.4998 88.2 42.9249C88.1836 42.35 88.2817 41.7775 88.4887 41.2402C88.6957 40.7029 89.0074 40.2113 89.4061 39.7934L89.497 39.6921C90.4705 38.8557 91.7385 38.4348 93.024 38.5215C93.5656 38.5195 94.1066 38.5572 94.6426 38.634C95.0629 38.6847 95.4207 38.786 95.7785 38.8197C95.9035 38.8197 95.9489 38.8873 95.9489 38.9548C95.9489 39.0224 95.9148 39.1743 95.8921 39.5626C95.8694 39.951 95.8921 40.5363 95.858 40.7558C95.824 40.9752 95.824 41.009 95.7217 41.009C95.6195 41.009 95.6138 40.919 95.6138 40.767C95.5982 40.386 95.4427 40.0238 95.1765 39.7484C94.531 39.249 93.7216 39.0043 92.9047 39.0617C92.1419 39.0063 91.3881 39.2533 90.809 39.7484C90.4413 40.1255 90.1593 40.5763 89.982 41.0704C89.8047 41.5645 89.7362 42.0905 89.781 42.613C89.781 45.2469 91.8029 46.5525 93.2966 46.5525C94.2905 46.5525 94.8925 46.44 95.3412 45.9278C95.5178 45.7156 95.6457 45.4679 95.716 45.2018C95.7501 45.0217 95.7728 44.9823 95.8637 44.9823C95.9546 44.9823 95.9603 45.0555 95.9603 45.1456C95.9252 45.6398 95.853 46.1308 95.7444 46.6144C95.7342 46.6905 95.7011 46.7618 95.6494 46.819C95.5978 46.8762 95.53 46.9167 95.4548 46.9352C94.8027 47.1261 94.1238 47.2116 93.4443 47.1885C92.0617 47.2709 90.6976 46.8417 89.6163 45.9841H89.5822Z" fill="#23569C"/>
<path d="M98.9139 41.8813V39.5401C98.9139 39.1856 98.7833 38.9773 98.5334 38.921C98.4034 38.8891 98.2698 38.874 98.1359 38.876C98.0223 38.876 97.9541 38.876 97.9541 38.7635C97.9541 38.6509 98.045 38.6734 98.221 38.6734C98.647 38.6734 99.3569 38.7072 99.675 38.7072C99.993 38.7072 100.612 38.6734 101.038 38.6734C101.18 38.6734 101.271 38.6734 101.271 38.7635C101.271 38.8535 101.203 38.876 101.089 38.876C100.977 38.8758 100.864 38.8871 100.754 38.9098C100.453 38.9661 100.368 39.1518 100.345 39.5401C100.322 39.9284 100.345 40.2042 100.345 41.8813V43.8286C100.345 44.9035 100.345 45.7759 100.391 46.2542C100.391 46.5525 100.499 46.7495 100.834 46.817C101.022 46.8432 101.212 46.8583 101.402 46.8621C101.527 46.8621 101.583 46.8958 101.583 46.9465C101.583 46.9971 101.492 47.059 101.373 47.059C100.635 47.059 99.9306 47.0253 99.6296 47.0253C99.3285 47.0253 98.6697 47.059 98.221 47.059C98.0791 47.059 97.9995 47.0253 97.9995 46.9465C97.9995 46.8677 98.045 46.8621 98.1813 46.8621C98.3151 46.8613 98.4484 46.8462 98.5789 46.817C98.806 46.772 98.8685 46.5863 98.9026 46.2542C98.9594 45.7928 98.9594 44.9204 98.9594 43.8455V41.8813H98.9139Z" fill="#23569C"/>
<path d="M106.013 39.2981L104.349 39.3375C103.702 39.3375 103.435 39.4163 103.264 39.6583C103.182 39.7771 103.118 39.9082 103.077 40.0466C103.078 40.0638 103.076 40.0811 103.071 40.0974C103.065 40.1138 103.056 40.1288 103.045 40.1415C103.033 40.1542 103.018 40.1644 103.002 40.1713C102.987 40.1782 102.969 40.1817 102.952 40.1817C102.884 40.1817 102.855 40.1254 102.855 40.0016C102.855 39.8778 103.065 38.8197 103.088 38.7297C103.111 38.6396 103.156 38.5214 103.225 38.5214C103.378 38.5836 103.538 38.6289 103.702 38.6565C104.025 38.6565 104.451 38.7071 104.837 38.7071H109.256C109.513 38.7071 109.769 38.6902 110.023 38.6565C110.122 38.6318 110.223 38.613 110.324 38.6002C110.403 38.6002 110.415 38.6678 110.415 38.831C110.415 38.9942 110.381 39.8271 110.381 40.1141C110.381 40.2211 110.347 40.2886 110.278 40.2886C110.21 40.2886 110.171 40.2379 110.159 40.0691V39.9509C110.159 39.6583 109.835 39.3487 108.842 39.3262H107.433V43.8286C107.433 44.8472 107.433 45.7196 107.49 46.1979C107.524 46.5075 107.592 46.7607 107.927 46.7945C108.115 46.8207 108.305 46.8357 108.495 46.8395C108.62 46.8395 108.677 46.8395 108.677 46.9239C108.677 47.0084 108.586 47.0365 108.461 47.0365C107.728 47.0365 107.024 47.0027 106.712 47.0027C106.399 47.0027 105.752 47.0365 105.303 47.0365C105.161 47.0365 105.082 47.0027 105.082 46.9239C105.082 46.8452 105.127 46.8395 105.258 46.8395C105.393 46.8388 105.529 46.8237 105.661 46.7945C105.883 46.7495 105.951 46.5075 105.985 46.1867C106.042 45.7196 106.042 44.8472 106.042 43.8286V39.3262L106.013 39.2981Z" fill="#23569C"/>
<path d="M114.322 44.1944C114.34 43.7925 114.252 43.3929 114.067 43.0351C113.987 42.855 112.493 40.4237 112.102 39.8496C111.904 39.5307 111.643 39.2549 111.335 39.0392C111.189 38.9621 111.028 38.9143 110.863 38.8985C110.773 38.8985 110.699 38.8985 110.699 38.7972C110.699 38.6959 110.773 38.6959 110.909 38.6959C111.045 38.6959 111.948 38.7297 112.317 38.7297C112.55 38.7297 113.005 38.6959 113.51 38.6959C113.618 38.6959 113.675 38.7297 113.675 38.7972C113.675 38.8648 113.601 38.876 113.431 38.921C113.386 38.9304 113.345 38.9553 113.317 38.9915C113.289 39.0276 113.275 39.0725 113.277 39.118C113.295 39.2511 113.339 39.3793 113.408 39.4951C113.567 39.8271 115.112 42.4892 115.305 42.7987C115.418 42.5342 116.821 40.1029 116.98 39.7596C117.071 39.5848 117.123 39.393 117.134 39.1968C117.138 39.1299 117.117 39.0638 117.073 39.0123C117.03 38.9609 116.968 38.9282 116.901 38.921C116.799 38.921 116.702 38.876 116.702 38.8085C116.702 38.7409 116.759 38.7072 116.889 38.7072C117.259 38.7072 117.616 38.7409 117.94 38.7409C118.264 38.7409 118.923 38.7072 119.133 38.7072C119.258 38.7072 119.337 38.7072 119.337 38.7972C119.337 38.8873 119.246 38.9098 119.121 38.9098C118.952 38.9216 118.786 38.9655 118.633 39.0392C118.389 39.1749 118.182 39.3682 118.031 39.602C117.252 40.7332 116.539 41.9076 115.895 43.1195C115.759 43.4785 115.703 43.8625 115.731 44.2451V45.1512C115.731 45.3256 115.731 45.7928 115.765 46.2768C115.765 46.5976 115.884 46.8396 116.219 46.8846C116.408 46.9089 116.597 46.9221 116.787 46.924C116.906 46.924 116.963 46.9577 116.963 47.014C116.963 47.0703 116.872 47.1266 116.73 47.1266C116.026 47.1266 115.322 47.0928 115.027 47.0928C114.731 47.0928 114.044 47.1266 113.629 47.1266C113.476 47.1266 113.385 47.1266 113.385 47.014C113.385 46.9015 113.442 46.924 113.567 46.924C113.697 46.9251 113.826 46.9119 113.953 46.8846C114.18 46.8396 114.282 46.5976 114.3 46.2768C114.334 45.8096 114.334 45.3425 114.334 45.1512V44.1944H114.322Z" fill="#23569C"/>
<path d="M123.819 42.8549C123.819 40.964 125.079 38.5214 128.43 38.5214C131.208 38.5214 132.94 40.1254 132.94 42.658C132.961 43.2326 132.868 43.8058 132.666 44.3447C132.464 44.8837 132.156 45.3779 131.761 45.7991C131.366 46.2203 130.891 46.5603 130.364 46.7997C129.836 47.039 129.266 47.173 128.686 47.1941C128.567 47.1941 128.442 47.1941 128.317 47.1941C127.195 47.2588 126.092 46.8808 125.25 46.1426C124.409 45.4044 123.896 44.3661 123.824 43.2545C123.819 43.1026 123.813 42.9788 123.819 42.8549ZM131.378 43.0688C131.378 40.5869 129.935 39.0505 128.107 39.0505C126.823 39.0505 125.363 39.7596 125.363 42.5116C125.363 44.8135 126.647 46.6369 128.771 46.6369C129.549 46.6369 131.361 46.2599 131.361 43.0688H131.378Z" fill="#23569C"/>
<path d="M137.25 43.8286C137.25 44.8923 137.25 45.7196 137.302 46.1867C137.336 46.5075 137.404 46.7495 137.739 46.7945C137.927 46.8207 138.117 46.8357 138.307 46.8395C138.455 46.8395 138.5 46.8395 138.5 46.924C138.5 47.0084 138.42 47.0365 138.25 47.0365C137.551 47.0365 136.847 47.0027 136.546 47.0027C136.245 47.0027 135.552 47.0365 135.126 47.0365C134.973 47.0365 134.893 47.0365 134.893 46.924C134.893 46.8114 134.939 46.8395 135.064 46.8395C135.198 46.8388 135.331 46.8237 135.461 46.7945C135.689 46.7495 135.74 46.5075 135.785 46.1867C135.842 45.7196 135.842 44.8923 135.842 43.8286V39.5401C135.842 39.1855 135.728 38.9773 135.365 38.9098C135.22 38.8871 135.074 38.8758 134.928 38.876C134.814 38.876 134.74 38.876 134.74 38.7859C134.74 38.6959 134.825 38.6734 134.996 38.6734C135.564 38.6734 136.279 38.7072 136.603 38.7072H139.545C139.699 38.708 139.853 38.6948 140.005 38.6678C140.073 38.6678 140.13 38.6002 140.187 38.6002C140.244 38.6002 140.261 38.6452 140.261 38.6959C140.261 38.7465 140.204 38.9098 140.17 39.1968C140.17 39.3093 140.141 39.9566 140.119 40.0916C140.096 40.2267 140.085 40.2492 140.005 40.2492C139.925 40.2492 139.903 40.1929 139.891 40.0691C139.896 39.9258 139.875 39.7829 139.829 39.647C139.746 39.5328 139.634 39.4422 139.504 39.3839C139.375 39.3257 139.232 39.3019 139.091 39.315L137.387 39.2812C137.319 39.2812 137.29 39.315 137.29 39.4388V42.2021C137.29 42.2696 137.29 42.3034 137.364 42.3034H139.295C139.385 42.309 139.476 42.2942 139.559 42.2601C139.643 42.2259 139.718 42.1734 139.778 42.1064C139.835 42.0389 139.857 41.9939 139.92 41.9939C139.982 41.9939 139.988 42.0276 139.988 42.0952C139.988 42.1627 139.931 42.4385 139.897 42.7762C139.897 43.0013 139.852 43.5078 139.852 43.5866C139.852 43.6654 139.852 43.7948 139.744 43.7948C139.636 43.7948 139.653 43.716 139.653 43.6429C139.647 43.5257 139.624 43.4101 139.585 43.2996C139.538 43.1866 139.459 43.0892 139.359 43.0185C139.258 42.9478 139.14 42.9067 139.017 42.9C138.738 42.8662 137.557 42.8662 137.364 42.8662C137.313 42.8662 137.29 42.8662 137.29 42.9675V43.8286H137.25Z" fill="#23569C"/>
<path d="M147.894 45.5339C147.894 46.3949 148.064 46.6594 148.285 46.7607C148.469 46.818 148.661 46.8446 148.853 46.8395C148.978 46.8395 149.041 46.8395 149.041 46.924C149.041 47.0084 148.944 47.0365 148.785 47.0365C148.064 47.0365 147.615 47.0027 147.405 47.0027C147.303 47.0027 146.775 47.0365 146.195 47.0365C146.053 47.0365 145.951 47.0365 145.951 46.924C145.951 46.8114 146.019 46.8395 146.133 46.8395C146.301 46.8434 146.469 46.8245 146.633 46.7833C146.922 46.6932 146.968 46.3724 146.979 45.41L147.081 38.8647C147.081 38.6453 147.081 38.4877 147.223 38.4877C147.365 38.4877 147.445 38.634 147.638 38.831C147.831 39.028 149.467 40.7782 151.097 42.3822C151.858 43.1307 153.369 44.7234 153.55 44.9035H153.607L153.499 39.9341C153.499 39.2643 153.386 39.0505 153.119 38.9435C152.934 38.8927 152.742 38.8699 152.551 38.876C152.414 38.876 152.369 38.8422 152.369 38.7747C152.369 38.7072 152.494 38.6734 152.659 38.6734C153.227 38.6734 153.795 38.7072 154.01 38.7072C154.13 38.7072 154.578 38.6734 155.101 38.6734C155.248 38.6734 155.362 38.6734 155.362 38.7747C155.362 38.876 155.294 38.876 155.158 38.876C155.045 38.8702 154.932 38.8816 154.823 38.9098C154.51 38.9942 154.425 39.2306 154.414 39.8496L154.289 46.8283C154.289 47.0703 154.243 47.1716 154.141 47.1716C154.039 47.1716 153.885 47.0478 153.766 46.924C153.062 46.2599 151.631 44.8135 150.472 43.6766C149.313 42.5398 148.019 41.099 147.814 40.8627H147.78L147.905 45.5113L147.894 45.5339Z" fill="#23569C"/>
<path d="M158.406 41.8813V39.5401C158.406 39.1855 158.293 38.9773 157.924 38.9098C157.781 38.8873 157.637 38.8761 157.492 38.876C157.367 38.876 157.299 38.876 157.299 38.7747C157.299 38.6734 157.378 38.679 157.549 38.679C158.117 38.679 158.844 38.7128 159.15 38.7128H161.945C162.105 38.7013 162.265 38.6788 162.422 38.6452C162.481 38.6243 162.542 38.6092 162.604 38.6002C162.66 38.6002 162.672 38.6452 162.672 38.7015C162.627 38.9378 162.597 39.1764 162.581 39.4163C162.581 39.5288 162.547 40.0185 162.524 40.1479C162.501 40.2773 162.49 40.2717 162.41 40.2717C162.331 40.2717 162.314 40.2154 162.314 40.1141C162.314 39.9781 162.291 39.843 162.246 39.7146C162.166 39.5176 162.053 39.3825 161.496 39.3206C161.309 39.3206 160.139 39.2756 159.912 39.2756C159.855 39.2756 159.832 39.3093 159.832 39.3825V42.1965C159.832 42.2753 159.832 42.3203 159.912 42.3203H161.701C161.893 42.3322 162.082 42.2742 162.234 42.1571C162.314 42.067 162.354 42.0108 162.41 42.0108C162.467 42.0108 162.49 42.0108 162.49 42.1008C162.445 42.3673 162.415 42.6359 162.399 42.9056C162.399 43.1307 162.354 43.5697 162.354 43.6485C162.354 43.7273 162.354 43.8567 162.257 43.8567C162.161 43.8567 162.155 43.8117 162.155 43.7611C162.149 43.627 162.133 43.4935 162.109 43.3615C162.053 43.1363 161.899 42.9731 161.485 42.9281C161.275 42.9281 160.167 42.8943 159.9 42.8943C159.843 42.8943 159.832 42.9394 159.832 43.0069V45.5451C159.832 46.3049 160.036 46.4737 161.172 46.4737C161.528 46.4966 161.885 46.4508 162.223 46.3387C162.513 46.2092 162.649 45.9728 162.723 45.5226C162.723 45.3988 162.768 45.3538 162.848 45.3538C162.927 45.3538 162.939 45.4438 162.939 45.5564C162.921 45.9684 162.871 46.3786 162.791 46.7833C162.711 47.0703 162.615 47.0703 162.189 47.0703C160.485 47.0703 159.758 47.0027 159.099 47.0027C158.844 47.0027 158.14 47.0365 157.691 47.0365C157.549 47.0365 157.469 47.0028 157.469 46.924C157.469 46.8452 157.515 46.8395 157.645 46.8395C157.781 46.8388 157.916 46.8237 158.049 46.7945C158.27 46.7495 158.327 46.5075 158.372 46.1867C158.429 45.7196 158.429 44.8472 158.429 43.8286V41.8813H158.406Z" fill="#23569C"/>
<path d="M165.034 39.7596C164.973 39.4637 164.83 39.1907 164.62 38.9717C164.481 38.9089 164.33 38.8763 164.177 38.876C164.063 38.876 163.995 38.876 163.995 38.7747C163.995 38.6734 164.086 38.6734 164.239 38.6734C164.807 38.6734 165.438 38.7072 165.534 38.7072C165.631 38.7072 166.102 38.6734 166.772 38.6734C166.931 38.6734 167.011 38.7072 167.011 38.7747C167.011 38.8648 166.92 38.876 166.806 38.876C166.711 38.8676 166.616 38.8831 166.528 38.921C166.432 38.9604 166.409 39.0392 166.409 39.163C166.465 39.5081 166.546 39.8486 166.653 40.1817C166.841 40.9077 167.88 44.2619 168.079 44.881H168.113L170.282 39.1293C170.402 38.8197 170.47 38.7297 170.561 38.7297C170.651 38.7297 170.737 38.8985 170.884 39.2531L173.202 44.8135H173.236C173.44 44.0706 174.332 41.1497 174.724 39.8609C174.788 39.6527 174.824 39.437 174.832 39.2193C174.832 39.0392 174.729 38.8873 174.298 38.8873C174.184 38.8873 174.105 38.8535 174.105 38.786C174.105 38.7184 174.195 38.6847 174.366 38.6847C174.934 38.6847 175.422 38.7184 175.502 38.7184C175.581 38.7184 176.07 38.6847 176.428 38.6847C176.552 38.6847 176.626 38.6847 176.626 38.7747C176.626 38.8648 176.57 38.8873 176.473 38.8873C176.34 38.8862 176.208 38.9052 176.081 38.9435C175.814 39.0392 175.689 39.5063 175.456 40.1142C174.945 41.5043 173.752 45.0217 173.224 46.682C173.099 47.0703 173.048 47.1997 172.901 47.1997C172.753 47.1997 172.724 47.0703 172.554 46.6369L170.237 41.099C170.021 41.6618 168.533 45.6014 168.062 46.5919C167.846 47.0478 167.789 47.1547 167.658 47.1547C167.528 47.1547 167.488 47.0365 167.403 46.7495L165.034 39.7596Z" fill="#23569C"/>
<path d="M183.879 44.1944C183.894 43.7928 183.806 43.3939 183.624 43.0351C183.544 42.855 182.05 40.4237 181.658 39.8496C181.461 39.5291 181.198 39.2531 180.886 39.0392C180.742 38.9614 180.584 38.9135 180.42 38.8985C180.329 38.8985 180.25 38.8985 180.25 38.7972C180.25 38.6959 180.329 38.6959 180.466 38.6959C180.602 38.6959 181.505 38.7297 181.869 38.7297C182.107 38.7297 182.561 38.6959 183.067 38.6959C183.175 38.6959 183.232 38.7297 183.232 38.7972C183.232 38.8648 183.152 38.876 182.987 38.921C182.942 38.9302 182.901 38.955 182.872 38.991C182.843 39.027 182.827 39.0719 182.828 39.118C182.848 39.2514 182.894 39.3796 182.965 39.4951C183.118 39.8271 184.669 42.4892 184.862 42.7987C184.975 42.5342 186.378 40.1029 186.537 39.7596C186.625 39.5838 186.677 39.3926 186.69 39.1968C186.694 39.1302 186.672 39.0648 186.629 39.0137C186.585 38.9626 186.524 38.9295 186.458 38.921C186.355 38.921 186.253 38.876 186.253 38.8085C186.253 38.7409 186.31 38.7072 186.446 38.7072C186.815 38.7072 187.173 38.7409 187.497 38.7409C187.821 38.7409 188.479 38.7072 188.69 38.7072C188.809 38.7072 188.888 38.7072 188.888 38.7972C188.888 38.8873 188.803 38.9098 188.678 38.9098C188.507 38.9215 188.339 38.9655 188.184 39.0392C187.942 39.1779 187.736 39.3706 187.582 39.602C186.815 40.7167 186.113 41.8742 185.481 43.0688C185.344 43.4278 185.288 43.8118 185.316 44.1944V46.2205C185.316 46.5413 185.441 46.7833 185.776 46.8283C185.964 46.8526 186.154 46.8658 186.344 46.8677C186.469 46.8677 186.526 46.9015 186.526 46.9577C186.526 47.014 186.435 47.0703 186.287 47.0703C185.583 47.0703 184.884 47.0365 184.583 47.0365C184.282 47.0365 183.601 47.0703 183.186 47.0703C183.033 47.0703 182.942 47.0703 182.942 46.9577C182.942 46.8452 182.999 46.8677 183.118 46.8677C183.25 46.8685 183.381 46.8553 183.51 46.8283C183.737 46.7833 183.834 46.5413 183.856 46.2205C183.89 45.7534 183.89 45.2862 183.89 45.0949L183.879 44.1944Z" fill="#23569C"/>
<path d="M189.235 42.8549C189.235 40.964 190.495 38.5214 193.846 38.5214C196.624 38.5214 198.35 40.1254 198.35 42.658C198.372 43.2319 198.28 43.8044 198.079 44.343C197.877 44.8816 197.571 45.3756 197.177 45.7968C196.783 46.218 196.309 46.5582 195.783 46.798C195.256 47.0377 194.687 47.1723 194.108 47.1941C193.983 47.1941 193.858 47.1941 193.733 47.1941C192.611 47.2588 191.508 46.8808 190.666 46.1426C189.825 45.4044 189.312 44.3661 189.24 43.2545C189.24 43.1251 189.24 43.0013 189.24 42.8775L189.235 42.8549ZM196.788 43.0688C196.788 40.5869 195.351 39.0505 193.523 39.0505C192.239 39.0505 190.774 39.7596 190.774 42.5116C190.774 44.8135 192.057 46.6369 194.181 46.6369C194.965 46.6369 196.771 46.2599 196.771 43.0688H196.788Z" fill="#23569C"/>
<path d="M201.258 41.8813V39.5401C201.258 39.1855 201.145 38.9773 200.776 38.9098C200.633 38.8874 200.488 38.8761 200.344 38.876C200.219 38.876 200.151 38.876 200.151 38.7747C200.151 38.6734 200.23 38.679 200.401 38.679C200.969 38.679 201.69 38.7128 201.928 38.7128C202.309 38.7128 203.155 38.679 203.502 38.679C204.218 38.6276 204.932 38.7924 205.552 39.1518C205.785 39.3329 205.972 39.5647 206.1 39.8291C206.228 40.0936 206.293 40.3837 206.29 40.6769C206.29 41.4986 205.944 42.2471 204.819 43.1532C205.808 44.397 206.58 45.4044 207.239 46.0629C207.56 46.4439 207.999 46.7091 208.488 46.817C208.591 46.8394 208.696 46.8507 208.801 46.8508C208.891 46.8508 208.937 46.8846 208.937 46.9352C208.937 46.9859 208.857 47.0478 208.721 47.0478H207.665C207.263 47.0825 206.859 47.0106 206.495 46.8395C205.871 46.3901 205.35 45.8146 204.967 45.1512C204.524 44.5433 204.007 43.7892 203.865 43.626C203.84 43.598 203.808 43.5762 203.772 43.5626C203.737 43.5489 203.699 43.5436 203.661 43.5472H202.689C202.638 43.5472 202.604 43.5472 202.604 43.6372V43.7892C202.604 44.8191 202.604 45.6914 202.661 46.1586C202.689 46.4793 202.758 46.7214 203.093 46.7664C203.281 46.7926 203.471 46.8076 203.661 46.8114C203.752 46.8114 203.797 46.8452 203.797 46.8958C203.797 46.9465 203.717 47.0084 203.575 47.0084C202.928 47.0084 202.099 46.9746 201.934 46.9746C201.769 46.9746 201.02 47.0084 200.571 47.0084C200.429 47.0084 200.35 46.9746 200.35 46.8958C200.35 46.817 200.395 46.8114 200.526 46.8114C200.661 46.8106 200.796 46.7955 200.929 46.7664C201.15 46.7214 201.207 46.4793 201.253 46.1586C201.309 45.6914 201.309 44.8191 201.309 43.8005V41.8813H201.258ZM202.576 42.7593C202.576 42.8775 202.576 42.9225 202.672 42.9563C202.949 43.0358 203.236 43.0737 203.524 43.0688C203.803 43.1088 204.086 43.0402 204.314 42.8775C204.546 42.6751 204.727 42.4213 204.841 42.1367C204.955 41.8522 205.001 41.5448 204.973 41.2397C204.973 39.6639 203.928 39.2137 203.269 39.2137C203.069 39.2035 202.868 39.2186 202.672 39.2587C202.599 39.2587 202.576 39.3262 202.576 39.4107V42.7874V42.7593Z" fill="#23569C"/>
<path d="M211.606 42.3653H211.663C212.044 41.9545 213.668 40.3055 213.992 39.9284C214.316 39.5514 214.56 39.2925 214.56 39.1011C214.567 39.0514 214.554 39.0009 214.524 38.9601C214.495 38.9193 214.451 38.8912 214.401 38.8816C214.299 38.8816 214.259 38.8366 214.259 38.7691C214.259 38.7016 214.31 38.6678 214.435 38.6678C214.668 38.6678 215.281 38.7016 215.571 38.7016C215.86 38.7016 216.525 38.6678 216.871 38.6678C216.985 38.6678 217.064 38.6678 217.064 38.7691C217.064 38.8704 217.008 38.8704 216.894 38.8704C216.674 38.8814 216.456 38.9211 216.247 38.9886C215.792 39.182 215.382 39.4655 215.043 39.8215C214.696 40.1536 213.015 41.8082 212.634 42.2078C213.032 42.7312 215.224 45.0611 215.656 45.472C216.117 45.9714 216.67 46.3784 217.286 46.6707C217.503 46.7715 217.739 46.8289 217.979 46.8396C218.058 46.8396 218.127 46.8396 218.127 46.924C218.127 47.0084 218.07 47.0365 217.854 47.0365H216.883C216.625 47.0365 216.37 47.0365 216.116 47.0365C215.571 46.9749 215.069 46.714 214.707 46.3049C214.219 45.8772 212.021 43.3221 211.783 43.0013L211.663 42.8325H211.606V43.8286C211.606 44.8473 211.606 45.7196 211.641 46.198C211.641 46.5075 211.76 46.7608 212.044 46.7945C212.232 46.8207 212.422 46.8357 212.612 46.8396C212.703 46.8396 212.754 46.8396 212.754 46.924C212.754 47.0084 212.669 47.0365 212.544 47.0365C211.919 47.0365 211.215 47.0028 210.936 47.0028C210.658 47.0028 209.976 47.0365 209.533 47.0365C209.386 47.0365 209.306 47.0028 209.306 46.924C209.306 46.8452 209.352 46.8396 209.488 46.8396C209.622 46.8388 209.755 46.8237 209.886 46.7945C210.113 46.7495 210.164 46.5075 210.209 46.1867C210.266 45.7196 210.266 44.8473 210.266 43.8286V39.5401C210.266 39.1856 210.158 38.9773 209.789 38.9098C209.644 38.8871 209.498 38.8759 209.352 38.876C209.227 38.876 209.164 38.876 209.164 38.7747C209.164 38.6734 209.238 38.6734 209.409 38.6734C209.976 38.6734 210.703 38.7072 210.97 38.7072C211.237 38.7072 211.942 38.6734 212.322 38.6734C212.475 38.6734 212.555 38.6734 212.555 38.7747C212.555 38.876 212.487 38.876 212.396 38.876C212.291 38.8761 212.186 38.8874 212.084 38.9098C211.788 38.9661 211.697 39.1518 211.675 39.5401C211.652 39.9284 211.675 40.2042 211.675 41.8813V42.3653H211.606Z" fill="#23569C"/>
<path d="M13.5395 26.1344H3.31638C3.32231 25.1806 3.12893 24.2359 2.74843 23.3598C1.70908 20.8497 -0.437767 18.576 0.0790674 15.6157C0.206113 14.8325 0.597885 14.1152 1.19018 13.5814C1.78248 13.0477 2.54017 12.7291 3.3391 12.6779C6.26972 12.4416 8.7971 13.9949 11.6368 14.4901C11.864 14.5295 12.1707 14.0512 12.449 13.781C12.1497 13.5523 11.914 13.2518 11.7643 12.9078C11.6146 12.5639 11.5557 12.1878 11.5932 11.8151C11.6307 11.4424 11.7633 11.0852 11.9786 10.7773C12.194 10.4695 12.4848 10.221 12.8239 10.0553C12.9091 9.63176 12.9091 9.1957 12.8239 8.77215C12.6989 8.67084 11.7277 8.85656 11.5914 8.73838C11.4721 8.28255 11.4721 7.8041 11.5914 7.34828C11.6766 7.24134 12.7727 7.34828 12.8352 7.28637C12.8977 7.22446 12.8068 6.16078 12.9091 6.08762C13.1256 6.03065 13.3501 6.00972 13.5736 6.02571H13.3407C13.549 6.01528 13.7577 6.03615 13.9598 6.08762C14.062 6.16641 13.9598 7.2132 14.0336 7.28637C14.1074 7.35953 15.1695 7.24134 15.2774 7.34828C15.3967 7.8041 15.3967 8.28255 15.2774 8.73838C15.1411 8.85656 14.1415 8.67084 14.045 8.77215C13.9597 9.1957 13.9597 9.63176 14.045 10.0553C14.3908 10.2172 14.6885 10.4649 14.9093 10.7743C15.1302 11.0837 15.2666 11.4444 15.3055 11.8214C15.3443 12.1984 15.2843 12.579 15.1311 12.9263C14.9779 13.2735 14.7368 13.5757 14.4312 13.8035C14.7095 14.0737 14.9991 14.552 15.2377 14.5126C18.0774 14.0174 20.6105 12.4641 23.5354 12.7005C24.3317 12.7503 25.0877 13.0654 25.6805 13.5947C26.2733 14.1239 26.6682 14.8361 26.8011 15.6157C27.3123 18.576 25.1711 20.8497 24.1261 23.3598C23.746 24.236 23.5527 25.1806 23.5581 26.1344H13.335H13.5395ZM19.0145 19.9943C19.0145 19.9943 20.1902 19.8198 20.2754 19.9943C20.3606 20.1687 19.8778 21.1199 19.963 21.3112C20.0482 21.5026 21.5987 21.1649 21.6271 21.3112C21.6221 21.7212 21.5251 22.1249 21.3431 22.4931C20.8162 22.599 20.279 22.6462 19.7415 22.6338C19.6044 22.7855 19.5011 22.9641 19.4384 23.1581C19.3758 23.3521 19.3552 23.557 19.378 23.7594C19.378 24.3559 19.8437 24.6711 20.5991 24.4629C22.0019 24.0745 23.7455 21.0523 24.7792 18.9644C25.5346 17.4279 25.9946 14.9122 24.0011 14.1581C22.7857 13.7022 21.5135 13.9611 20.2072 14.3438C18.7358 14.7161 17.3124 15.2543 15.9646 15.9478C15.7034 16.111 16.277 15.9815 15.3285 18.0583C14.7912 19.3416 14.5543 20.7289 14.6356 22.116C14.8969 23.6018 15.7318 24.5416 16.4247 24.5473C16.8473 24.5402 17.2521 24.3777 17.5606 24.0914C18.0149 23.6975 18.3898 23.0446 18.2705 22.6619C18.1683 22.5325 16.9415 22.7182 16.8506 22.5944C16.8403 22.1784 16.9402 21.767 17.1403 21.4013C17.2823 21.2831 18.3898 21.4463 18.5374 21.3225C18.6851 21.1986 18.8271 20.028 18.9748 19.9549L19.0145 19.9943ZM7.84294 19.9549C7.99629 20.028 8.1326 21.2043 8.28594 21.3225C8.43929 21.4406 9.54111 21.2831 9.6831 21.4069C9.90438 21.7894 10.0089 22.2273 9.98411 22.6675C9.89892 22.7914 8.67215 22.6056 8.56992 22.7351C8.45065 23.1178 8.81982 23.7706 9.27986 24.1646C9.58833 24.4509 9.99317 24.6133 10.4158 24.6204C11.1087 24.6204 11.9435 23.6749 12.2048 22.1892C12.2847 20.8016 12.0459 19.4142 11.5062 18.1314C10.5521 16.0547 11.12 16.1616 10.8815 15.9984C9.53227 15.3082 8.10917 14.7702 6.63889 14.3945C5.3326 14.0118 4.0604 13.7529 2.84498 14.2087C0.85148 14.9629 1.30584 17.4786 2.06689 19.015C3.10056 21.1199 4.83849 24.1252 6.247 24.4966C6.9967 24.7049 7.4681 24.3953 7.4681 23.7931C7.48863 23.5895 7.46533 23.3839 7.39973 23.1899C7.33414 22.9958 7.22774 22.8178 7.08757 22.6675C6.55007 22.6799 6.01286 22.6327 5.48595 22.5268C5.31692 22.1619 5.23528 21.7632 5.24741 21.3619C5.27581 21.193 6.83199 21.5026 6.91151 21.3619C6.99102 21.2212 6.51394 20.2363 6.59913 20.0449C6.68433 19.8536 7.8543 20.0449 7.8543 20.0449" fill="#23569C"/>
<path d="M13.5396 27.5076H3.06091V29.2522H13.5396" fill="#23569C"/>
<path d="M13.3066 27.5076H23.7853V29.2522H13.3066" fill="#23569C"/>
<path d="M342.832 1V52.2143" stroke="#E2E2E2" stroke-width="1.24338" stroke-linecap="round" stroke-linejoin="round"/>
</svg>
