<svg width="278" height="35" viewBox="0 0 278 35" fill="none" xmlns="http://www.w3.org/2000/svg">
<path d="M34.5355 13.9448C33.7029 13.1981 33.046 12.2792 32.6113 11.2532C32.1765 10.2273 31.9745 9.11917 32.0195 8.0073C32.0162 6.97637 32.2251 5.9556 32.6333 5.00733C33.0414 4.05905 33.6404 3.20316 34.3935 2.49191C35.8531 1.16372 37.8012 0.35892 40.8113 0.35892C41.7976 0.353164 42.7829 0.42089 43.759 0.561526C44.5257 0.662829 45.1789 0.842924 45.7866 0.904831C46.0137 0.904831 46.0933 1.02302 46.0933 1.1412C46.0933 1.25939 46.0308 1.54642 45.991 2.26679C45.9513 2.98717 45.991 4.0396 45.9286 4.43918C45.9286 4.74309 45.8661 4.9063 45.6843 4.9063C45.5026 4.9063 45.4799 4.74309 45.4799 4.46169C45.4531 3.76981 45.1724 3.1114 44.6904 2.6101C44.0202 1.92912 42.4186 1.36632 40.5671 1.36632C38.8008 1.36632 37.6422 1.81093 36.7505 2.61573C35.2681 3.95518 34.8819 5.86868 34.8819 7.82158C34.8819 12.611 38.5566 14.9859 41.277 14.9859C43.0888 14.9859 44.1849 14.7833 44.9971 13.8604C45.3233 13.474 45.5581 13.0201 45.6843 12.5322C45.7468 12.2114 45.7866 12.127 45.9513 12.127C46.116 12.127 46.133 12.2677 46.133 12.4309C46.0486 13.3333 45.8986 14.2286 45.6843 15.1098C45.6602 15.244 45.5975 15.3684 45.5038 15.4682C45.4102 15.568 45.2895 15.639 45.1561 15.6726C43.9711 16.0166 42.7385 16.1723 41.5042 16.134C38.7213 16.134 36.3927 15.5319 34.5355 13.9448Z" fill="#23569C"/>
<path d="M48.6888 9.48183C48.6888 6.60032 50.6142 2.88025 55.7087 2.88025C59.9399 2.88025 62.5752 5.32278 62.5752 9.17792C62.5752 13.0331 59.8547 16.0834 55.5383 16.0834C50.6653 16.0834 48.6888 12.459 48.6888 9.48183ZM60.1955 9.80262C60.1955 6.02627 58.0032 3.69067 55.2146 3.69067C53.2608 3.69067 51.0345 4.76561 51.0345 8.95843C51.0345 12.459 52.9939 15.2392 56.2539 15.2392C57.441 15.2392 60.1955 14.6764 60.1955 9.80825V9.80262Z" fill="#23569C"/>
<path d="M68.6636 10.962C68.6636 13.1175 68.6636 14.2825 69.0214 14.5808C69.3792 14.879 69.7484 14.9522 71.0774 14.9522C71.9747 14.9522 72.6392 14.9522 73.0652 14.4795C73.3034 14.1903 73.4567 13.8418 73.5082 13.472C73.5082 13.3201 73.5536 13.2188 73.6899 13.2188C73.8262 13.2188 73.8262 13.3032 73.8262 13.5058C73.7869 14.1563 73.7015 14.8032 73.5707 15.4418C73.4741 15.8133 73.3889 15.8977 72.5029 15.8977C70.055 15.8977 68.9362 15.7964 67.5561 15.7964C67.1699 15.7964 66.0964 15.847 65.4149 15.847C65.1934 15.847 65.0741 15.7964 65.0741 15.6782C65.0741 15.56 65.1423 15.5431 65.3467 15.5431C65.5531 15.5432 65.7588 15.5206 65.9601 15.4756C66.3009 15.4081 66.3861 15.0366 66.4542 14.5526C66.5394 13.8435 66.5394 12.5097 66.5394 10.962V7.97917C66.5394 5.41846 66.5394 4.94571 66.5054 4.40543C66.4713 3.86514 66.335 3.56686 65.7727 3.44868C65.5861 3.4093 65.3954 3.39229 65.2048 3.39803C65.023 3.39803 64.9208 3.36426 64.9208 3.24607C64.9208 3.12788 65.04 3.09412 65.2899 3.09412C66.0908 3.09412 67.1642 3.14477 67.6185 3.14477C68.0729 3.14477 69.2713 3.09412 69.9301 3.09412C70.1686 3.09412 70.2879 3.12788 70.2879 3.24607C70.2879 3.36426 70.1857 3.39803 69.9812 3.39803C69.7606 3.39789 69.5403 3.41482 69.3224 3.44868C68.8623 3.5331 68.7544 3.81449 68.692 4.40543C68.6295 4.99636 68.6579 5.41846 68.6579 7.97917V10.962H68.6636Z" fill="#23569C"/>
<path d="M77.1032 7.97917C77.1032 5.41846 77.1032 4.94571 77.0691 4.40543C77.035 3.86514 76.8987 3.56686 76.3365 3.44868C76.1277 3.41967 75.9166 3.41024 75.706 3.42054C75.5186 3.42054 75.4164 3.38677 75.4164 3.26858C75.4164 3.1504 75.5356 3.11663 75.7912 3.11663C76.6886 3.11663 77.762 3.16728 78.2675 3.16728C78.6764 3.16728 79.7498 3.11663 80.3575 3.11663C80.6131 3.11663 80.7324 3.1504 80.7324 3.26858C80.7324 3.38677 80.6302 3.42054 80.4598 3.42054C80.2956 3.4204 80.1319 3.43737 79.9713 3.47119C79.5113 3.55561 79.4034 3.84263 79.3409 4.42794C79.2784 5.01325 79.3068 5.44097 79.3068 8.00168V10.371C79.3068 12.8136 79.801 13.8435 80.6302 14.5132C81.2293 14.993 81.9847 15.2392 82.7543 15.2055C83.6236 15.2195 84.4645 14.8987 85.0999 14.3106C86.037 13.382 86.0882 11.8681 86.0882 10.1347V7.97917C86.0882 5.41846 86.0882 4.94571 86.0541 4.40543C86.02 3.86514 85.8837 3.56686 85.3214 3.44868C85.1187 3.41506 84.9136 3.39812 84.708 3.39803C84.5206 3.39803 84.4184 3.36426 84.4184 3.24607C84.4184 3.12788 84.5377 3.09412 84.7762 3.09412C85.6452 3.09412 86.7129 3.14477 86.73 3.14477C86.9344 3.14477 88.0078 3.09412 88.6667 3.09412C88.9052 3.09412 89.0245 3.12788 89.0245 3.24607C89.0245 3.36426 88.9222 3.39803 88.7178 3.39803C88.543 3.40449 88.3696 3.43093 88.2009 3.47682C87.7409 3.56124 87.6046 3.84263 87.5705 4.43357C87.5364 5.0245 87.5364 5.4466 87.5364 8.00731V9.80825C87.5364 11.6767 87.349 13.6634 85.9235 14.8734C84.9437 15.7111 83.6779 16.146 82.3851 16.089C81.4878 16.089 79.8577 16.0384 78.6139 14.9241C77.7507 14.153 77.1032 12.9036 77.1032 10.4611V7.97917Z" fill="#23569C"/>
<path d="M93.0797 3.18416C93.1309 2.89713 93.2274 2.74518 93.3637 2.74518C93.5 2.74518 93.6023 2.8296 93.8238 3.26858L98.4639 12.7629L103.087 3.15039C103.206 2.88025 103.309 2.74518 103.462 2.74518C103.615 2.74518 103.717 2.91402 103.769 3.26858L105.313 13.6746C105.467 14.7327 105.637 15.2223 106.143 15.363C106.483 15.4751 106.84 15.5321 107.199 15.5319C107.352 15.5319 107.472 15.5319 107.472 15.6501C107.472 15.7682 107.267 15.8358 107.029 15.8358C106.603 15.8358 104.257 15.7851 103.581 15.7345C103.189 15.7007 103.087 15.6501 103.087 15.5487C103.087 15.4474 103.155 15.4137 103.274 15.363C103.394 15.3124 103.428 15.1098 103.36 14.637L102.337 7.23065H102.269L98.5661 14.8734C98.1743 15.6669 98.0891 15.8189 97.9357 15.8189C97.7824 15.8189 97.612 15.4812 97.3678 14.9747C96.9588 14.2037 95.6128 11.5979 95.414 11.1533C95.2607 10.7988 94.2384 8.67703 93.642 7.41637H93.5739L92.6935 14.1193C92.6594 14.3805 92.6423 14.6437 92.6424 14.9072C92.6424 15.228 92.8639 15.3799 93.1536 15.47C93.386 15.5261 93.6243 15.5544 93.8635 15.5544C93.9998 15.5544 94.1191 15.5881 94.1191 15.6726C94.1191 15.757 93.9657 15.8583 93.7102 15.8583C93.0002 15.8583 92.2335 15.8076 91.9268 15.8076C91.6201 15.8076 90.7909 15.8583 90.2229 15.8583C90.0526 15.8583 89.9163 15.8245 89.9163 15.6726C89.9163 15.5206 90.0185 15.5544 90.1889 15.5544C90.3608 15.5599 90.5326 15.5428 90.7 15.5037C91.1771 15.4024 91.3077 14.744 91.3929 14.1755L93.0968 3.19541L93.0797 3.18416Z" fill="#23569C"/>
<path d="M111.209 7.97918C111.209 5.41847 111.209 4.94572 111.175 4.40544C111.14 3.86515 111.004 3.56687 110.442 3.44869C110.224 3.41955 110.003 3.41013 109.783 3.42055C109.596 3.42055 109.493 3.38678 109.493 3.26859C109.493 3.15041 109.613 3.11664 109.868 3.11664C110.766 3.11664 111.839 3.16729 112.18 3.16729C113.009 3.16729 113.674 3.11664 114.253 3.11664C117.325 3.11664 117.871 4.74874 117.871 5.64358C117.871 7.02243 117.07 7.84974 116.138 8.587C117.53 9.05975 119.228 10.2754 119.228 12.2226C119.228 14.0292 117.82 15.8977 114.684 15.8977C114.281 15.8977 112.731 15.7964 112.225 15.7964C111.833 15.7964 110.76 15.847 110.084 15.847C109.863 15.847 109.743 15.7964 109.743 15.6782C109.743 15.56 109.811 15.5431 110.016 15.5431C110.22 15.5432 110.424 15.5206 110.624 15.4756C110.964 15.4081 111.05 15.0366 111.118 14.5526C111.203 13.8435 111.203 12.5097 111.203 10.962V7.97918H111.209ZM113.248 8.26058C113.248 8.39565 113.299 8.42942 113.367 8.4463C113.631 8.49115 113.9 8.50812 114.168 8.49695C114.601 8.54901 115.038 8.43418 115.389 8.17616C115.635 7.95137 115.826 7.67371 115.947 7.36446C116.068 7.05521 116.116 6.72259 116.087 6.3921C116.087 5.26651 115.423 3.78636 113.963 3.78636C113.773 3.78078 113.583 3.79208 113.395 3.82013C113.276 3.8539 113.242 3.92143 113.242 4.10153V8.26058H113.248ZM115.519 9.61128C115.103 9.33573 114.611 9.19422 114.111 9.20607H113.378C113.31 9.20607 113.276 9.23984 113.276 9.32426V13.3145C113.276 14.4401 113.327 14.7102 113.844 14.9297C114.238 15.0809 114.66 15.1499 115.082 15.1323C115.343 15.1475 115.605 15.1109 115.852 15.0249C116.098 14.9388 116.325 14.8049 116.519 14.631C116.713 14.4571 116.871 14.2466 116.982 14.0119C117.093 13.7771 117.156 13.5228 117.166 13.2638C117.175 13.1702 117.175 13.076 117.166 12.9824C117.192 12.329 117.055 11.6794 116.768 11.0907C116.48 10.5019 116.052 9.992 115.519 9.60565V9.61128Z" fill="#23569C"/>
<path d="M122.999 7.97917C122.999 5.41846 122.999 4.94571 122.965 4.40543C122.931 3.86514 122.767 3.54998 122.397 3.46556C122.197 3.41508 121.991 3.39236 121.784 3.39803C121.614 3.39803 121.511 3.36426 121.511 3.22919C121.511 3.09412 121.648 3.09412 121.92 3.09412C122.568 3.09412 123.624 3.14477 124.13 3.14477C124.635 3.14477 125.555 3.09412 126.203 3.09412C126.424 3.09412 126.56 3.12788 126.56 3.22919C126.56 3.33049 126.458 3.39803 126.288 3.39803C126.116 3.39816 125.945 3.41512 125.777 3.44868C125.317 3.5331 125.209 3.82012 125.146 4.40543C125.084 4.99073 125.118 5.44097 125.118 7.97917V10.962C125.118 12.5941 125.118 13.9279 125.186 14.6483C125.237 15.1041 125.356 15.4081 125.868 15.4756C126.156 15.5149 126.446 15.5374 126.737 15.5431C126.918 15.5431 127.003 15.5938 127.003 15.6782C127.003 15.7626 126.873 15.847 126.685 15.847C125.549 15.847 124.493 15.7964 124.033 15.7964C123.573 15.7964 122.573 15.847 121.892 15.847C121.67 15.847 121.551 15.7964 121.551 15.6782C121.551 15.56 121.619 15.5431 121.824 15.5431C122.03 15.5432 122.236 15.5206 122.437 15.4756C122.772 15.4081 122.874 15.121 122.926 14.6314C123.011 13.9279 123.011 12.5941 123.011 10.962V7.97917H122.999Z" fill="#23569C"/>
<path d="M133.342 11.4516C133.257 11.4516 133.223 11.4854 133.188 11.5867L132.274 13.9954C132.133 14.3206 132.046 14.6667 132.018 15.0197C132.018 15.3236 132.172 15.5431 132.694 15.5431H132.95C133.154 15.5431 133.206 15.5769 133.206 15.6782C133.206 15.7795 133.103 15.847 132.916 15.847C132.348 15.847 131.644 15.7964 131.115 15.7964C130.928 15.7964 129.98 15.847 129.111 15.847C128.889 15.847 128.787 15.8133 128.787 15.6782C128.787 15.5431 128.855 15.5431 128.991 15.5431C129.168 15.5431 129.344 15.5318 129.52 15.5094C130.303 15.4081 130.621 14.834 130.962 13.9954L135.227 3.42053C135.432 2.9309 135.534 2.74518 135.704 2.74518C135.875 2.74518 135.96 2.89713 136.13 3.30797C136.539 4.23096 139.254 11.1027 140.345 13.6634C140.992 15.1773 141.481 15.4137 141.838 15.4981C142.074 15.5429 142.314 15.5655 142.554 15.5656C142.69 15.5656 142.775 15.5656 142.775 15.7007C142.775 15.8358 142.622 15.8695 141.992 15.8695C141.361 15.8695 140.14 15.8695 138.777 15.8358C138.476 15.8358 138.272 15.8358 138.272 15.7007C138.272 15.5656 138.34 15.5656 138.51 15.5488C138.545 15.5368 138.577 15.5181 138.605 15.4937C138.632 15.4693 138.654 15.4398 138.67 15.4068C138.686 15.3738 138.695 15.338 138.697 15.3015C138.699 15.265 138.693 15.2285 138.681 15.1942V15.1604L137.317 11.5923C137.307 11.5562 137.285 11.5247 137.253 11.5032C137.222 11.4817 137.185 11.4714 137.147 11.4741L133.342 11.4516ZM136.806 10.6074C136.892 10.6074 136.909 10.5568 136.891 10.5061L135.341 6.34706C135.341 6.27953 135.307 6.19511 135.256 6.19511C135.205 6.19511 135.171 6.27953 135.154 6.34706L133.637 10.4892C133.637 10.5568 133.637 10.6074 133.705 10.6074H136.806Z" fill="#23569C"/>
<path d="M151.55 6.47651C151.55 3.42054 151.55 2.85774 151.511 2.21053C151.471 1.56331 151.306 1.20312 150.636 1.08494C150.373 1.04081 150.107 1.02196 149.841 1.02866C149.619 1.02866 149.5 0.983634 149.5 0.842936C149.5 0.702237 149.642 0.662842 149.943 0.662842C151.022 0.662842 152.3 0.72475 152.908 0.72475C153.396 0.72475 154.674 0.662842 155.407 0.662842C155.713 0.662842 155.855 0.702237 155.855 0.842936C155.855 0.983634 155.73 1.02866 155.532 1.02866C155.341 1.03039 155.151 1.04923 154.964 1.08494C154.396 1.18624 154.254 1.52955 154.214 2.21053C154.174 2.89151 154.169 3.42054 154.169 6.47651V9.29048C154.169 12.2058 154.736 13.4326 155.753 14.2431C156.469 14.817 157.372 15.1095 158.292 15.0648C159.335 15.0814 160.342 14.6913 161.098 13.9786C162.233 12.853 162.273 11.0633 162.273 8.98657V6.47651C162.273 3.42054 162.273 2.85774 162.233 2.21053C162.194 1.56331 162.029 1.20312 161.359 1.08494C161.119 1.04363 160.875 1.02479 160.632 1.02866C160.405 1.02866 160.285 0.983634 160.285 0.842936C160.285 0.702237 160.427 0.662842 160.711 0.662842C161.745 0.662842 163.029 0.72475 163.046 0.72475C163.29 0.72475 164.568 0.662842 165.363 0.662842C165.647 0.662842 165.789 0.702237 165.789 0.842936C165.789 0.983634 165.664 1.02866 165.42 1.02866C165.229 1.03039 165.039 1.04923 164.852 1.08494C164.284 1.18624 164.142 1.52955 164.096 2.21053C164.051 2.89151 164.057 3.42054 164.057 6.47651V8.63201C164.057 10.8832 163.835 13.2413 162.126 14.6877C160.958 15.6885 159.448 16.2081 157.906 16.1397C156.827 16.1397 154.878 16.0778 153.396 14.7496C152.357 13.821 151.59 12.3352 151.59 9.4143V6.47651H151.55Z" fill="#23569C"/>
<path d="M169.918 13.5564C169.952 14.8677 170.173 15.3067 170.514 15.4249C170.798 15.5145 171.096 15.5545 171.394 15.5431C171.582 15.5431 171.684 15.5769 171.684 15.6782C171.684 15.7795 171.531 15.847 171.292 15.847C170.19 15.847 169.509 15.7963 169.185 15.7963C169.032 15.7963 168.236 15.847 167.35 15.847C167.129 15.847 166.981 15.847 166.981 15.6782C166.981 15.5093 167.078 15.5431 167.248 15.5431C167.506 15.5488 167.764 15.5204 168.015 15.4587C168.458 15.3236 168.526 14.834 168.543 13.3707L168.697 3.40361C168.697 3.06594 168.748 2.84082 168.912 2.84082C169.077 2.84082 169.253 3.06031 169.543 3.36422C169.747 3.58371 172.331 6.32452 174.813 8.76705C175.949 9.89264 178.261 12.3352 178.55 12.6053H178.636L178.465 5.04697C178.465 4.01706 178.295 3.7019 177.897 3.53306C177.606 3.44892 177.303 3.41466 177 3.43175C176.796 3.43175 176.727 3.3811 176.727 3.2798C176.727 3.1785 176.915 3.12784 177.17 3.12784C178.051 3.12784 178.874 3.1785 179.226 3.1785C179.414 3.1785 180.056 3.12784 180.89 3.12784C181.112 3.12784 181.282 3.12784 181.282 3.2798C181.282 3.43175 181.18 3.43175 180.976 3.43175C180.804 3.426 180.632 3.44304 180.464 3.48241C179.987 3.61748 179.851 3.96641 179.834 4.9119L179.641 15.5262C179.641 15.8977 179.573 16.0496 179.419 16.0496C179.195 15.9897 178.995 15.8594 178.851 15.6782C177.784 14.6651 175.608 12.459 173.836 10.7256C171.985 8.90775 170.099 6.78601 169.793 6.4821H169.742L169.929 13.5564H169.918Z" fill="#23569C"/>
<path d="M185.604 7.97917C185.604 5.41846 185.604 4.94571 185.57 4.40543C185.536 3.86514 185.366 3.54998 185.002 3.46556C184.802 3.41508 184.596 3.39236 184.389 3.39803C184.219 3.39803 184.116 3.36426 184.116 3.22919C184.116 3.09412 184.253 3.09412 184.525 3.09412C185.167 3.09412 186.229 3.14477 186.735 3.14477C187.24 3.14477 188.16 3.09412 188.808 3.09412C189.029 3.09412 189.166 3.12788 189.166 3.22919C189.166 3.33049 189.063 3.39803 188.893 3.39803C188.721 3.39816 188.55 3.41512 188.382 3.44868C187.922 3.5331 187.785 3.82012 187.751 4.40543C187.717 4.99073 187.717 5.41846 187.717 7.97917V10.962C187.717 12.5941 187.717 13.9279 187.785 14.6483C187.837 15.1041 187.956 15.4081 188.467 15.4756C188.753 15.5151 189.041 15.5376 189.33 15.5431C189.518 15.5431 189.603 15.5938 189.603 15.6782C189.603 15.7626 189.467 15.847 189.285 15.847C188.149 15.847 187.093 15.7964 186.632 15.7964C186.172 15.7964 185.167 15.847 184.491 15.847C184.27 15.847 184.151 15.7964 184.151 15.6782C184.151 15.56 184.219 15.5431 184.423 15.5431C184.63 15.5432 184.835 15.5206 185.037 15.4756C185.372 15.4081 185.474 15.121 185.525 14.6314C185.61 13.9279 185.61 12.5941 185.61 10.962V7.97917H185.604Z" fill="#23569C"/>
<path d="M193.067 4.7431C192.675 3.82012 192.386 3.61752 191.778 3.46556C191.56 3.41503 191.337 3.39233 191.113 3.39803C190.96 3.39803 190.909 3.34737 190.909 3.24607C190.909 3.14477 191.096 3.09412 191.352 3.09412C192.255 3.09412 193.22 3.14477 193.817 3.14477C194.243 3.14477 195.055 3.09412 195.907 3.09412C196.111 3.09412 196.299 3.12788 196.299 3.24607C196.299 3.36426 196.197 3.39803 196.043 3.39803C195.815 3.37476 195.585 3.41572 195.379 3.51621C195.322 3.55578 195.276 3.6092 195.247 3.67132C195.217 3.73344 195.204 3.80214 195.208 3.87077C195.282 4.3173 195.413 4.75245 195.6 5.1652L198.525 12.808H198.588C199.32 10.9564 201.53 5.53665 201.939 4.42231C202.023 4.22564 202.075 4.01651 202.092 3.80324C202.095 3.73312 202.076 3.66376 202.036 3.60581C201.996 3.54787 201.938 3.50453 201.87 3.48244C201.649 3.42024 201.419 3.39178 201.189 3.39803C201.035 3.39803 200.899 3.39803 200.899 3.26296C200.899 3.12788 201.053 3.09412 201.376 3.09412C202.228 3.09412 202.938 3.14477 203.16 3.14477C203.381 3.14477 204.25 3.09412 204.756 3.09412C204.977 3.09412 205.113 3.12788 205.113 3.24607C205.113 3.36426 205.011 3.39803 204.846 3.39803C204.554 3.38271 204.264 3.45318 204.012 3.60063C203.79 3.74696 203.534 4.03398 203.074 5.11455C202.416 6.696 201.939 7.60773 201.035 9.67881C199.951 12.1382 199.15 13.9729 198.764 14.8115C198.326 15.7908 198.224 16.0609 197.986 16.0609C197.747 16.0609 197.662 15.8245 197.338 15.031L193.067 4.7431Z" fill="#23569C"/>
<path d="M207.811 7.97913C207.811 5.41842 207.811 4.94567 207.777 4.40539C207.743 3.86511 207.607 3.56683 207.045 3.44864C206.825 3.40942 206.603 3.39245 206.38 3.39799C206.198 3.39799 206.096 3.36422 206.096 3.24603C206.096 3.12785 206.215 3.09408 206.465 3.09408C207.368 3.09408 208.442 3.14473 208.913 3.14473H213.15C213.392 3.12222 213.637 3.08845 213.883 3.04343C213.972 3.01564 214.063 2.99309 214.155 2.97589C214.24 2.97589 214.258 3.04343 214.258 3.12784C214.195 3.48803 214.15 3.85385 214.121 4.21967C214.121 4.3885 214.07 5.13139 214.036 5.34525C214.038 5.36863 214.034 5.39207 214.026 5.41418C214.019 5.43629 214.006 5.45662 213.991 5.47395C213.975 5.49128 213.955 5.50526 213.934 5.51506C213.912 5.52486 213.889 5.53027 213.866 5.53098C213.746 5.53098 213.712 5.44656 213.712 5.2946C213.712 5.08778 213.678 4.88236 213.61 4.68679C213.491 4.38288 213.32 4.18027 212.474 4.07897C212.184 4.0452 210.401 4.01706 210.06 4.01706C209.975 4.01706 209.941 4.06208 209.941 4.18027V8.44062C209.941 8.55881 209.941 8.62635 210.06 8.62635C210.435 8.62635 212.389 8.62635 212.775 8.59258C213.07 8.60934 213.36 8.51932 213.593 8.33932C213.712 8.20425 213.78 8.11983 213.866 8.11983C213.951 8.11983 213.985 8.15923 213.985 8.2549C213.918 8.66319 213.873 9.07456 213.849 9.48742C213.815 9.8251 213.78 10.4948 213.78 10.613C213.78 10.7312 213.78 10.9338 213.627 10.9338C213.609 10.9362 213.591 10.935 213.573 10.9303C213.556 10.9256 213.54 10.9175 213.525 10.9065C213.511 10.8955 213.499 10.8818 213.49 10.8662C213.481 10.8506 213.476 10.8334 213.474 10.8156V10.7818C213.462 10.5782 213.44 10.3752 213.406 10.174C213.32 9.84198 213.082 9.61124 212.457 9.52119C212.133 9.48742 210.452 9.47054 210.043 9.47054C209.958 9.47054 209.941 9.53807 209.941 9.63938V13.5789C209.975 14.7383 210.248 14.9915 211.98 14.9915C212.52 15.0258 213.062 14.957 213.576 14.7889C214.019 14.5863 214.223 14.2261 214.343 13.5452C214.377 13.3594 214.411 13.2919 214.53 13.2919C214.649 13.2919 214.666 13.427 214.666 13.5958C214.64 14.2134 214.57 14.8284 214.456 15.4362C214.337 15.8751 214.184 15.8751 213.536 15.8751C210.969 15.8751 209.833 15.7738 208.828 15.7738C208.442 15.7738 207.368 15.8245 206.687 15.8245C206.471 15.8245 206.352 15.7738 206.352 15.6556C206.352 15.5375 206.42 15.5206 206.619 15.5206C206.825 15.5207 207.031 15.498 207.232 15.453C207.573 15.3855 207.658 15.0141 207.726 14.5244C207.811 13.8209 207.811 12.4871 207.811 10.9394V7.95662V7.97913Z" fill="#23569C"/>
<path d="M219.483 7.97914C219.483 5.41842 219.483 4.94568 219.448 4.40539C219.414 3.86511 219.278 3.56683 218.721 3.44864C218.502 3.40943 218.28 3.39245 218.057 3.39799C217.87 3.39799 217.767 3.36422 217.767 3.24604C217.767 3.12785 217.887 3.09408 218.142 3.09408C219.045 3.09408 220.113 3.14473 220.471 3.14473C221.039 3.14473 222.339 3.09408 222.868 3.09408C223.959 3.01553 225.049 3.2688 225.991 3.82009C226.346 4.09183 226.633 4.44074 226.83 4.83986C227.027 5.23899 227.128 5.67763 227.127 6.12192C227.127 7.37132 226.599 8.51379 224.884 9.89827C226.394 11.7836 227.564 13.275 228.57 14.3275C229.06 14.9022 229.729 15.2984 230.472 15.453C230.63 15.4838 230.789 15.5008 230.949 15.5037C231.086 15.5037 231.154 15.5544 231.154 15.6388C231.154 15.7232 231.035 15.8076 230.83 15.8076H229.217C228.593 15.8684 227.964 15.7574 227.4 15.4868C226.667 15.0985 226.02 14.3106 225.071 13.0105C224.39 12.0875 223.606 10.9394 223.367 10.6862C223.329 10.6443 223.281 10.6119 223.228 10.5914C223.175 10.5708 223.117 10.5628 223.061 10.568L221.578 10.5342C221.493 10.5342 221.442 10.568 221.442 10.6693V10.9338C221.442 12.4984 221.442 13.8322 221.527 14.5413C221.578 15.0253 221.681 15.3968 222.192 15.4643C222.468 15.5036 222.747 15.5261 223.027 15.5318C223.163 15.5318 223.231 15.5825 223.231 15.6669C223.231 15.7513 223.112 15.8357 222.89 15.8357C221.902 15.8357 220.618 15.7851 220.391 15.7851C220.164 15.7851 219 15.8357 218.318 15.8357C218.097 15.8357 217.977 15.7851 217.977 15.6669C217.977 15.5487 218.046 15.5318 218.25 15.5318C218.456 15.5319 218.662 15.5093 218.863 15.4643C219.199 15.3968 219.284 15.0253 219.352 14.5413C219.437 13.8322 219.437 12.4984 219.437 10.9507V7.97914H219.483ZM221.487 9.30733C221.487 9.49306 221.521 9.56059 221.641 9.61124C222.062 9.72903 222.498 9.78589 222.936 9.78008C223.359 9.83744 223.789 9.73499 224.14 9.49305C224.651 9.12161 225.145 8.36747 225.145 6.96611C225.145 4.57423 223.543 3.88762 222.544 3.88762C222.241 3.87062 221.937 3.89333 221.641 3.95516C221.521 3.98893 221.487 4.05083 221.487 4.1859V9.30733Z" fill="#23569C"/>
<path d="M232.421 15.6444C232.148 15.5262 232.097 15.4418 232.097 15.0816C232.097 14.1586 232.165 13.1456 232.182 12.8755C232.199 12.6053 232.25 12.4421 232.387 12.4421C232.523 12.4421 232.557 12.5884 232.557 12.7235C232.574 13.0155 232.625 13.3045 232.71 13.5846C232.856 14.1002 233.177 14.55 233.619 14.8578C234.061 15.1655 234.597 15.3122 235.135 15.273C236.669 15.273 237.407 14.2487 237.407 13.3538C237.407 12.459 237.157 11.7386 235.743 10.6581L234.965 10.0559C233.102 8.60386 232.46 7.41636 232.46 6.06565C232.46 4.20843 234.022 2.88024 236.385 2.88024C237.152 2.86842 237.917 2.96506 238.657 3.16726C238.81 3.20103 238.895 3.25168 238.895 3.36987C238.895 3.58936 238.827 4.07336 238.827 5.3903C238.827 5.76175 238.776 5.89682 238.64 5.89682C238.503 5.89682 238.469 5.79551 238.469 5.59291C238.442 5.18156 238.287 4.78859 238.026 4.46732C237.81 4.18973 237.528 3.96945 237.205 3.82609C236.882 3.68273 236.528 3.62074 236.175 3.64564C234.92 3.64564 234.153 4.36602 234.153 5.37905C234.153 6.15007 234.545 6.74101 235.953 7.80469L236.43 8.15925C238.469 9.72382 239.219 10.8494 239.219 12.4477C239.231 13.032 239.09 13.6094 238.809 14.1234C238.528 14.6373 238.118 15.0703 237.617 15.3799C236.805 15.8647 235.868 16.1052 234.92 16.0721C234.07 16.1052 233.223 15.9555 232.438 15.6332L232.421 15.6444Z" fill="#23569C"/>
<path d="M243.995 7.97917C243.995 5.41846 243.995 4.94571 243.961 4.40543C243.927 3.86514 243.757 3.54998 243.393 3.46556C243.193 3.41508 242.987 3.39236 242.78 3.39803C242.61 3.39803 242.507 3.36426 242.507 3.22919C242.507 3.09412 242.644 3.09412 242.916 3.09412C243.564 3.09412 244.62 3.14477 245.126 3.14477C245.631 3.14477 246.551 3.09412 247.199 3.09412C247.42 3.09412 247.557 3.12788 247.557 3.22919C247.557 3.33049 247.454 3.39803 247.284 3.39803C247.114 3.39789 246.945 3.41486 246.778 3.44868C246.318 3.5331 246.211 3.82012 246.148 4.40543C246.086 4.99073 246.091 5.44097 246.091 7.97917V10.962C246.091 12.5941 246.091 13.9279 246.159 14.6483C246.211 15.1041 246.33 15.4081 246.835 15.4756C247.123 15.5149 247.413 15.5374 247.704 15.5431C247.892 15.5431 247.977 15.5938 247.977 15.6782C247.977 15.7626 247.841 15.847 247.653 15.847C246.517 15.847 245.461 15.7964 245.001 15.7964C244.541 15.7964 243.541 15.847 242.86 15.847C242.638 15.847 242.519 15.7964 242.519 15.6782C242.519 15.56 242.587 15.5431 242.791 15.5431C242.998 15.5432 243.204 15.5206 243.405 15.4756C243.746 15.4081 243.848 15.121 243.899 14.6314C243.984 13.9279 243.984 12.5941 243.984 10.962V7.97917H243.995Z" fill="#23569C"/>
<path d="M255.604 4.03958L253.071 4.10712C252.083 4.14089 251.674 4.2253 251.424 4.59675C251.294 4.77576 251.196 4.97567 251.134 5.18768C251.1 5.32275 251.049 5.39029 250.947 5.39029C250.845 5.39029 250.794 5.30587 250.794 5.12015C250.794 4.93443 251.117 3.31921 251.152 3.18413C251.203 2.96465 251.254 2.86334 251.356 2.86334C251.591 2.95378 251.835 3.02163 252.083 3.06595C252.577 3.1166 253.219 3.15037 253.787 3.15037H260.511C261.061 3.15611 261.61 3.09947 262.147 2.98153C262.261 2.98153 262.278 3.08283 262.278 3.33609C262.278 3.69065 262.232 4.85001 262.232 5.28899C262.232 5.45782 262.181 5.55913 262.079 5.55913C261.977 5.55913 261.909 5.47471 261.891 5.22145V5.03573C261.857 4.59675 261.397 4.124 259.887 4.09023L257.728 4.03958V10.962C257.728 12.5153 257.728 13.8435 257.808 14.5695C257.865 15.0366 257.967 15.408 258.472 15.4756C258.76 15.5148 259.051 15.5374 259.341 15.5431C259.529 15.5431 259.614 15.5937 259.614 15.6782C259.614 15.7626 259.478 15.847 259.29 15.847C258.154 15.847 257.098 15.7964 256.621 15.7964C256.144 15.7964 255.178 15.8583 254.48 15.8583C254.258 15.8583 254.139 15.8076 254.139 15.6894C254.139 15.5712 254.207 15.5544 254.412 15.5544C254.618 15.5544 254.824 15.5318 255.025 15.4868C255.366 15.4193 255.468 15.0478 255.519 14.5638C255.604 13.8547 255.604 12.5265 255.604 10.9732V4.03958Z" fill="#23569C"/>
<path d="M269.695 11.4966C269.722 10.8845 269.589 10.2757 269.309 9.72947C269.19 9.45932 266.912 5.75613 266.316 4.87818C266.018 4.38197 265.62 3.95263 265.146 3.61752C264.926 3.49497 264.682 3.42016 264.43 3.39803C264.294 3.39803 264.175 3.36426 264.175 3.24607C264.175 3.12788 264.294 3.09412 264.498 3.09412C264.805 3.09412 266.077 3.14477 266.64 3.14477C266.997 3.14477 267.69 3.09412 268.457 3.09412C268.627 3.09412 268.713 3.14477 268.713 3.24607C268.713 3.34737 268.593 3.36426 268.338 3.43179C268.269 3.44737 268.207 3.48614 268.164 3.54154C268.12 3.59694 268.097 3.66554 268.099 3.7357C268.128 3.93517 268.197 4.12671 268.304 4.2985C268.542 4.80501 270.922 8.86276 271.195 9.36365C271.365 8.95844 273.506 5.25525 273.745 4.73185C273.881 4.45962 273.96 4.16289 273.978 3.85952C273.983 3.75826 273.949 3.65874 273.884 3.5806C273.819 3.50246 273.727 3.45137 273.625 3.43742C273.472 3.40365 273.319 3.36989 273.319 3.26858C273.319 3.16728 273.404 3.11663 273.608 3.11663C274.176 3.11663 274.71 3.16728 275.204 3.16728C275.579 3.16728 276.698 3.11663 277.022 3.11663C277.209 3.11663 277.328 3.1504 277.328 3.2517C277.328 3.353 277.192 3.42054 277.005 3.42054C276.743 3.4339 276.487 3.50301 276.255 3.62314C275.887 3.81926 275.573 4.10131 275.341 4.44482C274.153 6.16747 273.071 7.95843 272.098 9.80826C271.892 10.3465 271.804 10.9222 271.842 11.4966V12.8755C271.842 13.1456 271.842 13.8548 271.893 14.5639C271.927 15.0479 272.081 15.4193 272.586 15.4869C272.868 15.5261 273.153 15.5487 273.438 15.5544C273.625 15.5544 273.711 15.605 273.711 15.6895C273.711 15.7739 273.574 15.8583 273.353 15.8583C272.279 15.8583 271.212 15.8076 270.752 15.8076C270.292 15.8076 269.258 15.8583 268.627 15.8583C268.389 15.8583 268.253 15.8245 268.253 15.6895C268.253 15.5544 268.338 15.5544 268.525 15.5544C268.726 15.5545 268.926 15.5318 269.122 15.4869C269.462 15.4193 269.616 15.0479 269.65 14.5639C269.701 13.8548 269.701 13.1456 269.701 12.8755V11.4966H269.695Z" fill="#23569C"/>
<path d="M34.3027 28.8813V26.5401C34.3027 26.1856 34.1721 25.9773 33.9279 25.921C33.7959 25.8891 33.6604 25.874 33.5246 25.876C33.411 25.876 33.3429 25.876 33.3429 25.7635C33.3429 25.6509 33.4338 25.6734 33.6098 25.6734C34.0358 25.6734 34.7457 25.7072 35.0638 25.7072C35.3818 25.7072 36.0009 25.6734 36.4269 25.6734C36.5688 25.6734 36.6597 25.6734 36.6597 25.7635C36.6597 25.8535 36.5916 25.876 36.4836 25.876C36.3711 25.8758 36.2588 25.8871 36.1486 25.9098C35.8419 25.9661 35.7567 26.1518 35.734 26.5401C35.7112 26.9284 35.734 27.2042 35.734 28.8813V30.8286C35.734 31.9035 35.734 32.7759 35.7794 33.2542C35.8135 33.5525 35.8873 33.7495 36.2224 33.817C36.4106 33.8432 36.6003 33.8583 36.7903 33.8621C36.9096 33.8621 36.9664 33.8958 36.9664 33.9465C36.9664 33.9971 36.8755 34.059 36.7563 34.059C36.0179 34.059 35.3137 34.0253 35.0127 34.0253C34.7116 34.0253 34.0528 34.059 33.6098 34.059C33.4622 34.059 33.3827 34.0253 33.3827 33.9465C33.3827 33.8677 33.4281 33.8621 33.5644 33.8621C33.6982 33.8613 33.8315 33.8462 33.962 33.817C34.1891 33.772 34.2573 33.5863 34.2857 33.2542C34.3425 32.7928 34.3425 31.9204 34.3425 30.8455V28.8813H34.3027Z" fill="#23569C"/>
<path d="M40.5444 32.5338C40.5444 33.3949 40.7091 33.6594 40.9306 33.7607C41.1142 33.818 41.3061 33.8446 41.4985 33.8395C41.6178 33.8395 41.686 33.8395 41.686 33.924C41.686 34.0084 41.5837 34.0365 41.4304 34.0365C40.7034 34.0365 40.2604 34.0027 40.0446 34.0027C39.9424 34.0027 39.4198 34.0365 38.8405 34.0365C38.6929 34.0365 38.5963 34.0365 38.5963 33.924C38.5963 33.8114 38.6815 33.8677 38.7894 33.8677C38.9597 33.8716 39.1297 33.8526 39.2949 33.8114C39.5845 33.7213 39.63 33.4006 39.6413 32.4382L39.7379 25.8929C39.7379 25.6734 39.772 25.5158 39.8856 25.5158C39.9991 25.5158 40.1071 25.6621 40.2945 25.8591C40.4819 26.0561 42.129 27.8064 43.759 29.4103C44.5143 30.1589 46.0308 31.7516 46.2125 31.9317H46.2693L46.1728 26.934C46.1728 26.2643 46.0592 26.0505 45.7922 25.9435C45.6075 25.8927 45.416 25.8699 45.2243 25.876C45.088 25.876 45.0482 25.8422 45.0482 25.7747C45.0482 25.7072 45.1675 25.6734 45.3379 25.6734C45.9058 25.6734 46.4738 25.7072 46.6839 25.7072C46.8089 25.7072 47.2519 25.6734 47.7801 25.6734C47.9277 25.6734 48.0356 25.6734 48.0356 25.7747C48.0356 25.876 47.9675 25.876 47.8369 25.876C47.7241 25.8702 47.6111 25.8816 47.5018 25.9098C47.1894 25.9942 47.0985 26.2306 47.0872 26.8496L46.9679 33.8283C46.9679 34.0703 46.9225 34.1716 46.8202 34.1716C46.718 34.1716 46.5647 34.0478 46.4397 33.924C45.7354 33.2599 44.3099 31.8135 43.1513 30.6766C41.9927 29.5398 40.692 28.099 40.4933 27.8627H40.4592L40.5841 32.5113L40.5444 32.5338Z" fill="#23569C"/>
<path d="M56.4525 26.2981L54.7941 26.3375C54.1466 26.3375 53.8797 26.4163 53.7093 26.6583C53.6266 26.7771 53.5633 26.9082 53.5219 27.0466C53.5234 27.0638 53.5214 27.0811 53.5158 27.0974C53.5102 27.1138 53.5013 27.1288 53.4895 27.1415C53.4778 27.1542 53.4635 27.1644 53.4475 27.1713C53.4316 27.1782 53.4143 27.1817 53.3969 27.1817C53.3288 27.1817 53.2947 27.1254 53.2947 27.0016C53.2947 26.8778 53.5105 25.8197 53.5332 25.7297C53.5559 25.6396 53.6014 25.5214 53.6638 25.5214C53.8197 25.5827 53.9814 25.628 54.1466 25.6565C54.4703 25.6565 54.8906 25.7071 55.2825 25.7071H59.7012C59.9595 25.7071 60.2175 25.6902 60.4736 25.6565C60.5727 25.6318 60.6732 25.613 60.7746 25.6002C60.8541 25.6002 60.8655 25.6678 60.8655 25.831C60.8655 25.9942 60.8314 26.8271 60.8314 27.1141C60.8314 27.2211 60.7973 27.2886 60.7291 27.2886C60.661 27.2886 60.6212 27.2379 60.6099 27.0691V26.9509C60.6099 26.6583 60.2861 26.3487 59.2922 26.3262H57.8837V30.8286C57.8837 31.8472 57.8837 32.7196 57.9405 33.1979C57.9746 33.5075 58.0427 33.7607 58.3778 33.7945C58.5661 33.8207 58.7557 33.8357 58.9458 33.8395C59.0651 33.8395 59.1218 33.8395 59.1218 33.9239C59.1218 34.0084 59.0367 34.0365 58.9117 34.0365C58.1734 34.0365 57.4691 34.0027 57.1567 34.0027C56.8444 34.0027 56.1969 34.0365 55.7539 34.0365C55.6062 34.0365 55.5324 34.0027 55.5324 33.9239C55.5324 33.8452 55.5722 33.8395 55.7085 33.8395C55.8441 33.8388 55.9793 33.8237 56.1117 33.7945C56.3332 33.7495 56.4014 33.5075 56.4354 33.1867C56.4922 32.7196 56.4922 31.8472 56.4922 30.8286V26.3262L56.4525 26.2981Z" fill="#23569C"/>
<path d="M69.1861 29.1909C69.2042 29.1909 69.2215 29.1837 69.2343 29.1711C69.2471 29.1584 69.2542 29.1412 69.2542 29.1233V26.5401C69.2542 26.1855 69.1463 25.9773 68.7772 25.9098C68.6325 25.8871 68.4863 25.8758 68.3398 25.876C68.2149 25.876 68.1524 25.876 68.1524 25.7747C68.1524 25.6734 68.2263 25.6734 68.3853 25.6734C68.9873 25.6734 69.6916 25.7072 69.9926 25.7072C70.2936 25.7072 70.9638 25.6734 71.3954 25.6734C71.5544 25.6734 71.634 25.6734 71.634 25.7747C71.634 25.876 71.5658 25.876 71.4295 25.876C71.3207 25.8761 71.2122 25.8874 71.1058 25.9098C70.8047 25.9661 70.7196 26.1518 70.6968 26.5401C70.6741 26.9284 70.6968 27.2042 70.6968 28.8813V30.8286C70.6968 31.8473 70.6968 32.7196 70.7536 33.198C70.782 33.5075 70.8502 33.7608 71.1853 33.7945C71.3735 33.8207 71.5632 33.8357 71.7532 33.8395C71.8782 33.8395 71.935 33.8733 71.935 33.924C71.935 33.9746 71.8441 34.0365 71.7135 34.0365C70.9865 34.0365 70.2822 34.0028 69.9699 34.0028C69.6575 34.0028 69.01 34.0365 68.5727 34.0365C68.4194 34.0365 68.3398 34.0028 68.3398 33.924C68.3398 33.8452 68.3853 33.8395 68.5216 33.8395C68.6554 33.8388 68.7887 33.8237 68.9192 33.7945C69.1463 33.7495 69.1974 33.5075 69.2429 33.1867C69.2997 32.7196 69.2997 31.8473 69.2997 30.8286V29.855C69.2997 29.837 69.2925 29.8199 69.2797 29.8072C69.2669 29.7945 69.2496 29.7874 69.2315 29.7874H64.9151C64.9069 29.7867 64.8986 29.7875 64.8907 29.7899C64.8828 29.7923 64.8755 29.7963 64.8692 29.8015C64.8629 29.8067 64.8576 29.8132 64.8538 29.8204C64.85 29.8276 64.8477 29.8356 64.8469 29.8437V30.8286C64.8469 31.8473 64.8469 32.7196 64.9037 33.198C64.9378 33.5075 65.0003 33.7608 65.3354 33.7945C65.5236 33.8207 65.7133 33.8357 65.9033 33.8395C66.0226 33.8395 66.0794 33.8733 66.0794 33.924C66.0794 33.9746 65.9885 34.0365 65.8579 34.0365C65.1309 34.0365 64.4267 34.0028 64.1143 34.0028C63.8019 34.0028 63.1545 34.0365 62.7115 34.0365C62.5638 34.0365 62.4843 34.0028 62.4843 33.924C62.4843 33.8452 62.5297 33.8395 62.666 33.8395C62.7998 33.8388 62.9331 33.8237 63.0636 33.7945C63.2908 33.7495 63.3476 33.5075 63.3873 33.1867C63.4441 32.7196 63.4441 31.8473 63.4441 30.8286V26.5401C63.4441 26.1855 63.3362 25.9773 62.967 25.9098C62.8224 25.8871 62.6762 25.8758 62.5297 25.876C62.4104 25.876 62.3423 25.876 62.3423 25.7747C62.3423 25.6734 62.4218 25.6734 62.5751 25.6734C63.1772 25.6734 63.8814 25.7072 64.1824 25.7072C64.4835 25.7072 65.1536 25.6734 65.591 25.6734C65.7443 25.6734 65.8238 25.6734 65.8238 25.7747C65.8238 25.876 65.7557 25.876 65.625 25.876C65.5144 25.8761 65.404 25.8874 65.2956 25.9098C64.9946 25.9661 64.9094 26.1518 64.8867 26.5401C64.864 26.9284 64.8867 27.2042 64.8867 28.8813V29.1177C64.8859 29.1266 64.8869 29.1355 64.8897 29.144C64.8924 29.1525 64.8968 29.1604 64.9026 29.1672C64.9084 29.174 64.9155 29.1796 64.9235 29.1836C64.9315 29.1877 64.9402 29.1902 64.9492 29.1909H69.1861Z" fill="#23569C"/>
<path d="M74.8771 28.8813V26.5401C74.8771 26.1855 74.7692 25.9773 74.4 25.9098C74.2554 25.8871 74.1091 25.8758 73.9627 25.876C73.8434 25.876 73.7753 25.876 73.7753 25.7747C73.7753 25.6734 73.8548 25.679 74.0195 25.679C74.5874 25.679 75.3144 25.7128 75.6268 25.7128H78.4154C78.5778 25.7017 78.7391 25.6791 78.8982 25.6452C78.9552 25.6243 79.0141 25.6092 79.0742 25.6002C79.131 25.6002 79.1424 25.6452 79.1424 25.7015C79.0978 25.9378 79.0675 26.1764 79.0515 26.4163C79.0515 26.5288 79.0174 27.0185 78.9947 27.1479C78.972 27.2773 78.9947 27.2717 78.8868 27.2717C78.7789 27.2717 78.7846 27.2154 78.7846 27.1141C78.7846 26.9781 78.7615 26.843 78.7164 26.7146C78.6426 26.5176 78.529 26.3825 77.9724 26.3206C77.7793 26.3206 76.6093 26.2756 76.3878 26.2756C76.331 26.2756 76.3083 26.3093 76.3083 26.3825V29.1965C76.3083 29.2753 76.3083 29.3203 76.3878 29.3203H78.1712C78.3633 29.3322 78.5531 29.2742 78.7051 29.1571C78.7846 29.067 78.83 29.0108 78.8868 29.0108C78.9436 29.0108 78.9663 29.0108 78.9663 29.1008C78.9217 29.3673 78.8914 29.6359 78.8755 29.9056C78.8755 30.1307 78.83 30.5697 78.83 30.6485C78.83 30.7273 78.83 30.8567 78.7278 30.8567C78.7166 30.8583 78.7052 30.8577 78.6942 30.8548C78.6833 30.852 78.673 30.847 78.664 30.8402C78.655 30.8334 78.6475 30.8249 78.6419 30.8152C78.6363 30.8054 78.6326 30.7947 78.6312 30.7836C78.6248 30.6495 78.6097 30.5161 78.5858 30.384C78.529 30.1589 78.37 29.9957 77.9611 29.9506C77.7452 29.9506 76.6434 29.9169 76.3765 29.9169C76.3197 29.9169 76.3083 29.9619 76.3083 30.0294V32.5451C76.3083 33.3049 76.5071 33.4737 77.6487 33.4737C78.0026 33.4966 78.3576 33.4507 78.6937 33.3387C78.989 33.2092 79.1197 32.9728 79.1992 32.5226C79.1992 32.3988 79.2446 32.3538 79.3241 32.3538C79.4036 32.3538 79.4093 32.4438 79.4093 32.5564C79.3932 32.9683 79.3457 33.3784 79.2673 33.7833C79.1878 34.0703 79.0856 34.0703 78.6653 34.0703C76.9615 34.0703 76.2288 34.0027 75.57 34.0027C75.3144 34.0027 74.6101 34.0365 74.1671 34.0365C74.0195 34.0365 73.94 34.0028 73.94 33.924C73.94 33.8452 73.9854 33.8395 74.1217 33.8395C74.2574 33.8388 74.3925 33.8237 74.525 33.7945C74.7465 33.7495 74.8033 33.5075 74.843 33.1867C74.8998 32.7196 74.8998 31.8472 74.8998 30.8286V28.8813H74.8771Z" fill="#23569C"/>
<path d="M86.5822 32.9841C86.1603 32.5891 85.8212 32.1157 85.584 31.5908C85.3468 31.0658 85.2163 30.4998 85.2 29.9249C85.1836 29.35 85.2817 28.7775 85.4887 28.2402C85.6957 27.7029 86.0074 27.2113 86.4061 26.7934L86.497 26.6921C87.4705 25.8557 88.7385 25.4348 90.024 25.5215C90.5656 25.5195 91.1066 25.5572 91.6426 25.634C92.0629 25.6847 92.4207 25.786 92.7785 25.8197C92.9035 25.8197 92.9489 25.8873 92.9489 25.9548C92.9489 26.0224 92.9148 26.1743 92.8921 26.5626C92.8694 26.951 92.8921 27.5363 92.858 27.7558C92.824 27.9752 92.824 28.009 92.7217 28.009C92.6195 28.009 92.6138 27.919 92.6138 27.767C92.5982 27.386 92.4427 27.0238 92.1765 26.7484C91.531 26.249 90.7216 26.0043 89.9047 26.0617C89.1419 26.0063 88.3881 26.2533 87.809 26.7484C87.4413 27.1255 87.1593 27.5763 86.982 28.0704C86.8047 28.5645 86.7362 29.0905 86.781 29.613C86.781 32.2469 88.8029 33.5525 90.2966 33.5525C91.2905 33.5525 91.8925 33.44 92.3412 32.9278C92.5178 32.7156 92.6457 32.4679 92.716 32.2018C92.7501 32.0217 92.7728 31.9823 92.8637 31.9823C92.9546 31.9823 92.9603 32.0555 92.9603 32.1456C92.9252 32.6398 92.853 33.1308 92.7444 33.6144C92.7342 33.6905 92.7011 33.7618 92.6494 33.819C92.5978 33.8762 92.53 33.9167 92.4548 33.9352C91.8027 34.1261 91.1238 34.2116 90.4443 34.1885C89.0617 34.2709 87.6976 33.8417 86.6163 32.9841H86.5822Z" fill="#23569C"/>
<path d="M95.9139 28.8813V26.5401C95.9139 26.1856 95.7833 25.9773 95.5334 25.921C95.4034 25.8891 95.2698 25.874 95.1359 25.876C95.0223 25.876 94.9541 25.876 94.9541 25.7635C94.9541 25.6509 95.045 25.6734 95.221 25.6734C95.647 25.6734 96.3569 25.7072 96.675 25.7072C96.993 25.7072 97.6121 25.6734 98.0381 25.6734C98.1801 25.6734 98.2709 25.6734 98.2709 25.7635C98.2709 25.8535 98.2028 25.876 98.0892 25.876C97.9766 25.8758 97.8643 25.8871 97.7541 25.9098C97.4531 25.9661 97.3679 26.1518 97.3452 26.5401C97.3225 26.9284 97.3452 27.2042 97.3452 28.8813V30.8286C97.3452 31.9035 97.3452 32.7759 97.3906 33.2542C97.3906 33.5525 97.4985 33.7495 97.8336 33.817C98.0219 33.8432 98.2115 33.8583 98.4016 33.8621C98.5265 33.8621 98.5833 33.8958 98.5833 33.9465C98.5833 33.9971 98.4924 34.059 98.3732 34.059C97.6348 34.059 96.9306 34.0253 96.6296 34.0253C96.3285 34.0253 95.6697 34.059 95.221 34.059C95.0791 34.059 94.9995 34.0253 94.9995 33.9465C94.9995 33.8677 95.045 33.8621 95.1813 33.8621C95.3151 33.8613 95.4484 33.8462 95.5789 33.817C95.806 33.772 95.8685 33.5863 95.9026 33.2542C95.9594 32.7928 95.9594 31.9204 95.9594 30.8455V28.8813H95.9139Z" fill="#23569C"/>
<path d="M103.013 26.2981L101.349 26.3375C100.702 26.3375 100.435 26.4163 100.264 26.6583C100.182 26.7771 100.118 26.9082 100.077 27.0466C100.078 27.0638 100.076 27.0811 100.071 27.0974C100.065 27.1138 100.056 27.1288 100.045 27.1415C100.033 27.1542 100.018 27.1644 100.002 27.1713C99.9865 27.1782 99.9693 27.1817 99.9519 27.1817C99.8837 27.1817 99.8553 27.1254 99.8553 27.0016C99.8553 26.8778 100.065 25.8197 100.088 25.7297C100.111 25.6396 100.156 25.5214 100.225 25.5214C100.378 25.5836 100.538 25.6289 100.702 25.6565C101.025 25.6565 101.451 25.7071 101.837 25.7071H106.256C106.513 25.7071 106.769 25.6902 107.023 25.6565C107.122 25.6318 107.223 25.613 107.324 25.6002C107.403 25.6002 107.415 25.6678 107.415 25.831C107.415 25.9942 107.381 26.8271 107.381 27.1141C107.381 27.2211 107.347 27.2886 107.278 27.2886C107.21 27.2886 107.171 27.2379 107.159 27.0691V26.9509C107.159 26.6583 106.835 26.3487 105.842 26.3262H104.433V30.8286C104.433 31.8472 104.433 32.7196 104.49 33.1979C104.524 33.5075 104.592 33.7607 104.927 33.7945C105.115 33.8207 105.305 33.8357 105.495 33.8395C105.62 33.8395 105.677 33.8395 105.677 33.9239C105.677 34.0084 105.586 34.0365 105.461 34.0365C104.728 34.0365 104.024 34.0027 103.712 34.0027C103.399 34.0027 102.752 34.0365 102.303 34.0365C102.161 34.0365 102.082 34.0027 102.082 33.9239C102.082 33.8452 102.127 33.8395 102.258 33.8395C102.393 33.8388 102.529 33.8237 102.661 33.7945C102.883 33.7495 102.951 33.5075 102.985 33.1867C103.042 32.7196 103.042 31.8472 103.042 30.8286V26.3262L103.013 26.2981Z" fill="#23569C"/>
<path d="M111.322 31.1944C111.34 30.7925 111.252 30.3929 111.067 30.0351C110.987 29.855 109.493 27.4237 109.102 26.8496C108.904 26.5307 108.643 26.2549 108.335 26.0392C108.189 25.9621 108.028 25.9143 107.863 25.8985C107.773 25.8985 107.699 25.8985 107.699 25.7972C107.699 25.6959 107.773 25.6959 107.909 25.6959C108.045 25.6959 108.948 25.7297 109.317 25.7297C109.55 25.7297 110.005 25.6959 110.51 25.6959C110.618 25.6959 110.675 25.7297 110.675 25.7972C110.675 25.8648 110.601 25.876 110.431 25.921C110.386 25.9304 110.345 25.9553 110.317 25.9915C110.289 26.0276 110.275 26.0725 110.277 26.118C110.295 26.2511 110.339 26.3793 110.408 26.4951C110.567 26.8271 112.112 29.4892 112.305 29.7987C112.418 29.5342 113.821 27.1029 113.98 26.7596C114.071 26.5848 114.123 26.393 114.134 26.1968C114.138 26.1299 114.117 26.0638 114.073 26.0123C114.03 25.9609 113.968 25.9282 113.901 25.921C113.799 25.921 113.702 25.876 113.702 25.8085C113.702 25.7409 113.759 25.7072 113.889 25.7072C114.259 25.7072 114.616 25.7409 114.94 25.7409C115.264 25.7409 115.923 25.7072 116.133 25.7072C116.258 25.7072 116.337 25.7072 116.337 25.7972C116.337 25.8873 116.246 25.9098 116.121 25.9098C115.952 25.9216 115.786 25.9655 115.633 26.0392C115.389 26.1749 115.182 26.3682 115.031 26.602C114.252 27.7332 113.539 28.9076 112.895 30.1195C112.759 30.4785 112.703 30.8625 112.731 31.2451V32.1512C112.731 32.3256 112.731 32.7928 112.765 33.2768C112.765 33.5976 112.884 33.8396 113.219 33.8846C113.408 33.9089 113.597 33.9221 113.787 33.924C113.906 33.924 113.963 33.9577 113.963 34.014C113.963 34.0703 113.872 34.1266 113.73 34.1266C113.026 34.1266 112.322 34.0928 112.027 34.0928C111.731 34.0928 111.044 34.1266 110.629 34.1266C110.476 34.1266 110.385 34.1266 110.385 34.014C110.385 33.9015 110.442 33.924 110.567 33.924C110.697 33.9251 110.826 33.9119 110.953 33.8846C111.18 33.8396 111.282 33.5976 111.3 33.2768C111.334 32.8096 111.334 32.3425 111.334 32.1512V31.1944H111.322Z" fill="#23569C"/>
<path d="M120.819 29.8549C120.819 27.964 122.079 25.5214 125.43 25.5214C128.208 25.5214 129.94 27.1254 129.94 29.658C129.961 30.2326 129.868 30.8058 129.666 31.3447C129.464 31.8837 129.156 32.3779 128.761 32.7991C128.366 33.2203 127.891 33.5603 127.364 33.7997C126.836 34.039 126.266 34.173 125.686 34.1941C125.567 34.1941 125.442 34.1941 125.317 34.1941C124.195 34.2588 123.092 33.8808 122.25 33.1426C121.409 32.4044 120.896 31.3661 120.824 30.2545C120.819 30.1026 120.813 29.9788 120.819 29.8549ZM128.378 30.0688C128.378 27.5869 126.935 26.0505 125.107 26.0505C123.823 26.0505 122.363 26.7596 122.363 29.5116C122.363 31.8135 123.647 33.6369 125.771 33.6369C126.549 33.6369 128.361 33.2599 128.361 30.0688H128.378Z" fill="#23569C"/>
<path d="M134.25 30.8286C134.25 31.8923 134.25 32.7196 134.302 33.1867C134.336 33.5075 134.404 33.7495 134.739 33.7945C134.927 33.8207 135.117 33.8357 135.307 33.8395C135.455 33.8395 135.5 33.8395 135.5 33.924C135.5 34.0084 135.42 34.0365 135.25 34.0365C134.551 34.0365 133.847 34.0027 133.546 34.0027C133.245 34.0027 132.552 34.0365 132.126 34.0365C131.973 34.0365 131.893 34.0365 131.893 33.924C131.893 33.8114 131.939 33.8395 132.064 33.8395C132.198 33.8388 132.331 33.8237 132.461 33.7945C132.689 33.7495 132.74 33.5075 132.785 33.1867C132.842 32.7196 132.842 31.8923 132.842 30.8286V26.5401C132.842 26.1855 132.728 25.9773 132.365 25.9098C132.22 25.8871 132.074 25.8758 131.928 25.876C131.814 25.876 131.74 25.876 131.74 25.7859C131.74 25.6959 131.825 25.6734 131.996 25.6734C132.564 25.6734 133.279 25.7072 133.603 25.7072H136.545C136.699 25.708 136.853 25.6948 137.005 25.6678C137.073 25.6678 137.13 25.6002 137.187 25.6002C137.244 25.6002 137.261 25.6452 137.261 25.6959C137.261 25.7465 137.204 25.9098 137.17 26.1968C137.17 26.3093 137.141 26.9566 137.119 27.0916C137.096 27.2267 137.085 27.2492 137.005 27.2492C136.925 27.2492 136.903 27.1929 136.891 27.0691C136.896 26.9258 136.875 26.7829 136.829 26.647C136.746 26.5328 136.634 26.4422 136.504 26.3839C136.375 26.3257 136.232 26.3019 136.091 26.315L134.387 26.2812C134.319 26.2812 134.29 26.315 134.29 26.4388V29.2021C134.29 29.2696 134.29 29.3034 134.364 29.3034H136.295C136.385 29.309 136.476 29.2942 136.559 29.2601C136.643 29.2259 136.718 29.1734 136.778 29.1064C136.835 29.0389 136.857 28.9939 136.92 28.9939C136.982 28.9939 136.988 29.0276 136.988 29.0952C136.988 29.1627 136.931 29.4385 136.897 29.7762C136.897 30.0013 136.852 30.5078 136.852 30.5866C136.852 30.6654 136.852 30.7948 136.744 30.7948C136.636 30.7948 136.653 30.716 136.653 30.6429C136.647 30.5257 136.624 30.4101 136.585 30.2996C136.538 30.1866 136.459 30.0892 136.359 30.0185C136.258 29.9478 136.14 29.9067 136.017 29.9C135.738 29.8662 134.557 29.8662 134.364 29.8662C134.313 29.8662 134.29 29.8662 134.29 29.9675V30.8286H134.25Z" fill="#23569C"/>
<path d="M144.894 32.5339C144.894 33.3949 145.064 33.6594 145.285 33.7607C145.469 33.818 145.661 33.8446 145.853 33.8395C145.978 33.8395 146.041 33.8395 146.041 33.924C146.041 34.0084 145.944 34.0365 145.785 34.0365C145.064 34.0365 144.615 34.0027 144.405 34.0027C144.303 34.0027 143.775 34.0365 143.195 34.0365C143.053 34.0365 142.951 34.0365 142.951 33.924C142.951 33.8114 143.019 33.8395 143.133 33.8395C143.301 33.8434 143.469 33.8245 143.633 33.7833C143.922 33.6932 143.968 33.3724 143.979 32.41L144.081 25.8647C144.081 25.6453 144.081 25.4877 144.223 25.4877C144.365 25.4877 144.445 25.634 144.638 25.831C144.831 26.028 146.467 27.7782 148.097 29.3822C148.858 30.1307 150.369 31.7234 150.55 31.9035H150.607L150.499 26.9341C150.499 26.2643 150.386 26.0505 150.119 25.9435C149.934 25.8927 149.742 25.8699 149.551 25.876C149.414 25.876 149.369 25.8422 149.369 25.7747C149.369 25.7072 149.494 25.6734 149.659 25.6734C150.227 25.6734 150.795 25.7072 151.01 25.7072C151.13 25.7072 151.578 25.6734 152.101 25.6734C152.248 25.6734 152.362 25.6734 152.362 25.7747C152.362 25.876 152.294 25.876 152.158 25.876C152.045 25.8702 151.932 25.8816 151.823 25.9098C151.51 25.9942 151.425 26.2306 151.414 26.8496L151.289 33.8283C151.289 34.0703 151.243 34.1716 151.141 34.1716C151.039 34.1716 150.885 34.0478 150.766 33.924C150.062 33.2599 148.631 31.8135 147.472 30.6766C146.313 29.5398 145.019 28.099 144.814 27.8627H144.78L144.905 32.5113L144.894 32.5339Z" fill="#23569C"/>
<path d="M155.406 28.8813V26.5401C155.406 26.1855 155.293 25.9773 154.924 25.9098C154.781 25.8873 154.637 25.8761 154.492 25.876C154.367 25.876 154.299 25.876 154.299 25.7747C154.299 25.6734 154.378 25.679 154.549 25.679C155.117 25.679 155.844 25.7128 156.15 25.7128H158.945C159.105 25.7013 159.265 25.6788 159.422 25.6452C159.481 25.6243 159.542 25.6092 159.604 25.6002C159.66 25.6002 159.672 25.6452 159.672 25.7015C159.627 25.9378 159.597 26.1764 159.581 26.4163C159.581 26.5288 159.547 27.0185 159.524 27.1479C159.501 27.2773 159.49 27.2717 159.41 27.2717C159.331 27.2717 159.314 27.2154 159.314 27.1141C159.314 26.9781 159.291 26.843 159.246 26.7146C159.166 26.5176 159.053 26.3825 158.496 26.3206C158.309 26.3206 157.139 26.2756 156.912 26.2756C156.855 26.2756 156.832 26.3093 156.832 26.3825V29.1965C156.832 29.2753 156.832 29.3203 156.912 29.3203H158.701C158.893 29.3322 159.082 29.2742 159.234 29.1571C159.314 29.067 159.354 29.0108 159.41 29.0108C159.467 29.0108 159.49 29.0108 159.49 29.1008C159.445 29.3673 159.415 29.6359 159.399 29.9056C159.399 30.1307 159.354 30.5697 159.354 30.6485C159.354 30.7273 159.354 30.8567 159.257 30.8567C159.161 30.8567 159.155 30.8117 159.155 30.7611C159.149 30.627 159.133 30.4935 159.109 30.3615C159.053 30.1363 158.899 29.9731 158.485 29.9281C158.275 29.9281 157.167 29.8943 156.9 29.8943C156.843 29.8943 156.832 29.9394 156.832 30.0069V32.5451C156.832 33.3049 157.036 33.4737 158.172 33.4737C158.528 33.4966 158.885 33.4508 159.223 33.3387C159.513 33.2092 159.649 32.9728 159.723 32.5226C159.723 32.3988 159.768 32.3538 159.848 32.3538C159.927 32.3538 159.939 32.4438 159.939 32.5564C159.921 32.9684 159.871 33.3786 159.791 33.7833C159.711 34.0703 159.615 34.0703 159.189 34.0703C157.485 34.0703 156.758 34.0027 156.099 34.0027C155.844 34.0027 155.14 34.0365 154.691 34.0365C154.549 34.0365 154.469 34.0028 154.469 33.924C154.469 33.8452 154.515 33.8395 154.645 33.8395C154.781 33.8388 154.916 33.8237 155.049 33.7945C155.27 33.7495 155.327 33.5075 155.372 33.1867C155.429 32.7196 155.429 31.8472 155.429 30.8286V28.8813H155.406Z" fill="#23569C"/>
<path d="M162.034 26.7596C161.973 26.4637 161.83 26.1907 161.62 25.9717C161.481 25.9089 161.33 25.8763 161.177 25.876C161.063 25.876 160.995 25.876 160.995 25.7747C160.995 25.6734 161.086 25.6734 161.239 25.6734C161.807 25.6734 162.438 25.7072 162.534 25.7072C162.631 25.7072 163.102 25.6734 163.772 25.6734C163.931 25.6734 164.011 25.7072 164.011 25.7747C164.011 25.8648 163.92 25.876 163.806 25.876C163.711 25.8676 163.616 25.8831 163.528 25.921C163.432 25.9604 163.409 26.0392 163.409 26.163C163.465 26.5081 163.546 26.8486 163.653 27.1817C163.841 27.9077 164.88 31.2619 165.079 31.881H165.113L167.282 26.1293C167.402 25.8197 167.47 25.7297 167.561 25.7297C167.651 25.7297 167.737 25.8985 167.884 26.2531L170.202 31.8135H170.236C170.44 31.0706 171.332 28.1497 171.724 26.8609C171.788 26.6527 171.824 26.437 171.832 26.2193C171.832 26.0392 171.729 25.8873 171.298 25.8873C171.184 25.8873 171.105 25.8535 171.105 25.786C171.105 25.7184 171.195 25.6847 171.366 25.6847C171.934 25.6847 172.422 25.7184 172.502 25.7184C172.581 25.7184 173.07 25.6847 173.428 25.6847C173.552 25.6847 173.626 25.6847 173.626 25.7747C173.626 25.8648 173.57 25.8873 173.473 25.8873C173.34 25.8862 173.208 25.9052 173.081 25.9435C172.814 26.0392 172.689 26.5063 172.456 27.1142C171.945 28.5043 170.752 32.0217 170.224 33.682C170.099 34.0703 170.048 34.1997 169.901 34.1997C169.753 34.1997 169.724 34.0703 169.554 33.6369L167.237 28.099C167.021 28.6618 165.533 32.6014 165.062 33.5919C164.846 34.0478 164.789 34.1547 164.658 34.1547C164.528 34.1547 164.488 34.0365 164.403 33.7495L162.034 26.7596Z" fill="#23569C"/>
<path d="M180.879 31.1944C180.894 30.7928 180.806 30.3939 180.624 30.0351C180.544 29.855 179.05 27.4237 178.658 26.8496C178.461 26.5291 178.198 26.2531 177.886 26.0392C177.742 25.9614 177.584 25.9135 177.42 25.8985C177.329 25.8985 177.25 25.8985 177.25 25.7972C177.25 25.6959 177.329 25.6959 177.466 25.6959C177.602 25.6959 178.505 25.7297 178.869 25.7297C179.107 25.7297 179.561 25.6959 180.067 25.6959C180.175 25.6959 180.232 25.7297 180.232 25.7972C180.232 25.8648 180.152 25.876 179.987 25.921C179.942 25.9302 179.901 25.955 179.872 25.991C179.843 26.027 179.827 26.0719 179.828 26.118C179.848 26.2514 179.894 26.3796 179.965 26.4951C180.118 26.8271 181.669 29.4892 181.862 29.7987C181.975 29.5342 183.378 27.1029 183.537 26.7596C183.625 26.5838 183.677 26.3926 183.69 26.1968C183.694 26.1302 183.672 26.0648 183.629 26.0137C183.585 25.9626 183.524 25.9295 183.458 25.921C183.355 25.921 183.253 25.876 183.253 25.8085C183.253 25.7409 183.31 25.7072 183.446 25.7072C183.815 25.7072 184.173 25.7409 184.497 25.7409C184.821 25.7409 185.479 25.7072 185.69 25.7072C185.809 25.7072 185.888 25.7072 185.888 25.7972C185.888 25.8873 185.803 25.9098 185.678 25.9098C185.507 25.9215 185.339 25.9655 185.184 26.0392C184.942 26.1779 184.736 26.3706 184.582 26.602C183.815 27.7167 183.113 28.8742 182.481 30.0688C182.344 30.4278 182.288 30.8118 182.316 31.1944V33.2205C182.316 33.5413 182.441 33.7833 182.776 33.8283C182.964 33.8526 183.154 33.8658 183.344 33.8677C183.469 33.8677 183.526 33.9015 183.526 33.9577C183.526 34.014 183.435 34.0703 183.287 34.0703C182.583 34.0703 181.884 34.0365 181.583 34.0365C181.282 34.0365 180.601 34.0703 180.186 34.0703C180.033 34.0703 179.942 34.0703 179.942 33.9577C179.942 33.8452 179.999 33.8677 180.118 33.8677C180.25 33.8685 180.381 33.8553 180.51 33.8283C180.737 33.7833 180.834 33.5413 180.856 33.2205C180.89 32.7534 180.89 32.2862 180.89 32.0949L180.879 31.1944Z" fill="#23569C"/>
<path d="M186.235 29.8549C186.235 27.964 187.495 25.5214 190.846 25.5214C193.624 25.5214 195.35 27.1254 195.35 29.658C195.372 30.2319 195.28 30.8044 195.079 31.343C194.877 31.8816 194.571 32.3756 194.177 32.7968C193.783 33.218 193.309 33.5582 192.783 33.798C192.256 34.0377 191.687 34.1723 191.108 34.1941C190.983 34.1941 190.858 34.1941 190.733 34.1941C189.611 34.2588 188.508 33.8808 187.666 33.1426C186.825 32.4044 186.312 31.3661 186.24 30.2545C186.24 30.1251 186.24 30.0013 186.24 29.8775L186.235 29.8549ZM193.788 30.0688C193.788 27.5869 192.351 26.0505 190.523 26.0505C189.239 26.0505 187.774 26.7596 187.774 29.5116C187.774 31.8135 189.057 33.6369 191.181 33.6369C191.965 33.6369 193.771 33.2599 193.771 30.0688H193.788Z" fill="#23569C"/>
<path d="M198.258 28.8813V26.5401C198.258 26.1855 198.145 25.9773 197.776 25.9098C197.633 25.8874 197.488 25.8761 197.344 25.876C197.219 25.876 197.151 25.876 197.151 25.7747C197.151 25.6734 197.23 25.679 197.401 25.679C197.969 25.679 198.69 25.7128 198.928 25.7128C199.309 25.7128 200.155 25.679 200.502 25.679C201.218 25.6276 201.932 25.7924 202.552 26.1518C202.785 26.3329 202.972 26.5647 203.1 26.8291C203.228 27.0936 203.293 27.3837 203.29 27.6769C203.29 28.4986 202.944 29.2471 201.819 30.1532C202.808 31.397 203.58 32.4044 204.239 33.0629C204.56 33.4439 204.999 33.7091 205.488 33.817C205.591 33.8394 205.696 33.8507 205.801 33.8508C205.891 33.8508 205.937 33.8846 205.937 33.9352C205.937 33.9859 205.857 34.0478 205.721 34.0478H204.665C204.263 34.0825 203.859 34.0106 203.495 33.8395C202.871 33.3901 202.35 32.8146 201.967 32.1512C201.524 31.5433 201.007 30.7892 200.865 30.626C200.84 30.598 200.808 30.5762 200.772 30.5626C200.737 30.5489 200.699 30.5436 200.661 30.5472H199.689C199.638 30.5472 199.604 30.5472 199.604 30.6372V30.7892C199.604 31.8191 199.604 32.6914 199.661 33.1586C199.689 33.4793 199.758 33.7214 200.093 33.7664C200.281 33.7926 200.471 33.8076 200.661 33.8114C200.752 33.8114 200.797 33.8452 200.797 33.8958C200.797 33.9465 200.717 34.0084 200.575 34.0084C199.928 34.0084 199.099 33.9746 198.934 33.9746C198.769 33.9746 198.02 34.0084 197.571 34.0084C197.429 34.0084 197.35 33.9746 197.35 33.8958C197.35 33.817 197.395 33.8114 197.526 33.8114C197.661 33.8106 197.796 33.7955 197.929 33.7664C198.15 33.7214 198.207 33.4793 198.253 33.1586C198.309 32.6914 198.309 31.8191 198.309 30.8005V28.8813H198.258ZM199.576 29.7593C199.576 29.8775 199.576 29.9225 199.672 29.9563C199.949 30.0358 200.236 30.0737 200.524 30.0688C200.803 30.1088 201.086 30.0402 201.314 29.8775C201.546 29.6751 201.727 29.4213 201.841 29.1367C201.955 28.8522 202.001 28.5448 201.973 28.2397C201.973 26.6639 200.928 26.2137 200.269 26.2137C200.069 26.2035 199.868 26.2186 199.672 26.2587C199.599 26.2587 199.576 26.3262 199.576 26.4107V29.7874V29.7593Z" fill="#23569C"/>
<path d="M208.606 29.3653H208.663C209.044 28.9545 210.668 27.3055 210.992 26.9284C211.316 26.5514 211.56 26.2925 211.56 26.1011C211.567 26.0514 211.554 26.0009 211.524 25.9601C211.495 25.9193 211.451 25.8912 211.401 25.8816C211.299 25.8816 211.259 25.8366 211.259 25.7691C211.259 25.7016 211.31 25.6678 211.435 25.6678C211.668 25.6678 212.281 25.7016 212.571 25.7016C212.86 25.7016 213.525 25.6678 213.871 25.6678C213.985 25.6678 214.064 25.6678 214.064 25.7691C214.064 25.8704 214.008 25.8704 213.894 25.8704C213.674 25.8814 213.456 25.9211 213.247 25.9886C212.792 26.182 212.382 26.4655 212.043 26.8215C211.696 27.1536 210.015 28.8082 209.634 29.2078C210.032 29.7312 212.224 32.0611 212.656 32.472C213.117 32.9714 213.67 33.3784 214.286 33.6707C214.503 33.7715 214.739 33.8289 214.979 33.8396C215.058 33.8396 215.127 33.8396 215.127 33.924C215.127 34.0084 215.07 34.0365 214.854 34.0365H213.883C213.625 34.0365 213.37 34.0365 213.116 34.0365C212.571 33.9749 212.069 33.714 211.707 33.3049C211.219 32.8772 209.021 30.3221 208.783 30.0013L208.663 29.8325H208.606V30.8286C208.606 31.8473 208.606 32.7196 208.641 33.198C208.641 33.5075 208.76 33.7608 209.044 33.7945C209.232 33.8207 209.422 33.8357 209.612 33.8396C209.703 33.8396 209.754 33.8396 209.754 33.924C209.754 34.0084 209.669 34.0365 209.544 34.0365C208.919 34.0365 208.215 34.0028 207.936 34.0028C207.658 34.0028 206.976 34.0365 206.533 34.0365C206.386 34.0365 206.306 34.0028 206.306 33.924C206.306 33.8452 206.352 33.8396 206.488 33.8396C206.622 33.8388 206.755 33.8237 206.886 33.7945C207.113 33.7495 207.164 33.5075 207.209 33.1867C207.266 32.7196 207.266 31.8473 207.266 30.8286V26.5401C207.266 26.1856 207.158 25.9773 206.789 25.9098C206.644 25.8871 206.498 25.8759 206.352 25.876C206.227 25.876 206.164 25.876 206.164 25.7747C206.164 25.6734 206.238 25.6734 206.409 25.6734C206.976 25.6734 207.703 25.7072 207.97 25.7072C208.237 25.7072 208.942 25.6734 209.322 25.6734C209.475 25.6734 209.555 25.6734 209.555 25.7747C209.555 25.876 209.487 25.876 209.396 25.876C209.291 25.8761 209.186 25.8874 209.084 25.9098C208.788 25.9661 208.697 26.1518 208.675 26.5401C208.652 26.9284 208.675 27.2042 208.675 28.8813V29.3653H208.606Z" fill="#23569C"/>
<path d="M10.5396 14.5076H0.0609131V16.2522H10.5396" fill="#23569C"/>
<path d="M10.3066 14.5076H20.7853V16.2522H10.3066" fill="#23569C"/>
</svg>
