<svg width="119" height="743" viewBox="0 0 119 743" fill="none" xmlns="http://www.w3.org/2000/svg">
<path d="M55.8833 81.6842C61.4109 85.1491 67.7317 87.1451 74.2467 87.483C91.9491 88.8419 98.7314 84.7529 101.31 81.8801C101.76 81.3866 101.939 80.7046 101.791 80.0539C101.643 79.4032 101.186 78.866 100.568 78.6155C94.0916 75.472 87.9985 71.5943 82.4083 67.0587C81.0331 66.0222 78.8458 64.2756 76.9441 62.7617C76.39 62.3218 76.1032 61.6263 76.1864 60.9237C76.2695 60.2212 76.7107 59.6118 77.3522 59.3134C91.0228 52.9882 99.8372 40.4317 102.404 23.0354C102.508 22.3332 102.239 21.6275 101.695 21.1721C101.15 20.7167 100.408 20.577 99.7352 20.8032C92.6959 23.1619 75.8464 29.2627 74.2345 34.0902C72.7205 38.6362 68.954 47.5567 67.1136 51.8742C66.8654 52.4521 66.3645 52.8833 65.7561 53.0428C65.1477 53.2023 64.4997 53.0722 63.9999 52.6903C58.7086 48.0103 52.4494 44.5561 45.6691 42.5741C42.1719 41.675 38.4555 42.482 35.646 44.7505C32.8366 47.0189 31.2647 50.4819 31.4068 54.0901C31.379 54.543 31.201 54.9738 30.9008 55.3143C29.5797 56.7188 28.8416 58.5728 28.836 60.5009C28.8332 61.1373 29.1274 61.7385 29.6317 62.1267C30.1359 62.5149 30.7924 62.6456 31.4068 62.4801L37.528 60.9498" stroke="black" stroke-width="3" stroke-linecap="round" stroke-linejoin="round"/>
<path d="M43.6611 65.0389L53.8631 67.0793L43.6611 89.5235L8.97461 81.3619L19.1765 58.9177L29.0724 61.3907" stroke="black" stroke-width="3" stroke-linecap="round" stroke-linejoin="round"/>
<path d="M19.1768 58.9177L29.3787 75.2408L53.8633 67.0793" stroke="black" stroke-width="3" stroke-linecap="round" stroke-linejoin="round"/>
<path d="M42.6569 50.7562C43.2204 50.7562 43.6771 51.213 43.6771 51.7764C43.6771 52.3399 43.2204 52.7966 42.6569 52.7966C42.0935 52.7966 41.6367 52.3399 41.6367 51.7764C41.6356 51.5055 41.7428 51.2454 41.9343 51.0538C42.1259 50.8623 42.386 50.7551 42.6569 50.7562" stroke="black" stroke-width="3" stroke-linecap="round" stroke-linejoin="round"/>
<path d="M57.9437 48.3932C57.9437 48.3932 55.9033 32.0701 55.9033 23.9086C55.9033 19.3055 63.9792 10.0911 67.9865 5.79813C68.4739 5.27691 69.1982 5.04823 69.8966 5.19508C70.595 5.34192 71.1658 5.84296 71.4021 6.51635C73.315 12.1145 74.2804 17.9926 74.2586 23.9086" stroke="black" stroke-width="3" stroke-linecap="round" stroke-linejoin="round"/>
<path d="M77.3809 87.752L82.4288 95.3218" stroke="black" stroke-width="3" stroke-linecap="round" stroke-linejoin="round"/>
<path d="M89.2393 87.1726L94.6708 95.3219" stroke="black" stroke-width="3" stroke-linecap="round" stroke-linejoin="round"/>
<g style="mix-blend-mode:multiply">
<path d="M12.8222 82.4947L20.9728 64.1559C21.1642 63.7252 21.6304 63.4866 22.0918 63.5834L54.8223 70.4462C55.4465 70.5771 55.7903 71.2511 55.5299 71.8333L46.8532 91.2283C46.6558 91.6696 46.171 91.9064 45.7016 91.791L13.4972 83.8719C12.8924 83.7232 12.5693 83.0638 12.8222 82.4947Z" fill="#90CCCC"/>
</g>
<path fill-rule="evenodd" clip-rule="evenodd" d="M54.7193 388.236C56.5865 386.368 56.5865 383.341 54.7193 381.473L49.642 376.4C47.7742 374.533 44.7465 374.533 42.8787 376.4L40.0974 379.184C37.6883 381.593 37.3102 385.366 39.1934 388.205C47.3828 400.536 57.953 411.106 70.2835 419.295C73.1256 421.175 76.8975 420.796 79.3091 418.389L82.0929 415.61C83.9601 413.742 83.9601 410.714 82.0929 408.847L77.0204 403.769C76.1234 402.872 74.9065 402.368 73.6376 402.368C72.3687 402.368 71.1518 402.872 70.2548 403.769L68.5639 405.46C62.8916 400.793 57.6855 395.587 53.0189 389.915L54.7193 388.236Z" stroke="black" stroke-width="3" stroke-linecap="round" stroke-linejoin="round"/>
<g style="mix-blend-mode:multiply">
<path fill-rule="evenodd" clip-rule="evenodd" d="M56.7193 391.236C58.5865 389.368 58.5865 386.341 56.7193 384.473L51.642 379.4C49.7742 377.533 46.7465 377.533 44.8787 379.4L42.0974 382.184C39.6883 384.593 39.3102 388.366 41.1934 391.205C49.3828 403.536 59.953 414.106 72.2835 422.295C75.1256 424.175 78.8975 423.796 81.3091 421.389L84.0929 418.61C85.9601 416.742 85.9601 413.714 84.0929 411.847L79.0204 406.769C78.1234 405.872 76.9065 405.368 75.6376 405.368C74.3687 405.368 73.1518 405.872 72.2548 406.769L70.5639 408.46C64.8916 403.793 59.6855 398.587 55.0189 392.915L56.7193 391.236Z" fill="#FF9292"/>
</g>
<path d="M112 703H57C55.8954 703 55 703.895 55 705V741C55 742.105 55.8954 743 57 743H112C113.105 743 114 742.105 114 741V705C114 703.895 113.105 703 112 703Z" fill="#1991FF"/>
<path d="M108.428 699.491L80.4682 722.344L52.5088 699.491" stroke="black" stroke-width="3" stroke-linecap="round" stroke-linejoin="round"/>
<path d="M107.938 698H53C51.8954 698 51 698.895 51 700V737C51 738.105 51.8954 739 53 739H107.938C109.042 739 109.938 738.105 109.938 737V700C109.938 698.895 109.042 698 107.938 698Z" stroke="black" stroke-width="3" stroke-linecap="round" stroke-linejoin="round"/>
<path d="M42 143L19.5373 191.134C7.15349 217.671 7.15349 248.329 19.5373 274.866L42 323" stroke="black" stroke-opacity="0.2" stroke-width="2" stroke-dasharray="8 5"/>
<path d="M46.3022 314.668L42.6343 324.302L33 320.634" stroke="#CFCFCF" stroke-width="2"/>
<path d="M77 487.031L99.4627 535.166C111.847 561.702 111.847 592.36 99.4627 618.897L77 667.031" stroke="black" stroke-opacity="0.2" stroke-width="2" stroke-dasharray="8 5"/>
<path d="M86.6573 664.977L76.7116 667.689L73.9996 657.743" stroke="#CFCFCF" stroke-width="2"/>
</svg>
