<svg width="141" height="47" viewBox="0 0 141 47" fill="none" xmlns="http://www.w3.org/2000/svg">
<path d="M0.675215 25.0597L22.1737 46.5581V0.410645L0.675215 21.9091C-0.194798 22.7791 -0.194799 24.1897 0.675215 25.0597Z" fill="#00C2FF"/>
<path d="M11.5021 22.5156L22.1736 0.4104V46.5578L11.5021 24.4527C11.2067 23.8407 11.2067 23.1275 11.5021 22.5156Z" fill="#3C92F4"/>
<path d="M35.3814 23.4873L47.2259 44.1759C47.8331 45.2368 47.0672 46.5577 45.8449 46.5577H22.1738L35.3814 23.4873Z" fill="#3CDDD3"/>
<path d="M35.3815 23.4842L47.2259 2.79222C47.8331 1.73137 47.0672 0.4104 45.8449 0.4104H22.1738L35.3815 23.4842Z" fill="#FBD54D"/>
<path d="M35.383 23.4841L22.174 0.4104V46.5578L35.383 23.4841Z" fill="#0C4779"/>
<path d="M72.7176 13.352L72.0269 11.4019C71.2821 11.8623 70.3612 12.1332 69.5486 12.1332C67.6933 12.1332 66.5422 10.9956 66.5422 9.15384C66.5422 7.31204 67.6933 6.17448 69.5486 6.17448C70.3612 6.17448 71.1873 6.43178 71.9186 6.83805L72.6228 4.88795C71.729 4.3598 70.6727 4.02124 69.5216 4.02124C66.2849 4.02124 64.0911 6.20156 64.0911 9.15384C64.0911 12.0925 66.2849 14.2729 69.5216 14.2729C70.6591 14.2729 71.8508 13.9208 72.7176 13.352Z" fill="black"/>
<path d="M84.193 9.15384C84.193 6.22865 82.2158 4.02124 79.1551 4.02124C76.081 4.02124 74.0226 6.22865 74.0226 9.15384C74.0226 12.0654 75.9862 14.2729 79.0604 14.2729C82.121 14.2729 84.193 12.0654 84.193 9.15384ZM81.7283 9.15384C81.7283 10.9279 80.672 12.228 79.101 12.228C77.5301 12.228 76.4738 10.9279 76.4738 9.15384C76.4738 7.36621 77.5301 6.07968 79.101 6.07968C80.672 6.07968 81.7283 7.36621 81.7283 9.15384Z" fill="black"/>
<path d="M94.834 4.18359H92.2474L89.9858 9.54641L87.7243 4.18359H85.0835L89.8233 14.1914H90.0942L94.834 4.18359Z" fill="black"/>
<path d="M98.6969 14.1102V4.18359H96.3947V14.1102H98.6969Z" fill="black"/>
<path d="M110.449 9.05897C110.449 6.25566 108.526 4.11597 104.409 4.11597C103.421 4.11597 102.622 4.15659 101.471 4.27848V14.029C102.689 14.1374 103.339 14.1915 104.504 14.1915C108.621 14.1915 110.449 11.9841 110.449 9.05897ZM107.998 9.05897C107.998 10.9143 107.037 12.1331 104.87 12.1331C104.369 12.1331 104.193 12.1195 103.773 12.0789V6.22858C104.125 6.18795 104.328 6.17441 104.721 6.17441C106.86 6.17441 107.998 7.2578 107.998 9.05897Z" fill="black"/>
<path d="M72.2978 28.4493L69.9685 24.6169C71.0384 23.9804 71.6749 22.9241 71.6749 21.7459C71.6749 19.9312 70.4561 18.4551 67.3684 18.4551C66.2037 18.4551 65.2829 18.5228 64.4432 18.6176V28.4493H66.7454V25.1992C67.0705 25.2127 67.2601 25.2263 67.5986 25.2263C67.734 25.2263 67.8559 25.2263 67.9913 25.2127L69.6841 28.4493H72.2978ZM69.2779 21.8271C69.2779 22.8293 68.5737 23.3574 67.4767 23.3574C67.2059 23.3574 67.0434 23.3439 66.7454 23.3168V20.5812C67.0705 20.5271 67.2871 20.5135 67.6392 20.5135C68.6278 20.5135 69.2779 21.001 69.2779 21.8271Z" fill="black"/>
<path d="M80.3405 28.4493V26.3502H76.3591V24.4136H79.9884V22.4094H76.3591V20.6353H80.3405V18.5227H74.0569V28.4493H80.3405Z" fill="black"/>
<path d="M90.9402 27.6908L90.2495 25.7407C89.5047 26.2011 88.5838 26.472 87.7713 26.472C85.916 26.472 84.7649 25.3344 84.7649 23.4927C84.7649 21.6509 85.916 20.5133 87.7713 20.5133C88.5838 20.5133 89.4099 20.7707 90.1412 21.1769L90.8454 19.2268C89.9516 18.6987 88.8953 18.3601 87.7442 18.3601C84.5076 18.3601 82.3137 20.5404 82.3137 23.4927C82.3137 26.4314 84.5076 28.6117 87.7442 28.6117C88.8818 28.6117 90.0735 28.2596 90.9402 27.6908Z" fill="black"/>
<path d="M102.416 23.4927C102.416 20.5675 100.439 18.3601 97.3784 18.3601C94.3043 18.3601 92.2458 20.5675 92.2458 23.4927C92.2458 26.4043 94.2095 28.6117 97.2836 28.6117C100.344 28.6117 102.416 26.4043 102.416 23.4927ZM99.9515 23.4927C99.9515 25.2667 98.8952 26.5668 97.3242 26.5668C95.7533 26.5668 94.697 25.2667 94.697 23.4927C94.697 21.7051 95.7533 20.4185 97.3242 20.4185C98.8952 20.4185 99.9515 21.7051 99.9515 23.4927Z" fill="black"/>
<path d="M113.057 18.5227H110.471L108.209 23.8855L105.948 18.5227H103.307L108.047 28.5305H108.317L113.057 18.5227Z" fill="black"/>
<path d="M120.833 28.4493V26.3502H116.852V24.4136H120.481V22.4094H116.852V20.6353H120.833V18.5227H114.549V28.4493H120.833Z" fill="black"/>
<path d="M131.278 28.4493L128.949 24.6169C130.019 23.9804 130.655 22.9241 130.655 21.7459C130.655 19.9312 129.436 18.4551 126.349 18.4551C125.184 18.4551 124.263 18.5228 123.424 18.6176V28.4493H125.726V25.1992C126.051 25.2127 126.24 25.2263 126.579 25.2263C126.714 25.2263 126.836 25.2263 126.972 25.2127L128.664 28.4493H131.278ZM128.258 21.8271C128.258 22.8293 127.554 23.3574 126.457 23.3574C126.186 23.3574 126.024 23.3439 125.726 23.3168V20.5812C126.051 20.5271 126.267 20.5135 126.62 20.5135C127.608 20.5135 128.258 21.001 128.258 21.8271Z" fill="black"/>
<path d="M140.969 18.5227H138.382L136.351 22.3281L134.32 18.5227H131.679L135.173 24.5084V28.4493H137.475V24.522L140.969 18.5227Z" fill="black"/>
<path d="M72.7176 42.0299L72.0269 40.0798C71.2821 40.5403 70.3612 40.8111 69.5486 40.8111C67.6933 40.8111 66.5422 39.6735 66.5422 37.8318C66.5422 35.99 67.6933 34.8525 69.5486 34.8525C70.3612 34.8525 71.1873 35.1097 71.9186 35.516L72.6228 33.5659C71.729 33.0378 70.6727 32.6992 69.5216 32.6992C66.2849 32.6992 64.0911 34.8795 64.0911 37.8318C64.0911 40.7705 66.2849 42.9508 69.5216 42.9508C70.6591 42.9508 71.8508 42.5987 72.7176 42.0299Z" fill="black"/>
<path d="M84.193 37.8318C84.193 34.9066 82.2158 32.6992 79.1551 32.6992C76.081 32.6992 74.0226 34.9066 74.0226 37.8318C74.0226 40.7434 75.9862 42.9508 79.0604 42.9508C82.121 42.9508 84.193 40.7434 84.193 37.8318ZM81.7283 37.8318C81.7283 39.6058 80.672 40.9059 79.101 40.9059C77.5301 40.9059 76.4738 39.6058 76.4738 37.8318C76.4738 36.0442 77.5301 34.7577 79.101 34.7577C80.672 34.7577 81.7283 36.0442 81.7283 37.8318Z" fill="black"/>
<path d="M94.4358 42.7882L92.1065 38.9557C93.1763 38.3192 93.8128 37.2629 93.8128 36.0847C93.8128 34.2701 92.594 32.7939 89.5063 32.7939C88.3417 32.7939 87.4208 32.8617 86.5812 32.9565V42.7882H88.8834V39.538C89.2084 39.5515 89.398 39.5651 89.7366 39.5651C89.872 39.5651 89.9939 39.5651 90.1293 39.5516L91.8221 42.7882H94.4358ZM91.4158 36.166C91.4158 37.1681 90.7116 37.6963 89.6147 37.6963C89.3438 37.6963 89.1813 37.6827 88.8834 37.6557V34.9201C89.2084 34.8659 89.4251 34.8524 89.7772 34.8524C90.7658 34.8524 91.4158 35.3399 91.4158 36.166Z" fill="black"/>
<path d="M103.372 36.3285C103.372 34.3242 101.828 32.7939 98.9573 32.7939C98.1313 32.7939 97.2104 32.8481 96.1947 32.9565V42.7882H98.4969V39.8224C98.8084 39.836 99.0251 39.8495 99.3501 39.8495C101.977 39.8495 103.372 38.3734 103.372 36.3285ZM101.016 36.3691C101.016 37.3306 100.406 37.8588 99.1876 37.8588C98.9709 37.8588 98.8219 37.8452 98.4969 37.8317V35.0014C98.849 34.9607 99.0521 34.9472 99.3501 34.9472C100.488 34.9472 101.016 35.5701 101.016 36.3691Z" fill="black"/>
<path d="M111.626 39.8631C111.626 38.5902 111.071 37.6964 109.215 36.9109C107.969 36.3827 107.468 36.166 107.468 35.516C107.468 35.1097 107.807 34.717 108.647 34.717C109.351 34.717 110.272 35.1368 110.84 35.5296L111.423 33.4711C110.84 33.0784 109.73 32.6992 108.647 32.6992C106.331 32.6992 105.153 34.1076 105.153 35.5567C105.153 36.7484 105.762 37.7641 107.509 38.4683C109.026 39.0777 109.283 39.4298 109.283 39.9444C109.283 40.4319 108.972 40.8111 108.159 40.8111C107.225 40.8111 106.182 40.4319 105.383 39.8496L104.746 41.9351C105.613 42.5039 106.967 42.9508 108.091 42.9508C110.475 42.9508 111.626 41.4476 111.626 39.8631Z" fill="black"/>
</svg>
