<svg width="98" height="66" viewBox="0 0 98 66" fill="none" xmlns="http://www.w3.org/2000/svg">
<path d="M72.1552 60.1156C72.2299 58.2561 72.9613 57.1588 73.9935 57.1588C75.0257 57.1588 75.5329 58.0515 75.5506 59.948L72.1552 60.1156ZM77.9532 60.7861C78.0475 58.4238 76.9583 56.3947 74.1449 56.3947C71.7994 56.3947 69.678 58.3672 69.678 61.0453C69.678 63.6318 71.3865 65.3801 74.0682 65.3801C75.3068 65.3801 76.6968 64.7467 77.8588 63.7994L77.6622 63.3706C76.5553 63.7799 75.8042 63.9553 74.9411 63.9553C73.0478 63.9553 72.1651 62.8209 72.1454 60.7939L77.9532 60.7861ZM63.2175 57.6422L64.3814 57.1958V56.6735H59.3345V57.2329L60.4788 57.6792L63.7818 65.2807H65.1698L68.3961 57.841L69.6544 57.227V56.6676H65.9385V57.19L67.0277 57.7747L66.1194 60.4313L65.2642 62.6338H65.1501L63.2175 57.6422ZM55.6246 58.3458V64.1307L54.3879 64.54V65.0799H59.2382V64.54L58.0762 64.1307V56.5292L57.7558 56.3441L54.4351 57.0867V57.5662L55.6246 58.3458ZM55.2687 53.1748C55.2652 53.3728 55.3022 53.5695 55.3775 53.7529C55.4529 53.9363 55.565 54.1027 55.7071 54.2419C55.8491 54.3811 56.0182 54.4903 56.2041 54.5628C56.39 54.6354 56.5888 54.6698 56.7885 54.6639C57.2166 54.6639 57.6271 54.4953 57.9298 54.1952C58.2326 53.8951 58.4026 53.4881 58.4026 53.0637C58.4076 52.8629 58.371 52.6631 58.2952 52.4768C58.2193 52.2905 58.1058 52.1215 57.9615 51.9804C57.8173 51.8392 57.6454 51.7288 57.4565 51.656C57.2677 51.5832 57.0657 51.5496 56.8632 51.5571C56.4364 51.5652 56.03 51.7395 55.7317 52.0421C55.4334 52.3448 55.2671 52.7517 55.2687 53.1748ZM53.511 64.4796L53.4914 63.8949C53.0982 63.9319 52.705 63.9514 52.4042 63.9514C51.7848 63.9514 51.4211 63.8949 51.0908 63.6707C50.7153 63.4115 50.6032 63.0022 50.6032 62.2206V57.8839H53.454V56.6364H50.6032V54.0324H49.9073L48.5192 56.1355L46.6986 57.381V57.8839H48.1437V63.1114C48.1437 64.618 48.8947 65.3236 50.3771 65.3236C51.4746 65.3005 52.5501 65.0135 53.511 64.4874V64.4796ZM43.0595 63.4817C42.6486 63.763 42.1694 63.9306 41.6714 63.967C40.8083 63.967 40.3207 63.5012 40.3207 62.6455C40.3207 61.7158 41.0521 61.0278 43.0595 60.9537V63.4817ZM45.3853 58.9812C45.3853 57.1588 44.4298 56.3947 42.3831 56.3947C40.4171 56.3947 38.3507 57.2699 38.3507 58.5524C38.3523 58.704 38.3841 58.8538 38.4443 58.9931C38.5045 59.1325 38.592 59.2586 38.7017 59.3643C38.8114 59.4699 38.9411 59.553 39.0833 59.6087C39.2255 59.6644 39.3775 59.6916 39.5304 59.6887C40.2421 59.6887 40.655 59.2229 40.655 58.6284C40.6526 58.4318 40.6039 58.2385 40.5128 58.0638C40.4216 57.8892 40.2906 57.7381 40.13 57.6227C40.4364 57.5103 40.7608 57.4535 41.0875 57.4551C42.4952 57.4551 43.0536 57.9209 43.0536 59.3164V60.3397C39.6759 60.5814 38.0244 61.6593 38.0244 63.24C38.0244 64.5245 38.9622 65.2495 40.3148 65.2495C41.3077 65.2495 42.1157 64.7856 42.9592 64.004L43.1853 64.0411C43.3347 64.9143 43.8223 65.269 44.6854 65.269C45.4052 65.2438 46.1157 65.0989 46.7871 64.8402L46.7498 64.3568C45.6625 64.3373 45.3735 63.9475 45.3735 63.316L45.3853 58.9812ZM33.4828 58.3458V64.1307L32.2441 64.54V65.0799H37.1042V64.54L35.9403 64.1307V56.5292L35.6218 56.3441L32.3031 57.0828V57.5662L33.4828 58.3458ZM33.1269 53.1748C33.1234 53.3728 33.1604 53.5695 33.2357 53.7529C33.3111 53.9363 33.4232 54.1027 33.5653 54.2419C33.7073 54.3811 33.8764 54.4903 34.0623 54.5628C34.2482 54.6354 34.447 54.6698 34.6467 54.6639C34.8585 54.6639 35.0684 54.6225 35.2641 54.5421C35.4598 54.4616 35.6376 54.3437 35.7873 54.1951C35.9371 54.0465 36.0558 53.8701 36.1367 53.6759C36.2176 53.4818 36.2591 53.2738 36.2588 53.0637C36.2641 52.863 36.2278 52.6632 36.1521 52.4769C36.0765 52.2906 35.9631 52.1217 35.8191 51.9805C35.675 51.8393 35.5033 51.7289 35.3145 51.6561C35.1257 51.5832 34.9238 51.5495 34.7214 51.5571C34.2944 51.5647 33.8877 51.7388 33.5893 52.0416C33.2909 52.3444 33.1248 52.7515 33.1269 53.1748ZM31.3673 64.4796L31.3496 63.8949C30.9564 63.9319 30.5632 63.9514 30.2604 63.9514C29.6411 63.9514 29.2774 63.8949 28.9471 63.6707C28.5715 63.4115 28.4595 63.0022 28.4595 62.2206V57.8839H31.3122V56.6364H28.4536V54.0324H27.7596L26.3715 56.1355L24.5509 57.381V57.8839H25.996V63.1114C25.996 64.618 26.747 65.3236 28.2294 65.3236C29.3263 65.3005 30.4011 65.0135 31.3614 64.4874L31.3673 64.4796ZM20.725 58.3458V64.1307L19.4864 64.54V65.0799H24.3445V64.54L23.1826 64.1307V56.5292L22.8621 56.3441L19.5414 57.0867V57.5662L20.725 58.3458ZM20.3672 53.1748C20.3636 53.3728 20.4006 53.5695 20.476 53.7529C20.5513 53.9363 20.6634 54.1027 20.8055 54.2419C20.9476 54.3811 21.1167 54.4903 21.3026 54.5628C21.4884 54.6354 21.6872 54.6698 21.8869 54.6639C22.315 54.6639 22.7256 54.4953 23.0283 54.1952C23.331 53.8951 23.5011 53.4881 23.5011 53.0637C23.506 52.8629 23.4695 52.6631 23.3936 52.4768C23.3177 52.2905 23.2042 52.1215 23.06 51.9804C22.9157 51.8392 22.7439 51.7288 22.555 51.656C22.3661 51.5832 22.1642 51.5496 21.9616 51.5571C21.5349 51.5652 21.1284 51.7395 20.8301 52.0421C20.5318 52.3448 20.3655 52.7517 20.3672 53.1748ZM17.4082 58.9442C17.4082 57.3712 16.5451 56.3967 15.0018 56.3967C13.9696 56.3967 12.9924 56.8996 11.8561 57.9404L11.6319 57.9033L11.7617 56.5643L11.4058 56.3421L8.19722 57.0847V57.5662L9.37686 58.3458V64.1307L8.17756 64.54V65.0799H12.8391V64.54L11.8462 64.1307V58.5154C12.4832 58.1821 12.8961 57.995 13.5351 57.995C14.5653 57.995 14.9605 58.6654 14.9605 59.7628V64.1327L13.948 64.542V65.0819H18.5898V64.542L17.4102 64.1327L17.4082 58.9442ZM5.12033 64.0586V54.2527L6.90355 53.8434V53.2294H0.504011V53.8434L2.30689 54.2527V64.0547L0.504011 64.464V65.078H6.90355V64.464L5.12033 64.0586Z" fill="white"/>
<path d="M95.1624 49.3098C95.1624 50.2025 93.9415 50.9646 92.3844 50.9646C90.4517 50.9646 89.6456 50.296 89.6456 49.3273C89.6412 48.8844 89.7866 48.4528 90.0585 48.1013L93.0784 48.1384C94.5234 48.1559 95.1624 48.4912 95.1624 49.3078V49.3098ZM93.4539 41.9012C93.4539 43.3689 92.9093 44.133 92.0659 44.133C91.1084 44.133 90.5264 43.6671 90.5264 41.9753C90.5264 40.3556 91.128 39.8176 91.9715 39.8176C92.929 39.8176 93.4539 40.5232 93.4539 41.9012ZM95.705 42.0299C95.7079 41.538 95.5717 41.0552 95.3118 40.6363L95.3492 40.4862L96.9063 40.7844H97.2818V39.1666H96.2123L94.7672 39.9658C94.1106 39.4999 93.3222 39.1666 92.0659 39.1666C89.9268 39.1666 88.2753 40.2445 88.2753 41.9753C88.2753 43.0356 88.9693 43.8913 89.9641 44.3747V44.4857C88.8572 45.3414 88.3323 46.0119 88.3323 46.6298C88.3323 47.1502 88.6685 47.6043 89.4195 47.8577L89.4392 48.0526C88.2006 48.5184 87.6186 49.15 87.6186 49.838C87.6186 50.9178 88.9143 51.7364 91.7277 51.7364C94.8046 51.7364 96.8119 50.1908 96.8119 48.3684C96.8119 46.9728 95.7994 46.2243 93.8491 46.1932L91.5409 46.1542C90.6405 46.1366 90.3023 45.9125 90.3023 45.4486C90.3395 45.1476 90.463 44.8635 90.6581 44.63C91.1044 44.7607 91.5695 44.8174 92.0344 44.7976C94.3052 44.7976 95.7109 43.6281 95.7109 42.0435L95.705 42.0299ZM87.2431 40.6304C87.2431 39.7377 86.6061 39.1608 85.7233 39.1608C84.6164 39.1608 83.8477 39.9229 83.079 41.1879L82.8529 41.1333L83.0593 39.3479L82.7035 39.1238L79.4889 39.8605V40.3439L80.6686 41.1235V46.9085L79.4673 47.3178V47.8577H84.4592V47.3178L83.1262 46.9085V41.9967C83.539 41.4568 84.0089 41.067 84.6086 40.9364C84.7029 41.5699 85.1532 42.1059 85.8846 42.1059C86.6533 42.1059 87.2352 41.4724 87.2352 40.6168L87.2431 40.6304ZM72.824 42.8855C72.8987 41.0261 73.6301 39.9287 74.6623 39.9287C75.6944 39.9287 76.2017 40.8214 76.2194 42.7179L72.824 42.8855ZM78.6219 43.556C78.7163 41.1937 77.6271 39.1666 74.8137 39.1666C72.4681 39.1666 70.3468 41.1372 70.3468 43.8172C70.3468 46.4017 72.0553 48.1501 74.7389 48.1501C75.9756 48.1501 77.3656 47.5186 78.5275 46.5693L78.3211 46.1405C77.2142 46.5498 76.4651 46.7253 75.6001 46.7253C73.7068 46.7253 72.824 45.5909 72.8063 43.5638L78.6219 43.556ZM66.5444 43.9829C66.5444 46.3452 65.6616 47.2964 64.6668 47.2964C63.9354 47.2964 63.4105 46.9981 62.9406 46.4037V41.0124C63.3517 40.8419 63.7908 40.7474 64.2362 40.7337C65.699 40.7337 66.5444 41.7765 66.5444 43.9887V43.9829ZM69.1337 43.404C69.1337 40.7805 67.5392 39.1627 65.7757 39.1627C64.7061 39.1627 63.9354 39.6091 63.1667 40.2971L62.9406 40.2601V34.2802L62.5847 34.0853L59.1716 34.9566V35.44L60.485 36.2196V47.5673C61.6835 47.9333 62.9274 48.1334 64.1812 48.1618C67.2581 48.1618 69.1357 45.9105 69.1357 43.4196L69.1337 43.404ZM59.1441 40.6285C59.1441 39.7358 58.5071 39.1588 57.6244 39.1588C56.5175 39.1588 55.7487 39.9209 54.978 41.1859L54.7539 41.1313L54.9603 39.346L54.6025 39.1218L51.3939 39.8664V40.3497L52.5735 41.1294V46.9143L51.3723 47.3236V47.8635H56.368V47.3236L55.035 46.9143V42.0026C55.4479 41.4627 55.9178 41.0729 56.5175 40.9423C56.6118 41.5757 57.0621 42.1117 57.7934 42.1117C58.5622 42.1117 59.1441 41.4783 59.1441 40.6226V40.6285ZM44.7309 42.8914C44.8076 41.0319 45.539 39.9346 46.5711 39.9346C47.6033 39.9346 48.1086 40.8273 48.1283 42.7238L44.7309 42.8914ZM50.5288 43.5619C50.6232 41.1996 49.5458 39.1725 46.7206 39.1725C44.3751 39.1725 42.2556 41.143 42.2556 43.8231C42.2556 46.4076 43.9622 48.1559 46.6459 48.1559C47.8845 48.1559 49.2725 47.5244 50.4364 46.5752L50.23 46.1464C49.1231 46.5557 48.3721 46.7311 47.509 46.7311C45.6137 46.7311 44.7309 45.5967 44.7132 43.5697L50.5288 43.5619ZM37.775 42.753L40.3643 40.455L41.5282 40.0087V39.4512H37.5489V39.9151L38.5811 40.5486L36.2926 43.096H35.5789V34.2802L35.223 34.0853L31.8276 34.9566V35.44L33.1213 36.2196V46.9163L31.92 47.3256V47.8655H36.5167V47.3256L35.5789 46.9163V44.0823H36.2356L38.412 47.0215L37.718 47.3743V47.8596H41.9214V47.3197L41.0209 46.9299L37.775 42.753ZM31.0451 41.1723C31.0451 40.0749 29.8812 39.1822 28.0233 39.1822C25.2276 39.1822 23.1829 41.2658 23.1829 43.8698C23.1829 46.4368 25.1155 48.1579 27.5357 48.1579C28.8294 48.1579 30.013 47.6745 31.0628 46.6142L30.8761 46.1678C29.9933 46.5031 29.4684 46.6707 28.6996 46.6707C26.9911 46.6707 25.7151 45.5909 25.7151 43.5268C25.7151 41.2756 26.9341 40.0847 28.3241 40.0301C28.4371 40.0318 28.5497 40.0442 28.6603 40.0671C28.5241 40.3784 28.4538 40.7141 28.4539 41.0534C28.4539 41.8895 28.9434 42.5035 29.7869 42.5035C30.5182 42.5035 31.0451 41.9188 31.0451 41.1645V41.1723ZM21.2581 46.2789V39.3401L20.9003 39.116L17.6169 39.8605V40.3069L18.7966 41.069V46.0177C18.1596 46.351 17.7467 46.5187 17.1077 46.5187C16.0952 46.5187 15.6823 45.8872 15.6823 44.7333V39.3401L15.3442 39.116L12.0608 39.8605V40.3069L13.2326 41.069V45.5714C13.2326 47.0781 14.0584 48.1384 15.6351 48.1384C16.7224 48.1384 17.6425 47.6355 18.7808 46.5947L19.005 46.6317L18.8752 47.9707L19.2311 48.1657L22.4574 47.4308V46.965L21.2581 46.2789ZM11.2665 43.6184L10.834 43.5424L9.44597 45.5519C8.82666 46.4446 8.35874 46.8364 7.38161 46.8364L3.81713 46.8734L11.2665 36.4749L11.1918 36.0091H1.36742L1.01156 39.804L1.48145 39.9151L2.68075 38.4279C3.4888 37.3852 3.95672 37.0519 4.98891 37.0519L7.85936 37.0148L0.354895 47.3938L0.429605 47.8596H10.8733L11.2665 43.6184Z" fill="white"/>
<path d="M43.1389 24.4956C43.1389 22.9148 42.2758 21.9481 40.7384 21.9481C39.7062 21.9481 38.731 22.451 37.5927 23.4918L37.3607 23.4567L37.4924 22.1177L37.1346 21.8974L33.926 22.642V23.1253L35.1056 23.905V29.6938L33.9044 30.1031V30.643H38.558V30.0953L37.5671 29.6938V24.0687C38.2041 23.7335 38.617 23.5483 39.256 23.5483C40.2882 23.5483 40.6814 24.2168 40.6814 25.3142V29.6938L39.6688 30.1031V30.643H44.3225V30.0953L43.1429 29.686L43.1389 24.4956ZM29.3549 29.035C28.947 29.3134 28.4723 29.4802 27.9786 29.5184C27.1155 29.5184 26.628 29.0545 26.628 28.1989C26.628 27.2672 27.3593 26.5792 29.3667 26.5051L29.3549 29.035ZM31.6827 24.5326C31.6827 22.7102 30.7252 21.9481 28.6805 21.9481C26.7145 21.9481 24.6462 22.8213 24.6462 24.1057C24.6479 24.2572 24.6799 24.4068 24.7403 24.5459C24.8006 24.685 24.8882 24.8109 24.9978 24.9163C25.1075 25.0218 25.2371 25.1047 25.3792 25.1603C25.5213 25.2158 25.6731 25.243 25.8258 25.2401C26.5395 25.2401 26.9524 24.7762 26.9524 24.1798C26.9495 23.9836 26.9006 23.7907 26.8095 23.6164C26.7184 23.4422 26.5876 23.2914 26.4274 23.176C26.735 23.0629 27.0608 23.0061 27.3888 23.0084C28.7965 23.0084 29.3549 23.4723 29.3549 24.8678V25.8911C25.9792 26.1328 24.3277 27.2126 24.3277 28.7933C24.3277 30.0759 25.2655 30.8029 26.6162 30.8029C27.611 30.8029 28.4171 30.337 29.2625 29.5554L29.4866 29.5925C29.638 30.4676 30.1256 30.8204 30.9887 30.8204C31.7084 30.7958 32.4189 30.6515 33.0904 30.3936L33.053 29.9102C31.9638 29.8907 31.6768 29.5009 31.6768 28.8674L31.6827 24.5326ZM19.8077 25.3122V29.6938L18.7932 30.1031V30.643H23.4665V30.0953L22.2771 29.6938V24.4956C22.2771 22.9714 21.4513 21.9481 19.8745 21.9481C18.7126 21.9481 17.6981 22.5621 16.835 23.3242L16.6286 23.2871V17.05L16.2727 16.8453L12.8714 17.7244V18.2097L14.1651 18.9894V29.6938L12.9638 30.1031V30.643H17.6371V30.0953L16.6227 29.6938V24.0687C17.2793 23.7159 17.6922 23.5483 18.3685 23.5483C19.4184 23.5483 19.8136 24.2363 19.8136 25.3142L19.8077 25.3122ZM11.7527 26.9709L11.2455 26.8969L9.02382 29.7055C8.62641 29.8449 8.20662 29.911 7.7852 29.9004C5.45935 29.9004 3.71349 28.0761 3.71349 24.5423C3.71349 21.1392 5.12119 19.4084 6.99681 19.4084C8.51658 19.4084 9.58612 20.4122 10.8247 23.0357L11.5188 22.9987L11.2946 18.4514H10.75L10.113 19.0829C9.18366 18.705 8.19003 18.5065 7.18555 18.4982C3.37729 18.4982 0.618902 21.2698 0.618902 24.823C0.618902 28.7212 3.37139 30.9062 7.22291 30.9062C8.64972 30.943 10.0667 30.662 11.3693 30.0837L11.7527 26.9709Z" fill="white"/>
<path d="M86.6775 58.9988C86.2 59.3263 85.6321 59.4992 85.0515 59.4939C84.8615 59.5071 84.6708 59.4825 84.4905 59.4216C84.3103 59.3607 84.1441 59.2647 84.0018 59.1392C83.8595 59.0137 83.7439 58.8613 83.6618 58.6909C83.5798 58.5206 83.5329 58.3356 83.5239 58.147C83.5085 57.9356 83.5372 57.7234 83.608 57.5234C83.6788 57.3234 83.7903 57.14 83.9355 56.9844C84.0808 56.8289 84.2567 56.7047 84.4524 56.6193C84.6481 56.534 84.8594 56.4894 85.0732 56.4883C85.2986 56.4866 85.522 56.5303 85.7298 56.617C85.7298 56.617 85.6748 57.0711 85.6571 57.2758H86.3472L86.471 56.2525L86.2744 56.1317C85.8264 55.8599 85.2972 55.7502 84.7769 55.8213C84.2565 55.8923 83.777 56.1397 83.4197 56.5215C83.2096 56.7452 83.0488 57.0096 82.9472 57.2982C82.8457 57.5867 82.8057 57.8931 82.8299 58.1977C82.8635 58.7397 83.1056 59.2483 83.5062 59.6186C83.9228 59.9926 84.468 60.1942 85.0299 60.1819H85.0732C85.4813 60.1696 85.884 60.0858 86.2626 59.9344L86.762 58.9754C86.762 58.9754 86.7522 58.954 86.6814 59.0027" fill="#FF414B"/>
<path d="M89.023 61.4526L88.9384 62.394V62.4057C88.9274 62.5722 88.8748 62.7334 88.7852 62.8746C88.6956 63.0158 88.5719 63.1327 88.4253 63.2146C88.3188 63.2703 88.2004 63.2997 88.08 63.3002C87.9596 63.3007 87.8409 63.2724 87.7339 63.2177C87.627 63.1629 87.535 63.0834 87.4657 62.9858C87.3964 62.8882 87.3519 62.7755 87.3361 62.6572C87.3127 62.4695 87.3422 62.2791 87.4213 62.1071C87.5004 61.9351 87.6261 61.7882 87.7843 61.6826L92.4125 58.6966C92.6064 60.1068 92.2521 61.5373 91.4216 62.6982C90.591 63.8591 89.3463 64.6634 87.9397 64.9482C86.5331 65.233 85.0699 64.9768 83.8467 64.2318C82.6236 63.4867 81.7319 62.3084 81.3526 60.9357C80.9733 59.5631 81.1346 58.0988 81.8039 56.8397C82.4732 55.5806 83.6004 54.6209 84.957 54.1552C86.3136 53.6895 87.798 53.7525 89.1094 54.3316C90.4208 54.9107 91.4611 55.9625 92.0192 57.2738L92.5835 56.9093C91.9447 55.5002 90.8026 54.3753 89.3771 53.7514C87.9516 53.1274 86.3436 53.0485 84.8629 53.5299C83.3822 54.0113 82.1336 55.0189 81.3576 56.3586C80.5816 57.6982 80.3332 59.2752 80.6602 60.7856C80.9872 62.2961 81.8664 63.6331 83.1285 64.5391C84.3907 65.4452 85.9463 65.8561 87.4959 65.6928C89.0454 65.5295 90.4792 64.8034 91.5209 63.6545C92.5626 62.5056 93.1386 61.0152 93.1379 59.4704C93.1377 59.078 93.1009 58.6865 93.0278 58.3009C92.9873 58.0885 92.9354 57.8784 92.8725 57.6714L91.5592 58.4861L89.8172 59.5795C89.7853 59.45 89.7239 59.3294 89.6377 59.227C89.5515 59.1246 89.4427 59.0432 89.3198 58.989C88.9679 58.8311 88.3978 58.9519 87.979 59.1839C87.979 59.1839 89.1252 56.9872 89.3159 56.6247C89.3186 56.6194 89.3198 56.6135 89.3196 56.6075C89.3193 56.6016 89.3175 56.5958 89.3143 56.5907C89.3112 56.5857 89.3068 56.5815 89.3016 56.5785C89.2963 56.5756 89.2905 56.5741 89.2844 56.574H87.1414L87.0549 57.2835H88.2169L86.5752 60.4021C86.5677 60.4154 86.5647 60.4308 86.5669 60.446C86.569 60.4611 86.576 60.4752 86.5869 60.486C86.5978 60.4968 86.612 60.5038 86.6273 60.5059C86.6425 60.5079 86.6581 60.505 86.6715 60.4976L87.5464 60.0356C87.9692 59.8212 88.673 59.3788 89.021 59.6341C89.0561 59.6641 89.0848 59.7008 89.1054 59.742C89.126 59.7832 89.138 59.828 89.1409 59.8739C89.1411 59.8933 89.1365 59.9125 89.1276 59.9298C89.1187 59.9471 89.1058 59.962 89.0898 59.9733L87.342 61.1427C87.09 61.3138 86.889 61.5486 86.7596 61.8229C86.6303 62.0971 86.5775 62.4007 86.6067 62.702C86.6552 63.0648 86.8364 63.3974 87.1158 63.6366C87.3952 63.8759 87.7534 64.0052 88.1225 64.0001C88.3479 63.9927 88.5685 63.934 88.7674 63.8286C89.0183 63.6927 89.2309 63.4966 89.3858 63.2583C89.5407 63.0199 89.6329 62.7469 89.6541 62.4642L89.7956 60.8796L89.023 61.4526Z" fill="#FF414B"/>
<path d="M1.624 5.755C1.95533 5.755 2.219 5.68267 2.415 5.538C2.611 5.38867 2.709 5.17867 2.709 4.908C2.709 4.796 2.69033 4.698 2.653 4.614C2.62033 4.53 2.569 4.45533 2.499 4.39C2.429 4.32 2.34033 4.257 2.233 4.201C2.12567 4.14033 1.99733 4.082 1.848 4.026L1.575 3.914C1.393 3.844 1.22733 3.76467 1.078 3.676C0.933333 3.58733 0.807333 3.487 0.7 3.375C0.597333 3.25833 0.515667 3.13 0.455 2.99C0.399 2.84533 0.371 2.68433 0.371 2.507C0.371 2.30633 0.410667 2.12667 0.49 1.968C0.569333 1.80467 0.679 1.667 0.819 1.555C0.963667 1.443 1.13167 1.359 1.323 1.303C1.51433 1.24233 1.722 1.212 1.946 1.212C2.184 1.212 2.39633 1.24467 2.583 1.31C2.77433 1.37533 2.94467 1.464 3.094 1.576L3.052 2.493H2.625L2.478 1.702C2.30533 1.60867 2.114 1.562 1.904 1.562C1.638 1.562 1.414 1.62967 1.232 1.765C1.05 1.89567 0.959 2.09167 0.959 2.353C0.959 2.57233 1.02667 2.752 1.162 2.892C1.302 3.02733 1.498 3.144 1.75 3.242L2.03 3.347C2.48733 3.52433 2.814 3.725 3.01 3.949C3.206 4.16833 3.304 4.44367 3.304 4.775C3.304 4.98033 3.262 5.167 3.178 5.335C3.09867 5.49833 2.98433 5.63833 2.835 5.755C2.69033 5.867 2.51533 5.95333 2.31 6.014C2.10933 6.07467 1.88767 6.105 1.645 6.105C1.379 6.105 1.12467 6.07 0.882 6C0.644 5.93 0.443333 5.84133 0.28 5.734L0.322 4.754H0.756L0.896 5.58C1.00333 5.64067 1.113 5.685 1.225 5.713C1.34167 5.741 1.47467 5.755 1.624 5.755ZM7.35667 6L6.38367 6.056L6.31367 5.433C6.12234 5.66633 5.91934 5.83433 5.70467 5.937C5.49467 6.03967 5.28467 6.091 5.07467 6.091C4.93467 6.091 4.80634 6.06767 4.68967 6.021C4.57767 5.979 4.48201 5.909 4.40267 5.811C4.32334 5.70833 4.26267 5.57767 4.22067 5.419C4.18334 5.26033 4.16467 5.06433 4.16467 4.831L4.18567 3.088L3.68867 2.983V2.731L4.71767 2.633L4.78767 2.703L4.75267 3.683V4.768C4.75267 5.076 4.79701 5.29067 4.88567 5.412C4.97901 5.53333 5.12134 5.594 5.31267 5.594C5.63934 5.594 5.96601 5.44233 6.29267 5.139L6.31367 3.088L5.81667 2.983V2.731L6.83167 2.633L6.90167 2.703L6.88067 3.683V5.65L7.35667 5.748V6ZM10.6624 4.383C10.6624 3.93033 10.5807 3.585 10.4174 3.347C10.254 3.10433 10.044 2.983 9.78737 2.983C9.68003 2.983 9.55637 3.011 9.41637 3.067C9.27637 3.11833 9.1177 3.21867 8.94037 3.368V5.335C9.07103 5.461 9.19937 5.552 9.32537 5.608C9.45137 5.664 9.5797 5.692 9.71037 5.692C9.84103 5.692 9.9647 5.66633 10.0814 5.615C10.198 5.56367 10.2984 5.48433 10.3824 5.377C10.471 5.26967 10.5387 5.13433 10.5854 4.971C10.6367 4.803 10.6624 4.607 10.6624 4.383ZM8.34537 6.196V4.194C8.34537 4.00267 8.34303 3.844 8.33837 3.718C8.3337 3.592 8.32903 3.459 8.32437 3.319L7.77137 3.256V3.011L8.75137 2.584L8.85637 2.654L8.89837 3.102C9.0617 2.92467 9.23203 2.794 9.40937 2.71C9.5867 2.626 9.7687 2.584 9.95537 2.584C10.142 2.584 10.317 2.62367 10.4804 2.703C10.6437 2.78233 10.7837 2.899 10.9004 3.053C11.0217 3.20233 11.1174 3.38433 11.1874 3.599C11.2574 3.81367 11.2924 4.05633 11.2924 4.327C11.2924 4.59767 11.255 4.84267 11.1804 5.062C11.1104 5.27667 11.01 5.461 10.8794 5.615C10.7487 5.769 10.5947 5.888 10.4174 5.972C10.2447 6.05133 10.0557 6.091 9.85037 6.091C9.68703 6.091 9.52837 6.05833 9.37437 5.993C9.22037 5.92767 9.0687 5.80633 8.91937 5.629V6.189C8.91937 6.37567 8.91937 6.56233 8.91937 6.749C8.92403 6.93567 8.9287 7.127 8.93337 7.323L9.57037 7.428V7.673H7.77137V7.428L8.33137 7.33C8.33603 7.134 8.33837 6.94267 8.33837 6.756C8.34303 6.574 8.34537 6.38733 8.34537 6.196ZM14.6751 4.383C14.6751 3.93033 14.5934 3.585 14.4301 3.347C14.2667 3.10433 14.0567 2.983 13.8001 2.983C13.6927 2.983 13.5691 3.011 13.4291 3.067C13.2891 3.11833 13.1304 3.21867 12.9531 3.368V5.335C13.0837 5.461 13.2121 5.552 13.3381 5.608C13.4641 5.664 13.5924 5.692 13.7231 5.692C13.8537 5.692 13.9774 5.66633 14.0941 5.615C14.2107 5.56367 14.3111 5.48433 14.3951 5.377C14.4837 5.26967 14.5514 5.13433 14.5981 4.971C14.6494 4.803 14.6751 4.607 14.6751 4.383ZM12.3581 6.196V4.194C12.3581 4.00267 12.3557 3.844 12.3511 3.718C12.3464 3.592 12.3417 3.459 12.3371 3.319L11.7841 3.256V3.011L12.7641 2.584L12.8691 2.654L12.9111 3.102C13.0744 2.92467 13.2447 2.794 13.4221 2.71C13.5994 2.626 13.7814 2.584 13.9681 2.584C14.1547 2.584 14.3297 2.62367 14.4931 2.703C14.6564 2.78233 14.7964 2.899 14.9131 3.053C15.0344 3.20233 15.1301 3.38433 15.2001 3.599C15.2701 3.81367 15.3051 4.05633 15.3051 4.327C15.3051 4.59767 15.2677 4.84267 15.1931 5.062C15.1231 5.27667 15.0227 5.461 14.8921 5.615C14.7614 5.769 14.6074 5.888 14.4301 5.972C14.2574 6.05133 14.0684 6.091 13.8631 6.091C13.6997 6.091 13.5411 6.05833 13.3871 5.993C13.2331 5.92767 13.0814 5.80633 12.9321 5.629V6.189C12.9321 6.37567 12.9321 6.56233 12.9321 6.749C12.9367 6.93567 12.9414 7.127 12.9461 7.323L13.5831 7.428V7.673H11.7841V7.428L12.3441 7.33C12.3487 7.134 12.3511 6.94267 12.3511 6.756C12.3557 6.574 12.3581 6.38733 12.3581 6.196ZM17.5381 6.091C17.3328 6.091 17.1345 6.056 16.9431 5.986C16.7518 5.91133 16.5815 5.80167 16.4321 5.657C16.2828 5.51233 16.1615 5.33267 16.0681 5.118C15.9795 4.89867 15.9351 4.64433 15.9351 4.355C15.9351 4.06567 15.9795 3.81133 16.0681 3.592C16.1615 3.368 16.2828 3.18133 16.4321 3.032C16.5815 2.88267 16.7518 2.77067 16.9431 2.696C17.1345 2.62133 17.3328 2.584 17.5381 2.584C17.7388 2.584 17.9348 2.62133 18.1261 2.696C18.3221 2.77067 18.4948 2.88267 18.6441 3.032C18.7935 3.18133 18.9148 3.368 19.0081 3.592C19.1015 3.81133 19.1481 4.06567 19.1481 4.355C19.1481 4.64433 19.1015 4.89867 19.0081 5.118C18.9195 5.33267 18.7981 5.51233 18.6441 5.657C18.4948 5.80167 18.3221 5.91133 18.1261 5.986C17.9348 6.056 17.7388 6.091 17.5381 6.091ZM17.5381 5.776C17.8415 5.776 18.0748 5.657 18.2381 5.419C18.4015 5.181 18.4831 4.82633 18.4831 4.355C18.4831 3.879 18.4015 3.51967 18.2381 3.277C18.0748 3.02967 17.8415 2.906 17.5381 2.906C17.2301 2.906 16.9968 3.02967 16.8381 3.277C16.6795 3.51967 16.6001 3.879 16.6001 4.355C16.6001 4.82633 16.6795 5.181 16.8381 5.419C16.9968 5.657 17.2301 5.776 17.5381 5.776ZM19.7559 6V5.748L20.2599 5.657C20.2646 5.47967 20.2669 5.28833 20.2669 5.083C20.2716 4.873 20.2739 4.68867 20.2739 4.53V4.194C20.2739 4.00267 20.2716 3.844 20.2669 3.718C20.2622 3.592 20.2576 3.459 20.2529 3.319L19.6999 3.256V3.011L20.6799 2.584L20.7849 2.654L20.8619 3.48C20.9786 3.2 21.1279 2.98067 21.3099 2.822C21.4919 2.66333 21.6786 2.584 21.8699 2.584C21.9772 2.584 22.0776 2.60733 22.1709 2.654C22.2642 2.70067 22.3319 2.76367 22.3739 2.843C22.3739 3.18367 22.2362 3.354 21.9609 3.354C21.8816 3.354 21.8069 3.34 21.7369 3.312C21.6669 3.27933 21.5992 3.235 21.5339 3.179L21.4499 3.102C21.3099 3.20933 21.1932 3.33767 21.0999 3.487C21.0066 3.63167 20.9296 3.80433 20.8689 4.005V4.53C20.8689 4.684 20.8689 4.86367 20.8689 5.069C20.8736 5.27433 20.8782 5.46567 20.8829 5.643L21.4569 5.748V6H19.7559ZM23.7908 5.216C23.7908 5.39333 23.8234 5.524 23.8888 5.608C23.9588 5.68733 24.0544 5.727 24.1758 5.727C24.2551 5.727 24.3298 5.713 24.3998 5.685C24.4744 5.65233 24.5561 5.60333 24.6448 5.538L24.8128 5.72C24.7194 5.84133 24.6028 5.93467 24.4628 6C24.3228 6.06067 24.1641 6.091 23.9868 6.091C23.7394 6.091 23.5434 6.028 23.3988 5.902C23.2588 5.77133 23.1888 5.56833 23.1888 5.293C23.1888 5.20433 23.1888 5.118 23.1888 5.034C23.1934 4.94533 23.1958 4.83333 23.1958 4.698V3.046H22.6148V2.738L23.2378 2.661L23.4198 1.723H23.8398L23.8048 2.675H24.7428V3.046H23.7908V5.216ZM26.7531 2.584C26.9351 2.584 27.1055 2.61433 27.2641 2.675C27.4228 2.73567 27.5605 2.82433 27.6771 2.941C27.7938 3.053 27.8848 3.193 27.9501 3.361C28.0201 3.529 28.0551 3.718 28.0551 3.928C28.0551 4.00733 28.0505 4.082 28.0411 4.152C28.0318 4.21733 28.0201 4.27333 28.0061 4.32H25.7731C25.7825 4.754 25.8898 5.083 26.0951 5.307C26.3005 5.52633 26.5711 5.636 26.9071 5.636C27.1311 5.636 27.3178 5.59167 27.4671 5.503C27.6165 5.41433 27.7541 5.29533 27.8801 5.146L28.0481 5.279C27.9175 5.531 27.7401 5.72933 27.5161 5.874C27.2968 6.01867 27.0261 6.091 26.7041 6.091C26.4661 6.091 26.2515 6.05133 26.0601 5.972C25.8688 5.89267 25.7055 5.78067 25.5701 5.636C25.4348 5.48667 25.3298 5.30467 25.2551 5.09C25.1805 4.87533 25.1431 4.635 25.1431 4.369C25.1431 4.103 25.1851 3.86033 25.2691 3.641C25.3578 3.42167 25.4745 3.235 25.6191 3.081C25.7685 2.92233 25.9388 2.801 26.1301 2.717C26.3261 2.62833 26.5338 2.584 26.7531 2.584ZM26.7111 2.906C26.6131 2.906 26.5128 2.927 26.4101 2.969C26.3121 3.00633 26.2188 3.07167 26.1301 3.165C26.0461 3.25367 25.9715 3.37033 25.9061 3.515C25.8455 3.655 25.8058 3.82533 25.7871 4.026H27.0611C27.2291 4.026 27.3388 3.991 27.3901 3.921C27.4461 3.851 27.4741 3.76467 27.4741 3.662C27.4741 3.564 27.4531 3.47067 27.4111 3.382C27.3738 3.28867 27.3201 3.207 27.2501 3.137C27.1848 3.067 27.1055 3.011 27.0121 2.969C26.9188 2.927 26.8185 2.906 26.7111 2.906ZM29.3415 4.355C29.3415 4.81233 29.4325 5.15067 29.6145 5.37C29.8012 5.58467 30.0345 5.692 30.3145 5.692C30.4685 5.692 30.6038 5.66167 30.7205 5.601C30.8418 5.54033 30.9678 5.43533 31.0985 5.286V3.347C30.9352 3.207 30.7905 3.11133 30.6645 3.06C30.5432 3.00867 30.4242 2.983 30.3075 2.983C30.1768 2.983 30.0532 3.011 29.9365 3.067C29.8198 3.11833 29.7172 3.2 29.6285 3.312C29.5398 3.424 29.4698 3.56633 29.4185 3.739C29.3672 3.91167 29.3415 4.117 29.3415 4.355ZM31.1685 6.07L31.1195 5.58C30.9982 5.74333 30.8582 5.86933 30.6995 5.958C30.5455 6.04667 30.3588 6.091 30.1395 6.091C29.9248 6.091 29.7288 6.049 29.5515 5.965C29.3788 5.881 29.2295 5.76433 29.1035 5.615C28.9775 5.461 28.8795 5.279 28.8095 5.069C28.7442 4.859 28.7115 4.62567 28.7115 4.369C28.7115 4.103 28.7488 3.86033 28.8235 3.641C28.8982 3.42167 29.0008 3.235 29.1315 3.081C29.2668 2.92233 29.4255 2.801 29.6075 2.717C29.7895 2.62833 29.9878 2.584 30.2025 2.584C30.3705 2.584 30.5292 2.619 30.6785 2.689C30.8278 2.75433 30.9748 2.871 31.1195 3.039V1.457L30.5245 1.387V1.142L31.6165 0.827L31.7145 0.883L31.6865 1.877V5.657L32.2535 5.748V6L31.1685 6.07ZM34.212 6V5.748L34.737 5.65C34.7416 5.47267 34.744 5.28133 34.744 5.076C34.7486 4.866 34.751 4.684 34.751 4.53V1.457L34.177 1.387V1.142L35.248 0.827L35.346 0.883L35.318 1.877V3.123C35.486 2.93633 35.6586 2.801 35.836 2.717C36.0133 2.62833 36.2 2.584 36.396 2.584C36.5826 2.584 36.7553 2.62367 36.914 2.703C37.0773 2.77767 37.2173 2.88967 37.334 3.039C37.4553 3.18367 37.551 3.36333 37.621 3.578C37.691 3.79267 37.726 4.03533 37.726 4.306C37.726 4.57667 37.6886 4.82167 37.614 5.041C37.544 5.26033 37.4436 5.44933 37.313 5.608C37.1823 5.762 37.0283 5.881 36.851 5.965C36.6783 6.049 36.4893 6.091 36.284 6.091C36.1206 6.091 35.955 6.05833 35.787 5.993C35.6236 5.923 35.4673 5.79233 35.318 5.601L35.262 6.07L34.212 6ZM36.172 5.692C36.298 5.692 36.417 5.66633 36.529 5.615C36.641 5.559 36.739 5.47733 36.823 5.37C36.907 5.258 36.9723 5.118 37.019 4.95C37.0703 4.782 37.096 4.586 37.096 4.362C37.096 3.90933 37.0143 3.56633 36.851 3.333C36.6876 3.09967 36.473 2.983 36.207 2.983C36.0996 2.983 35.976 3.011 35.836 3.067C35.696 3.123 35.5303 3.23033 35.339 3.389V5.307C35.4836 5.44233 35.626 5.54033 35.766 5.601C35.906 5.66167 36.0413 5.692 36.172 5.692ZM38.6176 7.743C38.4403 7.743 38.2886 7.69867 38.1626 7.61C38.0366 7.526 37.9736 7.41633 37.9736 7.281C37.997 7.17833 38.053 7.10133 38.1416 7.05C38.235 6.99867 38.3353 6.973 38.4426 6.973C38.536 6.973 38.6223 6.99167 38.7016 7.029C38.781 7.071 38.8673 7.141 38.9606 7.239L38.9956 7.274C39.145 7.148 39.271 6.99633 39.3736 6.819C39.4763 6.64167 39.5603 6.45733 39.6256 6.266L39.6536 6.182L38.3866 2.983L38.0016 2.927V2.675H39.6816V2.934L39.0656 3.004L39.9406 5.391L40.8016 3.011L40.1926 2.927V2.675H41.5576V2.927L41.1796 3.004L40.0526 5.979C39.936 6.287 39.8216 6.553 39.7096 6.777C39.6023 7.001 39.4903 7.183 39.3736 7.323C39.2616 7.46767 39.1426 7.57267 39.0166 7.638C38.8953 7.708 38.7623 7.743 38.6176 7.743Z" fill="white"/>
</svg>
