<svg width="1280" height="261" viewBox="0 0 1280 261" fill="none" xmlns="http://www.w3.org/2000/svg">
<rect width="1280" height="261" fill="#2A2A2A"/>
<g clip-path="url(#clip0)">
<path d="M1204.16 209.116C1204.23 207.256 1204.96 206.159 1205.99 206.159C1207.03 206.159 1207.53 207.051 1207.55 208.948L1204.16 209.116ZM1209.95 209.786C1210.05 207.424 1208.96 205.395 1206.14 205.395C1203.8 205.395 1201.68 207.367 1201.68 210.045C1201.68 212.632 1203.39 214.38 1206.07 214.38C1207.31 214.38 1208.7 213.747 1209.86 212.799L1209.66 212.371C1208.56 212.78 1207.8 212.955 1206.94 212.955C1205.05 212.955 1204.17 211.821 1204.15 209.794L1209.95 209.786ZM1195.22 206.642L1196.38 206.196V205.673H1191.33V206.233L1192.48 206.679L1195.78 214.281H1197.17L1200.4 206.841L1201.65 206.227V205.668H1197.94V206.19L1199.03 206.775L1198.12 209.431L1197.26 211.634H1197.15L1195.22 206.642ZM1187.62 207.346V213.131L1186.39 213.54V214.08H1191.24V213.54L1190.08 213.131V205.529L1189.76 205.344L1186.44 206.087V206.566L1187.62 207.346ZM1187.27 202.175C1187.27 202.373 1187.3 202.569 1187.38 202.753C1187.45 202.936 1187.57 203.103 1187.71 203.242C1187.85 203.381 1188.02 203.49 1188.2 203.563C1188.39 203.635 1188.59 203.67 1188.79 203.664C1189.22 203.664 1189.63 203.495 1189.93 203.195C1190.23 202.895 1190.4 202.488 1190.4 202.064C1190.41 201.863 1190.37 201.663 1190.3 201.477C1190.22 201.29 1190.11 201.122 1189.96 200.98C1189.82 200.839 1189.65 200.729 1189.46 200.656C1189.27 200.583 1189.07 200.55 1188.86 200.557C1188.44 200.565 1188.03 200.739 1187.73 201.042C1187.43 201.345 1187.27 201.752 1187.27 202.175ZM1185.51 213.48L1185.49 212.895C1185.1 212.932 1184.7 212.951 1184.4 212.951C1183.78 212.951 1183.42 212.895 1183.09 212.671C1182.72 212.412 1182.6 212.002 1182.6 211.221V206.884H1185.45V205.636H1182.6V203.032H1181.91L1180.52 205.136L1178.7 206.381V206.884H1180.14V212.111C1180.14 213.618 1180.89 214.324 1182.38 214.324C1183.47 214.3 1184.55 214.014 1185.51 213.487V213.48ZM1175.06 212.482C1174.65 212.763 1174.17 212.931 1173.67 212.967C1172.81 212.967 1172.32 212.501 1172.32 211.646C1172.32 210.716 1173.05 210.028 1175.06 209.954V212.482ZM1177.39 207.981C1177.39 206.159 1176.43 205.395 1174.38 205.395C1172.42 205.395 1170.35 206.27 1170.35 207.552C1170.35 207.704 1170.38 207.854 1170.44 207.993C1170.5 208.132 1170.59 208.259 1170.7 208.364C1170.81 208.47 1170.94 208.553 1171.08 208.609C1171.23 208.664 1171.38 208.692 1171.53 208.689C1172.24 208.689 1172.65 208.223 1172.65 207.628C1172.65 207.432 1172.6 207.238 1172.51 207.064C1172.42 206.889 1172.29 206.738 1172.13 206.623C1172.44 206.51 1172.76 206.453 1173.09 206.455C1174.5 206.455 1175.05 206.921 1175.05 208.316V209.34C1171.68 209.581 1170.02 210.659 1170.02 212.24C1170.02 213.524 1170.96 214.25 1172.31 214.25C1173.31 214.25 1174.12 213.786 1174.96 213.004L1175.19 213.041C1175.33 213.914 1175.82 214.269 1176.69 214.269C1177.41 214.244 1178.12 214.099 1178.79 213.84L1178.75 213.357C1177.66 213.337 1177.37 212.948 1177.37 212.316L1177.39 207.981ZM1165.48 207.346V213.131L1164.24 213.54V214.08H1169.1V213.54L1167.94 213.131V205.529L1167.62 205.344L1164.3 206.083V206.566L1165.48 207.346ZM1165.13 202.175C1165.12 202.373 1165.16 202.569 1165.24 202.753C1165.31 202.936 1165.42 203.103 1165.57 203.242C1165.71 203.381 1165.88 203.49 1166.06 203.563C1166.25 203.635 1166.45 203.67 1166.65 203.664C1166.86 203.664 1167.07 203.623 1167.26 203.542C1167.46 203.462 1167.64 203.344 1167.79 203.195C1167.94 203.047 1168.06 202.87 1168.14 202.676C1168.22 202.482 1168.26 202.274 1168.26 202.064C1168.26 201.863 1168.23 201.663 1168.15 201.477C1168.08 201.291 1167.96 201.122 1167.82 200.98C1167.68 200.839 1167.5 200.729 1167.31 200.656C1167.13 200.583 1166.92 200.55 1166.72 200.557C1166.29 200.565 1165.89 200.739 1165.59 201.042C1165.29 201.344 1165.12 201.752 1165.13 202.175ZM1163.37 213.48L1163.35 212.895C1162.96 212.932 1162.56 212.951 1162.26 212.951C1161.64 212.951 1161.28 212.895 1160.95 212.671C1160.57 212.412 1160.46 212.002 1160.46 211.221V206.884H1163.31V205.636H1160.45V203.032H1159.76L1158.37 205.136L1156.55 206.381V206.884H1158V212.111C1158 213.618 1158.75 214.324 1160.23 214.324C1161.33 214.3 1162.4 214.014 1163.36 213.487L1163.37 213.48ZM1152.72 207.346V213.131L1151.49 213.54V214.08H1156.34V213.54L1155.18 213.131V205.529L1154.86 205.344L1151.54 206.087V206.566L1152.72 207.346ZM1152.37 202.175C1152.36 202.373 1152.4 202.569 1152.48 202.753C1152.55 202.936 1152.66 203.103 1152.81 203.242C1152.95 203.381 1153.12 203.49 1153.3 203.563C1153.49 203.635 1153.69 203.67 1153.89 203.664C1154.32 203.664 1154.73 203.495 1155.03 203.195C1155.33 202.895 1155.5 202.488 1155.5 202.064C1155.51 201.863 1155.47 201.663 1155.39 201.477C1155.32 201.29 1155.2 201.122 1155.06 200.98C1154.92 200.839 1154.74 200.729 1154.56 200.656C1154.37 200.583 1154.16 200.55 1153.96 200.557C1153.53 200.565 1153.13 200.739 1152.83 201.042C1152.53 201.345 1152.37 201.752 1152.37 202.175ZM1149.41 207.944C1149.41 206.371 1148.55 205.397 1147 205.397C1145.97 205.397 1144.99 205.9 1143.86 206.94L1143.63 206.903L1143.76 205.564L1143.41 205.342L1140.2 206.085V206.566L1141.38 207.346V213.131L1140.18 213.54V214.08H1144.84V213.54L1143.85 213.131V207.515C1144.48 207.182 1144.9 206.995 1145.54 206.995C1146.57 206.995 1146.96 207.665 1146.96 208.763V213.133L1145.95 213.542V214.082H1150.59V213.542L1149.41 213.133L1149.41 207.944ZM1137.12 213.059V203.253L1138.9 202.843V202.229H1132.5V202.843L1134.31 203.253V213.055L1132.5 213.464V214.078H1138.9V213.464L1137.12 213.059Z" fill="white"/>
<path d="M1227.16 198.31C1227.16 199.202 1225.94 199.965 1224.38 199.965C1222.45 199.965 1221.65 199.296 1221.65 198.327C1221.64 197.884 1221.79 197.453 1222.06 197.101L1225.08 197.138C1226.52 197.156 1227.16 197.491 1227.16 198.308V198.31ZM1225.45 190.901C1225.45 192.369 1224.91 193.133 1224.07 193.133C1223.11 193.133 1222.53 192.667 1222.53 190.975C1222.53 189.356 1223.13 188.818 1223.97 188.818C1224.93 188.818 1225.45 189.523 1225.45 190.901ZM1227.71 191.03C1227.71 190.538 1227.57 190.055 1227.31 189.636L1227.35 189.486L1228.91 189.784H1229.28V188.167H1228.21L1226.77 188.966C1226.11 188.5 1225.32 188.167 1224.07 188.167C1221.93 188.167 1220.28 189.244 1220.28 190.975C1220.28 192.036 1220.97 192.891 1221.96 193.375V193.486C1220.86 194.341 1220.33 195.012 1220.33 195.63C1220.33 196.15 1220.67 196.604 1221.42 196.858L1221.44 197.053C1220.2 197.518 1219.62 198.15 1219.62 198.838C1219.62 199.918 1220.91 200.736 1223.73 200.736C1226.8 200.736 1228.81 199.191 1228.81 197.368C1228.81 195.973 1227.8 195.224 1225.85 195.193L1223.54 195.154C1222.64 195.137 1222.3 194.912 1222.3 194.449C1222.34 194.148 1222.46 193.863 1222.66 193.63C1223.1 193.761 1223.57 193.817 1224.03 193.798C1226.31 193.798 1227.71 192.628 1227.71 191.044L1227.71 191.03ZM1219.24 189.63C1219.24 188.738 1218.61 188.161 1217.72 188.161C1216.62 188.161 1215.85 188.923 1215.08 190.188L1214.85 190.133L1215.06 188.348L1214.7 188.124L1211.49 188.861V189.344L1212.67 190.124V195.908L1211.47 196.318V196.858H1216.46V196.318L1215.13 195.908V190.997C1215.54 190.457 1216.01 190.067 1216.61 189.936C1216.7 190.57 1217.15 191.106 1217.88 191.106C1218.65 191.106 1219.24 190.472 1219.24 189.617L1219.24 189.63ZM1204.82 191.886C1204.9 190.026 1205.63 188.929 1206.66 188.929C1207.69 188.929 1208.2 189.821 1208.22 191.718L1204.82 191.886ZM1210.62 192.556C1210.72 190.194 1209.63 188.167 1206.81 188.167C1204.47 188.167 1202.35 190.137 1202.35 192.817C1202.35 195.402 1204.06 197.15 1206.74 197.15C1207.98 197.15 1209.37 196.519 1210.53 195.569L1210.32 195.141C1209.21 195.55 1208.47 195.725 1207.6 195.725C1205.71 195.725 1204.82 194.591 1204.81 192.564L1210.62 192.556ZM1198.54 192.983C1198.54 195.345 1197.66 196.296 1196.67 196.296C1195.94 196.296 1195.41 195.998 1194.94 195.404V190.012C1195.35 189.842 1195.79 189.747 1196.24 189.734C1197.7 189.734 1198.54 190.776 1198.54 192.989V192.983ZM1201.13 192.404C1201.13 189.78 1199.54 188.163 1197.78 188.163C1196.71 188.163 1195.94 188.609 1195.17 189.297L1194.94 189.26V183.28L1194.58 183.085L1191.17 183.957V184.44L1192.49 185.22V196.567C1193.68 196.933 1194.93 197.133 1196.18 197.162C1199.26 197.162 1201.14 194.911 1201.14 192.42L1201.13 192.404ZM1191.14 189.628C1191.14 188.736 1190.51 188.159 1189.62 188.159C1188.52 188.159 1187.75 188.921 1186.98 190.186L1186.75 190.131L1186.96 188.346L1186.6 188.122L1183.39 188.866V189.35L1184.57 190.129V195.914L1183.37 196.324V196.864H1188.37V196.324L1187.04 195.914V191.003C1187.45 190.463 1187.92 190.073 1188.52 189.942C1188.61 190.576 1189.06 191.112 1189.79 191.112C1190.56 191.112 1191.14 190.478 1191.14 189.623V189.628ZM1176.73 191.891C1176.81 190.032 1177.54 188.935 1178.57 188.935C1179.6 188.935 1180.11 189.827 1180.13 191.724L1176.73 191.891ZM1182.53 192.562C1182.62 190.2 1181.55 188.172 1178.72 188.172C1176.38 188.172 1174.26 190.143 1174.26 192.823C1174.26 195.408 1175.96 197.156 1178.65 197.156C1179.88 197.156 1181.27 196.524 1182.44 195.575L1182.23 195.146C1181.12 195.556 1180.37 195.731 1179.51 195.731C1177.61 195.731 1176.73 194.597 1176.71 192.57L1182.53 192.562ZM1169.78 191.753L1172.36 189.455L1173.53 189.009V188.451H1169.55V188.915L1170.58 189.549L1168.29 192.096H1167.58V183.28L1167.22 183.085L1163.83 183.957V184.44L1165.12 185.22V195.916L1163.92 196.326V196.865H1168.52V196.326L1167.58 195.916V193.082H1168.24L1170.41 196.022L1169.72 196.374V196.86H1173.92V196.32L1173.02 195.93L1169.78 191.753ZM1163.05 190.172C1163.05 189.075 1161.88 188.182 1160.02 188.182C1157.23 188.182 1155.18 190.266 1155.18 192.87C1155.18 195.437 1157.12 197.158 1159.54 197.158C1160.83 197.158 1162.01 196.674 1163.06 195.614L1162.88 195.168C1161.99 195.503 1161.47 195.671 1160.7 195.671C1158.99 195.671 1157.72 194.591 1157.72 192.527C1157.72 190.276 1158.93 189.085 1160.32 189.03C1160.44 189.032 1160.55 189.044 1160.66 189.067C1160.52 189.378 1160.45 189.714 1160.45 190.053C1160.45 190.89 1160.94 191.504 1161.79 191.504C1162.52 191.504 1163.05 190.919 1163.05 190.164V190.172ZM1153.26 195.279V188.34L1152.9 188.116L1149.62 188.861V189.307L1150.8 190.069V195.018C1150.16 195.351 1149.75 195.519 1149.11 195.519C1148.1 195.519 1147.68 194.887 1147.68 193.733V188.34L1147.34 188.116L1144.06 188.861V189.307L1145.23 190.069V194.571C1145.23 196.078 1146.06 197.138 1147.64 197.138C1148.72 197.138 1149.64 196.636 1150.78 195.595L1151 195.632L1150.88 196.971L1151.23 197.166L1154.46 196.431V195.965L1153.26 195.279ZM1143.27 192.618L1142.83 192.542L1141.45 194.552C1140.83 195.445 1140.36 195.836 1139.38 195.836L1135.82 195.873L1143.27 185.475L1143.19 185.009H1133.37L1133.01 188.804L1133.48 188.915L1134.68 187.428C1135.49 186.385 1135.96 186.052 1136.99 186.052L1139.86 186.015L1132.35 196.394L1132.43 196.86H1142.87L1143.27 192.618Z" fill="white"/>
<path d="M1175.14 173.496C1175.14 171.915 1174.28 170.948 1172.74 170.948C1171.71 170.948 1170.73 171.451 1169.59 172.492L1169.36 172.457L1169.49 171.118L1169.13 170.897L1165.93 171.642V172.125L1167.11 172.905V178.694L1165.9 179.103V179.643H1170.56V179.095L1169.57 178.694V173.069C1170.2 172.733 1170.62 172.548 1171.26 172.548C1172.29 172.548 1172.68 173.217 1172.68 174.314V178.694L1171.67 179.103V179.643H1176.32V179.095L1175.14 178.686L1175.14 173.496ZM1161.35 178.035C1160.95 178.313 1160.47 178.48 1159.98 178.518C1159.12 178.518 1158.63 178.055 1158.63 177.199C1158.63 176.267 1159.36 175.579 1161.37 175.505L1161.35 178.035ZM1163.68 173.533C1163.68 171.71 1162.73 170.948 1160.68 170.948C1158.71 170.948 1156.65 171.821 1156.65 173.106C1156.65 173.257 1156.68 173.407 1156.74 173.546C1156.8 173.685 1156.89 173.811 1157 173.916C1157.11 174.022 1157.24 174.105 1157.38 174.16C1157.52 174.216 1157.67 174.243 1157.83 174.24C1158.54 174.24 1158.95 173.776 1158.95 173.18C1158.95 172.984 1158.9 172.791 1158.81 172.616C1158.72 172.442 1158.59 172.291 1158.43 172.176C1158.73 172.063 1159.06 172.006 1159.39 172.008C1160.8 172.008 1161.35 172.472 1161.35 173.868V174.891C1157.98 175.133 1156.33 176.213 1156.33 177.793C1156.33 179.076 1157.27 179.803 1158.62 179.803C1159.61 179.803 1160.42 179.337 1161.26 178.555L1161.49 178.592C1161.64 179.468 1162.13 179.82 1162.99 179.82C1163.71 179.796 1164.42 179.652 1165.09 179.394L1165.05 178.91C1163.96 178.891 1163.68 178.501 1163.68 177.867L1163.68 173.533ZM1151.81 174.312V178.694L1150.79 179.103V179.643H1155.47V179.095L1154.28 178.694V173.496C1154.28 171.971 1153.45 170.948 1151.87 170.948C1150.71 170.948 1149.7 171.562 1148.83 172.324L1148.63 172.287V166.05L1148.27 165.845L1144.87 166.724V167.21L1146.17 167.989V178.694L1144.96 179.103V179.643H1149.64V179.095L1148.62 178.694V173.069C1149.28 172.716 1149.69 172.548 1150.37 172.548C1151.42 172.548 1151.81 173.236 1151.81 174.314L1151.81 174.312ZM1143.75 175.971L1143.25 175.897L1141.02 178.706C1140.63 178.845 1140.21 178.911 1139.79 178.9C1137.46 178.9 1135.71 177.076 1135.71 173.542C1135.71 170.139 1137.12 168.408 1139 168.408C1140.52 168.408 1141.59 169.412 1142.82 172.036L1143.52 171.999L1143.29 167.451H1142.75L1142.11 168.083C1141.18 167.705 1140.19 167.507 1139.19 167.498C1135.38 167.498 1132.62 170.27 1132.62 173.823C1132.62 177.721 1135.37 179.906 1139.22 179.906C1140.65 179.943 1142.07 179.662 1143.37 179.084L1143.75 175.971Z" fill="white"/>
<path d="M1218.68 207.999C1218.2 208.326 1217.63 208.499 1217.05 208.494C1216.86 208.507 1216.67 208.482 1216.49 208.422C1216.31 208.361 1216.14 208.265 1216 208.139C1215.86 208.014 1215.74 207.861 1215.66 207.691C1215.58 207.521 1215.53 207.336 1215.52 207.147C1215.51 206.936 1215.54 206.723 1215.61 206.523C1215.68 206.323 1215.79 206.14 1215.94 205.984C1216.08 205.829 1216.26 205.705 1216.45 205.619C1216.65 205.534 1216.86 205.489 1217.07 205.488C1217.3 205.487 1217.52 205.53 1217.73 205.617C1217.73 205.617 1217.67 206.071 1217.66 206.276H1218.35L1218.47 205.253L1218.27 205.132C1217.83 204.86 1217.3 204.75 1216.78 204.821C1216.26 204.892 1215.78 205.14 1215.42 205.521C1215.21 205.745 1215.05 206.01 1214.95 206.298C1214.85 206.587 1214.81 206.893 1214.83 207.198C1214.86 207.74 1215.11 208.248 1215.51 208.619C1215.92 208.993 1216.47 209.194 1217.03 209.182H1217.07C1217.48 209.17 1217.88 209.086 1218.26 208.934L1218.76 207.975C1218.76 207.975 1218.75 207.954 1218.68 208.003" fill="#FF414B"/>
<path d="M1221.02 210.453L1220.94 211.394V211.406C1220.93 211.572 1220.87 211.733 1220.79 211.875C1220.7 212.016 1220.57 212.133 1220.43 212.215C1220.32 212.27 1220.2 212.3 1220.08 212.3C1219.96 212.301 1219.84 212.272 1219.73 212.218C1219.63 212.163 1219.53 212.083 1219.47 211.986C1219.4 211.888 1219.35 211.775 1219.34 211.657C1219.31 211.47 1219.34 211.279 1219.42 211.107C1219.5 210.935 1219.63 210.788 1219.78 210.683L1224.41 207.697C1224.61 209.107 1224.25 210.537 1223.42 211.698C1222.59 212.859 1221.35 213.663 1219.94 213.948C1218.53 214.233 1217.07 213.977 1215.85 213.232C1214.62 212.487 1213.73 211.308 1213.35 209.936C1212.97 208.563 1213.13 207.099 1213.8 205.84C1214.47 204.581 1215.6 203.621 1216.96 203.155C1218.31 202.689 1219.8 202.753 1221.11 203.332C1222.42 203.911 1223.46 204.962 1224.02 206.274L1224.58 205.909C1223.94 204.5 1222.8 203.375 1221.38 202.751C1219.95 202.127 1218.34 202.049 1216.86 202.53C1215.38 203.011 1214.13 204.019 1213.36 205.359C1212.58 206.698 1212.33 208.275 1212.66 209.786C1212.99 211.296 1213.87 212.633 1215.13 213.539C1216.39 214.445 1217.95 214.856 1219.5 214.693C1221.05 214.529 1222.48 213.803 1223.52 212.655C1224.56 211.506 1225.14 210.015 1225.14 208.47C1225.14 208.078 1225.1 207.687 1225.03 207.301C1224.99 207.089 1224.94 206.878 1224.87 206.671L1223.56 207.486L1221.82 208.58C1221.79 208.45 1221.72 208.329 1221.64 208.227C1221.55 208.125 1221.44 208.043 1221.32 207.989C1220.97 207.831 1220.4 207.952 1219.98 208.184C1219.98 208.184 1221.13 205.987 1221.32 205.625C1221.32 205.619 1221.32 205.613 1221.32 205.608C1221.32 205.602 1221.32 205.596 1221.31 205.591C1221.31 205.586 1221.31 205.581 1221.3 205.579C1221.3 205.576 1221.29 205.574 1221.28 205.574H1219.14L1219.05 206.283H1220.22L1218.58 209.402C1218.57 209.415 1218.56 209.431 1218.57 209.446C1218.57 209.461 1218.58 209.475 1218.59 209.486C1218.6 209.497 1218.61 209.504 1218.63 209.506C1218.64 209.508 1218.66 209.505 1218.67 209.498L1219.55 209.036C1219.97 208.821 1220.67 208.379 1221.02 208.634C1221.06 208.664 1221.08 208.701 1221.11 208.742C1221.13 208.783 1221.14 208.828 1221.14 208.874C1221.14 208.893 1221.14 208.912 1221.13 208.93C1221.12 208.947 1221.11 208.962 1221.09 208.973L1219.34 210.143C1219.09 210.314 1218.89 210.549 1218.76 210.823C1218.63 211.097 1218.58 211.401 1218.61 211.702C1218.66 212.065 1218.84 212.397 1219.12 212.637C1219.4 212.876 1219.75 213.005 1220.12 213C1220.35 212.993 1220.57 212.934 1220.77 212.829C1221.02 212.693 1221.23 212.497 1221.39 212.258C1221.54 212.02 1221.63 211.747 1221.65 211.464L1221.8 209.88L1221.02 210.453Z" fill="#FF414B"/>
</g>
<path d="M1133.62 154.755C1133.96 154.755 1134.22 154.683 1134.42 154.538C1134.61 154.389 1134.71 154.179 1134.71 153.908C1134.71 153.796 1134.69 153.698 1134.65 153.614C1134.62 153.53 1134.57 153.455 1134.5 153.39C1134.43 153.32 1134.34 153.257 1134.23 153.201C1134.13 153.14 1134 153.082 1133.85 153.026L1133.58 152.914C1133.39 152.844 1133.23 152.765 1133.08 152.676C1132.93 152.587 1132.81 152.487 1132.7 152.375C1132.6 152.258 1132.52 152.13 1132.46 151.99C1132.4 151.845 1132.37 151.684 1132.37 151.507C1132.37 151.306 1132.41 151.127 1132.49 150.968C1132.57 150.805 1132.68 150.667 1132.82 150.555C1132.96 150.443 1133.13 150.359 1133.32 150.303C1133.51 150.242 1133.72 150.212 1133.95 150.212C1134.18 150.212 1134.4 150.245 1134.58 150.31C1134.77 150.375 1134.94 150.464 1135.09 150.576L1135.05 151.493H1134.63L1134.48 150.702C1134.31 150.609 1134.11 150.562 1133.9 150.562C1133.64 150.562 1133.41 150.63 1133.23 150.765C1133.05 150.896 1132.96 151.092 1132.96 151.353C1132.96 151.572 1133.03 151.752 1133.16 151.892C1133.3 152.027 1133.5 152.144 1133.75 152.242L1134.03 152.347C1134.49 152.524 1134.81 152.725 1135.01 152.949C1135.21 153.168 1135.3 153.444 1135.3 153.775C1135.3 153.98 1135.26 154.167 1135.18 154.335C1135.1 154.498 1134.98 154.638 1134.84 154.755C1134.69 154.867 1134.52 154.953 1134.31 155.014C1134.11 155.075 1133.89 155.105 1133.65 155.105C1133.38 155.105 1133.12 155.07 1132.88 155C1132.64 154.93 1132.44 154.841 1132.28 154.734L1132.32 153.754H1132.76L1132.9 154.58C1133 154.641 1133.11 154.685 1133.23 154.713C1133.34 154.741 1133.47 154.755 1133.62 154.755ZM1139.36 155L1138.38 155.056L1138.31 154.433C1138.12 154.666 1137.92 154.834 1137.7 154.937C1137.49 155.04 1137.28 155.091 1137.07 155.091C1136.93 155.091 1136.81 155.068 1136.69 155.021C1136.58 154.979 1136.48 154.909 1136.4 154.811C1136.32 154.708 1136.26 154.578 1136.22 154.419C1136.18 154.26 1136.16 154.064 1136.16 153.831L1136.19 152.088L1135.69 151.983V151.731L1136.72 151.633L1136.79 151.703L1136.75 152.683V153.768C1136.75 154.076 1136.8 154.291 1136.89 154.412C1136.98 154.533 1137.12 154.594 1137.31 154.594C1137.64 154.594 1137.97 154.442 1138.29 154.139L1138.31 152.088L1137.82 151.983V151.731L1138.83 151.633L1138.9 151.703L1138.88 152.683V154.65L1139.36 154.748V155ZM1142.66 153.383C1142.66 152.93 1142.58 152.585 1142.42 152.347C1142.25 152.104 1142.04 151.983 1141.79 151.983C1141.68 151.983 1141.56 152.011 1141.42 152.067C1141.28 152.118 1141.12 152.219 1140.94 152.368V154.335C1141.07 154.461 1141.2 154.552 1141.33 154.608C1141.45 154.664 1141.58 154.692 1141.71 154.692C1141.84 154.692 1141.96 154.666 1142.08 154.615C1142.2 154.564 1142.3 154.484 1142.38 154.377C1142.47 154.27 1142.54 154.134 1142.59 153.971C1142.64 153.803 1142.66 153.607 1142.66 153.383ZM1140.35 155.196V153.194C1140.35 153.003 1140.34 152.844 1140.34 152.718C1140.33 152.592 1140.33 152.459 1140.32 152.319L1139.77 152.256V152.011L1140.75 151.584L1140.86 151.654L1140.9 152.102C1141.06 151.925 1141.23 151.794 1141.41 151.71C1141.59 151.626 1141.77 151.584 1141.96 151.584C1142.14 151.584 1142.32 151.624 1142.48 151.703C1142.64 151.782 1142.78 151.899 1142.9 152.053C1143.02 152.202 1143.12 152.384 1143.19 152.599C1143.26 152.814 1143.29 153.056 1143.29 153.327C1143.29 153.598 1143.26 153.843 1143.18 154.062C1143.11 154.277 1143.01 154.461 1142.88 154.615C1142.75 154.769 1142.59 154.888 1142.42 154.972C1142.24 155.051 1142.06 155.091 1141.85 155.091C1141.69 155.091 1141.53 155.058 1141.37 154.993C1141.22 154.928 1141.07 154.806 1140.92 154.629V155.189C1140.92 155.376 1140.92 155.562 1140.92 155.749C1140.92 155.936 1140.93 156.127 1140.93 156.323L1141.57 156.428V156.673H1139.77V156.428L1140.33 156.33C1140.34 156.134 1140.34 155.943 1140.34 155.756C1140.34 155.574 1140.35 155.387 1140.35 155.196ZM1146.68 153.383C1146.68 152.93 1146.59 152.585 1146.43 152.347C1146.27 152.104 1146.06 151.983 1145.8 151.983C1145.69 151.983 1145.57 152.011 1145.43 152.067C1145.29 152.118 1145.13 152.219 1144.95 152.368V154.335C1145.08 154.461 1145.21 154.552 1145.34 154.608C1145.46 154.664 1145.59 154.692 1145.72 154.692C1145.85 154.692 1145.98 154.666 1146.09 154.615C1146.21 154.564 1146.31 154.484 1146.4 154.377C1146.48 154.27 1146.55 154.134 1146.6 153.971C1146.65 153.803 1146.68 153.607 1146.68 153.383ZM1144.36 155.196V153.194C1144.36 153.003 1144.36 152.844 1144.35 152.718C1144.35 152.592 1144.34 152.459 1144.34 152.319L1143.78 152.256V152.011L1144.76 151.584L1144.87 151.654L1144.91 152.102C1145.07 151.925 1145.24 151.794 1145.42 151.71C1145.6 151.626 1145.78 151.584 1145.97 151.584C1146.15 151.584 1146.33 151.624 1146.49 151.703C1146.66 151.782 1146.8 151.899 1146.91 152.053C1147.03 152.202 1147.13 152.384 1147.2 152.599C1147.27 152.814 1147.31 153.056 1147.31 153.327C1147.31 153.598 1147.27 153.843 1147.19 154.062C1147.12 154.277 1147.02 154.461 1146.89 154.615C1146.76 154.769 1146.61 154.888 1146.43 154.972C1146.26 155.051 1146.07 155.091 1145.86 155.091C1145.7 155.091 1145.54 155.058 1145.39 154.993C1145.23 154.928 1145.08 154.806 1144.93 154.629V155.189C1144.93 155.376 1144.93 155.562 1144.93 155.749C1144.94 155.936 1144.94 156.127 1144.95 156.323L1145.58 156.428V156.673H1143.78V156.428L1144.34 156.33C1144.35 156.134 1144.35 155.943 1144.35 155.756C1144.36 155.574 1144.36 155.387 1144.36 155.196ZM1149.54 155.091C1149.33 155.091 1149.13 155.056 1148.94 154.986C1148.75 154.911 1148.58 154.802 1148.43 154.657C1148.28 154.512 1148.16 154.333 1148.07 154.118C1147.98 153.899 1147.94 153.644 1147.94 153.355C1147.94 153.066 1147.98 152.811 1148.07 152.592C1148.16 152.368 1148.28 152.181 1148.43 152.032C1148.58 151.883 1148.75 151.771 1148.94 151.696C1149.13 151.621 1149.33 151.584 1149.54 151.584C1149.74 151.584 1149.93 151.621 1150.13 151.696C1150.32 151.771 1150.49 151.883 1150.64 152.032C1150.79 152.181 1150.91 152.368 1151.01 152.592C1151.1 152.811 1151.15 153.066 1151.15 153.355C1151.15 153.644 1151.1 153.899 1151.01 154.118C1150.92 154.333 1150.8 154.512 1150.64 154.657C1150.49 154.802 1150.32 154.911 1150.13 154.986C1149.93 155.056 1149.74 155.091 1149.54 155.091ZM1149.54 154.776C1149.84 154.776 1150.07 154.657 1150.24 154.419C1150.4 154.181 1150.48 153.826 1150.48 153.355C1150.48 152.879 1150.4 152.52 1150.24 152.277C1150.07 152.03 1149.84 151.906 1149.54 151.906C1149.23 151.906 1149 152.03 1148.84 152.277C1148.68 152.52 1148.6 152.879 1148.6 153.355C1148.6 153.826 1148.68 154.181 1148.84 154.419C1149 154.657 1149.23 154.776 1149.54 154.776ZM1151.76 155V154.748L1152.26 154.657C1152.26 154.48 1152.27 154.288 1152.27 154.083C1152.27 153.873 1152.27 153.689 1152.27 153.53V153.194C1152.27 153.003 1152.27 152.844 1152.27 152.718C1152.26 152.592 1152.26 152.459 1152.25 152.319L1151.7 152.256V152.011L1152.68 151.584L1152.78 151.654L1152.86 152.48C1152.98 152.2 1153.13 151.981 1153.31 151.822C1153.49 151.663 1153.68 151.584 1153.87 151.584C1153.98 151.584 1154.08 151.607 1154.17 151.654C1154.26 151.701 1154.33 151.764 1154.37 151.843C1154.37 152.184 1154.24 152.354 1153.96 152.354C1153.88 152.354 1153.81 152.34 1153.74 152.312C1153.67 152.279 1153.6 152.235 1153.53 152.179L1153.45 152.102C1153.31 152.209 1153.19 152.338 1153.1 152.487C1153.01 152.632 1152.93 152.804 1152.87 153.005V153.53C1152.87 153.684 1152.87 153.864 1152.87 154.069C1152.87 154.274 1152.88 154.466 1152.88 154.643L1153.46 154.748V155H1151.76ZM1155.79 154.216C1155.79 154.393 1155.82 154.524 1155.89 154.608C1155.96 154.687 1156.05 154.727 1156.18 154.727C1156.26 154.727 1156.33 154.713 1156.4 154.685C1156.47 154.652 1156.56 154.603 1156.64 154.538L1156.81 154.72C1156.72 154.841 1156.6 154.935 1156.46 155C1156.32 155.061 1156.16 155.091 1155.99 155.091C1155.74 155.091 1155.54 155.028 1155.4 154.902C1155.26 154.771 1155.19 154.568 1155.19 154.293C1155.19 154.204 1155.19 154.118 1155.19 154.034C1155.19 153.945 1155.2 153.833 1155.2 153.698V152.046H1154.61V151.738L1155.24 151.661L1155.42 150.723H1155.84L1155.8 151.675H1156.74V152.046H1155.79V154.216ZM1158.75 151.584C1158.94 151.584 1159.11 151.614 1159.26 151.675C1159.42 151.736 1159.56 151.824 1159.68 151.941C1159.79 152.053 1159.88 152.193 1159.95 152.361C1160.02 152.529 1160.06 152.718 1160.06 152.928C1160.06 153.007 1160.05 153.082 1160.04 153.152C1160.03 153.217 1160.02 153.273 1160.01 153.32H1157.77C1157.78 153.754 1157.89 154.083 1158.1 154.307C1158.3 154.526 1158.57 154.636 1158.91 154.636C1159.13 154.636 1159.32 154.592 1159.47 154.503C1159.62 154.414 1159.75 154.295 1159.88 154.146L1160.05 154.279C1159.92 154.531 1159.74 154.729 1159.52 154.874C1159.3 155.019 1159.03 155.091 1158.7 155.091C1158.47 155.091 1158.25 155.051 1158.06 154.972C1157.87 154.893 1157.71 154.781 1157.57 154.636C1157.43 154.487 1157.33 154.305 1157.26 154.09C1157.18 153.875 1157.14 153.635 1157.14 153.369C1157.14 153.103 1157.19 152.86 1157.27 152.641C1157.36 152.422 1157.47 152.235 1157.62 152.081C1157.77 151.922 1157.94 151.801 1158.13 151.717C1158.33 151.628 1158.53 151.584 1158.75 151.584ZM1158.71 151.906C1158.61 151.906 1158.51 151.927 1158.41 151.969C1158.31 152.006 1158.22 152.072 1158.13 152.165C1158.05 152.254 1157.97 152.37 1157.91 152.515C1157.85 152.655 1157.81 152.825 1157.79 153.026H1159.06C1159.23 153.026 1159.34 152.991 1159.39 152.921C1159.45 152.851 1159.47 152.765 1159.47 152.662C1159.47 152.564 1159.45 152.471 1159.41 152.382C1159.37 152.289 1159.32 152.207 1159.25 152.137C1159.18 152.067 1159.11 152.011 1159.01 151.969C1158.92 151.927 1158.82 151.906 1158.71 151.906ZM1161.34 153.355C1161.34 153.812 1161.43 154.151 1161.61 154.37C1161.8 154.585 1162.03 154.692 1162.31 154.692C1162.47 154.692 1162.6 154.662 1162.72 154.601C1162.84 154.54 1162.97 154.435 1163.1 154.286V152.347C1162.94 152.207 1162.79 152.111 1162.66 152.06C1162.54 152.009 1162.42 151.983 1162.31 151.983C1162.18 151.983 1162.05 152.011 1161.94 152.067C1161.82 152.118 1161.72 152.2 1161.63 152.312C1161.54 152.424 1161.47 152.566 1161.42 152.739C1161.37 152.912 1161.34 153.117 1161.34 153.355ZM1163.17 155.07L1163.12 154.58C1163 154.743 1162.86 154.869 1162.7 154.958C1162.55 155.047 1162.36 155.091 1162.14 155.091C1161.92 155.091 1161.73 155.049 1161.55 154.965C1161.38 154.881 1161.23 154.764 1161.1 154.615C1160.98 154.461 1160.88 154.279 1160.81 154.069C1160.74 153.859 1160.71 153.626 1160.71 153.369C1160.71 153.103 1160.75 152.86 1160.82 152.641C1160.9 152.422 1161 152.235 1161.13 152.081C1161.27 151.922 1161.43 151.801 1161.61 151.717C1161.79 151.628 1161.99 151.584 1162.2 151.584C1162.37 151.584 1162.53 151.619 1162.68 151.689C1162.83 151.754 1162.97 151.871 1163.12 152.039V150.457L1162.52 150.387V150.142L1163.62 149.827L1163.71 149.883L1163.69 150.877V154.657L1164.25 154.748V155L1163.17 155.07ZM1166.21 155V154.748L1166.74 154.65C1166.74 154.473 1166.74 154.281 1166.74 154.076C1166.75 153.866 1166.75 153.684 1166.75 153.53V150.457L1166.18 150.387V150.142L1167.25 149.827L1167.35 149.883L1167.32 150.877V152.123C1167.49 151.936 1167.66 151.801 1167.84 151.717C1168.01 151.628 1168.2 151.584 1168.4 151.584C1168.58 151.584 1168.76 151.624 1168.91 151.703C1169.08 151.778 1169.22 151.89 1169.33 152.039C1169.46 152.184 1169.55 152.363 1169.62 152.578C1169.69 152.793 1169.73 153.035 1169.73 153.306C1169.73 153.577 1169.69 153.822 1169.61 154.041C1169.54 154.26 1169.44 154.449 1169.31 154.608C1169.18 154.762 1169.03 154.881 1168.85 154.965C1168.68 155.049 1168.49 155.091 1168.28 155.091C1168.12 155.091 1167.95 155.058 1167.79 154.993C1167.62 154.923 1167.47 154.792 1167.32 154.601L1167.26 155.07L1166.21 155ZM1168.17 154.692C1168.3 154.692 1168.42 154.666 1168.53 154.615C1168.64 154.559 1168.74 154.477 1168.82 154.37C1168.91 154.258 1168.97 154.118 1169.02 153.95C1169.07 153.782 1169.1 153.586 1169.1 153.362C1169.1 152.909 1169.01 152.566 1168.85 152.333C1168.69 152.1 1168.47 151.983 1168.21 151.983C1168.1 151.983 1167.98 152.011 1167.84 152.067C1167.7 152.123 1167.53 152.23 1167.34 152.389V154.307C1167.48 154.442 1167.63 154.54 1167.77 154.601C1167.91 154.662 1168.04 154.692 1168.17 154.692ZM1170.62 156.743C1170.44 156.743 1170.29 156.699 1170.16 156.61C1170.04 156.526 1169.97 156.416 1169.97 156.281C1170 156.178 1170.05 156.101 1170.14 156.05C1170.23 155.999 1170.34 155.973 1170.44 155.973C1170.54 155.973 1170.62 155.992 1170.7 156.029C1170.78 156.071 1170.87 156.141 1170.96 156.239L1171 156.274C1171.14 156.148 1171.27 155.996 1171.37 155.819C1171.48 155.642 1171.56 155.457 1171.63 155.266L1171.65 155.182L1170.39 151.983L1170 151.927V151.675H1171.68V151.934L1171.07 152.004L1171.94 154.391L1172.8 152.011L1172.19 151.927V151.675H1173.56V151.927L1173.18 152.004L1172.05 154.979C1171.94 155.287 1171.82 155.553 1171.71 155.777C1171.6 156.001 1171.49 156.183 1171.37 156.323C1171.26 156.468 1171.14 156.573 1171.02 156.638C1170.9 156.708 1170.76 156.743 1170.62 156.743Z" fill="white"/>
<defs>
<clipPath id="clip0">
<rect x="1132.06" y="162.516" width="97.5168" height="55.5495" fill="white"/>
</clipPath>
</defs>
</svg>
