<svg width="122" height="770" viewBox="0 0 122 770" fill="none" xmlns="http://www.w3.org/2000/svg">
<path d="M70 66.9995C75.5228 66.9995 80 62.5223 80 56.9995C80 51.4766 75.5228 46.9995 70 46.9995C64.4772 46.9995 60 51.4766 60 56.9995C60 62.5223 64.4772 66.9995 70 66.9995Z" stroke="#231F20" stroke-width="3" stroke-miterlimit="10"/>
<path d="M22 66.9994C27.5228 66.9994 32 62.5223 32 56.9994C32 51.4766 27.5228 46.9994 22 46.9994C16.4772 46.9994 12 51.4766 12 56.9994C12 62.5223 16.4772 66.9994 22 66.9994Z" stroke="#231F20" stroke-width="3" stroke-miterlimit="10"/>
<path d="M70 66.9999C57.4 66.9999 54 78.1068 54 85.9999H86C86 78.1068 82.6 66.9999 70 66.9999Z" stroke="#231F20" stroke-width="3" stroke-miterlimit="10"/>
<path d="M22 66.9998C9.4 66.9998 6 78.1067 6 85.9998H38C38 78.1067 34.6 66.9998 22 66.9998Z" stroke="#231F20" stroke-width="3" stroke-miterlimit="10"/>
<path d="M65.9717 20.4098C65.1727 20.4098 64.519 21.0635 64.519 21.8624C64.519 22.6614 65.1727 23.315 65.9717 23.315C66.7706 23.315 67.4243 22.6614 67.4243 21.8624C67.4243 21.0635 66.7706 20.4098 65.9717 20.4098Z" fill="white"/>
<path d="M61.6133 10.2412C61.6133 7.84436 63.5743 5.8833 65.9712 5.8833C68.3681 5.8833 70.3291 7.84436 70.3291 10.2412C70.3291 12.6381 68.3681 14.5991 65.9712 14.5991V18.2307" stroke="white" stroke-width="3" stroke-miterlimit="10" stroke-linecap="round" stroke-linejoin="round"/>
<path d="M43 20.6203C43 28.2612 36.6241 34.6531 28.9138 34.6531H23.7241L17.2383 40.4961C16.5949 41.0758 15.569 40.6192 15.569 39.7531V34.6531L14.0121 34.5062C6.30174 34.5062 0 28.2612 0 20.6203C0 12.9795 6.37586 6 14.0862 6H28.9138C36.6241 6 43 12.9795 43 20.6203Z" fill="#FF9292"/>
<path d="M46 16.0265C46 23.8795 52.3759 30.449 60.0862 30.449H65.2759L71.7516 36.445C72.3918 37.0378 73.431 36.5837 73.431 35.7112V30.449L74.9879 30.298C82.6983 30.298 89 23.8795 89 16.0265C89 8.1734 82.6241 1 74.9138 1H60.0862C52.3759 1 46 8.1734 46 16.0265Z" fill="#FDF2E8"/>
<path d="M45 18.6204C45 26.2612 38.6241 32.6531 30.9138 32.6531H25.7241L17.569 40V32.6531L16.0121 32.5062C8.30174 32.5062 2 26.2612 2 18.6204C2 10.9796 8.37586 4.00004 16.0862 4.00004H30.9138C38.6241 4.00004 45 10.9796 45 18.6204Z" stroke="#231F20" stroke-width="3" stroke-miterlimit="10" stroke-linecap="round" stroke-linejoin="round"/>
<path d="M52.6355 3.58125C54.4342 2.57799 56.4595 2 58.5926 2H72.6477C79.9563 2 86 8.78565 86 16.2142C86 23.6428 80.0266 29.7143 72.7179 29.7143L71.2422 29.8571V37L63.5119 29.8571H58.5926C54.3046 29.8571 50.4521 27.7181 48 24.4497" stroke="#231F20" stroke-width="3" stroke-miterlimit="10" stroke-linecap="round" stroke-linejoin="round"/>
<rect x="17" y="11" width="8" height="14" rx="4" stroke="white" stroke-width="3"/>
<path d="M22.5 21L26 25.5" stroke="white" stroke-width="3" stroke-linecap="round"/>
<path d="M64.5 17H69" stroke="#231F20" stroke-width="3" stroke-linecap="round"/>
<path d="M23 61C24.583 61.3883 25.5174 61.3743 27 61" stroke="#231F20" stroke-width="3" stroke-linecap="round"/>
<path d="M65 61C66.583 61.3883 67.5174 61.3743 69 61" stroke="#231F20" stroke-width="3" stroke-linecap="round"/>
<path d="M62 22L66.5 8L71 22" stroke="#231F20" stroke-width="3" stroke-linecap="round" stroke-linejoin="round"/>
<path d="M45 126L22.5373 174.134C10.1535 200.671 10.1535 231.329 22.5373 257.866L45 306" stroke="black" stroke-opacity="0.2" stroke-width="2" stroke-dasharray="8 5"/>
<path d="M49.3022 297.668L45.6343 307.302L36 303.634" stroke="#CFCFCF" stroke-width="2"/>
<path d="M80 470.031L102.463 518.166C114.847 544.702 114.847 575.36 102.463 601.897L80 650.031" stroke="black" stroke-opacity="0.2" stroke-width="2" stroke-dasharray="8 5"/>
<path d="M89.6578 647.977L79.7121 650.689L77.0001 640.743" stroke="#CFCFCF" stroke-width="2"/>
<path fill-rule="evenodd" clip-rule="evenodd" d="M92 426.478C92 428.423 90.4198 430 88.4706 430H35.5294C33.5802 430 32 428.423 32 426.478V352.522C32 350.577 33.5802 349 35.5294 349H69.3624C70.2983 349 71.1959 349.371 71.8576 350.032L90.9659 369.099C91.6278 369.759 91.9998 370.654 92 371.588V426.478Z" stroke="#2E2E2E" stroke-width="3" stroke-linecap="round" stroke-linejoin="round"/>
<path d="M71 349V366.447C71 368.409 72.5909 370 74.5533 370H92" stroke="#2E2E2E" stroke-width="3" stroke-linecap="round" stroke-linejoin="round"/>
<path d="M43 413H81" stroke="#2E2E2E" stroke-width="3" stroke-linecap="round" stroke-linejoin="round"/>
<path d="M43 420H81" stroke="#2E2E2E" stroke-width="3" stroke-linecap="round" stroke-linejoin="round"/>
<g style="mix-blend-mode:multiply">
<path fill-rule="evenodd" clip-rule="evenodd" d="M77.4057 396.638C77.4057 398.232 76.1138 399.524 74.5202 399.524H54.322C52.7284 399.524 51.4365 398.232 51.4365 396.638V379.325C51.4365 377.732 52.7284 376.44 54.322 376.44H74.5202C76.1138 376.44 77.4057 377.732 77.4057 379.325V396.638Z" fill="#87E3D6"/>
</g>
<path fill-rule="evenodd" clip-rule="evenodd" d="M75.1191 400.177C75.1191 401.77 73.8272 403.062 72.2336 403.062H52.0354C50.4418 403.062 49.1499 401.77 49.1499 400.177V382.864C49.1499 381.27 50.4418 379.979 52.0354 379.979H72.2336C73.8272 379.979 75.1191 381.27 75.1191 382.864V400.177Z" stroke="#2E2E2E" stroke-width="3" stroke-linecap="round" stroke-linejoin="round"/>
<path fill-rule="evenodd" clip-rule="evenodd" d="M62.1347 395.309C64.1267 395.309 65.7415 393.694 65.7415 391.702C65.7415 389.71 64.1267 388.095 62.1347 388.095C60.1427 388.095 58.5278 389.71 58.5278 391.702C58.5278 393.694 60.1427 395.309 62.1347 395.309Z" fill="white" stroke="#2E2E2E" stroke-width="3" stroke-linecap="round" stroke-linejoin="round"/>
<path fill-rule="evenodd" clip-rule="evenodd" d="M69.3482 375.65C69.3482 371.666 66.1186 368.437 62.1346 368.437C58.1506 368.437 54.9209 371.666 54.9209 375.65V379.979H69.3482V375.65Z" stroke="#2E2E2E" stroke-width="3" stroke-linecap="round" stroke-linejoin="round"/>
<g style="mix-blend-mode:multiply">
<path fill-rule="evenodd" clip-rule="evenodd" d="M49.1548 716.929C49.1548 715.825 50.0502 714.929 51.1548 714.929H101.028C102.133 714.929 103.028 715.825 103.028 716.929V750.406C103.028 751.511 102.133 752.406 101.028 752.406H51.1548C50.0502 752.406 49.1548 751.511 49.1548 750.406V716.929Z" fill="#FF9292"/>
</g>
<path fill-rule="evenodd" clip-rule="evenodd" d="M82.2078 727.916C82.2078 727.269 81.6834 726.745 81.0366 726.745H75.1808V720.889C75.1808 720.242 74.6565 719.718 74.0097 719.718H69.3251C68.6782 719.718 68.1539 720.242 68.1539 720.889V726.745H62.2981C61.6513 726.745 61.127 727.269 61.127 727.916V732.601C61.127 733.248 61.6513 733.772 62.2981 733.772H68.1539V739.628C68.1539 740.275 68.6782 740.799 69.3251 740.799H74.0097C74.6565 740.799 75.1808 740.275 75.1808 739.628V733.772H81.0366C81.6834 733.772 82.2078 733.248 82.2078 732.601V727.916Z" fill="white"/>
<path fill-rule="evenodd" clip-rule="evenodd" d="M83.0408 728.749C83.0408 728.102 82.5164 727.578 81.8696 727.578H76.0138V721.722C76.0138 721.076 75.4895 720.551 74.8427 720.551H70.1581C69.5113 720.551 68.9869 721.076 68.9869 721.722V727.578H63.1311C62.4843 727.578 61.96 728.102 61.96 728.749V733.434C61.96 734.081 62.4843 734.605 63.1311 734.605H68.9869V740.461C68.9869 741.108 69.5113 741.632 70.1581 741.632H74.8427C75.4895 741.632 76.0138 741.108 76.0138 740.461V734.605H81.8696C82.5164 734.605 83.0408 734.081 83.0408 733.434V728.749Z" stroke="#2E2E2E" stroke-width="3" stroke-linecap="round" stroke-linejoin="round"/>
<path fill-rule="evenodd" clip-rule="evenodd" d="M45.5635 713.182C45.5635 712.077 46.4589 711.182 47.5635 711.182H97.4367C98.5413 711.182 99.4367 712.077 99.4367 713.182V746.659C99.4367 747.763 98.5413 748.659 97.4367 748.659H47.5635C46.4589 748.659 45.5635 747.763 45.5635 746.659V713.182Z" stroke="#2E2E2E" stroke-width="3" stroke-linecap="round" stroke-linejoin="round"/>
<path d="M64.3027 711.182V707.668C64.3027 705.728 65.8758 704.155 67.8162 704.155H77.1855C79.1259 704.155 80.6989 705.728 80.6989 707.668V711.182" stroke="#2E2E2E" stroke-width="3" stroke-linecap="round" stroke-linejoin="round"/>
<path d="M103 703L48 758" stroke="white" stroke-width="3"/>
<circle cx="72.5" cy="727.5" r="41" stroke="#2E2E2E" stroke-width="3"/>
<path d="M101.5 700.5L45 757" stroke="#2E2E2E" stroke-width="3"/>
</svg>
