<svg width="57" height="57" viewBox="0 0 57 57" fill="none" xmlns="http://www.w3.org/2000/svg">
<path d="M3.5625 18.8931V42.2394C3.5625 43.8141 4.18806 45.3243 5.30155 46.4378C6.41505 47.5513 7.92528 48.1769 9.5 48.1769H10.2362C11.016 48.1769 11.7881 48.0233 12.5084 47.7249C13.2288 47.4265 13.8833 46.9892 14.4347 46.4378C14.986 45.8865 15.4234 45.2319 15.7218 44.5116C16.0202 43.7912 16.1737 43.0191 16.1737 42.2394V18.8931H3.5625Z" fill="#314D61"/>
<path d="M15.9124 14.6183H3.75243C3.00478 14.6183 2.39868 15.2244 2.39868 15.972C2.39868 16.7197 3.00478 17.3258 3.75243 17.3258H15.9124C16.6601 17.3258 17.2662 16.7197 17.2662 15.972C17.2662 15.2244 16.6601 14.6183 15.9124 14.6183Z" fill="#0085FF"/>
<path d="M6.03247 27.0038V41.5626C6.03247 42.0803 6.13445 42.593 6.33258 43.0713C6.5307 43.5496 6.82111 43.9843 7.1872 44.3504C7.5533 44.7165 7.98791 45.0069 8.46624 45.205C8.94457 45.4031 9.45723 45.5051 9.97497 45.5051C10.4927 45.5051 11.0054 45.4031 11.4837 45.205C11.962 45.0069 12.3966 44.7165 12.7627 44.3504C13.1288 43.9843 13.4192 43.5496 13.6174 43.0713C13.8155 42.593 13.9175 42.0803 13.9175 41.5626V27.0038H6.03247Z" fill="#0085FF"/>
<path d="M15.8649 13.1932V10.0582C15.8649 9.74322 15.7398 9.44118 15.5171 9.21848C15.2944 8.99578 14.9923 8.87067 14.6774 8.87067H5.04675C4.73181 8.87067 4.42976 8.99578 4.20706 9.21848C3.98436 9.44118 3.85925 9.74322 3.85925 10.0582V13.1932H15.8649Z" fill="#314D61"/>
<path d="M22.1945 18.8931V42.2394C22.1945 43.8141 22.82 45.3243 23.9335 46.4378C25.047 47.5513 26.5572 48.1769 28.132 48.1769H28.8682C30.4429 48.1769 31.9532 47.5513 33.0667 46.4378C34.1802 45.3243 34.8057 43.8141 34.8057 42.2394V18.8931H22.1945Z" fill="#314D61"/>
<path d="M34.58 14.6183H22.42C21.6724 14.6183 21.0663 15.2244 21.0663 15.972C21.0663 16.7197 21.6724 17.3258 22.42 17.3258H34.58C35.3277 17.3258 35.9338 16.7197 35.9338 15.972C35.9338 15.2244 35.3277 14.6183 34.58 14.6183Z" fill="#0085FF"/>
<path d="M24.7 32.4069V41.5625C24.7 42.0802 24.8019 42.5929 25.0001 43.0712C25.1982 43.5495 25.4886 43.9842 25.8547 44.3503C26.2208 44.7164 26.6554 45.0068 27.1337 45.2049C27.612 45.403 28.1247 45.505 28.6425 45.505C29.1602 45.505 29.6729 45.403 30.1512 45.2049C30.6295 45.0068 31.0641 44.7164 31.4302 44.3503C31.7963 43.9842 32.0867 43.5495 32.2848 43.0712C32.483 42.5929 32.5849 42.0802 32.5849 41.5625V32.4069H24.7Z" fill="#0085FF"/>
<path d="M34.5205 13.1932V10.0582C34.5205 9.74322 34.3954 9.44118 34.1727 9.21848C33.95 8.99578 33.6479 8.87067 33.333 8.87067H23.7499C23.4349 8.87067 23.1329 8.99578 22.9102 9.21848C22.6875 9.44118 22.5624 9.74322 22.5624 10.0582V13.1932H34.5205Z" fill="#314D61"/>
<path d="M40.8619 18.8931V42.2394C40.8619 43.8141 41.4875 45.3243 42.601 46.4378C43.7145 47.5513 45.2247 48.1769 46.7994 48.1769H47.5001C49.0748 48.1769 50.585 47.5513 51.6985 46.4378C52.812 45.3243 53.4376 43.8141 53.4376 42.2394V18.8931H40.8619Z" fill="#314D61"/>
<path d="M53.2475 14.6183H41.0875C40.3399 14.6183 39.7338 15.2244 39.7338 15.972C39.7338 16.7197 40.3399 17.3258 41.0875 17.3258H53.2475C53.9952 17.3258 54.6013 16.7197 54.6013 15.972C54.6013 15.2244 53.9952 14.6183 53.2475 14.6183Z" fill="#0085FF"/>
<path d="M43.3674 22.2537V41.5624C43.3674 42.608 43.7828 43.6108 44.5222 44.3502C45.2615 45.0895 46.2643 45.5049 47.3099 45.5049C48.3555 45.5049 49.3583 45.0895 50.0977 44.3502C50.8371 43.6108 51.2524 42.608 51.2524 41.5624V22.2537H43.3674Z" fill="#0085FF"/>
<path d="M53.1881 13.1932V10.0582C53.1881 9.74322 53.063 9.44118 52.8403 9.21848C52.6176 8.99578 52.3155 8.87067 52.0006 8.87067H42.3818C42.0669 8.87067 41.7648 8.99578 41.5422 9.21848C41.3195 9.44118 41.1943 9.74322 41.1943 10.0582V13.1932H53.1881Z" fill="#314D61"/>
</svg>
