<svg width="19" height="17" viewBox="0 0 19 17" fill="none" xmlns="http://www.w3.org/2000/svg">
<path d="M18.1113 3C18.1113 1.89543 17.2159 1 16.1113 1H4.00001C2.89544 1 2.00001 1.89543 2.00001 3V10.8715C2.00001 11.9761 2.89544 12.8715 4.00001 12.8715H16.1113C17.2159 12.8715 18.1113 11.9761 18.1113 10.8715V3Z" fill="#FBD54D"/>
<path d="M12.7558 15.7254L7.66797 12.3335H12.7558V15.7254Z" fill="#FBD54D"/>
<path d="M8.78575 1.95288C9.75136 1.95288 10.6953 2.23922 11.4982 2.77568C12.301 3.31215 12.9268 4.07465 13.2963 4.96676C13.6659 5.85886 13.7625 6.84052 13.5742 7.78757C13.3858 8.73463 12.9208 9.60456 12.238 10.2873C11.5552 10.9701 10.6853 11.4351 9.73822 11.6235C8.79116 11.8119 7.80951 11.7152 6.9174 11.3457C6.0253 10.9762 5.2628 10.3504 4.72633 9.54752C4.18987 8.74464 3.90353 7.80071 3.90353 6.8351C3.90506 5.54072 4.41992 4.2998 5.33518 3.38453C6.25045 2.46927 7.49137 1.95441 8.78575 1.95288V1.95288ZM4.92931 6.34688H5.88508C5.92339 5.39686 6.16142 4.46557 6.58367 3.61369C6.13049 3.92655 5.74875 4.33189 5.46359 4.803C5.17844 5.2741 4.99634 5.80029 4.92931 6.34688V6.34688ZM9.27397 3.08856V6.34688H10.7115C10.6023 4.69896 9.96922 3.49002 9.27397 3.08856ZM9.27397 7.32332V10.5816C9.96922 10.1802 10.6023 8.97124 10.7115 7.32332H9.27397ZM8.29753 10.5816V7.32332H6.85998C6.96915 8.97124 7.60227 10.1802 8.29753 10.5816ZM8.29753 6.34688V3.08856C7.60227 3.49002 6.96915 4.69896 6.85998 6.34688H8.29753ZM10.9878 3.61369C11.4101 4.46557 11.6481 5.39686 11.6864 6.34688H12.6422C12.5752 5.80029 12.3931 5.2741 12.1079 4.803C11.8227 4.33189 11.441 3.92655 10.9878 3.61369V3.61369ZM12.6422 7.32332H11.6864C11.6481 8.27334 11.4101 9.20463 10.9878 10.0565C11.441 9.74365 11.8227 9.33831 12.1079 8.8672C12.3931 8.3961 12.5752 7.86991 12.6422 7.32332V7.32332ZM6.58367 10.0565C6.16142 9.20463 5.92339 8.27334 5.88508 7.32332H4.92931C4.99634 7.86991 5.17844 8.3961 5.46359 8.8672C5.74875 9.33831 6.13049 9.74365 6.58367 10.0565V10.0565Z" fill="black"/>
<path d="M0.000187278 11.2291V2.44111C0.000943165 1.79392 0.258373 1.17345 0.716006 0.715819C1.17364 0.258186 1.79411 0.000755887 2.4413 0H15.1351C15.7823 0.000755887 16.4027 0.258186 16.8604 0.715819C17.318 1.17345 17.5754 1.79392 17.5762 2.44111V11.2291C17.5754 11.8763 17.318 12.4968 16.8604 12.9544C16.4027 13.412 15.7823 13.6695 15.1351 13.6702H11.7175V16.1113C11.7176 16.202 11.6924 16.2909 11.6447 16.368C11.5971 16.4452 11.5289 16.5075 11.4478 16.5481C11.3667 16.5887 11.2759 16.6058 11.1856 16.5977C11.0953 16.5895 11.0091 16.5563 10.9366 16.5019L7.16094 13.6702H2.4413C1.79411 13.6695 1.17364 13.412 0.716006 12.9544C0.258373 12.4968 0.000943165 11.8763 0.000187278 11.2291ZM7.32351 12.6938C7.4291 12.6937 7.53185 12.728 7.61625 12.7914L10.7411 15.1349V13.182C10.741 13.1179 10.7536 13.0544 10.7782 12.9951C10.8027 12.9359 10.8386 12.882 10.884 12.8367C10.9293 12.7913 10.9832 12.7554 11.0424 12.7309C11.1017 12.7063 11.1652 12.6937 11.2293 12.6938H15.1351C15.5234 12.6933 15.8957 12.5389 16.1703 12.2643C16.4449 11.9897 16.5993 11.6174 16.5997 11.2291V2.44111C16.5993 2.05279 16.4449 1.68049 16.1703 1.40591C15.8957 1.13132 15.5234 0.97687 15.1351 0.976444H2.4413C2.05297 0.97687 1.68068 1.13132 1.40609 1.40591C1.13151 1.68049 0.977057 2.05279 0.976631 2.44111V11.2291C0.977057 11.6174 1.13151 11.9897 1.40609 12.2643C1.68068 12.5389 2.05297 12.6933 2.4413 12.6938H7.32351Z" fill="black"/>
</svg>
