<svg width="119" height="829" viewBox="0 0 119 829" fill="none" xmlns="http://www.w3.org/2000/svg">
<g style="mix-blend-mode:multiply">
<path d="M20 13C20 12.4477 20.4477 12 21 12H62.0858C62.351 12 62.6054 12.1054 62.7929 12.2929L79.7071 29.2071C79.8946 29.3946 80 29.649 80 29.9142V88C80 88.5523 79.5523 89 79 89H21C20.4477 89 20 88.5523 20 88V13Z" fill="#87E3D6"/>
</g>
<path d="M63.3477 64.7272V47.0626C63.3477 46.36 62.7455 45.7578 62.0429 45.7578H56.7234C56.0209 45.7578 55.4186 46.36 55.4186 47.0626V64.7272" fill="white"/>
<path d="M63.3477 64.7272V47.0626C63.3477 46.36 62.7455 45.7578 62.0429 45.7578H56.7234C56.0209 45.7578 55.4186 46.36 55.4186 47.0626V64.7272" stroke="#2E2E2E" stroke-width="3" stroke-miterlimit="10" stroke-linecap="round" stroke-linejoin="round"/>
<path d="M49.5977 64.727V38.8322C49.5977 38.1297 48.9955 37.5275 48.2929 37.5275H42.9734C42.2709 37.5275 41.6686 38.1297 41.6686 38.8322V64.727" fill="white"/>
<path d="M49.5977 64.727V38.8322C49.5977 38.1297 48.9955 37.5275 48.2929 37.5275H42.9734C42.2709 37.5275 41.6686 38.1297 41.6686 38.8322V64.727" stroke="#2E2E2E" stroke-width="3" stroke-miterlimit="10" stroke-linecap="round" stroke-linejoin="round"/>
<path d="M35.8477 64.727V31.3048C35.8477 30.6022 35.2455 30 34.5429 30H29.2234C28.5209 30 27.9187 30.6022 27.9187 31.3048V64.727" fill="white"/>
<path d="M35.8477 64.727V31.3048C35.8477 30.6022 35.2455 30 34.5429 30H29.2234C28.5209 30 27.9187 30.6022 27.9187 31.3048V64.727" stroke="#2E2E2E" stroke-width="3" stroke-miterlimit="10" stroke-linecap="round" stroke-linejoin="round"/>
<path d="M23 65.7308H69.1689" stroke="#2E2E2E" stroke-width="3" stroke-miterlimit="10" stroke-linecap="round" stroke-linejoin="round"/>
<path d="M77.8124 63.5V27.625L57.1874 7H16.875C15.75 7 15 7.9375 15 8.875V87.9999C15 89.1249 15.9375 89.8749 16.875 89.8749H61.5" stroke="#2E2E2E" stroke-width="3" stroke-miterlimit="10" stroke-linecap="round" stroke-linejoin="round"/>
<path d="M59.25 27.6249H78L57.375 6.99994V25.7499C57.375 26.8749 58.125 27.6249 59.25 27.6249Z" stroke="#2E2E2E" stroke-width="3" stroke-miterlimit="10" stroke-linecap="round" stroke-linejoin="round"/>
<path fill-rule="evenodd" clip-rule="evenodd" d="M76.8889 77.4147C75.9166 75.4676 73.733 74.4448 71.6148 74.9443C69.4966 75.4437 68 77.3343 68 79.5106C68 81.6869 69.4966 83.5775 71.6148 84.0769C73.733 84.5764 75.9166 83.5536 76.8889 81.6066" fill="white"/>
<path d="M76.8889 77.4147C75.9166 75.4676 73.733 74.4448 71.6148 74.9443C69.4966 75.4437 68 77.3343 68 79.5106C68 81.6869 69.4966 83.5775 71.6148 84.0769C73.733 84.5764 75.9166 83.5536 76.8889 81.6066" stroke="#2E2E2E" stroke-width="3" stroke-linecap="round" stroke-linejoin="round"/>
<path d="M90.2906 75.4066C92.3947 75.4118 94.2462 74.0188 94.8243 71.9957C95.4025 69.9727 94.5667 67.8117 92.7776 66.7043C90.9886 65.5968 88.6817 65.8123 87.1287 67.232C85.5757 68.6516 85.1546 70.93 86.0975 72.811" stroke="#2E2E2E" stroke-width="3" stroke-linecap="round" stroke-linejoin="round"/>
<path d="M86.0975 86.2113C85.1599 88.0876 85.5817 90.3584 87.1306 91.7728C88.6795 93.1873 90.9791 93.4017 92.7628 92.298C94.5465 91.1944 95.3809 89.0408 94.8064 87.0235C94.2319 85.0061 92.3882 83.6152 90.2906 83.6169" stroke="#2E2E2E" stroke-width="3" stroke-linecap="round" stroke-linejoin="round"/>
<path d="M90.2911 75.4066C88.5147 75.405 86.8916 74.4002 86.098 72.811L76.8896 77.4146C77.5559 78.7329 77.5559 80.2893 76.8896 81.6076L86.098 86.2124C86.8916 84.6232 88.5147 83.6184 90.2911 83.6168" stroke="#2E2E2E" stroke-width="3" stroke-linecap="round" stroke-linejoin="round"/>
<g style="mix-blend-mode:multiply">
<circle cx="92" cy="69" r="4" fill="#E2F6F8"/>
</g>
<g style="mix-blend-mode:multiply">
<circle cx="92" cy="86" r="4" fill="#E2F6F8"/>
</g>
<g style="mix-blend-mode:multiply">
<circle cx="71" cy="80" r="4" fill="#E2F6F8"/>
</g>
<path d="M42 157L19.5373 205.134C7.15349 231.671 7.15349 262.329 19.5373 288.866L42 337" stroke="black" stroke-opacity="0.2" stroke-width="2" stroke-dasharray="8 5"/>
<path d="M46.3022 328.668L42.6343 338.302L33 334.634" stroke="#CFCFCF" stroke-width="2"/>
<path d="M77 501.031L99.4627 549.166C111.847 575.702 111.847 606.36 99.4627 632.897L77 681.031" stroke="black" stroke-opacity="0.2" stroke-width="2" stroke-dasharray="8 5"/>
<path d="M86.6573 678.977L76.7116 681.689L73.9996 671.743" stroke="#CFCFCF" stroke-width="2"/>
<path fill-rule="evenodd" clip-rule="evenodd" d="M103 823.478C103 825.423 101.42 827 99.4706 827H46.5294C44.5802 827 43 825.423 43 823.478V749.522C43 747.577 44.5802 746 46.5294 746H80.3624C81.2983 746 82.1959 746.371 82.8576 747.032L101.966 766.099C102.628 766.759 103 767.654 103 768.588V823.478Z" stroke="#2E2E2E" stroke-width="3" stroke-linecap="round" stroke-linejoin="round"/>
<path d="M82 746V763.447C82 765.409 83.5909 767 85.5533 767H103" stroke="#2E2E2E" stroke-width="3" stroke-linecap="round" stroke-linejoin="round"/>
<path d="M54 810H92" stroke="#2E2E2E" stroke-width="3" stroke-linecap="round" stroke-linejoin="round"/>
<path d="M54 817H92" stroke="#2E2E2E" stroke-width="3" stroke-linecap="round" stroke-linejoin="round"/>
<g style="mix-blend-mode:multiply">
<path fill-rule="evenodd" clip-rule="evenodd" d="M88.4067 793.638C88.4067 795.232 87.1148 796.524 85.5212 796.524H65.323C63.7294 796.524 62.4375 795.232 62.4375 793.638V776.325C62.4375 774.732 63.7294 773.44 65.323 773.44H85.5212C87.1148 773.44 88.4067 774.732 88.4067 776.325V793.638Z" fill="#0085FF"/>
</g>
<path fill-rule="evenodd" clip-rule="evenodd" d="M86.1196 797.177C86.1196 798.77 84.8277 800.062 83.2341 800.062H63.0359C61.4423 800.062 60.1504 798.77 60.1504 797.177V779.864C60.1504 778.27 61.4423 776.979 63.0359 776.979H83.2341C84.8277 776.979 86.1196 778.27 86.1196 779.864V797.177Z" stroke="#2E2E2E" stroke-width="3" stroke-linecap="round" stroke-linejoin="round"/>
<path fill-rule="evenodd" clip-rule="evenodd" d="M73.1352 792.309C75.1271 792.309 76.742 790.694 76.742 788.702C76.742 786.71 75.1271 785.095 73.1352 785.095C71.1432 785.095 69.5283 786.71 69.5283 788.702C69.5283 790.694 71.1432 792.309 73.1352 792.309Z" fill="white" stroke="#2E2E2E" stroke-width="3" stroke-linecap="round" stroke-linejoin="round"/>
<path fill-rule="evenodd" clip-rule="evenodd" d="M80.3482 772.65C80.3482 768.666 77.1186 765.437 73.1346 765.437C69.1506 765.437 65.9209 768.666 65.9209 772.65V776.979H80.3482V772.65Z" stroke="#2E2E2E" stroke-width="3" stroke-linecap="round" stroke-linejoin="round"/>
<path d="M39.6718 375.198L15.4321 418.52C14.6861 419.853 15.6498 421.497 17.1774 421.497H64.4319C65.9403 421.497 66.9058 419.891 66.1982 418.558L43.1833 375.236C42.4406 373.838 40.4448 373.817 39.6718 375.198Z" fill="#FF9292"/>
<path d="M38.3125 406.44L38.3125 390.96" stroke="#231F20" stroke-width="3" stroke-miterlimit="10" stroke-linecap="round" stroke-linejoin="round"/>
<path d="M38.3121 412.631C36.8932 412.631 35.8613 413.792 35.8613 415.081C35.8613 416.5 37.0222 417.533 38.3121 417.533C39.7309 417.533 40.7629 416.371 40.7629 415.081C40.7629 413.663 39.7309 412.631 38.3121 412.631Z" fill="#231F20"/>
<path d="M57.2079 403.8L38.312 371L8 425.175H53.6292" stroke="#231F20" stroke-width="3" stroke-miterlimit="10" stroke-linecap="round" stroke-linejoin="round"/>
<path d="M97.775 411.311H87.4561" stroke="#231F20" stroke-width="3" stroke-miterlimit="10" stroke-linecap="round" stroke-linejoin="round"/>
<path d="M91.0685 394.542L84.6191 401.121" stroke="#231F20" stroke-width="3" stroke-miterlimit="10" stroke-linecap="round" stroke-linejoin="round"/>
<path d="M73.2676 388.093V398.412" stroke="#231F20" stroke-width="3" stroke-miterlimit="10" stroke-linecap="round" stroke-linejoin="round"/>
<path d="M96.0374 448.759L96.0375 439.211C96.0341 432.622 90.6939 427.282 84.1054 427.279L78.1393 427.281L78.1394 414.165C78.14 411.2 76.2339 408.795 73.2682 408.794C70.3024 408.794 68.3977 411.197 68.397 414.163L68.397 436.229L63.7852 432.367C62.7628 431.137 61.1623 430.547 59.5864 430.817C58.0106 431.088 56.6988 432.179 56.1453 433.679C55.5917 435.179 55.8805 436.86 56.9028 438.09L65.7797 448.764" stroke="black" stroke-width="3" stroke-linecap="round" stroke-linejoin="round"/>
</svg>
