<svg width="250" height="47" viewBox="0 0 250 47" fill="none" xmlns="http://www.w3.org/2000/svg">
<path d="M65.7234 16.2693C65.6498 16.4282 65.5364 16.5657 65.394 16.6689C65.2583 16.7478 65.1026 16.7869 64.9453 16.7814C64.7416 16.7676 64.5454 16.6995 64.3774 16.5845C64.1616 16.4494 63.906 16.3031 63.6107 16.1399C63.2834 15.9603 62.9391 15.8133 62.5827 15.7009C61.7194 15.4408 60.799 15.431 59.9304 15.6727C59.6002 15.7738 59.2934 15.9383 59.0273 16.1567C58.7783 16.3511 58.5829 16.6047 58.4593 16.894C58.3343 17.1916 58.2724 17.5115 58.2776 17.8339C58.2677 18.2294 58.3984 18.6159 58.6468 18.9257C58.9197 19.2348 59.2517 19.4872 59.6236 19.6686C60.0698 19.8921 60.5332 20.0803 61.0094 20.2314C61.5263 20.3946 62.0545 20.5634 62.594 20.7491C63.1354 20.9367 63.6662 21.1527 64.1843 21.3963C64.6906 21.6329 65.1578 21.9441 65.5701 22.3193C65.9781 22.6964 66.3097 23.1472 66.547 23.6475C66.8081 24.2692 66.934 24.9385 66.9161 25.6117C66.9223 26.4162 66.7738 27.2146 66.4788 27.9642C66.2004 28.6832 65.7683 29.334 65.2123 29.872C64.6295 30.4349 63.9352 30.8718 63.1733 31.1552C62.2929 31.481 61.3584 31.6395 60.4188 31.6223C59.8278 31.6225 59.2381 31.5659 58.6581 31.4535C58.0893 31.3391 57.5323 31.1733 56.994 30.9582C56.4744 30.7486 55.9762 30.4904 55.506 30.1872C55.0605 29.8997 54.6473 29.5657 54.2736 29.191L55.2845 27.5364C55.3767 27.4139 55.4926 27.3106 55.6253 27.2325C55.7616 27.1543 55.9164 27.1135 56.074 27.1143C56.3275 27.1302 56.5707 27.2203 56.7726 27.3732C57.0225 27.5477 57.3405 27.7447 57.6586 27.936C58.0412 28.1607 58.4443 28.3492 58.8626 28.4988C59.3946 28.6854 59.9568 28.7732 60.521 28.7577C61.3384 28.8371 62.1573 28.6212 62.8269 28.1499C63.1039 27.8966 63.3204 27.5854 63.4609 27.2388C63.6014 26.8923 63.6622 26.5191 63.639 26.1463C63.6614 25.718 63.5307 25.2955 63.2699 24.9532C63.005 24.6271 62.6717 24.3621 62.293 24.1766C61.853 23.944 61.3907 23.7555 60.9129 23.6138C60.3904 23.4731 59.8679 23.3098 59.334 23.141C58.7947 22.9688 58.2673 22.762 57.7551 22.5219C57.244 22.2865 56.7758 21.9689 56.3693 21.5821C55.9441 21.176 55.6111 20.6849 55.3924 20.1413C55.1384 19.4633 55.0226 18.7422 55.0516 18.0196C55.053 17.3406 55.192 16.6688 55.4606 16.0442C55.7385 15.4085 56.1421 14.8344 56.6476 14.3558C57.2047 13.8375 57.8588 13.4322 58.5729 13.1627C59.4027 12.8481 60.2859 12.6952 61.1742 12.7124C62.214 12.7007 63.2474 12.8762 64.2241 13.2302C65.0979 13.5351 65.8984 14.0161 66.5753 14.6428L65.7234 16.2693Z" fill="#3D4A63"/>
<path d="M79.9275 31.4366H78.4906C78.2428 31.4485 77.9956 31.4023 77.7693 31.3015C77.6703 31.2379 77.5852 31.1553 77.5189 31.0587C77.4526 30.9621 77.4064 30.8533 77.3831 30.7387L77.0991 29.8045C76.7833 30.0858 76.4514 30.3488 76.1052 30.5924C75.791 30.8114 75.4563 30.9999 75.1056 31.1552C74.7532 31.3134 74.3834 31.4305 74.0037 31.5041C73.5769 31.5837 73.1432 31.6214 72.7088 31.6167C72.1834 31.621 71.6604 31.5451 71.1583 31.3915C70.7066 31.2571 70.2899 31.0266 69.9372 30.7162C69.5891 30.4059 69.3171 30.0209 69.1421 29.5906C68.9431 29.095 68.8465 28.5649 68.8581 28.0317C68.8643 27.5157 68.9989 27.0092 69.25 26.5571C69.5676 26.0165 70.0191 25.5652 70.562 25.2458C71.3207 24.7961 72.1471 24.4693 73.0098 24.2778C74.2521 23.9971 75.5241 23.8667 76.7981 23.8895V23.1466C76.8534 22.4438 76.6518 21.7446 76.2301 21.1768C76.0218 20.9577 75.7671 20.7869 75.4843 20.677C75.2015 20.567 74.8975 20.5205 74.5944 20.5409C74.1556 20.5275 73.7177 20.5884 73.2995 20.721C72.9881 20.8253 72.6876 20.9591 72.4021 21.1205C72.1465 21.2725 71.9137 21.4076 71.6979 21.5258C71.4781 21.6437 71.2322 21.7056 70.9822 21.7059C70.7793 21.7132 70.5796 21.6539 70.4143 21.537C70.2596 21.4299 70.1315 21.2894 70.0395 21.1262L69.4715 20.1131C70.9743 18.7277 72.9626 17.9768 75.0147 18.0196C75.7246 18.0081 76.4296 18.1382 77.0877 18.4023C77.6727 18.637 78.1996 18.994 78.6326 19.4491C79.0666 19.9112 79.3958 20.46 79.5981 21.0586C79.8232 21.7202 79.9346 22.4147 79.9275 23.1128V31.4366ZM73.7198 29.4612C74.0232 29.465 74.3262 29.4348 74.6228 29.3711C74.8938 29.3144 75.157 29.2256 75.4066 29.1066C75.6579 28.9872 75.8959 28.842 76.1165 28.6733C76.362 28.4854 76.5935 28.2804 76.8094 28.0598V25.8593C76.0276 25.847 75.2463 25.9053 74.4752 26.0337C73.9569 26.1199 73.4513 26.2692 72.9701 26.4784C72.6466 26.6141 72.366 26.8338 72.1579 27.1143C71.9643 27.4247 71.8846 27.7918 71.9322 28.1537C71.9798 28.5155 72.1518 28.8501 72.4192 29.101C72.8025 29.3562 73.2585 29.4825 73.7198 29.4612V29.4612Z" fill="#3D4A63"/>
<path d="M87.7938 18.0533C88.3343 18.0476 88.8737 18.1042 89.401 18.2222C89.8777 18.331 90.3379 18.5013 90.7698 18.7287H94.5864V19.9105C94.5971 20.0782 94.5422 20.2435 94.4331 20.372C94.2868 20.5034 94.1015 20.5844 93.9049 20.6028L92.7122 20.8223C92.8933 21.297 92.9857 21.8005 92.9848 22.308C92.994 22.9029 92.8651 23.4919 92.608 24.0296C92.351 24.5672 91.9728 25.0392 91.5025 25.409C91.0139 25.793 90.4572 26.0832 89.8611 26.2645C89.1912 26.4673 88.4942 26.5679 87.7938 26.5628C87.3037 26.5636 86.8148 26.5165 86.3341 26.4221C85.9195 26.6753 85.7151 26.9511 85.7151 27.2606C85.714 27.38 85.7485 27.497 85.8141 27.5971C85.8798 27.6972 85.9737 27.7759 86.0842 27.8234C86.389 27.9642 86.7153 28.0536 87.0498 28.0879C87.5039 28.1424 87.961 28.1687 88.4185 28.1667C89.4689 28.1546 90.5176 28.2508 91.5479 28.4538C92.0268 28.5489 92.487 28.7199 92.911 28.9603C93.3086 29.1911 93.6423 29.5159 93.8822 29.9058C94.1442 30.3848 94.268 30.9261 94.24 31.4703C94.2379 32.0597 94.0897 32.6395 93.8083 33.1587C93.4924 33.731 93.0591 34.2314 92.5361 34.6276C91.93 35.0831 91.2501 35.4332 90.5256 35.6631C89.6448 35.9324 88.7268 36.0634 87.8051 36.0515C86.9217 36.0662 86.0401 35.9697 85.1812 35.7644C84.5271 35.6103 83.9034 35.3497 83.3353 34.9934C82.8858 34.7106 82.5117 34.3245 82.2449 33.8678C82.0063 33.4734 81.8807 33.022 81.8814 32.5621C81.8652 31.9918 82.0682 31.4366 82.4493 31.0088C82.8861 30.5546 83.4281 30.2127 84.0283 30.0127C83.7108 29.8385 83.4401 29.5915 83.2388 29.2923C83.0283 28.9407 82.9256 28.5358 82.9435 28.1273C82.9432 27.9205 82.9778 27.7151 83.0457 27.5195C83.1194 27.2966 83.2266 27.086 83.3637 26.8948C83.5176 26.6861 83.6969 26.4971 83.8976 26.332C84.1336 26.1405 84.3908 25.9762 84.6644 25.8424C84.0173 25.5092 83.4692 25.0146 83.0741 24.4073C82.5628 23.5751 82.3764 22.5863 82.55 21.6273C82.7237 20.6683 83.2455 19.8055 84.0169 19.2014C84.5231 18.8089 85.1019 18.5183 85.7207 18.346C86.3933 18.1473 87.092 18.0487 87.7938 18.0533V18.0533ZM91.3037 31.9881C91.3116 31.7526 91.2282 31.5231 91.0708 31.3465C90.893 31.17 90.6748 31.0387 90.4347 30.9638C90.131 30.8607 89.8167 30.7908 89.4976 30.7556C89.1204 30.7152 88.7412 30.6945 88.3617 30.6937H87.1236C86.7067 30.6948 86.2912 30.6476 85.8854 30.553C85.5511 30.7273 85.254 30.9643 85.0108 31.2508C84.7965 31.5136 84.6801 31.8416 84.6814 32.1794C84.6825 32.4067 84.7432 32.6297 84.8574 32.8267C84.9956 33.0473 85.192 33.2264 85.4254 33.3444C85.735 33.5086 86.0683 33.6244 86.4136 33.6877C86.9049 33.7722 87.4031 33.8118 87.9017 33.8059C88.418 33.8118 88.9336 33.7665 89.4408 33.6709C89.814 33.5995 90.174 33.4724 90.5086 33.2938C90.7604 33.1622 90.9736 32.9683 91.1276 32.731C91.2537 32.5039 91.3146 32.247 91.3037 31.9881V31.9881ZM87.7938 24.5367C88.1468 24.5435 88.4983 24.4902 88.8331 24.3791C89.1048 24.2844 89.3528 24.1327 89.5601 23.9345C89.7561 23.7445 89.9074 23.5138 90.0031 23.2592C90.103 22.9791 90.153 22.6839 90.1507 22.3868C90.1679 22.1041 90.1264 21.8208 90.0287 21.5546C89.931 21.2884 89.7792 21.0449 89.5828 20.8391C89.0698 20.4686 88.4513 20.269 87.8165 20.269C87.1816 20.269 86.5632 20.4686 86.0502 20.8391C85.8537 21.0449 85.702 21.2884 85.6043 21.5546C85.5066 21.8208 85.465 22.1041 85.4822 22.3868C85.4772 22.6786 85.5273 22.9687 85.6299 23.2423C85.7219 23.5007 85.8713 23.7354 86.0672 23.9289C86.2769 24.131 86.529 24.2847 86.8055 24.3791C87.124 24.4847 87.4579 24.538 87.7938 24.5367V24.5367Z" fill="#3D4A63"/>
<path d="M102.191 18.0759C102.98 18.0698 103.763 18.2052 104.503 18.4754C105.185 18.7291 105.805 19.1244 106.32 19.6348C106.848 20.1781 107.253 20.8266 107.507 21.537C107.809 22.3473 107.955 23.2062 107.939 24.0696C107.939 24.2577 107.928 24.4457 107.905 24.6324C107.894 24.7653 107.853 24.8942 107.786 25.0095C107.733 25.0943 107.656 25.1611 107.564 25.2008C107.448 25.2422 107.324 25.2613 107.201 25.2571H99.0109C99.003 26.3471 99.3945 27.403 100.113 28.2287C100.448 28.5511 100.846 28.8019 101.282 28.9655C101.719 29.1291 102.185 29.202 102.651 29.1798C103.103 29.1879 103.553 29.1271 103.986 28.9997C104.323 28.8933 104.652 28.7616 104.969 28.6057C105.253 28.4594 105.497 28.3243 105.707 28.2062C105.894 28.0942 106.108 28.0321 106.326 28.0261C106.442 28.026 106.557 28.053 106.661 28.1049C106.756 28.1589 106.84 28.2317 106.905 28.3187L107.837 29.4443C107.494 29.8445 107.094 30.1933 106.65 30.4798C106.216 30.7514 105.753 30.9742 105.27 31.1439C104.797 31.3128 104.308 31.4317 103.81 31.4985C103.332 31.566 102.85 31.5998 102.367 31.5998C101.487 31.6067 100.613 31.4522 99.789 31.1439C99.0122 30.863 98.3066 30.4174 97.7216 29.8383C97.1089 29.2072 96.6367 28.4555 96.3358 27.6321C95.9839 26.6556 95.8127 25.6242 95.8303 24.5874C95.8242 23.7242 95.9723 22.8668 96.2677 22.0548C96.5462 21.291 96.9769 20.5905 97.5342 19.995C98.0961 19.3912 98.779 18.9101 99.5391 18.5824C100.38 18.2381 101.282 18.0658 102.191 18.0759ZM102.26 20.327C101.861 20.3044 101.461 20.362 101.085 20.4965C100.71 20.6309 100.365 20.8394 100.073 21.1093C99.5035 21.7233 99.149 22.5029 99.062 23.3324H105.065C105.066 22.9379 105.008 22.5455 104.895 22.1674C104.786 21.8202 104.611 21.4972 104.378 21.2162C104.139 20.9357 103.838 20.7141 103.498 20.569C103.111 20.4102 102.695 20.3335 102.277 20.3439L102.26 20.327Z" fill="#3D4A63"/>
<path d="M111.693 31.4365V13.2921H116.958C117.871 13.2793 118.781 13.3834 119.667 13.6016C120.356 13.7711 121.002 14.0796 121.564 14.5077C122.06 14.8895 122.451 15.3888 122.7 15.9597C122.955 16.5791 123.081 17.2436 123.069 17.9126C123.069 18.3851 122.984 18.8538 122.819 19.2971C122.642 19.7455 122.389 20.1605 122.07 20.524C121.738 20.9225 121.343 21.2647 120.9 21.537C120.406 21.8245 119.872 22.037 119.315 22.1673C120.541 22.2825 121.702 22.7699 122.638 23.5631C123.023 23.9416 123.323 24.3964 123.519 24.8978C123.715 25.3992 123.801 25.9358 123.774 26.4727C123.784 27.1861 123.643 27.8938 123.359 28.5494C123.091 29.1595 122.678 29.6963 122.155 30.114C121.582 30.5676 120.923 30.9043 120.218 31.1045C119.366 31.3404 118.484 31.4541 117.6 31.4422L111.693 31.4365ZM113.011 21.7846H116.987C117.721 21.8021 118.453 21.6936 119.15 21.4638C119.695 21.2815 120.197 20.9925 120.627 20.614C121.006 20.2866 121.304 19.8787 121.502 19.4209C121.682 18.9872 121.775 18.5225 121.774 18.0533C121.81 17.5318 121.723 17.0092 121.52 16.5268C121.317 16.0443 121.003 15.6152 120.604 15.2731C119.821 14.6484 118.617 14.3389 116.987 14.3332H113.011V21.7846ZM113.011 22.7414V30.401H117.606C119.219 30.401 120.434 30.0577 121.252 29.3711C121.667 29.0106 121.993 28.5613 122.207 28.0571C122.42 27.553 122.515 27.0073 122.484 26.4614C122.49 25.9279 122.377 25.3997 122.155 24.9138C121.932 24.4575 121.605 24.0587 121.201 23.7488C120.747 23.4071 120.23 23.1566 119.679 23.0115C119.007 22.8325 118.313 22.7454 117.617 22.7526L113.011 22.7414Z" fill="#3D4A63"/>
<path d="M129.924 14.2826C129.923 14.4304 129.89 14.5763 129.827 14.7103C129.763 14.8418 129.676 14.9616 129.572 15.0649C129.469 15.17 129.345 15.2524 129.208 15.3069C129.071 15.368 128.922 15.3987 128.771 15.397C128.619 15.3981 128.468 15.3674 128.328 15.3069C128.194 15.2497 128.073 15.1676 127.97 15.0649C127.863 14.9655 127.778 14.8446 127.72 14.7103C127.662 14.575 127.631 14.4297 127.63 14.2826C127.631 14.1301 127.662 13.9792 127.72 13.838C127.779 13.7009 127.863 13.5766 127.97 13.4722C128.074 13.3704 128.195 13.2883 128.328 13.2302C128.468 13.1697 128.619 13.139 128.771 13.1401C128.922 13.1384 129.071 13.1691 129.208 13.2302C129.344 13.2867 129.468 13.3689 129.572 13.4722C129.677 13.5796 129.763 13.7031 129.827 13.838C129.89 13.9782 129.923 14.1295 129.924 14.2826V14.2826ZM129.356 18.678V31.4366H128.129V18.678H129.356Z" fill="#3D4A63"/>
<path d="M138.966 18.4755C139.815 18.4636 140.657 18.6225 141.442 18.9426C142.153 19.2371 142.785 19.6919 143.288 20.2708C143.805 20.8777 144.191 21.5823 144.424 22.3419C144.7 23.2196 144.835 24.1352 144.822 25.0545C144.835 25.9702 144.701 26.8822 144.424 27.756C144.191 28.5138 143.805 29.2166 143.288 29.8214C142.784 30.3969 142.152 30.8494 141.442 31.144C139.85 31.7594 138.082 31.7594 136.49 31.144C135.78 30.8543 135.147 30.4077 134.638 29.8383C134.122 29.2335 133.735 28.5307 133.502 27.7728C132.98 26.0053 132.98 24.1263 133.502 22.3588C133.735 21.5992 134.122 20.8946 134.638 20.2877C135.145 19.7104 135.778 19.256 136.49 18.9595C137.273 18.6329 138.116 18.4682 138.966 18.4755V18.4755ZM138.966 30.6431C139.657 30.66 140.344 30.5255 140.977 30.2491C141.543 29.9991 142.037 29.6121 142.414 29.1235C142.815 28.5981 143.108 27.9996 143.277 27.362C143.657 25.843 143.657 24.2548 143.277 22.7358C143.11 22.0978 142.816 21.4991 142.414 20.9743C142.033 20.4897 141.54 20.1035 140.977 19.8487C139.688 19.3252 138.244 19.3252 136.956 19.8487C136.392 20.1035 135.899 20.4897 135.519 20.9743C135.115 21.5031 134.819 22.1055 134.65 22.7471C134.264 24.2654 134.264 25.8549 134.65 27.3733C134.821 28.0109 135.116 28.6093 135.519 29.1348C135.895 29.6233 136.389 30.0103 136.956 30.2604C137.589 30.5329 138.276 30.6636 138.966 30.6431V30.6431Z" fill="#3D4A63"/>
<path d="M148.195 31.4366V18.678H148.871C148.964 18.6701 149.057 18.6987 149.129 18.7576C149.201 18.8165 149.247 18.9011 149.257 18.9932V18.9932L149.376 20.918C149.938 20.2016 150.631 19.598 151.421 19.1395C152.214 18.6894 153.114 18.4581 154.028 18.4698C154.667 18.4588 155.301 18.5716 155.896 18.8018C156.414 19.0118 156.874 19.3418 157.237 19.7642C157.605 20.2092 157.878 20.7245 158.038 21.2781C158.227 21.9271 158.319 22.6004 158.31 23.2761V31.4366H157.078V23.2817C157.135 22.2781 156.845 21.2852 156.254 20.4677C155.939 20.1149 155.546 19.8393 155.106 19.6626C154.665 19.4858 154.189 19.4127 153.715 19.4491C152.884 19.444 152.068 19.6681 151.359 20.0963C150.603 20.5593 149.945 21.1633 149.422 21.8747V31.4422L148.195 31.4366Z" fill="#3D4A63"/>
<path d="M167.17 18.4754C167.859 18.4689 168.541 18.5951 169.181 18.8468C169.789 19.088 170.337 19.4566 170.788 19.9274C171.26 20.4326 171.621 21.0283 171.85 21.6777C172.113 22.446 172.241 23.2529 172.231 24.0639C172.243 24.1972 172.214 24.331 172.146 24.4466C172.114 24.4851 172.073 24.5151 172.026 24.5338C171.979 24.5525 171.929 24.5593 171.879 24.5536H162.593V24.7731C162.576 25.6273 162.689 26.4791 162.928 27.3C163.12 27.9661 163.446 28.5866 163.888 29.1235C164.287 29.6145 164.802 30.001 165.387 30.2491C166.01 30.5039 166.678 30.6303 167.352 30.6205C167.927 30.6329 168.501 30.5627 169.056 30.4123C169.47 30.2949 169.872 30.1365 170.254 29.9395C170.521 29.7974 170.777 29.6376 171.021 29.4611C171.139 29.3571 171.282 29.2853 171.436 29.2529C171.487 29.2507 171.538 29.2615 171.583 29.2841C171.629 29.3068 171.668 29.3406 171.697 29.3823L172.032 29.7876C171.798 30.0694 171.52 30.3126 171.209 30.5079C170.851 30.7344 170.47 30.923 170.073 31.0707C169.635 31.2349 169.185 31.3629 168.727 31.4534C168.251 31.5451 167.768 31.5922 167.284 31.5941C166.459 31.6042 165.64 31.4491 164.876 31.1383C164.156 30.8523 163.511 30.4077 162.99 29.8382C162.454 29.2196 162.044 28.5025 161.786 27.7277C161.489 26.7923 161.345 25.8156 161.36 24.835C161.35 23.9748 161.484 23.1188 161.758 22.3024C161.996 21.5672 162.383 20.8875 162.894 20.3045C163.399 19.7405 164.021 19.2913 164.717 18.9875C165.489 18.6465 166.325 18.4719 167.17 18.4754V18.4754ZM167.17 19.3871C166.564 19.3776 165.961 19.4807 165.393 19.691C164.881 19.887 164.416 20.1881 164.03 20.5746C163.643 20.9776 163.333 21.4467 163.115 21.9591C162.866 22.5358 162.707 23.1469 162.644 23.7713H171.118C171.129 23.1463 171.033 22.524 170.834 21.931C170.667 21.421 170.394 20.9514 170.033 20.5521C169.686 20.1858 169.264 19.8979 168.795 19.7079C168.286 19.495 167.74 19.3859 167.187 19.3871H167.17Z" fill="#3D4A63"/>
<path d="M179.177 31.6673C178.808 31.6858 178.438 31.6294 178.092 31.5017C177.745 31.3739 177.428 31.1775 177.161 30.9244C176.896 30.6225 176.695 30.2715 176.568 29.8918C176.441 29.5122 176.392 29.1113 176.422 28.7126V19.9893H174.571C174.487 19.9889 174.405 19.9612 174.338 19.9105C174.307 19.8832 174.283 19.8492 174.267 19.8112C174.251 19.7731 174.244 19.732 174.247 19.691V19.2183L176.445 19.0663L176.757 14.502C176.763 14.4234 176.798 14.3494 176.854 14.2938C176.882 14.2631 176.916 14.239 176.954 14.2234C176.993 14.2078 177.034 14.2011 177.076 14.2038H177.643V19.0776H181.704V19.9893H177.655V28.6394C177.649 28.9469 177.695 29.2532 177.791 29.5455C177.869 29.7767 177.997 29.9881 178.166 30.1646C178.324 30.3276 178.519 30.4511 178.734 30.5248C178.958 30.6036 179.195 30.6436 179.433 30.643C179.708 30.649 179.981 30.6032 180.239 30.5079C180.437 30.4254 180.627 30.3255 180.807 30.2096C180.948 30.1217 181.083 30.0239 181.21 29.917C181.275 29.8467 181.36 29.7992 181.454 29.7819C181.497 29.7868 181.538 29.8009 181.574 29.8233C181.611 29.8457 181.641 29.8757 181.665 29.9114L182 30.4741C181.649 30.8446 181.223 31.1379 180.75 31.3352C180.255 31.5544 179.719 31.6676 179.177 31.6673V31.6673Z" fill="#3D4A63"/>
<path d="M183.215 18.678H184.158C184.267 18.6721 184.374 18.7062 184.459 18.7737C184.527 18.8311 184.58 18.9046 184.612 18.9875L187.861 29.0503C187.918 29.2473 187.969 29.4386 188.003 29.6131L188.105 30.1759L188.247 29.6131C188.298 29.4105 188.361 29.2417 188.429 29.0503L191.882 18.92C191.899 18.8382 191.945 18.765 192.012 18.7135C192.078 18.662 192.161 18.6355 192.245 18.6386H192.751C192.836 18.6361 192.92 18.6626 192.988 18.7138C193.057 18.765 193.105 18.8378 193.126 18.92L196.533 29.0503C196.657 29.4198 196.762 29.7955 196.846 30.1759L196.954 29.6131C196.995 29.4218 197.05 29.2337 197.119 29.0503L200.379 18.9875C200.405 18.8946 200.463 18.8133 200.543 18.7571C200.622 18.7009 200.718 18.673 200.816 18.678H201.725L197.414 31.4366H196.511C196.369 31.4366 196.272 31.3465 196.21 31.1664L192.671 20.8335C192.632 20.7097 192.592 20.5803 192.558 20.4508C192.524 20.3214 192.49 20.1976 192.467 20.0681L192.382 20.4508C192.365 20.583 192.329 20.712 192.274 20.8335L188.701 31.1946C188.691 31.2692 188.653 31.3374 188.596 31.387C188.539 31.4366 188.465 31.4641 188.389 31.4647H187.526L183.215 18.678Z" fill="#3D4A63"/>
<path d="M209.131 18.4755C209.979 18.4636 210.822 18.6225 211.607 18.9426C212.317 19.2391 212.948 19.6936 213.453 20.2708C213.969 20.8777 214.356 21.5823 214.589 22.3419C214.865 23.2196 214.999 24.1352 214.986 25.0545C214.999 25.9702 214.865 26.8822 214.589 27.756C214.356 28.5138 213.969 29.2166 213.453 29.8214C212.948 30.3969 212.316 30.8494 211.607 31.144C210.014 31.7594 208.247 31.7594 206.654 31.144C205.945 30.8543 205.311 30.4077 204.803 29.8383C204.285 29.2342 203.899 28.5312 203.667 27.7728C203.144 26.0053 203.144 24.1263 203.667 22.3588C203.9 21.5992 204.286 20.8946 204.803 20.2877C205.309 19.7104 205.943 19.256 206.654 18.9595C207.438 18.6329 208.28 18.4682 209.131 18.4755V18.4755ZM209.131 30.6431C209.822 30.66 210.508 30.5255 211.141 30.2491C211.705 29.9943 212.198 29.6081 212.578 29.1235C212.98 28.5992 213.272 28.0001 213.436 27.362C213.822 25.8437 213.822 24.2542 213.436 22.7358C213.27 22.0981 212.979 21.4994 212.578 20.9743C212.196 20.4913 211.704 20.1054 211.141 19.8487C209.853 19.3252 208.408 19.3252 207.12 19.8487C206.556 20.1035 206.063 20.4897 205.683 20.9743C205.279 21.5031 204.984 22.1055 204.814 22.7471C204.428 24.2654 204.428 25.8549 204.814 27.3733C204.985 28.0109 205.28 28.6093 205.683 29.1348C206.059 29.6233 206.553 30.0103 207.12 30.2604C207.754 30.5329 208.44 30.6636 209.131 30.6431V30.6431Z" fill="#3D4A63"/>
<path d="M218.354 31.4366V18.678H219.001C219.115 18.6705 219.227 18.7023 219.319 18.7681C219.394 18.8539 219.432 18.9646 219.427 19.0776L219.535 21.7678C219.878 20.8374 220.445 20.0045 221.188 19.3421C221.899 18.7499 222.804 18.4374 223.732 18.4642C224.431 18.4486 225.121 18.6114 225.737 18.9369L225.567 19.7811C225.565 19.8107 225.557 19.8396 225.543 19.8661C225.53 19.8926 225.511 19.9162 225.488 19.9355C225.466 19.9549 225.439 19.9696 225.411 19.9788C225.383 19.9881 225.353 19.9916 225.323 19.9893C225.247 19.9839 225.172 19.9668 225.101 19.9387C225.005 19.8993 224.891 19.8655 224.743 19.8205C224.573 19.769 224.398 19.7314 224.221 19.7079C223.987 19.6666 223.749 19.6478 223.511 19.6517C223.07 19.6353 222.63 19.7066 222.218 19.8612C221.805 20.0159 221.428 20.2508 221.109 20.5521C220.403 21.2839 219.884 22.1712 219.592 23.141V31.4366H218.354Z" fill="#3D4A63"/>
<path d="M230.116 12.78V24.154H230.684C230.8 24.1544 230.915 24.1374 231.025 24.1034C231.16 24.0488 231.282 23.9663 231.383 23.8614L236.545 18.9988C236.632 18.9099 236.729 18.8324 236.835 18.7681C236.952 18.7055 237.083 18.6744 237.216 18.6781H238.3L232.621 24.0246C232.536 24.109 232.456 24.1934 232.377 24.261C232.299 24.3327 232.213 24.395 232.121 24.4467C232.248 24.5124 232.365 24.5958 232.468 24.6943C232.564 24.7844 232.661 24.8913 232.763 24.9982L238.732 31.4366H237.659C237.546 31.4405 237.434 31.4153 237.335 31.3634C237.227 31.3082 237.131 31.2338 237.051 31.1439L231.684 25.3978C231.57 25.2715 231.435 25.165 231.286 25.0827C231.105 25.0155 230.911 24.9868 230.718 24.9982H230.15V31.4366H228.918V12.78H230.116Z" fill="#3D4A63"/>
<path d="M248.722 20.2707C248.7 20.3264 248.661 20.3736 248.61 20.4059C248.559 20.4382 248.499 20.4539 248.438 20.4508C248.302 20.4333 248.174 20.3766 248.069 20.2876C247.888 20.1559 247.698 20.0356 247.501 19.9274C247.21 19.7813 246.906 19.6626 246.593 19.5729C246.166 19.454 245.724 19.399 245.281 19.4097C244.848 19.4044 244.418 19.471 244.008 19.6066C243.647 19.7324 243.312 19.9232 243.02 20.1694C242.758 20.3796 242.543 20.6423 242.39 20.9405C242.239 21.2271 242.161 21.5458 242.163 21.8691C242.147 22.227 242.257 22.5792 242.475 22.8652C242.698 23.1417 242.974 23.3713 243.287 23.5406C243.647 23.7437 244.028 23.9078 244.423 24.0302L245.735 24.441C246.184 24.5761 246.621 24.7281 247.047 24.8913C247.451 25.0513 247.832 25.2612 248.183 25.516C248.516 25.7597 248.792 26.0704 248.995 26.4277C249.21 26.8269 249.312 27.276 249.29 27.7278C249.295 28.2608 249.191 28.7892 248.984 29.2811C248.802 29.7552 248.519 30.1851 248.154 30.5417C247.739 30.9069 247.257 31.1897 246.735 31.3747C246.12 31.588 245.472 31.6909 244.821 31.6786C244.019 31.7005 243.222 31.5547 242.481 31.2509C241.837 30.9705 241.243 30.5906 240.72 30.1253L241.015 29.6863C241.05 29.6255 241.099 29.5735 241.157 29.5343C241.224 29.4951 241.301 29.4774 241.379 29.4837C241.536 29.5043 241.681 29.5755 241.793 29.6863C241.993 29.854 242.208 30.0029 242.435 30.1309C242.748 30.3097 243.077 30.4586 243.418 30.5755C243.888 30.7214 244.379 30.7898 244.872 30.7781C245.36 30.7882 245.847 30.7119 246.309 30.553C246.691 30.4217 247.043 30.215 247.342 29.9452C247.616 29.6914 247.831 29.3824 247.973 29.0391C248.115 28.6926 248.187 28.3214 248.183 27.9473C248.197 27.5677 248.089 27.1936 247.876 26.8779C247.645 26.5785 247.353 26.3311 247.019 26.1519C246.66 25.943 246.279 25.7749 245.883 25.6511C245.457 25.516 245.019 25.3753 244.565 25.2402C244.111 25.1051 243.673 24.9532 243.247 24.79C242.841 24.6395 242.459 24.433 242.111 24.1765C241.795 23.9293 241.532 23.6211 241.339 23.2704C241.117 22.8652 241.01 22.4085 241.027 21.9479C241.027 21.4946 241.128 21.047 241.322 20.6366C241.523 20.2075 241.811 19.8243 242.168 19.511C242.565 19.1807 243.019 18.9251 243.509 18.7568C244.079 18.565 244.678 18.4699 245.281 18.4754C245.992 18.4633 246.7 18.5776 247.371 18.8131C248.002 19.043 248.581 19.395 249.075 19.8486L248.722 20.2707Z" fill="#3D4A63"/>
<path d="M11.4783 27.5307C11.4218 27.5332 11.3659 27.5174 11.3193 27.4857L0.147695 20.7828C0.102684 20.7545 0.0655511 20.7155 0.0397484 20.6693C0.0139457 20.623 0.000295447 20.5711 2.24254e-05 20.5183V8.02991C-0.000635008 7.9755 0.013173 7.92188 0.040095 7.87445C0.0670171 7.82703 0.106113 7.78747 0.15338 7.75977C0.201533 7.73463 0.255119 7.7215 0.309545 7.7215C0.363971 7.7215 0.417593 7.73463 0.465745 7.75977L11.4953 14.17C11.5418 14.1972 11.5803 14.2359 11.6071 14.2822C11.634 14.3286 11.6483 14.3811 11.6487 14.4345L11.7907 27.2156C11.7902 27.2704 11.7752 27.3242 11.7473 27.3716C11.7194 27.4189 11.6796 27.4583 11.6316 27.4857C11.5859 27.515 11.5327 27.5306 11.4783 27.5307ZM0.619068 20.3439L11.1602 26.6753L11.0296 14.6427L0.619068 8.59271V20.3439Z" fill="#679DBF"/>
<path d="M11.484 27.2156C11.4431 27.2128 11.4033 27.2019 11.3668 27.1835C11.3302 27.1652 11.2978 27.1398 11.2713 27.1089C11.2449 27.0779 11.2249 27.0421 11.2127 27.0034C11.2004 26.9647 11.1961 26.9239 11.2 26.8835C11.2015 26.8375 11.2141 26.7925 11.2369 26.7524C11.2596 26.7122 11.2918 26.678 11.3306 26.6528L20.8268 21.1824C20.8952 21.1454 20.9751 21.135 21.0509 21.1533C21.1266 21.1717 21.1927 21.2175 21.2361 21.2817C21.2796 21.3458 21.2972 21.4238 21.2855 21.5002C21.2739 21.5766 21.2338 21.6459 21.1732 21.6946H21.1391L17.9132 23.5518L11.6657 27.1593C11.6119 27.1951 11.5488 27.2146 11.484 27.2156V27.2156Z" fill="#679DBF"/>
<path d="M22.5817 46.1593C22.5251 46.1618 22.4693 46.146 22.4226 46.1143L11.4896 39.6534C11.4413 39.6312 11.4 39.5964 11.37 39.5528C11.34 39.5093 11.3224 39.4584 11.3192 39.4058L11.1488 27.2382C11.1482 27.1838 11.162 27.1301 11.1889 27.0827C11.2158 27.0353 11.2549 26.9957 11.3021 26.968C11.3494 26.9403 11.4034 26.9257 11.4583 26.9257C11.5133 26.9257 11.5673 26.9403 11.6145 26.968L22.6782 33.0912C22.7278 33.1152 22.7692 33.153 22.7974 33.2C22.8257 33.247 22.8395 33.3011 22.8372 33.3557L22.911 45.8216C22.9106 45.8765 22.8956 45.9302 22.8677 45.9776C22.8399 46.025 22.8 46.0643 22.752 46.0918C22.7037 46.1313 22.6442 46.1549 22.5817 46.1593V46.1593ZM11.9553 39.2144L22.2693 45.2813L22.2011 33.5358L11.7963 27.7559L11.9553 39.2144Z" fill="#679DBF"/>
<path d="M24.5639 46.103C24.5119 46.1041 24.4606 46.0904 24.4162 46.0636C24.368 46.0374 24.3275 45.9992 24.2986 45.9529C24.2698 45.9065 24.2535 45.8535 24.2515 45.7991L24.0981 33.3557C24.0986 33.3009 24.1136 33.2471 24.1414 33.1997C24.1693 33.1523 24.2092 33.113 24.2572 33.0856L35.2413 26.7935C35.2886 26.7658 35.3426 26.7512 35.3975 26.7512C35.4525 26.7512 35.5064 26.7658 35.5537 26.7935C35.601 26.8225 35.64 26.8632 35.6669 26.9115C35.6938 26.9598 35.7076 27.0141 35.7071 27.0693L35.4345 39.4508C35.4322 39.503 35.417 39.554 35.3902 39.5991C35.3635 39.6442 35.326 39.6822 35.2811 39.7097L24.7286 46.0749C24.677 46.0981 24.6203 46.1078 24.5639 46.103ZM24.7229 33.5358L24.8706 45.2475L34.8154 39.2594L35.071 27.6096L24.7229 33.5358Z" fill="#6DB46C"/>
<path d="M35.2699 27.0749C35.2143 27.0761 35.1594 27.0625 35.1109 27.0355L25.5864 21.6215C25.5531 21.5975 25.525 21.5673 25.5035 21.5325C25.4821 21.4977 25.4678 21.4591 25.4615 21.4188C25.4552 21.3786 25.4569 21.3375 25.4667 21.2979C25.4764 21.2583 25.4939 21.221 25.5182 21.1881C25.5606 21.1326 25.6204 21.0925 25.6882 21.0742C25.756 21.0558 25.8281 21.0603 25.8931 21.0868V21.0868L29.1134 22.9159L35.4006 26.4896C35.472 26.5308 35.524 26.5983 35.5453 26.6774C35.5666 26.7566 35.5554 26.8408 35.5141 26.9117C35.4894 26.9561 35.4543 26.9941 35.4119 27.0225C35.3694 27.0508 35.3208 27.0688 35.2699 27.0749V27.0749Z" fill="#6DB46C"/>
<path d="M35.5081 27.165C35.4565 27.1633 35.4059 27.1498 35.3604 27.1256C35.314 27.0979 35.2752 27.0592 35.2474 27.0131C35.2197 26.9669 35.2039 26.9147 35.2014 26.8611L35.0424 14.3276C35.0443 14.2802 35.0571 14.2337 35.0797 14.1918C35.1023 14.1499 35.1342 14.1136 35.173 14.0856L46.0379 7.78797C46.085 7.76284 46.1377 7.74969 46.1912 7.74969C46.2447 7.74969 46.2974 7.76284 46.3445 7.78797C46.3939 7.80929 46.437 7.84267 46.4698 7.885C46.5026 7.92733 46.524 7.97721 46.532 8.02997V20.5296C46.5326 20.584 46.5188 20.6377 46.4919 20.6851C46.4649 20.7325 46.4259 20.7721 46.3786 20.7998L35.6671 27.1143C35.6198 27.1455 35.5648 27.163 35.5081 27.165ZM35.6671 14.4965L35.8148 26.3152L45.9016 20.3552V8.53648L35.6671 14.4965Z" fill="#6DB46C"/>
<path d="M34.6563 12.8644C34.6007 12.8655 34.5458 12.8519 34.4973 12.825L23.5699 6.63424C23.522 6.60682 23.4821 6.56747 23.4542 6.52009C23.4263 6.47271 23.4114 6.41894 23.4109 6.3641C23.4114 6.30857 23.4269 6.25419 23.4559 6.20666C23.4849 6.15913 23.5262 6.1202 23.5756 6.09395L34.679 0.150847C34.7252 0.125723 34.7769 0.112549 34.8296 0.112549C34.8822 0.112549 34.9339 0.125723 34.98 0.150847L45.6802 5.88572C45.7181 5.90209 45.7522 5.92586 45.7805 5.9556C45.8088 5.98534 45.8308 6.02044 45.8451 6.0588C45.8595 6.09717 45.8658 6.138 45.8638 6.17885C45.8618 6.2197 45.8516 6.25974 45.8336 6.29656C45.8043 6.36498 45.7493 6.41945 45.6802 6.44852L34.8097 12.8193C34.764 12.8486 34.7107 12.8642 34.6563 12.8644ZM24.3821 6.39224L34.6677 12.2003L44.8908 6.16712L34.8267 0.758665L24.3821 6.39224Z" fill="#EA812F"/>
<path d="M23.4962 17.7101C23.4134 17.7101 23.3339 17.6774 23.2753 17.6194C23.2167 17.5614 23.1838 17.4826 23.1838 17.4005V13.703V6.51608C23.1838 6.43495 23.2159 6.35706 23.2733 6.29917C23.3307 6.24128 23.4087 6.20802 23.4905 6.20654V6.20654C23.5734 6.20654 23.6528 6.23915 23.7114 6.2972C23.77 6.35525 23.8029 6.43399 23.8029 6.51608V17.4005C23.8029 17.4826 23.77 17.5614 23.7114 17.6194C23.6528 17.6774 23.5734 17.7101 23.4905 17.7101H23.4962Z" fill="#EA812F"/>
<path d="M12.5405 12.9938C12.4849 12.9949 12.43 12.9813 12.3815 12.9544L1.45409 6.76367C1.40615 6.73624 1.36627 6.6969 1.33838 6.64952C1.31049 6.60214 1.29554 6.54837 1.29505 6.49352C1.29477 6.43927 1.30946 6.38597 1.33748 6.33936C1.3655 6.29275 1.40581 6.2546 1.45409 6.22901L12.5461 0.0382723C12.5933 0.0131498 12.646 0 12.6995 0C12.753 0 12.8057 0.0131498 12.8529 0.0382723L23.5701 6.11645C23.6079 6.13282 23.642 6.15659 23.6703 6.18633C23.6987 6.21607 23.7207 6.25117 23.735 6.28954C23.7493 6.3279 23.7557 6.36873 23.7537 6.40958C23.7517 6.45044 23.7414 6.49047 23.7234 6.52729C23.6941 6.59571 23.6391 6.65018 23.5701 6.67925L12.6938 12.9544C12.6473 12.9811 12.5943 12.9948 12.5405 12.9938V12.9938ZM2.23218 6.51604L12.5291 12.3297L22.792 6.38659L12.6938 0.713626L2.23218 6.51604Z" fill="#EA812F"/>
</svg>
