<svg width="251" height="47" viewBox="0 0 251 47" fill="none" xmlns="http://www.w3.org/2000/svg">
<path d="M66.5554 16.7918C66.4819 16.9506 66.3685 17.0882 66.2261 17.1913C66.0903 17.2703 65.9347 17.3093 65.7774 17.3039C65.5736 17.29 65.3774 17.222 65.2094 17.1069C64.9936 16.9718 64.738 16.8255 64.4427 16.6623C64.1155 16.4828 63.7711 16.3358 63.4147 16.2233C62.5514 15.9632 61.6311 15.9535 60.7624 16.1952C60.4323 16.2963 60.1254 16.4608 59.8593 16.6792C59.6103 16.8736 59.4149 17.1272 59.2914 17.4165C59.1663 17.7141 59.1044 18.034 59.1096 18.3563C59.0998 18.7519 59.2304 19.1383 59.4788 19.4481C59.7518 19.7572 60.0838 20.0097 60.4557 20.191C60.9019 20.4146 61.3653 20.6028 61.8415 20.7538C62.3583 20.917 62.8865 21.0859 63.4261 21.2716C63.9674 21.4591 64.4982 21.6752 65.0163 21.9188C65.5226 22.1554 65.9899 22.4666 66.4021 22.8418C66.8102 23.2188 67.1417 23.6696 67.379 24.17C67.6402 24.7917 67.766 25.461 67.7482 26.1341C67.7543 26.9387 67.6059 27.737 67.3108 28.4866C67.0324 29.2056 66.6004 29.8565 66.0443 30.3945C65.4615 30.9573 64.7672 31.3943 64.0054 31.6777C63.1249 32.0035 62.1905 32.1619 61.2508 32.1448C60.6598 32.1449 60.0702 32.0884 59.4901 31.9759C58.9214 31.8615 58.3643 31.6958 57.8261 31.4807C57.3065 31.2711 56.8082 31.0129 56.338 30.7097C55.8925 30.4221 55.4794 30.0882 55.1056 29.7135L56.1165 28.0589C56.2088 27.9363 56.3246 27.833 56.4573 27.755C56.5936 27.6768 56.7485 27.636 56.906 27.6368C57.1596 27.6527 57.4027 27.7428 57.6046 27.8957C57.8545 28.0702 58.1725 28.2671 58.4906 28.4585C58.8732 28.6832 59.2763 28.8716 59.6946 29.0213C60.2267 29.2079 60.7889 29.2957 61.353 29.2802C62.1705 29.3595 62.9893 29.1437 63.6589 28.6723C63.9359 28.4191 64.1525 28.1078 64.2929 27.7613C64.4334 27.4147 64.4943 27.0415 64.4711 26.6688C64.4935 26.2404 64.3627 25.818 64.1019 25.4757C63.8371 25.1495 63.5037 24.8845 63.125 24.699C62.685 24.4665 62.2227 24.2779 61.7449 24.1362C61.2224 23.9955 60.6999 23.8323 60.166 23.6635C59.6267 23.4913 59.0993 23.2845 58.5871 23.0444C58.0761 22.809 57.6078 22.4914 57.2013 22.1045C56.7761 21.6985 56.4431 21.2073 56.2244 20.6638C55.9704 19.9858 55.8546 19.2647 55.8837 18.542C55.885 17.8631 56.024 17.1913 56.2926 16.5666C56.5706 15.931 56.9742 15.3569 57.4796 14.8783C58.0368 14.36 58.6908 13.9547 59.405 13.6851C60.2347 13.3705 61.118 13.2176 62.0062 13.2349C63.0461 13.2232 64.0794 13.3986 65.0561 13.7527C65.9299 14.0576 66.7305 14.5386 67.4074 15.1653L66.5554 16.7918Z" fill="#3D4A63"/>
<path d="M80.7595 31.959H79.3226C79.0748 31.971 78.8276 31.9247 78.6013 31.824C78.5024 31.7603 78.4172 31.6778 78.3509 31.5812C78.2846 31.4845 78.2384 31.3757 78.2151 31.2612L77.9311 30.3269C77.6153 30.6082 77.2835 30.8713 76.9372 31.1148C76.6231 31.3339 76.2883 31.5223 75.9376 31.6776C75.5852 31.8359 75.2155 31.953 74.8358 32.0266C74.4089 32.1061 73.9752 32.1438 73.5409 32.1391C73.0154 32.1435 72.4924 32.0676 71.9903 31.914C71.5386 31.7796 71.1219 31.5491 70.7693 31.2387C70.4211 30.9284 70.1492 30.5434 69.9741 30.1131C69.7751 29.6175 69.6786 29.0874 69.6901 28.5541C69.6963 28.0381 69.8309 27.5317 70.082 27.0796C70.3996 26.539 70.8512 26.0876 71.394 25.7683C72.1527 25.3185 72.9791 24.9918 73.8419 24.8003C75.0841 24.5195 76.3561 24.3891 77.6301 24.412V23.6691C77.6854 22.9662 77.4838 22.2671 77.0621 21.6993C76.8538 21.4801 76.5991 21.3094 76.3163 21.1994C76.0335 21.0895 75.7296 21.043 75.4264 21.0633C74.9876 21.05 74.5497 21.1109 74.1315 21.2434C73.8201 21.3477 73.5196 21.4815 73.2342 21.643C72.9786 21.795 72.7457 21.93 72.5299 22.0482C72.3101 22.1662 72.0642 22.2281 71.8143 22.2283C71.6113 22.2357 71.4116 22.1763 71.2463 22.0595C71.0917 21.9523 70.9635 21.8119 70.8715 21.6486L70.3035 20.6356C71.8063 19.2502 73.7946 18.4993 75.8467 18.542C76.5567 18.5305 77.2616 18.6607 77.9197 18.9247C78.5047 19.1594 79.0317 19.5165 79.4646 19.9715C79.8987 20.4336 80.2278 20.9824 80.4301 21.5811C80.6553 22.2427 80.7666 22.9371 80.7595 23.6353V31.959ZM74.5518 29.9836C74.8553 29.9874 75.1582 29.9572 75.4549 29.8936C75.7259 29.8369 75.989 29.7481 76.2386 29.6291C76.49 29.5097 76.7279 29.3644 76.9486 29.1957C77.194 29.0079 77.4256 28.8029 77.6415 28.5823V26.3817C76.8596 26.3694 76.0783 26.4278 75.3072 26.5562C74.7889 26.6423 74.2834 26.7917 73.8021 27.0008C73.4786 27.1366 73.198 27.3563 72.9899 27.6368C72.7964 27.9472 72.7166 28.3143 72.7642 28.6761C72.8118 29.038 72.9838 29.3725 73.2512 29.6234C73.6345 29.8786 74.0905 30.0049 74.5518 29.9836Z" fill="#3D4A63"/>
<path d="M88.6258 18.5758C89.1664 18.57 89.7057 18.6267 90.2331 18.7446C90.7097 18.8535 91.1699 19.0238 91.6019 19.2511H95.4185V20.433C95.4292 20.6006 95.3743 20.7659 95.2651 20.8945C95.1188 21.0259 94.9335 21.1068 94.7369 21.1252L93.5442 21.3447C93.7254 21.8195 93.8177 22.3229 93.8168 22.8305C93.826 23.4254 93.6971 24.0144 93.4401 24.552C93.1831 25.0897 92.8048 25.5617 92.3345 25.9315C91.846 26.3155 91.2893 26.6056 90.6931 26.7869C90.0233 26.9898 89.3262 27.0903 88.6258 27.0852C88.1358 27.0861 87.6468 27.039 87.1662 26.9445C86.7516 27.1978 86.5471 27.4735 86.5471 27.7831C86.5461 27.9025 86.5805 28.0195 86.6462 28.1196C86.7118 28.2196 86.8058 28.2984 86.9163 28.3459C87.221 28.4867 87.5473 28.5761 87.8818 28.6104C88.3359 28.6648 88.7931 28.6912 89.2505 28.6892C90.3009 28.6771 91.3497 28.7733 92.3799 28.9762C92.8588 29.0714 93.3191 29.2424 93.743 29.4827C94.1406 29.7135 94.4743 30.0384 94.7142 30.4282C94.9763 30.9073 95.1001 31.4486 95.072 31.9928C95.0699 32.5821 94.9217 33.1619 94.6404 33.6812C94.3245 34.2535 93.8911 34.7538 93.3682 35.1501C92.762 35.6055 92.0822 35.9557 91.3576 36.1856C90.4768 36.4548 89.5589 36.5859 88.6371 36.5739C87.7538 36.5886 86.8721 36.4922 86.0132 36.2869C85.3592 36.1327 84.7354 35.8722 84.1674 35.5159C83.7178 35.233 83.3438 34.8469 83.0769 34.3903C82.8384 33.9958 82.7127 33.5445 82.7134 33.0846C82.6972 32.5142 82.9002 31.959 83.2814 31.5313C83.7182 31.077 84.2601 30.7351 84.8603 30.5352C84.5429 30.3609 84.2721 30.1139 84.0708 29.8148C83.8603 29.4631 83.7576 29.0583 83.7755 28.6498C83.7753 28.443 83.8098 28.2376 83.8777 28.042C83.9514 27.8191 84.0586 27.6085 84.1958 27.4173C84.3496 27.2086 84.5289 27.0195 84.7296 26.8545C84.9656 26.6629 85.2229 26.4987 85.4964 26.3648C84.8494 26.0317 84.3012 25.537 83.9061 24.9297C83.3948 24.0975 83.2084 23.1087 83.3821 22.1498C83.5557 21.1908 84.0775 20.3279 84.8489 19.7239C85.3552 19.3314 85.934 19.0408 86.5528 18.8684C87.2254 18.6698 87.924 18.5712 88.6258 18.5758ZM92.1357 32.5106C92.1436 32.2751 92.0603 32.0455 91.9029 31.869C91.725 31.6925 91.5068 31.5612 91.2668 31.4863C90.963 31.3831 90.6488 31.3133 90.3297 31.278C89.9524 31.2376 89.5732 31.217 89.1938 31.2161H87.9556C87.5388 31.2172 87.1232 31.17 86.7175 31.0754C86.3831 31.2498 86.0861 31.4868 85.8428 31.7733C85.6285 32.0361 85.5122 32.364 85.5134 32.7019C85.5145 32.9291 85.5752 33.1521 85.6895 33.3491C85.8276 33.5698 86.024 33.7489 86.2574 33.8669C86.567 34.0311 86.9004 34.1469 87.2457 34.2102C87.737 34.2947 88.2351 34.3342 88.7337 34.3284C89.25 34.3342 89.7656 34.289 90.2728 34.1933C90.646 34.122 91.006 33.9948 91.3406 33.8162C91.5924 33.6846 91.8057 33.4908 91.9597 33.2534C92.0857 33.0264 92.1466 32.7695 92.1357 32.5106ZM88.6258 25.0592C88.9788 25.066 89.3303 25.0127 89.6651 24.9016C89.9369 24.8069 90.1848 24.6552 90.3921 24.457C90.5882 24.2669 90.7394 24.0363 90.8351 23.7816C90.935 23.5015 90.985 23.2064 90.9828 22.9093C90.9999 22.6265 90.9584 22.3433 90.8607 22.0771C90.763 21.8109 90.6113 21.5674 90.4148 21.3616C89.9018 20.9911 89.2833 20.7914 88.6485 20.7914C88.0137 20.7914 87.3952 20.9911 86.8822 21.3616C86.6858 21.5674 86.534 21.8109 86.4363 22.0771C86.3386 22.3433 86.2971 22.6265 86.3142 22.9093C86.3092 23.2011 86.3593 23.4912 86.4619 23.7647C86.5539 24.0232 86.7034 24.2578 86.8992 24.4513C87.1089 24.6534 87.361 24.8072 87.6375 24.9016C87.9561 25.0072 88.2899 25.0604 88.6258 25.0592Z" fill="#3D4A63"/>
<path d="M103.023 18.5983C103.812 18.5923 104.595 18.7276 105.335 18.9979C106.017 19.2516 106.637 19.6468 107.152 20.1573C107.68 20.7006 108.085 21.3491 108.339 22.0595C108.641 22.8698 108.787 23.7286 108.771 24.5921C108.771 24.7802 108.76 24.9681 108.737 25.1549C108.726 25.2878 108.685 25.4166 108.618 25.5319C108.565 25.6167 108.488 25.6836 108.396 25.7233C108.28 25.7647 108.156 25.7838 108.033 25.7796H99.8429C99.8351 26.8696 100.227 27.9254 100.945 28.7511C101.28 29.0735 101.678 29.3243 102.114 29.488C102.551 29.6516 103.017 29.7245 103.483 29.7023C103.935 29.7103 104.385 29.6496 104.818 29.5222C105.155 29.4157 105.484 29.284 105.801 29.1282C106.085 28.9819 106.329 28.8468 106.539 28.7286C106.726 28.6166 106.94 28.5546 107.158 28.5485C107.275 28.5485 107.389 28.5754 107.493 28.6273C107.588 28.6814 107.672 28.7542 107.737 28.8412L108.669 29.9668C108.326 30.3669 107.926 30.7157 107.482 31.0023C107.048 31.2739 106.585 31.4966 106.102 31.6664C105.629 31.8353 105.14 31.9542 104.642 32.021C104.164 32.0884 103.682 32.1223 103.2 32.1223C102.319 32.1292 101.445 31.9746 100.621 31.6664C99.8442 31.3855 99.1386 30.9399 98.5537 30.3607C97.9409 29.7296 97.4688 28.978 97.1679 28.1546C96.816 27.178 96.6447 26.1466 96.6624 25.1098C96.6562 24.2467 96.8043 23.3893 97.0997 22.5773C97.3782 21.8135 97.8089 21.1129 98.3662 20.5174C98.9282 19.9136 99.611 19.4325 100.371 19.1048C101.212 18.7606 102.114 18.5883 103.023 18.5983ZM103.092 20.8495C102.693 20.8268 102.293 20.8845 101.918 21.0189C101.542 21.1534 101.197 21.3619 100.905 21.6318C100.336 22.2458 99.981 23.0254 99.894 23.8548H105.897C105.898 23.4604 105.84 23.068 105.727 22.6898C105.618 22.3427 105.443 22.0197 105.21 21.7387C104.971 21.4582 104.67 21.2366 104.33 21.0915C103.943 20.9327 103.527 20.856 103.109 20.8664L103.092 20.8495Z" fill="#3D4A63"/>
<path d="M112.525 31.959V13.8145H117.79C118.703 13.8018 119.613 13.9058 120.499 14.1241C121.188 14.2936 121.834 14.602 122.396 15.0302C122.892 15.4119 123.283 15.9113 123.532 16.4822C123.788 17.1016 123.913 17.766 123.901 18.4351C123.901 18.9075 123.816 19.3762 123.651 19.8195C123.474 20.268 123.221 20.683 122.902 21.0464C122.57 21.445 122.175 21.7872 121.732 22.0595C121.238 22.347 120.704 22.5594 120.147 22.6898C121.373 22.8049 122.534 23.2924 123.47 24.0855C123.855 24.464 124.155 24.9189 124.351 25.4202C124.547 25.9216 124.633 26.4583 124.606 26.9952C124.617 27.7086 124.475 28.4163 124.191 29.0719C123.923 29.682 123.51 30.2188 122.987 30.6364C122.414 31.0901 121.755 31.4268 121.05 31.627C120.198 31.8628 119.316 31.9765 118.432 31.9646L112.525 31.959ZM113.843 22.3071H117.819C118.553 22.3246 119.285 22.216 119.982 21.9863C120.527 21.804 121.029 21.515 121.459 21.1365C121.838 20.809 122.136 20.4012 122.334 19.9433C122.514 19.5097 122.607 19.045 122.606 18.5758C122.642 18.0542 122.555 17.5317 122.352 17.0492C122.149 16.5668 121.835 16.1376 121.436 15.7956C120.653 15.1709 119.449 14.8613 117.819 14.8557H113.843V22.3071ZM113.843 23.2638V30.9235H118.438C120.051 30.9235 121.266 30.5802 122.084 29.8936C122.499 29.5331 122.825 29.0837 123.039 28.5796C123.252 28.0755 123.347 27.5298 123.316 26.9839C123.322 26.4504 123.209 25.9221 122.987 25.4362C122.764 24.98 122.437 24.5812 122.033 24.2712C121.579 23.9295 121.062 23.6791 120.511 23.534C119.839 23.355 119.145 23.2679 118.449 23.2751L113.843 23.2638Z" fill="#3D4A63"/>
<path d="M130.756 14.8051C130.755 14.9529 130.722 15.0987 130.66 15.2328C130.595 15.3642 130.508 15.4841 130.404 15.5874C130.301 15.6924 130.177 15.7749 130.04 15.8294C129.903 15.8904 129.754 15.9212 129.603 15.9194C129.451 15.9206 129.3 15.8899 129.16 15.8294C129.026 15.7722 128.905 15.69 128.802 15.5874C128.695 15.4879 128.61 15.3671 128.552 15.2328C128.494 15.0975 128.463 14.9522 128.462 14.8051C128.463 14.6525 128.494 14.5016 128.552 14.3605C128.611 14.2234 128.695 14.099 128.802 13.9947C128.906 13.8928 129.027 13.8108 129.16 13.7527C129.3 13.6921 129.451 13.6615 129.603 13.6626C129.754 13.6609 129.903 13.6916 130.04 13.7527C130.176 13.8092 130.3 13.8914 130.404 13.9947C130.509 14.102 130.595 14.2256 130.66 14.3605C130.722 14.5006 130.755 14.6519 130.756 14.8051ZM130.188 19.2005V31.9591H128.961V19.2005H130.188Z" fill="#3D4A63"/>
<path d="M139.798 18.9979C140.647 18.9861 141.489 19.145 142.274 19.465C142.985 19.7596 143.617 20.2144 144.12 20.7932C144.637 21.4001 145.023 22.1048 145.256 22.8643C145.532 23.7421 145.667 24.6576 145.654 25.577C145.667 26.4927 145.533 27.4046 145.256 28.2784C145.023 29.0363 144.637 29.7391 144.12 30.3439C143.616 30.9193 142.984 31.3719 142.274 31.6664C140.682 32.2818 138.914 32.2818 137.322 31.6664C136.612 31.3768 135.979 30.9302 135.47 30.3608C134.954 29.756 134.567 29.0532 134.335 28.2953C133.812 26.5277 133.812 24.6488 134.335 22.8812C134.567 22.1217 134.954 21.417 135.47 20.8101C135.977 20.2328 136.61 19.7784 137.322 19.4819C138.106 19.1553 138.948 18.9906 139.798 18.9979ZM139.798 31.1655C140.489 31.1825 141.176 31.048 141.809 30.7716C142.375 30.5216 142.869 30.1345 143.246 29.646C143.647 29.1206 143.94 28.522 144.109 27.8845C144.489 26.3654 144.489 24.7773 144.109 23.2583C143.942 22.6203 143.648 22.0215 143.246 21.4967C142.865 21.0122 142.372 20.626 141.809 20.3711C140.52 19.8476 139.076 19.8476 137.788 20.3711C137.224 20.626 136.731 21.0122 136.351 21.4967C135.947 22.0256 135.651 22.6279 135.482 23.2695C135.096 24.7879 135.096 26.3774 135.482 27.8957C135.653 28.5334 135.948 29.1318 136.351 29.6573C136.727 30.1458 137.221 30.5328 137.788 30.7828C138.421 31.0554 139.108 31.186 139.798 31.1655Z" fill="#3D4A63"/>
<path d="M149.027 31.959V19.2005H149.703C149.796 19.1926 149.889 19.2212 149.961 19.2801C150.033 19.339 150.079 19.4235 150.089 19.5157L150.208 21.4404C150.77 20.7241 151.463 20.1205 152.253 19.662C153.046 19.2118 153.946 18.9806 154.86 18.9923C155.499 18.9812 156.133 19.094 156.728 19.3243C157.246 19.5342 157.706 19.8643 158.069 20.2867C158.438 20.7317 158.71 21.2469 158.87 21.8006C159.059 22.4496 159.151 23.1229 159.142 23.7985V31.959H157.91V23.8041C157.967 22.8005 157.677 21.8076 157.086 20.9902C156.771 20.6374 156.378 20.3618 155.938 20.185C155.497 20.0083 155.021 19.9352 154.548 19.9715C153.716 19.9665 152.9 20.1906 152.191 20.6187C151.435 21.0818 150.777 21.6858 150.254 22.3972V31.9647L149.027 31.959Z" fill="#3D4A63"/>
<path d="M168.002 18.9979C168.691 18.9914 169.373 19.1176 170.013 19.3693C170.621 19.6105 171.169 19.9791 171.62 20.4499C172.092 20.955 172.453 21.5508 172.682 22.2002C172.945 22.9684 173.073 23.7754 173.063 24.5864C173.075 24.7197 173.046 24.8535 172.978 24.9691C172.946 25.0076 172.905 25.0376 172.858 25.0562C172.811 25.0749 172.761 25.0817 172.711 25.076H163.425V25.2955C163.408 26.1497 163.521 27.0016 163.76 27.8225C163.952 28.4886 164.278 29.109 164.72 29.6459C165.119 30.137 165.634 30.5235 166.219 30.7715C166.842 31.0264 167.51 31.1527 168.184 31.143C168.759 31.1553 169.333 31.0852 169.888 30.9347C170.302 30.8173 170.704 30.659 171.086 30.462C171.353 30.3199 171.609 30.16 171.853 29.9836C171.971 29.8795 172.114 29.8077 172.268 29.7754C172.319 29.7732 172.37 29.7839 172.415 29.8066C172.461 29.8292 172.5 29.863 172.529 29.9048L172.864 30.31C172.63 30.5919 172.352 30.835 172.041 31.0304C171.683 31.2569 171.302 31.4455 170.905 31.5932C170.467 31.7573 170.017 31.8853 169.559 31.9759C169.083 32.0676 168.6 32.1147 168.116 32.1166C167.291 32.1266 166.472 31.9716 165.708 31.6607C164.988 31.3748 164.343 30.9302 163.822 30.3607C163.286 29.742 162.876 29.025 162.618 28.2502C162.321 27.3147 162.177 26.3381 162.192 25.3574C162.182 24.4972 162.316 23.6413 162.59 22.8249C162.828 22.0896 163.215 21.41 163.726 20.8269C164.231 20.263 164.853 19.8137 165.549 19.51C166.321 19.1689 167.157 18.9943 168.002 18.9979ZM168.002 19.9096C167.396 19.9001 166.793 20.0032 166.225 20.2135C165.713 20.4094 165.248 20.7105 164.862 21.0971C164.475 21.5001 164.165 21.9691 163.947 22.4816C163.698 23.0582 163.539 23.6694 163.476 24.2938H171.95C171.961 23.6688 171.865 23.0465 171.666 22.4534C171.499 21.9435 171.226 21.4738 170.865 21.0746C170.518 20.7083 170.096 20.4204 169.627 20.2304C169.118 20.0175 168.572 19.9084 168.019 19.9096H168.002Z" fill="#3D4A63"/>
<path d="M180.009 32.1897C179.64 32.2082 179.27 32.1519 178.924 32.0241C178.577 31.8964 178.26 31.7 177.993 31.4468C177.728 31.1449 177.527 30.7939 177.4 30.4143C177.273 30.0346 177.224 29.6338 177.254 29.2351V20.5117H175.403C175.319 20.5113 175.237 20.4837 175.17 20.433C175.139 20.4056 175.115 20.3717 175.099 20.3336C175.083 20.2956 175.076 20.2545 175.079 20.2135V19.7407L177.277 19.5888L177.59 15.0245C177.595 14.9458 177.63 14.8718 177.686 14.8163C177.714 14.7855 177.748 14.7615 177.786 14.7459C177.825 14.7303 177.866 14.7235 177.908 14.7262H178.476V19.6H182.536V20.5117H178.487V29.1619C178.481 29.4694 178.527 29.7757 178.623 30.068C178.701 30.2992 178.829 30.5106 178.998 30.6871C179.156 30.8501 179.351 30.9735 179.566 31.0473C179.79 31.1261 180.027 31.1661 180.265 31.1654C180.54 31.1715 180.813 31.1257 181.071 31.0304C181.269 30.9478 181.459 30.848 181.639 30.7321C181.78 30.6442 181.915 30.5464 182.042 30.4394C182.107 30.3691 182.192 30.3217 182.286 30.3044C182.329 30.3092 182.37 30.3234 182.406 30.3457C182.443 30.3681 182.473 30.3982 182.497 30.4338L182.832 30.9966C182.481 31.367 182.055 31.6604 181.582 31.8577C181.087 32.0769 180.551 32.19 180.009 32.1897Z" fill="#3D4A63"/>
<path d="M184.047 19.2005H184.99C185.099 19.1946 185.206 19.2287 185.291 19.2961C185.359 19.3535 185.412 19.4271 185.444 19.51L188.693 29.5728C188.75 29.7697 188.801 29.9611 188.835 30.1356L188.937 30.6984L189.079 30.1356C189.13 29.933 189.193 29.7641 189.261 29.5728L192.714 19.4425C192.731 19.3606 192.777 19.2875 192.844 19.236C192.91 19.1845 192.993 19.158 193.078 19.1611H193.583C193.669 19.1586 193.752 19.1851 193.82 19.2363C193.889 19.2875 193.937 19.3602 193.958 19.4425L197.366 29.5728C197.49 29.9423 197.594 30.318 197.678 30.6984L197.786 30.1356C197.827 29.9442 197.882 29.7561 197.951 29.5728L201.211 19.51C201.237 19.417 201.295 19.3358 201.375 19.2796C201.454 19.2234 201.55 19.1955 201.648 19.2005H202.557L198.246 31.959H197.343C197.201 31.959 197.104 31.869 197.042 31.6889L193.503 21.356C193.464 21.2322 193.424 21.1027 193.39 20.9733C193.356 20.8438 193.322 20.72 193.299 20.5906L193.214 20.9733C193.197 21.1054 193.161 21.2344 193.106 21.356L189.534 31.717C189.523 31.7916 189.485 31.8599 189.428 31.9095C189.371 31.959 189.297 31.9866 189.221 31.9872H188.358L184.047 19.2005Z" fill="#3D4A63"/>
<path d="M209.963 18.9979C210.811 18.9861 211.654 19.145 212.439 19.465C213.149 19.7616 213.78 20.216 214.285 20.7932C214.801 21.4001 215.188 22.1048 215.421 22.8643C215.697 23.7421 215.831 24.6576 215.818 25.577C215.832 26.4927 215.697 27.4046 215.421 28.2784C215.188 29.0363 214.801 29.7391 214.285 30.3439C213.78 30.9193 213.148 31.3719 212.439 31.6664C210.846 32.2818 209.079 32.2818 207.486 31.6664C206.777 31.3768 206.143 30.9302 205.635 30.3608C205.117 29.7567 204.731 29.0537 204.499 28.2953C203.976 26.5277 203.976 24.6488 204.499 22.8812C204.732 22.1217 205.118 21.417 205.635 20.8101C206.141 20.2328 206.775 19.7784 207.486 19.4819C208.27 19.1553 209.112 18.9906 209.963 18.9979ZM209.963 31.1655C210.654 31.1825 211.34 31.048 211.973 30.7716C212.537 30.5168 213.03 30.1306 213.41 29.646C213.812 29.1216 214.104 28.5226 214.268 27.8845C214.654 26.3661 214.654 24.7766 214.268 23.2583C214.102 22.6206 213.811 22.0218 213.41 21.4967C213.028 21.0137 212.536 20.6279 211.973 20.3711C210.685 19.8476 209.24 19.8476 207.952 20.3711C207.388 20.626 206.895 21.0122 206.515 21.4967C206.111 22.0256 205.816 22.6279 205.646 23.2695C205.26 24.7879 205.26 26.3774 205.646 27.8957C205.817 28.5334 206.112 29.1318 206.515 29.6573C206.891 30.1458 207.385 30.5328 207.952 30.7828C208.586 31.0554 209.272 31.186 209.963 31.1655Z" fill="#3D4A63"/>
<path d="M219.186 31.959V19.2005H219.833C219.947 19.1929 220.059 19.2248 220.152 19.2905C220.226 19.3764 220.265 19.487 220.259 19.6001L220.367 22.2902C220.71 21.3598 221.277 20.5269 222.02 19.8646C222.731 19.2724 223.636 18.9599 224.564 18.9866C225.263 18.971 225.953 19.1338 226.569 19.4594L226.399 20.3036C226.397 20.3332 226.389 20.362 226.375 20.3885C226.362 20.415 226.343 20.4387 226.321 20.458C226.298 20.4774 226.271 20.4921 226.243 20.5013C226.215 20.5105 226.185 20.5141 226.155 20.5118C226.079 20.5063 226.004 20.4893 225.933 20.4611C225.837 20.4218 225.723 20.388 225.575 20.343C225.405 20.2915 225.23 20.2538 225.053 20.2304C224.819 20.1891 224.581 20.1702 224.343 20.1741C223.902 20.1578 223.463 20.229 223.05 20.3837C222.637 20.5383 222.26 20.7732 221.941 21.0746C221.235 21.8063 220.716 22.6937 220.424 23.6634V31.959H219.186Z" fill="#3D4A63"/>
<path d="M230.948 13.3024V24.6765H231.516C231.632 24.6769 231.747 24.6598 231.857 24.6259C231.992 24.5713 232.114 24.4888 232.215 24.3839L237.377 19.5213C237.464 19.4324 237.561 19.3548 237.667 19.2906C237.784 19.228 237.915 19.1969 238.048 19.2005H239.132L233.453 24.5471C233.368 24.6315 233.288 24.7159 233.209 24.7834C233.131 24.8551 233.045 24.9175 232.953 24.9692C233.08 25.0348 233.197 25.1182 233.3 25.2168C233.396 25.3068 233.493 25.4138 233.595 25.5207L239.564 31.9591H238.491C238.378 31.963 238.267 31.9378 238.167 31.8859C238.059 31.8307 237.963 31.7563 237.883 31.6664L232.516 25.9203C232.402 25.794 232.268 25.6875 232.118 25.6051C231.937 25.538 231.743 25.5092 231.55 25.5207H230.982V31.9591H229.75V13.3024H230.948Z" fill="#3D4A63"/>
<path d="M249.554 20.7932C249.532 20.8488 249.493 20.8961 249.442 20.9284C249.391 20.9607 249.331 20.9764 249.27 20.9733C249.134 20.9558 249.006 20.8991 248.901 20.8101C248.72 20.6783 248.53 20.558 248.333 20.4499C248.042 20.3038 247.738 20.1851 247.425 20.0953C246.998 19.9764 246.556 19.9214 246.113 19.9321C245.68 19.9269 245.25 19.9935 244.84 20.1291C244.479 20.2548 244.144 20.4456 243.852 20.6919C243.59 20.902 243.375 21.1648 243.222 21.4629C243.071 21.7495 242.993 22.0683 242.995 22.3915C242.979 22.7495 243.089 23.1017 243.307 23.3877C243.53 23.6641 243.806 23.8937 244.119 24.063C244.479 24.2661 244.86 24.4303 245.255 24.5527L246.567 24.9635C247.016 25.0986 247.453 25.2505 247.879 25.4137C248.283 25.5738 248.664 25.7837 249.015 26.0384C249.348 26.2821 249.624 26.5929 249.827 26.9502C250.042 27.3493 250.144 27.7984 250.122 28.2502C250.127 28.7832 250.023 29.3117 249.816 29.8035C249.634 30.2777 249.351 30.7076 248.987 31.0642C248.571 31.4294 248.089 31.7122 247.567 31.8971C246.952 32.1104 246.304 32.2133 245.653 32.201C244.851 32.2229 244.054 32.0772 243.313 31.7733C242.669 31.493 242.075 31.1131 241.552 30.6477L241.847 30.2087C241.882 30.148 241.931 30.096 241.989 30.0568C242.056 30.0176 242.134 29.9999 242.211 30.0061C242.368 30.0268 242.513 30.098 242.625 30.2087C242.825 30.3765 243.04 30.5253 243.267 30.6534C243.58 30.8322 243.909 30.981 244.25 31.098C244.72 31.2439 245.211 31.3123 245.704 31.3006C246.192 31.3106 246.679 31.2344 247.141 31.0754C247.523 30.9442 247.875 30.7374 248.174 30.4676C248.448 30.2139 248.663 29.9049 248.805 29.5615C248.947 29.2151 249.019 28.8439 249.015 28.4697C249.029 28.0902 248.921 27.716 248.708 27.4004C248.477 27.101 248.185 26.8535 247.851 26.6744C247.492 26.4654 247.111 26.2974 246.715 26.1735C246.289 26.0384 245.851 25.8977 245.397 25.7627C244.943 25.6276 244.505 25.4756 244.079 25.3124C243.673 25.162 243.291 24.9555 242.943 24.699C242.627 24.4518 242.364 24.1436 242.171 23.7929C241.95 23.3876 241.842 22.9309 241.859 22.4703C241.859 22.0171 241.96 21.5694 242.154 21.159C242.355 20.73 242.643 20.3468 243 20.0334C243.397 19.7032 243.851 19.4476 244.341 19.2793C244.911 19.0875 245.51 18.9924 246.113 18.9979C246.824 18.9857 247.532 19.1001 248.203 19.3356C248.834 19.5655 249.414 19.9175 249.907 20.3711L249.554 20.7932Z" fill="#3D4A63"/>
<path d="M12.3103 28.0532C12.2538 28.0557 12.198 28.0399 12.1513 28.0082L0.979726 21.3053C0.934715 21.277 0.897582 21.2379 0.87178 21.1917C0.845977 21.1455 0.832327 21.0936 0.832054 21.0408V8.55237C0.831396 8.49796 0.845204 8.44434 0.872126 8.39691C0.899048 8.34949 0.938144 8.30993 0.985411 8.28223C1.03356 8.25709 1.08715 8.24396 1.14158 8.24396C1.196 8.24396 1.24962 8.25709 1.29778 8.28223L12.3273 14.6925C12.3738 14.7197 12.4123 14.7583 12.4392 14.8047C12.466 14.8511 12.4804 14.9035 12.4807 14.957L12.6227 27.738C12.6222 27.7929 12.6073 27.8467 12.5794 27.894C12.5515 27.9414 12.5116 27.9808 12.4636 28.0082C12.4179 28.0374 12.3647 28.0531 12.3103 28.0532ZM1.4511 20.8663L11.9922 27.1978L11.8616 15.1652L1.4511 9.11517V20.8663Z" fill="#679DBF"/>
<path d="M12.316 27.738C12.2752 27.7352 12.2353 27.7243 12.1988 27.706C12.1623 27.6877 12.1298 27.6623 12.1034 27.6314C12.0769 27.6004 12.057 27.5645 12.0447 27.5258C12.0325 27.4871 12.0281 27.4464 12.032 27.406C12.0335 27.36 12.0462 27.315 12.0689 27.2748C12.0916 27.2347 12.1238 27.2005 12.1627 27.1752L21.6588 21.7049C21.7272 21.6678 21.8072 21.6574 21.8829 21.6758C21.9587 21.6942 22.0247 21.7399 22.0682 21.8041C22.1116 21.8683 22.1292 21.9463 22.1176 22.0227C22.1059 22.0991 22.0658 22.1684 22.0052 22.217H21.9712L18.7452 24.0743L12.4977 27.6818C12.4439 27.7175 12.3808 27.7371 12.316 27.738Z" fill="#679DBF"/>
<path d="M23.4137 46.6818C23.3572 46.6842 23.3013 46.6684 23.2546 46.6367L12.3216 40.1759C12.2733 40.1536 12.232 40.1189 12.202 40.0753C12.172 40.0317 12.1545 39.9809 12.1512 39.9282L11.9809 27.7606C11.9802 27.7062 11.994 27.6526 12.0209 27.6052C12.0479 27.5577 12.0869 27.5182 12.1342 27.4905C12.1815 27.4628 12.2354 27.4481 12.2904 27.4481C12.3453 27.4481 12.3993 27.4628 12.4466 27.4905L23.5102 33.6137C23.5598 33.6377 23.6012 33.6755 23.6295 33.7225C23.6577 33.7694 23.6716 33.8236 23.6693 33.8782L23.7431 46.3441C23.7426 46.3989 23.7277 46.4527 23.6998 46.5001C23.6719 46.5475 23.632 46.5868 23.5841 46.6142C23.5358 46.6538 23.4762 46.6774 23.4137 46.6818ZM12.7873 39.7369L23.1013 45.8038L23.0331 34.0583L12.6283 28.2784L12.7873 39.7369Z" fill="#679DBF"/>
<path d="M25.3959 46.6255C25.3439 46.6266 25.2926 46.6129 25.2482 46.5861C25.2 46.5598 25.1595 46.5217 25.1307 46.4753C25.1018 46.429 25.0856 46.376 25.0835 46.3215L24.9302 33.8782C24.9307 33.8233 24.9456 33.7695 24.9735 33.7222C25.0014 33.6748 25.0413 33.6354 25.0892 33.608L36.0734 27.316C36.1207 27.2883 36.1746 27.2736 36.2296 27.2736C36.2845 27.2736 36.3385 27.2883 36.3857 27.316C36.4331 27.345 36.4721 27.3856 36.4989 27.4339C36.5258 27.4822 36.5396 27.5366 36.5391 27.5918L36.2665 39.9732C36.2642 40.0255 36.249 40.0764 36.2223 40.1215C36.1955 40.1667 36.1581 40.2046 36.1131 40.2321L25.5606 46.5973C25.509 46.6206 25.4523 46.6303 25.3959 46.6255ZM25.5549 34.0583L25.7026 45.77L35.6474 39.7819L35.903 28.132L25.5549 34.0583Z" fill="#6DB46C"/>
<path d="M36.102 27.5974C36.0463 27.5985 35.9915 27.5849 35.9429 27.558L26.4184 22.1439C26.3852 22.12 26.357 22.0897 26.3356 22.0549C26.3141 22.0202 26.2998 21.9815 26.2935 21.9413C26.2872 21.901 26.2889 21.8599 26.2987 21.8203C26.3084 21.7807 26.3259 21.7434 26.3503 21.7106C26.3927 21.655 26.4524 21.6149 26.5203 21.5966C26.5881 21.5783 26.6601 21.5827 26.7251 21.6093L29.9454 23.4384L36.2326 27.0121C36.304 27.0533 36.356 27.1208 36.3773 27.1999C36.3986 27.279 36.3874 27.3633 36.3462 27.4342C36.3214 27.4786 36.2864 27.5165 36.2439 27.5449C36.2015 27.5733 36.1528 27.5913 36.102 27.5974Z" fill="#6DB46C"/>
<path d="M35.4884 13.3868C35.4328 13.388 35.3778 13.3744 35.3293 13.3474L24.402 7.1567C24.354 7.12928 24.3141 7.08993 24.2863 7.04255C24.2584 6.99518 24.2434 6.94141 24.2429 6.88656C24.2434 6.83103 24.2589 6.77665 24.2879 6.72912C24.3169 6.68159 24.3583 6.64266 24.4076 6.61642L35.5111 0.673308C35.5572 0.648184 35.609 0.63501 35.6616 0.63501C35.7142 0.63501 35.766 0.648184 35.8121 0.673308L46.5123 6.40818C46.5501 6.42455 46.5842 6.44832 46.6125 6.47806C46.6409 6.5078 46.6629 6.5429 46.6772 6.58126C46.6915 6.61963 46.6978 6.66046 46.6959 6.70131C46.6939 6.74217 46.6836 6.7822 46.6656 6.81902C46.6363 6.88744 46.5813 6.94191 46.5123 6.97098L35.6417 13.3418C35.596 13.3711 35.5428 13.3867 35.4884 13.3868ZM25.2141 6.9147L35.4997 12.7227L45.7228 6.68958L35.6587 1.28113L25.2141 6.9147Z" fill="#EA812F"/>
<path d="M24.3282 18.2325C24.2454 18.2325 24.1659 18.1999 24.1073 18.1419C24.0488 18.0838 24.0159 18.0051 24.0159 17.923V14.2254V7.03854C24.0159 6.95741 24.048 6.87952 24.1053 6.82163C24.1627 6.76374 24.2407 6.73048 24.3225 6.729C24.4054 6.729 24.4848 6.76162 24.5434 6.81966C24.602 6.87771 24.6349 6.95645 24.6349 7.03854V17.923C24.6349 18.0051 24.602 18.0838 24.5434 18.1419C24.4848 18.1999 24.4054 18.2325 24.3225 18.2325H24.3282Z" fill="#EA812F"/>
<path d="M13.3725 13.5163C13.3169 13.5174 13.262 13.5038 13.2135 13.4769L2.28612 7.28613C2.23818 7.2587 2.1983 7.21936 2.17041 7.17198C2.14252 7.1246 2.12757 7.07083 2.12708 7.01599C2.1268 6.96173 2.14149 6.90843 2.16951 6.86182C2.19753 6.81522 2.23784 6.77706 2.28612 6.75147L13.3782 0.560733C13.4253 0.535611 13.478 0.522461 13.5315 0.522461C13.5851 0.522461 13.6378 0.535611 13.6849 0.560733L24.4021 6.63891C24.4399 6.65528 24.474 6.67905 24.5024 6.70879C24.5307 6.73853 24.5527 6.77363 24.567 6.812C24.5813 6.85036 24.5877 6.89119 24.5857 6.93204C24.5837 6.9729 24.5734 7.01293 24.5555 7.04975C24.5261 7.11817 24.4712 7.17264 24.4021 7.20171L13.5259 13.4769C13.4793 13.5036 13.4263 13.5172 13.3725 13.5163ZM3.06421 7.0385L13.3612 12.8522L23.624 6.90905L13.5259 1.23609L3.06421 7.0385Z" fill="#EA812F"/>
</svg>
