<svg width="41" height="53" viewBox="0 0 41 53" fill="none" xmlns="http://www.w3.org/2000/svg">
<path d="M8.15723 49.2246C8.15723 50.127 7.83138 50.8379 7.17969 51.3574C6.53255 51.877 5.63021 52.1367 4.47266 52.1367C3.40625 52.1367 2.46289 51.9362 1.64258 51.5352V49.5664C2.31706 49.8672 2.88672 50.0791 3.35156 50.2021C3.82096 50.3252 4.24935 50.3867 4.63672 50.3867C5.10156 50.3867 5.45703 50.2979 5.70312 50.1201C5.95378 49.9424 6.0791 49.6781 6.0791 49.3271C6.0791 49.1312 6.02441 48.958 5.91504 48.8076C5.80566 48.6527 5.64388 48.5046 5.42969 48.3633C5.22005 48.222 4.78939 47.9964 4.1377 47.6865C3.52702 47.3994 3.06901 47.1237 2.76367 46.8594C2.45833 46.5951 2.21452 46.2874 2.03223 45.9365C1.84993 45.5856 1.75879 45.1755 1.75879 44.7061C1.75879 43.8219 2.05729 43.127 2.6543 42.6211C3.25586 42.1152 4.08529 41.8623 5.14258 41.8623C5.66211 41.8623 6.15658 41.9238 6.62598 42.0469C7.09993 42.1699 7.5944 42.3431 8.10938 42.5664L7.42578 44.2139C6.89258 43.9951 6.45052 43.8424 6.09961 43.7559C5.75326 43.6693 5.41146 43.626 5.07422 43.626C4.67318 43.626 4.36556 43.7194 4.15137 43.9062C3.93717 44.0931 3.83008 44.3369 3.83008 44.6377C3.83008 44.8245 3.87337 44.9886 3.95996 45.1299C4.04655 45.2666 4.18327 45.401 4.37012 45.5332C4.56152 45.6608 5.01042 45.8932 5.7168 46.2305C6.65104 46.6771 7.29134 47.126 7.6377 47.5771C7.98405 48.0238 8.15723 48.5729 8.15723 49.2246ZM16.8594 52H14.7744V47.5361C14.7744 46.4333 14.3643 45.8818 13.5439 45.8818C12.9606 45.8818 12.5391 46.0801 12.2793 46.4766C12.0195 46.873 11.8896 47.5156 11.8896 48.4043V52H9.80469V41.3633H11.8896V43.5303C11.8896 43.6989 11.8737 44.0954 11.8418 44.7197L11.7939 45.335H11.9033C12.3682 44.5876 13.1064 44.2139 14.1182 44.2139C15.016 44.2139 15.6973 44.4554 16.1621 44.9385C16.627 45.4215 16.8594 46.1143 16.8594 47.0166V52ZM23.8594 52L23.4561 50.9609H23.4014C23.0505 51.403 22.6882 51.7106 22.3145 51.8838C21.9453 52.0524 21.4622 52.1367 20.8652 52.1367C20.1315 52.1367 19.5527 51.9271 19.1289 51.5078C18.7096 51.0885 18.5 50.4915 18.5 49.7168C18.5 48.9056 18.7826 48.3086 19.3477 47.9258C19.9173 47.5384 20.7741 47.3242 21.918 47.2832L23.2441 47.2422V46.9072C23.2441 46.1325 22.8477 45.7451 22.0547 45.7451C21.444 45.7451 20.7262 45.9297 19.9014 46.2988L19.2109 44.8906C20.0905 44.4303 21.0658 44.2002 22.1367 44.2002C23.1621 44.2002 23.9482 44.4235 24.4951 44.8701C25.042 45.3167 25.3154 45.9958 25.3154 46.9072V52H23.8594ZM23.2441 48.459L22.4375 48.4863C21.8314 48.5046 21.3802 48.6139 21.084 48.8145C20.7878 49.015 20.6396 49.3203 20.6396 49.7305C20.6396 50.3184 20.9769 50.6123 21.6514 50.6123C22.1344 50.6123 22.5195 50.4733 22.8066 50.1953C23.0983 49.9173 23.2441 49.5482 23.2441 49.0879V48.459ZM31.7344 44.2139C32.0169 44.2139 32.2516 44.2344 32.4385 44.2754L32.2812 46.2305C32.1126 46.1849 31.9076 46.1621 31.666 46.1621C31.0007 46.1621 30.4811 46.333 30.1074 46.6748C29.7383 47.0166 29.5537 47.4951 29.5537 48.1104V52H27.4688V44.3574H29.0479L29.3555 45.6426H29.458C29.695 45.2142 30.014 44.8701 30.415 44.6104C30.8206 44.346 31.2604 44.2139 31.7344 44.2139ZM36.9912 45.6973C36.5492 45.6973 36.2028 45.8385 35.9521 46.1211C35.7015 46.3991 35.5579 46.7956 35.5215 47.3105H38.4473C38.4382 46.7956 38.3037 46.3991 38.0439 46.1211C37.7842 45.8385 37.4333 45.6973 36.9912 45.6973ZM37.2852 52.1367C36.0547 52.1367 35.0931 51.7972 34.4004 51.1182C33.7077 50.4391 33.3613 49.4775 33.3613 48.2334C33.3613 46.9528 33.6803 45.9639 34.3184 45.2666C34.9609 44.5648 35.8473 44.2139 36.9775 44.2139C38.0576 44.2139 38.8984 44.5215 39.5 45.1367C40.1016 45.752 40.4023 46.6019 40.4023 47.6865V48.6982H35.4736C35.4964 49.2907 35.6719 49.7533 36 50.0859C36.3281 50.4186 36.7884 50.585 37.3809 50.585C37.8411 50.585 38.2764 50.5371 38.6865 50.4414C39.0967 50.3457 39.5251 50.193 39.9717 49.9834V51.5967C39.6071 51.779 39.2174 51.9134 38.8027 52C38.388 52.0911 37.8822 52.1367 37.2852 52.1367Z" fill="#2E2E2E"/>
<path fill-rule="evenodd" clip-rule="evenodd" d="M24.0238 10.9333C24.0238 10.9333 2 8.33333 2 30C9.04762 17 24.0238 21.3333 24.0238 21.3333V28.2667L39 16.1333L24.0238 4V10.9333Z" stroke="#2E2E2E" stroke-width="3" stroke-linecap="round" stroke-linejoin="round"/>
<g style="mix-blend-mode:multiply">
<path fill-rule="evenodd" clip-rule="evenodd" d="M26.0238 5.80833C26.0238 6.40709 25.5105 6.88093 24.9122 6.85663C20.7774 6.6887 6.41277 7.19356 4.26859 22.0646C4.12054 23.0913 5.53952 23.5328 6.20848 22.7399C12.6652 15.0872 22.5593 16.5662 25.2989 17.1578C25.7341 17.2518 26.0238 17.6398 26.0238 18.085V22.1695C26.0238 23.0109 26.9996 23.4761 27.6533 22.9465L40.041 12.9103C40.5349 12.5101 40.5349 11.7566 40.041 11.3563L27.6533 1.32019C26.9996 0.790533 26.0238 1.2558 26.0238 2.09718V5.80833Z" fill="#90CCCC"/>
</g>
</svg>
