<?xml version="1.0" encoding="UTF-8" standalone="no"?>
<svg
   xmlnsDc="http://purl.org/dc/elements/1.1/"
   xmlnsCc="http://creativecommons.org/ns#"
   xmlnsRdf="http://www.w3.org/1999/02/22-rdf-syntax-ns#"
   xmlnsSvg="http://www.w3.org/2000/svg"
   xmlns="http://www.w3.org/2000/svg"
   viewBox="0 0 2320 444.53333"
   height="444.53333"
   width="2320"
   xmlSpace="preserve"
   id="svg2"
   version="1.1"><defs
     id="defs6"><clipPath
       id="clipPath48"
       clipPathUnits="userSpaceOnUse"><path
         id="path46"
         d="m 12070,1414.32 c 52,-47.39 108.4,-92.53 167.4,-136.99 83.5,-62.88 172.1,-124.4 260.9,-188.98 0,0 0.2,0.16 0.7,0.47 7.7,5.35 78.9,54.79 172.7,126.58 77.4,59.23 170.2,133.67 255.5,211.11 76.5,69.47 152.7,143.25 210.5,229.49 56.1,83.71 86.3,164.63 94.3,241.15 7.4,70.38 -3.8,137.04 -30.5,198.73 -23.8,54.75 -59.8,105.58 -105.8,151.63 -71.1,71.1 -162.2,109.96 -255.2,116.59 -116.7,8.31 -231.7,-35.49 -314.2,-118.02 -9.3,-9.35 -18.7,-18.7 -28,-28.04 -9.9,9.82 -19.7,19.65 -29.5,29.47 -88.5,88.5 -208.1,127.06 -323.6,115.66 -89.2,-8.79 -176,-47.34 -244.4,-115.66 -49.8,-49.87 -85.2,-104.48 -105.9,-163.18 -14.5,-41.18 -21.7,-84.38 -21.7,-129.37 0,-27.2 2.6,-55.07 8,-83.53 15.5,-82.9 51.4,-161.43 95.9,-232.67 51.6,-82.67 117.7,-155.9 192.9,-224.44 z" /></clipPath><clipPath
       id="clipPath54"
       clipPathUnits="userSpaceOnUse"><path
         id="path52"
         d="m 12070,1414.32 c 52,-47.39 108.4,-92.53 167.4,-136.99 83.5,-62.88 172.1,-124.4 260.9,-188.98 0,0 0.2,0.16 0.7,0.47 7.7,5.35 78.9,54.79 172.7,126.58 77.4,59.23 170.2,133.67 255.5,211.11 76.5,69.47 152.7,143.25 210.5,229.49 56.1,83.71 86.3,164.63 94.3,241.15 7.4,70.38 -3.8,137.04 -30.5,198.73 -23.8,54.75 -59.8,105.58 -105.8,151.63 -71.1,71.1 -162.2,109.96 -255.2,116.59 -116.7,8.31 -231.7,-35.49 -314.2,-118.02 -9.3,-9.35 -18.7,-18.7 -28,-28.04 -9.9,9.82 -19.7,19.65 -29.5,29.47 -88.5,88.5 -208.1,127.06 -323.6,115.66 -89.2,-8.79 -176,-47.34 -244.4,-115.66 -49.8,-49.87 -85.2,-104.48 -105.9,-163.18 -14.5,-41.18 -21.7,-84.38 -21.7,-129.37 0,-27.2 2.6,-55.07 8,-83.53 15.5,-82.9 51.4,-161.43 95.9,-232.67 51.6,-82.67 117.7,-155.9 192.9,-224.44" /></clipPath></defs><g
     transform="matrix(1.3333333,0,0,-1.3333333,0,444.53333)"
     id="g10"><g
       transform="scale(0.1)"
       id="g12"><path
         id="path14"
         style="fill:#bd1e24;fill-opacity:1;fill-rule:nonzero;stroke:none"
         d="m 9462.01,1794.19 h 62.18 c 64.96,0 114.82,13.44 149.57,40.33 34.72,26.88 52.09,65.54 52.09,115.95 0,50.41 -17.37,89.06 -52.09,115.95 -34.75,26.89 -84.61,40.34 -149.57,40.34 h -62.18 z m 724.29,-700.77 h -410.03 l -314.26,487.33 V 1093.42 H 9132.63 V 2360.5 h 512.56 c 70.58,0 132.18,-10.36 184.85,-31.08 52.66,-20.75 96.04,-49.02 130.23,-84.86 34.17,-35.87 59.93,-77.3 77.33,-124.36 17.3,-47.06 26,-97.46 26,-151.24 0,-96.37 -23.2,-174.52 -69.72,-234.43 -46.5,-59.95 -115.11,-100.58 -205.85,-121.84 l 398.27,-519.27" /><path
         id="path16"
         style="fill:#bd1e24;fill-opacity:1;fill-rule:nonzero;stroke:none"
         d="m 8840.59,1903.45 c -81.34,0 -149.65,-55.08 -170.12,-129.93 h -131.48 c -8.28,70.69 -34.41,135.9 -73.78,191.04 l 102.73,94.6 c 27.67,-18.01 60.63,-28.57 96.11,-28.57 97.49,0 176.54,79.04 176.54,176.53 0,97.51 -79.05,176.55 -176.54,176.55 -97.5,0 -176.54,-79.04 -176.54,-176.55 0,-28.41 6.87,-55.16 18.8,-78.94 l -102.89,-94.76 c -62.11,55.29 -141,92.09 -228.11,101.81 v 77.94 c 75.58,19.99 131.38,88.63 131.38,170.49 0,97.51 -79.04,176.55 -176.53,176.55 -97.5,0 -176.54,-79.04 -176.54,-176.55 0,-81.06 54.71,-149.2 129.18,-169.92 v -78.51 c -83.39,-9.31 -159.24,-43.43 -220.06,-94.83 l -91.85,81.95 c 13.81,25.16 21.69,54.04 21.69,84.77 0,97.51 -79.04,176.55 -176.54,176.55 -97.49,0 -176.53,-79.04 -176.53,-176.55 0,-97.49 79.04,-176.53 176.53,-176.53 33.13,0 64.02,9.29 90.52,25.17 l 92.56,-82.58 c -42.88,-56.9 -71.29,-125.27 -80,-199.66 h -109.51 c -20.46,74.85 -88.77,129.93 -170.1,129.93 -97.5,0 -176.54,-79.04 -176.54,-176.55 0,-97.49 79.04,-176.53 176.54,-176.53 81.59,0 150.06,55.43 170.29,130.63 h 108.74 c 8.08,-76.14 36.83,-146.1 80.56,-204.15 l -95.67,-88.11 c -27.51,17.71 -60.18,28.11 -95.32,28.11 -97.5,0 -176.54,-79.04 -176.54,-176.56 0,-97.49 79.04,-176.53 176.54,-176.53 97.49,0 176.53,79.04 176.53,176.53 0,28.75 -7.02,55.8 -19.2,79.78 l 97.26,89.58 c 60.82,-51.43 136.69,-85.57 220.1,-94.87 v -81.09 c -74.47,-20.72 -129.18,-88.85 -129.18,-169.93 0,-97.498 79.04,-176.541 176.54,-176.541 97.49,0 176.53,79.043 176.53,176.541 0,81.87 -55.8,150.51 -131.38,170.49 v 80.53 c 91.67,10.22 174.22,50.47 237.71,110.67 l 83.93,-74.88 c -11.02,-23.05 -17.37,-48.75 -17.37,-76 0,-97.5 79.03,-176.54 176.53,-176.54 97.49,0 176.53,79.04 176.53,176.54 0,97.51 -79.04,176.55 -176.53,176.55 -36.66,0 -70.7,-11.18 -98.92,-30.31 l -84.48,75.37 c 36.02,54 59.66,116.95 66.86,184.82 h 130.72 c 20.23,-75.2 88.7,-130.63 170.3,-130.63 97.49,0 176.53,79.04 176.53,176.53 0,97.51 -79.04,176.55 -176.53,176.55" /><path
         id="path18"
         style="fill:#bd1e24;fill-opacity:1;fill-rule:nonzero;stroke:none"
         d="m 1587.78,2036.29 c -35.86,29.12 -71.7,50.67 -107.56,64.71 -35.85,14 -70.57,21 -104.18,21 -42.58,0 -77.3,-10.09 -104.19,-30.25 -26.89,-20.17 -40.32,-46.51 -40.32,-78.99 0,-22.42 6.72,-40.9 20.15,-55.45 13.45,-14.57 31.1,-27.18 52.94,-37.82 21.84,-10.65 46.48,-19.89 73.95,-27.72 27.44,-7.84 54.61,-16.25 81.5,-25.2 107.56,-35.88 186.24,-83.77 236.1,-143.68 49.84,-59.95 74.78,-138.09 74.78,-234.43 0,-65 -10.91,-123.82 -32.77,-176.46 -21.84,-52.66 -53.76,-97.77 -95.77,-135.28 -42.01,-37.54 -93.56,-66.66 -154.61,-87.38 -61.08,-20.72 -130.24,-31.1 -207.54,-31.1 -160.23,0 -308.666,47.61 -445.342,142.85 l 141.16,265.51 c 49.292,-43.68 98.022,-76.2 146.212,-97.46 48.16,-21.3 95.79,-31.94 142.84,-31.94 53.78,0 93.82,12.31 120.16,36.99 26.31,24.62 39.49,52.63 39.49,84.02 0,19.03 -3.36,35.55 -10.08,49.57 -6.74,13.99 -17.94,26.88 -33.62,38.65 -15.69,11.76 -36.13,22.68 -61.33,32.77 -25.2,10.08 -55.74,21.26 -91.6,33.61 -42.57,13.45 -84.3,28.28 -125.18,44.53 -40.92,16.24 -77.31,37.8 -109.243,64.69 -31.918,26.89 -57.715,60.77 -77.289,101.68 -19.625,40.88 -29.418,92.7 -29.418,155.45 0,62.72 10.351,119.57 31.085,170.57 20.719,50.96 49.84,94.66 87.385,131.08 37.53,36.39 83.45,64.69 137.8,84.86 54.32,20.17 115.13,30.25 182.34,30.25 62.73,0 128.27,-8.7 196.61,-26.06 68.34,-17.37 133.86,-42.84 196.62,-76.45 l -131.08,-257.12" /><path
         id="path20"
         style="fill:#bd1e24;fill-opacity:1;fill-rule:nonzero;stroke:none"
         d="m 2219.74,2360.63 v -689 c 0,-36.98 1.38,-74.78 4.19,-113.44 2.78,-38.65 11.19,-73.67 25.22,-105.02 13.98,-31.38 36.13,-56.88 66.38,-76.47 30.25,-19.61 72.8,-29.4 127.71,-29.4 54.88,0 97.18,9.79 126.89,29.4 29.66,19.59 51.79,45.09 66.37,76.47 14.54,31.35 23.24,66.37 26.04,105.02 2.8,38.66 4.21,76.46 4.21,113.44 v 689 h 327.69 v -734.37 c 0,-197.21 -45.11,-341.15 -135.27,-431.89 -90.2,-90.76 -228.84,-136.13 -415.93,-136.13 -187.12,0 -326.01,45.37 -416.77,136.13 -90.74,90.74 -136.11,234.68 -136.11,431.89 v 734.37 h 329.38" /><path
         id="path22"
         style="fill:#bd1e24;fill-opacity:1;fill-rule:nonzero;stroke:none"
         d="m 3502.02,1794.31 h 62.16 c 64.97,0 114.84,13.44 149.57,40.32 34.72,26.89 52.11,65.55 52.11,115.97 0,50.4 -17.39,89.05 -52.11,115.94 -34.73,26.89 -84.6,40.34 -149.57,40.34 h -62.16 z m 724.28,-700.77 h -410.04 l -314.24,487.33 v -487.33 h -329.38 v 1267.09 h 512.55 c 70.57,0 132.18,-10.37 184.84,-31.09 52.66,-20.75 96.07,-49.02 130.25,-84.86 34.16,-35.88 59.92,-77.31 77.31,-124.37 17.34,-47.05 26.04,-97.46 26.04,-151.23 0,-96.37 -23.26,-174.51 -69.74,-234.43 -46.5,-59.95 -115.11,-100.58 -205.87,-121.84 l 398.28,-519.27" /><path
         id="path24"
         style="fill:#bd1e24;fill-opacity:1;fill-rule:nonzero;stroke:none"
         d="m 4487.53,2360.63 305.84,-771.35 307.54,771.35 h 357.94 L 4924.45,1093.54 H 4662.3 l -532.72,1267.09 h 357.95" /><path
         id="path26"
         style="fill:#bd1e24;fill-opacity:1;fill-rule:nonzero;stroke:none"
         d="M 5919.65,2360.63 V 1093.54 h -329.38 v 1267.09 h 329.38" /><path
         id="path28"
         style="fill:#bd1e24;fill-opacity:1;fill-rule:nonzero;stroke:none"
         d="m 6409.04,2360.63 305.83,-771.35 307.54,771.35 h 357.94 L 6845.96,1093.54 H 6583.8 l -532.72,1267.09 h 357.96" /><path
         id="path30"
         style="fill:#ffffff;fill-opacity:1;fill-rule:nonzero;stroke:none"
         d="m 8334.6,1685.05 c -53.19,-76.38 -206.93,-182.28 -206.93,-182.28 -81.46,59.26 -162.52,110.65 -206.93,186.04 -20.39,34.61 -30.5,67.41 -30.5,97.72 0,35.74 14.03,68.01 41.82,95.8 51.34,51.34 134.61,51.34 185.96,0 l 9.65,-9.66 9.65,9.66 c 51.35,51.34 134.63,51.34 185.97,0 51.35,-51.35 64.47,-120.87 11.31,-197.28" /><path
         id="path32"
         style="fill:#626e7a;fill-opacity:1;fill-rule:nonzero;stroke:none"
         d="m 13724.7,1793.96 h 62.2 c 64.9,0 114.8,13.44 149.5,40.33 34.7,26.89 52.1,65.54 52.1,115.96 0,50.4 -17.4,89.05 -52.1,115.94 -34.7,26.89 -84.6,40.34 -149.5,40.34 h -62.2 z m 724.3,-700.77 h -410.1 l -314.2,487.33 v -487.33 h -329.4 v 1267.09 h 512.6 c 70.5,0 132.1,-10.37 184.8,-31.08 52.7,-20.76 96.1,-49.03 130.3,-84.87 34.1,-35.87 59.9,-77.3 77.3,-124.36 17.3,-47.06 26,-97.46 26,-151.24 0,-96.37 -23.3,-174.51 -69.7,-234.43 -46.5,-59.95 -115.1,-100.58 -205.9,-121.84 l 398.3,-519.27" /><path
         id="path34"
         style="fill:#626e7a;fill-opacity:1;fill-rule:nonzero;stroke:none"
         d="m 14881.6,1778.82 h 109.2 c 121,0 181.5,52.66 181.5,157.97 0,105.31 -60.5,157.98 -181.5,157.98 h -109.2 z m 0,-685.63 h -329.4 v 1267.09 h 524.3 c 142.3,0 251.3,-36.97 326.9,-110.92 75.6,-73.93 113.4,-178.12 113.4,-312.57 0,-134.44 -37.8,-238.62 -113.4,-312.57 -75.6,-73.94 -184.6,-110.91 -326.9,-110.91 h -194.9 v -420.12" /><g
         transform="scale(1.01348)"
         id="g36"><path
           id="path38"
           style="fill:#626e7a;fill-opacity:1;fill-rule:nonzero;stroke:none"
           d="m 16119.2,2008.85 c -35.3,28.73 -70.7,50.01 -106,63.85 -35.5,13.82 -69.7,20.73 -102.8,20.73 -42.1,0 -76.3,-9.97 -102.9,-29.85 -26.5,-19.9 -39.7,-45.9 -39.7,-77.95 0,-22.12 6.6,-40.35 19.8,-54.71 13.3,-14.37 30.7,-26.81 52.2,-37.31 21.6,-10.51 45.9,-19.63 73,-27.35 27.1,-7.74 53.9,-16.04 80.4,-24.87 106.2,-35.39 183.8,-82.66 233,-141.77 49.1,-59.15 73.8,-136.26 73.8,-231.31 0,-64.12 -10.8,-122.17 -32.4,-174.1 -21.5,-51.97 -53,-96.47 -94.5,-133.48 -41.4,-37.05 -92.2,-65.78 -152.5,-86.22 -60.3,-20.44 -128.5,-30.69 -204.8,-30.69 -158,0 -304.6,46.97 -439.4,140.95 l 139.3,261.97 c 48.6,-43.1 96.7,-75.18 144.2,-96.16 47.6,-21.01 94.6,-31.51 141,-31.51 53,0 92.6,12.15 118.5,36.49 26,24.29 39,51.94 39,82.9 0,18.78 -3.4,35.08 -10,48.91 -6.6,13.82 -17.6,26.54 -33.1,38.15 -15.5,11.6 -35.6,22.37 -60.5,32.32 -24.9,9.95 -55.1,20.99 -90.4,33.17 -42,13.27 -83.2,27.91 -123.5,43.94 -40.4,16.02 -76.3,37.3 -107.9,63.83 -31.4,26.54 -56.9,59.95 -76.1,100.32 -19.5,40.34 -29.1,91.46 -29.1,153.37 0,61.9 10.2,117.99 30.6,168.31 20.5,50.28 49.3,93.4 86.3,129.34 37,35.91 82.4,63.83 136,83.73 53.5,19.91 113.5,29.85 179.9,29.85 61.9,0 126.5,-8.58 194,-25.71 67.4,-17.14 132,-42.28 194,-75.44 l -129.4,-253.7" /></g><path
         id="path40"
         style="fill:#626e7a;fill-opacity:1;fill-rule:nonzero;stroke:none"
         d="m 11639.9,1935.95 c -76.2,92.98 -170.3,139.49 -282.3,139.49 -49.3,0 -95,-8.98 -137,-26.89 -42,-17.93 -78.1,-42.3 -108.4,-73.11 -30.2,-30.83 -54,-67.5 -71.4,-110.06 -17.4,-42.6 -26,-88.53 -26,-137.8 0,-50.42 8.6,-96.92 26,-139.49 17.4,-42.6 41.4,-79.56 72.3,-110.92 30.8,-31.37 66.9,-56.03 108.4,-73.93 41.4,-17.94 86.2,-26.89 134.4,-26.89 105.3,0 200,44.79 284,134.43 v -389.86 l -33.6,-11.76 c -50.4,-17.92 -97.5,-31.1 -141.2,-39.51 -43.7,-8.39 -86.8,-12.6 -129.4,-12.6 -87.4,0 -171.1,16.54 -251.2,49.58 -80.1,33.03 -150.7,79.53 -211.8,139.47 -61,59.94 -110,131.09 -147,213.43 -37,82.35 -55.5,172.26 -55.5,269.72 0,97.47 18.2,186.8 54.7,268.05 36.4,81.21 85.1,151.24 146.2,210.06 61,58.81 131.9,104.74 212.6,137.78 80.6,33.05 165.2,49.59 253.7,49.59 50.4,0 100,-5.34 148.7,-15.96 48.8,-10.67 100,-27.18 153.8,-49.58 v -393.24" /><g
         id="g42"><g
           clip-path="url(#clipPath48)"
           id="g44"><g
             clip-path="url(#clipPath54)"
             id="g50"><g
               transform="matrix(10,0,0,-10,-73080,79844)"
               id="g56"><path
                 id="path58"
                 style="fill:#bd1d24;fill-opacity:1;fill-rule:nonzero;stroke:none"
                 d="m 8514.9986,7842.9732 c 2.6005,2.3696 5.3114,4.6826 8.1093,6.9594 -3.1758,-4.1181 -6.1103,-8.7231 -8.7441,-13.5311 -3.4277,-1.4995 -6.746,-2.8857 -9.9003,-4.1206 3.2382,3.7212 6.7724,7.2656 10.5351,10.6923 z" /><path
                 id="path60"
                 style="fill:#bd1d24;fill-opacity:1;fill-rule:nonzero;stroke:none"
                 d="m 8504.4635,7832.2809 c 3.1543,1.2349 6.4726,2.6211 9.9003,4.1206 -2.6338,-4.8081 -4.9658,-9.8188 -6.9384,-14.7494 -4.0732,-0.6431 -8.0136,-1.0225 -11.7216,-1.1231 2.58,4.1333 5.5214,8.0312 8.7597,11.7519 z" /><path
                 id="path62"
                 style="fill:#bd1d24;fill-opacity:1;fill-rule:nonzero;stroke:none"
                 d="m 8523.1079,7849.9326 c 2.7978,2.2764 5.6825,4.5166 8.6317,6.7392 -2.5888,-4.8085 -4.8544,-10.0238 -6.8134,-15.4686 -3.5957,-1.689 -7.1337,-3.3017 -10.5624,-4.8017 2.6338,4.808 5.5683,9.413 8.7441,13.5311 z" /><path
                 id="path64"
                 style="fill:#b51d23;fill-opacity:1;fill-rule:nonzero;stroke:none"
                 d="m 8514.3638,7836.4015 c 3.4287,1.5 6.9667,3.1127 10.5624,4.8017 -1.9599,-5.4448 -3.6132,-11.1195 -4.9775,-16.847 -4.2412,-1.1543 -8.4491,-2.0611 -12.5233,-2.7041 1.9726,4.9306 4.3046,9.9413 6.9384,14.7494 z" /><path
                 id="path66"
                 style="fill:#bd1d24;fill-opacity:1;fill-rule:nonzero;stroke:none"
                 d="m 8531.7396,7856.6718 c 6.7783,5.1094 13.9003,10.1288 21.0946,15.2953 -0.6787,-5.123 -0.9893,-10.4975 -1.1611,-16.0961 -8.7548,-5.2738 -17.6825,-10.5687 -26.7469,-14.6678 1.959,5.4448 4.2246,10.6601 6.8134,15.4686 z" /><path
                 id="path68"
                 style="fill:#b11d23;fill-opacity:1;fill-rule:nonzero;stroke:none"
                 d="m 8524.9262,7841.2032 c 9.0644,4.0991 17.9921,9.394 26.7469,14.6678 -0.1719,-5.5981 -0.2041,-11.4193 -0.3252,-17.4363 -10.3144,-5.3818 -20.0497,-10.9892 -31.3992,-14.0785 1.3643,5.7275 3.0176,11.4022 4.9775,16.847 z" /><path
                 id="path70"
                 style="fill:#bd1d24;fill-opacity:1;fill-rule:nonzero;stroke:none"
                 d="m 8552.8342,7871.9671 c 1.6601,1.1924 3.3242,2.3921 4.9882,3.603 -0.4472,-10.6811 0.6143,-22.2274 0.9737,-34.6843 -2.0342,0.056 -4.0801,-0.6938 -7.4482,-2.4511 0.2422,12.0336 0.1299,23.2864 1.4863,33.5324 z" /><path
                 id="path72"
                 style="fill:#bd1d24;fill-opacity:1;fill-rule:nonzero;stroke:none"
                 d="m 8557.8224,7875.5701 c 0,0 0.024,-0.016 0.069,-0.048 -0.4414,-10.667 0.6279,-22.1966 0.9892,-34.6394 -0.028,0 -0.057,0 -0.085,0 -0.3594,12.4569 -1.4209,24.0032 -0.9737,34.6843 z" /><path
                 id="path74"
                 style="fill:#bd1d24;fill-opacity:1;fill-rule:nonzero;stroke:none"
                 d="m 8557.8918,7875.5223 c 0.7724,-0.5342 7.8915,-5.4785 17.2733,-12.6577 2.2968,-4.582 5.7655,-10.5936 9.1532,-16.8206 -9.5331,5.29 -20.7117,12.3588 -26.2322,12.8246 -0.2578,5.7709 -0.415,11.3202 -0.1943,16.6537 z" /><path
                 id="path76"
                 style="fill:#b61d23;fill-opacity:1;fill-rule:nonzero;stroke:none"
                 d="m 8558.0861,7858.8686 c 5.5205,-0.4658 16.6991,-7.5346 26.2322,-12.8246 3.3877,-6.227 6.6953,-12.6689 8.6689,-18.1117 -9.6835,3.4009 -23.8348,12.5536 -34.1062,12.9506 -0.1806,6.2211 -0.5381,12.2142 -0.7949,17.9857 z" /><path
                 id="path78"
                 style="fill:#bd1d24;fill-opacity:1;fill-rule:nonzero;stroke:none"
                 d="m 8575.1651,7862.8646 c 7.7401,-5.9228 17.0203,-13.3666 25.5466,-21.1101 7.6504,-6.9477 15.2763,-14.3256 21.0565,-22.9491 -9.6425,2.7817 -19.2713,5.7881 -28.781,9.1269 -3.9482,10.8852 -13.2284,25.7684 -17.8221,34.9323 z" /><path
                 id="path80"
                 style="fill:#bd1d24;fill-opacity:1;fill-rule:nonzero;stroke:none"
                 d="m 8495.7038,7820.529 c -4.4453,-7.1239 -8.0341,-14.9764 -9.5908,-23.2669 4.3174,-1.163 9.1035,-1.871 14.0771,-2.1679 1.1426,8.7558 3.8466,18.0985 7.2353,26.5579 -4.0732,-0.6431 -8.0136,-1.0225 -11.7216,-1.1231 z" /><path
                 id="path82"
                 style="fill:#b11d23;fill-opacity:1;fill-rule:nonzero;stroke:none"
                 d="m 8507.4254,7821.6521 c -3.3887,-8.4594 -6.0927,-17.8021 -7.2353,-26.5579 4.9736,-0.2969 10.1356,-0.1831 15.2069,0.2964 0.7295,9.2206 2.2177,19.1707 4.5517,28.9656 -4.2412,-1.1543 -8.4491,-2.0611 -12.5233,-2.7041 z" /><path
                 id="path84"
                 style="fill:#af1c22;fill-opacity:1;fill-rule:nonzero;stroke:none"
                 d="m 8519.9487,7824.3562 c -2.334,-9.7949 -3.8222,-19.745 -4.5517,-28.9656 6.3369,0.7041 12.5184,2.1181 18.495,4.1435 0.5527,9.5712 1.0019,20.8333 2.1445,31.0017 -5.1416,-2.4609 -10.413,-4.6352 -16.0878,-6.1796 z" /><path
                 id="path86"
                 style="fill:#b01d23;fill-opacity:1;fill-rule:nonzero;stroke:none"
                 d="m 8536.0365,7830.5358 c -1.1426,-10.1684 -1.5918,-21.4305 -2.1445,-31.0017 5.9765,2.0259 11.7479,4.663 17.2625,7.8144 0.376,9.9213 0.2412,20.5452 0.1934,31.0862 -5.1572,-2.6909 -10.1699,-5.438 -15.3114,-7.8989 z" /><path
                 id="path88"
                 style="fill:#b31d23;fill-opacity:1;fill-rule:nonzero;stroke:none"
                 d="m 8551.3479,7838.4347 c 3.415,1.7817 5.4716,2.5278 7.5331,2.4482 0.6338,-10.4638 1.1777,-20.9935 0.9131,-30.8259 -2.1484,0.3569 -4.4687,-0.3252 -8.6396,-2.7085 0.376,9.9213 0.2412,20.5452 0.1934,31.0862 z" /><path
                 id="path90"
                 style="fill:#b31d23;fill-opacity:1;fill-rule:nonzero;stroke:none"
                 d="m 8558.881,7840.8829 c 10.2714,-0.397 24.4227,-9.5497 34.1062,-12.9506 3.1709,-9.7968 4.6562,-22.2025 4.8447,-31.321 -13.1796,2.5322 -25.4002,11.3456 -38.0378,13.4457 0.2646,9.8324 -0.2793,20.3621 -0.9131,30.8259 z" /><path
                 id="path92"
                 style="fill:#b91d24;fill-opacity:1;fill-rule:nonzero;stroke:none"
                 d="m 8592.9872,7827.9323 c 9.5097,-3.3388 19.1385,-6.3452 28.781,-9.1269 5.6123,-8.3715 8.623,-16.4632 9.4296,-24.115 -10.7958,-0.9414 -22.2342,-0.2178 -33.3659,1.9209 -0.1885,9.1185 -1.6738,21.5242 -4.8447,31.321 z" /><path
                 id="path94"
                 style="fill:#bd1d24;fill-opacity:1;fill-rule:nonzero;stroke:none"
                 d="m 8486.113,7797.2621 c -0.5351,-2.8461 -0.8007,-5.6322 -0.8007,-8.3524 4.3144,-1.5264 9.1542,-2.5484 14.1961,-3.0952 0.025,3.0278 0.2881,6.2592 0.6817,9.2797 -4.9736,0.2969 -9.7597,1.0049 -14.0771,2.1679 z" /><path
                 id="path96"
                 style="fill:#b11d23;fill-opacity:1;fill-rule:nonzero;stroke:none"
                 d="m 8500.1901,7795.0942 c -0.3936,-3.0205 -0.6563,-6.2519 -0.6817,-9.2797 5.042,-0.5469 10.2861,-0.6187 15.4101,-0.2456 0.051,3.3354 0.2256,6.6274 0.4785,9.8217 -5.0713,-0.4795 -10.2333,-0.5933 -15.2069,-0.2964 z" /><path
                 id="path98"
                 style="fill:#bd1d24;fill-opacity:1;fill-rule:nonzero;stroke:none"
                 d="m 8485.3123,7788.9097 c 4.3144,-1.5264 9.1542,-2.5484 14.1961,-3.0952 -0.021,-2.4375 0.072,-4.9414 0.3057,-7.4223 -5.0048,0.7583 -9.7958,2.042 -13.9569,3.9057 -0.3633,2.1572 -0.5449,4.3618 -0.5449,6.6118 z" /><path
                 id="path100"
                 style="fill:#bd1d24;fill-opacity:1;fill-rule:nonzero;stroke:none"
                 d="m 8485.8572,7782.2979 c 4.1611,-1.8637 8.9521,-3.1474 13.9569,-3.9057 0.2334,-2.481 0.6064,-4.9385 1.1475,-7.2822 -4.8447,1.043 -9.4648,2.6616 -13.4716,4.8628 -0.7246,2.059 -1.2695,4.1684 -1.6328,6.3251 z" /><path
                 id="path102"
                 style="fill:#b91d24;fill-opacity:1;fill-rule:nonzero;stroke:none"
                 d="m 8499.5084,7785.8145 c 5.042,-0.5469 10.2861,-0.6187 15.4101,-0.2456 -0.04,-2.625 0,-5.2768 0.1328,-7.9301 -5.0136,-0.2378 -10.2323,0 -15.2372,0.7534 -0.2334,2.4809 -0.3262,4.9848 -0.3057,7.4223 z" /><path
                 id="path104"
                 style="fill:#c21e24;fill-opacity:1;fill-rule:nonzero;stroke:none"
                 d="m 8499.8141,7778.3922 c 5.0049,-0.7583 10.2236,-0.9912 15.2372,-0.7534 0.1367,-2.6528 0.3721,-5.3066 0.7285,-7.9355 -4.9043,-0.103 -9.9736,0.3637 -14.8182,1.4067 -0.5411,2.3437 -0.9141,4.8012 -1.1475,7.2822 z" /><path
                 id="path106"
                 style="fill:#af1c22;fill-opacity:1;fill-rule:nonzero;stroke:none"
                 d="m 8515.397,7795.3906 c 4.8603,0.54 9.6288,1.4975 14.2841,2.8281 -0.065,-2.1157 -0.1075,-4.3076 -0.1182,-6.541 -4.7822,-1.2529 -9.6825,-2.102 -14.5448,-2.561 0.086,2.1221 0.2168,4.2182 0.3789,6.2739 z" /><path
                 id="path108"
                 style="fill:#b31d23;fill-opacity:1;fill-rule:nonzero;stroke:none"
                 d="m 8515.0181,7789.1167 c 4.8623,0.459 9.7626,1.3081 14.5448,2.561 -0.011,-2.2334 0.01,-4.5078 0.07,-6.79 -4.8671,-1.1963 -9.8603,-1.9199 -14.7264,-2.2001 -0.016,2.1596 0.025,4.3075 0.1113,6.4291 z" /><path
                 id="path110"
                 style="fill:#bc1e24;fill-opacity:1;fill-rule:nonzero;stroke:none"
                 d="m 8514.9068,7782.6876 c 4.8661,0.2802 9.8593,1.0038 14.7264,2.2001 0.061,-2.2817 0.1621,-4.5707 0.3115,-6.8329 -4.9023,-1.1533 -9.9374,-1.7647 -14.8084,-1.8672 -0.1416,2.1689 -0.2139,4.3403 -0.2295,6.5 z" /><path
                 id="path112"
                 style="fill:#c51e25;fill-opacity:1;fill-rule:nonzero;stroke:none"
                 d="m 8515.1363,7776.1876 c 4.871,0.1025 9.9061,0.7139 14.8084,1.8672 0.1494,-2.2622 0.3487,-4.4975 0.6055,-6.6714 -4.8799,-1.1157 -9.8974,-1.6586 -14.7704,-1.6801 -0.292,2.1494 -0.5019,4.3154 -0.6435,6.4843 z" /><path
                 id="path114"
                 style="fill:#b11d23;fill-opacity:1;fill-rule:nonzero;stroke:none"
                 d="m 8529.6811,7798.2187 c 4.6542,1.331 9.1962,3.0351 13.6004,5.0683 0.066,-4.353 0.1485,-8.8515 0.3242,-13.3612 -4.3632,-2.1724 -9.1053,-3.8413 -13.9725,-5.0381 -0.1211,4.564 -0.082,9.0991 0.048,13.331 z" /><path
                 id="path116"
                 style="fill:#bb1d24;fill-opacity:1;fill-rule:nonzero;stroke:none"
                 d="m 8529.6332,7784.8877 c 4.8672,1.1968 9.6093,2.8657 13.9725,5.0381 0.1758,-4.5098 0.4463,-9.0302 0.8887,-13.4272 -4.3232,-2.3115 -9.0653,-3.9994 -13.9442,-5.1152 -0.5137,4.3482 -0.7959,8.9409 -0.917,13.5043 z" /><path
                 id="path118"
                 style="fill:#b81d23;fill-opacity:1;fill-rule:nonzero;stroke:none"
                 d="m 8543.2815,7803.287 c 2.6768,1.2353 5.3027,2.5927 7.873,4.0615 -0.057,-8.4604 -0.1933,-17.4847 0.1777,-25.9466 -2.4648,-1.685 -4.8232,-3.8266 -6.8378,-4.9033 -0.8857,8.7944 -1.0791,18.0824 -1.2129,26.7884 z" /><path
                 id="path120"
                 style="fill:#bb1d24;fill-opacity:1;fill-rule:nonzero;stroke:none"
                 d="m 8551.1545,7807.3485 c 4.1709,2.3833 6.4912,3.0654 8.6396,2.7085 -0.1484,-8.7256 -0.5244,-17.9945 -0.5889,-26.6297 -2.5556,1.0224 -5.2734,-0.2476 -7.873,-2.0254 -0.371,8.4619 -0.2343,17.4862 -0.1777,25.9466 z" /><path
                 id="path122"
                 style="fill:#bd1d24;fill-opacity:1;fill-rule:nonzero;stroke:none"
                 d="m 8559.7941,7810.057 c 4.1357,-0.6875 8.2275,-2.0938 12.3222,-3.7637 -0.3174,-9.5907 -1.0401,-20.3646 -1.877,-29.7302 -3.1074,1.4775 -7.3612,5.3959 -11.0341,6.8642 0.065,8.6352 0.4405,17.9041 0.5889,26.6297 z" /><path
                 id="path124"
                 style="fill:#bd1d24;fill-opacity:1;fill-rule:nonzero;stroke:none"
                 d="m 8572.1163,7806.2933 c -0.3174,-9.5907 -1.0401,-20.3646 -1.877,-29.7302 3.9033,-1.856 8.0976,-3.3974 12.455,-4.5737 1.1621,8.6 2.0918,19.8514 2.1113,28.8147 -4.2685,1.7783 -8.4804,3.7729 -12.6893,5.4892 z" /><path
                 id="path126"
                 style="fill:#bd1d24;fill-opacity:1;fill-rule:nonzero;stroke:none"
                 d="m 8584.8056,7800.8041 c 4.2685,-1.7783 8.5927,-3.3408 13.0263,-4.1928 0.1386,-4.168 0.085,-8.9604 -0.1895,-13.6904 -4.4951,0.6236 -9.0341,1.8365 -13.4637,3.3399 0.3798,5.0082 0.6171,10.0614 0.6269,14.5433 z" /><path
                 id="path128"
                 style="fill:#c11e24;fill-opacity:1;fill-rule:nonzero;stroke:none"
                 d="m 8584.1787,7786.2608 c 4.4296,-1.5034 8.9686,-2.7163 13.4637,-3.3399 -0.2744,-4.7299 -0.7695,-9.3969 -1.5127,-13.3138 -4.5566,0.395 -9.078,1.206 -13.4354,2.3823 0.5811,4.3003 1.1045,9.2631 1.4844,14.2714 z" /><path
                 id="path130"
                 style="fill:#bd1d24;fill-opacity:1;fill-rule:nonzero;stroke:none"
                 d="m 8597.8319,7796.6113 c 5.5654,-1.0694 11.2079,-1.7852 16.8084,-2.1157 0.2559,-3.8433 0.2813,-8.1924 -0.017,-12.4555 -5.6611,-0.2192 -11.4315,0.1064 -16.9813,0.8808 0.2744,4.73 0.3281,9.5224 0.1895,13.6904 z" /><path
                 id="path132"
                 style="fill:#c41e25;fill-opacity:1;fill-rule:nonzero;stroke:none"
                 d="m 8597.6424,7782.9209 c 5.5498,-0.7744 11.3202,-1.1 16.9813,-0.8808 -0.2978,-4.2632 -0.9199,-8.4409 -1.9609,-11.9413 -5.4111,-0.8384 -10.9989,-0.9717 -16.5331,-0.4917 0.7432,3.9169 1.2383,8.5839 1.5127,13.3138 z" /><path
                 id="path134"
                 style="fill:#bd1d24;fill-opacity:1;fill-rule:nonzero;stroke:none"
                 d="m 8614.6403,7794.4956 c 0.5108,-7.687 0.1035,-17.3954 -1.9775,-24.3968 5.4121,0.8379 10.6474,2.3808 15.4794,4.7187 2.6757,6.1689 3.7978,12.8349 3.0556,19.8729 -5.3974,-0.4707 -10.9559,-0.5254 -16.5575,-0.1948 z" /><path
                 id="path136"
                 style="fill:#bd1d24;fill-opacity:1;fill-rule:nonzero;stroke:none"
                 d="m 8487.49,7775.9728 c 2.0674,-5.8706 5.6035,-11.331 10.5907,-16.3183 3.415,-3.4155 7.2939,-6.0873 11.4325,-8.015 -4.3114,5.7773 -6.9999,12.7201 -8.5516,19.4705 -4.8447,1.043 -9.4648,2.6616 -13.4716,4.8628 z" /><path
                 id="path138"
                 style="fill:#c61e25;fill-opacity:1;fill-rule:nonzero;stroke:none"
                 d="m 8500.9616,7771.11 c 4.8446,-1.043 9.9139,-1.5097 14.8182,-1.4067 0.5186,-3.8149 1.293,-7.5771 2.3926,-11.206 -4.6826,0.1685 -9.4472,1.0103 -13.9697,2.5127 -1.4052,3.3017 -2.4648,6.725 -3.2411,10.1 z" /><path
                 id="path140"
                 style="fill:#c31e25;fill-opacity:1;fill-rule:nonzero;stroke:none"
                 d="m 8504.2027,7761.01 c 4.5225,-1.5024 9.2871,-2.3442 13.9697,-2.5127 1.0986,-3.6289 2.5234,-7.1254 4.3407,-10.4086 -4.4599,0.4395 -8.8602,1.623 -12.9999,3.5508 -2.1552,2.8886 -3.9052,6.0688 -5.3105,9.3705 z" /><path
                 id="path142"
                 style="fill:#c91e25;fill-opacity:1;fill-rule:nonzero;stroke:none"
                 d="m 8515.7798,7769.7033 c 4.873,0.021 9.8905,0.5644 14.7704,1.6801 0.334,-3.891 0.8857,-7.8173 1.7011,-11.6146 -4.6679,-1.0571 -9.4696,-1.4751 -14.0789,-1.2715 -1.0996,3.6289 -1.874,7.3911 -2.3926,11.206 z" /><path
                 id="path144"
                 style="fill:#c61e25;fill-opacity:1;fill-rule:nonzero;stroke:none"
                 d="m 8518.1724,7758.4973 c 4.6093,-0.2036 9.411,0.2144 14.0789,1.2715 0.8164,-3.7978 1.8946,-7.4677 3.2813,-10.8466 -4.2715,-0.9844 -8.6738,-1.2622 -13.0195,-0.8335 -1.8173,3.2832 -3.2421,6.7797 -4.3407,10.4086 z" /><path
                 id="path146"
                 style="fill:#c41e25;fill-opacity:1;fill-rule:nonzero;stroke:none"
                 d="m 8530.5502,7771.3834 c 0.668,-7.7826 2.209,-15.703 4.9824,-22.4612 4.2724,0.9839 8.4149,2.6738 12.2401,5.0703 -1.9111,6.9496 -2.9785,14.5711 -3.2783,22.5061 -4.3232,-2.3115 -9.0653,-3.9994 -13.9442,-5.1152 z" /><path
                 id="path148"
                 style="fill:#bb1d24;fill-opacity:1;fill-rule:nonzero;stroke:none"
                 d="m 8544.4944,7776.4986 c 2.1855,1.1685 4.7763,3.5899 7.4677,5.3218 0.3145,-7.8242 1.3125,-15.3012 2.9131,-22.1659 -2.1943,-2.1943 -4.5791,-4.0815 -7.1025,-5.662 -1.9111,6.9496 -2.9785,14.5711 -3.2783,22.5061 z" /><path
                 id="path150"
                 style="fill:#b61d23;fill-opacity:1;fill-rule:nonzero;stroke:none"
                 d="m 8551.9621,7781.8204 c 1.2334,0.7939 2.4873,1.4428 3.7344,1.7607 0.1142,-7.4301 0.874,-14.4974 2.1259,-20.9793 -0.9824,-0.9824 -1.9648,-1.9649 -2.9472,-2.9473 -1.6006,6.8647 -2.5986,14.3417 -2.9131,22.1659 z" /><path
                 id="path152"
                 style="fill:#b41d23;fill-opacity:1;fill-rule:nonzero;stroke:none"
                 d="m 8555.6965,7783.5811 c 1.1855,0.3022 2.3632,0.3047 3.5087,-0.1538 -0.06,-8.3144 0.4864,-16.2513 1.4209,-23.6292 -0.9345,0.9345 -1.8691,1.8691 -2.8037,2.8037 -1.2519,6.4819 -2.0117,13.5492 -2.1259,20.9793 z" /><path
                 id="path154"
                 style="fill:#b31d23;fill-opacity:1;fill-rule:nonzero;stroke:none"
                 d="m 8559.2052,7783.4273 c 3.6729,-1.4683 7.9267,-5.3867 11.0341,-6.8642 -0.5156,-8.1206 -0.497,-16.3817 -0.5752,-23.577 -3.288,1.8247 -6.3368,4.1108 -9.038,6.812 -0.9345,7.3779 -1.4814,15.3148 -1.4209,23.6292 z" /><path
                 id="path156"
                 style="fill:#b91d24;fill-opacity:1;fill-rule:nonzero;stroke:none"
                 d="m 8570.2393,7776.5631 c -0.5156,-8.1206 -0.497,-16.3817 -0.5752,-23.577 3.3799,-1.8754 7.0127,-3.2626 10.7812,-4.1113 1.0195,6.6982 1.3642,15.5033 2.249,23.1146 -4.3574,1.1763 -8.5517,2.7177 -12.455,4.5737 z" /><path
                 id="path158"
                 style="fill:#c41e25;fill-opacity:1;fill-rule:nonzero;stroke:none"
                 d="m 8582.6943,7771.9894 c 4.3574,-1.1763 8.8788,-1.9873 13.4354,-2.3823 -0.6269,-3.5513 -1.1582,-7.4038 -1.7783,-11.1435 -4.2402,0.058 -8.5604,0.6157 -12.7313,1.626 0.3242,3.9902 0.6318,8.0942 1.0742,11.8998 z" /><path
                 id="path160"
                 style="fill:#c21e24;fill-opacity:1;fill-rule:nonzero;stroke:none"
                 d="m 8581.6201,7760.0896 c 4.1709,-1.0103 8.4911,-1.5684 12.7313,-1.626 -0.6201,-3.7402 -1.3281,-7.3671 -2.3095,-10.4677 -3.9238,-0.2797 -7.8281,0.03 -11.5966,0.8789 0.5098,3.3491 0.8506,7.2251 1.1748,11.2148 z" /><path
                 id="path162"
                 style="fill:#c91e25;fill-opacity:1;fill-rule:nonzero;stroke:none"
                 d="m 8596.1297,7769.6071 c 5.5342,-0.48 11.122,-0.3467 16.5331,0.4917 -0.9072,-3.1445 -1.8457,-6.4663 -2.9677,-9.6777 -5.0137,-1.3935 -10.2509,-2.0317 -15.3437,-1.9575 0.6201,3.7397 1.1514,7.5922 1.7783,11.1435 z" /><path
                 id="path164"
                 style="fill:#c61e25;fill-opacity:1;fill-rule:nonzero;stroke:none"
                 d="m 8594.3514,7758.4636 c 5.0928,-0.074 10.33,0.564 15.3437,1.9575 -1.1221,-3.2114 -2.4287,-6.3114 -4.0703,-9.0131 -4.3291,-1.9433 -8.9326,-3.0805 -13.5829,-3.4121 0.9814,3.1006 1.6894,6.7275 2.3095,10.4677 z" /><path
                 id="path166"
                 style="fill:#c61e25;fill-opacity:1;fill-rule:nonzero;stroke:none"
                 d="m 8612.6628,7770.0988 c -1.8144,-6.289 -3.7539,-13.288 -7.038,-18.6908 4.33,1.9429 8.3857,4.6919 11.9403,8.2465 4.6045,4.605 8.2031,9.6884 10.5771,15.163 -4.832,-2.3379 -10.0673,-3.8808 -15.4794,-4.7187 z" /></g></g></g></g></g></g></svg>