<?xml version="1.0" encoding="UTF-8" standalone="no"?>
<svg
   xmlnsDc="http://purl.org/dc/elements/1.1/"
   xmlnsCc="http://creativecommons.org/ns#"
   xmlnsRdf="http://www.w3.org/1999/02/22-rdf-syntax-ns#"
   xmlnsSvg="http://www.w3.org/2000/svg"
   xmlns="http://www.w3.org/2000/svg"
   viewBox="0 0 2560 1264"
   height="1264"
   width="2560"
   xmlSpace="preserve"
   id="svg2"
   version="1.1"><defs
     id="defs6"><clipPath
       id="clipPath50"
       clipPathUnits="userSpaceOnUse"><path
         id="path48"
         d="m 9924.3,2636.63 c 89.6,-81.59 186.7,-159.31 288.2,-235.86 143.7,-108.26 296.3,-214.18 449.1,-325.37 0,0 0.4,0.27 1.2,0.82 13.3,9.2 135.9,94.32 297.4,217.94 133.3,101.97 293.1,230.13 439.9,363.45 131.7,119.62 263,246.66 362.5,395.12 96.6,144.14 148.5,283.46 162.4,415.21 12.7,121.18 -6.6,235.94 -52.7,342.16 -40.8,94.26 -102.8,181.78 -182.1,261.07 -122.4,122.4 -279.3,189.31 -439.4,200.72 -200.8,14.33 -398.8,-61.08 -540.9,-203.2 -16.1,-16.09 -32.2,-32.18 -48.3,-48.27 -16.9,16.91 -33.8,33.83 -50.7,50.75 -152.4,152.37 -358.2,218.75 -557.2,199.13 -153.59,-15.14 -303.07,-81.52 -420.68,-199.13 -85.87,-85.87 -146.75,-179.89 -182.35,-280.96 -24.97,-70.9 -37.5,-145.27 -37.5,-222.74 0,-46.84 4.59,-94.81 13.79,-143.81 26.8,-142.75 88.6,-277.95 165.14,-400.6 88.82,-142.33 202.64,-268.43 332.2,-386.43 z" /></clipPath><clipPath
       id="clipPath56"
       clipPathUnits="userSpaceOnUse"><path
         id="path54"
         d="m 9924.3,2636.63 c 89.6,-81.59 186.7,-159.31 288.2,-235.86 143.7,-108.26 296.3,-214.18 449.1,-325.37 0,0 0.4,0.27 1.2,0.82 13.3,9.2 135.9,94.32 297.4,217.94 133.3,101.97 293.1,230.13 439.9,363.45 131.7,119.62 263,246.66 362.5,395.12 96.6,144.14 148.5,283.46 162.4,415.21 12.7,121.18 -6.6,235.94 -52.7,342.16 -40.8,94.26 -102.8,181.78 -182.1,261.07 -122.4,122.4 -279.3,189.31 -439.4,200.72 -200.8,14.33 -398.8,-61.08 -540.9,-203.2 -16.1,-16.09 -32.2,-32.18 -48.3,-48.27 -16.9,16.91 -33.8,33.83 -50.7,50.75 -152.4,152.37 -358.2,218.75 -557.2,199.13 -153.59,-15.14 -303.07,-81.52 -420.68,-199.13 -85.87,-85.87 -146.75,-179.89 -182.35,-280.96 -24.97,-70.9 -37.5,-145.27 -37.5,-222.74 0,-46.84 4.59,-94.81 13.79,-143.81 26.8,-142.75 88.6,-277.95 165.14,-400.6 88.82,-142.33 202.64,-268.43 332.2,-386.43" /></clipPath></defs><g
     transform="matrix(1.3333333,0,0,-1.3333333,0,1264)"
     id="g10"><g
       transform="scale(0.1)"
       id="g12"><path
         id="path14"
         style="fill:#626e7a;fill-opacity:1;fill-rule:nonzero;stroke:none"
         d="m 12773.2,3290.28 h 107 c 111.9,0 197.7,23.13 257.6,69.43 59.7,46.29 89.7,112.84 89.7,199.65 0,86.77 -30,153.33 -89.7,199.62 -59.9,46.29 -145.7,69.46 -257.6,69.46 h -107 z m 1247,-1206.54 h -706 l -541,839.05 v -839.05 h -567.1 v 2181.58 h 882.5 c 121.5,0 227.6,-17.85 318.2,-53.52 90.7,-35.73 165.4,-84.4 224.3,-146.11 58.8,-61.76 103.1,-133.1 133.1,-214.12 29.8,-81.02 44.8,-167.8 44.8,-260.39 0,-165.92 -40,-300.46 -120.1,-403.62 -80,-103.22 -198.1,-173.18 -354.4,-209.78 l 685.7,-894.04" /><path
         id="path16"
         style="fill:#626e7a;fill-opacity:1;fill-rule:nonzero;stroke:none"
         d="m 14765.1,3264.21 h 188.1 c 208.3,0 312.4,90.65 312.4,271.99 0,181.3 -104.1,271.98 -312.4,271.98 h -188.1 z m 0,-1180.47 H 14198 v 2181.58 h 902.7 c 245,0 432.6,-63.65 562.8,-190.96 130.2,-127.29 195.3,-306.69 195.3,-538.16 0,-231.48 -65.1,-410.85 -195.3,-538.16 -130.2,-127.32 -317.8,-190.96 -562.8,-190.96 h -335.6 v -723.34" /><g
         transform="scale(1.07887)"
         id="g18"><path
           id="path20"
           style="fill:#626e7a;fill-opacity:1;fill-rule:nonzero;stroke:none"
           d="m 16007.7,3435.9 c -57.2,46.48 -114.4,80.88 -171.7,103.27 -57.2,22.34 -112.6,33.53 -166.2,33.53 -68,0 -123.4,-16.11 -166.3,-48.28 -42.9,-32.19 -64.4,-74.23 -64.4,-126.06 0,-35.78 10.8,-65.28 32.2,-88.49 21.5,-23.26 49.6,-43.37 84.5,-60.35 34.8,-17 74.1,-31.76 118,-44.24 43.7,-12.52 87.1,-25.94 130,-40.22 171.7,-57.25 297.3,-133.69 376.8,-229.31 79.5,-95.66 119.4,-220.37 119.4,-374.1 0,-103.73 -17.4,-197.61 -52.3,-281.6 -34.8,-84.06 -85.8,-156.02 -152.8,-215.89 -67.1,-59.92 -149.3,-106.39 -246.8,-139.45 -97.5,-33.07 -207.9,-49.64 -331.2,-49.64 -255.7,0 -492.6,75.98 -710.7,227.97 l 225.3,423.72 c 78.6,-69.71 156.4,-121.6 233.2,-155.53 77,-33.99 153,-50.96 228.1,-50.96 85.8,0 149.7,19.64 191.7,59.01 42,39.3 63.1,84 63.1,134.1 0,30.36 -5.4,56.72 -16.2,79.09 -10.7,22.34 -28.6,42.91 -53.6,61.69 -25.1,18.77 -57.7,36.19 -97.9,52.3 -40.2,16.08 -88.9,33.92 -146.2,53.63 -67.9,21.47 -134.5,45.14 -199.7,71.07 -65.4,25.91 -123.4,60.32 -174.4,103.23 -50.9,42.92 -92.1,96.98 -123.3,162.26 -31.4,65.25 -46.9,147.94 -46.9,248.08 0,100.1 16.5,190.82 49.5,272.21 33.1,81.33 79.6,151.07 139.5,209.19 59.9,58.07 133.1,103.24 219.9,135.43 86.7,32.19 183.7,48.26 291.1,48.26 100.1,0 204.6,-13.88 313.7,-41.57 109,-27.73 213.6,-68.38 313.8,-122.02 l -209.2,-410.33" /></g><g
         transform="scale(1.07685)"
         id="g22"><path
           id="path24"
           style="fill:#bd1e24;fill-opacity:1;fill-rule:nonzero;stroke:none"
           d="m 15141.9,5789.76 h 99.5 c 103.8,0 183.5,21.49 239.1,64.47 55.5,43 83.3,104.8 83.3,185.41 0,80.58 -27.8,142.38 -83.3,185.38 -55.6,42.98 -135.3,64.49 -239.1,64.49 h -99.5 z M 16300,4669.32 h -655.6 l -502.5,779.18 v -779.18 h -526.6 v 2025.9 h 819.5 c 112.8,0 211.3,-16.58 295.6,-49.7 84.1,-33.18 153.5,-78.37 208.2,-135.68 54.6,-57.36 95.8,-123.6 123.6,-198.84 27.7,-75.25 41.7,-155.83 41.7,-241.81 0,-154.09 -37.3,-279.02 -111.6,-374.82 -74.3,-95.85 -184,-160.82 -329.1,-194.8 l 636.8,-830.25" /></g><path
         id="path26"
         style="fill:#bd1e24;fill-opacity:1;fill-rule:nonzero;stroke:none"
         d="m 15235.6,6422.8 c -140,0 -257.6,-94.84 -292.9,-223.71 h -226.4 c -14.2,121.72 -59.2,233.98 -127,328.92 l 176.9,162.88 c 47.6,-31.01 104.4,-49.2 165.5,-49.2 167.8,0 303.9,136.09 303.9,303.95 0,167.89 -136.1,303.97 -303.9,303.97 -167.9,0 -304,-136.08 -304,-303.97 0,-48.92 11.8,-94.98 32.4,-135.92 l -177.2,-163.15 c -106.9,95.2 -242.7,158.56 -392.7,175.29 v 134.2 c 130.1,34.4 226.2,152.6 226.2,293.53 0,167.89 -136.1,303.98 -304,303.98 -167.8,0 -303.9,-136.09 -303.9,-303.98 0,-139.57 94.2,-256.88 222.4,-292.55 v -135.18 c -143.6,-16.02 -274.2,-74.77 -378.9,-163.28 l -158.1,141.1 c 23.8,43.33 37.3,93.05 37.3,145.96 0,167.89 -136.1,303.97 -303.9,303.97 -167.9,0 -304,-136.08 -304,-303.97 0,-167.86 136.1,-303.95 304,-303.95 57,0 110.2,16.01 155.8,43.35 l 159.4,-142.18 c -73.8,-97.98 -122.8,-215.68 -137.8,-343.77 h -188.5 c -35.2,128.87 -152.8,223.71 -292.9,223.71 -167.8,0 -303.9,-136.08 -303.9,-303.97 0,-167.86 136.1,-303.95 303.9,-303.95 140.5,0 258.4,95.45 293.2,224.92 h 187.3 c 13.8,-131.09 63.3,-251.54 138.6,-351.5 l -164.7,-151.68 c -47.3,30.48 -103.6,48.38 -164.1,48.38 -167.8,0 -303.9,-136.08 -303.9,-303.97 0,-167.87 136.1,-303.95 303.9,-303.95 167.9,0 303.9,136.08 303.9,303.95 0,49.49 -12,96.06 -33,137.36 l 167.4,154.21 c 104.8,-88.54 235.4,-147.32 379,-163.34 v -139.61 c -128.2,-35.67 -222.4,-152.98 -222.4,-292.58 0,-167.86 136.1,-303.95 303.9,-303.95 167.9,0 304,136.09 304,303.95 0,140.96 -96.1,259.16 -226.2,293.56 v 138.63 c 157.8,17.61 299.9,86.9 409.3,190.55 l 144.5,-128.93 c -19,-39.67 -30,-83.93 -30,-130.85 0,-167.86 136.1,-303.94 304,-303.94 167.8,0 303.9,136.08 303.9,303.94 0,167.89 -136.1,303.98 -303.9,303.98 -63.1,0 -121.7,-19.26 -170.3,-52.19 l -145.5,129.77 c 62,92.97 102.7,201.35 115.1,318.21 h 225.1 c 34.8,-129.47 152.7,-224.92 293.2,-224.92 167.9,0 303.9,136.09 303.9,303.95 0,167.89 -136,303.97 -303.9,303.97" /><path
         id="path28"
         style="fill:#bd1e24;fill-opacity:1;fill-rule:nonzero;stroke:none"
         d="m 2748.24,6651.51 c -61.74,50.15 -123.45,87.25 -185.18,111.41 -61.74,24.1 -121.51,36.17 -179.37,36.17 -73.33,0 -133.1,-17.38 -179.4,-52.08 -46.29,-34.73 -69.43,-80.08 -69.43,-136.01 0,-38.6 11.57,-70.42 34.71,-95.46 23.15,-25.11 53.54,-46.8 91.14,-65.12 37.61,-18.34 80.03,-34.25 127.32,-47.73 47.24,-13.51 94.03,-27.98 140.32,-43.39 185.18,-61.77 320.66,-144.23 406.5,-247.38 85.81,-103.22 128.76,-237.76 128.76,-403.62 0,-111.91 -18.79,-213.19 -56.42,-303.81 -37.61,-90.68 -92.57,-168.33 -164.9,-232.91 -72.33,-64.65 -161.07,-114.79 -266.2,-150.46 -105.15,-35.66 -224.22,-53.54 -357.33,-53.54 -275.85,0 -531.43,81.96 -766.75,245.95 l 243.04,457.13 c 84.87,-75.21 168.77,-131.19 251.73,-167.8 82.93,-36.66 164.92,-54.98 245.94,-54.98 92.6,0 161.52,21.19 206.88,63.67 45.3,42.39 67.99,90.62 67.99,144.67 0,32.76 -5.78,61.21 -17.35,85.34 -11.6,24.1 -30.88,46.29 -57.89,66.55 -27.01,20.25 -62.21,39.04 -105.6,56.42 -43.39,17.35 -95.96,36.61 -157.7,57.86 -73.3,23.17 -145.13,48.7 -215.53,76.68 -70.46,27.95 -133.11,65.09 -188.09,111.38 -54.95,46.29 -99.37,104.62 -133.07,175.05 -33.79,70.4 -50.64,159.61 -50.64,267.64 0,108 17.82,205.88 53.52,293.68 35.66,87.75 85.8,162.99 150.45,225.69 64.61,62.65 143.67,111.38 237.25,146.11 93.53,34.73 198.22,52.08 313.94,52.08 108,0 220.85,-14.97 338.51,-44.86 117.66,-29.91 230.47,-73.77 338.54,-131.63 l -225.69,-442.7" /><path
         id="path30"
         style="fill:#bd1e24;fill-opacity:1;fill-rule:nonzero;stroke:none"
         d="M 3836.3,7209.93 V 6023.67 c 0,-63.67 2.38,-128.75 7.22,-195.31 4.79,-66.55 19.26,-126.85 43.42,-180.83 24.07,-54.01 62.2,-97.94 114.28,-131.67 52.08,-33.76 125.35,-50.61 219.88,-50.61 94.5,0 167.33,16.85 218.47,50.61 51.08,33.73 89.18,77.66 114.28,131.67 25.04,53.98 40.02,114.28 44.83,180.83 4.82,66.56 7.25,131.64 7.25,195.31 v 1186.26 h 564.2 V 5945.56 c 0,-339.54 -77.68,-587.37 -232.91,-743.6 -155.3,-156.26 -393.99,-234.38 -716.12,-234.38 -322.15,0 -561.3,78.12 -717.56,234.38 -156.23,156.23 -234.35,404.06 -234.35,743.6 v 1264.37 h 567.11" /><path
         id="path32"
         style="fill:#bd1e24;fill-opacity:1;fill-rule:nonzero;stroke:none"
         d="m 6044.04,6234.89 h 107.03 c 111.84,0 197.71,23.13 257.51,69.43 59.77,46.29 89.72,112.84 89.72,199.65 0,86.78 -29.95,153.33 -89.72,199.62 -59.8,46.3 -145.67,69.46 -257.51,69.46 H 6044.04 Z M 7291.06,5028.34 h -705.99 l -541.03,839.07 v -839.07 h -567.11 v 2181.59 h 882.48 c 121.51,0 227.57,-17.85 318.25,-53.51 90.66,-35.73 165.4,-84.4 224.25,-146.11 58.81,-61.77 103.16,-133.1 133.11,-214.13 29.85,-81.02 44.82,-167.8 44.82,-260.39 0,-165.92 -40.04,-300.46 -120.06,-403.62 -80.06,-103.21 -198.19,-173.17 -354.45,-209.78 l 685.73,-894.05" /><path
         id="path34"
         style="fill:#bd1e24;fill-opacity:1;fill-rule:nonzero;stroke:none"
         d="m 7740.83,7209.93 526.56,-1328.05 529.5,1328.05 h 616.28 L 8493.09,5028.34 h -451.36 l -917.2,2181.59 h 616.3" /><path
         id="path36"
         style="fill:#bd1e24;fill-opacity:1;fill-rule:nonzero;stroke:none"
         d="M 10206.6,7209.93 V 5028.34 h -567.15 v 2181.59 h 567.15" /><path
         id="path38"
         style="fill:#bd1e24;fill-opacity:1;fill-rule:nonzero;stroke:none"
         d="m 11049.1,7209.93 526.6,-1328.05 529.5,1328.05 h 616.3 L 11801.4,5028.34 H 11350 l -917.2,2181.59 h 616.3" /><path
         id="path40"
         style="fill:#626e7a;fill-opacity:1;fill-rule:nonzero;stroke:none"
         d="m 9183.75,3534.74 c -131.21,160.08 -293.23,240.17 -486.1,240.17 -84.9,0 -163.47,-15.48 -235.8,-46.3 -72.33,-30.88 -134.54,-72.83 -186.62,-125.88 -52.08,-53.08 -93.09,-116.22 -122.97,-189.49 -29.93,-73.34 -44.84,-152.42 -44.84,-237.26 0,-86.81 14.91,-166.86 44.84,-240.16 29.88,-73.34 71.35,-136.98 124.42,-190.97 53.02,-54.02 115.23,-96.46 186.62,-127.29 71.34,-30.88 148.52,-46.29 231.46,-46.29 181.29,0 344.32,77.12 488.99,231.44 v -671.23 l -57.88,-20.25 c -86.79,-30.86 -167.81,-53.55 -243.04,-68.02 -75.22,-14.45 -149.5,-21.7 -222.78,-21.7 -150.46,0 -294.68,28.48 -432.57,85.37 -137.93,56.87 -259.45,136.92 -364.56,240.14 -105.15,103.19 -189.51,225.69 -253.17,367.45 -63.64,141.79 -95.48,296.58 -95.48,464.39 0,167.82 31.34,321.62 94.05,461.51 62.66,139.82 146.55,260.39 251.71,361.67 105.11,101.25 227.13,180.33 366.01,237.22 138.89,56.9 284.5,85.37 436.9,85.37 86.81,0 172.16,-9.19 256.06,-27.48 83.92,-18.37 172.16,-46.79 264.75,-85.36 v -677.05" /><path
         id="path42"
         style="fill:#ffffff;fill-opacity:1;fill-rule:nonzero;stroke:none"
         d="m 14364.4,6046.77 c -91.5,-131.51 -356.2,-313.83 -356.2,-313.83 -140.3,102.04 -279.9,190.5 -356.3,320.32 -35.1,59.58 -52.5,116.05 -52.5,168.24 0,61.53 24.1,117.09 72,164.93 88.4,88.4 231.7,88.4 320.2,0 l 16.6,-16.62 16.6,16.62 c 88.4,88.4 231.8,88.4 320.2,0 88.4,-88.41 111,-208.1 19.4,-339.66" /><g
         id="g44"><g
           clip-path="url(#clipPath50)"
           id="g46"><g
             clip-path="url(#clipPath56)"
             id="g52"><g
               transform="matrix(10,0,0,-10,-72310,74240)"
               id="g58"><path
                 id="path60"
                 style="fill:#bd1d24;fill-opacity:1;fill-rule:nonzero;stroke:none"
                 d="m 8223.4272,7160.335 c 4.4785,4.0791 9.1455,8.062 13.9619,11.9814 -5.4668,-7.0898 -10.5195,-15.018 -15.0546,-23.2964 -5.9024,-2.582 -11.6143,-4.9687 -17.045,-7.0947 5.5752,6.4067 11.6592,12.5093 18.1377,18.4097 z" /><path
                 id="path62"
                 style="fill:#bd1d24;fill-opacity:1;fill-rule:nonzero;stroke:none"
                 d="m 8205.2895,7141.9253 c 5.4307,2.126 11.1426,4.5127 17.045,7.0947 -4.5342,-8.2783 -8.5498,-16.9062 -11.9454,-25.395 -7.0146,-1.1074 -13.7988,-1.7607 -20.1816,-1.9336 4.4404,7.1167 9.5068,13.8272 15.082,20.2339 z" /><path
                 id="path64"
                 style="fill:#bd1d24;fill-opacity:1;fill-rule:nonzero;stroke:none"
                 d="m 8237.3891,7172.3164 c 4.8174,3.9199 9.7832,7.7764 14.8624,11.604 -4.4571,-8.2798 -8.3584,-17.2588 -11.7315,-26.6338 -6.1904,-2.9072 -12.2832,-5.6845 -18.1855,-8.2666 4.5351,8.2784 9.5878,16.2066 15.0546,23.2964 z" /><path
                 id="path66"
                 style="fill:#b51d23;fill-opacity:1;fill-rule:nonzero;stroke:none"
                 d="m 8222.3345,7149.02 c 5.9023,2.5821 11.9951,5.3594 18.1855,8.2666 -3.374,-9.3745 -6.2207,-19.1445 -8.5703,-29.0058 -7.3018,-1.9878 -14.5459,-3.5484 -21.5606,-4.6558 3.3956,8.4888 7.4112,17.1167 11.9454,25.395 z" /><path
                 id="path68"
                 style="fill:#bd1d24;fill-opacity:1;fill-rule:nonzero;stroke:none"
                 d="m 8252.2515,7183.9204 c 11.6708,8.7964 23.9326,17.4385 36.3193,26.3345 -1.168,-8.8208 -1.7031,-18.0747 -1.999,-27.7134 -15.0733,-9.081 -30.4454,-18.1972 -46.0518,-25.2549 3.3731,9.375 7.2744,18.354 11.7315,26.6338 z" /><path
                 id="path70"
                 style="fill:#b11d23;fill-opacity:1;fill-rule:nonzero;stroke:none"
                 d="m 8240.52,7157.2866 c 15.6064,7.0577 30.9785,16.1739 46.0518,25.2549 -0.2959,-9.6387 -0.3516,-19.6616 -0.5596,-30.021 -17.7598,-9.2661 -34.5205,-18.9209 -54.0625,-24.2397 2.3496,9.8613 5.1963,19.6313 8.5703,29.0058 z" /><path
                 id="path72"
                 style="fill:#bd1d24;fill-opacity:1;fill-rule:nonzero;stroke:none"
                 d="m 8288.5708,7210.2549 c 2.8574,2.0522 5.7226,4.1186 8.5889,6.2031 -0.7715,-18.3906 1.0576,-38.2695 1.6757,-59.7178 -3.5009,0.097 -7.0244,-1.1943 -12.8232,-4.2197 0.416,20.7183 0.2226,40.0933 2.5586,57.7344 z" /><path
                 id="path74"
                 style="fill:#bd1d24;fill-opacity:1;fill-rule:nonzero;stroke:none"
                 d="m 8297.1597,7216.458 c 0,0 0.04,-0.028 0.1191,-0.082 -0.7598,-18.3657 1.081,-38.2173 1.7041,-59.6401 -0.049,0 -0.099,0 -0.1475,0 -0.6181,21.4483 -2.4472,41.3272 -1.6757,59.7178 z" /><path
                 id="path76"
                 style="fill:#bd1d24;fill-opacity:1;fill-rule:nonzero;stroke:none"
                 d="m 8297.2788,7216.3755 c 1.3291,-0.9194 13.5869,-9.4321 29.7402,-21.7935 3.9551,-7.8886 9.9268,-18.2392 15.7598,-28.9604 -16.4141,9.1079 -35.6602,21.2788 -45.166,22.0801 -0.4434,9.9365 -0.7139,19.4907 -0.334,28.6738 z" /><path
                 id="path78"
                 style="fill:#b61d23;fill-opacity:1;fill-rule:nonzero;stroke:none"
                 d="m 8297.6128,7187.7017 c 9.5058,-0.8013 28.7519,-12.9722 45.166,-22.0801 5.832,-10.7212 11.5264,-21.8125 14.9258,-31.1836 -16.6739,5.855 -41.0381,21.6143 -58.7217,22.2974 -0.3115,10.7114 -0.9277,21.0302 -1.3701,30.9663 z" /><path
                 id="path80"
                 style="fill:#bd1d24;fill-opacity:1;fill-rule:nonzero;stroke:none"
                 d="m 8327.019,7194.582 c 13.3262,-10.1972 29.3037,-23.0131 43.9844,-36.3457 13.1719,-11.9619 26.3018,-24.6655 36.2549,-39.5122 -16.6016,4.7891 -33.1817,9.9654 -49.5537,15.7139 -6.7989,18.7417 -22.7764,44.3667 -30.6856,60.144 z" /><path
                 id="path82"
                 style="fill:#bd1d24;fill-opacity:1;fill-rule:nonzero;stroke:none"
                 d="m 8190.2075,7121.6914 c -7.6538,-12.2651 -13.8335,-25.7851 -16.5137,-40.0595 7.4341,-2.003 15.6734,-3.2217 24.2373,-3.733 1.9678,15.0752 6.6221,31.1612 12.458,45.7261 -7.0146,-1.1074 -13.7988,-1.7607 -20.1816,-1.9336 z" /><path
                 id="path84"
                 style="fill:#b11d23;fill-opacity:1;fill-rule:nonzero;stroke:none"
                 d="m 8210.3891,7123.625 c -5.8359,-14.5649 -10.4902,-30.6509 -12.458,-45.7261 8.5635,-0.5112 17.4512,-0.3149 26.1827,0.5108 1.2558,15.8755 3.8183,33.0068 7.8359,49.8711 -7.3018,-1.9878 -14.5459,-3.5484 -21.5606,-4.6558 z" /><path
                 id="path86"
                 style="fill:#af1c22;fill-opacity:1;fill-rule:nonzero;stroke:none"
                 d="m 8231.9497,7128.2808 c -4.0176,-16.8643 -6.5801,-33.9956 -7.8359,-49.8711 10.9101,1.2119 21.5537,3.6465 31.8437,7.1338 0.9512,16.479 1.7236,35.8701 3.6924,53.3769 -8.8535,-4.2368 -17.9287,-7.9804 -27.7002,-10.6396 z" /><path
                 id="path88"
                 style="fill:#b01d23;fill-opacity:1;fill-rule:nonzero;stroke:none"
                 d="m 8259.6499,7138.9204 c -1.9688,-17.5068 -2.7412,-36.8979 -3.6924,-53.3769 10.29,3.4878 20.2266,8.0288 29.7217,13.4546 0.6474,17.0815 0.415,35.373 0.333,53.5224 -8.8799,-4.6328 -17.5098,-9.3633 -26.3623,-13.6001 z" /><path
                 id="path90"
                 style="fill:#b31d23;fill-opacity:1;fill-rule:nonzero;stroke:none"
                 d="m 8286.0122,7152.5205 c 5.8799,3.0679 9.4199,4.3521 12.9707,4.2149 1.0908,-18.0157 2.0273,-36.1451 1.5713,-53.0747 -3.7002,0.6152 -7.6934,-0.5591 -14.875,-4.6626 0.6474,17.0815 0.415,35.373 0.333,53.5224 z" /><path
                 id="path92"
                 style="fill:#b31d23;fill-opacity:1;fill-rule:nonzero;stroke:none"
                 d="m 8298.9829,7156.7354 c 17.6836,-0.6831 42.0478,-16.4424 58.7217,-22.2974 5.459,-16.8677 8.0156,-38.2266 8.3398,-53.9268 -22.6904,4.3599 -43.7314,19.5337 -65.4902,23.1495 0.456,16.9296 -0.4805,35.059 -1.5713,53.0747 z" /><path
                 id="path94"
                 style="fill:#b91d24;fill-opacity:1;fill-rule:nonzero;stroke:none"
                 d="m 8357.7046,7134.438 c 16.372,-5.7485 32.9521,-10.9248 49.5537,-15.7139 9.6631,-14.4135 14.8457,-28.3457 16.2344,-41.5205 -18.587,-1.6206 -38.2823,-0.375 -57.4483,3.3076 -0.3242,15.7002 -2.8808,37.0591 -8.3398,53.9268 z" /><path
                 id="path96"
                 style="fill:#bd1d24;fill-opacity:1;fill-rule:nonzero;stroke:none"
                 d="m 8173.6938,7081.6319 c -0.9204,-4.9004 -1.3794,-9.6973 -1.3794,-14.3809 7.4297,-2.6284 15.7622,-4.3877 24.4429,-5.3291 0.044,5.2134 0.4961,10.7768 1.1738,15.977 -8.5639,0.5113 -16.8032,1.73 -24.2373,3.733 z" /><path
                 id="path98"
                 style="fill:#b11d23;fill-opacity:1;fill-rule:nonzero;stroke:none"
                 d="m 8197.9311,7077.8989 c -0.6777,-5.2002 -1.1298,-10.7636 -1.1738,-15.977 8.6807,-0.9414 17.71,-1.0654 26.5332,-0.4229 0.087,5.7427 0.3877,11.4102 0.8233,16.9107 -8.7315,-0.8257 -17.6192,-1.022 -26.1827,-0.5108 z" /><path
                 id="path100"
                 style="fill:#bd1d24;fill-opacity:1;fill-rule:nonzero;stroke:none"
                 d="m 8172.3144,7067.251 c 7.4297,-2.6284 15.7622,-4.3877 24.4429,-5.3291 -0.034,-4.1968 0.125,-8.5083 0.5264,-12.7793 -8.6167,1.3057 -16.8662,3.5156 -24.0303,6.7246 -0.6255,3.7144 -0.939,7.5103 -0.939,11.3838 z" /><path
                 id="path102"
                 style="fill:#bd1d24;fill-opacity:1;fill-rule:nonzero;stroke:none"
                 d="m 8173.2534,7055.8672 c 7.1641,-3.209 15.4136,-5.4189 24.0303,-6.7246 0.4013,-4.2715 1.0449,-8.5024 1.9765,-12.5381 -8.3418,1.7954 -16.2968,4.583 -23.1953,8.3721 -1.2485,3.5449 -2.186,7.1767 -2.8115,10.8906 z" /><path
                 id="path104"
                 style="fill:#b91d24;fill-opacity:1;fill-rule:nonzero;stroke:none"
                 d="m 8196.7573,7061.9219 c 8.6807,-0.9414 17.71,-1.0654 26.5332,-0.4229 -0.069,-4.5195 -0.01,-9.0859 0.2285,-13.6538 -8.6338,-0.4096 -17.6181,-0.01 -26.2353,1.2974 -0.4014,4.271 -0.5606,8.5825 -0.5264,12.7793 z" /><path
                 id="path106"
                 style="fill:#c21e24;fill-opacity:1;fill-rule:nonzero;stroke:none"
                 d="m 8197.2837,7049.1426 c 8.6172,-1.3062 17.6015,-1.707 26.2353,-1.2974 0.2344,-4.5673 0.6397,-9.1367 1.2539,-13.6626 -8.4443,-0.1772 -17.1718,0.6265 -25.5127,2.4219 -0.9316,4.0357 -1.5752,8.2666 -1.9765,12.5381 z" /><path
                 id="path108"
                 style="fill:#af1c22;fill-opacity:1;fill-rule:nonzero;stroke:none"
                 d="m 8224.1138,7078.4097 c 8.3671,0.9297 16.5781,2.5781 24.5927,4.8691 -0.1113,-3.643 -0.1836,-7.417 -0.2021,-11.2622 -8.2344,-2.1572 -16.6719,-3.6186 -25.043,-4.4087 0.1475,3.6533 0.3721,7.2622 0.6524,10.8018 z" /><path
                 id="path110"
                 style="fill:#b31d23;fill-opacity:1;fill-rule:nonzero;stroke:none"
                 d="m 8223.4614,7067.6079 c 8.3711,0.7901 16.8086,2.2515 25.043,4.4087 -0.019,-3.8447 0.017,-7.7612 0.1211,-11.6899 -8.3809,-2.0601 -16.9776,-3.3057 -25.3555,-3.7891 -0.027,3.7183 0.044,7.4165 0.1914,11.0703 z" /><path
                 id="path112"
                 style="fill:#bc1e24;fill-opacity:1;fill-rule:nonzero;stroke:none"
                 d="m 8223.27,7056.5376 c 8.3779,0.4834 16.9746,1.729 25.3555,3.7891 0.1045,-3.9292 0.2773,-7.8706 0.5351,-11.7652 -8.4394,-1.9853 -17.1093,-3.0385 -25.4961,-3.2148 -0.2431,3.7344 -0.3681,7.4727 -0.3945,11.1909 z" /><path
                 id="path114"
                 style="fill:#c51e25;fill-opacity:1;fill-rule:nonzero;stroke:none"
                 d="m 8223.6645,7045.3467 c 8.3868,0.1763 17.0567,1.2295 25.4961,3.2148 0.2578,-3.895 0.6006,-7.7431 1.042,-11.4863 -8.4013,-1.9209 -17.039,-2.8559 -25.4297,-2.8926 -0.5019,3.7007 -0.8652,7.4302 -1.1084,11.1641 z" /><path
                 id="path116"
                 style="fill:#b11d23;fill-opacity:1;fill-rule:nonzero;stroke:none"
                 d="m 8248.7065,7083.2788 c 8.0147,2.2915 15.833,5.2256 23.416,8.7261 0.1163,-7.4946 0.2569,-15.2402 0.5596,-23.0044 -7.5127,-3.7402 -15.6767,-6.6143 -24.0566,-8.6738 -0.209,7.8574 -0.1416,15.6655 0.081,22.9521 z" /><path
                 id="path118"
                 style="fill:#bb1d24;fill-opacity:1;fill-rule:nonzero;stroke:none"
                 d="m 8248.6255,7060.3267 c 8.3799,2.0595 16.5439,4.9336 24.0566,8.6738 0.3027,-7.7642 0.7676,-15.5478 1.5303,-23.1186 -7.4434,-3.9795 -15.6084,-6.8858 -24.0098,-8.8067 -0.8838,7.4859 -1.3691,15.3936 -1.5771,23.2515 z" /><path
                 id="path120"
                 style="fill:#b81d23;fill-opacity:1;fill-rule:nonzero;stroke:none"
                 d="m 8272.1225,7092.0049 c 4.6094,2.1274 9.1309,4.4644 13.5567,6.9932 -0.098,-14.5669 -0.333,-30.104 0.3056,-44.6734 -4.2431,-2.9018 -8.3046,-6.5884 -11.7724,-8.4428 -1.5254,15.1416 -1.8584,31.1333 -2.0899,46.123 z" /><path
                 id="path122"
                 style="fill:#bb1d24;fill-opacity:1;fill-rule:nonzero;stroke:none"
                 d="m 8285.6792,7098.9981 c 7.1816,4.1035 11.1748,5.2778 14.875,4.6626 -0.2559,-15.0225 -0.9043,-30.9815 -1.0137,-45.8487 -4.4004,1.7598 -9.0801,-0.4267 -13.5557,-3.4873 -0.6386,14.5694 -0.4033,30.1065 -0.3056,44.6734 z" /><path
                 id="path124"
                 style="fill:#bd1d24;fill-opacity:1;fill-rule:nonzero;stroke:none"
                 d="m 8300.5542,7103.6607 c 7.1211,-1.1831 14.165,-3.6045 21.2148,-6.4795 -0.5459,-16.5122 -1.789,-35.0625 -3.2304,-51.188 -5.3516,2.5444 -12.6748,9.29 -18.9981,11.8188 0.1094,14.8672 0.7578,30.8262 1.0137,45.8487 z" /><path
                 id="path126"
                 style="fill:#bd1d24;fill-opacity:1;fill-rule:nonzero;stroke:none"
                 d="m 8321.769,7097.1812 c -0.5459,-16.5122 -1.789,-35.0625 -3.2304,-51.188 6.7197,-3.1953 13.9414,-5.8491 21.4443,-7.8745 2,14.8071 3.6006,34.1787 3.6348,49.6113 -7.3497,3.062 -14.6026,6.4966 -21.8487,9.4512 z" /><path
                 id="path128"
                 style="fill:#bd1d24;fill-opacity:1;fill-rule:nonzero;stroke:none"
                 d="m 8343.6177,7087.73 c 7.3486,-3.062 14.7949,-5.752 22.4267,-7.2188 0.2393,-7.1762 0.1475,-15.4277 -0.3252,-23.5712 -7.7392,1.0737 -15.5547,3.1616 -23.1816,5.75 0.6543,8.623 1.0635,17.3237 1.0801,25.04 z" /><path
                 id="path130"
                 style="fill:#c11e24;fill-opacity:1;fill-rule:nonzero;stroke:none"
                 d="m 8342.5376,7062.69 c 7.6269,-2.5884 15.4424,-4.6763 23.1816,-5.75 -0.4726,-8.1436 -1.3242,-16.1792 -2.6045,-22.9234 -7.8457,0.6802 -15.6299,2.0767 -23.1318,4.1021 1,7.4038 1.9004,15.9482 2.5547,24.5713 z" /><path
                 id="path132"
                 style="fill:#bd1d24;fill-opacity:1;fill-rule:nonzero;stroke:none"
                 d="m 8366.0444,7080.5112 c 9.583,-1.8413 19.2988,-3.0732 28.9414,-3.6425 0.4395,-6.6172 0.4834,-14.105 -0.029,-21.4453 -9.747,-0.3775 -19.6816,0.1831 -29.2373,1.5166 0.4727,8.1435 0.5645,16.395 0.3252,23.5712 z" /><path
                 id="path134"
                 style="fill:#c41e25;fill-opacity:1;fill-rule:nonzero;stroke:none"
                 d="m 8365.7192,7056.94 c 9.5557,-1.3335 19.4903,-1.8941 29.2373,-1.5166 -0.5136,-7.3399 -1.584,-14.5328 -3.376,-20.5601 -9.3173,-1.4434 -18.9375,-1.6733 -28.4658,-0.8467 1.2803,6.7442 2.1319,14.7798 2.6045,22.9234 z" /><path
                 id="path136"
                 style="fill:#bd1d24;fill-opacity:1;fill-rule:nonzero;stroke:none"
                 d="m 8394.9858,7076.8687 c 0.878,-13.2349 0.1778,-29.9502 -3.4053,-42.0054 9.3174,1.4429 18.3321,4.0991 26.6514,8.1245 4.6065,10.6216 6.5381,22.0982 5.2608,34.2158 -9.293,-0.81 -18.8643,-0.9038 -28.5069,-0.3349 z" /><path
                 id="path138"
                 style="fill:#bd1d24;fill-opacity:1;fill-rule:nonzero;stroke:none"
                 d="m 8176.0649,7044.9766 c 3.5601,-10.1074 9.6475,-19.5093 18.2344,-28.0957 5.8799,-5.8809 12.5576,-10.4805 19.6846,-13.7993 -7.4229,9.9463 -12.0518,21.9008 -14.7237,33.5229 -8.3418,1.7954 -16.2968,4.583 -23.1953,8.3721 z" /><path
                 id="path140"
                 style="fill:#c61e25;fill-opacity:1;fill-rule:nonzero;stroke:none"
                 d="m 8199.2602,7036.6045 c 8.3409,-1.7954 17.0684,-2.5991 25.5127,-2.4219 0.8926,-6.5688 2.2256,-13.0459 4.1182,-19.2939 -8.0615,0.29 -16.2646,1.7397 -24.0508,4.3262 -2.4189,5.6845 -4.2441,11.5786 -5.5801,17.3896 z" /><path
                 id="path142"
                 style="fill:#c31e25;fill-opacity:1;fill-rule:nonzero;stroke:none"
                 d="m 8204.8403,7019.2149 c 7.7862,-2.5865 15.9893,-4.0362 24.0508,-4.3262 1.8926,-6.2485 4.3457,-12.2681 7.4756,-17.9214 -7.6797,0.7573 -15.2559,2.7954 -22.3828,6.1143 -3.7119,4.9731 -6.7246,10.4482 -9.1436,16.1333 z" /><path
                 id="path144"
                 style="fill:#c91e25;fill-opacity:1;fill-rule:nonzero;stroke:none"
                 d="m 8224.7729,7034.1826 c 8.3907,0.037 17.0284,0.9717 25.4297,2.8926 0.5752,-6.6997 1.5264,-13.459 2.9307,-19.9975 -8.0381,-1.8204 -16.3057,-2.5396 -24.2422,-2.189 -1.8926,6.248 -3.2256,12.7251 -4.1182,19.2939 z" /><path
                 id="path146"
                 style="fill:#c61e25;fill-opacity:1;fill-rule:nonzero;stroke:none"
                 d="m 8228.8911,7014.8887 c 7.9365,-0.3506 16.2041,0.3686 24.2422,2.189 1.4043,-6.5391 3.2617,-12.8575 5.6494,-18.6753 -7.3555,-1.6944 -14.9346,-2.1724 -22.416,-1.4351 -3.1299,5.6533 -5.583,11.6729 -7.4756,17.9214 z" /><path
                 id="path148"
                 style="fill:#c41e25;fill-opacity:1;fill-rule:nonzero;stroke:none"
                 d="m 8250.2026,7037.0752 c 1.1504,-13.3994 3.8047,-27.0366 8.5801,-38.6728 7.3555,1.6943 14.4863,4.6045 21.0742,8.7304 -3.291,11.9654 -5.1299,25.0869 -5.6445,38.7491 -7.4434,-3.9795 -15.6084,-6.8858 -24.0098,-8.8067 z" /><path
                 id="path150"
                 style="fill:#bb1d24;fill-opacity:1;fill-rule:nonzero;stroke:none"
                 d="m 8274.2124,7045.8819 c 3.7627,2.0122 8.2236,6.1811 12.8574,9.1635 0.541,-13.4717 2.2598,-26.3452 5.0156,-38.1645 -3.7783,-3.7779 -7.8847,-7.0274 -12.2285,-9.7481 -3.291,11.9654 -5.1299,25.0869 -5.6445,38.7491 z" /><path
                 id="path152"
                 style="fill:#b61d23;fill-opacity:1;fill-rule:nonzero;stroke:none"
                 d="m 8287.0698,7055.0454 c 2.1231,1.3667 4.2832,2.4839 6.4287,3.0313 0.1973,-12.793 1.5049,-24.961 3.6612,-36.1211 -1.6915,-1.6914 -3.3829,-3.3833 -5.0743,-5.0747 -2.7558,11.8193 -4.4746,24.6928 -5.0156,38.1645 z" /><path
                 id="path154"
                 style="fill:#b41d23;fill-opacity:1;fill-rule:nonzero;stroke:none"
                 d="m 8293.4985,7058.0767 c 2.041,0.52 4.0694,0.5239 6.042,-0.2647 -0.1055,-14.3154 0.8369,-27.9809 2.4453,-40.6836 -1.6084,1.6094 -3.2177,3.2183 -4.8261,4.8272 -2.1563,11.1601 -3.4639,23.3281 -3.6612,36.1211 z" /><path
                 id="path156"
                 style="fill:#b31d23;fill-opacity:1;fill-rule:nonzero;stroke:none"
                 d="m 8299.5405,7057.812 c 6.3233,-2.5288 13.6465,-9.2744 18.9981,-11.8188 -0.8887,-13.9815 -0.8565,-28.2051 -0.9913,-40.5933 -5.6611,3.1411 -10.9101,7.0777 -15.5615,11.7285 -1.6084,12.7027 -2.5508,26.3682 -2.4453,40.6836 z" /><path
                 id="path158"
                 style="fill:#b91d24;fill-opacity:1;fill-rule:nonzero;stroke:none"
                 d="m 8318.5386,7045.9932 c -0.8887,-13.9815 -0.8565,-28.2051 -0.9913,-40.5933 5.8194,-3.229 12.0733,-5.6177 18.5625,-7.0786 1.7569,11.5322 2.3497,26.6924 3.8731,39.7974 -7.5029,2.0254 -14.7246,4.6792 -21.4443,7.8745 z" /><path
                 id="path160"
                 style="fill:#c41e25;fill-opacity:1;fill-rule:nonzero;stroke:none"
                 d="m 8339.9829,7038.1187 c 7.5019,-2.0254 15.2861,-3.4219 23.1318,-4.1021 -1.0791,-6.1142 -1.9941,-12.7475 -3.0615,-19.1865 -7.3008,0.1 -14.7393,1.0605 -21.9199,2.8003 0.5586,6.8696 1.0879,13.9355 1.8496,20.4883 z" /><path
                 id="path162"
                 style="fill:#c21e24;fill-opacity:1;fill-rule:nonzero;stroke:none"
                 d="m 8338.1333,7017.6304 c 7.1806,-1.7398 14.6191,-2.7007 21.9199,-2.8003 -1.0674,-6.439 -2.2881,-12.6836 -3.9766,-18.022 -6.7558,-0.4814 -13.4785,0.052 -19.9668,1.5132 0.878,5.7661 1.4659,12.439 2.0235,19.3091 z" /><path
                 id="path164"
                 style="fill:#c91e25;fill-opacity:1;fill-rule:nonzero;stroke:none"
                 d="m 8363.1147,7034.0166 c 9.5283,-0.8266 19.1485,-0.5967 28.4658,0.8467 -1.5615,-5.4141 -3.1777,-11.1333 -5.1103,-16.6621 -8.6309,-2.3994 -17.6494,-3.4985 -26.417,-3.3711 1.0674,6.439 1.9824,13.0723 3.0615,19.1865 z" /><path
                 id="path166"
                 style="fill:#c61e25;fill-opacity:1;fill-rule:nonzero;stroke:none"
                 d="m 8360.0532,7014.8301 c 8.7676,-0.1274 17.7861,0.9717 26.417,3.3711 -1.9316,-5.5288 -4.1807,-10.8672 -7.0068,-15.5186 -7.4551,-3.3457 -15.3809,-5.3037 -23.3868,-5.8745 1.6885,5.3384 2.9092,11.583 3.9766,18.022 z" /><path
                 id="path168"
                 style="fill:#c61e25;fill-opacity:1;fill-rule:nonzero;stroke:none"
                 d="m 8391.5805,7034.8633 c -3.124,-10.8276 -6.4638,-22.8779 -12.1171,-32.1807 7.4541,3.3453 14.4365,8.0782 20.5566,14.1983 7.9287,7.9282 14.124,16.6806 18.2119,26.1069 -8.3193,-4.0254 -17.334,-6.6816 -26.6514,-8.1245 z" /></g></g></g></g></g></g></svg>