<svg width="951" height="1282" viewBox="0 0 951 1282" fill="none" xmlns="http://www.w3.org/2000/svg">
<rect x="1" y="1" width="949" height="1280" fill="#FCFCFC" stroke="#EEEEEE" stroke-width="2"/>
<path opacity="0.9" d="M750.636 273.485V321.565C750.636 323.774 748.845 325.565 746.636 325.565H711.728C709.519 325.565 707.728 323.774 707.728 321.565V273.485C707.728 271.276 709.519 269.485 711.728 269.485H746.636C748.845 269.485 750.636 271.276 750.636 273.485Z" fill="#0085FF"/>
<path d="M727.424 335.043H734.902" stroke="black" stroke-width="3" stroke-linecap="round" stroke-linejoin="round"/>
<path d="M751.728 342.54H706.859C703.764 342.516 701.264 340.008 701.25 336.913V269.609C701.26 266.515 703.765 264.01 706.859 264H755.467C758.565 264 761.076 266.511 761.076 269.609V320.087" stroke="black" stroke-width="3" stroke-linecap="round" stroke-linejoin="round"/>
<path d="M745.843 327.565H708.728V273.348C708.728 272.315 709.565 271.478 710.598 271.478H751.728C752.761 271.478 753.598 272.315 753.598 273.348V314.243" stroke="black" stroke-width="3" stroke-linecap="round" stroke-linejoin="round"/>
<path d="M764.815 323.826L756.402 315.413C754.853 313.865 752.343 313.865 750.794 315.413C749.545 317.074 749.545 319.361 750.794 321.022L761.076 333.174V336.913C761.076 340.652 768.554 350 768.554 350" stroke="black" stroke-width="3" stroke-linecap="round" stroke-linejoin="round"/>
<path d="M727.035 283.876H743.541" stroke="black" stroke-width="3" stroke-linecap="round" stroke-linejoin="round"/>
<path d="M718.785 283.876H721.611" stroke="black" stroke-width="3" stroke-linecap="round" stroke-linejoin="round"/>
<path d="M727.035 293.876H743.541" stroke="black" stroke-width="3" stroke-linecap="round" stroke-linejoin="round"/>
<path d="M718.785 293.876H721.611" stroke="black" stroke-width="3" stroke-linecap="round" stroke-linejoin="round"/>
<path d="M727.035 303.876H743.541" stroke="black" stroke-width="3" stroke-linecap="round" stroke-linejoin="round"/>
<path d="M727.035 313.876H743.541" stroke="black" stroke-width="3" stroke-linecap="round" stroke-linejoin="round"/>
<path d="M718.785 313.876H721.611" stroke="black" stroke-width="3" stroke-linecap="round" stroke-linejoin="round"/>
</svg>
