<svg width="90" height="90" viewBox="0 0 90 90" fill="none" xmlns="http://www.w3.org/2000/svg">
<path opacity="0.9" d="M51.6357 11.4854V59.5651C51.6357 61.7742 49.8448 63.5651 47.6357 63.5651H12.728C10.5189 63.5651 8.72803 61.7742 8.72803 59.5651V11.4854C8.72803 9.27621 10.5189 7.48535 12.728 7.48535H47.6357C49.8448 7.48535 51.6357 9.27621 51.6357 11.4854Z" fill="#0085FF"/>
<path d="M28.424 73.0435H35.9022" stroke="black" stroke-width="3" stroke-linecap="round" stroke-linejoin="round"/>
<path d="M52.7283 80.5404H7.8587C4.76403 80.5159 2.26423 78.0078 2.25 74.913V7.6087C2.26026 4.51536 4.76536 2.01026 7.8587 2H56.4674C59.565 2 62.0761 4.5111 62.0761 7.6087V58.087" stroke="black" stroke-width="3" stroke-linecap="round" stroke-linejoin="round"/>
<path d="M46.8429 65.5652H9.72827V11.3478C9.72827 10.3153 10.5653 9.47827 11.5978 9.47827H52.7283C53.7608 9.47827 54.5978 10.3153 54.5978 11.3478V52.2427" stroke="black" stroke-width="3" stroke-linecap="round" stroke-linejoin="round"/>
<path d="M65.8153 61.8261L57.4023 53.413C55.8532 51.8649 53.3427 51.8649 51.7936 53.413C50.5447 55.074 50.5447 57.3607 51.7936 59.0217L62.0762 71.1739V74.913C62.0762 78.6522 69.5545 88 69.5545 88" stroke="black" stroke-width="3" stroke-linecap="round" stroke-linejoin="round"/>
<path d="M88.25 88L77.0326 73.0435V55.9968C77.0326 49.6627 69.2514 43.6576 62.076 37.5217" stroke="black" stroke-width="3" stroke-linecap="round" stroke-linejoin="round"/>
<path d="M28.0353 21.8765H44.5409" stroke="black" stroke-width="3" stroke-linecap="round" stroke-linejoin="round"/>
<path d="M19.7853 21.8765H22.6115" stroke="black" stroke-width="3" stroke-linecap="round" stroke-linejoin="round"/>
<path d="M28.0353 31.8765H44.5409" stroke="black" stroke-width="3" stroke-linecap="round" stroke-linejoin="round"/>
<path d="M19.7853 31.8765H22.6115" stroke="black" stroke-width="3" stroke-linecap="round" stroke-linejoin="round"/>
<path d="M28.0353 41.8765H44.5409" stroke="black" stroke-width="3" stroke-linecap="round" stroke-linejoin="round"/>
<path d="M19.7853 41.8765H22.6115" stroke="black" stroke-width="3" stroke-linecap="round" stroke-linejoin="round"/>
<path d="M28.0353 51.8765H44.5409" stroke="black" stroke-width="3" stroke-linecap="round" stroke-linejoin="round"/>
<path d="M19.7853 51.8765H22.6115" stroke="black" stroke-width="3" stroke-linecap="round" stroke-linejoin="round"/>
</svg>
